<svg width="24" height="25" viewBox="0 0 24 25" fill="none" xmlns="http://www.w3.org/2000/svg">
<path d="M2.36262 14.6255C1.65801 15.028 0.988926 15.4896 0.36262 16.0055C0.281068 16.0856 0.219163 16.1834 0.181743 16.2914C0.144322 16.3993 0.132407 16.5145 0.146937 16.6278C0.161467 16.7411 0.202039 16.8496 0.265483 16.9446C0.328927 17.0396 0.413511 17.1187 0.512614 17.1755C2.31261 17.9955 3.94262 19.0955 5.67262 20.0455C5.77231 20.1012 5.88327 20.1337 5.99725 20.1406C6.11123 20.1475 6.2253 20.1287 6.33099 20.0854C6.43668 20.0422 6.53127 19.9757 6.60772 19.8909C6.68418 19.8061 6.74054 19.7051 6.77262 19.5955C7.48262 17.5955 8.50262 15.6755 9.08262 13.5955C9.11474 13.4675 9.11293 13.3333 9.07739 13.2061C9.04185 13.0789 8.9738 12.9632 8.87994 12.8704C8.78608 12.7775 8.66964 12.7107 8.54211 12.6766C8.41457 12.6424 8.28032 12.642 8.15261 12.6755L7.51261 12.8655C7.39261 12.8655 7.51261 12.8655 7.51261 12.8655C7.63261 12.8655 7.39261 12.8655 7.37261 12.8655H7.21263C7.00598 12.9216 6.80238 12.9884 6.60263 13.0655L6.36262 13.2455C6.25262 13.2455 5.99263 13.3055 6.24263 13.3055C6.04371 13.3055 5.85294 13.3845 5.71229 13.5252C5.57164 13.6659 5.49263 13.8566 5.49263 14.0555C5.49263 14.2544 5.57164 14.4452 5.71229 14.5859C5.85294 14.7265 6.04371 14.8055 6.24263 14.8055C6.71938 14.7334 7.1838 14.5954 7.62261 14.3955H7.80262C7.48262 14.3955 7.90262 14.3955 7.80262 14.3955H7.94262C8.17043 14.3407 8.39427 14.2706 8.61262 14.1855L7.69262 13.2655C7.11262 15.3455 6.10262 17.2655 5.39262 19.2655L6.49263 18.8155C4.76263 17.8655 3.12263 16.8155 1.32263 15.9555L1.48262 17.1355C2.00789 16.7115 2.56635 16.3303 3.15261 15.9955C3.325 15.8961 3.45083 15.7322 3.50241 15.54C3.55398 15.3478 3.52708 15.1429 3.42762 14.9705C3.32817 14.7982 3.1643 14.6723 2.97207 14.6208C2.77985 14.5692 2.575 14.5961 2.40261 14.6955L2.36262 14.6255Z" fill="#BDACBB"/>
<path d="M3.43262 14.9156C3.05087 13.4114 3.00435 11.8417 3.29639 10.3176C3.58843 8.79345 4.21188 7.35213 5.12261 6.0956C6.06256 4.72931 7.33163 3.62189 8.81261 2.8756C10.5209 2.19571 12.4005 2.0732 14.1826 2.5256C15.8508 2.81823 17.4207 3.51929 18.752 4.56623C20.0834 5.61317 21.1349 6.97342 21.8126 8.5256C22.9826 11.5256 22.1526 15.1156 20.4026 17.7556C19.4555 19.1549 18.1406 20.2657 16.6026 20.9656C15.6863 21.426 14.6931 21.7142 13.6726 21.8156C12.9611 21.8712 12.2454 21.7932 11.5626 21.5856C11.3703 21.5326 11.1649 21.5581 10.9914 21.6565C10.8179 21.755 10.6907 21.9183 10.6376 22.1106C10.5846 22.3029 10.6101 22.5084 10.7085 22.6818C10.807 22.8553 10.9703 22.9825 11.1626 23.0356C18.7126 25.0356 25.1626 16.3856 23.6326 9.4056C23.1454 7.54483 22.1877 5.84071 20.8514 4.45716C19.5151 3.07361 17.8453 2.05716 16.0026 1.50559C14.1046 0.853386 12.0774 0.668164 10.0926 0.965598C8.16707 1.35232 6.41532 2.34381 5.09261 3.7956C3.62172 5.29138 2.56031 7.14037 2.01041 9.16485C1.46051 11.1893 1.4406 13.3212 1.95261 15.3556C2.01815 15.5316 2.14736 15.6766 2.31467 15.762C2.48199 15.8474 2.67523 15.8668 2.85621 15.8165C3.03718 15.7663 3.1927 15.6499 3.29203 15.4905C3.39135 15.3311 3.42725 15.1402 3.39261 14.9556L3.43262 14.9156Z" fill="#BDACBB"/>
<path d="M6.98263 13.8356C6.55234 11.878 6.91169 9.82973 7.98263 8.13556C8.55703 7.27176 9.35552 6.58043 10.2926 6.13556C11.3633 5.71674 12.5381 5.6433 13.6526 5.92555C14.7134 6.10767 15.7133 6.54765 16.5642 7.20677C17.4151 7.86588 18.0911 8.72397 18.5326 9.70556C18.8576 10.6954 18.9455 11.7477 18.7892 12.7778C18.6328 13.8078 18.2367 14.7867 17.6326 15.6356C16.9784 16.5846 16.0645 17.3251 15.0005 17.7684C13.9365 18.2118 12.7672 18.3392 11.6326 18.1356C10.6826 17.9756 10.2826 19.4156 11.2326 19.5856C12.4962 19.8328 13.8019 19.7542 15.0266 19.357C16.2513 18.9598 17.3547 18.2573 18.2326 17.3156C19.0875 16.3501 19.7117 15.2029 20.0582 13.9608C20.4046 12.7187 20.4643 11.4141 20.2326 10.1455C19.8974 8.86968 19.2391 7.70169 18.3213 6.75412C17.4036 5.80655 16.2572 5.11136 14.9926 4.73556C13.6911 4.29203 12.302 4.16854 10.9426 4.37556C9.63389 4.64817 8.44629 5.33131 7.55264 6.32556C6.60588 7.40315 5.9304 8.69143 5.5825 10.083C5.2346 11.4746 5.22436 12.9292 5.55264 14.3256C5.75264 15.2656 7.19264 14.8655 7.00264 13.9255L6.98263 13.8356Z" fill="#BDACBB"/>
<path d="M10.7327 18.8056C10.7327 19.3756 10.7327 19.9456 10.7327 20.5056C10.7327 20.7856 10.7327 21.0556 10.7327 21.3256C10.7327 21.5956 10.7327 21.5956 10.7327 21.7356V21.9656V22.0656C10.7327 21.9856 10.7327 21.9856 10.7327 22.0656C10.6836 22.2587 10.7123 22.4634 10.8127 22.6356C10.8592 22.7201 10.9221 22.7945 10.9976 22.8546C11.0731 22.9147 11.1598 22.9592 11.2527 22.9856C11.4462 23.0378 11.6526 23.0113 11.8268 22.9121C12.001 22.8128 12.1289 22.6487 12.1827 22.4556C12.3594 21.244 12.4063 20.0171 12.3227 18.7956C12.3227 18.5967 12.2436 18.4059 12.103 18.2652C11.9623 18.1246 11.7716 18.0456 11.5727 18.0456C11.3738 18.0456 11.183 18.1246 11.0423 18.2652C10.9017 18.4059 10.8227 18.5967 10.8227 18.7956L10.7327 18.8056Z" fill="#BDACBB"/>
</svg>
