<svg width="18" height="22" viewBox="0 0 18 22" fill="none" xmlns="http://www.w3.org/2000/svg">
<g clip-path="url(#clip0_7866_166)">
<path d="M7.66501 21.035C7.78293 21.1638 7.92151 21.2719 8.07501 21.3551C8.2203 21.4319 8.37066 21.4986 8.52502 21.555C8.70883 21.6315 8.90593 21.6709 9.10501 21.6709C9.30409 21.6709 9.50122 21.6315 9.68503 21.555C9.9258 21.4574 10.1408 21.3057 10.3134 21.1116C10.486 20.9174 10.6115 20.6861 10.6802 20.4356C10.7489 20.185 10.7589 19.922 10.7094 19.6669C10.66 19.4119 10.5524 19.1717 10.395 18.965C10.2007 18.7136 9.94185 18.5195 9.64606 18.4033C9.35027 18.2871 9.02855 18.2531 8.71503 18.305C8.63196 18.3214 8.5513 18.3483 8.47501 18.385L8.27502 18.505C8.09805 18.6169 7.93373 18.7477 7.785 18.895C7.60771 19.0814 7.47145 19.3028 7.38501 19.5451C7.32845 19.6895 7.29147 19.8408 7.27502 19.995C7.30773 20.3861 7.44216 20.7619 7.66501 21.085" fill="#FFFCFE"/>
<path d="M1.515 15.995L1.675 11.935C1.65104 10.5636 1.738 9.19248 1.93501 7.83505C2.26626 6.6232 2.91529 5.52188 3.81499 4.64505C4.5353 3.75325 5.42166 3.00953 6.425 2.45505C7.31283 2.03495 8.2828 1.81704 9.265 1.81704C10.2472 1.81704 11.2172 2.03495 12.105 2.45505C13.0803 2.9468 13.9327 3.65143 14.599 4.51687C15.2654 5.38232 15.7288 6.38644 15.955 7.45505C16.755 10.395 16.405 13.455 16.445 16.455L17.195 15.705C14.505 15.815 11.825 15.535 9.135 15.565C7.715 15.565 6.305 15.735 4.885 15.745C3.465 15.755 2.14501 15.6951 0.77501 15.5851C-0.22499 15.5051 -0.17499 17.0051 0.77501 17.0851C2.14501 17.1951 3.515 17.255 4.885 17.245C6.255 17.235 7.715 17.075 9.135 17.065C11.825 17.065 14.505 17.315 17.195 17.205C17.3931 17.2025 17.5824 17.1226 17.7225 16.9825C17.8626 16.8424 17.9424 16.6532 17.945 16.455C17.875 11.285 18.675 4.28507 13.255 1.35507C12.2698 0.81764 11.1863 0.484753 10.0693 0.376493C8.95235 0.268233 7.82501 0.386827 6.75499 0.725065C4.32134 1.68907 2.31825 3.50036 1.11501 5.82504C0.491678 7.25428 0.204321 8.80737 0.27501 10.365L0.0550091 15.9851C0.0550091 16.184 0.134022 16.3747 0.274675 16.5153C0.415327 16.656 0.606097 16.7351 0.805009 16.7351C1.00392 16.7351 1.19469 16.656 1.33534 16.5153C1.476 16.3747 1.55501 16.184 1.55501 15.9851L1.515 15.995Z" fill="#FFFCFE"/>
</g>
<defs>
<clipPath id="clip0_7866_166">
<rect width="17.89" height="21.31" fill="white" transform="translate(0.0549927 0.344971)"/>
</clipPath>
</defs>
</svg>
