<svg width="25" height="25" viewBox="0 0 25 25" fill="none" xmlns="http://www.w3.org/2000/svg"><path d="M19.1917 0.988215C17.3517 2.37822 15.4517 3.68823 13.5717 5.03823C12.2217 6.03823 10.8517 6.95823 9.48167 7.90823C8.02288 8.83193 6.63866 9.86844 5.34167 11.0082C3.91167 12.3882 5.23167 13.7182 6.29167 14.7782C7.63121 16.0742 9.05788 17.277 10.5617 18.3782C11.9117 19.3782 13.3317 20.2982 14.7117 21.2682C16.0917 22.2382 17.3017 23.2682 18.6217 24.1882C19.9417 25.1082 21.1817 22.9682 19.8817 22.0382L12.7017 16.8682C11.4293 15.9553 10.2075 14.9738 9.04167 13.9282C8.54581 13.3421 7.99681 12.8032 7.40167 12.3182C7.12167 11.8982 7.03166 12.0482 7.11166 12.7782C7.25833 12.6516 7.40834 12.5316 7.56168 12.4182L8.56168 11.6182C12.4517 8.70822 16.5617 6.08822 20.4317 3.14822C21.6917 2.14822 20.4317 0.00821531 19.1717 0.988215H19.1917Z"/></svg>
