<svg width="15" height="15" viewBox="0 0 15 15" fill="none" xmlns="http://www.w3.org/2000/svg">
<g clip-path="url(#clip0_9427_17029)">
<path d="M0.192549 3.46421C1.0122 4.51703 1.78608 5.60523 2.58293 6.68153C3.17282 7.45414 3.7166 8.239 4.27774 9.02361C4.82442 9.8598 5.43572 10.6519 6.10605 11.3927C6.91647 12.2084 7.67481 11.4335 8.27915 10.8114C9.01767 10.0255 9.70155 9.18997 10.326 8.3107C10.8932 7.52126 11.4135 6.69199 11.963 5.88545C12.5126 5.0789 13.0983 4.3702 13.6195 3.59879C14.1406 2.82738 12.8921 2.12799 12.365 2.88792L9.43437 7.08533C8.91691 7.82914 8.35938 8.54426 7.76425 9.22752C7.42935 9.51932 7.12217 9.84148 6.84661 10.1899C6.60597 10.3554 6.69351 10.4062 7.11517 10.3538C7.04065 10.27 6.96997 10.1842 6.90312 10.0965L6.43186 9.52465C4.71558 7.29861 3.16523 4.94286 1.43177 2.72864C0.842625 2.00809 -0.384852 2.75506 0.192717 3.47577L0.192549 3.46421Z" fill="#5A2F56"/>
</g>
<defs>
<clipPath id="clip0_9427_17029">
<rect width="13.8864" height="13.8864" fill="white" transform="translate(0.201904 14.0869) rotate(-90.8331)"/>
</clipPath>
</defs>
</svg>
