<svg width="376" height="686" xmlns="http://www.w3.org/2000/svg"><g fill="none"><path fill="#FFF" d="M0 0h376v667H0z"/><path d="M350.665 116.972L376 125.584V668.5H0V141.276a58.814 58.814 0 0160.931 5.736l11.863 8.852c22.091 16.484 52.621 15.6 73.721-2.135l4.882-4.104c17.01-14.298 41.346-15.859 60.044-3.853 19.462 12.497 44.913 10.246 61.879-5.473l9.61-8.904a67.64 67.64 0 0167.735-14.423z" fill-opacity=".24" fill="#00F999"/><path d="M350.665 96.972L376 105.584V648.5H0V121.276a58.814 58.814 0 0160.931 5.736l11.863 8.852c22.091 16.484 52.621 15.6 73.721-2.135l4.882-4.104c17.01-14.298 41.346-15.859 60.044-3.853 19.462 12.497 44.913 10.246 61.879-5.473l9.61-8.904a67.64 67.64 0 0167.735-14.423z" fill-opacity=".24" fill="#00F999"/><path d="M304.82 140.299l10.866-10.067c16.586-15.366 41.569-17.292 60.314-4.649V686H0V139.5l28.838-6.299a78.233 78.233 0 0163.484 13.73l11.972 8.933c22.091 16.484 52.621 15.6 73.721-2.135l4.882-4.104c17.01-14.298 41.346-15.859 60.044-3.853 19.462 12.497 44.913 10.246 61.879-5.473z" fill="#00F999"/></g></svg>