<svg width="377" height="665" xmlns="http://www.w3.org/2000/svg"><defs><linearGradient x1="50%" y1="0%" x2="50%" y2="100%" id="a"><stop stop-color="#32F9B1" offset="0%"/><stop stop-color="#58E8E6" offset="100%"/></linearGradient></defs><g fill-rule="nonzero" fill="none"><path d="M0 0h377v665H0z" fill="url(#a)"/><path d="M305.63 125.312l10.896-9.749c16.63-14.882 41.68-16.746 60.474-4.502V665H0V124.538l28.916-6.1c22.21-4.686 45.431.165 63.652 13.297l12.003 8.65c22.15 15.964 52.761 15.107 73.917-2.068l4.895-3.974c17.056-13.846 41.456-15.358 60.204-3.73 19.514 12.102 45.033 9.922 62.044-5.3z" fill="#FFF" opacity=".8"/><path d="M351.598 102.435L377 110.65V665H0V125.624c19.837-9.197 43.408-7.085 61.093 5.472l11.895 8.446c22.15 15.728 52.76 14.884 73.917-2.037l4.895-3.916c17.056-13.641 41.456-15.132 60.203-3.676 19.514 11.923 45.033 9.776 62.044-5.222l9.636-8.495c18.267-16.105 44.338-21.387 67.915-13.761z" fill="#FFF" fill-opacity=".4"/><path d="M351.598 113.368L377 121.424V665H0V136.106c19.837-9.018 43.408-6.947 61.093 5.366l11.895 8.282c22.15 15.422 52.76 14.595 73.917-1.998l4.895-3.84c17.056-13.375 41.456-14.837 60.203-3.604 19.514 11.692 45.033 9.586 62.044-5.12l9.636-8.33c18.267-15.792 44.338-20.972 67.915-13.494z" fill="#FFF" fill-opacity=".4"/></g></svg>