<svg width="375" height="246" xmlns="http://www.w3.org/2000/svg" xmlns:xlink="http://www.w3.org/1999/xlink"><defs><linearGradient x1="50%" y1="0%" x2="50%" y2="100%" id="c"><stop stop-color="#FF8E00" offset="0%"/><stop stop-color="#D12D5F" offset="51.563%"/></linearGradient><linearGradient x1="44.119%" y1="0%" x2="44.119%" y2="108.782%" id="d"><stop stop-color="#FFF" stop-opacity=".08" offset="0%"/><stop stop-color="#FFF" stop-opacity=".2" offset="100%"/></linearGradient><linearGradient x1="50%" y1="0%" x2="50%" y2="100%" id="e"><stop stop-color="#FFF" stop-opacity=".08" offset="0%"/><stop stop-color="#FFF" stop-opacity=".2" offset="100%"/></linearGradient><path id="a" d="M0 0h375v668H0z"/></defs><g fill="none" fill-rule="evenodd"><mask id="b" fill="#fff"><use xlink:href="#a"/></mask><g mask="url(#b)" fill-rule="nonzero"><g transform="translate(-92 -329)"><ellipse fill="url(#c)" transform="rotate(-180 280 261.5)" cx="280" cy="261.5" rx="280" ry="261.5"/><path d="M85.794 586.139l1.35-2.612V329H498l-55.401 44.515a100.001 100.001 0 01-62.636 22.046h-48.742c-34.59 0-66.372 19.042-82.687 49.542l-5.692 10.64a73.635 73.635 0 01-64.929 38.903 73.634 73.634 0 00-65.414 39.825l-25.355 49.056V596a8.649 8.649 0 01-1.35-9.861z" fill="url(#d)"/><path d="M107.307 557.27L85 565V325.076L520 318l-51.356 37.423a99.999 99.999 0 01-58.892 19.181h-50.766a86.117 86.117 0 00-74.036 42.132l-5.561 9.361a66.98 66.98 0 01-57.585 32.77c-27.659 0-52.474 17.002-62.461 42.796l-3.34 8.624a80.479 80.479 0 01-48.696 46.983z" fill="url(#e)"/></g></g></g></svg>