<svg width="383" height="676" fill="none" xmlns="http://www.w3.org/2000/svg"><g filter="url(#filter0_d)"><path d="M4 0h375v668H4V0z" fill="#fff"/></g><mask id="a" maskUnits="userSpaceOnUse" x="4" y="0" width="375" height="668"><path d="M4 0h375v668H4V0z" fill="#fff"/></mask><g mask="url(#a)"><g filter="url(#filter1_d)"><ellipse cx="192" cy="-67.5" rx="280" ry="261.5" transform="rotate(-180 192 -67.5)" fill="url(#paint0_linear)"/></g><path d="M25.307 226.27L3 234V-5.924L438-13l-51.356 37.423a99.999 99.999 0 01-58.892 19.181h-50.766a86.117 86.117 0 00-74.036 42.132l-5.561 9.361a66.98 66.98 0 01-57.585 32.77c-27.659 0-52.474 17.002-62.461 42.796l-3.34 8.624a80.479 80.479 0 01-48.696 46.983z" fill="url(#paint1_linear)"/><path d="M3.794 255.139l1.35-2.613V-2H416l-55.401 44.515a100.001 100.001 0 01-62.636 22.046h-48.742c-34.59 0-66.372 19.042-82.687 49.542l-5.692 10.64a73.635 73.635 0 01-64.929 38.903A73.634 73.634 0 0030.5 203.471L5.144 252.526V265a8.649 8.649 0 01-1.35-9.861z" fill="url(#paint2_linear)"/></g><defs><linearGradient id="paint0_linear" x1="192" y1="-329" x2="192" y2="194" gradientUnits="userSpaceOnUse"><stop stop-color="#FF8E00"/><stop offset=".516" stop-color="#D12D5F"/></linearGradient><linearGradient id="paint1_linear" x1="220.5" y1="-13" x2="220.5" y2="234" gradientUnits="userSpaceOnUse"><stop stop-color="#fff" stop-opacity=".08"/><stop offset="1" stop-color="#fff" stop-opacity=".2"/></linearGradient><linearGradient id="paint2_linear" x1="185.116" y1="-2" x2="185.116" y2="288.448" gradientUnits="userSpaceOnUse"><stop stop-color="#fff" stop-opacity=".08"/><stop offset="1" stop-color="#fff" stop-opacity=".2"/></linearGradient><filter id="filter0_d" x="0" y="0" width="383" height="676" filterUnits="userSpaceOnUse" color-interpolation-filters="sRGB"><feFlood flood-opacity="0" result="BackgroundImageFix"/><feColorMatrix in="SourceAlpha" values="0 0 0 0 0 0 0 0 0 0 0 0 0 0 0 0 0 0 127 0"/><feOffset dy="4"/><feGaussianBlur stdDeviation="2"/><feColorMatrix values="0 0 0 0 0 0 0 0 0 0 0 0 0 0 0 0 0 0 0.25 0"/><feBlend in2="BackgroundImageFix" result="effect1_dropShadow"/><feBlend in="SourceGraphic" in2="effect1_dropShadow" result="shape"/></filter><filter id="filter1_d" x="-92" y="-329" width="568" height="531" filterUnits="userSpaceOnUse" color-interpolation-filters="sRGB"><feFlood flood-opacity="0" result="BackgroundImageFix"/><feColorMatrix in="SourceAlpha" values="0 0 0 0 0 0 0 0 0 0 0 0 0 0 0 0 0 0 127 0"/><feOffset dy="4"/><feGaussianBlur stdDeviation="2"/><feColorMatrix values="0 0 0 0 0 0 0 0 0 0 0 0 0 0 0 0 0 0 0.25 0"/><feBlend in2="BackgroundImageFix" result="effect1_dropShadow"/><feBlend in="SourceGraphic" in2="effect1_dropShadow" result="shape"/></filter></defs></svg>
