<svg width="378" height="670" xmlns="http://www.w3.org/2000/svg"><defs><linearGradient x1="50%" y1="0%" x2="50%" y2="100%" id="a"><stop stop-color="#AF1A58" offset="10.938%"/><stop stop-color="#7B004A" offset="43.75%"/></linearGradient><linearGradient x1="57.543%" y1="-5.096%" x2="57.543%" y2="99.788%" id="b"><stop stop-color="#FFF" stop-opacity=".08" offset="0%"/><stop stop-color="#FFF" stop-opacity=".2" offset="100%"/></linearGradient><linearGradient x1="48.523%" y1="0%" x2="48.523%" y2="108.782%" id="c"><stop stop-color="#FFF" stop-opacity=".08" offset="0%"/><stop stop-color="#FFF" stop-opacity=".2" offset="100%"/></linearGradient></defs><g fill-rule="nonzero" fill="none"><path fill="#FFF" d="M3 3h375v667H3z"/><path fill="url(#a)" d="M0 0h375v667H0z" transform="translate(3 3)"/><path d="M24.07 230.746L3 238.5V3h374.5c-11.637 27.065-38.27 44.604-67.731 44.604h-34.783a86.117 86.117 0 00-74.036 42.132l-5.561 9.361a66.98 66.98 0 01-57.585 32.77c-27.659 0-52.474 17.002-62.461 42.796l-3.541 9.145a81.294 81.294 0 01-47.732 46.938z" fill="url(#b)"/><path d="M1.794 257.139l1.35-2.612V0L376.5 3.5l-15.412 21.437a100 100 0 01-81.193 41.624h-32.674c-34.59 0-66.372 19.042-82.687 49.542l-5.692 10.64a73.635 73.635 0 01-64.929 38.903A73.634 73.634 0 0028.5 205.471L3.144 254.527V267a8.649 8.649 0 01-1.35-9.861z" fill="url(#c)"/></g></svg>