<svg width="26" height="26" viewBox="0 0 26 26" fill="none" xmlns="http://www.w3.org/2000/svg">
<g clip-path="url(#clip0_8632_24071)">
<path d="M11.9055 22.6812C12.0234 22.8099 12.162 22.918 12.3155 23.0012C12.4608 23.078 12.6111 23.1448 12.7655 23.2011C12.9493 23.2776 13.1464 23.317 13.3455 23.317C13.5446 23.317 13.7417 23.2776 13.9255 23.2011C14.1663 23.1036 14.3813 22.9519 14.5539 22.7577C14.7265 22.5635 14.852 22.3322 14.9207 22.0817C14.9894 21.8311 14.9994 21.5681 14.9499 21.3131C14.9005 21.058 14.7929 20.8179 14.6355 20.6112C14.4411 20.3597 14.1823 20.1656 13.8865 20.0494C13.5907 19.9332 13.269 19.8992 12.9555 19.9511C12.8724 19.9675 12.7918 19.9944 12.7155 20.0311L12.5155 20.1511C12.3385 20.263 12.1742 20.3938 12.0255 20.5412C11.8482 20.7275 11.7119 20.9489 11.6255 21.1912C11.5689 21.3356 11.5319 21.4869 11.5155 21.6411C11.5482 22.0323 11.6826 22.4081 11.9055 22.7312" fill="#FFC834"/>
<path d="M5.75548 17.6411L5.91548 13.5811C5.89152 12.2097 5.97848 10.8386 6.17549 9.48117C6.50674 8.26932 7.15577 7.168 8.05547 6.29117C8.77577 5.39937 9.66214 4.65565 10.6655 4.10116C11.5533 3.68107 12.5233 3.46316 13.5055 3.46316C14.4877 3.46316 15.4576 3.68107 16.3455 4.10116C17.3208 4.59292 18.1731 5.29755 18.8395 6.16299C19.5059 7.02843 19.9693 8.03256 20.1955 9.10116C20.9955 12.0412 20.6455 15.1012 20.6855 18.1012L21.4355 17.3512C18.7455 17.4612 16.0655 17.1811 13.3755 17.2111C11.9555 17.2111 10.5455 17.3811 9.12547 17.3911C7.70547 17.4011 6.38549 17.3412 5.01549 17.2312C4.01549 17.1512 4.06549 18.6512 5.01549 18.7312C6.38549 18.8412 7.75547 18.9011 9.12547 18.8911C10.4955 18.8811 11.9555 18.7211 13.3755 18.7111C16.0655 18.7111 18.7455 18.9612 21.4355 18.8512C21.6336 18.8486 21.8228 18.7687 21.9629 18.6286C22.103 18.4885 22.1829 18.2993 22.1855 18.1012C22.1155 12.9312 22.9155 5.93119 17.4955 3.00119C16.5103 2.46376 15.4268 2.13087 14.3098 2.02261C13.1928 1.91435 12.0655 2.03295 10.9955 2.37118C8.56182 3.33518 6.55873 5.14648 5.35549 7.47116C4.73216 8.90039 4.4448 10.4535 4.51549 12.0111L4.29549 17.6312C4.29549 17.8301 4.3745 18.0208 4.51515 18.1615C4.65581 18.3021 4.84658 18.3812 5.04549 18.3812C5.2444 18.3812 5.43517 18.3021 5.57582 18.1615C5.71647 18.0208 5.79549 17.8301 5.79549 17.6312L5.75548 17.6411Z" fill="#FFC834"/>
</g>
<defs>
<clipPath id="clip0_8632_24071">
<rect width="17.89" height="21.31" fill="white" transform="translate(4.29547 1.99115)"/>
</clipPath>
</defs>
</svg>
