<svg width="26" height="26" viewBox="0 0 26 26" fill="none" xmlns="http://www.w3.org/2000/svg">
<g clip-path="url(#clip0_8632_24066)">
<path d="M11.4205 16.3912C11.5728 16.5567 11.752 16.6953 11.9505 16.8012C12.1282 16.906 12.3157 16.9931 12.5105 17.0612C12.9916 17.2256 13.5172 17.2005 13.9805 16.9912C14.4563 16.8024 14.8473 16.447 15.0805 15.9912C15.2633 15.6312 15.3416 15.2271 15.3064 14.8248C15.2712 14.4225 15.1239 14.0381 14.8813 13.7153C14.6387 13.3925 14.3104 13.1441 13.9337 12.9985C13.5571 12.8528 13.1472 12.8157 12.7505 12.8912C12.6421 12.9063 12.5372 12.9401 12.4405 12.9912L12.1905 13.1412C11.9646 13.2826 11.7564 13.4504 11.5705 13.6412C11.3427 13.8723 11.1716 14.153 11.0705 14.4613C10.9951 14.6465 10.9479 14.842 10.9305 15.0412C10.9739 15.5323 11.1426 16.004 11.4205 16.4112" fill="#FFC834"/>
<path d="M21.8105 14.3412C20.2605 11.2812 15.8105 10.1812 12.7005 10.2312C9.59047 10.2812 6.18047 11.5312 4.70047 14.4912C4.34047 15.2112 5.42048 15.8512 5.77048 15.1212C7.03048 12.5512 9.95046 11.5212 12.6605 11.4812C15.3705 11.4412 19.3405 12.3112 20.6605 14.9712C21.0305 15.6812 22.1005 15.0512 21.7405 14.3412H21.8105Z" fill="#FFC834"/>
<path d="M20.6405 14.9212C19.3205 17.7112 15.4505 18.4812 12.6405 18.3712C10.0005 18.2712 7.2005 17.2012 6.0005 14.6912C5.6505 13.9712 4.57051 14.6012 4.92051 15.3212C6.31051 18.2212 9.59051 19.5012 12.6405 19.6212C15.8805 19.7412 20.2205 18.7412 21.7305 15.5512C22.0705 14.8312 20.9905 14.1912 20.6505 14.9212H20.6405Z" fill="#FFC834"/>
<path d="M2.6405 23.4613C2.7905 20.9412 2.55048 18.4012 2.69048 15.8712C2.90048 12.0612 2.4705 8.24121 2.8005 4.42121C2.80028 3.8657 2.84039 3.31094 2.9205 2.76124C3.0905 2.08124 3.9205 2.18122 4.5505 2.18122H8.9205C12.2405 2.18122 15.5705 2.00121 18.9205 2.04121C19.5105 2.04121 20.0905 2.04121 20.6805 2.04121C21.4742 1.91532 22.2841 1.93565 23.0705 2.1012C23.7805 2.4212 23.7405 3.83124 23.7505 4.58124C23.7505 6.58124 23.7505 8.58126 23.7505 10.5313C23.7505 13.1213 23.9205 15.7413 23.8405 18.3413C23.8405 19.4013 23.8405 20.4612 23.7705 21.5212C23.7705 21.8412 23.7705 22.7612 23.5105 22.9812C23.2505 23.2012 22.4005 23.0412 22.0905 23.0412C20.9705 23.0412 19.8405 23.2612 18.7305 23.1912C17.9805 23.1912 17.2405 23.0212 16.4805 23.0212C15.7205 23.0212 14.7605 23.1312 13.9005 23.1312C12.0405 23.1312 10.2005 22.8212 8.3305 22.8712C6.23107 22.9713 4.12765 22.9512 2.03051 22.8112C1.23051 22.7312 1.24051 23.9812 2.03051 24.0612C4.06089 24.2012 6.09774 24.2212 8.13049 24.1212C10.0705 24.1212 11.9705 24.3712 13.9005 24.3812C14.7105 24.3812 15.5105 24.2912 16.3205 24.2712C17.1305 24.2512 17.9205 24.3912 18.7305 24.4412C19.8405 24.5112 20.9705 24.2812 22.0905 24.2912C22.9105 24.2912 24.0005 24.4312 24.5405 23.6812C25.0805 22.9312 25.0305 21.3512 25.0205 20.3212C25.0205 17.6912 25.1705 15.0412 25.0805 12.4112C25.0005 10.0512 24.9905 7.69125 24.9805 5.33124C25.054 4.24303 24.939 3.15026 24.6405 2.1012C24.1605 0.821203 23.0505 0.751247 21.8205 0.771247C18.4005 0.851247 14.9705 0.821213 11.5405 0.861213C9.74049 0.861213 7.93051 0.861213 6.12051 0.861213C4.92051 0.861213 3.2205 0.581201 2.2105 1.4112C2.02688 1.59953 1.88411 1.82376 1.79119 2.06983C1.69827 2.3159 1.65719 2.57856 1.6705 2.84125C1.6005 3.70125 1.55048 4.57122 1.50048 5.43122C1.37048 7.80122 1.50048 10.1713 1.50048 12.5313C1.50048 14.5313 1.34051 16.5313 1.37051 18.5313C1.37051 20.1613 1.48051 21.7912 1.37051 23.4112C1.32051 24.2112 2.57051 24.2112 2.62051 23.4112L2.6405 23.4613Z" fill="#FFC834"/>
<path d="M2.42047 6.97119C5.97047 7.06119 9.53047 7.12125 13.0805 7.15125C16.6305 7.18125 20.0805 6.98119 23.5905 6.97119C23.7426 6.95191 23.8825 6.87782 23.9839 6.76276C24.0853 6.64769 24.1413 6.49956 24.1413 6.34619C24.1413 6.19282 24.0853 6.04475 23.9839 5.92969C23.8825 5.81462 23.7426 5.74048 23.5905 5.72119C20.0805 5.72119 16.5905 5.93125 13.0805 5.90125C9.57047 5.87125 5.97047 5.81119 2.42047 5.72119C2.26832 5.74048 2.12844 5.81462 2.02704 5.92969C1.92564 6.04475 1.86969 6.19282 1.86969 6.34619C1.86969 6.49956 1.92564 6.64769 2.02704 6.76276C2.12844 6.87782 2.26832 6.95191 2.42047 6.97119Z" fill="#FFC834"/>
<path d="M4.6405 4.61121C5.6405 4.61121 6.5705 4.61121 7.5405 4.61121C7.73941 4.61121 7.93018 4.53219 8.07083 4.39154C8.21148 4.25089 8.2905 4.06012 8.2905 3.86121C8.2905 3.66229 8.21148 3.47152 8.07083 3.33087C7.93018 3.19022 7.73941 3.11121 7.5405 3.11121C6.5405 3.11121 5.6005 3.11121 4.6405 3.11121C4.44159 3.11121 4.25082 3.19022 4.11017 3.33087C3.96952 3.47152 3.8905 3.66229 3.8905 3.86121C3.8905 4.06012 3.96952 4.25089 4.11017 4.39154C4.25082 4.53219 4.44159 4.61121 4.6405 4.61121Z" fill="#FFC834"/>
</g>
<defs>
<clipPath id="clip0_8632_24066">
<rect width="23.72" height="23.69" fill="white" transform="translate(1.38049 0.801208)"/>
</clipPath>
</defs>
</svg>
