<svg width="24" height="24" viewBox="0 0 24 24" fill="none" xmlns="http://www.w3.org/2000/svg">
<g clip-path="url(#clip0_7866_178)">
<path d="M10.18 15.745C10.3323 15.9105 10.5115 16.0491 10.71 16.155C10.8877 16.2598 11.0753 16.3469 11.27 16.415C11.7511 16.5793 12.2767 16.5543 12.74 16.345C13.2158 16.1561 13.6068 15.8007 13.84 15.345C14.0229 14.9849 14.1012 14.5808 14.0659 14.1786C14.0307 13.7763 13.8835 13.3919 13.6408 13.0691C13.3982 12.7462 13.0699 12.4979 12.6933 12.3523C12.3166 12.2066 11.9067 12.1695 11.51 12.245C11.4016 12.2601 11.2967 12.2939 11.2 12.345L10.95 12.495C10.7241 12.6364 10.516 12.8042 10.33 12.995C10.1022 13.2261 9.93107 13.5067 9.82999 13.815C9.75458 14.0003 9.70741 14.1957 9.69 14.395C9.73339 14.8861 9.90209 15.3578 10.18 15.765" fill="#FFFCFE"/>
<path d="M20.57 13.695C19.02 10.635 14.57 9.53495 11.46 9.58495C8.34999 9.63495 4.93999 10.885 3.45999 13.845C3.09999 14.565 4.18 15.205 4.53 14.475C5.79 11.905 8.70999 10.875 11.42 10.835C14.13 10.795 18.1 11.6649 19.42 14.3249C19.79 15.0349 20.86 14.405 20.5 13.695H20.57Z" fill="#FFFCFE"/>
<path d="M19.4 14.275C18.08 17.065 14.21 17.835 11.4 17.725C8.76003 17.625 5.96002 16.555 4.76002 14.045C4.41002 13.325 3.33003 13.955 3.68003 14.675C5.07003 17.575 8.35003 18.855 11.4 18.975C14.64 19.095 18.98 18.095 20.49 14.905C20.83 14.185 19.75 13.545 19.41 14.275H19.4Z" fill="#FFFCFE"/>
<path d="M1.40002 22.815C1.55002 20.295 1.31001 17.755 1.45001 15.225C1.66001 11.415 1.23002 7.59499 1.56002 3.77499C1.55981 3.21948 1.59991 2.66471 1.68002 2.11501C1.85002 1.43501 2.68002 1.535 3.31002 1.535H7.68002C11 1.535 14.33 1.35498 17.68 1.39498C18.27 1.39498 18.85 1.39498 19.44 1.39498C20.2337 1.2691 21.0437 1.28943 21.83 1.45498C22.54 1.77498 22.5 3.18502 22.51 3.93502C22.51 5.93502 22.51 7.93503 22.51 9.88503C22.51 12.475 22.68 15.095 22.6 17.695C22.6 18.755 22.6 19.815 22.53 20.875C22.53 21.195 22.53 22.115 22.27 22.335C22.01 22.555 21.16 22.395 20.85 22.395C19.73 22.395 18.6 22.615 17.49 22.545C16.74 22.545 16 22.375 15.24 22.375C14.48 22.375 13.52 22.485 12.66 22.485C10.8 22.485 8.96002 22.175 7.09002 22.225C4.99059 22.325 2.88717 22.305 0.790033 22.165C-0.00996715 22.085 3.28422e-05 23.335 0.790033 23.415C2.82042 23.555 4.85727 23.575 6.89001 23.475C8.83001 23.475 10.73 23.725 12.66 23.735C13.47 23.735 14.27 23.645 15.08 23.625C15.89 23.605 16.68 23.745 17.49 23.795C18.6 23.865 19.73 23.635 20.85 23.645C21.67 23.645 22.76 23.785 23.3 23.035C23.84 22.285 23.79 20.705 23.78 19.675C23.78 17.045 23.93 14.395 23.84 11.765C23.76 9.40498 23.75 7.04502 23.74 4.68502C23.8135 3.59681 23.6985 2.50403 23.4 1.45498C22.92 0.174978 21.81 0.105022 20.58 0.125022C17.16 0.205022 13.73 0.174988 10.3 0.214988C8.50001 0.214988 6.69003 0.214988 4.88003 0.214988C3.68003 0.214988 1.98003 -0.0650239 0.970026 0.764976C0.786403 0.953305 0.643636 1.17754 0.550714 1.42361C0.457792 1.66968 0.416711 1.93234 0.430017 2.19503C0.360017 3.05503 0.310004 3.925 0.260004 4.785C0.130004 7.155 0.260004 9.52503 0.260004 11.885C0.260004 13.885 0.100029 15.885 0.130029 17.885C0.130029 19.515 0.240029 21.145 0.130029 22.765C0.0800292 23.565 1.33003 23.565 1.38003 22.765L1.40002 22.815Z" fill="#FFFCFE"/>
<path d="M1.17999 6.32497C4.72999 6.41497 8.29 6.47502 11.84 6.50502C15.39 6.53502 18.84 6.33497 22.35 6.32497C22.5022 6.30568 22.642 6.23159 22.7434 6.11653C22.8448 6.00147 22.9008 5.85333 22.9008 5.69997C22.9008 5.5466 22.8448 5.39853 22.7434 5.28346C22.642 5.1684 22.5022 5.09425 22.35 5.07497C18.84 5.07497 15.35 5.28502 11.84 5.25502C8.33 5.22502 4.72999 5.16497 1.17999 5.07497C1.02784 5.09425 0.88796 5.1684 0.78656 5.28346C0.68516 5.39853 0.629211 5.5466 0.629211 5.69997C0.629211 5.85333 0.68516 6.00147 0.78656 6.11653C0.88796 6.23159 1.02784 6.30568 1.17999 6.32497Z" fill="#FFFCFE"/>
<path d="M3.40002 3.96498C4.40002 3.96498 5.33002 3.96498 6.30002 3.96498C6.49893 3.96498 6.6897 3.88597 6.83035 3.74532C6.971 3.60466 7.05002 3.41389 7.05002 3.21498C7.05002 3.01607 6.971 2.8253 6.83035 2.68465C6.6897 2.54399 6.49893 2.46498 6.30002 2.46498C5.30002 2.46498 4.36002 2.46498 3.40002 2.46498C3.20111 2.46498 3.01034 2.54399 2.86969 2.68465C2.72904 2.8253 2.65002 3.01607 2.65002 3.21498C2.65002 3.41389 2.72904 3.60466 2.86969 3.74532C3.01034 3.88597 3.20111 3.96498 3.40002 3.96498Z" fill="#FFFCFE"/>
</g>
<defs>
<clipPath id="clip0_7866_178">
<rect width="23.72" height="23.69" fill="white" transform="translate(0.140015 0.154999)"/>
</clipPath>
</defs>
</svg>
