<svg width="25" height="25" viewBox="0 0 25 25" fill="none" xmlns="http://www.w3.org/2000/svg">
<g clip-path="url(#clip0_8449_510)">
<path d="M10.8838 16.2646C11.0361 16.4301 11.2153 16.5687 11.4138 16.6746C11.5915 16.7794 11.7791 16.8665 11.9738 16.9346C12.4549 17.0989 12.9805 17.0739 13.4438 16.8646C13.9196 16.6757 14.3106 16.3203 14.5438 15.8646C14.7267 15.5045 14.8049 15.1004 14.7697 14.6981C14.7345 14.2958 14.5873 13.9114 14.3446 13.5886C14.102 13.2658 13.7737 13.0175 13.3971 12.8718C13.0204 12.7262 12.6105 12.689 12.2138 12.7646C12.1054 12.7796 12.0005 12.8135 11.9038 12.8646L11.6538 13.0146C11.4279 13.1559 11.2198 13.3238 11.0338 13.5146C10.806 13.7456 10.6349 14.0263 10.5338 14.3346C10.4584 14.5198 10.4112 14.7153 10.3938 14.9146C10.4372 15.4056 10.6059 15.8774 10.8838 16.2846" fill="#FFFCFE"/>
<path d="M21.2738 14.2146C19.7238 11.1546 15.2738 10.0545 12.1638 10.1045C9.05379 10.1545 5.64379 11.4045 4.16379 14.3645C3.80379 15.0845 4.8838 15.7245 5.2338 14.9945C6.4938 12.4245 9.41378 11.3945 12.1238 11.3545C14.8338 11.3145 18.8038 12.1845 20.1238 14.8445C20.4938 15.5545 21.5638 14.9246 21.2038 14.2146H21.2738Z" fill="#FFFCFE"/>
<path d="M20.1037 14.7946C18.7837 17.5846 14.9137 18.3546 12.1037 18.2446C9.46371 18.1446 6.66369 17.0746 5.46369 14.5646C5.11369 13.8446 4.03371 14.4746 4.38371 15.1946C5.77371 18.0946 9.05371 19.3746 12.1037 19.4946C15.3437 19.6146 19.6837 18.6146 21.1937 15.4246C21.5337 14.7046 20.4537 14.0646 20.1137 14.7946H20.1037Z" fill="#FFFCFE"/>
<path d="M2.10369 23.3346C2.25369 20.8146 2.01368 18.2746 2.15368 15.7446C2.36368 11.9346 1.9337 8.11456 2.2637 4.29456C2.26348 3.73905 2.30358 3.18429 2.38369 2.63459C2.55369 1.95459 3.3837 2.05457 4.0137 2.05457H8.38369C11.7037 2.05457 15.0337 1.87456 18.3837 1.91456C18.9737 1.91456 19.5537 1.91456 20.1437 1.91456C20.9374 1.78867 21.7473 1.809 22.5337 1.97456C23.2437 2.29456 23.2037 3.7046 23.2137 4.4546C23.2137 6.4546 23.2137 8.45461 23.2137 10.4046C23.2137 12.9946 23.3837 15.6146 23.3037 18.2146C23.3037 19.2746 23.3037 20.3346 23.2337 21.3946C23.2337 21.7146 23.2337 22.6346 22.9737 22.8546C22.7137 23.0746 21.8637 22.9146 21.5537 22.9146C20.4337 22.9146 19.3037 23.1346 18.1937 23.0646C17.4437 23.0646 16.7037 22.8946 15.9437 22.8946C15.1837 22.8946 14.2237 23.0046 13.3637 23.0046C11.5037 23.0046 9.6637 22.6946 7.79369 22.7446C5.69427 22.8446 3.59085 22.8246 1.49371 22.6846C0.693707 22.6046 0.703707 23.8546 1.49371 23.9346C3.52409 24.0746 5.56094 24.0946 7.59368 23.9946C9.53368 23.9946 11.4337 24.2446 13.3637 24.2546C14.1737 24.2546 14.9737 24.1646 15.7837 24.1446C16.5937 24.1246 17.3837 24.2646 18.1937 24.3146C19.3037 24.3846 20.4337 24.1546 21.5537 24.1646C22.3737 24.1646 23.4637 24.3046 24.0037 23.5546C24.5437 22.8046 24.4937 21.2246 24.4837 20.1946C24.4837 17.5646 24.6337 14.9146 24.5437 12.2846C24.4637 9.92455 24.4537 7.5646 24.4437 5.2046C24.5172 4.11638 24.4022 3.02361 24.1037 1.97456C23.6237 0.694556 22.5137 0.624599 21.2837 0.644599C17.8637 0.724599 14.4337 0.694565 11.0037 0.734565C9.20369 0.734565 7.3937 0.734565 5.5837 0.734565C4.3837 0.734565 2.6837 0.454553 1.6737 1.28455C1.49008 1.47288 1.34731 1.69711 1.25439 1.94318C1.16147 2.18925 1.12039 2.45191 1.13369 2.71461C1.06369 3.57461 1.01368 4.44457 0.963678 5.30457C0.833678 7.67457 0.963678 10.0446 0.963678 12.4046C0.963678 14.4046 0.803704 16.4046 0.833704 18.4046C0.833704 20.0346 0.943704 21.6646 0.833704 23.2846C0.783704 24.0846 2.0337 24.0846 2.0837 23.2846L2.10369 23.3346Z" fill="#FFFCFE"/>
<path d="M1.88379 6.84454C5.43379 6.93454 8.99379 6.9946 12.5438 7.0246C16.0938 7.0546 19.5438 6.85454 23.0538 6.84454C23.206 6.82526 23.3458 6.75117 23.4472 6.63611C23.5486 6.52105 23.6046 6.37291 23.6046 6.21954C23.6046 6.06618 23.5486 5.9181 23.4472 5.80304C23.3458 5.68798 23.206 5.61383 23.0538 5.59454C19.5438 5.59454 16.0538 5.8046 12.5438 5.7746C9.03379 5.7446 5.43379 5.68454 1.88379 5.59454C1.73164 5.61383 1.59176 5.68798 1.49036 5.80304C1.38896 5.9181 1.33301 6.06618 1.33301 6.21954C1.33301 6.37291 1.38896 6.52105 1.49036 6.63611C1.59176 6.75117 1.73164 6.82526 1.88379 6.84454Z" fill="#FFFCFE"/>
<path d="M4.10376 4.48456C5.10376 4.48456 6.03375 4.48456 7.00375 4.48456C7.20267 4.48456 7.39344 4.40554 7.53409 4.26489C7.67474 4.12424 7.75375 3.93347 7.75375 3.73456C7.75375 3.53565 7.67474 3.34488 7.53409 3.20422C7.39344 3.06357 7.20267 2.98456 7.00375 2.98456C6.00375 2.98456 5.06376 2.98456 4.10376 2.98456C3.90485 2.98456 3.71408 3.06357 3.57343 3.20422C3.43277 3.34488 3.35376 3.53565 3.35376 3.73456C3.35376 3.93347 3.43277 4.12424 3.57343 4.26489C3.71408 4.40554 3.90485 4.48456 4.10376 4.48456Z" fill="#FFFCFE"/>
</g>
<defs>
<clipPath id="clip0_8449_510">
<rect width="23.72" height="23.69" fill="white" transform="translate(0.84375 0.674561)"/>
</clipPath>
</defs>
</svg>
