<svg width="130" height="145" viewBox="0 0 130 145" fill="none" xmlns="http://www.w3.org/2000/svg">
<g clip-path="url(#clip0_8342_70)">
<path d="M19.675 30.43C22.7252 31.6976 26.0797 32.0452 29.325 31.43C32.2877 30.7738 34.9414 29.1351 36.855 26.78C38.7593 24.5117 39.8899 21.6946 40.0822 18.7391C40.2744 15.7836 39.5182 12.844 37.9238 10.348C36.3294 7.85208 33.9799 5.93015 31.2175 4.86213C28.455 3.79411 25.4237 3.63575 22.565 4.41004C19.7344 5.07748 17.2618 6.79258 15.645 9.21003C14.7019 10.688 13.9143 12.2598 13.295 13.9C12.1799 16.8988 12.1095 20.1862 13.095 23.23C14.165 26.23 17.035 28.84 19.675 30.46C21.455 31.56 23.095 28.75 21.315 27.65C19.3261 26.462 17.663 24.799 16.475 22.81C15.475 21.09 15.535 18.48 15.895 16.58C16.475 13.58 18.435 9.86003 21.175 8.40003C23.1962 7.32988 25.5072 6.93553 27.7689 7.27479C30.0307 7.61404 32.1242 8.66903 33.7426 10.2851C35.3609 11.9012 36.4188 13.9932 36.7612 16.2545C37.1035 18.5158 36.7124 20.8273 35.645 22.85C34.3438 25.2737 32.1817 27.1219 29.585 28.03C26.8606 28.808 23.9566 28.6745 21.315 27.65C19.415 26.82 17.765 29.65 19.675 30.46V30.43Z" fill="#A31852"/>
<path d="M38.985 61.62C37.665 59.79 36.365 57.96 35.095 56.1C34.605 55.38 34.095 54.66 33.655 53.93C33.475 53.66 33.315 53.38 33.145 53.11C33.085 53.02 33.045 52.93 32.995 52.84C32.795 52.48 33.185 53.4 32.995 52.73C32.235 50.55 31.285 48.29 31.405 45.94C31.5763 43.6497 32.5377 41.4899 34.125 39.83C36.6637 37.0527 39.4895 34.552 42.555 32.37C44.075 31.37 45.805 30.12 47.715 30.01C49.625 29.9 51.715 30.86 53.365 31.67C57.6471 33.6101 61.6768 36.0648 65.365 38.98C66.955 40.31 69.275 37.98 67.665 36.68C64.0653 33.7353 60.1113 31.2527 55.895 29.29C53.7345 28.1179 51.4024 27.2944 48.985 26.85C46.6855 26.6514 44.3875 27.248 42.475 28.54C38.9892 30.8479 35.7667 33.5306 32.865 36.54C28.935 40.3 27.275 45.24 28.865 50.54C29.4233 52.6271 30.3039 54.6143 31.475 56.43C33.015 58.76 34.645 61.04 36.285 63.31C37.495 64.98 40.285 63.36 39.085 61.67L38.985 61.62Z" fill="#A31852"/>
<path d="M83.625 35.88C83.5253 34.6333 83.2837 33.402 82.905 32.21C82.4605 31.0327 81.8976 29.9036 81.2249 28.84C80.2165 27.1285 78.7837 25.7061 77.065 24.71C72.695 22.26 67.565 23.37 63.235 25.31C62.8655 25.5291 62.5967 25.8844 62.4864 26.2995C62.3761 26.7146 62.433 27.1565 62.645 27.53C62.8727 27.8928 63.2304 28.1548 63.6449 28.2626C64.0594 28.3704 64.4994 28.3158 64.875 28.1101C68.105 26.6701 72.195 25.7 75.425 27.51C78.305 29.13 80.035 32.65 80.425 35.9C80.435 36.3275 80.6086 36.7347 80.91 37.038C81.2114 37.3412 81.6176 37.5174 82.045 37.53C82.4764 37.5274 82.8896 37.3548 83.1947 37.0497C83.4998 36.7446 83.6723 36.3315 83.675 35.9L83.625 35.88Z" fill="#A31852"/>
<path d="M31.595 80.65C28.595 79.52 25.505 77.05 24.595 73.81C23.595 70.12 25.595 66.39 27.825 63.59C28.1198 63.2797 28.2841 62.868 28.2841 62.44C28.2841 62.012 28.1198 61.6004 27.825 61.29C27.5183 60.9883 27.1052 60.8193 26.675 60.8193C26.2448 60.8193 25.8318 60.9883 25.525 61.29C22.525 65.02 20.105 69.78 21.465 74.67C22.685 79.06 26.615 82.25 30.735 83.79C30.945 83.8594 31.1669 83.8853 31.3872 83.8661C31.6075 83.847 31.8217 83.7833 32.0166 83.6788C32.2115 83.5743 32.383 83.4312 32.5209 83.2582C32.6587 83.0853 32.76 82.8861 32.8184 82.6729C32.8768 82.4596 32.8912 82.2366 32.8607 82.0176C32.8302 81.7985 32.7555 81.588 32.6411 81.3987C32.5266 81.2095 32.3749 81.0455 32.195 80.9168C32.0152 80.7881 31.8111 80.6973 31.595 80.65Z" fill="#A31852"/>
<path d="M67.065 14.96C65.9245 16.2433 64.4602 17.1966 62.825 17.72C61.1637 18.2027 59.3825 18.0531 57.825 17.3C56.4613 16.6816 55.3345 15.6381 54.6134 14.3257C53.8923 13.0133 53.6158 11.5027 53.825 10.02C54.0736 8.5083 54.8018 7.11667 55.9021 6.05063C57.0023 4.98459 58.4162 4.30071 59.935 4.10001C61.2913 3.87457 62.6826 4.17496 63.825 4.93997C64.095 5.10997 64.365 5.25997 64.635 5.43997C64.695 5.43997 65.0951 5.79 64.8451 5.59L65.765 6.32999C67.0516 7.41247 67.9155 8.91372 68.205 10.57C68.2115 12.2525 67.7096 13.8977 66.765 15.29C65.665 17.07 68.475 18.71 69.575 16.93C70.6864 15.1373 71.3326 13.0956 71.455 10.99C71.3514 8.81087 70.5125 6.7311 69.075 5.09C68.1524 4.0015 67.0538 3.07535 65.825 2.35001C64.2561 1.28468 62.3906 0.742214 60.495 0.800021C58.3367 0.893276 56.2595 1.64872 54.5455 2.96372C52.8315 4.27871 51.564 6.08947 50.915 8.15C50.3193 10.2322 50.3992 12.4497 51.1431 14.4837C51.887 16.5177 53.2565 18.2634 55.055 19.47C57.3043 20.941 60.0219 21.5187 62.675 21.09C63.9283 20.8147 65.1299 20.3422 66.235 19.69C67.4119 19.0865 68.4611 18.2614 69.325 17.26C69.6175 16.9485 69.7803 16.5373 69.7803 16.11C69.7803 15.6827 69.6175 15.2715 69.325 14.96C69.0183 14.6583 68.6053 14.4892 68.175 14.4892C67.7448 14.4892 67.3318 14.6583 67.0251 14.96H67.065Z" fill="#A31852"/>
<path d="M16.375 62.41C18.8134 61.2222 20.8709 59.3759 22.315 57.08C23.2961 55.4139 23.8632 53.5367 23.9688 51.6061C24.0744 49.6754 23.7155 47.7476 22.922 45.9844C22.1286 44.2211 20.9238 42.6739 19.4088 41.4726C17.8938 40.2712 16.1127 39.4507 14.2151 39.08C11.7944 38.6787 9.30879 39.0292 7.09341 40.0842C4.87803 41.1391 3.03932 42.8478 1.82504 44.98C0.486078 47.1584 -0.00175813 49.7542 0.455044 52.27C0.768683 53.6958 1.23471 55.0838 1.84506 56.41C2.98343 59.0294 5.01868 61.1568 7.58505 62.41C10.065 63.54 13.435 63.29 15.995 62.58C16.399 62.4539 16.738 62.1756 16.9405 61.804C17.143 61.4324 17.1931 60.9967 17.0801 60.5889C16.9671 60.181 16.6999 59.8332 16.335 59.6188C15.9702 59.4044 15.5363 59.3402 15.125 59.44C13.3253 59.9723 11.4213 60.0479 9.58505 59.66C7.83059 59.036 6.34878 57.8194 5.39505 56.22C4.76046 55.1907 4.28505 54.0714 3.98501 52.9C3.76758 52.2172 3.60376 51.5183 3.49502 50.81C3.4294 49.8898 3.57297 48.9668 3.91501 48.11C4.4996 46.4137 5.58276 44.9333 7.02267 43.8627C8.46258 42.7922 10.1921 42.1813 11.985 42.11C13.8807 42.0725 15.7356 42.6632 17.2605 43.7901C18.7853 44.917 19.8945 46.5168 20.415 48.34C21.0319 50.5063 20.829 52.8239 19.8451 54.85C18.6821 56.9277 16.8941 58.5862 14.735 59.59C14.3672 59.8107 14.1006 60.1667 13.9922 60.5817C13.8837 60.9967 13.9422 61.4376 14.1551 61.81C14.381 62.172 14.7368 62.4338 15.1496 62.5416C15.5625 62.6495 16.0009 62.5952 16.375 62.39V62.41Z" fill="#A31852"/>
<path d="M66.845 36.3C51.595 41.25 40.195 54.24 33.675 68.5C31.5711 72.9113 30.2192 77.6431 29.675 82.5C29.3043 87.2935 29.5057 92.1141 30.275 96.86C30.9431 101.52 32.1581 106.085 33.895 110.46C34.759 112.593 35.7405 114.676 36.835 116.7C37.755 118.4 38.245 120.22 39.365 121.81C40.155 122.94 40.755 124.15 41.515 125.29C42.3646 126.513 43.2897 127.682 44.285 128.79C46.2744 131.23 48.6011 133.375 51.195 135.16C53.7871 136.706 56.5944 137.859 59.525 138.58C63.525 139.76 67.405 141.41 71.415 142.67C76.2156 144.162 81.288 144.569 86.265 143.86C91.1414 143.337 95.9587 142.363 100.655 140.95C108.905 138.23 116.535 132.95 122.815 127C125.907 124.282 127.985 120.596 128.712 116.544C129.438 112.492 128.77 108.313 126.815 104.69C123.145 98.01 114.965 94.57 107.585 96.1C103.585 96.92 100.435 99.37 97.425 101.95C95.143 103.978 92.7055 105.823 90.135 107.47C89.534 107.844 88.8428 108.048 88.135 108.06C86.3073 108.19 84.4727 108.19 82.645 108.06C79.2866 107.874 76.052 106.729 73.325 104.76C71.325 103.34 68.895 101.97 67.635 99.76C65.8265 96.2796 64.9905 92.3758 65.215 88.46C65.3541 85.6173 66.1653 82.8481 67.582 80.3797C68.9988 77.9113 70.9806 75.814 73.365 74.26C76.0046 72.7185 78.9508 71.7763 81.995 71.5C83.8919 71.1591 85.8386 71.2101 87.715 71.65C89.5479 72.1492 91.3115 72.8747 92.965 73.81C95.965 75.48 97.825 78.68 100.505 80.81C102.105 81.917 103.89 82.7297 105.775 83.21C107.714 83.8992 109.728 84.3557 111.775 84.57C115.887 84.8659 119.947 83.517 123.065 80.82C125.792 78.4491 127.801 75.3628 128.865 71.91C129.89 68.7955 129.89 65.4345 128.865 62.32C128.303 60.2019 127.368 58.2008 126.105 56.41C125.215 55.22 124.165 54.21 123.175 53.12C122.855 52.77 123.295 53.28 123.035 52.93C122.798 52.6108 122.54 52.3069 122.265 52.02C121.631 51.4315 120.963 50.8805 120.265 50.37C118.845 49.27 117.485 48.1 116.085 46.97C113.467 44.8334 110.662 42.9358 107.705 41.3C105.683 40.2334 103.592 39.3045 101.445 38.52C99.3266 37.6428 97.1558 36.898 94.945 36.29C90.2807 35.2779 85.4951 34.9411 80.735 35.29C75.905 35.52 71.095 36.07 66.255 36.29C64.175 36.37 64.165 39.62 66.255 39.54C75.515 39.21 85.155 37.22 94.255 39.54C96.3894 40.1387 98.4863 40.8633 100.535 41.71C102.603 42.4774 104.609 43.4035 106.535 44.48C109.269 46.0501 111.871 47.8393 114.315 49.83C115.648 50.9433 117.002 52.0433 118.375 53.13C119.291 53.9077 120.144 54.7571 120.925 55.67C121.976 56.6947 122.937 57.8089 123.795 59C124.861 60.7712 125.603 62.7184 125.985 64.75C127.375 71.05 123.255 77.91 117.535 80.51C113.725 82.23 109.665 81.2 105.895 79.94C104.279 79.5026 102.785 78.7023 101.525 77.6C100.215 76.39 99.045 75.04 97.795 73.78C95.3221 71.3984 92.2886 69.6787 88.975 68.78C85.265 67.65 81.285 68.19 77.575 69.11C73.0987 70.2419 69.1245 72.8269 66.275 76.46C61.145 82.69 60.825 91.35 63.445 98.73C64.345 101.444 66.099 103.795 68.445 105.43C70.6273 107.171 72.995 108.667 75.505 109.89C79.065 111.38 82.975 111.55 86.785 111.46C88.7734 111.52 90.7287 110.941 92.365 109.81C95.075 107.86 97.675 105.88 100.235 103.72C103.045 101.35 106.145 99.34 109.915 99.1C113.532 98.8192 117.123 99.9006 119.984 102.132C122.844 104.363 124.767 107.583 125.375 111.16C126.019 114.816 125.27 118.58 123.275 121.71C120.905 125.16 117.115 127.87 113.775 130.32C110.327 132.925 106.58 135.111 102.615 136.83C98.3885 138.43 93.9935 139.544 89.515 140.15C84.685 140.98 79.855 141.49 75.025 140.34C70.765 139.34 66.795 137.45 62.625 136.15C59.825 135.28 56.895 134.64 54.295 133.24C51.7452 131.78 49.4736 129.881 47.585 127.63C46.645 126.63 45.705 125.51 44.855 124.38C44.005 123.25 43.935 122.7 43.105 121.48C42.635 120.78 42.105 120.11 41.655 119.39C41.2621 118.658 40.9278 117.895 40.655 117.11C39.745 114.99 38.515 113.02 37.585 110.9C33.9632 102.499 32.3341 93.3749 32.825 84.24C33.285 75.64 37.125 67.58 41.825 60.48C45.9841 54.0124 51.4305 48.4706 57.825 44.2C60.9085 42.1938 64.2397 40.597 67.735 39.45C69.735 38.81 68.875 35.67 66.875 36.31L66.845 36.3Z" fill="#A31852"/>
<path d="M80.815 78.62C78.6165 79.1485 76.6437 80.3643 75.1835 82.0908C73.7232 83.8172 72.8515 85.9643 72.695 88.22C72.5157 90.5826 72.9854 92.9492 74.0535 95.0642C75.1215 97.1791 76.7473 98.962 78.755 100.22C83.175 102.8 88.755 101.09 92.455 97.9901C93.374 97.1639 94.1209 96.1644 94.6529 95.049C95.1849 93.9336 95.4914 92.7242 95.555 91.4901C96.0117 88.9757 95.7518 86.3836 94.805 84.01C92.315 78.7 85.805 77.32 80.625 78.88C78.625 79.47 79.485 82.61 81.495 82.01C84.905 81.01 89.005 81.3601 91.285 84.4201C92.2582 85.8945 92.6796 87.6653 92.475 89.4201C92.395 91.2101 92.295 93.29 91.125 94.75C89.8833 96.0923 88.316 97.0912 86.575 97.65C84.9172 98.3732 83.0499 98.4552 81.335 97.88C78.165 96.65 76.105 93.1 75.915 89.81C75.7349 87.9942 76.2193 86.1748 77.2785 84.689C78.3377 83.2032 79.8997 82.1519 81.675 81.7301C83.675 81.3101 82.855 78.17 80.815 78.59V78.62Z" fill="#A31852"/>
</g>
<defs>
<clipPath id="clip0_8342_70">
<rect width="129.45" height="143.44" fill="white" transform="translate(0.274994 0.780029)"/>
</clipPath>
</defs>
</svg>
