<svg width="69" height="69" viewBox="0 0 69 69" fill="none" xmlns="http://www.w3.org/2000/svg">
<g clip-path="url(#clip0_9774_13187)">
<path d="M8.3362 56.1459C10.683 58.9025 13.3369 61.9032 16.1416 63.5801C18.9464 65.2569 22.105 65.449 25.0554 66.6482C32.559 69.6905 42.3731 67.7904 49.195 63.9487C53.6129 61.4619 57.1045 60.3146 60.1226 57.1997C62.8285 54.4379 64.1398 51.9044 65.8466 48.4936C70.6652 38.8842 70.202 24.6855 62.5891 14.5517C54.9762 4.41793 40.4217 -1.26675 27.9382 1.01231C26.2262 1.3238 23.0937 1.60934 21.595 2.48151C20.5283 3.13564 17.9265 4.17394 16.8857 4.93709C11.6301 8.80993 14.2839 5.65351 8.82013 13.0773C5.94253 16.9761 3.83507 19.9145 2.13349 24.6543C1.21765 27.2085 0.0104139 32.6596 0.0520428 35.3644C0.208151 41.8226 3.66335 51.2347 7.75339 57.0336" fill="#EFA325"/>
<path d="M23.4423 0.721607C13.7271 3.8365 6.71786 12.0754 2.5966 21.1397C1.28105 23.9216 0.447097 26.9056 0.130087 29.9652C-0.288039 35.9526 0.616126 41.9585 2.77874 47.5592C3.33122 48.9384 3.96543 50.2837 4.67805 51.5878C5.25044 52.6261 5.55225 53.7941 6.23913 54.7857C6.53574 55.2114 6.83754 55.6267 7.11334 56.0628C7.23822 56.2601 7.37873 56.6391 7.58167 56.9557C8.12952 57.7491 8.72742 58.5068 9.37172 59.2244C10.6412 60.7641 12.1193 62.12 13.7636 63.253C15.4278 64.2454 17.2306 64.9855 19.1129 65.449C21.6679 66.1966 24.1136 67.2401 26.653 68.0448C29.6586 68.9788 32.8341 69.2376 35.9518 68.8027C39.0711 68.4762 42.153 67.8592 45.157 66.9597C47.8308 66.0542 50.3717 64.7972 52.7127 63.2219C55.0966 61.6827 57.3332 59.9274 59.3941 57.9785C61.3715 56.1646 62.6663 53.7296 63.0627 51.079C63.423 48.5586 62.9421 45.99 61.6941 43.7694C59.2276 39.476 53.7534 37.3112 48.9869 38.5779C46.4423 39.258 44.4649 40.966 42.5032 42.6376C41.1783 43.7935 39.7579 44.8355 38.257 45.7525L38.1321 45.8148C37.9136 45.929 38.3715 45.7421 38.1321 45.8148C38.0229 45.846 37.9136 45.8875 37.8043 45.9135C37.695 45.9394 37.5493 45.9654 37.4192 45.9861C37.6378 45.955 37.0498 46.0121 36.9561 46.0173C35.7246 46.0822 34.4901 46.0614 33.2615 45.955C31.2678 45.7552 29.3671 45.0136 27.7665 43.8109C26.4136 42.8505 25.0346 42.0666 24.2697 40.696C23.7527 39.6763 23.3814 38.5894 23.1665 37.4669C22.8826 36.2228 22.7636 34.9469 22.8127 33.6719C22.8791 31.1959 23.8358 28.8263 25.5081 26.9957C25.8464 26.6271 26.1846 26.2585 26.5489 25.9107C26.9414 25.512 27.3818 25.1632 27.8602 24.8724C29.4722 23.9018 31.2793 23.2991 33.1523 23.1073C34.3259 22.8789 35.5327 22.8789 36.7064 23.1073C37.8661 23.4004 38.9848 23.8364 40.0366 24.4052C42.0244 25.4435 43.2421 27.52 44.9801 28.8802C46.0061 29.6019 47.156 30.1298 48.3729 30.4377C49.631 30.8906 50.9398 31.1887 52.2704 31.3254C53.6002 31.4147 54.9345 31.2374 56.1946 30.8041C57.4548 30.3708 58.6152 29.6901 59.6075 28.8023C61.3123 27.2556 62.555 25.2683 63.198 23.0606C63.8095 20.9468 63.7201 18.6925 62.943 16.6335C62.536 15.3173 61.8924 14.0859 61.0437 12.9995C60.7575 12.6413 60.4504 12.3038 60.1278 11.9612C59.9925 11.8158 59.8468 11.6756 59.7115 11.5355C59.5762 11.3953 59.2796 11.0163 59.5138 11.3486C58.8748 10.5591 58.1308 9.86047 57.3023 9.27197C56.4176 8.5867 55.5747 7.84432 54.7004 7.14866C52.9557 5.73201 51.0669 4.50182 49.0649 3.47828C47.7336 2.83953 46.3701 2.26945 44.9801 1.77029C43.6489 1.2306 42.2758 0.800004 40.8744 0.482795C37.976 -0.103842 34.5104 -0.093461 31.5652 0.067475C28.6199 0.228411 26.6217 0.228417 23.6921 0.633353C23.3345 0.719119 22.9859 0.839079 22.6514 0.991566C22.4411 1.12389 22.2517 1.28659 22.0894 1.47437C21.569 2.13369 22.4068 2.88127 23.4267 2.84493C29.0726 2.65284 30.436 1.64569 40.505 2.6788C41.9412 2.82416 43.2525 3.48348 44.6002 3.99224C45.8752 4.45344 47.1211 4.99087 48.3312 5.60161C50.1572 6.56665 51.8843 7.70726 53.488 9.00722C54.3362 9.69249 55.1688 10.4089 56.0378 11.0838C56.4489 11.4057 56.8652 11.7224 57.245 12.0806C57.5364 12.3557 57.6041 12.5167 57.9059 12.8541C58.4575 13.4771 59.0819 14.0222 59.5762 14.6919C60.3143 15.7527 60.8441 16.9436 61.1373 18.2013C61.6263 19.9539 61.477 21.8227 60.7158 23.4759C60.3712 24.3638 59.9036 25.1991 59.3265 25.9574C58.5262 26.9246 57.5432 27.7255 56.4333 28.3143C54.2009 29.5188 51.75 29.2228 49.4292 28.4805C48.3885 28.1586 47.3477 27.9146 46.4683 27.2709C45.5613 26.513 44.7173 25.6831 43.9446 24.7893C43.2436 23.9912 42.4365 23.2925 41.5457 22.7127C40.4807 22.1011 39.354 21.6034 38.1842 21.228C35.7645 20.4337 33.2251 20.7088 30.7846 21.3058C29.1295 21.6653 27.5647 22.3558 26.1846 23.3357C25.1815 24.103 24.2716 24.9846 23.4735 25.9626C20.1068 30.0068 19.8934 35.7797 21.772 40.5455C22.113 41.4651 22.6112 42.3187 23.2446 43.0685C23.8099 43.6607 24.444 44.1836 25.1335 44.626C26.6529 45.6954 28.0787 46.796 29.8167 47.4501C32.0439 48.2756 34.5729 48.3483 36.9249 48.2237C38.1676 48.1781 39.3641 47.7421 40.3437 46.9777C41.2335 46.334 42.1493 45.737 43.0027 45.0517C43.9446 44.2989 44.8292 43.4942 45.771 42.7363C47.5047 41.2381 49.7218 40.4142 52.0154 40.4157C54.237 40.4476 56.3693 41.293 58.007 42.7909C59.6448 44.2889 60.6736 46.3351 60.898 48.5404C61.1223 50.8478 60.4726 53.1555 59.0767 55.0089C58.199 56.062 57.2117 57.0192 56.1314 57.8643C55.0907 58.726 54.05 59.5619 52.952 60.3406C50.7762 61.9487 48.4098 63.2826 45.9063 64.3121C43.1432 65.4023 40.1824 65.8695 37.2839 66.3887C34.2554 66.8819 31.2894 67.0324 28.3025 66.2381C25.6695 65.5321 23.1821 64.3848 20.5699 63.5957C18.8423 63.0765 17.0939 62.6612 15.538 61.7838C13.9499 60.812 12.5343 59.5839 11.3491 58.1498C10.7519 57.4994 10.1892 56.8184 9.66312 56.1095C9.56425 55.9694 9.46018 55.824 9.36651 55.6683C9.27285 55.5125 9.1896 55.3516 9.30928 55.5956C9.07362 55.0933 8.79507 54.6122 8.47671 54.1576C8.16087 53.7459 7.87231 53.3141 7.61289 52.8649C7.39955 52.4599 7.207 51.7435 6.95202 51.2243C6.33279 49.9576 5.62511 48.748 5.07873 47.445C2.86103 42.1363 1.89436 36.3906 2.25317 30.6505C2.60702 25.3292 5.06313 20.3091 7.97715 15.9223C10.5938 11.8837 14.0116 8.4226 18.0201 5.75215C19.9663 4.501 23.0156 3.0422 25.3052 2.74109C26.8038 2.54901 25.5133 0.742373 23.6505 0.6645L23.4423 0.721607Z" fill="#502B50"/>
<path d="M32.5382 27.4007C29.6138 27.9977 27.6052 30.6505 27.3346 33.537C27.2126 35.0577 27.5157 36.5824 28.2102 37.9415C28.9047 39.3007 29.9634 40.4411 31.2685 41.236C34.1097 42.8453 37.7002 41.7551 40.0523 39.7252C41.2959 38.661 41.7851 37.2022 41.9672 35.6188C42.1493 34.0354 42.1909 32.3481 41.478 30.853C39.8753 27.4785 35.7541 26.5804 32.4133 27.5772C31.0552 27.9821 31.6328 30.1158 33.0013 29.7057C35.1244 29.0723 37.6482 29.2904 39.0896 31.1645C39.7226 32.0862 39.9965 33.2068 39.8597 34.3157C39.8129 35.4319 39.7504 36.7401 39.0115 37.6435C38.2382 38.4723 37.2656 39.0905 36.186 39.4397C35.1291 39.8983 33.9375 39.9409 32.8504 39.5591C30.9095 38.77 29.6502 36.5948 29.5305 34.5597C29.39 32.2339 30.7534 30.012 33.121 29.5292C34.5156 29.2436 33.9276 27.1151 32.533 27.4007H32.5382Z" fill="#502B50"/>
</g>
<defs>
<clipPath id="clip0_9774_13187">
<rect width="69" height="69" fill="white"/>
</clipPath>
</defs>
</svg>
