<svg width="24" height="34" viewBox="0 0 24 34" fill="none" xmlns="http://www.w3.org/2000/svg">
<path d="M10.8595 17.8492C10.5729 16.2356 10.776 14.9624 11.4686 14.0295C12.1939 13.0504 13.2899 12.4324 14.7566 12.1756C16.1836 11.9258 17.3833 12.1216 18.3555 12.763C19.3674 13.3974 20.0201 14.5412 20.3137 16.1941C20.6002 17.8078 20.3809 19.1041 19.6556 20.0833C18.9303 21.0625 17.8739 21.6735 16.4865 21.9164C15.0595 22.1662 13.8365 21.9542 12.8177 21.2804C11.7988 20.6066 11.1461 19.4629 10.8595 17.8492Z" fill="black"/>
<path d="M15.4868 2.52147C12.8302 2.52147 10.5509 3.12092 8.64906 4.31983C6.74717 5.48877 5.28302 7.13727 4.2566 9.26534C3.26038 11.3634 2.76226 13.8062 2.76226 16.5937C2.76226 19.4711 3.21509 21.9888 4.12076 24.1468C5.02642 26.2749 6.38491 27.9234 8.19623 29.0923C10.0377 30.2613 12.317 30.8457 15.034 30.8457C16.6038 30.8457 18.0377 30.7258 19.3358 30.486C20.6642 30.2463 21.917 29.9465 23.0943 29.5869V31.8348C21.9774 32.2544 20.7547 32.5841 19.4264 32.8239C18.0981 33.0637 16.5434 33.1836 14.7623 33.1836C11.5019 33.1836 8.76981 32.4942 6.56604 31.1155C4.39245 29.7367 2.74717 27.8035 1.63019 25.3157C0.543396 22.828 0 19.9207 0 16.5937C0 13.4166 0.603774 10.5991 1.81132 8.14136C3.04906 5.65362 4.81509 3.70539 7.10943 2.29667C9.43396 0.887953 12.2415 0.183594 15.5321 0.183594C18.6717 0.183594 21.4943 0.768062 24 1.937L22.9585 4.22992C20.634 3.09095 18.1434 2.52147 15.4868 2.52147Z" fill="black"/>
</svg>
