<svg width="311" height="272" xmlns="http://www.w3.org/2000/svg" xmlns:xlink="http://www.w3.org/1999/xlink"><defs><path d="M20.158 4.035c-.07-.431.068-.643-1.667-1.859C16.756.961 13.955-.473 11.134.151 7.473.961 6.019 3.376 4.607 4.55 3.334 5.608 2.057 5.732 1.3 7.045.543 8.359.14 12.137.8 13.639c.907 2.073 2.698 2.631 4.004 3.228 2.242 1.024 5.41-.058 5.486-.237.594-1.386 3.79-5.294 5.711-6.937 1.413-1.207 4.484-3.633 4.158-5.658z" id="a"/></defs><g fill="none" fill-rule="evenodd"><path d="M266.396 170.633c1.566-1.838 2.626-4.091 2.449-6.615-.51-7.272-10.633-5.672-12.602-2.002-1.97 3.671-1.736 12.981.809 13.637 1.015.261 3.177-.38 5.378-1.706l-1.381 9.771h8.155l-2.808-13.085z" fill="#B28B67"/><path d="M260.891 157.786c1.075-.176 3.969-.297 4.503-.297.341 0 .71.078.912-.235.166-.257.105-.691.154-.988.058-.346.139-.687.222-1.028.234-.968.588-1.89 1.084-2.755.931-1.623 2.294-2.895 4.015-3.634 1.9-.817 4.05-1.004 6.095-.839 2.187.178 4.167.9 6.232 1.579 1.969.648 4.03.903 6.088.586 2.074-.318 3.641-1.442 5.391-2.509 1.791-1.092 3.837-1.807 5.954-1.643 1.977.154 3.798.97 5.432 2.06 1.529 1.02 2.791 2.247 3.503 3.974.766 1.857.765 3.897-.495 5.538-1.826 2.38-5.216 2.995-8.037 2.934a15.347 15.347 0 01-4.775-.875c-2.054-.722-3.829-1.947-5.751-2.941a14.998 14.998 0 00-2.811-1.125c-.949-.267-1.883-.39-2.741.183-.908.606-1.722 1.201-2.761 1.58a8.889 8.889 0 01-3.115.559c-2.066-.015-4.103-.659-6.11-1.09-1.636-.352-3.387-.703-5.056-.365-.696.142-1.713.433-1.964 1.156 4.232.767 5.894 6.001 4.701 9.843-.644 2.074-4.515 4.498-6.02 3.408-.953-.691-.374-1.597 0-2.196.718-1.146.963-2.619-.364-3.417-1.145-.688-2.349.947-2.372.945-.315-.025-3.034-1.563-4.908-3.807-1.848.109-2.129-1.109-1.687-2.106.441-.997 3.196-2.251 4.681-2.495z" fill="#191847"/><path d="M272.602 271.049c-14.451 0-26.165-11.182-26.165-24.976 0-13.794 11.714-24.976 26.165-24.976 14.451 0 26.165 11.182 26.165 24.976 0 13.794-11.714 24.976-26.165 24.976z" fill="#C5CFD6" fill-rule="nonzero"/><path d="M223.157 267.195c4.354-9.636 7.503-18.027 8.766-22.454 2.164-7.58 3.811-14.251 4.227-16.742.992-5.94-7.633-6.285-8.773-3.333-1.725 4.468-4.738 19.148-8.357 41.322l4.137 1.207zm50.502-30.241c-3.994-1.579-17.983-6.521-24.73-7.919a370.225 370.225 0 00-5.585-1.112c-5.251-1.002-7.972 8.471-2.914 9.199 12.595 1.813 30.452 3.685 31.98 3.895 2.141.294 3.76-3.071 1.249-4.063z" fill="#B28B67"/><path d="M240.121 225.316l21.607-10.999v-2.395h-2.57c-20.904 5.327-31.586 8.741-32.045 10.241a.9.9 0 00-.014.049l-.031.042c-4.143 5.697-6.624 33.512-7.438 35.595l7.938 1.184c3.037-11.26 12.752-19.105 12.494-32.591.07-.396.088-.771.059-1.126z" fill="#1F28CF"/><path d="M259.933 231.849c1.977-.396 3.798-.749 5.355-1.023 10.063-1.765 12.998-7.151 11.263-18.904H258.01c-3.029.87-18.768 7.471-26.935 10.982-5.405 2.323-3.701 10.699-.64 12.879.017.134.072.225.17.266 16.465 6.824 29.49 3.243 33.842 4.387l2.012-6.349-6.526-2.238z" fill="#2B44FF"/><path d="M272.293 235.944c1.079.104 1.845.266 2.298.487.551.268 1.31.752 2.277 1.451l-8.402 17.226c-1.698-.274-2.371-.922-2.019-1.945.353-1.022.637-1.875.853-2.559l.336-9.747a.338.338 0 01.351-.328h.01l1.499.094c.852-.689 1.414-1.313 1.686-1.871.222-.454.344-1.169.367-2.147a.68.68 0 01.696-.663l.048.002zM225.139 265.408c.38 1.015.57 1.775.57 2.278 0 .613-.102 1.507-.307 2.683h-19.165c-.498-1.647-.211-2.535.862-2.667 1.073-.131 1.965-.25 2.675-.355l8.908-3.972a.34.34 0 01.452.181l.573 1.389c.993.464 1.8.695 2.421.695.505 0 1.202-.203 2.091-.611a.68.68 0 01.92.379z" fill="#E4E4E4"/><path d="M240.66 202.617l-12.313-5.407c-2.156-2.149-4.239-3.783-6.248-4.901-.601-.191-1.627-.249-.532 1.351 1.095 1.599 2.175 3.33 1.737 3.89-.437.561-1.705-.058-2.205.854-.334.607 1.802 1.334 6.408 2.18l9.222 7.07 3.931-5.037zm49.779 1.49l-6.963 1.381c7.002 13.051 10.758 19.967 11.266 20.75 1.143 1.762.077 4.991-.317 6.692 2.472.575 1.497-3.146 4.625-2.369 2.855.709 5.276 2.529 7.939.075.327-.302.567-1.245-.549-1.729-2.781-1.205-6.889-3.462-7.555-4.338-.908-1.194-3.724-8.015-8.446-20.462z" fill="#B28B67"/><path d="M264.55 178.055l-2.938-.504c-6.4 6.208-9.012 21.123-13.277 23.097-4.032 1.867-9.749.061-16.544-2.378l-2.081 4.649c6.174 6.679 19.327 12.322 24.658 9.101 8.523-5.151 10.491-23.546 10.182-33.965z" fill="#DB2721"/><path d="M277.359 214.981H251.36c-1.188 0-.964-1.716-.792-2.582 1.982-9.99 9.719-20.759 9.719-34.98l7.499-1.176c6.203 9.976 8.348 22.259 9.573 38.738z" fill="#DDE3E9"/><path d="M279.952 204.866c5.3 9.56 9.755 16.443 13.365 20.649l5.45-1.068c-3.51-21.771-13.676-37.839-30.497-48.204h-2.969c-6.733 22.949-8.589 38.24-5.568 45.874h23.403c-.37-5.586-1.558-11.492-3.184-17.251z" fill="#FF4133"/><path d="M64.11 46.757c-1.47-1.663-2.465-3.701-2.299-5.985.48-6.58 9.981-5.132 11.83-1.811 1.848 3.32 1.628 11.744-.76 12.338-.953.237-2.983-.343-5.048-1.543l1.296 8.841h-7.655l2.636-11.84z" fill="#915B3C"/><path d="M63.521 48.238c-.96-4.12-3.698-6.93-3.28-8.77.28-1.229 1.022-1.992 2.229-2.291.624-2.434 2.637-3.47 6.04-3.106 5.102.545 8.217 2.588 6.872 7.083-1.237 0-2.73-.431-4.793.307-.655.235-1.123.961-1.405 2.18h-.933c-.905-1.446-1.798-1.978-2.678-1.594-.88.383-1.08 1.314-.6 2.794l-.46 3.397h-.992z" fill="#191847"/><path d="M113.516 133.618c-6.288-7.403-10.543-12.89-12.765-16.464-3.803-6.118-6.917-11.562-7.9-13.641-2.342-4.96 5.394-7.282 7.145-4.969 2.65 3.501 8.31 14.518 16.978 33.05l-3.458 2.024z" fill="#B28B67"/><path d="M100.63 131.466l-11.704-28.399c-2.503-5.176 9.585-8.58 11.425-6.17 4.176 5.47 14.103 27.046 15.348 28.676l-15.069 5.893z" fill="#2F3676"/><path d="M69.459 125.771c2.28-3.206 10.572-13.991 15.089-18.453a340.382 340.382 0 013.762-3.66c3.56-3.409 10.65 2.321 7.096 5.426-8.85 7.733-21.763 18.172-22.842 19.102-1.512 1.305-4.538-.401-3.105-2.415z" fill="#915B3C"/><path d="M69.992 124.322c-.785.624-1.296 1.133-1.533 1.528-.287.48-.624 1.227-1.01 2.24l15.58 8.671c1.178-1.065 1.362-1.892.55-2.48a97.718 97.718 0 01-2.006-1.489l-5.378-7.141a.327.327 0 00-.452-.063l-1.118.829c-1.025-.086-1.79-.27-2.295-.551-.41-.228-.88-.703-1.412-1.425a.653.653 0 00-.926-.119zM110.811 132.512c-.356.918-.535 1.605-.535 2.061 0 .554.096 1.363.288 2.427h17.99c.467-1.49.197-2.294-.81-2.413a102.68 102.68 0 01-2.51-.322l-8.362-3.593a.324.324 0 00-.424.164l-.538 1.257c-.932.419-1.69.629-2.273.629-.474 0-1.128-.185-1.962-.554a.648.648 0 00-.864.344z" fill="#E4E4E4"/><path d="M84.715 104.486c-9.728-1.528-16.243-2.572-19.547-3.134-9.417-1.6-12.163-6.485-10.54-17.143H71.98c2.296.64 11.89 4.592 28.782 11.859 3.039 1.454 2.473 5.742 1.917 7.155-.022.057-5.146 8.52-15.37 25.387l-14.193-8.716 11.626-14.381c.308-.596.299-.939-.026-1.027z" fill="#5C63AB"/><path d="M85.965 80.184l10.174 7.202c2.76.718 5.065 1.611 6.917 2.68.437.383.966 1.162-.848 1.027-1.814-.134-3.728-.197-3.978.4-.25.596.847 1.309.341 2.113-.337.537-1.93-.808-4.78-4.035l-10.075-4.027 2.249-5.36zm-39.065.249l6.666.025c-4.116 12.807-6.338 19.603-6.666 20.386-.738 1.763.824 4.449 1.492 5.892-2.176.938-1.944-2.537-4.688-1.306-2.505 1.123-4.41 3.158-7.304 1.437-.356-.212-.746-1.008.196-1.631 2.347-1.551 5.73-4.266 6.186-5.16.623-1.218 1.996-7.766 4.118-19.643z" fill="#915B3C"/><path d="M65.843 53.472l2.758-.456c10.233 8.522 14.436 24.892 26.98 33.565l-3.019 3.607c-21.761-2.597-27.155-22.566-26.72-36.716z" fill="#E87613"/><path d="M53.819 86.884h24.405c1.115 0 .905-1.553.743-2.336-1.86-9.04-9.123-18.784-9.123-31.651l-7.04-1.064c-5.822 9.026-7.835 20.14-8.985 35.05z" fill="#DDE3E9"/><path d="M54.015 60.706c-1.022-.284-1.832-.944-2.429-1.983-2.573-4.475-1.643-6.939 1.106-7.748 2.75-.81 5.202.858 9.583.858.238 0 .456.014.655.043l2.203.121c6.323 20.656 8.067 34.437 5.232 41.343H51.156c-1.138 2.558-2.227 4.71-3.267 6.457h-5.234c-.492-15.352 3.294-28.383 11.36-39.091z" fill="#FF9B21"/><path d="M55.339 82.732c.604 4.872 1.586 8.408 2.946 10.608h-7.129c1.328-2.984 2.722-6.52 4.183-10.608z" fill-opacity=".1" fill="#000"/><path d="M242.173 16.794c-1.004 4.024-2.311 13.07-.977 14.488h8.44l.003-.048c3.128-.377 5.561-3.264 5.561-6.77v-6.653c0-3.761-2.802-6.811-6.257-6.811h-.582c-3.139 0-5.737 2.515-6.188 5.794z" fill="#191847"/><path d="M251.922 23.194c1.341-1.714 2.249-3.814 2.097-6.167-.437-6.78-9.107-5.288-10.793-1.866-1.687 3.422-1.486 12.101.693 12.713.87.244 2.721-.354 4.606-1.59l-1.183 9.11h6.985l-2.405-12.2z" fill="#D4A181"/><path d="M250.034 22.048c-.322 3.763-.193 8.06.766 9.08h8.44c.47-8.893-4.074-5.45-4.074-13.823-.284-.301-.551-.6-.816-.857l.009-.246c-1.461-3.257-3.316-4.885-5.562-4.885-3.37 0-4.434 1.707-5.34 3.156.677 2.53 3.306 2.905 5.641 4.482.275-.244.626-.39 1.009-.39.884 0 1.6.78 1.6 1.743 0 .962-.716 1.742-1.6 1.742-.025 0-.049 0-.073-.002z" fill="#191847"/><path d="M265.558 92.763c-6.981 2.125-13.005 3.188-18.07 3.188-5.066 0-9.771-1.637-14.116-4.91 6.833-2.182 12.459-3.273 16.88-3.273 4.421 0 9.523 1.665 15.306 4.995z" fill="#1F28CF"/><path d="M241.444 99.015c.067-.11.124-.23.169-.36.933-2.686 15.881-31.668 17.37-36.967h-16.829c-1.132 4.029-6.228 29.31-6.946 34.355-2.263 7.956-6.922 33.724-7.516 35.509-.626 1.878 2.894 3.834 3.833 1.526 1.492-3.674 5.049-13.838 6.633-20.045 1.484-5.818 2.693-11.053 3.286-14.018z" fill="#BA8B72"/><path d="M255.212 102.553c6.834 1.881 31.831 5.28 33.547 5.813 1.765.548 3.312-3.411 1.131-4.269-3.471-1.365-13.034-4.518-18.832-5.804-4.664-1.035-8.92-1.88-11.777-2.375.242-8.736 1.349-29.702.623-34.23h-14.89c.695 4.342 6.574 36.026 7.667 39.197.347 1.133 1.381 1.633 2.531 1.668z" fill="#D4A181"/><path d="M289.731 103.043c.913-.185 1.581-.236 2.006-.155.517.099 1.256.338 2.217.716l-2.85 17.596c-1.463.191-2.17-.217-2.121-1.223.049-1.007.081-1.844.098-2.513l-2.025-8.822c-.039-.17.056-.342.212-.384l.008-.002 1.257-.301c.538-.837.854-1.541.946-2.111.075-.463.007-1.136-.205-2.018-.081-.339.106-.685.417-.773l.04-.01zM232.593 132.779c.326.946.488 1.654.488 2.124 0 .571-.087 1.405-.262 2.501h-16.415c-.426-1.536-.18-2.364.739-2.487a85.185 85.185 0 002.29-.331l7.63-3.703c.147-.071.319.001.384.161a.069.069 0 01.003.008l.491 1.295c.851.432 1.542.648 2.074.648.432 0 1.029-.19 1.79-.57.292-.146.638-.006.772.312a.72.72 0 01.016.042z" fill="#E4E4E4"/><path d="M259.856 61.688c-6.562-2.044-12.77-2.044-18.626 0-2.037 10.118-6.987 14.134-7.858 29.646 9.895 5.352 22.119-3.817 32.305 1.402 2.91-7.3-1.164-24.882-5.821-31.048z" fill="#2B44FF"/><path d="M231.626 49.114l-11.491-1.706c-2.298-1.391-4.413-2.334-6.344-2.826-.543-.017-1.407.197-.12 1.366 1.288 1.168 2.594 2.46 2.365 3.084-.229.624-1.427.392-1.625 1.351-.132.64 1.811.743 5.83.312l9.323 4.023 2.062-5.604zm36.097 2.896l-6.373.026c6.988 17.118 10.632 26.08 10.931 26.888.674 1.817-.751 4.583-1.361 6.07 1.985.967 1.773-2.613 4.277-1.345 2.286 1.157 4.024 3.254 6.665 1.48.324-.218.68-1.038-.179-1.68-2.142-1.598-5.228-4.396-5.645-5.316-.568-1.256-3.34-9.964-8.315-26.123z" fill="#D4A181"/><path d="M250.267 30.008l-4.99.362c-1.229 12.102-7.922 19.746-22.909 17.158l-1.991 15.585c14.007 1.97 26.292-4.134 28.809-20.661.652-4.279 1.167-8.732 1.081-12.444z" fill="#AFB9C5"/><path d="M252.729 28.43l-7.56 1.884c0 14.154-4.142 23.185-6.267 33.592h20.418c.287 3.596.464 7.292.556 11.088h15.288c-3.464-20.065-10.776-35.588-21.936-46.57h-.495l-.004.005z" fill="#C5CFD6"/><path d="M256.098 43.713c.527 8.82.217 15.55-.928 20.193h4.15c-.57-7.124-1.575-13.855-3.222-20.193z" fill-opacity=".1" fill="#000"/><path d="M47.797 136.803c-1.523-1.788-2.554-3.98-2.382-6.435.496-7.076 10.345-5.519 12.261-1.948 1.916 3.571 1.688 12.629-.788 13.267-.987.255-3.09-.369-5.232-1.659L53 149.535h-7.935l2.732-12.732z" fill="#B28B67"/><g transform="translate(37 123)"><mask id="b" fill="#fff"><use xlink:href="#a"/></mask><g mask="url(#b)"><path d="M20.158 4.035c-.07-.431.068-.643-1.667-1.859C16.756.961 13.955-.473 11.134.151 7.473.961 6.019 3.376 4.607 4.55 3.334 5.608 2.057 5.732 1.3 7.045.543 8.359.14 12.137.8 13.639c.907 2.073 2.698 2.631 4.004 3.228 2.242 1.024 5.41-.058 5.486-.237.594-1.386 3.79-5.294 5.711-6.937 1.413-1.207 4.484-3.633 4.158-5.658z" fill="#5C63AB" fill-rule="nonzero"/><path d="M4.58 3.723c.595 3.762 2.157 7.203 4.687 10.322-2.95-2.288-4.893-5.488-5.83-9.6l1.143-.722zM3.106 5.158c.976 4.042 3.51 7.862 7.604 11.459-4.736-2.86-7.712-6.549-8.926-11.069l1.322-.39z" fill-opacity=".2" fill="#000"/></g></g><path fill="#997659" d="M43.085 176.983l24.567 41.071 18.418 34.723h3.967l-30.86-75.794z"/><path d="M83.644 251.174c-.37.987-.555 1.726-.555 2.216 0 .596.1 1.466.298 2.61h18.648c.484-1.602.204-2.467-.84-2.595a99.607 99.607 0 01-2.601-.346l-8.668-3.863a.33.33 0 00-.44.176l-.557 1.351c-.966.451-1.752.676-2.356.676-.491 0-1.169-.198-2.034-.594a.66.66 0 00-.895.369z" fill="#E4E4E4"/><path d="M80.955 247.217l7.65-2.315c-3.352-10.02-7.46-21.047-12.325-33.08-4.864-12.034-10.088-23.647-15.672-34.839H39c6.208 14.158 12.79 27.021 19.745 38.591 6.955 11.57 14.358 22.118 22.21 31.643z" fill="#DB2721"/><path d="M41.47 176.983c-2.318 14.433-6.79 32.872-7.212 33.441-.281.38-10.41 3.774-30.387 10.183l.857 3.498c23.822-3.437 36.374-6.104 37.657-8 1.923-2.844 11.527-25.314 15.247-39.122H41.471z" fill="#B28B67"/><path d="M10.893 217.583l1.51 5.634c17.817 1.563 28.734.434 32.751-3.387 4.017-3.821 8.595-18.103 13.734-42.847H38.284c-3.256 20.262-5.076 30.818-5.461 31.668-.385.851-7.695 3.828-21.93 8.932z" fill="#FF4133"/><path d="M4.85 219.149c-1.037-.192-1.797-.246-2.28-.161-.587.103-1.426.352-2.518.747l3.238 18.363c1.662.2 2.465-.226 2.41-1.276a103.394 103.394 0 01-.112-2.623l2.3-9.206a.33.33 0 00-.25-.403l-1.427-.314c-.612-.874-.97-1.608-1.075-2.203-.086-.484-.008-1.186.232-2.106a.661.661 0 00-.519-.818z" fill="#E4E4E4"/><path d="M44.107 143.021c.077-.251.155-.504.235-.756l.294.138c.045-.047.091-.093.138-.138l9.254 1.431c0 5.204 4.14 10.073 6.76 14.262 4.072 6.513 11.318 13.731 6.672 23.406-4.186 8.718-15.09 10.134-32.71 4.247 0-4.695 3.86-9.416 3.982-15.125.117-5.435 1.134-21.902 5.375-27.465z" fill="#C1DEE2"/><path d="M55.602 178.892c.62-3.193 1.02-5.326 1.205-6.396 4.93 5.571 7.778 8.389 8.544 8.453 1.441.122 2.506-1.156 2.81-.797.5 1.488-.915 5.212-3.62 5.754-1.292.258-3.292-2.406-4.115-3.35-.324-.371-1.932-1.592-4.824-3.664zm8.516-17.028c1.278 0 1.965.529 2.72 1.595.756 1.066 1.471 6.093.258 6.093s-6.296-1.943-6.296-3.25 3.468-1.86 3.468-2.843c0-.984-1.428-1.595-.15-1.595z" fill="#B28B67"/><path d="M53.022 183.753l-.232.83c-14.48-10.12-14.486-22.383-10.18-36.13-3.246 13.533-1.924 24.947 10.412 35.3z" fill-opacity=".2" fill="#000"/><path d="M157.517 16.53c1.424-1.671 2.388-3.72 2.227-6.015-.464-6.613-9.67-5.158-11.461-1.82-1.791 3.338-1.578 11.804.736 12.4.923.239 2.89-.344 4.891-1.55l-1.256 8.886h7.416l-2.553-11.9z" fill="#B28B67"/><path d="M144.997 4.067c.154-.54.567-1.002 1.124-1.139.135-.033.274-.047.413-.04.05.001.064.015.087-.02.017-.025.018-.088.025-.119.022-.094.05-.187.084-.278.116-.31.312-.584.548-.815a2.759 2.759 0 011.657-.784c.34-.03.676.025.997.136.166.057.327.128.484.207.047.023.2.14.247.132.053-.009.158-.139.2-.171.526-.404 1.175-.562 1.83-.558.739.006 1.451.043 2.068.494a4.156 4.156 0 01.553.49c.035.038.069.076.101.116.055.067.047.09.124.042.297-.18.64-.264.987-.222.205.026.405.087.595.169.065.027.215.138.284.139.068 0 .216-.101.286-.127a2.35 2.35 0 011.191-.11c.412.066.818.23 1.167.458.168.11.315.231.433.394.051.07.097.144.154.21.034.037.101.077.119.125-.011-.029.451-.207.495-.219.232-.06.468-.048.696.027.428.14.795.456 1.098.78a3.11 3.11 0 01.558.834c.022.048.037.108.067.15.038.056.063.057.132.081.35.123.669.33.912.61.246.285.406.634.473 1.002.004.022.006.112.019.123.017.016.087.01.114.012a2.247 2.247 0 01.756.222c.598.296 1.025.85 1.234 1.474.22.655.216 1.405-.047 2.047a1.897 1.897 0 01-.152.3c-.036.058-.048.058-.024.12.026.068.074.134.106.201.102.218.173.449.218.684.074.387.11.794.038 1.184a1.711 1.711 0 01-.183.519 1.539 1.539 0 01-.26.34c-.02.02-.046.036-.063.058-.042.053-.051.01-.029.088.03.11.098.217.139.324.043.11.082.22.117.333.072.227.132.459.17.694.073.452.06.934-.154 1.35a1.345 1.345 0 01-.632.606c-.046.022-.104.03-.125.075-.022.047.011.141.019.194.065.46.098.943-.038 1.393a1.925 1.925 0 01-.763 1.025c-.699.47-1.64.444-2.374.067a2.514 2.514 0 01-.53-.364c-.406.547-1.242.53-1.836.374-.74-.194-1.334-.709-1.676-1.385-.468.57-1.45.385-1.775-.233a1.483 1.483 0 01-.149-.487c-.012-.088-.005-.178-.014-.266-.012-.112-.086-.22-.13-.33a1.853 1.853 0 01-.138-.656c-.001-.119.014-.235.026-.353.01-.106-.02-.205-.036-.31.189.032.421-.02.599-.075.176-.054.34-.196.464-.326.288-.301.463-.697.584-1.09.263-.864.155-1.9-.714-2.375-.404-.22-1.617-.22-2.099-.11-.507.114-1.082 1.233-1.11 1.338-.017.065-.009.145-.068.189-.132.095-.348-.07-.445-.152a1.754 1.754 0 01-.39-.518 6.467 6.467 0 01-.535-1.312c-.098-.35-.162-.71-.291-1.05-.128-.339-.331-.642-.646-.834-.342-.208-.735-.318-1.111-.45-.373-.13-.74-.289-1.029-.565a1.444 1.444 0 01-.176-.196c-.04-.057-.08-.165-.142-.2-.095-.056-.235.089-.318.141a3.68 3.68 0 00-1.023 1.016c-.273.392-.497.77-.679 1.209-.135.325-.219.742-.457 1.008-.106.12-.894.191-1.149.087-.256-.104-.542-.373-.628-.543a.85.85 0 01-.071-.552c.022-.112.067-.216.092-.325.021-.092.04-.18.084-.263a.65.65 0 01.405-.323 1.893 1.893 0 01-.437-.592 2.551 2.551 0 01-.226-.772.936.936 0 01.125-.602c.119-.187.33-.31.513-.426a3.332 3.332 0 01-.714-.778c-.383-.572-.619-1.294-.425-1.976z" fill="#191847"/><path d="M164.122 76.845c-3.633-1.436-16.355-5.93-22.491-7.2a330.858 330.858 0 00-5.079-1.012c-4.775-.912-7.25 7.704-2.65 8.366 11.455 1.648 27.694 3.35 29.084 3.542 1.948.267 3.419-2.793 1.136-3.696z" fill="#B28B67"/><path d="M151.639 72.203c1.798-.36 3.454-.681 4.871-.93 9.151-1.605 11.82-6.504 10.242-17.192H149.89c-2.754.791-17.068 6.794-24.495 9.987-4.915 2.113-3.366 9.73-.582 11.713.015.121.065.204.154.241 14.974 6.206 26.82 2.95 30.777 3.99l1.83-5.773-5.935-2.036z" fill="#2B44FF"/><path d="M162.88 75.927c.981.094 1.678.242 2.09.443.5.244 1.191.684 2.07 1.32l-7.641 15.665c-1.544-.25-2.156-.839-1.836-1.768.321-.93.579-1.705.776-2.328l.305-8.864a.31.31 0 01.32-.298h.008l1.364.086c.775-.627 1.286-1.195 1.534-1.703.201-.412.312-1.063.333-1.952a.619.619 0 01.677-.6z" fill="#E4E4E4"/><path d="M145.756 72.915c3.424-1.448 15.414-5.98 21.196-7.26 1.662-.37 3.273-.711 4.787-1.02 4.501-.92 6.833 7.767 2.498 8.434-10.796 1.662-26.1 3.379-27.41 3.571-1.836.27-3.223-2.816-1.071-3.725z" fill="#B28B67"/><path d="M155.996 68.944c-1.67-.35-3.207-.664-4.523-.906-8.499-1.565-10.978-6.34-9.512-16.76h15.659c2.558.771 15.852 6.623 22.749 9.736 4.565 2.06 3.126 9.486.541 11.419-.014.118-.06.199-.143.235-13.907 6.05-24.908 2.875-28.583 3.89l-1.7-5.63 5.512-1.984z" fill="#2B44FF"/><path d="M144.32 72.73c-.917.093-1.568.24-1.953.441-.468.245-1.113.684-1.935 1.32l7.141 15.666c1.443-.25 2.015-.839 1.716-1.768-.3-.93-.542-1.706-.725-2.328l-.285-8.864c-.006-.171-.14-.305-.299-.299h-.008l-1.275.087c-.724-.628-1.201-1.195-1.433-1.703-.188-.412-.292-1.063-.312-1.952-.007-.342-.272-.612-.591-.603a.564.564 0 00-.041.002z" fill="#E4E4E4"/><path d="M135.334 49.174l-8.754 8.54c-2.547 1.087-4.634 2.287-6.261 3.6-.366.44-.764 1.286.957.908s3.549-.699 3.873-.14c.323.56-.63 1.419-.032 2.151.398.489 1.739-1.065 4.022-4.66l9.103-5.368-2.908-5.03zm38.857 1.205l-6.458.025c3.987 12.872 6.14 19.702 6.458 20.49.715 1.772-.798 4.471-1.446 5.921 2.108.944 1.883-2.55 4.542-1.312 2.427 1.129 4.273 3.174 7.077 1.445.344-.213.722-1.014-.191-1.64-2.273-1.559-5.55-4.288-5.993-5.186-.603-1.225-1.933-7.806-3.989-19.743z" fill="#B28B67"/><path d="M155.838 23.28l-2.672-.458c-4.601 11.493-12.633 21.936-24.097 31.329l8.663 10.524C149.194 51.3 156.26 37.503 155.838 23.28z" fill="#191847"/><path d="M167.487 56.862h-23.795c5.513-13.404 8.269-24.79 8.269-34.16l7.178-1.07c5.641 9.073 7.234 20.244 8.348 35.23z" fill="#DDE3E9"/><path d="M159.291 21.638l-.003-.005h-.468c-.561.019-1.415.054-2.562.104l-1.735 4.957c-.183 6.043-1.255 18.222-3.214 36.536h15.598a94.883 94.883 0 01-.202 3.83h11.598c-1.735-19.573-8.07-34.715-19.006-45.427l-.006.005z" fill="#2F3676"/><path d="M165.877 47.045c-.444 7.885-1.555 13.32-3.334 16.307h4.36c.191-5.673-.151-11.109-1.026-16.307z" fill-opacity=".1" fill="#000"/><path fill-opacity=".2" fill="#FFF" d="M163.435 53.772l-7.691-3.576v3.576z"/></g></svg>