<svg width="33" height="33" viewBox="0 0 33 33" fill="none" xmlns="http://www.w3.org/2000/svg">
<path d="M12.6457 0.602836C7.77031 2.05388 4.12423 5.893 2.05309 10.096C1.41127 11.3992 0.959517 12.7593 0.81634 14.1899C0.673163 15.6204 0.786717 17.0192 1.00889 18.4065C1.23106 19.7939 1.59641 21.0812 2.1469 22.348C2.42585 22.9894 2.7443 23.608 3.09977 24.2153C3.38859 24.7065 3.53918 25.2365 3.88971 25.6981C4.03783 25.8937 4.19088 26.0871 4.32912 26.2895C4.3933 26.3827 4.46242 26.5579 4.56363 26.7034C4.82777 27.0764 5.14622 27.4176 5.46219 27.7542C6.11637 28.4547 6.81744 29.1142 7.65922 29.626C8.50101 30.1377 9.41191 30.3902 10.345 30.6426C11.6287 30.9906 12.8556 31.475 14.1318 31.8435C15.6697 32.287 17.2052 32.3848 18.7999 32.1937C20.3428 32.0095 21.9399 31.7889 23.4211 31.3386C24.7664 30.9315 26.0353 30.3242 27.2153 29.6055C28.3928 28.8891 29.5505 28.0794 30.5676 27.1742C31.5846 26.269 32.2215 25.2296 32.4091 23.9742C32.5819 22.8143 32.3573 21.6066 31.7229 20.5854C30.4861 18.5953 27.7337 17.5923 25.3441 18.1859C24.0654 18.5021 23.073 19.2935 22.088 20.0691C21.4265 20.5899 20.7106 21.1085 19.9552 21.5156C19.9354 21.527 19.9132 21.5338 19.8935 21.5452C19.7849 21.5997 20.0144 21.511 19.8935 21.5452C19.8392 21.5611 19.7849 21.5793 19.7281 21.5906C19.6639 21.6043 19.5997 21.6157 19.5355 21.6248C19.6466 21.6088 19.3504 21.6361 19.301 21.6384C18.6888 21.668 18.0569 21.6612 17.4471 21.6088C16.4128 21.5224 15.5241 21.1653 14.6872 20.6149C14.0084 20.1692 13.3172 19.8075 12.9321 19.1707C12.6556 18.7113 12.505 18.1837 12.3791 17.6742C12.2384 17.0965 12.1742 16.5074 12.2014 15.9161C12.2508 14.7653 12.7025 13.6668 13.5542 12.8184C13.7245 12.6501 13.8924 12.4773 14.0726 12.3158C14.3441 12.0724 14.4503 11.9928 14.7292 11.8268C15.5192 11.356 16.4375 11.1309 17.3879 11.0103C17.9853 10.9353 18.5802 10.8739 19.1702 11.008C19.7602 11.1422 20.3131 11.3515 20.8414 11.6107C21.8387 12.0975 22.4509 13.0481 23.3248 13.6872C23.8382 14.0625 24.4085 14.2285 25.0256 14.415C25.6428 14.6015 26.3093 14.7721 26.9832 14.8199C28.3656 14.9177 29.6196 14.4673 30.6639 13.6486C31.5575 12.9481 32.1154 12.0042 32.4758 10.9876C32.8362 9.97093 32.7004 8.97931 32.3499 8.00588C32.1277 7.38726 31.8389 6.83686 31.397 6.3274C31.2538 6.16138 31.0983 6.00217 30.9379 5.84979C30.8687 5.78383 30.7972 5.71788 30.728 5.65192C30.6959 5.62008 30.5133 5.42221 30.6293 5.56549C30.3183 5.17885 29.9307 4.90138 29.5209 4.60571C29.0766 4.2873 28.6544 3.94387 28.2126 3.61864C27.3362 2.97272 26.3858 2.37911 25.3811 1.91742C24.7171 1.61265 24.0234 1.36702 23.3322 1.12366C22.641 0.880308 21.9844 0.661969 21.2734 0.527782C19.8169 0.259407 18.3259 0.252584 16.8472 0.327638C15.3686 0.402692 13.959 0.548251 12.51 0.593738C11.7966 0.616482 11.7941 1.63994 12.51 1.6172C15.3439 1.52623 18.2691 0.982654 21.0833 1.5376C21.7918 1.67861 22.4633 1.91287 23.1396 2.1494C23.7765 2.37229 24.411 2.602 25.0133 2.89312C25.9267 3.33662 26.8129 3.88247 27.6004 4.47152C28.0274 4.79221 28.4446 5.12199 28.8815 5.43358C29.0889 5.58141 29.2987 5.72925 29.4888 5.89528C29.6345 6.02264 29.6715 6.09769 29.8221 6.25462C30.0986 6.54347 30.4121 6.79592 30.6614 7.10751C31.049 7.59195 31.2687 8.15599 31.434 8.73368C31.6834 9.60931 31.6019 10.3553 31.2218 11.1786C31.044 11.5675 30.8292 11.9883 30.5231 12.3294C30.1257 12.7752 29.6345 13.1482 29.084 13.4211C27.9632 13.9784 26.7388 13.8419 25.5687 13.4985C25.0577 13.3484 24.5122 13.2369 24.0826 12.9367C23.6111 12.6092 23.2211 12.1771 22.8163 11.7859C22.4509 11.4333 22.0683 11.0763 21.6116 10.8261C21.0858 10.5395 20.5032 10.3144 19.9231 10.1392C18.7086 9.77079 17.4348 9.90498 16.2079 10.1756C15.3883 10.3553 14.5786 10.651 13.8998 11.1172C13.3937 11.4652 12.942 11.8882 12.5396 12.334C10.8486 14.2103 10.74 16.885 11.6855 19.0957C11.8681 19.5233 12.0952 19.9167 12.4236 20.2647C12.6951 20.5535 13.0358 20.7719 13.374 20.9902C14.1368 21.486 14.8502 21.9978 15.7364 22.3025C16.8547 22.6846 18.126 22.7187 19.3035 22.6596C19.9873 22.6255 20.4761 22.4458 21.0216 22.0819C21.4684 21.784 21.9276 21.5088 22.3571 21.1881C22.8286 20.8378 23.2729 20.4603 23.7469 20.1146C24.6628 19.4436 25.6971 19.0138 26.8845 19.0388C29.1679 19.0866 31.1502 20.6832 31.3427 22.8052C31.439 23.8696 31.1477 24.9544 30.4293 25.805C30.0072 26.3054 29.4765 26.7239 28.9531 27.1287C28.4298 27.5336 27.904 27.9134 27.356 28.2773C26.2575 29.0028 25.0824 29.6601 23.821 30.1195C22.4336 30.6244 20.9574 30.8496 19.4911 31.0702C17.9729 31.2999 16.4819 31.3704 14.981 30.9997C13.6579 30.6744 12.4088 30.1422 11.1004 29.7761C10.2339 29.535 9.35266 29.3417 8.57506 28.9346C7.75797 28.507 7.08898 27.8997 6.47184 27.2561C6.17808 26.949 5.87445 26.6306 5.62759 26.3122C5.57575 26.2463 5.52391 26.178 5.47947 26.1075C5.44491 26.0552 5.38814 25.9597 5.44985 26.0734C5.32395 25.8346 5.20299 25.6231 5.03266 25.4048C4.88208 25.2092 4.71668 25.0181 4.59572 24.8066C4.48958 24.6178 4.39083 24.288 4.26494 24.047C3.9539 23.4602 3.60089 22.8984 3.32441 22.2957C2.21602 19.8781 1.71984 17.1283 1.90745 14.5106C2.08519 12.0406 3.317 9.7162 4.78334 7.68292C6.1139 5.83842 7.79993 4.17358 9.82663 2.9659C10.8017 2.38594 11.8459 1.91742 12.9518 1.58763C13.6282 1.38522 13.3394 0.398143 12.6556 0.600561L12.6457 0.602836Z" fill="#47B2B7"/>
<path d="M17.2271 13.3709C15.7515 13.6133 14.7372 14.6882 14.6057 15.8565C14.4743 17.0249 15.2629 18.372 16.5897 18.9741C18.0232 19.6258 19.8336 19.1787 21.0191 18.3621C21.6465 17.9289 21.8946 17.3388 21.9863 16.699C22.0781 16.0592 22.0979 15.3757 21.7383 14.7697C20.9298 13.4027 18.8491 13.0371 17.1676 13.4424C16.4806 13.6073 16.7733 14.4697 17.4652 14.3047C18.5366 14.0484 19.8088 14.1359 20.5355 14.8949C20.8926 15.2684 20.9497 15.7155 20.9249 16.1725C20.9001 16.6295 20.8703 17.154 20.4958 17.5196C20.1461 17.8634 19.5807 18.0958 19.0698 18.2468C18.5242 18.4078 17.9414 18.4773 17.3883 18.2965C16.4087 17.9746 15.7738 17.0944 15.7118 16.2718C15.6424 15.33 16.3293 14.4299 17.5222 14.2332C18.2241 14.118 17.929 13.2556 17.2246 13.3709H17.2271Z" fill="#47B2B7"/>
</svg>
