<svg width="25" height="25" viewBox="0 0 25 25" fill="none" xmlns="http://www.w3.org/2000/svg"><path d="M1.2243 2.73967C2.7843 4.73967 4.5743 6.48966 6.2243 8.40966C7.70021 10.2255 9.31147 11.9271 11.0443 13.4997C14.7243 16.7697 18.3443 20.1297 21.9643 23.4997C23.1443 24.5897 24.9643 22.8297 23.7343 21.7297C20.1043 18.3897 16.4943 15.0397 12.8043 11.7297C11.0742 10.1543 9.46308 8.45302 7.9843 6.63967C6.3743 4.71967 4.5743 2.94965 2.9843 0.969653C1.9843 -0.300347 0.234295 1.47967 1.21429 2.73967H1.2243Z"/><path d="M3.00432 23.4696C6.91432 19.9396 10.6843 16.2697 14.5143 12.6597C17.8243 9.52965 20.8443 6.12967 23.8743 2.73967C24.9443 1.53967 23.1843 -0.260351 22.1043 0.969649C19.1043 4.35965 16.1043 7.76966 12.7443 10.8897C8.92431 14.5097 5.14432 18.1797 1.23432 21.6997C0.0343164 22.7797 1.81432 24.5496 3.00432 23.4696Z"/></svg>