<svg width="21" height="20" viewBox="0 0 21 20" fill="none" xmlns="http://www.w3.org/2000/svg"><path d="M11.5852 6.17322L13.0002 7.58822C13.6502 8.23824 14.1659 9.00995 14.5178 9.85927C14.8696 10.7086 15.0507 11.6189 15.0507 12.5382C15.0507 13.4575 14.8696 14.3678 14.5178 15.2172C14.1659 16.0665 13.6502 16.8382 13.0002 17.4882L12.6462 17.8412C11.3333 19.154 9.55277 19.8916 7.69616 19.8916C5.83955 19.8916 4.05898 19.154 2.74616 17.8412C1.43334 16.5284 0.695801 14.7478 0.695801 12.8912C0.695801 11.0346 1.43334 9.25404 2.74616 7.94122L4.16116 9.35622C3.69353 9.81977 3.32206 10.3711 3.06809 10.9786C2.81411 11.5861 2.68263 12.2378 2.68119 12.8963C2.67974 13.5547 2.80837 14.207 3.05968 14.8156C3.311 15.4242 3.68004 15.9771 4.14564 16.4427C4.61124 16.9083 5.16421 17.2774 5.77282 17.5287C6.38142 17.78 7.03367 17.9086 7.69212 17.9072C8.35057 17.9058 9.00225 17.7743 9.60975 17.5203C10.2173 17.2663 10.7686 16.8949 11.2322 16.4272L11.5862 16.0732C12.5235 15.1356 13.0501 13.864 13.0501 12.5382C13.0501 11.2124 12.5235 9.94086 11.5862 9.00322L10.1712 7.58822L11.5862 6.17422L11.5852 6.17322ZM18.3032 12.1842L16.8892 10.7702C17.3568 10.3067 17.7283 9.75531 17.9822 9.14782C18.2362 8.54032 18.3677 7.88864 18.3691 7.23019C18.3706 6.57173 18.2419 5.91948 17.9906 5.31088C17.7393 4.70227 17.3703 4.1493 16.9047 3.6837C16.4391 3.21811 15.8861 2.84906 15.2775 2.59775C14.6689 2.34643 14.0166 2.21781 13.3582 2.21925C12.6997 2.22069 12.0481 2.35217 11.4406 2.60615C10.8331 2.86012 10.2817 3.23159 9.81816 3.69922L9.46416 4.05322C8.5268 4.99086 8.00023 6.2624 8.00023 7.58822C8.00023 8.91404 8.5268 10.1856 9.46416 11.1232L10.8792 12.5382L9.46416 13.9522L8.05016 12.5382C7.40007 11.8882 6.88439 11.1165 6.53256 10.2672C6.18074 9.41784 5.99965 8.50753 5.99965 7.58822C5.99965 6.66891 6.18074 5.7586 6.53256 4.90927C6.88439 4.05995 7.40007 3.28824 8.05016 2.63822L8.40416 2.28522C9.71698 0.972399 11.4975 0.234863 13.3542 0.234863C15.2108 0.234863 16.9913 0.972399 18.3042 2.28522C19.617 3.59804 20.3545 5.37861 20.3545 7.23522C20.3545 9.09183 19.617 10.8724 18.3042 12.1852L18.3032 12.1842Z"/></svg>
