<svg width="24" height="16" viewBox="0 0 24 16" fill="none" xmlns="http://www.w3.org/2000/svg">
<path d="M7.7651 0.771615C6.90864 0.754878 6.05989 0.936261 5.28509 1.30161C4.80621 1.56424 4.34522 1.85821 3.9051 2.18162C3.01327 2.79198 2.2349 3.55342 1.6051 4.43162C0.668629 5.67734 0.182148 7.20375 0.225091 8.76162C0.402055 10.2802 0.947941 11.7325 1.8151 12.9916C2.3551 13.7816 3.6551 12.9916 3.1051 12.2316C2.38465 11.1963 1.91243 10.0089 1.72509 8.76162C1.69335 7.46948 2.10639 6.20563 2.89509 5.18162C3.25962 4.70698 3.67923 4.27731 4.14509 3.90162L4.4951 3.60162C4.6351 3.48162 4.3951 3.67162 4.4951 3.60162L4.64509 3.50161C5.00432 3.23424 5.37825 2.9872 5.7651 2.76162C6.37948 2.4335 7.06888 2.27149 7.7651 2.29162C7.96401 2.29162 8.15477 2.2126 8.29542 2.07195C8.43607 1.93129 8.5151 1.74053 8.5151 1.54162C8.5151 1.34271 8.43607 1.15194 8.29542 1.01128C8.15477 0.870633 7.96401 0.791619 7.7651 0.791619V0.771615Z" fill="#BDACBB"/>
<path d="M1.93503 13.1416C3.07421 14.3107 4.50805 15.1503 6.08503 15.5716C7.69603 15.9869 9.40167 15.8242 10.905 15.1116C12.3116 14.4867 13.4905 13.442 14.28 12.1208C15.0696 10.7995 15.4311 9.26643 15.315 7.73164C15.245 6.73164 13.745 6.73164 13.815 7.73164C13.9268 8.9701 13.6509 10.2127 13.0257 11.2875C12.4005 12.3624 11.4568 13.2165 10.325 13.7316C9.09463 14.3244 7.69049 14.4488 6.37503 14.0816C5.09334 13.7209 3.92817 13.0314 2.99503 12.0816C2.34503 11.3616 1.28503 12.4216 1.93503 13.1416Z" fill="#BDACBB"/>
<path d="M16.1851 15.2516C17.4947 15.2642 18.7849 14.9346 19.928 14.2953C21.0711 13.6561 22.0274 12.7294 22.7023 11.6069C23.3772 10.4845 23.7472 9.20529 23.7757 7.89591C23.8043 6.58653 23.4904 5.29239 22.8651 4.14161C22.2735 3.07037 21.4316 2.15809 20.4112 1.48249C19.3909 0.806894 18.2223 0.388036 17.0051 0.261619C15.7935 0.0887582 14.5583 0.302207 13.4751 0.871619C12.8439 1.21896 12.2507 1.63119 11.7051 2.10162C10.6214 2.9687 9.76649 4.08795 9.21509 5.36161C8.62929 6.63677 8.50899 8.07693 8.87509 9.43162C8.92681 9.6239 9.05279 9.78776 9.22532 9.88715C9.39786 9.98655 9.60281 10.0133 9.79509 9.96162C9.98737 9.9099 10.1512 9.78391 10.2506 9.61138C10.35 9.43885 10.3768 9.2339 10.3251 9.04162C10.0581 8.08884 10.1215 7.07372 10.5051 6.16161C10.883 5.1634 11.5012 4.2738 12.3051 3.57162C12.6405 3.26351 12.9945 2.97631 13.3651 2.71162C14.071 2.14726 14.9256 1.79988 15.8251 1.71162C16.613 1.68798 17.3979 1.81977 18.1349 2.09946C18.8719 2.37915 19.5466 2.80126 20.1205 3.3417C20.6943 3.88213 21.1561 4.53031 21.4795 5.24921C21.8028 5.96812 21.9814 6.74369 22.0051 7.53162C22.0287 8.31955 21.8969 9.10442 21.6172 9.84142C21.3376 10.5784 20.9154 11.2531 20.375 11.827C19.8346 12.4008 19.1864 12.8626 18.4675 13.186C17.7486 13.5094 16.973 13.688 16.1851 13.7116C15.9862 13.7116 15.7954 13.7906 15.6548 13.9313C15.5141 14.0719 15.4351 14.2627 15.4351 14.4616C15.4351 14.6605 15.5141 14.8513 15.6548 14.992C15.7954 15.1326 15.9862 15.2116 16.1851 15.2116V15.2516Z" fill="#BDACBB"/>
</svg>