<svg width="17" height="17" viewBox="0 0 17 17" fill="none" xmlns="http://www.w3.org/2000/svg">
<path d="M2.21885 13.8844C3.50129 15.2132 5.13438 16.145 6.92548 16.5698C7.96126 16.7919 9.03075 16.8028 10.0708 16.6017C11.1108 16.4006 12.1002 15.9917 12.9806 15.399C13.861 14.8064 14.6145 14.042 15.1966 13.1512C15.7787 12.2604 16.1775 11.2611 16.3696 10.2124C16.5617 9.1637 16.5431 8.08691 16.3149 7.04559C16.0867 6.00427 15.6535 5.01958 15.041 4.14968C14.4285 3.27978 13.649 2.54232 12.7487 1.98087C11.8483 1.41943 10.8454 1.04536 9.79905 0.880819C8.26497 0.561989 6.6682 0.808217 5.29917 1.57472C4.37534 2.147 3.52183 2.82713 2.75636 3.60092C1.41775 4.93889 0.5864 6.70639 0.406494 8.59695C0.44955 10.4568 1.05275 12.2596 2.13616 13.7665C2.50828 14.3147 3.40412 13.7665 3.032 13.2391C2.2418 12.089 1.71679 10.7756 1.4953 9.39494C1.27478 7.9447 1.98456 6.34873 2.77703 5.17604C3.34362 4.36886 4.04274 3.66487 4.84436 3.09435C5.81901 2.28385 7.02742 1.81172 8.2899 1.74819C9.72668 1.71022 11.1393 2.1256 12.33 2.93612C13.5207 3.74665 14.43 4.91176 14.9305 6.26843C15.431 7.6251 15.4977 9.10542 15.1212 10.5022C14.7448 11.8989 13.9441 13.1421 12.8311 14.0579C11.4143 15.2071 9.61407 15.7658 7.80064 15.6192C5.94211 15.3597 4.22648 14.4714 2.93553 13.1003C2.48761 12.6007 1.76405 13.3363 2.20508 13.8359L2.21885 13.8844Z" fill="#FFFCFE"/>
<path d="M4.46731 5.65877C4.9909 6.33977 5.60176 6.94753 6.15444 7.60656C6.65672 8.22938 7.20618 8.81205 7.79792 9.34934C9.04871 10.4697 10.285 11.6267 11.514 12.769C12.1175 13.3255 13.0193 12.4248 12.4157 11.861C11.1794 10.7187 9.95047 9.56903 8.69967 8.44135C8.10794 7.90406 7.55845 7.32138 7.05617 6.69856C6.50349 6.03953 5.89265 5.43173 5.36179 4.75073C5.24223 4.6331 5.08169 4.56726 4.91454 4.56726C4.74738 4.56726 4.58687 4.6331 4.46731 4.75073C4.35003 4.87235 4.28442 5.03525 4.28442 5.20477C4.28442 5.3743 4.35003 5.53715 4.46731 5.65877Z" fill="#FFFCFE"/>
<path d="M5.36898 12.769C6.69977 11.5608 7.98694 10.3013 9.28865 9.06379C10.4158 7.98737 11.4703 6.8231 12.4738 5.65881C13.0192 5.04371 12.1248 4.13567 11.5793 4.75077C10.5394 5.91506 9.51406 7.08669 8.38689 8.15579C7.08519 9.39331 5.79804 10.6528 4.46725 11.861C3.8564 12.4175 4.75813 13.3255 5.36898 12.769Z" fill="#FFFCFE"/>
</svg>
