<svg width="21" height="21" viewBox="0 0 21 21" fill="none" xmlns="http://www.w3.org/2000/svg">
<path d="M3.77055 15.2858C5.05299 16.6146 6.68608 17.5463 8.47718 17.9712C9.51296 18.1933 10.5824 18.2042 11.6225 18.0031C12.6625 17.802 13.6519 17.393 14.5323 16.8004C15.4127 16.2077 16.1662 15.4434 16.7483 14.5526C17.3304 13.6617 17.7292 12.6624 17.9213 11.6137C18.1134 10.5651 18.0948 9.48827 17.8666 8.44696C17.6384 7.40564 17.2052 6.42095 16.5927 5.55105C15.9802 4.68114 15.2007 3.94369 14.3004 3.38224C13.4 2.82079 12.3971 2.44672 11.3507 2.28219C9.81667 1.96336 8.21989 2.20958 6.85087 2.97608C5.92704 3.54837 5.07353 4.2285 4.30806 5.00229C2.96945 6.34026 2.1381 8.10776 1.95819 9.99831C2.00125 11.8582 2.60444 13.661 3.68786 15.1679C4.05998 15.716 4.95581 15.1678 4.58369 14.6405C3.7935 13.4903 3.26849 12.177 3.04699 10.7963C2.82648 9.34607 3.53625 7.75009 4.32873 6.57741C4.89531 5.77023 5.59444 5.06624 6.39605 4.49572C7.37071 3.68521 8.57912 3.21309 9.8416 3.14956C11.2784 3.11159 12.691 3.52696 13.8817 4.33749C15.0724 5.14802 15.9817 6.31312 16.4822 7.6698C16.9827 9.02647 17.0494 10.5068 16.6729 11.9035C16.2965 13.3003 15.4958 14.5435 14.3828 15.4593C12.966 16.6085 11.1658 17.1672 9.35234 17.0205C7.49381 16.761 5.77818 15.8728 4.48723 14.5017C4.03931 14.0021 3.31575 14.7377 3.75678 15.2373L3.77055 15.2858Z" fill="#FFFCFE"/>
<path d="M6.01901 7.06014C6.5426 7.74114 7.15346 8.34889 7.70614 9.00793C8.20842 9.63075 8.75788 10.2134 9.34961 10.7507C10.6004 11.8711 11.8367 13.028 13.0657 14.1704C13.6692 14.7269 14.571 13.8262 13.9674 13.2624C12.7311 12.12 11.5022 10.9704 10.2514 9.84271C9.65963 9.30543 9.11015 8.72275 8.60787 8.09993C8.05519 7.4409 7.44435 6.8331 6.91348 6.1521C6.79393 6.03447 6.63339 5.96863 6.46624 5.96863C6.29908 5.96863 6.13857 6.03447 6.01901 6.1521C5.90173 6.27372 5.83612 6.43661 5.83612 6.60614C5.83612 6.77566 5.90173 6.93851 6.01901 7.06014Z" fill="#FFFCFE"/>
<path d="M6.92074 14.1704C8.25153 12.9622 9.5387 11.7027 10.8404 10.4652C11.9676 9.38873 13.022 8.22447 14.0256 7.06017C14.571 6.44507 13.6765 5.53703 13.1311 6.15213C12.0912 7.31643 11.0658 8.48806 9.93865 9.55716C8.63695 10.7947 7.3498 12.0542 6.01901 13.2624C5.40816 13.8189 6.30989 14.7269 6.92074 14.1704Z" fill="#FFFCFE"/>
</svg>
