<svg width="33" height="25" viewBox="0 0 33 25" fill="none" xmlns="http://www.w3.org/2000/svg">
<path d="M9.11334 5.69781C10.1018 5.46637 11.0627 5.16686 12.0375 4.89457L12.9161 4.66311L13.3554 4.52696C13.3202 4.62829 13.2971 4.73341 13.2867 4.8401C13.1907 5.58586 13.1907 6.3407 13.2867 7.08646C13.3691 8.44789 13.4515 9.90463 13.4652 11.3069C13.518 12.0153 13.495 12.7272 13.3966 13.4307C13.3966 13.7439 13.1769 13.6349 12.9435 13.7983C12.8415 13.8572 12.762 13.9479 12.7173 14.0562C12.6726 14.1645 12.6653 14.2844 12.6964 14.3973V14.0025L12.9985 13.7711C12.8533 13.798 12.7043 13.798 12.5591 13.7711L12.9161 13.9208C12.7444 13.6251 12.6238 13.303 12.5591 12.9678C12.4081 12.573 12.2434 12.1918 12.0786 11.8106C11.7629 11.0754 11.3648 10.3675 11.0902 9.6187C10.5136 8.05305 10.0743 6.44658 9.38791 4.90816C9.11334 4.30913 8.23472 4.82648 8.49555 5.42551C8.91643 6.39402 9.28308 7.38482 9.59382 8.39342C9.93422 9.44392 10.3423 10.4717 10.8156 11.4703C11.2412 12.3824 11.5432 13.3354 11.9276 14.2612C12.1473 14.7785 12.5729 14.8466 13.0808 14.7513C13.5888 14.656 13.781 14.4654 13.6299 14.0706V14.4654C13.3966 14.6424 13.3828 14.6832 13.6299 14.6015L13.8771 14.4926C14.0396 14.4126 14.1772 14.2902 14.2752 14.1387C14.4081 13.8578 14.4739 13.5503 14.4674 13.2401C14.4674 12.4641 14.4674 11.7017 14.4674 10.9257C14.4674 9.29198 14.2752 7.65825 14.234 6.01091C14.2228 5.57711 14.2596 5.14342 14.3438 4.71758C14.378 4.57162 14.3785 4.41986 14.3452 4.27369C14.3119 4.12751 14.2458 3.99072 14.1516 3.8735C13.6299 3.2064 12.8612 3.57395 12.1747 3.75093C11.049 4.03684 9.96449 4.40445 8.82504 4.67674C8.19354 4.8265 8.45437 5.82034 9.0996 5.65697L9.11334 5.69781Z" fill="#48B2B7"/>
<path d="M13.218 15.5953C12.9131 15.64 12.6321 15.7851 12.4204 16.0074C12.2087 16.2297 12.0787 16.5161 12.0511 16.8206C12.0515 17.1362 12.1471 17.4444 12.3257 17.7055C12.5185 17.9581 12.7675 18.1631 13.0533 18.3046C13.179 18.3816 13.3124 18.4455 13.4514 18.4952C13.6359 18.543 13.8298 18.543 14.0143 18.4952C14.294 18.404 14.5512 18.2556 14.7693 18.0595C14.8721 17.9892 14.9567 17.8959 15.0164 17.7872C15.088 17.6529 15.1257 17.5035 15.1263 17.3516C15.1608 17.0986 15.1608 16.8422 15.1263 16.5892C15.0952 16.4216 15.0258 16.2633 14.9235 16.1265C14.8212 15.9896 14.6886 15.8777 14.536 15.7995C14.2182 15.6101 13.8484 15.5244 13.4789 15.5545C13.3518 15.558 13.2302 15.6063 13.1357 15.6906C13.0484 15.783 12.9994 15.9045 12.9984 16.031C12.9984 16.2624 13.218 16.5347 13.4789 16.5075H13.7123C13.8084 16.5075 13.7123 16.5075 13.7123 16.5075H13.877H13.9456C13.9456 16.5075 14.0555 16.5075 14.0966 16.5756C14.179 16.5756 14.0966 16.5756 14.0966 16.5756C14.0966 16.5756 14.0966 16.4803 14.0966 16.5756C14.0966 16.6709 14.0966 16.5756 14.0966 16.5756C14.0966 16.5756 14.0966 16.4939 14.0966 16.5756C14.0966 16.5756 14.0966 16.6709 14.0966 16.7117C14.0966 16.7526 14.0966 16.5892 14.0966 16.7117C14.1038 16.8114 14.1038 16.9115 14.0966 17.0112C14.0966 17.0929 14.0966 17.1746 14.0966 17.2563C14.0966 17.0929 14.0966 17.1474 14.0966 17.1882C14.0966 17.2291 14.0966 17.1882 14.0966 17.1882C14.0966 17.1882 14.179 17.0929 14.0966 17.1882L14.0006 17.2835C14.0006 17.2835 13.9045 17.3516 13.877 17.3652L13.7397 17.4333C13.6574 17.4333 13.8221 17.4333 13.7397 17.4333H13.6711C13.6024 17.4333 13.6711 17.4333 13.6711 17.4333L13.4102 17.2835L13.2592 17.1882H13.1769V17.1201C13.1769 17.1201 13.1769 17.229 13.1769 17.1201C13.1769 17.0112 13.1769 17.0248 13.1769 16.9704V16.9023C13.1769 16.984 13.1769 16.984 13.1769 16.9023V16.7934C13.1769 16.7934 13.1769 16.7934 13.1769 16.7253L13.3141 16.63H13.4789C13.5401 16.6144 13.5975 16.5866 13.6476 16.5483C13.6976 16.51 13.7393 16.4621 13.7701 16.4073C13.8009 16.3526 13.8202 16.2922 13.8268 16.2298C13.8334 16.1675 13.8271 16.1045 13.8084 16.0446C13.7702 15.9259 13.688 15.8261 13.5783 15.7655C13.4687 15.7048 13.3399 15.6878 13.218 15.7178V15.5953Z" fill="#48B2B7"/>
<path d="M19.7664 16.6709C19.4887 16.7272 19.2353 16.8673 19.0411 17.072C18.8469 17.2768 18.7214 17.5362 18.6818 17.8145C18.6808 18.1029 18.7721 18.3841 18.9427 18.6177C19.118 18.8498 19.343 19.0405 19.6016 19.1759C19.7195 19.2459 19.8436 19.3051 19.9723 19.3529C20.1437 19.3939 20.3225 19.3939 20.494 19.3529C20.7588 19.2761 21.0027 19.1411 21.2078 18.9581C21.295 18.8898 21.3693 18.8069 21.4275 18.713C21.491 18.5854 21.5283 18.4466 21.5373 18.3046C21.5717 18.0744 21.5717 17.8405 21.5373 17.6103C21.5084 17.4543 21.4455 17.3065 21.353 17.1772C21.2606 17.0479 21.1407 16.9401 21.0019 16.8615C20.7032 16.7017 20.3661 16.6264 20.0272 16.6436C19.898 16.6496 19.7757 16.703 19.684 16.7934C19.5999 16.8823 19.5511 16.9983 19.5467 17.1201C19.5467 17.2465 19.5973 17.3677 19.6874 17.4571C19.7776 17.5465 19.8998 17.5967 20.0272 17.5967H20.1919H20.3429L20.4802 17.6647C20.4802 17.6647 20.4116 17.5558 20.4802 17.6647C20.488 17.7052 20.488 17.7468 20.4802 17.7872C20.4802 17.7872 20.4802 17.6511 20.4802 17.7872C20.4867 17.8733 20.4867 17.9598 20.4802 18.0459C20.4802 18.0459 20.4802 18.1821 20.4802 18.2637C20.4802 18.0868 20.4802 18.1548 20.4802 18.1821C20.4802 18.2093 20.4802 18.1821 20.4802 18.1821C20.4802 18.2501 20.5763 18.0868 20.4802 18.1821C20.4556 18.2204 20.4228 18.2529 20.3841 18.2774L20.1507 18.4135C20.0684 18.4135 20.2468 18.4135 20.1507 18.4135H20.0409C19.9586 18.4135 20.0409 18.4135 20.0409 18.4135H19.9723C20.0546 18.4135 20.0684 18.4135 20.0409 18.4135L19.7938 18.2774L19.6703 18.1957C19.6703 18.1957 19.6703 18.1957 19.6016 18.1276C19.6016 18.1276 19.6016 18.0459 19.6016 18.1276C19.6016 18.2093 19.6016 18.1276 19.6016 18.0595C19.6016 18.0595 19.6016 18.1685 19.6016 18.0595V17.9234C19.6016 17.9234 19.6016 17.9234 19.6016 17.8553C19.6016 17.7873 19.6016 17.9506 19.6016 17.8553V17.7872C19.6016 17.7872 19.5055 17.8553 19.6016 17.7872L19.7252 17.7056H19.8625C19.9237 17.6899 19.9811 17.6621 20.0311 17.6239C20.0812 17.5856 20.1229 17.5376 20.1537 17.4829C20.1845 17.4282 20.2038 17.3678 20.2104 17.3054C20.2169 17.2431 20.2107 17.18 20.1919 17.1201C20.1538 17.0015 20.0716 16.9017 19.9619 16.841C19.8523 16.7803 19.7235 16.7633 19.6016 16.7934L19.7664 16.6709Z" fill="#48B2B7"/>
<path d="M24.791 20.7279C27.3374 20.0277 29.5058 18.366 30.8314 16.0991C31.6735 14.8654 32.257 13.4765 32.5475 12.0148C32.6202 10.7595 32.4478 9.50211 32.0395 8.31171C31.2409 5.49627 29.4223 3.07229 26.9326 1.50456C24.0497 -0.387833 20.7274 0.143125 17.4326 0.143125C14.1378 0.143125 10.9117 0.143135 7.82283 1.59987C5.19311 2.79378 3.01495 4.78695 1.60392 7.29063C0.897598 8.44594 0.498151 9.75998 0.442933 11.1099C0.387714 12.4599 0.678511 13.8017 1.28815 15.01C2.74335 17.6239 5.40664 18.6994 8.1523 19.4346C9.73239 19.9109 11.3361 20.3062 12.9572 20.6191C14.536 20.8641 16.1147 20.7688 17.6935 20.9049C20.4391 21.1636 21.5374 23.9818 23.981 24.9075C24.0984 24.9382 24.2226 24.9294 24.3344 24.8826C24.4461 24.8358 24.5391 24.7536 24.5988 24.6489C25.2066 23.2665 25.3973 21.7391 25.1479 20.2515C25.0656 19.5571 23.9673 19.5571 24.0497 20.2515C24.2866 21.5473 24.1486 22.8831 23.6515 24.1043L24.2693 23.8593C22.718 23.2602 21.606 21.5857 20.2744 20.6463C18.9427 19.7069 16.76 19.8294 14.989 19.7341C12.4138 19.4803 9.87603 18.9367 7.4247 18.114C4.67904 17.3244 2.05694 15.5818 1.59018 12.573C0.656652 6.73246 7.0815 2.1308 12.2159 1.45009C15.3147 1.17348 18.4278 1.08713 21.5374 1.19145C22.9684 1.18245 24.382 1.50373 25.6662 2.12989C26.9505 2.75605 28.0702 3.66992 28.9369 4.79923C29.9944 5.9517 30.7294 7.35847 31.069 8.87983C31.4086 10.4012 31.3409 11.9842 30.8726 13.4715C29.7606 16.1944 27.5092 19.067 24.4478 19.7205C23.7614 19.8703 24.0497 20.9185 24.7361 20.7688L24.791 20.7279Z" fill="#48B2B7"/>
<path d="M17.817 5.39833C18.2433 4.78593 18.8166 4.2885 19.4854 3.95098C20.1541 3.61345 20.8971 3.44644 21.6472 3.46508C22.1018 3.42933 22.5583 3.50645 22.9753 3.68948C23.3924 3.8725 23.7569 4.15564 24.0359 4.51336C24.4288 5.14354 24.5889 5.8894 24.489 6.62361C24.4092 7.38401 24.087 8.09937 23.5692 8.66575C23.02 9.26478 22.2924 9.65958 21.7021 10.2178C21.1407 10.8638 20.7401 11.6316 20.5327 12.4592C20.3252 13.2869 20.3167 14.1512 20.5077 14.9828C20.5764 15.6226 21.606 15.6363 21.5374 14.9828C21.4138 14.1477 21.4138 13.2992 21.5374 12.4642C21.745 11.6767 22.2326 10.9902 22.9102 10.5309C24.1129 9.79454 25.0018 8.64665 25.4088 7.30432C25.6307 6.64257 25.6626 5.9326 25.5008 5.25391C25.339 4.57522 24.9899 3.9546 24.4926 3.46146C23.9954 2.96833 23.3695 2.62216 22.6852 2.4617C22.0008 2.30125 21.2849 2.33284 20.6176 2.55294C19.8712 2.65451 19.1558 2.91516 18.5207 3.31704C17.8856 3.71892 17.3458 4.25248 16.9384 4.88098C16.6089 5.45278 17.5013 5.97013 17.817 5.39833Z" fill="#48B2B7"/>
<path d="M17.0344 5.46621C17.4051 5.91548 18.0915 6.90932 18.7917 6.69149C19.4918 6.47366 19.8899 6.05164 20.5077 5.86104C20.8646 5.76574 21.4275 5.6296 21.7158 5.95635C22.0041 6.28309 21.7158 6.90934 21.4275 7.22247C21.1342 7.5904 20.7817 7.9078 20.3842 8.16186C20.0432 8.35033 19.7331 8.58902 19.4644 8.86979C18.9302 9.46301 18.5777 10.1951 18.4485 10.98C18.4485 11.7015 18.4485 12.4504 18.4485 13.1719C18.4485 13.8935 18.2837 14.8329 18.6819 15.391C18.9152 15.7178 19.2722 15.6906 19.6291 15.6769C19.986 15.6633 20.5763 15.5953 21.0019 15.5272C21.4275 15.4591 21.3726 14.4517 20.7274 14.547L19.2859 14.6695C19.4781 14.8601 19.5467 14.8737 19.4644 14.6695C19.382 14.4653 19.4644 14.4789 19.4644 14.37V13.9207C19.4644 13.1174 19.4644 12.3142 19.4644 11.5246C19.463 10.7838 19.7423 10.0695 20.2469 9.52329C20.5517 9.24513 20.888 9.003 21.249 8.80173C21.5871 8.55055 21.8916 8.25774 22.1551 7.9304C22.4312 7.65964 22.6348 7.32487 22.7474 6.9564C22.8601 6.58792 22.8783 6.1974 22.8003 5.8202C22.6839 5.49305 22.4655 5.21115 22.1767 5.01534C21.8879 4.81952 21.5438 4.71992 21.1941 4.73103C20.386 4.75751 19.6015 5.00742 18.929 5.45258L18.6956 5.58873H18.5858C18.421 5.65681 18.4622 5.67042 18.6819 5.58873C18.3936 5.26199 18.0503 4.97612 17.762 4.63576C17.4738 4.2954 16.6226 4.85358 17.0344 5.35731V5.46621Z" fill="#48B2B7"/>
</svg>
