<svg width="24" height="25" viewBox="0 0 24 25" fill="none" xmlns="http://www.w3.org/2000/svg">
<g clip-path="url(#clip0_8819_51)">
<path d="M17.3175 16.637C17.6536 17.0064 17.9491 17.4271 18.3362 17.7862C18.5531 18.0611 18.8669 18.2411 19.2122 18.289C19.3199 18.2919 19.427 18.2724 19.5269 18.2318C19.6268 18.1912 19.7173 18.1303 19.7929 18.053C19.8933 17.9465 19.9821 17.8296 20.0577 17.7041C20.5467 16.9345 21.1477 16.2368 21.6061 15.4467C21.6676 15.3018 21.6745 15.1393 21.6253 14.9896C21.5762 14.84 21.4745 14.7136 21.3394 14.6342C21.2043 14.5548 21.0449 14.5278 20.8915 14.5584C20.738 14.589 20.6009 14.675 20.5059 14.8003C20.1087 15.4878 19.5993 16.1034 19.1511 16.7601L18.9779 17.0064L18.9066 17.1295V17.191C18.94 17.1406 18.9907 17.1044 19.0489 17.0892C19.1072 17.0741 19.169 17.0811 19.2224 17.109C19.2433 17.0866 19.2686 17.0688 19.2966 17.0566C19.3247 17.0444 19.3549 17.0382 19.3854 17.0382C19.4159 17.0382 19.4461 17.0444 19.4741 17.0566C19.5022 17.0688 19.5274 17.0866 19.5484 17.109L19.4873 17.0577C19.4452 17.029 19.4075 16.9945 19.3752 16.9551L19.1613 16.7396C18.8659 16.4112 18.601 16.0418 18.2954 15.7135C18.1755 15.5957 18.0147 15.5297 17.8472 15.5297C17.6797 15.5297 17.5188 15.5957 17.399 15.7135C17.2813 15.836 17.2156 15.9997 17.2156 16.1701C17.2156 16.3405 17.2813 16.5042 17.399 16.6267L17.3175 16.637Z" fill="#BDACBB"/>
<path d="M5.84718 10.542C6.51609 11.2289 7.3633 11.7124 8.29203 11.9374C8.83882 12.0536 9.40309 12.059 9.95195 11.9531C10.5008 11.8472 11.0232 11.6322 11.4887 11.3207C11.9542 11.0093 12.3534 10.6075 12.663 10.1389C12.9726 9.67028 13.1864 9.14425 13.292 8.59149C13.3975 8.03873 13.3927 7.47034 13.2778 6.91948C13.1629 6.36862 12.9401 5.84635 12.6226 5.38315C12.3051 4.91995 11.8991 4.52509 11.4284 4.22167C10.9577 3.91825 10.4317 3.71235 9.88116 3.61594C9.03959 3.44442 8.16483 3.58275 7.41595 4.00583C6.94073 4.29203 6.50273 4.63671 6.11205 5.03191C5.39507 5.74752 4.95449 6.69693 4.86926 7.70999C4.88896 8.67558 5.19788 9.61264 5.75551 10.3983C6.21391 11.0755 7.3141 10.3983 6.85569 9.75188C6.48447 9.2326 6.24332 8.63066 6.1528 7.99729C6.14413 7.36944 6.34904 6.75751 6.73346 6.26321C6.91644 6.02545 7.12481 5.80866 7.35483 5.61678L7.53819 5.46287C7.43632 5.5347 7.64006 5.37053 7.53819 5.46287L7.62987 5.39104C8.03912 5.03979 8.55006 4.83107 9.0866 4.79593C9.70149 4.78151 10.3054 4.96145 10.8136 5.31047C11.3218 5.65949 11.7086 6.16004 11.9199 6.74187C12.1312 7.3237 12.1563 7.95757 11.9916 8.55448C11.8269 9.15139 11.4807 9.68136 11.0017 10.07C10.391 10.5484 9.62287 10.7758 8.85229 10.7061C8.07346 10.5708 7.35886 10.1858 6.81494 9.60824C6.26485 8.99259 5.3684 9.89555 5.9083 10.5112L5.84718 10.542Z" fill="#BDACBB"/>
<path d="M5.37859 17.858C5.40117 17.381 5.50811 16.9119 5.69438 16.4728C5.85645 15.9654 6.07877 15.4796 6.35651 15.026C7.0594 13.9999 8.28181 13.9281 9.41254 13.8768C10.309 13.8255 11.6231 13.8768 12.2139 14.6566C12.9034 15.618 13.3603 16.7283 13.5484 17.899C13.691 18.7096 14.9134 18.3608 14.781 17.5604C14.6449 16.8502 14.419 16.1605 14.1087 15.5083C13.8595 14.8526 13.5163 14.2372 13.09 13.6818C12.2547 12.6558 10.5331 12.5121 9.3107 12.5942C8.56823 12.5896 7.82947 12.7003 7.12052 12.9225C6.44144 13.1739 5.84772 13.6153 5.40915 14.1949C5.03596 14.7482 4.7443 15.353 4.54327 15.9905C4.28897 16.5811 4.14728 17.2146 4.12561 17.858C4.14525 18.0141 4.22079 18.1576 4.338 18.2617C4.45521 18.3657 4.60605 18.4231 4.76228 18.4231C4.91851 18.4231 5.06938 18.3657 5.1866 18.2617C5.30381 18.1576 5.37931 18.0141 5.39895 17.858H5.37859Z" fill="#BDACBB"/>
<path d="M14.0577 11.9786C14.506 12.4469 15.0791 12.7746 15.708 12.9226C16.0827 13.0029 16.4694 13.0074 16.8459 12.936C17.2223 12.8645 17.5809 12.7184 17.9009 12.5063C18.2208 12.2941 18.4958 12.02 18.7097 11.7C18.9237 11.3799 19.0724 11.0203 19.1473 10.6419C19.2222 10.2635 19.2217 9.87382 19.1459 9.4956C19.0701 9.11738 18.9204 8.7581 18.7057 8.43859C18.4909 8.11908 18.2153 7.84569 17.8948 7.63433C17.5743 7.42297 17.2153 7.27785 16.8387 7.20734C16.2451 7.08189 15.6265 7.17661 15.0968 7.4741C14.7786 7.6713 14.4846 7.90551 14.2207 8.17186C13.7195 8.66464 13.4151 9.3254 13.365 10.0291C13.3786 10.6833 13.5842 11.3188 13.9559 11.8555C14.0446 11.9999 14.1854 12.1041 14.3487 12.1462C14.5121 12.1883 14.6853 12.165 14.8319 12.0812C14.9746 11.9938 15.0778 11.8538 15.1197 11.6909C15.1615 11.5281 15.1387 11.3552 15.056 11.209L14.893 10.9423L14.8319 10.8191C14.7402 10.6242 14.8319 10.8191 14.8319 10.7473C14.7562 10.5555 14.7016 10.3559 14.6689 10.1522C14.6689 10.3164 14.6689 9.9367 14.6689 10.0804C14.6689 9.988 14.7199 9.8854 14.7504 9.79305C14.8044 9.59169 14.8979 9.40327 15.0255 9.23896C15.0646 9.18028 15.1089 9.12533 15.1579 9.07478L15.382 8.87982C15.4143 8.84039 15.452 8.80586 15.494 8.77724C15.5654 8.70542 15.3616 8.85933 15.4329 8.77724H15.4839C15.6048 8.68801 15.7306 8.60576 15.8608 8.53096C15.8608 8.53096 15.983 8.45914 15.9117 8.53096H16.0441H16.1562C16.0951 8.53096 16.2682 8.53096 16.2886 8.53096H16.5229C16.4109 8.53096 16.5229 8.53096 16.5738 8.53096H16.7267L16.8795 8.58228C16.9864 8.62677 17.0888 8.68176 17.1851 8.74646L17.3175 8.8388C17.2462 8.7875 17.3175 8.8388 17.3175 8.8388L17.5416 9.06454C17.5712 9.09809 17.5953 9.13618 17.6129 9.1774C17.646 9.22163 17.6733 9.26991 17.6944 9.32106C17.698 9.3483 17.698 9.3759 17.6944 9.40314C17.6944 9.35183 17.6944 9.40314 17.6944 9.40314C17.6944 9.40314 17.7555 9.57757 17.7759 9.65966C17.7963 9.74174 17.7759 9.85463 17.7759 9.77254C17.7759 9.69045 17.7759 9.90592 17.7759 9.88539C17.7861 9.98432 17.7861 10.084 17.7759 10.183C17.7759 10.183 17.7759 10.3471 17.7759 10.2445C17.7759 10.3061 17.7759 10.3779 17.7759 10.4395C17.6912 10.7932 17.4857 11.1055 17.1953 11.3219L17.0221 11.4245L16.9202 11.4758H16.8591H16.747C16.5212 11.5679 16.2756 11.5997 16.0339 11.5682C15.5941 11.4877 15.191 11.2685 14.8829 10.9423C14.764 10.8225 14.6028 10.7553 14.4346 10.7553C14.2665 10.7553 14.1053 10.8225 13.9864 10.9423C13.8676 11.062 13.8008 11.2244 13.8008 11.3937C13.8008 11.5631 13.8676 11.7255 13.9864 11.8452L14.0577 11.9786Z" fill="#BDACBB"/>
<path d="M14.7402 14.7283C14.8202 14.6827 14.9058 14.6482 14.9949 14.6257H15.1579H15.2292H15.8302C16.2001 14.6052 16.5708 14.6052 16.9406 14.6257H17.2869H17.4296C17.4296 14.6257 17.6333 14.6257 17.4907 14.6257C17.6518 14.6473 17.8073 14.6995 17.9491 14.7796H18C18.0409 14.8016 18.0759 14.8333 18.1019 14.872C18.1579 14.9216 18.2091 14.9766 18.2547 15.0361C18.2854 15.083 18.3194 15.1276 18.3565 15.1695L18.4177 15.2208C18.3362 15.1387 18.489 15.3439 18.4788 15.3439C18.5692 15.4864 18.71 15.589 18.8726 15.6309C19.0353 15.6728 19.2076 15.6509 19.3548 15.5697C19.4975 15.4823 19.6007 15.3422 19.6426 15.1794C19.6844 15.0165 19.6616 14.8437 19.579 14.6975C19.3548 14.2929 19.0453 13.9426 18.6723 13.6714C18.1789 13.3985 17.6257 13.2539 17.0628 13.2507C16.6388 13.225 16.2135 13.225 15.7895 13.2507C15.2102 13.2487 14.6372 13.3712 14.1087 13.6099C14.0362 13.6514 13.9725 13.7069 13.9215 13.7734C13.8704 13.8398 13.8329 13.9157 13.8111 13.9968C13.7893 14.0779 13.7837 14.1625 13.7946 14.2458C13.8054 14.3291 13.8325 14.4094 13.8744 14.482C13.9614 14.6282 14.1015 14.7345 14.265 14.7786C14.4285 14.8226 14.6026 14.8009 14.7504 14.718L14.7402 14.7283Z" fill="#BDACBB"/>
<path d="M2.67773 19.7609C4.61742 21.771 7.09163 23.1742 9.80333 23.8022C12.5498 24.3609 15.404 23.9059 17.8451 22.5201C20.0067 21.3236 21.7448 19.4784 22.8178 17.2408C23.8908 15.0032 24.2454 12.4844 23.8323 10.0344C23.4192 7.58442 22.259 5.32492 20.5129 3.56993C18.7667 1.81494 16.5214 0.651639 14.0889 0.241668C11.7998 -0.239095 9.41544 0.124922 7.37043 1.26738C5.97497 2.13658 4.68677 3.16951 3.5328 4.3445C1.52464 6.35184 0.27833 9.00498 0.0106992 11.8424C-0.131813 14.4785 1.17118 17.4941 2.61666 19.6173C3.07473 20.2943 4.1741 19.6173 3.71603 18.9711C2.50806 17.2089 1.7048 15.1976 1.36458 13.0835C1.02866 10.8475 2.09749 8.37552 3.3292 6.57027C5.15132 3.90343 8.6225 1.3802 11.8494 1.32892C14.061 1.27375 16.2346 1.91543 18.067 3.16448C19.8995 4.41352 21.2993 6.20764 22.0715 8.29665C22.8436 10.3857 22.9495 12.6654 22.3743 14.818C21.7992 16.9705 20.5717 18.8885 18.863 20.3045C16.6804 22.0749 13.9102 22.9405 11.1165 22.7252C8.25183 22.3271 5.60648 20.96 3.61422 18.848C3.06454 18.2326 2.16874 19.1352 2.71843 19.7506L2.67773 19.7609Z" fill="#BDACBB"/>
</g>
<defs>
<clipPath id="clip0_8819_51">
<rect width="24" height="24" fill="white" transform="translate(0 0.0349121)"/>
</clipPath>
</defs>
</svg>
