<svg width="26" height="20" viewBox="0 0 26 20" fill="none" xmlns="http://www.w3.org/2000/svg"><path d="M18.8571 14.4657V15.9586C19.5036 15.73 20.1955 15.6599 20.8747 15.7541C21.5539 15.8484 22.2006 16.1042 22.7604 16.5001C23.3202 16.8961 23.7769 17.4206 24.092 18.0296C24.4072 18.6386 24.5716 19.3143 24.5714 20L26 19.9993C26.0002 19.1271 25.8008 18.2664 25.4169 17.4831C25.0331 16.6999 24.475 16.015 23.7856 15.4807C23.0961 14.9465 22.2934 14.5772 21.4392 14.4012C20.5849 14.2251 19.7017 14.2477 18.8571 14.4657ZM20.2857 13.5714C22.6536 13.5714 24.5714 11.6536 24.5714 9.28571C24.5714 6.91786 22.6536 5 20.2857 5C17.9179 5 16 6.91786 16 9.28571C16 11.6536 17.9179 13.5714 20.2857 13.5714ZM20.2857 12.1429C18.7071 12.1429 17.4286 10.8643 17.4286 9.28571C17.4286 7.70714 18.7071 6.42857 20.2857 6.42857C21.8643 6.42857 23.1429 7.70714 23.1429 9.28571C23.1429 10.8643 21.8643 12.1429 20.2857 12.1429Z"/><path d="M0 20C0 17.9793 0.842855 16.0414 2.34315 14.6125C3.84344 13.1837 5.87827 12.381 8 12.381C10.1217 12.381 12.1566 13.1837 13.6569 14.6125C15.1571 16.0414 16 17.9793 16 20H14C14 18.4845 13.3679 17.031 12.2426 15.9594C11.1174 14.8878 9.5913 14.2857 8 14.2857C6.4087 14.2857 4.88258 14.8878 3.75736 15.9594C2.63214 17.031 2 18.4845 2 20H0ZM8 11.4286C4.685 11.4286 2 8.87143 2 5.71429C2 2.55714 4.685 0 8 0C11.315 0 14 2.55714 14 5.71429C14 8.87143 11.315 11.4286 8 11.4286ZM8 9.52381C10.21 9.52381 12 7.81905 12 5.71429C12 3.60952 10.21 1.90476 8 1.90476C5.79 1.90476 4 3.60952 4 5.71429C4 7.81905 5.79 9.52381 8 9.52381Z"/></svg>
