<svg width="12" height="12" viewBox="0 0 12 12" fill="none" xmlns="http://www.w3.org/2000/svg"><path d="M4.83329 10.5197V8.56675C4.83329 7.81833 5.41371 7.22975 6.27238 6.89375C5.71862 6.6878 5.13244 6.5827 4.54163 6.58342C3.43913 6.58342 2.42063 6.94333 1.59754 7.55175C1.85276 8.27353 2.28126 8.92161 2.84544 9.43911C3.40962 9.9566 4.09221 10.3277 4.83329 10.5197ZM10.0133 8.38358C9.78288 8.07267 9.01579 7.75008 8.04163 7.75008C6.87146 7.75008 5.99996 8.215 5.99996 8.56675V10.6667C6.80953 10.6672 7.60529 10.4569 8.30896 10.0566C9.01264 9.65629 9.6 9.07972 10.0133 8.38358ZM4.57079 5.70842C4.91889 5.70842 5.25273 5.57013 5.49887 5.32399C5.74501 5.07785 5.88329 4.74401 5.88329 4.39592C5.88329 4.04782 5.74501 3.71398 5.49887 3.46784C5.25273 3.2217 4.91889 3.08342 4.57079 3.08342C4.2227 3.08342 3.88886 3.2217 3.64272 3.46784C3.39657 3.71398 3.25829 4.04782 3.25829 4.39592C3.25829 4.74401 3.39657 5.07785 3.64272 5.32399C3.88886 5.57013 4.2227 5.70842 4.57079 5.70842ZM8.04163 6.29175C8.35105 6.29175 8.64779 6.16883 8.86658 5.95004C9.08538 5.73125 9.20829 5.4345 9.20829 5.12508C9.20829 4.81566 9.08538 4.51892 8.86658 4.30012C8.64779 4.08133 8.35105 3.95842 8.04163 3.95842C7.73221 3.95842 7.43546 4.08133 7.21667 4.30012C6.99788 4.51892 6.87496 4.81566 6.87496 5.12508C6.87496 5.4345 6.99788 5.73125 7.21667 5.95004C7.43546 6.16883 7.73221 6.29175 8.04163 6.29175ZM5.99996 11.8334C2.77821 11.8334 0.166626 9.22183 0.166626 6.00008C0.166626 2.77833 2.77821 0.166748 5.99996 0.166748C9.22171 0.166748 11.8333 2.77833 11.8333 6.00008C11.8333 9.22183 9.22171 11.8334 5.99996 11.8334Z"/></svg>
