<svg width="29" height="33" viewBox="0 0 29 33" fill="none" xmlns="http://www.w3.org/2000/svg">
<path d="M15.2459 10.6593C14.2495 9.28513 12.962 8.12838 11.4677 7.26483C9.97339 6.40127 8.30593 5.85036 6.57445 5.64815C3.33 5.44996 -1.03525 7.34688 0.23303 11.1265C0.97263 13.037 1.92701 14.8645 3.07928 16.5765C4.15826 18.3068 5.35544 19.9667 6.66293 21.5452C9.52394 24.9992 13.314 27.6463 16.1013 31.1428C16.5437 31.7091 17.5761 31.1428 17.1189 30.5624C14.9658 27.8728 12.1637 25.7778 9.74515 23.3005C7.29714 20.7529 5.17336 17.935 3.41849 14.9061C2.59263 13.4905 1.0589 11.4096 1.16213 9.7675C1.29486 7.60166 3.84616 6.79478 5.71909 6.76647C7.39741 6.8285 9.03759 7.26505 10.5095 8.04152C11.9815 8.81799 13.2446 9.91302 14.1989 11.2397C14.6413 11.8201 15.6736 11.2397 15.2165 10.6593H15.2459Z" fill="#48B2B7"/>
<path d="M15.5262 11.0415C15.7713 9.23566 16.4558 7.51051 17.5241 6.00552C18.5924 4.50053 20.0146 3.25793 21.6758 2.37817C22.5176 1.929 23.4143 1.58192 24.3452 1.34482C24.7702 1.21357 25.2116 1.13739 25.6577 1.11832C26.572 1.11832 26.8522 1.81196 27.1324 2.53391C27.737 4.75879 27.9612 7.06317 27.7961 9.35703C27.5748 17.8505 23.6225 25.5371 18.4904 32.1904C18.0332 32.7708 19.0655 33.337 19.508 32.7566C25.8199 24.6029 30.2589 14.5947 28.6662 4.24675C28.4302 2.74623 28.3565 0.16987 26.3213 0C24.3226 0.000354753 22.3701 0.577417 20.7173 1.65625C18.9852 2.65889 17.5147 4.02823 16.4182 5.65974C15.3217 7.29126 14.6282 9.14177 14.3906 11.0699C14.2874 11.7918 15.4819 11.7918 15.5704 11.0699L15.5262 11.0415Z" fill="#48B2B7"/>
<path d="M12.5914 14.1844C13.7269 13.9013 14.8182 13.5333 15.939 13.1935L16.9419 12.9104C17.143 12.8405 17.3503 12.7884 17.5613 12.7547C17.4728 12.6556 17.4433 13.0944 17.4286 13.1511C17.3401 13.9936 17.3401 14.8424 17.4286 15.6849C17.5613 17.2704 17.694 18.87 17.753 20.4696C17.812 21.2661 17.812 22.0655 17.753 22.862C17.753 23.2583 17.517 23.1451 17.2221 23.3432C17.1169 23.4082 17.036 23.5035 16.9909 23.6155C16.9458 23.7274 16.939 23.8502 16.9714 23.9661V23.5556L17.3106 23.3008C17.1355 23.3363 16.9547 23.3363 16.7797 23.3008L17.1778 23.4565C16.9419 23.2725 16.8386 22.6496 16.7207 22.3665C16.6027 22.0834 16.352 21.503 16.1603 21.0783C15.7768 20.2573 15.2754 19.4646 14.9362 18.6152C14.2431 16.8599 13.6974 15.048 12.8716 13.3351C12.5766 12.7122 11.618 13.2501 11.913 13.873C12.4238 14.9639 12.8766 16.0789 13.2698 17.2138C13.6808 18.3907 14.1735 19.5399 14.7445 20.6536C15.2754 21.687 15.6441 22.7629 16.116 23.7962C16.352 24.3483 16.8092 24.4191 17.3843 24.32C17.7235 24.2492 18.1659 24.0228 18.0037 23.5981V24.0086C17.7677 24.1926 17.7677 24.2209 18.0037 24.136L18.2839 24.0227C18.4572 23.925 18.6037 23.7892 18.7116 23.6264C18.8615 23.3115 18.9322 22.9673 18.918 22.6213C18.918 21.7437 18.918 20.8802 18.918 20.0025C18.8443 18.1481 18.6083 16.3078 18.5199 14.4534C18.4974 13.9563 18.5271 13.4584 18.6083 12.967C18.6454 12.8107 18.6462 12.6485 18.6105 12.4919C18.5748 12.3353 18.5036 12.1882 18.4019 12.061C17.7972 11.3249 16.9271 11.7355 16.1603 11.962C14.8772 12.3159 13.6237 12.7547 12.3259 13.0944C12.2562 13.113 12.191 13.1446 12.134 13.1874C12.077 13.2302 12.0293 13.2833 11.9937 13.3438C11.9581 13.4042 11.9353 13.4709 11.9265 13.5398C11.9177 13.6088 11.9231 13.6787 11.9425 13.7456C11.9619 13.8125 11.9948 13.8751 12.0393 13.9298C12.0839 13.9846 12.1393 14.0303 12.2023 14.0645C12.2653 14.0987 12.3347 14.1206 12.4065 14.129C12.4783 14.1375 12.5511 14.1322 12.6209 14.1137L12.5914 14.1844Z" fill="#48B2B7"/>
<path d="M17.694 25.4949C17.3412 25.5604 17.0199 25.7336 16.7781 25.9887C16.5362 26.2438 16.3868 26.5672 16.352 26.9105C16.3697 27.2576 16.4815 27.5943 16.6764 27.8872C16.9014 28.1609 17.1825 28.3873 17.5023 28.5525C17.6585 28.6394 17.8211 28.7151 17.9889 28.779C18.1971 28.8287 18.4149 28.8287 18.6231 28.779C18.9488 28.6871 19.2471 28.5222 19.4932 28.2977C19.6072 28.2032 19.7065 28.0936 19.7881 27.9721C19.8678 27.8278 19.9132 27.6682 19.9209 27.505C19.9578 27.2182 19.9578 26.9282 19.9209 26.6415C19.8855 26.4533 19.8077 26.2747 19.6931 26.1183C19.5785 25.9618 19.4298 25.8312 19.2572 25.7355C18.8769 25.5272 18.4402 25.4335 18.0037 25.4665C17.8607 25.4732 17.7248 25.5284 17.6203 25.6223C17.5662 25.671 17.5237 25.7304 17.4957 25.7964C17.4677 25.8623 17.4549 25.9333 17.458 26.0045C17.458 26.2593 17.694 26.5707 18.0037 26.5282C18.1256 26.507 18.2505 26.507 18.3724 26.5282C18.2249 26.5282 18.3724 26.5282 18.3724 26.5282H18.4461L18.6231 26.6132C18.5494 26.6132 18.5494 26.5424 18.6231 26.6132C18.6968 26.6839 18.6968 26.6981 18.6231 26.6132C18.5494 26.5282 18.6231 26.6132 18.6231 26.6132C18.6231 26.5282 18.6231 26.5141 18.6231 26.6132C18.63 26.6411 18.63 26.6702 18.6231 26.6981C18.6231 26.6981 18.6231 26.7689 18.6231 26.6981C18.6231 26.6273 18.6231 26.7972 18.6231 26.8397C18.6305 26.9481 18.6305 27.0568 18.6231 27.1653C18.6231 27.2502 18.6231 27.3493 18.6231 27.4342C18.6231 27.2927 18.6231 27.3068 18.6231 27.3634C18.6231 27.42 18.6231 27.3634 18.6231 27.2926C18.6231 27.3634 18.7263 27.1936 18.6231 27.2926C18.5876 27.3339 18.5481 27.3718 18.5051 27.4059C18.5051 27.4059 18.4166 27.4059 18.4019 27.4909C18.3871 27.5758 18.4904 27.4909 18.4019 27.4909H18.3282C18.2792 27.5274 18.2244 27.556 18.1659 27.5758C18.0627 27.5758 18.2692 27.5758 18.1659 27.5758H18.0774C17.9742 27.5758 18.0774 27.5758 18.0774 27.5758H18.3429C18.3429 27.5758 18.4756 27.5758 18.3429 27.5758C18.2102 27.5758 18.3429 27.5758 18.3429 27.5758H18.2249L17.9152 27.4059C17.8533 27.3867 17.7974 27.3525 17.753 27.3068V27.3068L17.6645 27.236C17.6645 27.236 17.5613 27.1228 17.6645 27.236C17.7677 27.3493 17.6645 27.236 17.6645 27.236C17.6645 27.236 17.6645 27.236 17.6645 27.1653C17.6645 27.0945 17.6645 27.2785 17.6645 27.1653C17.6645 27.052 17.6645 27.052 17.6645 26.9954C17.6715 26.9723 17.6715 26.9477 17.6645 26.9246C17.6645 26.8113 17.6645 27.0378 17.6645 26.9246C17.6645 26.8113 17.6645 26.9246 17.6645 26.8538C17.6645 26.783 17.6645 26.9388 17.6645 26.8538C17.6645 26.9388 17.6645 26.9529 17.6645 26.9246C17.6645 26.8538 17.6645 26.9246 17.6645 26.9246C17.6645 26.9246 17.6645 26.9246 17.7382 26.8538H17.8267C17.8267 26.8538 17.9742 26.8538 17.9889 26.7831C18.0037 26.7123 17.871 26.7831 17.9889 26.7831H18.0922C18.1623 26.7651 18.2279 26.7338 18.2853 26.6912C18.3427 26.6486 18.3907 26.5954 18.4264 26.5347C18.4621 26.4741 18.4848 26.4072 18.4933 26.3381C18.5017 26.2689 18.4957 26.1988 18.4756 26.1319C18.4313 26 18.3369 25.889 18.2113 25.8208C18.0856 25.7526 17.9378 25.7323 17.7972 25.7638L17.694 25.4949Z" fill="#48B2B7"/>
</svg>
