<svg width="352" height="5" viewBox="0 0 352 5" fill="none" xmlns="http://www.w3.org/2000/svg">
<path d="M1 2.97316C8.56076 2.97316 16.3911 2.75984 23.6823 1.88344C28.0063 1.3637 32.2623 0.689796 36.5986 1.15732C41.1274 1.6456 45.8388 1.15696 50.4249 1.15696C58.6686 1.15696 66.8733 2.09101 75.1374 2.09101C83.7503 2.09101 91.7291 1.88344 102.3 1.88344C109.056 1.88344 114.11 2.29857 120.712 2.29857C124.725 2.29857 129.646 1.09632 133.628 1.88344C137.483 2.64547 142.027 2.44931 145.914 2.97316C154.565 4.13902 163.203 3.9591 171.887 3.9591C176.824 3.9591 181.615 3.33923 186.554 2.97316C192.286 2.54826 198.029 2.29857 203.88 2.29857C210.578 2.29857 216.986 2.33514 223.657 2.97316C237.604 4.30705 246.095 3.9591 264.681 3.9591C271.297 3.9591 276.968 3.9591 284.528 3.9591C292.089 3.9591 297.611 3.9591 304.62 3.9591C308.905 3.9591 311.306 3.9591 316.662 2.97316C324.222 2.29857 324.344 2.80697 327.688 2.29863C335.317 1.13854 343.321 2.2985 351 2.2985" stroke="#5A2F56" stroke-linecap="round"/>
</svg>
