<?xml version="1.0" encoding="UTF-8" standalone="no"?><svg xmlns:svg="http://www.w3.org/2000/svg" xmlns="http://www.w3.org/2000/svg" xmlns:xlink="http://www.w3.org/1999/xlink" version="1.1" viewBox="0 0 171.97916 171.97917" height="650" width="650"><defs id="defs1623"><linearGradient id="linearGradient1800"><stop id="stop1796" offset="0" style="stop-color:#4f264f;stop-opacity:1;"/><stop id="stop1798" offset="1" style="stop-color:#bd77bd;stop-opacity:1"/></linearGradient><clipPath clipPathUnits="userSpaceOnUse" id="clipPath1516"><path id="path1518" style="opacity:0.6;fill:#000000;fill-opacity:1;stroke:none;stroke-width:7.30411;stroke-linecap:round" d="m -1514.9277,-1143.4473 c -183.0074,0 -331.3633,148.35933 -331.3633,331.36722 0,183.0092 148.358,331.36914 331.3672,331.36914 97.3567,0 184.9016,-41.98969 245.5273,-108.84179 21.2761,-19.53334 33.3886,-47.0917 33.3926,-75.97461 -5e-4,-56.97216 -46.186,-103.15684 -103.1582,-103.15625 -31.9116,0.0386 -62.0088,14.84418 -81.5156,40.09961 0,-0.0224 2e-4,-0.0441 -0.01,-0.0664 -23.5557,26.8914 -57.5611,42.32217 -93.3105,42.3418 -68.5587,-3.9e-4 -124.1365,-55.57803 -124.1368,-124.13672 4e-4,-68.55865 55.5782,-124.13633 124.1368,-124.13672 34.1955,0.0359 66.8618,14.17604 90.291,39.08398 19.5247,27.15777 50.9212,43.26558 84.3691,43.28516 57.4288,-3.6e-4 103.984,-46.55553 103.9844,-103.98438 -0.015,-24.81322 -8.9034,-48.80304 -25.0586,-67.63674 -0.985,-1.4765 -2.1365,-2.9936 -3.4863,-4.5586 -60.7655,-70.4543 -150.6866,-115.0535 -251.0254,-115.0547 v 0 z m 1.2695,267.64261 a 64.039703,64.039703 0 0 0 -64.0391,64.03907 64.039703,64.039703 0 0 0 64.0391,64.03906 64.039703,64.039703 0 0 0 64.0391,-64.03906 64.039703,64.039703 0 0 0 -64.0391,-64.03907 z"/></clipPath><linearGradient xlink:href="#linearGradient1032" id="linearGradient1474" gradientUnits="userSpaceOnUse" gradientTransform="translate(-1846.1975,-1144.0736)" x1="145.65736" y1="596.48907" x2="496.15106" y2="102.14743"/><linearGradient id="linearGradient1032"><stop style="stop-color:#47e6af;stop-opacity:1" offset="0" id="stop1373"/><stop id="stop1375" offset="0.51482904" style="stop-color:#526f6d;stop-opacity:1;"/><stop style="stop-color:#51023d;stop-opacity:1" offset="1" id="stop1377"/></linearGradient><clipPath clipPathUnits="userSpaceOnUse" id="clipPath1512"><path d="m -1514.9277,-1143.4473 c -183.0074,0 -331.3633,148.35933 -331.3633,331.36722 0,183.0092 148.358,331.36914 331.3672,331.36914 97.3567,0 184.9016,-41.98969 245.5273,-108.84179 21.2761,-19.53334 33.3886,-47.0917 33.3926,-75.97461 -5e-4,-56.97216 -46.186,-103.15684 -103.1582,-103.15625 -31.9116,0.0386 -62.0088,14.84418 -81.5156,40.09961 0,-0.0224 2e-4,-0.0441 -0.01,-0.0664 -23.5557,26.8914 -57.5611,42.32217 -93.3105,42.3418 -68.5587,-3.9e-4 -124.1365,-55.57803 -124.1368,-124.13672 4e-4,-68.55865 55.5782,-124.13633 124.1368,-124.13672 34.1955,0.0359 66.8618,14.17604 90.291,39.08398 19.5247,27.15777 50.9212,43.26558 84.3691,43.28516 57.4288,-3.6e-4 103.984,-46.55553 103.9844,-103.98438 -0.015,-24.81322 -8.9034,-48.80304 -25.0586,-67.63674 -0.985,-1.4765 -2.1365,-2.9936 -3.4863,-4.5586 -60.7655,-70.4543 -150.6866,-115.0535 -251.0254,-115.0547 v 0 z m 1.2695,267.64261 a 64.039703,64.039703 0 0 0 -64.0391,64.03907 64.039703,64.039703 0 0 0 64.0391,64.03906 64.039703,64.039703 0 0 0 64.0391,-64.03906 64.039703,64.039703 0 0 0 -64.0391,-64.03907 z" style="opacity:0.6;fill:#000000;fill-opacity:1;stroke:none;stroke-width:7.30411;stroke-linecap:round" id="path1514"/></clipPath><linearGradient xlink:href="#linearGradient1088" id="linearGradient1472" gradientUnits="userSpaceOnUse" gradientTransform="translate(-1846.7258,-1148.5001)" x1="286.59955" y1="16.674204" x2="390.85779" y2="554.19"/><linearGradient id="linearGradient1088"><stop id="stop1112" offset="0" style="stop-color:#f61b79;stop-opacity:1"/><stop style="stop-color:#6fafc5;stop-opacity:1;" offset="0.59605765" id="stop1119"/><stop id="stop1114" offset="1" style="stop-color:#36efe6;stop-opacity:1"/></linearGradient><clipPath clipPathUnits="userSpaceOnUse" id="clipPath1524"><path id="path1526" style="opacity:0.6;fill:#000000;fill-opacity:1;stroke:none;stroke-width:7.30411;stroke-linecap:round" d="m -1514.9277,-1143.4473 c -183.0074,0 -331.3633,148.35933 -331.3633,331.36722 0,183.0092 148.358,331.36914 331.3672,331.36914 97.3567,0 184.9016,-41.98969 245.5273,-108.84179 21.2761,-19.53334 33.3886,-47.0917 33.3926,-75.97461 -5e-4,-56.97216 -46.186,-103.15684 -103.1582,-103.15625 -31.9116,0.0386 -62.0088,14.84418 -81.5156,40.09961 0,-0.0224 2e-4,-0.0441 -0.01,-0.0664 -23.5557,26.8914 -57.5611,42.32217 -93.3105,42.3418 -68.5587,-3.9e-4 -124.1365,-55.57803 -124.1368,-124.13672 4e-4,-68.55865 55.5782,-124.13633 124.1368,-124.13672 34.1955,0.0359 66.8618,14.17604 90.291,39.08398 19.5247,27.15777 50.9212,43.26558 84.3691,43.28516 57.4288,-3.6e-4 103.984,-46.55553 103.9844,-103.98438 -0.015,-24.81322 -8.9034,-48.80304 -25.0586,-67.63674 -0.985,-1.4765 -2.1365,-2.9936 -3.4863,-4.5586 -60.7655,-70.4543 -150.6866,-115.0535 -251.0254,-115.0547 v 0 z m 1.2695,267.64261 a 64.039703,64.039703 0 0 0 -64.0391,64.03907 64.039703,64.039703 0 0 0 64.0391,64.03906 64.039703,64.039703 0 0 0 64.0391,-64.03906 64.039703,64.039703 0 0 0 -64.0391,-64.03907 z"/></clipPath><linearGradient xlink:href="#linearGradient1010" id="linearGradient1470" gradientUnits="userSpaceOnUse" gradientTransform="translate(-1850.3369,-1147.3219)" x1="306.66992" y1="604.79102" x2="615.78534" y2="450.27679"/><linearGradient id="linearGradient1010"><stop style="stop-color:#f04a48;stop-opacity:1" offset="0" id="stop1006"/><stop style="stop-color:#fc952b;stop-opacity:0.99215686" offset="1" id="stop1008"/></linearGradient><clipPath clipPathUnits="userSpaceOnUse" id="clipPath1508"><path id="path1510" style="opacity:0.6;fill:#000000;fill-opacity:1;stroke:none;stroke-width:7.30411;stroke-linecap:round" d="m -1514.9277,-1143.4473 c -183.0074,0 -331.3633,148.35933 -331.3633,331.36722 0,183.0092 148.358,331.36914 331.3672,331.36914 97.3567,0 184.9016,-41.98969 245.5273,-108.84179 21.2761,-19.53334 33.3886,-47.0917 33.3926,-75.97461 -5e-4,-56.97216 -46.186,-103.15684 -103.1582,-103.15625 -31.9116,0.0386 -62.0088,14.84418 -81.5156,40.09961 0,-0.0224 2e-4,-0.0441 -0.01,-0.0664 -23.5557,26.8914 -57.5611,42.32217 -93.3105,42.3418 -68.5587,-3.9e-4 -124.1365,-55.57803 -124.1368,-124.13672 4e-4,-68.55865 55.5782,-124.13633 124.1368,-124.13672 34.1955,0.0359 66.8618,14.17604 90.291,39.08398 19.5247,27.15777 50.9212,43.26558 84.3691,43.28516 57.4288,-3.6e-4 103.984,-46.55553 103.9844,-103.98438 -0.015,-24.81322 -8.9034,-48.80304 -25.0586,-67.63674 -0.985,-1.4765 -2.1365,-2.9936 -3.4863,-4.5586 -60.7655,-70.4543 -150.6866,-115.0535 -251.0254,-115.0547 v 0 z m 1.2695,267.64261 a 64.039703,64.039703 0 0 0 -64.0391,64.03907 64.039703,64.039703 0 0 0 64.0391,64.03906 64.039703,64.039703 0 0 0 64.0391,-64.03906 64.039703,64.039703 0 0 0 -64.0391,-64.03907 z"/></clipPath><linearGradient xlink:href="#linearGradient1538" id="linearGradient1468" gradientUnits="userSpaceOnUse" gradientTransform="translate(-1850.5913,-1144.0736)" x1="33.255085" y1="364.43536" x2="426.88409" y2="248.57556"/><linearGradient id="linearGradient1538"><stop id="stop1534" offset="0" style="stop-color:#f61b79;stop-opacity:1"/><stop style="stop-color:#cd1a6f;stop-opacity:1;" offset="0.35749197" id="stop1806"/><stop id="stop1536" offset="1" style="stop-color:#581a53;stop-opacity:1"/></linearGradient><clipPath clipPathUnits="userSpaceOnUse" id="clipPath1520"><path d="m -1514.9277,-1143.4473 c -183.0074,0 -331.3633,148.35933 -331.3633,331.36722 0,183.0092 148.358,331.36914 331.3672,331.36914 97.3567,0 184.9016,-41.98969 245.5273,-108.84179 21.2761,-19.53334 33.3886,-47.0917 33.3926,-75.97461 -5e-4,-56.97216 -46.186,-103.15684 -103.1582,-103.15625 -31.9116,0.0386 -62.0088,14.84418 -81.5156,40.09961 0,-0.0224 2e-4,-0.0441 -0.01,-0.0664 -23.5557,26.8914 -57.5611,42.32217 -93.3105,42.3418 -68.5587,-3.9e-4 -124.1365,-55.57803 -124.1368,-124.13672 4e-4,-68.55865 55.5782,-124.13633 124.1368,-124.13672 34.1955,0.0359 66.8618,14.17604 90.291,39.08398 19.5247,27.15777 50.9212,43.26558 84.3691,43.28516 57.4288,-3.6e-4 103.984,-46.55553 103.9844,-103.98438 -0.015,-24.81322 -8.9034,-48.80304 -25.0586,-67.63674 -0.985,-1.4765 -2.1365,-2.9936 -3.4863,-4.5586 -60.7655,-70.4543 -150.6866,-115.0535 -251.0254,-115.0547 v 0 z m 1.2695,267.64261 a 64.039703,64.039703 0 0 0 -64.0391,64.03907 64.039703,64.039703 0 0 0 64.0391,64.03906 64.039703,64.039703 0 0 0 64.0391,-64.03906 64.039703,64.039703 0 0 0 -64.0391,-64.03907 z" style="opacity:0.6;fill:#000000;fill-opacity:1;stroke:none;stroke-width:7.30411;stroke-linecap:round" id="path1522"/></clipPath><linearGradient gradientUnits="userSpaceOnUse" y2="-747.18848" x2="-1513.6584" y1="-1084.9624" x1="-1391.3877" id="linearGradient1802" xlink:href="#linearGradient1800"/></defs><g transform="translate(36.976671,48.364974)" id="layer1"><g id="g1816"><g id="g1766" transform="matrix(0.94244666,0,0,0.94244666,7.6911107,0.57748139)"><path transform="matrix(0.26458333,0,0,0.26458333,451.52115,254.17212)" clip-path="url(#clipPath1516)" id="path1454" style="opacity:1;fill:url(#linearGradient1802);fill-opacity:1;stroke:none;stroke-width:37.4256;stroke-linecap:round" d="m -1181.4061,-815.19329 a 328.13261,328.13261 0 0 1 -328.1326,328.13262 328.13261,328.13261 0 0 1 -328.1326,-328.13262 328.13261,328.13261 0 0 1 328.1326,-328.13261 328.13261,328.13261 0 0 1 328.1326,328.13261"/><path transform="matrix(0.26458333,0,0,0.26458333,451.52115,254.17212)" clip-path="url(#clipPath1512)" id="path1456" style="opacity:1;fill:url(#linearGradient1474);fill-opacity:1;stroke:none;stroke-width:35.2305;stroke-linecap:round" d="m -1215.8746,-787.2432 c 0,170.59363 -138.2935,308.8871 -308.8871,308.8871 -170.5936,0 -310.3013,-77.00297 -310.3013,-247.5966 0,-170.59363 49.3056,80.39653 219.8992,80.39653 170.5936,0 399.2892,-312.28066 399.2892,-141.68703"/><path transform="matrix(0.26458333,0,0,0.26458333,451.52115,254.17212)" clip-path="url(#clipPath1524)" id="path1458" style="opacity:1;fill:url(#linearGradient1472);fill-opacity:1;stroke:none;stroke-width:30.0813;stroke-linecap:round" d="m -1359.1727,-829.88252 c 0,145.65991 -118.0807,263.7406 -263.7406,263.7406 -145.6599,0 -263.7406,-118.08069 -263.7406,-263.7406 0,-145.65992 118.0807,-268.52578 263.7406,-268.52578 145.6599,0 263.7406,122.86586 263.7406,268.52578"/><path transform="matrix(0.26458333,0,0,0.26458333,451.52115,254.17212)" clip-path="url(#clipPath1508)" id="path1460" style="opacity:1;fill:url(#linearGradient1470);fill-opacity:1;stroke:none;stroke-width:2;stroke-linecap:round" d="m -1215.6967,-630.41025 a 163.50096,163.50096 0 0 1 -163.5009,163.50096 163.50096,163.50096 0 0 1 -163.501,-163.50096 163.50096,163.50096 0 0 1 163.501,-163.50096 163.50096,163.50096 0 0 1 163.5009,163.50096 z"/><path transform="matrix(0.26458333,0,0,0.26458333,451.52115,254.17212)" clip-path="url(#clipPath1520)" id="path1462" style="opacity:1;fill:url(#linearGradient1468);fill-opacity:1;stroke:none;stroke-width:23.2204;stroke-linecap:round" d="m -1397.0824,-966.63987 c 0,112.43854 -17.1977,60.98991 -129.6362,60.98993 -7.4131,0 -88.6855,133.60924 -95.8935,132.83685 -102.1197,-10.94295 -181.6463,-97.39394 -181.6463,-202.41937 0,-112.43854 91.1495,-203.58794 203.588,-203.58794 112.4385,0 203.588,99.742 203.588,212.18053"/><path clip-path="none" id="path1464" style="opacity:1;fill:#faad26;fill-opacity:1;stroke:#faad26;stroke-width:0.396875;stroke-linecap:round;stroke-opacity:1" d="M 68.118486,39.392408 A 17.086105,17.086105 0 0 1 51.032355,56.478512 17.086105,17.086105 0 0 1 33.946252,39.392408 17.086105,17.086105 0 0 1 51.032355,22.306305 17.086105,17.086105 0 0 1 68.118486,39.392408"/><path clip-path="none" id="path1466" style="opacity:1;fill:#51023d;fill-opacity:1;stroke:none;stroke-width:3.12134;stroke-linecap:round" d="M 124.4736,1.2647746 A 27.366656,27.366656 0 0 1 97.106926,28.631431 27.366656,27.366656 0 0 1 69.740276,1.2647746 27.366656,27.366656 0 0 1 97.106926,-26.101878 27.366656,27.366656 0 0 1 124.4736,1.2647746"/></g></g></g><g style="display:inline" id="layer4"/></svg>
