<svg width="240" height="240" viewBox="0 0 240 240" fill="none" xmlns="http://www.w3.org/2000/svg">
<path d="M120.439 221.112C120.439 226.76 115.863 231.387 110.255 230.869C99.1658 229.845 88.2736 227.152 77.9494 222.863C64.4786 217.268 52.2387 209.067 41.9286 198.728C31.6185 188.39 23.4401 176.116 17.8603 162.607C12.2806 149.099 9.40869 134.621 9.40869 120C9.40869 105.379 12.2806 90.9007 17.8603 77.3924C23.4401 63.8842 31.6185 51.6103 41.9286 41.2715C52.2387 30.9328 64.4786 22.7316 77.9494 17.1363C88.2736 12.848 99.1658 10.1547 110.255 9.13048C115.863 8.61246 120.439 13.2396 120.439 18.8874V66.7359C91.1033 66.7361 67.3223 90.5833 67.3223 120C67.3223 149.417 91.1027 173.264 120.438 173.265V66.7361C149.773 66.7361 173.554 90.5833 173.554 120C173.554 149.417 149.774 173.264 120.439 173.265V221.112Z" fill="#38318B"/>
<path d="M120.32 173.236L120.318 66.7637C149.72 66.7637 173.555 90.5984 173.555 120C173.555 149.401 149.721 173.236 120.32 173.236Z" fill="#DF6552"/>
</svg>
