<svg width="201" height="173" viewBox="0 0 201 173" fill="none" xmlns="http://www.w3.org/2000/svg"><path opacity="0.9" fill-rule="evenodd" clip-rule="evenodd" d="M172.142 109.848C173.213 108.689 173.781 107.153 173.719 105.576C173.39 100.877 166.849 101.912 165.576 104.283C164.303 106.655 164.458 112.685 166.099 113.093C166.746 113.261 168.155 112.847 169.576 111.994L168.685 118.308H173.952L172.142 109.848Z" fill="#F2E2D4"/><path fill-rule="evenodd" clip-rule="evenodd" d="M168.581 101.55C169.279 101.433 171.166 101.356 171.49 101.356C171.709 101.356 171.949 101.407 172.084 101.201C172.22 100.994 172.149 100.755 172.181 100.554C172.213 100.354 172.272 100.108 172.323 99.908C172.473 99.2833 172.71 98.6828 173.028 98.1242C173.61 97.081 174.518 96.2571 175.613 95.7782C176.863 95.2793 178.217 95.093 179.555 95.2353C180.933 95.4141 182.285 95.7569 183.582 96.2564C184.846 96.6919 186.194 96.8226 187.518 96.6377C188.856 96.4309 189.87 95.7006 191.001 95.0155C192.148 94.2567 193.506 93.8831 194.879 93.9491C196.144 94.0854 197.352 94.5438 198.389 95.2805C199.39 95.8913 200.182 96.7932 200.657 97.8657C200.929 98.4367 201.043 99.0703 200.986 99.7002C200.929 100.33 200.704 100.933 200.334 101.446C199.158 102.984 196.96 103.385 195.164 103.34C194.112 103.316 193.071 103.124 192.081 102.771C190.798 102.227 189.556 101.592 188.365 100.871C187.785 100.57 187.177 100.327 186.548 100.147C186.264 100.031 185.956 99.9806 185.65 100.001C185.343 100.021 185.045 100.111 184.778 100.263C184.225 100.677 183.624 101.02 182.987 101.285C182.345 101.527 181.664 101.65 180.977 101.647C179.641 101.544 178.318 101.308 177.028 100.942C175.966 100.643 174.853 100.564 173.758 100.709C173.312 100.8 172.653 100.987 172.466 101.453C175.199 101.95 176.272 105.33 175.503 107.812C175.09 109.157 172.588 110.721 171.625 110.016C170.979 109.57 171.386 108.982 171.625 108.601C172.091 107.858 172.272 106.907 171.393 106.39C170.649 105.944 169.874 107.004 169.854 106.998C168.636 106.414 167.556 105.577 166.688 104.542C165.492 104.613 165.311 103.825 165.595 103.178C165.88 102.532 167.625 101.685 168.581 101.55Z" fill="#191847"/><path fill-rule="evenodd" clip-rule="evenodd" d="M149.195 141.952C147.729 139.964 144.064 141.28 144.066 142.926C144.072 147.248 148.016 167.766 148.222 169.062C148.428 170.357 150.634 170.781 150.762 169.162C150.967 166.587 151.347 157.659 150.967 153.505C150.856 152.292 150.739 151.119 150.621 150.02C152.694 153.744 155.846 159.007 160.077 165.81L162.428 164.736C160.582 158.652 159.067 154.356 157.886 151.85C155.862 147.558 153.965 143.883 153.166 142.589C152.111 140.879 150.4 141.106 149.195 141.952Z" fill="#B28B67"/><path fill-rule="evenodd" clip-rule="evenodd" d="M162.26 161.357L154.189 142.237C152.255 139.126 146.834 142.869 147.493 144.673C148.99 148.769 156.604 162.029 157.05 163.249L162.26 161.357Z" fill="url(#paint0_linear)"/><path fill-rule="evenodd" clip-rule="evenodd" d="M143.862 144.419C143.862 149.839 146.238 162.578 146.239 163.772L151.994 163.578C150.988 152.501 150.564 146.926 150.721 146.851C151.076 146.682 165.249 148.812 169.5 148.973C175.63 149.205 178.166 145.445 178.371 138.308H166.498C156.345 139.52 149.672 140.363 146.479 140.837C144.429 141.142 143.862 142.926 143.862 144.419Z" fill="url(#paint1_linear)"/><g opacity="0.9"><path fill-rule="evenodd" clip-rule="evenodd" d="M162.747 164.137C163.116 164.673 163.337 165.088 163.41 165.382C163.499 165.739 163.57 166.275 163.622 166.99C163.207 167.094 159.482 168.023 152.447 169.777C151.917 168.889 151.955 168.329 152.562 168.096C153.169 167.864 153.671 167.665 154.07 167.5L158.686 163.89C158.775 163.82 158.903 163.836 158.973 163.925C158.974 163.926 158.975 163.928 158.976 163.929L159.512 164.656C160.159 164.782 160.663 164.8 161.025 164.709C161.319 164.636 161.696 164.416 162.155 164.049L162.155 164.049C162.331 163.908 162.588 163.937 162.729 164.113C162.735 164.121 162.741 164.128 162.747 164.137Z" fill="url(#paint2_linear)"/></g><g opacity="0.9"><path fill-rule="evenodd" clip-rule="evenodd" d="M151.075 166.11C151.303 166.72 151.417 167.176 151.417 167.479C151.417 167.847 151.356 168.385 151.233 169.091C150.806 169.091 146.967 169.091 139.716 169.091C139.417 168.102 139.59 167.567 140.235 167.489C140.879 167.41 141.415 167.338 141.842 167.275L147.195 164.888C147.298 164.843 147.418 164.889 147.464 164.992C147.465 164.994 147.466 164.995 147.466 164.997L147.811 165.832C148.408 166.11 148.893 166.25 149.266 166.25C149.569 166.25 149.988 166.127 150.522 165.882L150.522 165.882C150.727 165.788 150.97 165.878 151.063 166.083C151.068 166.092 151.071 166.101 151.075 166.11Z" fill="url(#paint3_linear)"/></g><path d="M141.105 169.091H150.498C150.893 169.091 151.213 169.411 151.213 169.806C151.213 170.2 150.893 170.52 150.498 170.52H141.105C140.711 170.52 140.391 170.2 140.391 169.806C140.391 169.411 140.711 169.091 141.105 169.091Z" fill="#2F3676"/><path fill-rule="evenodd" clip-rule="evenodd" d="M178.984 139.482H157.135C156.007 139.482 155.093 140.397 155.093 141.524V151.53H180.209C180.66 151.53 181.026 151.164 181.026 150.713V141.524C181.026 140.397 180.112 139.482 178.984 139.482Z" fill="url(#paint4_linear)"/><path fill-rule="evenodd" clip-rule="evenodd" d="M157.135 139.482H156.687C155.687 139.482 154.834 140.207 154.672 141.194L150.192 168.478H152.374" fill="url(#paint5_linear)"/><path d="M151.213 172.562C149.183 172.562 147.538 170.917 147.538 168.887C147.538 166.857 149.183 165.211 151.213 165.211C153.243 165.211 154.889 166.857 154.889 168.887C154.889 170.917 153.243 172.562 151.213 172.562Z" fill="#191847"/><path fill-rule="evenodd" clip-rule="evenodd" d="M178.371 172.154C186.942 172.154 193.89 165.206 193.89 156.635C193.89 148.064 186.942 141.116 178.371 141.116C169.8 141.116 162.852 148.064 162.852 156.635C162.852 165.206 169.8 172.154 178.371 172.154ZM178.371 169.295C171.379 169.295 165.711 163.627 165.711 156.635C165.711 149.643 171.379 143.975 178.371 143.975C185.363 143.975 191.032 149.643 191.032 156.635C191.032 163.627 185.363 169.295 178.371 169.295Z" fill="url(#paint6_linear)"/><path d="M177.555 143.158H179.188V170.112H177.555V143.158Z" fill="url(#paint7_linear)"/><path d="M168.553 147.394L169.131 146.817C169.29 146.657 169.549 146.657 169.708 146.817L188.19 165.298C188.349 165.458 188.349 165.716 188.19 165.876L187.612 166.454C187.453 166.613 187.194 166.613 187.035 166.454L168.553 147.972C168.393 147.812 168.393 147.554 168.553 147.394Z" fill="url(#paint8_linear)"/><path d="M164.894 157.043V156.227C164.894 156.001 165.077 155.818 165.303 155.818H191.44C191.666 155.818 191.848 156.001 191.848 156.227V157.043C191.848 157.269 191.666 157.452 191.44 157.452H165.303C165.077 157.452 164.894 157.269 164.894 157.043Z" fill="url(#paint9_linear)"/><path d="M169.13 166.454L168.553 165.876C168.393 165.717 168.393 165.458 168.553 165.298L187.035 146.817C187.194 146.657 187.453 146.657 187.612 146.817L188.19 147.394C188.349 147.554 188.349 147.812 188.19 147.972L169.708 166.454C169.549 166.613 169.29 166.613 169.13 166.454Z" fill="url(#paint10_linear)"/><path opacity="0.9" fill-rule="evenodd" clip-rule="evenodd" d="M187.679 131.486L183.155 132.378C187.679 140.81 190.105 145.28 190.433 145.789C191.176 146.926 190.484 149.02 190.226 150.113C191.829 150.481 191.195 148.077 193.218 148.581C195.067 149.04 196.631 150.216 198.35 148.633C198.563 148.432 198.718 147.825 197.994 147.515C196.198 146.733 193.541 145.278 193.115 144.71C192.546 143.934 190.734 139.526 187.679 131.486ZM155.506 130.523L147.551 127.027C146.354 125.793 144.995 124.727 143.511 123.86C143.123 123.737 142.458 123.698 143.169 124.732C143.88 125.767 144.571 126.885 144.287 127.247C144.002 127.608 143.188 127.208 142.865 127.796C142.652 128.19 144.028 128.662 147.008 129.205L152.967 133.774L155.506 130.523Z" fill="#F4E5D9"/><path fill-rule="evenodd" clip-rule="evenodd" d="M170.947 114.644L169.046 114.321C164.91 118.334 163.23 127.97 160.47 129.25C157.885 130.459 154.169 129.289 149.774 127.712L148.429 130.717C152.417 135.034 160.922 138.68 164.367 136.599C169.874 133.27 171.147 121.378 170.947 114.644Z" fill="url(#paint11_linear)"/><path fill-rule="evenodd" clip-rule="evenodd" d="M179.226 138.524H162.422C161.653 138.524 161.776 137.419 161.911 136.857C163.204 130.394 168.193 123.44 168.193 114.236L173.041 113.474C177.054 119.924 178.431 127.861 179.226 138.524Z" fill="#DDE3E9"/><path fill-rule="evenodd" clip-rule="evenodd" d="M180.932 131.977C184.357 138.156 187.238 142.603 189.573 145.317L193.095 144.632C190.829 130.564 184.258 120.178 173.383 113.474H171.444C167.093 128.304 165.893 138.188 167.844 143.126H182.974C182.68 139.349 181.995 135.613 180.932 131.977V131.977Z" fill="url(#paint12_linear)"/><path opacity="0.9" fill-rule="evenodd" clip-rule="evenodd" d="M143.556 10.4211C142.91 13.0063 142.063 18.8683 142.91 19.786H148.365V19.7537C149.394 19.5874 150.327 19.0511 150.989 18.2454C151.651 17.4397 151.995 16.4201 151.958 15.3782V11.0803C152.004 9.9638 151.606 8.8745 150.852 8.05C150.098 7.2255 149.048 6.73268 147.932 6.67902H147.557C146.551 6.71439 145.591 7.11283 144.856 7.80069C144.12 8.48856 143.659 9.41937 143.556 10.4211V10.4211Z" fill="url(#paint13_linear)"/><path opacity="0.9" fill-rule="evenodd" clip-rule="evenodd" d="M149.858 14.5575C150.791 13.4393 151.271 12.0117 151.202 10.5569C150.918 6.17498 145.314 7.13797 144.229 9.34832C143.143 11.5587 143.266 17.1686 144.674 17.5628C145.237 17.7244 146.432 17.3366 147.647 16.5352L146.885 22.423H151.409L149.858 14.5575Z" fill="#F9F1E3"/><path opacity="0.9" fill-rule="evenodd" clip-rule="evenodd" d="M158.673 59.5207C154.903 60.7813 150.969 61.4867 146.995 61.6147C143.677 61.586 140.465 60.4485 137.869 58.3832C142.285 56.9743 145.922 56.2698 148.779 56.2698C151.635 56.2698 154.934 57.3534 158.673 59.5207Z" fill="#5A8395"/><path fill-rule="evenodd" clip-rule="evenodd" d="M143.26 60.7579C143.305 60.6954 143.341 60.6282 143.368 60.558C143.969 59.0215 153.514 42.4688 154.466 39.4244H143.713C142.991 41.7091 139.739 56.1656 139.279 59.0443C137.835 63.6138 134.858 78.3102 134.475 79.3268C134.091 80.3435 136.327 81.5202 136.922 80.2008C138.552 76.4519 139.967 72.6316 141.164 68.7544C142.11 65.4472 142.883 62.4714 143.26 60.7579Z" fill="#FFF3DD"/><path fill-rule="evenodd" clip-rule="evenodd" d="M150.731 65.9846C154.291 67.2067 167.296 69.4168 168.191 69.7678C169.086 70.1188 169.914 67.5447 168.779 66.9922C165.575 65.4956 162.303 64.2345 158.98 63.2155C156.55 62.5655 154.338 61.9934 152.849 61.6749C152.974 55.9936 153.552 42.369 153.172 39.4244H145.418C145.782 42.2455 148.842 62.8255 149.409 64.9056C149.504 65.2416 149.685 65.5292 149.924 65.7242C150.163 65.9192 150.447 66.0107 150.731 65.9846V65.9846Z" fill="#FFF3DD"/><path opacity="0.9" fill-rule="evenodd" clip-rule="evenodd" d="M167.831 66.1387C168.254 66.0327 168.691 66 169.124 66.0418C169.612 66.1567 170.089 66.3102 170.552 66.5007C170.488 66.9315 169.874 70.7232 168.71 77.8756C167.767 77.9984 167.308 77.7334 167.34 77.0871C167.373 76.4408 167.392 75.8914 167.405 75.4584L166.112 69.758C166.098 69.7075 166.105 69.6534 166.13 69.6075C166.155 69.5616 166.198 69.5274 166.248 69.5124V69.5124L167.056 69.3185C167.36 68.9094 167.58 68.4435 167.702 67.9484C167.737 67.5128 167.691 67.0745 167.566 66.6558C167.54 66.553 167.553 66.4438 167.603 66.3503C167.653 66.2568 167.737 66.1858 167.838 66.1517L167.831 66.1387Z" fill="#730943"/><path opacity="0.9" fill-rule="evenodd" clip-rule="evenodd" d="M137.365 80.2152C137.54 80.653 137.647 81.1151 137.682 81.5854C137.664 82.1273 137.607 82.6672 137.514 83.2011H126.901C126.63 82.2123 126.785 81.6759 127.38 81.5983L128.86 81.385L133.791 78.9873C133.814 78.9768 133.839 78.9711 133.865 78.9707C133.89 78.9702 133.916 78.975 133.939 78.9847C133.963 78.9943 133.984 79.0087 134.002 79.027C134.02 79.0452 134.034 79.0669 134.043 79.0907V79.0907L134.36 79.9309C134.766 80.1697 135.221 80.3153 135.691 80.3574C136.101 80.3194 136.497 80.1938 136.854 79.989V79.989C136.9 79.9669 136.949 79.9546 137 79.9529C137.05 79.9511 137.101 79.96 137.148 79.9789C137.194 79.9977 137.237 80.0262 137.272 80.0625C137.307 80.0987 137.334 80.142 137.352 80.1894C137.352 80.1894 137.365 80.2023 137.365 80.2152Z" fill="#730943"/><path fill-rule="evenodd" clip-rule="evenodd" d="M154.99 39.4401C151.085 38.1158 146.853 38.1158 142.949 39.4401C141.656 45.9806 138.425 48.5723 137.869 58.5964C144.267 62.0606 152.165 56.134 158.751 59.5077C160.632 54.7897 157.995 43.4213 154.99 39.4401Z" fill="url(#paint14_linear)"/><path opacity="0.9" fill-rule="evenodd" clip-rule="evenodd" d="M161.973 38.084L158.742 37.1145C157.302 48.974 157.17 49.1585 157.085 49.7083C156.891 50.9466 155.218 52.0636 154.408 52.7072C155.222 53.901 156.228 51.7906 157.246 53.2973C158.168 54.6695 158.481 56.3906 160.54 56.2282C160.647 56.2105 160.749 56.166 160.834 56.0987C160.92 56.0313 160.987 55.9435 161.03 55.8432C161.073 55.7429 161.089 55.6335 161.078 55.5251C161.067 55.4167 161.029 55.3128 160.967 55.2231C160.262 53.6466 159.404 51.0968 159.457 50.4453C159.521 49.5782 159.696 48.7814 161.973 38.084ZM140.921 27.8621L134.969 23.2874C134.25 21.9645 133.342 20.7532 132.274 19.6918C131.969 19.5219 131.415 19.3611 131.775 20.4275C132.136 21.4939 132.469 22.6343 132.144 22.912C131.82 23.1897 131.214 22.6823 130.799 23.1613C130.525 23.4817 131.585 24.1542 133.993 25.1706L137.996 30.3611L140.921 27.8621Z" fill="#FFF0D5"/><path fill-rule="evenodd" clip-rule="evenodd" d="M159.895 31.7154L157.731 29.3064C151.874 32.9229 145.798 32.2065 140.942 23.7037L133.234 28.1492C137.958 35.9484 145.601 40.0317 153.939 35.5169C156.044 34.4338 158.035 33.1624 159.895 31.7154Z" fill="url(#paint15_linear)"/><path fill-rule="evenodd" clip-rule="evenodd" d="M150.381 17.9441L145.495 19.1591C145.495 28.3108 142.82 34.1469 141.443 40.8749H154.64C154.828 43.1951 154.938 45.5864 155.002 48.0359H164.878C162.655 35.0711 157.93 25.0383 150.704 17.9376H150.381V17.9441Z" fill="url(#paint16_linear)"/><path opacity="0.1" fill-rule="evenodd" clip-rule="evenodd" d="M152.559 27.8196C152.896 33.52 152.695 37.8717 151.958 40.8749H154.641C154.325 36.4712 153.629 32.1031 152.559 27.8196Z" fill="black"/><path fill-rule="evenodd" clip-rule="evenodd" d="M30.8608 87.9838C30.3424 87.4269 29.9391 86.7731 29.6741 86.0599C29.409 85.3468 29.2874 84.5883 29.3162 83.828C29.6393 79.2522 36.0054 80.2605 37.2463 82.5354C38.4872 84.8104 38.3321 90.6982 36.7357 91.1119C36.0894 91.2734 34.7386 90.8727 33.3556 90.039L34.2216 96.1789H29.0964L30.8608 87.9838Z" fill="#B28B67"/><path d="M36.9103 81.65C36.865 81.3656 36.9555 81.2299 35.831 80.4479C34.7064 79.6659 32.9032 78.7352 31.0742 79.1553C28.7087 79.6788 27.7716 81.2428 26.8603 81.999C25.949 82.7552 25.2122 82.7616 24.721 83.6148C24.2299 84.4679 23.9713 86.9044 24.3979 87.8739C24.986 89.2117 26.1429 89.5737 26.9831 89.9614C28.1422 90.3651 29.4118 90.3096 30.5313 89.8063C31.5387 88.143 32.7818 86.6344 34.2217 85.3275C35.133 84.5519 37.1171 82.9814 36.9103 81.65Z" fill="url(#paint17_linear)"/><path opacity="0.2" fill-rule="evenodd" clip-rule="evenodd" d="M25.8908 82.3997C26.5156 85.0108 28.1529 87.4796 30.8027 89.8063C27.7393 87.9579 25.8154 85.5731 25.0312 82.6518L25.8908 82.3997ZM26.8409 81.469C27.2353 83.9257 28.2822 86.2314 29.872 88.1453C27.9177 86.5915 26.5816 84.3915 26.1041 81.9408L26.8409 81.469Z" fill="black"/><path fill-rule="evenodd" clip-rule="evenodd" d="M148.617 13.8207C148.41 16.2508 148.494 19.0299 149.115 19.6891H154.569C154.873 13.9371 151.939 16.1668 151.939 10.7573C151.752 10.5569 152.017 10.4017 151.848 10.2337L151.525 9.26423C150.608 7.19607 149.263 6.88592 147.841 6.88592C147.128 6.83619 146.416 7.00417 145.799 7.36767C145.183 7.73116 144.692 8.27306 144.39 8.92177C144.823 10.5569 146.523 10.8025 148.035 11.8172C148.213 11.6587 148.443 11.5713 148.682 11.5716C148.959 11.6014 149.216 11.7327 149.402 11.9403C149.589 12.1479 149.692 12.4171 149.692 12.6962C149.692 12.9752 149.589 13.2444 149.402 13.452C149.216 13.6596 148.959 13.7909 148.682 13.8207H148.617Z" fill="url(#paint18_linear)"/><path fill-rule="evenodd" clip-rule="evenodd" d="M27.8103 113.952L43.6899 140.496L55.5948 162.942H58.1606L38.2158 113.952H27.8103Z" fill="#997659"/><path fill-rule="evenodd" clip-rule="evenodd" d="M54.0243 161.901C53.8289 162.357 53.7089 162.842 53.6688 163.336C53.6882 163.903 53.7531 164.467 53.8627 165.023H65.8904C66.2071 163.989 66.0261 163.426 65.3539 163.349C64.6818 163.271 64.1131 163.187 63.6671 163.123L58.0701 160.628C58.0447 160.616 58.0171 160.609 57.989 160.608C57.9609 160.607 57.9329 160.611 57.9064 160.621C57.88 160.63 57.8557 160.645 57.835 160.664C57.8143 160.683 57.7976 160.706 57.7858 160.731L57.4238 161.604C56.9512 161.854 56.4319 162.004 55.8986 162.043C55.4461 162.002 55.0067 161.87 54.606 161.656C54.5021 161.609 54.3843 161.606 54.2779 161.646C54.1715 161.686 54.0851 161.766 54.0372 161.869C54.0368 161.881 54.0322 161.892 54.0243 161.901Z" fill="url(#paint19_linear)"/><path fill-rule="evenodd" clip-rule="evenodd" d="M52.3181 159.348L57.2688 157.849C55.1144 151.386 52.4581 144.259 49.2999 136.469C46.1416 128.679 42.755 121.178 39.14 113.965H25.1735C28.8923 122.541 33.1536 130.872 37.9314 138.906C42.2177 146.065 47.0263 152.897 52.3181 159.348V159.348Z" fill="url(#paint20_linear)"/><path fill-rule="evenodd" clip-rule="evenodd" d="M26.7698 113.965C25.2704 123.298 22.3814 135.215 22.11 135.577C21.929 135.823 15.382 138.018 2.46887 142.163L3.02469 144.425C18.4196 142.202 26.5307 140.478 27.3579 139.255C28.6053 137.413 34.8098 122.89 37.214 113.965H26.7698Z" fill="#B28B67"/><path fill-rule="evenodd" clip-rule="evenodd" d="M7.00586 140.192L7.98178 143.837C19.4989 144.845 26.5543 144.115 29.1481 141.646C31.742 139.177 34.702 129.95 38.0283 113.965H24.708C22.6097 127.059 21.4335 133.882 21.1792 134.433C20.925 134.985 16.2006 136.904 7.00586 140.192Z" fill="url(#paint21_linear)"/><path fill-rule="evenodd" clip-rule="evenodd" d="M3.10225 141.207C2.62004 141.092 2.12222 141.057 1.62868 141.103C1.07383 141.219 0.529172 141.379 0 141.582L2.09402 153.454C3.16688 153.583 3.68392 153.305 3.6516 152.627C3.61929 151.948 3.59344 151.386 3.58051 150.934L5.067 144.981C5.07745 144.926 5.0674 144.87 5.03879 144.822C5.01018 144.775 4.965 144.739 4.91189 144.723L3.98768 144.522C3.65955 144.1 3.42393 143.613 3.29614 143.094C3.25267 142.636 3.30325 142.174 3.44479 141.737C3.45941 141.682 3.46314 141.626 3.45577 141.57C3.4484 141.514 3.43007 141.46 3.40184 141.412C3.3736 141.363 3.33602 141.32 3.29126 141.286C3.2465 141.252 3.19544 141.227 3.14102 141.213L3.10225 141.207Z" fill="url(#paint22_linear)"/><path fill-rule="evenodd" clip-rule="evenodd" d="M28.476 91.9908C28.5212 91.8292 28.5729 91.6677 28.6246 91.4996L28.8185 91.5901L28.9026 91.4996L34.8679 92.4432C34.8679 95.804 37.5436 98.9515 39.2369 101.659C41.8674 105.867 46.553 110.533 43.5477 116.783C40.8419 122.419 33.7951 123.334 22.4072 119.53C22.4072 116.499 24.9019 113.448 24.9924 109.758C25.0765 106.242 25.7357 95.5972 28.476 91.9908Z" fill="url(#paint23_linear)"/><path fill-rule="evenodd" clip-rule="evenodd" d="M41.4085 104.18C41.7686 104.172 42.1239 104.265 42.4344 104.447C42.7449 104.63 42.9984 104.895 43.1664 105.214C43.6511 105.899 44.1165 109.15 43.3344 109.15C42.5524 109.15 39.2627 107.896 39.2627 107.05C39.2627 106.203 41.5054 105.848 41.5054 105.214C41.5054 104.581 40.5812 104.18 41.4085 104.18ZM35.902 115.167C36.3027 113.108 36.5634 111.731 36.684 111.037C39.8681 114.635 41.7079 116.455 42.2034 116.499C43.1341 116.576 43.8256 115.749 44.0195 115.982C44.3427 116.944 43.4314 119.349 41.6799 119.704C40.8462 119.866 39.5536 118.147 39.0236 117.539C38.0298 116.695 36.9875 115.909 35.902 115.187V115.167Z" fill="#B28B67"/><path opacity="0.2" fill-rule="evenodd" clip-rule="evenodd" d="M34.2217 118.328C34.1764 118.502 34.1247 118.683 34.073 118.864C24.7275 112.323 24.7211 104.4 27.5066 95.5132C25.4061 104.271 26.2657 111.638 34.2217 118.328Z" fill="black"/><path fill-rule="evenodd" clip-rule="evenodd" d="M101.773 10.2531C102.745 9.20112 103.261 7.80679 103.208 6.37531C102.911 2.0968 96.9581 3.0404 95.8012 5.19258C94.6443 7.34476 94.78 12.8189 96.2665 13.2067C96.8611 13.3554 98.1344 12.9805 99.427 12.1985L98.6126 17.9441H103.408L101.773 10.2531Z" fill="#B28B67"/><path fill-rule="evenodd" clip-rule="evenodd" d="M93.6814 2.2002C93.7263 2.02442 93.8169 1.86366 93.944 1.73425C94.0712 1.60484 94.2303 1.5114 94.4052 1.46341C94.4928 1.44754 94.5826 1.44754 94.6702 1.46341C94.7025 1.46341 94.7155 1.46341 94.7284 1.46341C94.7313 1.43764 94.7313 1.41162 94.7284 1.38586C94.7418 1.3245 94.759 1.26406 94.7801 1.20489C94.8585 1.00631 94.9799 0.827542 95.1356 0.681387C95.4243 0.393593 95.803 0.2134 96.2084 0.17081C96.4278 0.154995 96.6481 0.185832 96.8547 0.261292C96.9629 0.297662 97.0687 0.340836 97.1714 0.390553C97.2186 0.427784 97.2709 0.458239 97.3265 0.481035C97.3653 0.481035 97.4299 0.390552 97.4558 0.371163C97.7972 0.11923 98.2145 -0.00846643 98.6385 0.00923496C99.1071 -0.0343081 99.577 0.0769324 99.9764 0.325922C100.06 0.387558 100.14 0.454478 100.215 0.526275L100.332 0.64261L100.403 0.720166C100.435 0.765408 100.403 0.778334 100.48 0.720166C100.674 0.601407 100.901 0.551311 101.127 0.577979C101.259 0.595631 101.387 0.632654 101.508 0.687851C101.553 0.687851 101.65 0.771871 101.689 0.778334C101.728 0.784797 101.831 0.70724 101.876 0.694314C102.122 0.603263 102.387 0.578737 102.646 0.62322C102.915 0.669985 103.172 0.771138 103.402 0.920519C103.509 0.98689 103.603 1.07231 103.68 1.17258C103.71 1.22049 103.745 1.26588 103.783 1.3083C103.783 1.3083 103.848 1.36 103.854 1.39232C103.957 1.33366 104.065 1.286 104.177 1.25013C104.325 1.2081 104.482 1.2081 104.63 1.25013C104.902 1.35889 105.143 1.53185 105.334 1.75425C105.435 1.86274 105.524 1.98193 105.599 2.10971C105.638 2.1687 105.67 2.2315 105.696 2.29714C105.707 2.33115 105.722 2.3637 105.741 2.39409C105.761 2.42175 105.792 2.44034 105.825 2.44579C106.053 2.52285 106.256 2.6589 106.414 2.84003C106.574 3.02341 106.681 3.24679 106.724 3.48634C106.72 3.51207 106.72 3.53816 106.724 3.56389C106.724 3.56389 106.782 3.56389 106.801 3.56389H106.976C107.084 3.5892 107.188 3.6283 107.286 3.68023C107.475 3.77813 107.644 3.91244 107.781 4.07546C107.919 4.23848 108.023 4.42702 108.087 4.63029C108.225 5.05216 108.213 5.50841 108.055 5.92289C108.028 5.99 107.996 6.05484 107.958 6.11678C107.958 6.15556 107.926 6.15556 107.958 6.19434C107.977 6.23868 107.999 6.28185 108.023 6.3236C108.191 6.70271 108.249 7.12153 108.191 7.53218C108.166 7.64957 108.125 7.76279 108.068 7.86826C108.042 7.92307 108.007 7.97327 107.965 8.01691L107.9 8.088L107.861 8.12678C107.861 8.12678 107.829 8.12678 107.861 8.17848C107.894 8.23019 107.926 8.32067 107.952 8.39176L108.029 8.60504C108.075 8.75129 108.112 8.90022 108.139 9.05099C108.199 9.34481 108.165 9.64993 108.042 9.92349C107.98 10.0392 107.894 10.1405 107.79 10.2208C107.741 10.2608 107.687 10.2935 107.629 10.3177C107.629 10.3177 107.564 10.3177 107.551 10.363C107.542 10.4055 107.542 10.4497 107.551 10.4922C107.616 10.7882 107.616 11.0946 107.551 11.3906C107.461 11.6532 107.289 11.8798 107.06 12.0369C106.765 12.2052 106.426 12.2771 106.088 12.2423C105.751 12.2075 105.433 12.0679 105.179 11.843C105.026 11.9925 104.833 12.0946 104.623 12.137C104.413 12.1794 104.196 12.1604 103.996 12.0821C103.762 12.0203 103.544 11.9085 103.356 11.7546C103.169 11.6007 103.017 11.4082 102.911 11.1902C102.832 11.2698 102.736 11.3302 102.631 11.3666C102.525 11.403 102.412 11.4144 102.302 11.4C102.191 11.3856 102.085 11.3458 101.992 11.2836C101.899 11.2214 101.822 11.1386 101.767 11.0416C101.716 10.9426 101.683 10.8354 101.67 10.7249C101.666 10.6668 101.666 10.6085 101.67 10.5504C101.653 10.4753 101.625 10.4034 101.586 10.3371C101.533 10.2028 101.503 10.061 101.495 9.91703C101.495 9.83947 101.495 9.76192 101.495 9.68436C101.504 9.61789 101.504 9.55049 101.495 9.48401C101.626 9.49819 101.759 9.48273 101.883 9.43877C102 9.39378 102.105 9.32051 102.187 9.22549C102.364 9.02237 102.492 8.78139 102.562 8.52102C102.677 8.25239 102.694 7.9519 102.61 7.67196C102.526 7.39202 102.346 7.15041 102.103 6.98929C101.662 6.85824 101.197 6.83387 100.745 6.91819C100.416 6.98929 100.047 7.71314 100.028 7.78424C100.009 7.85533 100.028 7.87472 99.9828 7.90057C99.9376 7.92642 99.7566 7.85533 99.692 7.80363C99.5905 7.70737 99.5073 7.5935 99.4464 7.46755C99.297 7.20011 99.1799 6.91591 99.0974 6.6209C99.0328 6.39469 98.994 6.16202 98.91 5.97459C98.8355 5.75296 98.6872 5.56361 98.4899 5.43817C98.2623 5.31482 98.0217 5.21727 97.7725 5.14733C97.5335 5.0715 97.3132 4.94595 97.1262 4.77894C97.0862 4.74111 97.0495 4.70004 97.0163 4.65614C97.0163 4.61736 96.9646 4.54627 96.9258 4.52688C96.887 4.50749 96.7707 4.58505 96.719 4.61736C96.4651 4.79058 96.2459 5.00978 96.0727 5.26366C95.9027 5.51043 95.7556 5.77219 95.6332 6.04569C95.5744 6.27634 95.476 6.49502 95.3424 6.69199C95.1057 6.78395 94.8472 6.80418 94.5991 6.75016C94.4317 6.67696 94.2899 6.55543 94.192 6.40115C94.1356 6.28934 94.1196 6.16147 94.1467 6.03922C94.1467 5.96813 94.192 5.9035 94.2049 5.83241C94.2144 5.77346 94.2341 5.7166 94.263 5.66437C94.2895 5.61321 94.3261 5.56793 94.3705 5.53128C94.4149 5.49462 94.4663 5.46734 94.5216 5.45109C94.404 5.34267 94.3076 5.21337 94.2372 5.06977C94.1645 4.91219 94.1165 4.74433 94.095 4.57212C94.0797 4.43793 94.1068 4.30232 94.1726 4.18434C94.263 4.06829 94.3777 3.97344 94.5086 3.90643C94.3276 3.76427 94.1706 3.59409 94.0433 3.40232C93.9025 3.23823 93.7976 3.04653 93.7353 2.83951C93.673 2.63249 93.6546 2.41473 93.6814 2.2002V2.2002Z" fill="url(#paint24_linear)"/><path fill-rule="evenodd" clip-rule="evenodd" d="M106.039 49.238C103.693 48.3073 95.4716 45.4054 91.5033 44.5782C90.3658 44.3455 89.2606 44.1258 88.2201 43.9319C85.1372 43.3437 83.5344 48.9149 86.5074 49.3414C93.914 50.4078 104.41 51.5065 105.308 51.6293C106.562 51.7974 107.519 49.8197 106.039 49.238Z" fill="#B28B67"/><path fill-rule="evenodd" clip-rule="evenodd" d="M97.9728 46.2327C99.1361 46 100.203 45.7932 101.12 45.6316C107.034 44.5976 108.76 41.4307 107.738 34.5217H96.8418C95.0644 35.0323 85.8094 38.9101 81.0138 40.9847C77.834 42.3484 78.8358 47.2732 80.6325 48.5529C80.6333 48.5859 80.6435 48.618 80.6618 48.6454C80.6801 48.6729 80.7058 48.6946 80.7359 48.708C90.4304 52.7216 98.0697 50.6469 100.623 51.2932L101.805 47.5641L97.9728 46.2327Z" fill="url(#paint25_linear)"/><path fill-rule="evenodd" clip-rule="evenodd" d="M105.237 48.6434C105.7 48.6638 106.156 48.7598 106.588 48.9278C107.057 49.1744 107.504 49.4598 107.926 49.7809L102.988 59.9084C101.986 59.7469 101.592 59.3655 101.799 58.7645C102.006 58.1634 102.174 57.6593 102.303 57.2586L102.497 51.5259C102.498 51.4999 102.504 51.4743 102.515 51.4506C102.526 51.427 102.541 51.4058 102.561 51.3883C102.58 51.3708 102.602 51.3573 102.627 51.3488C102.652 51.3402 102.678 51.3367 102.704 51.3385V51.3385L103.589 51.3902C103.992 51.097 104.329 50.7227 104.578 50.2915C104.737 49.8797 104.809 49.4398 104.791 48.9989C104.795 48.892 104.84 48.7908 104.917 48.717C104.995 48.6432 105.098 48.6029 105.205 48.6046L105.237 48.6434Z" fill="#FFC834"/><path fill-rule="evenodd" clip-rule="evenodd" d="M94.1726 46.6916C96.3829 45.7609 104.132 42.8138 107.868 41.9994C108.941 41.7668 109.981 41.5406 110.964 41.3531C113.872 40.765 115.378 46.3749 112.579 46.8079C105.599 47.8808 95.7108 48.9924 94.8641 49.1152C93.6814 49.2768 92.7766 47.2797 94.1726 46.6916Z" fill="#B28B67"/><path fill-rule="evenodd" clip-rule="evenodd" d="M100.791 44.1258C99.7114 43.8996 98.7161 43.6992 97.863 43.5441C92.3694 42.5294 90.7536 39.4465 91.7166 32.7121H101.838C103.492 33.2097 112.082 36.9906 116.541 39.0006C119.488 40.332 118.564 45.134 116.89 46.3813C116.89 46.413 116.882 46.4441 116.866 46.4714C116.85 46.4988 116.827 46.5212 116.8 46.5365C107.81 50.4143 100.7 48.3913 98.3218 49.0506L97.2231 45.4119L100.791 44.1258Z" fill="url(#paint26_linear)"/><path fill-rule="evenodd" clip-rule="evenodd" d="M93.2419 46.5752C92.8084 46.5955 92.3818 46.6917 91.9816 46.8596C91.5424 47.1114 91.1232 47.3966 90.7278 47.7127C90.9001 48.0876 92.4383 51.4634 95.3424 57.8403C96.2795 57.6787 96.635 57.2974 96.454 56.6963C96.273 56.0953 96.105 55.5911 95.9822 55.1904L95.8013 49.4642C95.8013 49.4128 95.7808 49.3635 95.7445 49.3271C95.7081 49.2907 95.6588 49.2703 95.6074 49.2703V49.2703L94.7866 49.322C94.405 49.0667 94.1004 48.7121 93.9056 48.2964C93.7108 47.8806 93.6333 47.4196 93.6814 46.963C93.6822 46.9124 93.673 46.8621 93.6542 46.8151C93.6355 46.7681 93.6075 46.7253 93.572 46.6892C93.5365 46.6531 93.4942 46.6244 93.4475 46.6049C93.4008 46.5853 93.3507 46.5752 93.3001 46.5752H93.2419Z" fill="#FFC834"/><path opacity="0.9" fill-rule="evenodd" clip-rule="evenodd" d="M112.547 32.1304H108.372C110.957 40.4548 112.349 44.869 112.547 45.3731C113.012 46.5235 112.03 48.2685 111.616 49.2057C112.973 49.8132 112.831 47.5576 114.55 48.3526C116.114 49.0829 117.31 50.4078 119.12 49.2897C119.199 49.2208 119.261 49.1335 119.299 49.0355C119.337 48.9375 119.35 48.8317 119.338 48.7273C119.326 48.6229 119.289 48.523 119.229 48.4363C119.17 48.3496 119.09 48.2787 118.997 48.2298C117.53 47.2215 115.41 45.4571 115.119 44.8755C114.736 44.0956 113.878 39.8472 112.547 32.1304ZM87.4316 31.3484L81.7765 36.8678C80.329 37.457 78.968 38.2397 77.7307 39.1945C77.4915 39.4788 77.233 40.0282 78.377 39.7826C79.5209 39.537 80.6713 39.3302 80.8781 39.6921C81.085 40.0541 80.471 40.6099 80.8781 41.0817C81.1367 41.3962 81.9984 40.3923 83.4634 38.0699L89.3447 34.6057L87.4316 31.3484Z" fill="#B28B67"/><path fill-rule="evenodd" clip-rule="evenodd" d="M100.687 14.6156L98.9616 14.3183C95.9886 21.7508 90.7967 28.5003 83.3857 34.567L88.9827 41.366C96.3893 32.725 100.959 23.806 100.687 14.6156Z" fill="url(#paint27_linear)"/><path fill-rule="evenodd" clip-rule="evenodd" d="M108.217 36.3184H92.8347C96.4152 27.658 98.2055 20.2988 98.2055 14.2408L102.846 13.5492C106.465 19.4177 107.493 26.6368 108.217 36.3184Z" fill="#DDE3E9"/><path fill-rule="evenodd" clip-rule="evenodd" d="M102.917 13.5557H102.613L100.959 13.6268L99.8342 16.826C99.7178 20.7383 99.0263 28.6102 97.7595 40.4418H107.842C107.842 41.2626 107.771 42.0835 107.713 42.9172H115.203C114.083 30.2669 109.99 20.4798 102.923 13.5557H102.917Z" fill="url(#paint28_linear)"/><path opacity="0.1" fill-rule="evenodd" clip-rule="evenodd" d="M107.176 29.9782C106.887 35.0711 106.168 38.5826 105.017 40.5129H107.835C107.971 36.9886 107.755 33.4595 107.189 29.9782H107.176Z" fill="black"/><path opacity="0.2" fill-rule="evenodd" clip-rule="evenodd" d="M105.599 34.3214L100.623 32.0141V34.3214H105.599Z" fill="white"/><path fill-rule="evenodd" clip-rule="evenodd" d="M76.1743 70.5383C72.2078 65.6717 69.5315 62.0667 68.1455 59.7234C65.7726 55.724 63.8303 52.1603 63.2252 50.803C61.7807 47.5406 66.8128 46.172 67.9128 47.6689C69.5884 49.9751 73.1011 57.1702 78.4508 69.2543L76.1743 70.5383Z" fill="#FDEDE4"/><path fill-rule="evenodd" clip-rule="evenodd" d="M69.0654 69.0766L60.7732 51.0398C59.018 47.7598 66.7373 45.2506 67.988 46.7592C70.8292 50.1832 77.7938 63.8296 78.6443 64.8756L69.0654 69.0766Z" fill="url(#paint29_linear)"/><path fill-rule="evenodd" clip-rule="evenodd" d="M64.6104 73.8517C63.9146 71.404 61.8289 62.8607 61.4141 58.7823C61.2947 57.6092 61.1793 56.4725 61.0901 55.4065C60.8112 52.2327 66.5674 50.9766 66.6941 54.02C67.0158 61.6118 67.0523 72.3473 67.0842 73.2679C67.1287 74.5549 65.0381 75.4047 64.6104 73.8517Z" fill="#FDEDE4"/><path fill-rule="evenodd" clip-rule="evenodd" d="M63.5431 72.7933C63.394 73.238 63.3159 73.7034 63.3116 74.1724C63.3749 74.6979 63.4798 75.2175 63.6252 75.7265L75.0512 74.4661C75.2748 73.4656 75.0583 72.9613 74.4107 72.9545C73.763 72.9477 73.2266 72.941 72.7991 72.9202L67.2949 71.1757C67.2425 71.1597 67.1859 71.1645 67.1369 71.189C67.0879 71.2136 67.0503 71.2561 67.0318 71.3076L66.7588 72.1608C66.3292 72.4439 65.8475 72.6387 65.3419 72.7338C64.9051 72.7445 64.4705 72.6684 64.0634 72.5099C63.9598 72.4775 63.8477 72.4865 63.7505 72.535C63.6534 72.5835 63.5788 72.6677 63.5424 72.77L63.5431 72.7933Z" fill="#ED8B78"/><path fill-rule="evenodd" clip-rule="evenodd" d="M74.6543 69.6807C74.5043 70.1172 74.4293 70.5759 74.4326 71.0374C74.4968 71.5614 74.6042 72.0791 74.7538 72.5854L86.3403 71.5414C86.5564 70.555 86.3362 70.0557 85.6791 70.037L84.0449 69.9767L78.4548 68.1442C78.4033 68.1269 78.347 68.1305 78.2981 68.1544C78.2493 68.1782 78.2118 68.2203 78.1937 68.2716V68.2716L77.9186 69.1075C77.4848 69.3807 77.0002 69.5634 76.494 69.6447C76.0428 69.6534 75.5944 69.5725 75.1747 69.4067V69.4067C75.0731 69.371 74.9617 69.3763 74.864 69.4214C74.7663 69.4666 74.69 69.548 74.6514 69.6485C74.6514 69.6485 74.6601 69.6737 74.6543 69.6807Z" fill="#ED8B78"/><path fill-rule="evenodd" clip-rule="evenodd" d="M32.2181 57.3685H36.529C33.8662 65.6497 32.4293 70.0403 32.2181 70.5401C31.7399 71.684 32.7481 73.4161 33.1811 74.3533C31.7787 74.9543 31.9273 72.7117 30.15 73.5066C28.5342 74.2305 27.2998 75.5489 25.432 74.4373C25.1993 74.3016 24.9473 73.791 25.5612 73.3838C27.0736 72.3756 29.2646 70.6241 29.5554 70.0489C29.9647 69.2733 30.8523 65.0465 32.2181 57.3685ZM57.4627 57.2069L64.042 61.8667C65.6036 62.2413 67.1079 62.8239 68.5144 63.5988C68.7923 63.8444 69.1607 64.3485 67.9651 64.2451C66.7694 64.1417 65.5544 64.1223 65.3799 64.5036C65.2054 64.8849 65.9292 65.3503 65.5996 65.8738C65.3799 66.2163 64.3522 65.3503 62.5103 63.2886L56.002 60.7034L57.4627 57.2069Z" fill="#FBE8DD"/><path fill-rule="evenodd" clip-rule="evenodd" d="M44.459 39.9442L46.2428 39.6404C52.8545 45.1469 55.5754 55.7268 63.693 61.3303L61.7541 63.6634C47.6647 61.996 44.1811 49.0893 44.459 39.9442Z" fill="#E87613"/><path fill-rule="evenodd" clip-rule="evenodd" d="M43.341 35.6075C42.8449 35.0945 42.4576 34.4867 42.2021 33.8203C41.9467 33.154 41.8285 32.4429 41.8545 31.7297C42.1648 27.4771 48.3176 28.4142 49.5003 30.5599C50.683 32.7056 50.5538 38.154 49.0091 38.5353C48.3951 38.6904 47.0702 38.3155 45.7776 37.54L46.6178 43.2533H41.6671L43.341 35.6075Z" fill="#FCEBE1"/><path fill-rule="evenodd" clip-rule="evenodd" d="M42.9597 36.564C42.3134 33.9012 40.5684 32.0851 40.8398 30.8959C40.9038 30.5331 41.0754 30.1979 41.3325 29.9339C41.5895 29.67 41.9201 29.4895 42.2811 29.4159C42.6818 27.8389 43.9873 27.1732 46.1589 27.4059C49.455 27.7614 51.4715 29.0798 50.599 31.9817C49.804 31.9817 48.8346 31.7038 47.5032 32.1821C47.0766 32.3372 46.7793 32.8284 46.5919 33.591H45.9909C45.4092 32.6539 44.8275 32.2984 44.2588 32.5634C43.69 32.8284 43.5608 33.4101 43.871 34.3666L43.5737 36.564H42.9597Z" fill="url(#paint30_linear)"/><path fill-rule="evenodd" clip-rule="evenodd" d="M60.0523 57.5569C55.3477 61.8363 52.1855 64.6961 50.5657 66.1364C45.9488 70.2376 42.3806 69.6448 37.6625 64.5163L44.6885 55.7605C45.9549 54.8708 51.8281 51.6342 62.3082 46.0506C64.2526 45.1249 66.2007 47.1274 66.6889 47.9749C66.7192 47.9992 68.913 54.0051 73.2703 65.9926L63.1309 69.6233L60.5866 57.9443C60.4065 57.5595 60.2099 57.4431 60.0523 57.5569Z" fill="url(#paint31_linear)"/><path fill-rule="evenodd" clip-rule="evenodd" d="M36.6906 61.5371H52.4603C53.1842 61.5371 53.0484 60.5354 52.945 60.0312C51.7429 54.2145 47.0443 47.8872 47.0443 39.5758L42.5202 38.8843C38.7458 44.7204 37.4532 51.9202 36.6906 61.5371Z" fill="#AB3F31"/><path fill-rule="evenodd" clip-rule="evenodd" d="M36.807 44.6234C36.4714 44.5253 36.1592 44.3602 35.8892 44.1381C35.6193 43.9159 35.3972 43.6413 35.2364 43.3308C33.5754 40.4483 34.183 38.8519 35.9603 38.3478C37.7376 37.8437 39.3211 38.9036 42.1519 38.9036C42.2938 38.893 42.4364 38.893 42.5784 38.9036L44.0003 38.9812C48.0935 52.3381 49.2202 61.2441 47.3804 65.6993H34.9715C34.3478 67.1305 33.6422 68.5245 32.8581 69.8744H29.4779C29.1547 59.9558 31.5978 51.5388 36.807 44.6234Z" fill="#FF9B21"/><path opacity="0.1" fill-rule="evenodd" clip-rule="evenodd" d="M37.673 51.0994C38.0608 54.2447 38.6941 56.5305 39.5731 57.9566H34.9714C35.8246 56.0307 36.7251 53.7449 37.673 51.0994Z" fill="black"/><defs><linearGradient id="paint0_linear" x1="150.611" y1="141.294" x2="158.422" y2="162.754" gradientUnits="userSpaceOnUse"><stop stop-color="#B23D37"/><stop offset="1" stop-color="#69093E"/></linearGradient><linearGradient id="paint1_linear" x1="161.117" y1="138.308" x2="161.117" y2="163.772" gradientUnits="userSpaceOnUse"><stop stop-color="#B23D37"/><stop offset="1" stop-color="#69093E"/></linearGradient><linearGradient id="paint2_linear" x1="157.033" y1="164.284" x2="158.054" y2="168.379" gradientUnits="userSpaceOnUse"><stop stop-color="#26162B"/><stop offset="1" stop-color="#2F0718"/></linearGradient><linearGradient id="paint3_linear" x1="145.496" y1="164.871" x2="145.496" y2="169.091" gradientUnits="userSpaceOnUse"><stop stop-color="#26162B"/><stop offset="1" stop-color="#2F0718"/></linearGradient><linearGradient id="paint4_linear" x1="168.059" y1="139.482" x2="168.059" y2="151.53" gradientUnits="userSpaceOnUse"><stop stop-color="#4E4D79"/><stop offset="1" stop-color="#191847"/></linearGradient><linearGradient id="paint5_linear" x1="153.664" y1="139.482" x2="153.664" y2="168.478" gradientUnits="userSpaceOnUse"><stop stop-color="#4E4D79"/><stop offset="1" stop-color="#191847"/></linearGradient><linearGradient id="paint6_linear" x1="178.371" y1="141.116" x2="178.371" y2="172.154" gradientUnits="userSpaceOnUse"><stop stop-color="#4E4D79"/><stop offset="1" stop-color="#191847"/></linearGradient><linearGradient id="paint7_linear" x1="178.371" y1="143.158" x2="178.371" y2="170.112" gradientUnits="userSpaceOnUse"><stop stop-color="#4E4D79"/><stop offset="1" stop-color="#191847"/></linearGradient><linearGradient id="paint8_linear" x1="168.842" y1="147.105" x2="187.901" y2="166.165" gradientUnits="userSpaceOnUse"><stop stop-color="#4E4D79"/><stop offset="1" stop-color="#191847"/></linearGradient><linearGradient id="paint9_linear" x1="164.894" y1="156.635" x2="191.848" y2="156.635" gradientUnits="userSpaceOnUse"><stop stop-color="#4E4D79"/><stop offset="1" stop-color="#191847"/></linearGradient><linearGradient id="paint10_linear" x1="168.842" y1="166.165" x2="187.901" y2="147.105" gradientUnits="userSpaceOnUse"><stop stop-color="#4E4D79"/><stop offset="1" stop-color="#191847"/></linearGradient><linearGradient id="paint11_linear" x1="159.698" y1="114.321" x2="159.698" y2="137.2" gradientUnits="userSpaceOnUse"><stop stop-color="#FA9C0A"/><stop offset="1" stop-color="#E66836"/></linearGradient><linearGradient id="paint12_linear" x1="180.017" y1="113.474" x2="180.017" y2="145.317" gradientUnits="userSpaceOnUse"><stop stop-color="#FDA403"/><stop offset="1" stop-color="#E76B33"/></linearGradient><linearGradient id="paint13_linear" x1="147.258" y1="6.67902" x2="147.258" y2="19.786" gradientUnits="userSpaceOnUse"><stop offset="0.260417" stop-color="#C04B1F"/><stop offset="1" stop-color="#FFB800"/></linearGradient><linearGradient id="paint14_linear" x1="148.626" y1="38.4469" x2="148.626" y2="59.7265" gradientUnits="userSpaceOnUse"><stop stop-color="#996D99"/><stop offset="1" stop-color="#5FA1B7"/></linearGradient><linearGradient id="paint15_linear" x1="153.901" y1="24.1328" x2="139.066" y2="35.8596" gradientUnits="userSpaceOnUse"><stop stop-color="#640733"/><stop offset="1" stop-color="#810D55"/></linearGradient><linearGradient id="paint16_linear" x1="153.16" y1="17.9376" x2="153.16" y2="48.0359" gradientUnits="userSpaceOnUse"><stop stop-color="#830E57"/><stop offset="1" stop-color="#650733"/></linearGradient><linearGradient id="paint17_linear" x1="30.5538" y1="79.0508" x2="30.5538" y2="90.2286" gradientUnits="userSpaceOnUse"><stop stop-color="#AD4242"/><stop offset="1" stop-color="#49180D"/></linearGradient><linearGradient id="paint18_linear" x1="149.491" y1="6.87737" x2="149.491" y2="19.6891" gradientUnits="userSpaceOnUse"><stop stop-color="#B83505"/><stop offset="1" stop-color="#FFCE49"/></linearGradient><linearGradient id="paint19_linear" x1="59.8553" y1="160.608" x2="59.8553" y2="165.023" gradientUnits="userSpaceOnUse"><stop stop-color="#F35D5B"/><stop offset="1" stop-color="#FD5D38"/></linearGradient><linearGradient id="paint20_linear" x1="41.2211" y1="113.965" x2="41.2211" y2="159.348" gradientUnits="userSpaceOnUse"><stop stop-color="#3AEADD"/><stop offset="1" stop-color="#46D6AC"/></linearGradient><linearGradient id="paint21_linear" x1="22.5171" y1="113.965" x2="22.5171" y2="144.276" gradientUnits="userSpaceOnUse"><stop stop-color="#3AF5EA"/><stop offset="0.875" stop-color="#4CE8BD"/></linearGradient><linearGradient id="paint22_linear" x1="2.53551" y1="141.083" x2="2.53551" y2="153.485" gradientUnits="userSpaceOnUse"><stop stop-color="#F35D5B"/><stop offset="1" stop-color="#FD5D38"/></linearGradient><linearGradient id="paint23_linear" x1="33.4633" y1="91.4996" x2="33.4633" y2="121.83" gradientUnits="userSpaceOnUse"><stop stop-color="#B70060"/><stop offset="1" stop-color="#EB0065"/></linearGradient><linearGradient id="paint24_linear" x1="100.941" y1="0" x2="100.941" y2="12.2508" gradientUnits="userSpaceOnUse"><stop stop-color="#131235"/><stop offset="1" stop-color="#651F38"/></linearGradient><linearGradient id="paint25_linear" x1="93.4822" y1="34.5217" x2="93.4822" y2="51.2932" gradientUnits="userSpaceOnUse"><stop stop-color="#98C449"/><stop offset="1" stop-color="#2E9C71"/></linearGradient><linearGradient id="paint26_linear" x1="104.955" y1="32.7121" x2="104.955" y2="49.0506" gradientUnits="userSpaceOnUse"><stop stop-color="#B5CB1A"/><stop offset="1" stop-color="#2E9C71"/></linearGradient><linearGradient id="paint27_linear" x1="92.0422" y1="14.3183" x2="92.0422" y2="41.366" gradientUnits="userSpaceOnUse"><stop stop-color="#FF4735"/><stop offset="1" stop-color="#FF9E05"/></linearGradient><linearGradient id="paint28_linear" x1="106.481" y1="13.5557" x2="106.481" y2="42.9172" gradientUnits="userSpaceOnUse"><stop stop-color="#FF3F39"/><stop offset="1" stop-color="#FF9908"/></linearGradient><linearGradient id="paint29_linear" x1="69.1262" y1="46.2023" x2="70.0433" y2="69.0373" gradientUnits="userSpaceOnUse"><stop stop-color="#F7EFDD"/><stop offset="1" stop-color="#FDC54A"/></linearGradient><linearGradient id="paint30_linear" x1="45.807" y1="27.3607" x2="45.807" y2="36.564" gradientUnits="userSpaceOnUse"><stop stop-color="#898A8D"/><stop offset="1" stop-color="#DADADA"/></linearGradient><linearGradient id="paint31_linear" x1="47.3822" y1="52.4038" x2="69.763" y2="70.3633" gradientUnits="userSpaceOnUse"><stop stop-color="#F8EDD6"/><stop offset="1" stop-color="#FEC64F"/></linearGradient></defs></svg>
