<?xml version="1.0" encoding="UTF-8" standalone="no"?><svg xmlns:svg="http://www.w3.org/2000/svg" xmlns="http://www.w3.org/2000/svg" xmlns:xlink="http://www.w3.org/1999/xlink" id="svg1627" version="1.1" viewBox="0 0 171.97916 171.97917" height="650" width="650"><defs id="defs1623"><linearGradient id="linearGradient1800" ><stop id="stop1796" offset="0" style="stop-color:#4f264f;stop-opacity:1;"/><stop id="stop1798" offset="1" style="stop-color:#bd77bd;stop-opacity:1"/></linearGradient><linearGradient xlink:href="#linearGradient1032" id="linearGradient1474" gradientUnits="userSpaceOnUse" gradientTransform="matrix(0.94244666,0,0,0.94244666,37.200181,12.112908)" x1="145.65736" y1="596.48907" x2="496.15106" y2="102.14743"/><linearGradient id="linearGradient1032"><stop style="stop-color:#47e6af;stop-opacity:1" offset="0" id="stop1373"/><stop id="stop1375" offset="0.51482904" style="stop-color:#526f6d;stop-opacity:1;"/><stop style="stop-color:#51023d;stop-opacity:1" offset="1" id="stop1377"/></linearGradient><linearGradient xlink:href="#linearGradient1088" id="linearGradient1472" gradientUnits="userSpaceOnUse" gradientTransform="matrix(0.94244666,0,0,0.94244666,36.702287,7.9411676)" x1="286.59955" y1="16.674204" x2="390.85779" y2="554.19"/><linearGradient id="linearGradient1088" ><stop id="stop1112" offset="0" style="stop-color:#f61b79;stop-opacity:1"/><stop style="stop-color:#6fafc5;stop-opacity:1;" offset="0.59605765" id="stop1119"/><stop id="stop1114" offset="1" style="stop-color:#36efe6;stop-opacity:1"/></linearGradient><linearGradient xlink:href="#linearGradient1010" id="linearGradient1470" gradientUnits="userSpaceOnUse" gradientTransform="matrix(0.94244666,0,0,0.94244666,33.299018,9.0515582)" x1="306.66992" y1="604.79102" x2="615.78534" y2="450.27679"/><linearGradient id="linearGradient1010"><stop style="stop-color:#f04a48;stop-opacity:1" offset="0" id="stop1006"/><stop style="stop-color:#fc952b;stop-opacity:0.99215686" offset="1" id="stop1008"/></linearGradient><linearGradient xlink:href="#linearGradient1538" id="linearGradient1468" gradientUnits="userSpaceOnUse" gradientTransform="matrix(0.94244666,0,0,0.94244666,33.059259,12.112908)" x1="33.255085" y1="364.43536" x2="426.88409" y2="248.57556"/><linearGradient id="linearGradient1538" ><stop id="stop1534" offset="0" style="stop-color:#f61b79;stop-opacity:1"/><stop style="stop-color:#cd1a6f;stop-opacity:1;" offset="0.35749197" id="stop1806"/><stop id="stop1536" offset="1" style="stop-color:#581a53;stop-opacity:1"/></linearGradient><linearGradient gradientTransform="matrix(0.94244666,0,0,0.94244666,1777.1429,1090.3413)" gradientUnits="userSpaceOnUse" y2="-747.18848" x2="-1513.6584" y1="-1084.9624" x1="-1391.3877" id="linearGradient1802" xlink:href="#linearGradient1800"/></defs><g transform="translate(36.976671,48.364974)" id="layer1"><path clip-path="none" id="path1464" style="fill:#faad26;fill-opacity:1;stroke:none;stroke-width:0.374034;stroke-linecap:round;stroke-opacity:1" d="M 71.88915,37.702725 A 16.102743,16.102743 0 0 1 55.786383,53.805466 16.102743,16.102743 0 0 1 39.683643,37.702725 16.102743,16.102743 0 0 1 55.786383,21.599984 16.102743,16.102743 0 0 1 71.88915,37.702725"/><path transform="matrix(0.26458333,0,0,0.26458333,-36.976671,-48.364974)" d="M 354.48242,12.818359 C 183.69084,12.819126 45.237095,151.27287 45.236328,322.06445 45.236013,492.8568 183.69007,631.31173 354.48242,631.3125 c 96.58672,-0.004 187.62462,-45.13593 246.10547,-122.00586 7.58719,-14.04673 11.68524,-29.89277 11.6875,-46.18945 -4.9e-4,-53.69323 -43.52743,-97.21931 -97.2207,-97.21875 -30.07498,0.0363 -58.4401,13.98912 -76.82422,37.79101 0,-0.0212 -1.3e-4,-0.0415 -0.01,-0.0625 -22.19996,25.34372 -54.24755,39.8858 -87.93945,39.9043 -64.61292,-3.7e-4 -116.99386,-52.37928 -116.99414,-116.99219 3.8e-4,-64.61287 52.38132,-116.99182 116.99414,-116.99218 32.22743,0.0338 63.01298,13.36153 85.09375,36.83593 18.40099,25.59476 47.99081,40.77452 79.51367,40.79297 54.12357,-3.4e-4 97.99962,-43.87637 98,-98 -0.0151,-23.38514 -8.39177,-45.99438 -23.61719,-63.74414 -0.92829,-1.39152 -2.01304,-2.81999 -3.28515,-4.29492 C 530.68587,57.018864 449.7621,15.627611 359.11914,12.857422 c -1.54545,-0.02461 -3.09107,-0.03763 -4.63672,-0.03906 z" style="fill:url(#linearGradient1802);fill-opacity:1;stroke:none;stroke-width:35.2716;stroke-linecap:round" clip-path="none" id="path1454"/><path transform="matrix(0.26458333,0,0,0.26458333,-36.976671,-48.364974)" d="M 57.466797 350.18164 C 50.618791 350.61331 47.712585 365.89771 47.695312 405.82422 C 83.313784 539.1176 204.88629 637.29687 349.4082 637.29688 C 367.52639 637.29688 385.28178 635.747 402.55469 632.78516 C 498.64315 611.79016 576.97939 543.35119 611.7793 453.24023 C 606.82898 404.18651 565.41347 365.89792 515.05469 365.89844 C 502.22803 365.91391 489.71531 368.46773 478.15234 373.23047 C 466.37471 381.80282 454.30054 390.53295 441.89258 399.22852 C 440.63191 400.67466 439.41101 402.16101 438.23047 403.68945 C 438.23047 403.66829 438.23034 403.64797 438.2207 403.62695 C 422.4723 421.6055 401.76462 434.1394 379.0332 439.91797 C 337.03059 464.24184 294.34093 481.93945 254.9375 481.93945 C 134.35597 481.93945 78.072239 348.88276 57.466797 350.18164 z " style="fill:url(#linearGradient1474);fill-opacity:1;stroke:none;stroke-width:33.2029;stroke-linecap:round" clip-path="none" id="path1456"/><path transform="matrix(0.26458333,0,0,0.26458333,-36.976671,-48.364974)" d="m 247.63281,55.150391 c -25.69447,0 -50.47702,4.057754 -73.79101,11.552734 C 91.313427,122.90777 37.111328,217.62067 37.111328,325 c 0,65.8223 20.381407,126.87457 55.152344,177.22852 42.558328,34.12692 96.573688,54.55468 155.369138,54.55468 116.08419,0 213.57561,-79.58115 240.91211,-187.16015 -19.76143,5.62903 -37.47344,17.44116 -50.31445,34.0664 0,-0.0212 -1.3e-4,-0.0415 -0.01,-0.0625 -22.19996,25.34372 -54.24755,39.8858 -87.93945,39.9043 -64.61292,-3.7e-4 -116.99386,-52.37928 -116.99414,-116.99219 3.8e-4,-64.61287 52.38132,-116.99182 116.99414,-116.99218 32.22743,0.0338 63.01298,13.36153 85.09375,36.83593 14.48627,20.1496 35.90891,33.83748 59.74805,38.76172 C 483.49875,158.21456 377.14135,55.150391 247.63281,55.150391 Z" style="fill:url(#linearGradient1472);fill-opacity:1;stroke:none;stroke-width:28.35;stroke-linecap:round" clip-path="none" id="path1458"/><path transform="matrix(0.26458333,0,0,0.26458333,-36.976671,-48.364974)" d="m 515.05469,365.89844 c -30.07498,0.0363 -58.4401,13.98912 -76.82422,37.79101 0,-0.0212 -1.3e-4,-0.0415 -0.01,-0.0625 -22.19996,25.34372 -54.24755,39.8858 -87.93945,39.9043 -5.87487,-3e-5 -11.6486,-0.43753 -17.29102,-1.27344 -6.45199,17.25706 -9.75691,35.53133 -9.75781,53.95508 0.0237,57.04443 31.56002,109.40853 81.9707,136.10742 69.11563,-12.46726 130.32497,-47.67494 175.60157,-97.60156 20.0516,-18.40913 31.46692,-44.38096 31.4707,-71.60156 -4.9e-4,-53.69323 -43.52743,-97.21931 -97.2207,-97.21875 z" style="fill:url(#linearGradient1470);fill-opacity:1;stroke:none;stroke-width:1.88489;stroke-linecap:round" clip-path="none" id="path1460"/><path transform="matrix(0.26458333,0,0,0.26458333,-36.976671,-48.364974)" d="M 349.4043 12.703125 C 232.24611 12.703125 130.17581 77.231466 76.742188 172.67383 C 77.440855 267.71048 147.22424 346.30981 238.36914 360.73438 C 235.06807 349.91745 233.28716 338.43614 233.28711 326.53906 C 233.28749 261.92619 285.66843 209.54724 350.28125 209.54688 C 382.50868 209.5807 413.29423 222.90841 435.375 246.38281 C 435.73794 246.88764 436.1128 247.38027 436.48438 247.87695 C 456.00129 247.98849 460.4668 234.89882 460.4668 179.33398 C 460.4668 112.49681 426.28558 50.431248 374.45703 13.699219 C 366.19312 13.043189 357.84078 12.703226 349.4082 12.703125 L 349.4043 12.703125 z " style="fill:url(#linearGradient1468);fill-opacity:1;stroke:none;stroke-width:21.884;stroke-linecap:round" clip-path="none" id="path1462"/><path clip-path="none" id="path1466" style="fill:#51023d;fill-opacity:1;stroke:none;stroke-width:2.9417;stroke-linecap:round" d="M 125.00084,1.769464 A 25.791614,25.791614 0 0 1 99.209209,27.561078 25.791614,25.791614 0 0 1 73.417601,1.769464 25.791614,25.791614 0 0 1 99.209209,-24.022146 25.791614,25.791614 0 0 1 125.00084,1.769464"/></g><g style="display:inline" id="layer4"/></svg>
