<svg width="24" height="24" viewBox="0 0 24 24" fill="none" xmlns="http://www.w3.org/2000/svg">
<path d="M7.08723 4.85023C6.89807 6.50623 6.28478 8.08823 5.30452 9.44871C4.21961 10.9541 3.02115 12.3776 1.71925 13.7069C0.798171 14.6791 -0.0832895 15.6027 0.124695 17.0027C0.251248 17.6546 0.508071 18.2755 0.880344 18.8295C1.25262 19.3834 1.73297 19.8596 2.29368 20.2304C3.60102 21.1151 4.50229 20.6095 5.72049 19.8804C5.97958 19.7309 6.2308 19.5687 6.47319 19.3943C6.80993 19.1512 6.87925 19.1318 7.22589 19.4623C7.84353 20.2059 8.37501 21.0145 8.81054 21.8734C9.15719 22.3984 9.47411 23.1081 10.108 23.3511C10.7418 23.5942 11.2767 23.1567 11.7719 22.7581C12.6335 22.0484 13.5843 21.0567 12.7623 19.9679C12.4651 19.5984 12.069 19.3165 11.7719 18.9957C11.4747 18.6749 11.3361 18.529 11.138 18.2957C10.7815 17.8777 10.4645 17.6152 11.138 17.3235C12.0293 17.1371 12.9419 17.0685 13.8517 17.1194C14.7895 17.0604 15.7188 16.9073 16.6248 16.6624C19.8932 15.6902 17.9421 10.6154 16.8526 8.63207C15.4165 5.9877 13.1584 2.29334 9.61277 2.54611C9.29525 2.54179 8.98018 2.60129 8.68695 2.72096C8.39373 2.84063 8.12856 3.01794 7.90776 3.24197C7.68696 3.466 7.51519 3.73202 7.40304 4.02364C7.29088 4.31527 7.24072 4.62635 7.25562 4.93772C7.24277 6.39253 7.43609 7.84202 7.83004 9.24455C8.26465 10.5159 8.87446 11.7229 9.64248 12.832C10.2019 13.8092 10.9565 14.6657 11.861 15.3499C13.5447 16.5457 17.3676 17.7513 18.2887 15.0097C18.5858 14.1153 17.1497 13.7264 16.8526 14.6208C16.605 15.3499 15.5849 15.2625 14.9907 15.1263C13.953 14.913 12.9902 14.4371 12.1977 13.7458C11.6489 13.188 11.1792 12.5602 10.8013 11.8792C10.2524 11.0784 9.78783 10.225 9.41469 9.33206C9.07525 8.21238 8.87245 7.05709 8.81054 5.89047C8.76102 5.42381 8.57285 4.59745 8.9492 4.21829C9.48402 3.6933 10.7022 4.06273 11.2767 4.30578C12.6388 5.05627 13.7474 6.18167 14.4658 7.5432C15.3471 8.77922 16.0317 10.1397 16.4961 11.5778C16.6977 12.2688 16.8206 12.9796 16.8625 13.6972C16.8625 14.5236 16.8625 15.0777 15.9811 15.3208C14.4569 15.6318 12.9026 15.7785 11.346 15.7583C10.4942 15.7583 9.25623 16.4777 9.15719 17.411C9.05815 18.3443 10.1476 19.3554 10.7121 19.9484C11.0064 20.1793 11.2783 20.4364 11.5243 20.7165C11.7124 20.9984 11.7025 20.9401 11.4153 21.1929C11.1281 21.4456 10.9102 21.572 10.7022 21.7859C10.4942 21.9998 10.4942 21.8734 10.6032 21.9123C10.7121 21.9512 10.4843 21.5817 10.4843 21.5817C10.3055 21.2447 10.1037 20.9198 9.88018 20.6095C9.49392 20.0165 9.14728 19.3846 8.72141 18.811C8.09746 17.9554 7.07733 17.2943 6.06712 17.8971C5.30451 18.3443 4.21507 19.5401 3.33361 19.0443C2.26397 18.4513 1.19434 16.8569 1.92724 15.6902C2.3268 15.1862 2.76733 14.7147 3.24448 14.2805C3.76939 13.6875 4.23488 13.0556 4.78951 12.4528C6.77031 10.1681 8.33516 7.84458 8.66199 4.79188C8.77093 3.81968 7.28533 3.86829 7.17638 4.79188L7.08723 4.85023Z" fill="#5A2F56"/>
<path d="M16.2583 0.543367C16.0899 0.737806 15.9117 0.932242 15.7334 1.11696C15.5551 1.30168 15.4065 1.51556 15.2283 1.71C15.0646 1.88684 14.8856 2.04948 14.6935 2.1961C14.4675 2.37905 14.2646 2.58794 14.0893 2.8183C14.0377 2.90206 14.0041 2.99527 13.9905 3.09222C13.9768 3.18918 13.9835 3.28784 14.0101 3.38218C14.0652 3.56572 14.1891 3.722 14.3567 3.81967C14.4408 3.86898 14.5344 3.90052 14.6317 3.91223C14.7289 3.92395 14.8275 3.9156 14.9212 3.88773C15.1053 3.83351 15.2635 3.71622 15.3669 3.55718L15.258 3.70301C15.5452 3.33357 15.9711 3.09052 16.2484 2.73081C16.4068 2.54609 16.5653 2.35165 16.7337 2.16693C16.9021 1.98222 17.0902 1.78778 17.2487 1.59334C17.3829 1.45344 17.4604 1.27018 17.4666 1.07808C17.4676 0.982198 17.4488 0.88711 17.4114 0.798551C17.3739 0.709991 17.3186 0.629798 17.2487 0.562815C17.1095 0.426034 16.9207 0.349101 16.7238 0.34893C16.5273 0.35117 16.3392 0.427792 16.1989 0.562815L16.2583 0.543367Z" fill="#5A2F56"/>
<path d="M18.2192 2.76C17.9866 2.98039 17.7419 3.1881 17.4862 3.3822L17.6348 3.27526C17.3872 3.45998 17.1198 3.63497 16.8623 3.81969C16.6048 4.00441 16.3275 4.24746 16.0502 4.46134L16.2086 4.34468L16.0799 4.4419C15.9129 4.53575 15.7888 4.68882 15.7332 4.86966C15.7067 4.964 15.7 5.06267 15.7136 5.15962C15.7273 5.25658 15.7609 5.34979 15.8125 5.43354C15.9115 5.59392 16.0696 5.71069 16.2541 5.75957C16.4385 5.80846 16.6351 5.7857 16.8029 5.69604C17.078 5.49909 17.3425 5.28816 17.5952 5.06412L17.4466 5.18077C17.7339 4.96689 18.0409 4.77245 18.338 4.55857C18.6351 4.34469 18.952 4.06274 19.2492 3.79053C19.3883 3.65381 19.4664 3.46849 19.4664 3.27526C19.4664 3.08204 19.3883 2.89671 19.2492 2.76C19.1075 2.62802 18.9196 2.55445 18.7243 2.55445C18.5289 2.55445 18.341 2.62802 18.1993 2.76H18.2192Z" fill="#5A2F56"/>
<path d="M20.1606 5.05435C19.7637 5.31616 19.3464 5.54696 18.9127 5.74462L19.091 5.67656C18.944 5.7263 18.8015 5.7881 18.6651 5.86128L18.4076 6.02655C18.2095 6.13349 18.0312 6.26961 17.8232 6.36682C17.6617 6.46565 17.5443 6.62088 17.4947 6.80127C17.4451 6.98166 17.4669 7.17381 17.5558 7.33902C17.6581 7.49585 17.8162 7.60964 17.9993 7.65817C18.1825 7.70671 18.3775 7.6865 18.5462 7.6015L19.0711 7.29041C19.2214 7.18374 19.3804 7.08945 19.5465 7.00848L19.3683 7.08624C19.8975 6.86721 20.4048 6.60033 20.8836 6.28905C21.0543 6.19107 21.1784 6.03053 21.2286 5.84273C21.2787 5.65494 21.2508 5.45528 21.151 5.28769C21.0512 5.12009 20.8876 4.99827 20.6963 4.94904C20.505 4.89982 20.3016 4.92721 20.1309 5.02519L20.1606 5.05435Z" fill="#5A2F56"/>
<path d="M21.4084 7.63071C20.6259 7.90292 19.8534 8.18486 19.0908 8.49596C18.9056 8.55341 18.7475 8.67413 18.6451 8.83622C18.5971 8.91959 18.5662 9.01144 18.5543 9.10652C18.5424 9.20161 18.5497 9.29807 18.5758 9.39038C18.5985 9.48202 18.6401 9.56811 18.698 9.64336C18.7559 9.7186 18.8289 9.7814 18.9125 9.82787C18.9979 9.87851 19.0928 9.91153 19.1916 9.9249C19.2904 9.93828 19.3909 9.93172 19.487 9.90565C20.2496 9.59454 21.0221 9.30289 21.8045 9.04039C21.9886 8.98618 22.1468 8.86888 22.2502 8.70985C22.3469 8.5378 22.3717 8.33565 22.3195 8.14597C22.2662 7.96034 22.1411 7.80252 21.9708 7.70625C21.8006 7.60997 21.5987 7.58287 21.4084 7.63071Z" fill="#5A2F56"/>
<path d="M22.0422 10.3334C21.9333 10.3334 22.2304 10.2654 22.0422 10.3334L21.8739 10.382L21.5867 10.4792C21.3532 10.5556 21.115 10.6173 20.8736 10.664C20.3498 10.7615 19.8384 10.9147 19.3483 11.1209C19.1814 11.2193 19.0577 11.3753 19.0017 11.5584C18.9751 11.6527 18.9685 11.7514 18.9821 11.8483C18.9957 11.9453 19.0293 12.0385 19.0809 12.1223C19.1832 12.2791 19.3413 12.3929 19.5244 12.4414C19.7076 12.4899 19.9026 12.4698 20.0713 12.3848H20.1605L20.3387 12.3167L20.6557 12.2292L21.3787 12.0736C21.6164 12.0153 21.8442 11.957 22.072 11.8792C22.3214 11.8062 22.5661 11.7186 22.8049 11.6167C22.9702 11.5212 23.0907 11.366 23.1407 11.1842C23.1907 11.0024 23.1661 10.8087 23.0723 10.6445C22.9732 10.4841 22.8151 10.3674 22.6306 10.3185C22.4462 10.2696 22.2497 10.2924 22.0819 10.382L22.0422 10.3334Z" fill="#5A2F56"/>
<path d="M9.39486 10.7028H9.77122C9.77122 10.7028 9.9594 10.7028 9.77122 10.7028H9.93959L10.306 10.8001H10.4051H10.4843L10.7319 10.9459C10.8904 11.0528 10.6329 10.8487 10.7319 10.9459L10.8409 11.0431C10.8789 11.0739 10.9123 11.1099 10.9399 11.15C10.9399 11.15 11.0588 11.2861 10.9993 11.2084C10.9399 11.1306 10.9993 11.2084 10.9993 11.2667L11.0885 11.4125C11.1153 11.4526 11.1385 11.4948 11.1578 11.5389C11.1578 11.6167 11.1578 11.6361 11.1578 11.5389C11.1934 11.6277 11.2232 11.7186 11.2469 11.8111C11.2469 11.8695 11.2469 11.9278 11.2469 11.9861C11.2469 11.8792 11.2469 11.9181 11.2469 11.9861C11.2469 12.0542 11.2469 12.1903 11.2469 12.2875C11.2469 12.3847 11.2469 12.4042 11.2469 12.2875C11.2423 12.3458 11.2423 12.4043 11.2469 12.4625C11.2469 12.5597 11.1875 12.6472 11.1479 12.7444C11.2073 12.5889 11.1479 12.7444 11.1479 12.7931C11.1355 12.8293 11.1152 12.8625 11.0885 12.8903C11.0614 12.9455 11.0281 12.9977 10.9894 13.0458C10.9102 13.1722 11.0686 12.9583 10.9894 13.0458C10.8582 13.184 10.7868 13.3669 10.7902 13.5558C10.7936 13.7447 10.8715 13.9249 11.0076 14.0585C11.1437 14.1921 11.3273 14.2686 11.5198 14.2719C11.7122 14.2753 11.8984 14.2051 12.0392 14.0764C12.4561 13.6162 12.7209 13.0427 12.7987 12.4317C12.8765 11.8207 12.7636 11.2009 12.475 10.6542C12.202 10.1533 11.7899 9.73869 11.2865 9.45842C10.6751 9.14812 9.99381 8.99431 9.30573 9.01121C9.10873 9.01121 8.91979 9.08803 8.78048 9.22477C8.64118 9.36151 8.56293 9.54698 8.56293 9.74036C8.56293 9.93374 8.64118 10.1192 8.78048 10.2559C8.91979 10.3927 9.10873 10.4695 9.30573 10.4695L9.39486 10.7028Z" fill="#5A2F56"/>
</svg>
