<svg width="32" height="35" viewBox="0 0 32 35" fill="none" xmlns="http://www.w3.org/2000/svg">
<circle cx="21.5" cy="14.5" r="5.5" fill="white"/>
<path fill-rule="evenodd" clip-rule="evenodd" d="M21.75 22.5C17.4681 22.5 14 19.0319 14 14.75C14 10.4681 17.4681 7 21.75 7C26.0319 7 29.5 10.4681 29.5 14.75C29.5 19.0319 26.0319 22.5 21.75 22.5ZM21.75 19.9167C24.6046 19.9167 26.9167 17.6046 26.9167 14.75C26.9167 11.8954 24.6046 9.58333 21.75 9.58333C18.8954 9.58333 16.5833 11.8954 16.5833 14.75C16.5833 17.6046 18.8954 19.9167 21.75 19.9167Z" fill="black" fill-opacity="0.95"/>
<circle cx="16.5" cy="18.5" r="5.5" fill="white"/>
<path fill-rule="evenodd" clip-rule="evenodd" d="M16.75 26.5C12.4681 26.5 9 23.0319 9 18.75C9 14.4681 12.4681 11 16.75 11C21.0319 11 24.5 14.4681 24.5 18.75C24.5 23.0319 21.0319 26.5 16.75 26.5ZM16.75 23.9167C19.6046 23.9167 21.9167 21.6046 21.9167 18.75C21.9167 15.8954 19.6046 13.5833 16.75 13.5833C13.8954 13.5833 11.5833 15.8954 11.5833 18.75C11.5833 21.6046 13.8954 23.9167 16.75 23.9167Z" fill="black" fill-opacity="0.95"/>
<path fill-rule="evenodd" clip-rule="evenodd" d="M26.9729 35C26.6994 29.9839 22.3349 26 16.9864 26C11.638 26 7.27352 29.9839 7.00005 35H9.98645C9.98645 31.5008 13.3031 29 16.9865 29C20.493 29 23.6673 31.7198 23.9639 35H26.9729Z" fill="black" fill-opacity="0.95"/>
<path fill-rule="evenodd" clip-rule="evenodd" d="M21 25.06C21.3244 25.0204 21.6539 25 21.9865 25C25.493 25 28.6673 27.7198 28.9639 31H31.9729C31.6994 25.9839 27.3349 22 21.9864 22C21.6536 22 21.3245 22.0154 21 22.0456V25.06Z" fill="black" fill-opacity="0.95"/>
<circle r="5.5" transform="matrix(-1 0 0 1 9.97278 7.5)" fill="white"/>
<path fill-rule="evenodd" clip-rule="evenodd" d="M9.72278 15.5C14.0047 15.5 17.4728 12.0319 17.4728 7.75C17.4728 3.46813 14.0047 0 9.72278 0C5.4409 0 1.97278 3.46813 1.97278 7.75C1.97278 12.0319 5.4409 15.5 9.72278 15.5ZM9.72278 12.9167C6.8682 12.9167 4.55611 10.6046 4.55611 7.75C4.55611 4.89542 6.8682 2.58333 9.72278 2.58333C12.5774 2.58333 14.8894 4.89542 14.8894 7.75C14.8894 10.6046 12.5774 12.9167 9.72278 12.9167Z" fill="black" fill-opacity="0.95"/>
<path fill-rule="evenodd" clip-rule="evenodd" d="M10.9728 18.06C10.6484 18.0204 10.3189 18 9.98633 18C6.47974 18 3.30547 20.7198 3.00891 24H-7.62939e-05C0.273392 18.9839 4.63788 15 9.98633 15C10.3192 15 10.6483 15.0154 10.9728 15.0456V18.06Z" fill="black" fill-opacity="0.95"/>
</svg>
