<svg width="24" height="25" viewBox="0 0 24 25" fill="none" xmlns="http://www.w3.org/2000/svg"><path d="M1.47925 4.10449H22.1892C22.5208 4.10449 22.8387 3.97279 23.0731 3.73837C23.3075 3.50395 23.4392 3.18601 23.4392 2.85449C23.4392 2.52297 23.3075 2.20503 23.0731 1.97061C22.8387 1.73619 22.5208 1.60449 22.1892 1.60449H1.47925C1.14773 1.60449 0.829773 1.73619 0.595352 1.97061C0.360932 2.20503 0.229248 2.52297 0.229248 2.85449C0.229248 3.18601 0.360932 3.50395 0.595352 3.73837C0.829773 3.97279 1.14773 4.10449 1.47925 4.10449Z"/><path d="M22.1893 20.8345H1.48926C1.15774 20.8345 0.839798 20.9662 0.605377 21.2006C0.370957 21.435 0.239258 21.753 0.239258 22.0845C0.239258 22.416 0.370957 22.7339 0.605377 22.9684C0.839798 23.2028 1.15774 23.3345 1.48926 23.3345H22.1893C22.5208 23.3345 22.8387 23.2028 23.0731 22.9684C23.3076 22.7339 23.4393 22.416 23.4393 22.0845C23.4393 21.753 23.3076 21.435 23.0731 21.2006C22.8387 20.9662 22.5208 20.8345 22.1893 20.8345Z"/><path d="M1.49927 13.9646C8.38593 14.1112 15.2759 14.0712 22.1693 13.8446C23.7793 13.7846 23.7893 11.2846 22.1693 11.3446C15.2826 11.5779 8.3926 11.6179 1.49927 11.4646C1.16775 11.4646 0.849807 11.5963 0.615387 11.8307C0.380966 12.0651 0.249268 12.383 0.249268 12.7146C0.249268 13.0461 0.380966 13.364 0.615387 13.5984C0.849807 13.8329 1.16775 13.9646 1.49927 13.9646Z"/></svg>
