<svg width="25" height="25" viewBox="0 0 25 25" fill="none" xmlns="http://www.w3.org/2000/svg"><path d="M1.46426 14.7355C1.66333 14.9518 1.8964 15.1343 2.15427 15.2755C2.39022 15.4108 2.63788 15.5246 2.89426 15.6155C3.51895 15.8312 4.20262 15.799 4.80426 15.5255C5.42861 15.2736 5.93788 14.8 6.23425 14.1955C6.4567 13.7306 6.54751 13.2136 6.49677 12.7007C6.44602 12.1878 6.25567 11.6987 5.94644 11.2863C5.63721 10.874 5.2209 10.5543 4.74274 10.362C4.26458 10.1697 3.74285 10.1121 3.23425 10.1955C3.09385 10.2129 2.95809 10.257 2.83426 10.3255L2.50427 10.5155C2.21496 10.7065 1.94677 10.9277 1.70425 11.1755C1.40679 11.4761 1.1782 11.8378 1.03427 12.2355C0.937772 12.4782 0.880379 12.7348 0.864258 12.9955C0.920727 13.6325 1.13746 14.2448 1.49426 14.7755"/><path d="M10.1742 14.7355C10.3733 14.9518 10.6064 15.1343 10.8642 15.2755C11.1002 15.4108 11.3479 15.5246 11.6042 15.6155C12.2289 15.8312 12.9126 15.799 13.5142 15.5255C14.1386 15.2736 14.6479 14.8 14.9442 14.1955C15.1667 13.7306 15.2575 13.2136 15.2067 12.7007C15.156 12.1878 14.9657 11.6987 14.6564 11.2863C14.3472 10.874 13.9309 10.5543 13.4527 10.362C12.9746 10.1697 12.4528 10.1121 11.9442 10.1955C11.8038 10.2129 11.6681 10.257 11.5442 10.3255L11.2142 10.5155C10.9249 10.7065 10.6568 10.9277 10.4142 11.1755C10.1168 11.4761 9.88817 11.8378 9.74423 12.2355C9.64773 12.4782 9.59034 12.7348 9.57422 12.9955C9.63069 13.6325 9.84742 14.2448 10.2042 14.7755"/><path d="M19.0941 14.7355C19.2932 14.9518 19.5263 15.1343 19.7841 15.2755C20.0201 15.4108 20.2678 15.5246 20.5241 15.6155C21.1488 15.8312 21.8325 15.799 22.4341 15.5255C23.0565 15.2705 23.5647 14.7977 23.8641 14.1955C24.0866 13.7306 24.1774 13.2136 24.1266 12.7007C24.0759 12.1878 23.8856 11.6987 23.5763 11.2863C23.2671 10.874 22.8508 10.5543 22.3726 10.362C21.8945 10.1697 21.3727 10.1121 20.8641 10.1955C20.7237 10.2129 20.588 10.257 20.4641 10.3255L20.1342 10.5155C19.8448 10.7065 19.5767 10.9277 19.3341 11.1755C19.0367 11.4761 18.8081 11.8378 18.6642 12.2355C18.5677 12.4782 18.5103 12.7348 18.4941 12.9955C18.5462 13.6334 18.7633 14.2468 19.1241 14.7755"/></svg>
