<svg width="152" height="148" viewBox="0 0 152 148" fill="none" xmlns="http://www.w3.org/2000/svg">
<g clip-path="url(#clip0_8853_1082)">
<path d="M48.325 3.3899C45.803 5.74887 43.9767 8.75468 43.045 12.0799C42.1486 15.5978 42.5461 19.3206 44.165 22.5699C45.5833 25.4923 47.8839 27.8953 50.7419 29.4394C53.5999 30.9835 56.8707 31.5906 60.0924 31.1751C63.3141 30.7595 66.3239 29.3422 68.6965 27.1235C71.0691 24.9047 72.6847 21.9966 73.3149 18.8099C74.0672 15.584 73.5366 12.1919 71.835 9.3499C70.7847 7.68956 69.5793 6.1326 68.235 4.6999C65.6809 2.07634 62.2943 0.421982 58.655 0.0199086C55.285 -0.210091 51.405 1.3499 48.655 3.1499C47.035 4.1999 48.535 6.79989 50.165 5.73989C52.3395 4.30777 54.8124 3.39114 57.395 3.0599C59.875 2.7899 62.5849 4.0599 64.5649 5.4799C65.5726 6.24265 66.4798 7.12968 67.265 8.1199C67.6288 8.5218 67.963 8.94959 68.265 9.3999C68.7912 10.1442 69.2785 10.9152 69.725 11.7099C70.3872 12.9825 70.7044 14.4065 70.645 15.8399C70.639 18.4811 69.7986 21.0529 68.2438 23.1879C66.6889 25.323 64.4992 26.9121 61.9872 27.7283C59.4753 28.5446 56.7697 28.5462 54.2568 27.7329C51.744 26.9196 49.5523 25.3331 47.9949 23.1999C46.0695 20.522 45.2428 17.2084 45.6849 13.9399C46.3356 10.6932 48.0069 7.73953 50.455 5.5099C51.925 4.2499 49.795 2.1399 48.335 3.3899H48.325Z" fill="#A31852"/>
<path d="M34.285 62.8999C31.7597 65.2563 29.9328 68.263 29.0049 71.5899C28.1055 75.1066 28.4994 78.8294 30.1149 82.0799C31.5313 85.0062 33.832 87.4131 36.6914 88.96C39.5509 90.507 42.8244 91.1156 46.0488 90.6998C49.2732 90.2841 52.2853 88.865 54.6588 86.6433C57.0323 84.4216 58.6472 81.5098 59.2749 78.3199C60.0219 75.0938 59.4916 71.7038 57.795 68.8599C56.7462 67.1958 55.5371 65.6384 54.1849 64.2099C51.6338 61.5822 48.2457 59.9271 44.605 59.5299C41.235 59.2999 37.355 60.8599 34.605 62.6599C32.995 63.6599 34.4949 66.3099 36.1149 65.2499C38.293 63.8176 40.7692 62.901 43.355 62.5699C45.825 62.2999 48.5349 63.5699 50.5249 64.9899C51.5303 65.7553 52.4372 66.642 53.225 67.6299C53.5905 68.0304 53.9248 68.4583 54.225 68.9099C54.7514 69.652 55.2356 70.4232 55.675 71.2199C56.3359 72.4934 56.6562 73.9161 56.605 75.3499C56.5998 77.9929 55.759 80.5665 54.2029 82.7028C52.6467 84.8391 50.4549 86.4286 47.9409 87.2441C45.4269 88.0595 42.7194 88.0592 40.2056 87.243C37.6918 86.4268 35.5004 84.8367 33.9449 82.6999C32.0109 80.026 31.1834 76.7089 31.6349 73.4399C32.2748 70.1893 33.948 67.2324 36.4049 65.0099C37.8749 63.7499 35.745 61.6399 34.285 62.8899V62.8999Z" fill="#A31852"/>
<path d="M112.255 17.5401C109.734 19.8997 107.908 22.9053 106.975 26.2301C106.08 29.7404 106.474 33.4555 108.085 36.7001C109.503 39.6225 111.804 42.0255 114.662 43.5696C117.52 45.1137 120.791 45.7208 124.012 45.3052C127.234 44.8897 130.244 43.4724 132.617 41.2536C134.989 39.0349 136.605 36.1268 137.235 32.9401C137.987 29.7186 137.46 26.3311 135.765 23.4901C134.713 21.8283 133.504 20.2711 132.155 18.8401C129.604 16.2124 126.216 14.5573 122.575 14.1601C119.205 13.9201 115.325 15.4901 112.575 17.2901C110.965 18.2901 112.465 20.9301 114.085 19.8801C116.256 18.4412 118.731 17.524 121.315 17.2001C123.795 16.9301 126.505 18.2001 128.485 19.6201C129.498 20.3798 130.409 21.2672 131.195 22.2601C131.564 22.6576 131.899 23.0858 132.195 23.5401C132.73 24.2747 133.218 25.043 133.655 25.8401C134.316 27.1167 134.633 28.5436 134.575 29.9801C134.566 32.6187 133.725 35.1871 132.17 37.3193C130.616 39.4515 128.428 41.0386 125.919 41.8544C123.41 42.6701 120.707 42.6729 118.196 41.8623C115.685 41.0517 113.494 39.4691 111.935 37.3401C110.004 34.6645 109.174 31.35 109.615 28.0801C110.277 24.8496 111.951 21.9143 114.395 19.7001C115.865 18.4501 113.735 16.3301 112.275 17.5801L112.255 17.5401Z" fill="#A31852"/>
<path d="M84.1951 59.25C81.6759 61.6096 79.853 64.6155 78.9251 67.94C78.0202 71.4563 78.4143 75.181 80.0351 78.43C81.4511 81.3524 83.7492 83.7563 86.605 85.3022C89.4608 86.8481 92.73 87.4581 95.9512 87.0459C99.1723 86.6337 102.183 85.2203 104.557 83.0051C106.932 80.7899 108.55 77.8848 109.185 74.7C109.937 71.4741 109.407 68.0821 107.705 65.24C106.655 63.5797 105.449 62.0227 104.105 60.59C101.551 57.9665 98.1644 56.3121 94.5251 55.91C91.1551 55.68 87.2751 57.24 84.5251 59.04C82.9051 60.09 84.4151 62.69 86.0351 61.63C88.2104 60.1995 90.6829 59.283 93.2651 58.95C95.7451 58.68 98.455 59.95 100.435 61.37C101.446 62.1325 102.356 63.0195 103.145 64.01C103.512 64.4096 103.846 64.8376 104.145 65.29C104.678 66.0296 105.166 66.801 105.605 67.6C106.267 68.8727 106.585 70.2966 106.525 71.73C106.523 74.3717 105.685 76.945 104.131 79.0816C102.578 81.2182 100.388 82.8087 97.8758 83.6254C95.3635 84.4421 92.6572 84.4432 90.1443 83.6286C87.6313 82.814 85.4404 81.2254 83.8851 79.09C81.9523 76.4154 81.1217 73.1 81.5651 69.83C82.2131 66.5801 83.8889 63.6247 86.3451 61.4C87.8151 60.14 85.6851 58.03 84.2151 59.28L84.1951 59.25Z" fill="#A31852"/>
<path d="M126.295 81.7C123.773 84.0589 121.947 87.0647 121.015 90.39C120.119 93.9078 120.516 97.6306 122.135 100.88C123.553 103.802 125.854 106.205 128.712 107.749C131.57 109.294 134.841 109.901 138.062 109.485C141.284 109.07 144.294 107.652 146.667 105.434C149.039 103.215 150.655 100.307 151.285 97.12C152.037 93.894 151.507 90.502 149.805 87.66C148.754 85.9972 147.545 84.4399 146.195 83.01C143.645 80.3864 140.261 78.7318 136.625 78.33C133.255 78.1 129.375 79.66 126.625 81.46C125.015 82.51 126.515 85.11 128.145 84.05C130.319 82.6178 132.792 81.7012 135.375 81.37C137.855 81.1 140.565 82.37 142.545 83.79C143.55 84.5554 144.457 85.4421 145.245 86.43C145.611 86.8299 145.945 87.2579 146.245 87.71C146.771 88.4542 147.259 89.2253 147.705 90.02C148.363 91.2942 148.68 92.717 148.625 94.15C148.619 96.7912 147.779 99.3629 146.224 101.498C144.669 103.633 142.479 105.222 139.967 106.038C137.455 106.855 134.75 106.856 132.237 106.043C129.724 105.23 127.532 103.643 125.975 101.51C124.05 98.8321 123.223 95.5184 123.665 92.25C124.305 88.9993 125.978 86.0424 128.435 83.82C129.905 82.56 127.775 80.45 126.315 81.7H126.295Z" fill="#A31852"/>
<path d="M69.585 119.97C67.0718 122.334 65.2499 125.339 64.3149 128.66C63.4148 132.18 63.8087 135.906 65.425 139.16C66.8433 142.082 69.1439 144.485 72.0018 146.03C74.8598 147.574 78.1307 148.181 81.3524 147.765C84.5742 147.35 87.5839 145.932 89.9565 143.714C92.3291 141.495 93.9447 138.587 94.575 135.4C95.326 132.175 94.7992 128.785 93.105 125.94C92.053 124.278 90.8441 122.721 89.4949 121.29C86.9438 118.662 83.5558 117.007 79.915 116.61C76.545 116.37 72.665 117.94 69.915 119.74C68.305 120.74 69.805 123.39 71.425 122.33C73.5979 120.895 76.0715 119.978 78.655 119.65C81.135 119.38 83.845 120.65 85.825 122.07C86.8381 122.83 87.749 123.717 88.535 124.71C88.904 125.108 89.2385 125.536 89.535 125.99C90.0682 126.73 90.5557 127.501 90.9949 128.3C91.6572 129.573 91.9744 130.997 91.915 132.43C91.9126 135.072 91.0747 137.645 89.5211 139.782C87.9676 141.918 85.778 143.509 83.2657 144.325C80.7534 145.142 78.0472 145.143 75.5342 144.329C73.0212 143.514 70.8303 141.925 69.275 139.79C67.3432 137.115 66.5126 133.8 66.955 130.53C67.603 127.28 69.2788 124.325 71.735 122.1C73.205 120.84 71.075 118.73 69.605 119.97H69.585Z" fill="#A31852"/>
<path d="M6.18506 115.06C3.67061 117.425 1.84569 120.429 0.905094 123.75C0.00780442 127.268 0.405315 130.991 2.02509 134.24C3.44339 137.162 5.74402 139.565 8.60199 141.109C11.46 142.653 14.7308 143.261 17.9525 142.845C21.1742 142.429 24.184 141.012 26.5566 138.793C28.9293 136.575 30.5448 133.667 31.1751 130.48C31.9279 127.257 31.3971 123.868 29.6951 121.03C28.6498 119.366 27.4441 117.809 26.0951 116.38C23.544 113.752 20.1559 112.097 16.5151 111.7C13.1451 111.46 9.26508 113.03 6.51508 114.83C4.89508 115.88 6.40509 118.47 8.02509 117.42C10.1962 115.981 12.6707 115.064 15.2551 114.74C17.7351 114.47 20.4451 115.74 22.4251 117.16C23.4382 117.92 24.3491 118.807 25.1351 119.8C25.5011 120.2 25.8354 120.628 26.1351 121.08C26.6705 121.815 27.1581 122.583 27.5951 123.38C28.2564 124.656 28.5735 126.083 28.5151 127.52C28.5063 130.158 27.6647 132.727 26.1104 134.859C24.5561 136.991 22.3683 138.578 19.859 139.394C17.3496 140.21 14.6468 140.213 12.1358 139.402C9.62481 138.591 7.43377 137.009 5.87506 134.88C3.94419 132.204 3.11375 128.89 3.55506 125.62C4.2051 122.368 5.88041 119.41 8.33509 117.18C9.80509 115.93 7.67508 113.81 6.20508 115.06H6.18506Z" fill="#A31852"/>
<path d="M50.3251 28.26C49.8751 30.83 49.3251 33.37 48.7451 35.91C48.1651 38.45 47.7451 41.28 47.1451 43.91C45.9451 49.41 44.4552 54.85 43.3552 60.38C42.9752 62.26 45.8651 63.07 46.2451 61.17C47.3451 55.65 48.8352 50.17 50.0452 44.71C50.6052 42.11 51.0451 39.48 51.5951 36.88C52.1451 34.28 52.7551 31.66 53.2251 29.02C53.5551 27.13 50.6651 26.32 50.3251 28.22V28.26Z" fill="#A31852"/>
<path d="M71.695 21.1299C74.745 21.7999 77.695 22.69 80.695 23.55C83.695 24.41 86.805 25.0999 89.915 25.6799C93.025 26.2599 95.825 27.0599 98.805 27.5999C101.756 28.0379 104.673 28.6795 107.535 29.52C109.375 30.13 110.165 27.2299 108.335 26.6299C105.538 25.8053 102.688 25.1738 99.805 24.7399C96.755 24.1999 93.805 23.3699 90.715 22.7899C87.625 22.2099 84.715 21.57 81.715 20.72C78.715 19.87 75.595 18.9199 72.475 18.2399C70.595 17.8199 69.7951 20.7199 71.6751 21.1299H71.695Z" fill="#A31852"/>
<path d="M58.395 76.3699C59.787 76.317 61.1755 76.1935 62.555 75.9999C64.1803 75.8417 65.8159 75.8182 67.445 75.9299C71.555 76.1599 75.595 75.2799 79.715 75.3499C81.645 75.3499 81.645 72.3499 79.715 72.3499C75.595 72.2799 71.555 73.1599 67.445 72.9299C65.8159 72.8182 64.1803 72.8417 62.555 72.9999C61.1755 73.1935 59.787 73.317 58.395 73.3699C57.9972 73.3699 57.6157 73.528 57.3344 73.8093C57.053 74.0906 56.895 74.4721 56.895 74.8699C56.895 75.2678 57.053 75.6493 57.3344 75.9306C57.6157 76.2119 57.9972 76.3699 58.395 76.3699Z" fill="#A31852"/>
<path d="M128.105 43.37C129.445 50.5 130.385 57.72 131.305 64.92C131.685 67.92 132.125 70.85 132.585 73.81C132.765 75.04 132.965 76.27 133.155 77.5L133.335 78.65C133.335 78.84 133.465 79.56 133.335 78.78L136.285 78.38C135.615 76.59 132.715 77.38 133.385 79.18C133.925 80.63 136.555 80.59 136.325 78.78C135.735 74.05 134.825 69.35 134.225 64.62C133.295 57.26 132.325 49.87 130.965 42.62C130.605 40.73 127.715 41.53 128.065 43.42L128.105 43.37Z" fill="#A31852"/>
<path d="M114.135 41.39C112.635 43.31 111.425 45.39 109.975 47.39C109.075 48.59 108.105 49.7399 107.185 50.9299C105.102 53.7492 103.169 56.6766 101.395 59.7C100.395 61.34 102.965 62.8499 103.985 61.2099C105.642 58.3463 107.444 55.5694 109.385 52.89C110.275 51.74 111.205 50.62 112.095 49.47C113.565 47.56 114.725 45.4699 116.215 43.5399C116.484 43.2527 116.634 42.8737 116.634 42.4799C116.634 42.0862 116.484 41.7072 116.215 41.42C115.933 41.1415 115.552 40.9854 115.155 40.9854C114.758 40.9854 114.378 41.1415 114.095 41.42L114.135 41.39Z" fill="#A31852"/>
<path d="M64.2251 28.8399C69.8551 40.2499 75.6951 51.5799 80.7551 63.2599C81.5151 65.0299 84.1051 63.4999 83.3451 61.7499C78.2851 50.0699 72.4451 38.7499 66.8151 27.3199C65.9651 25.5899 63.3751 27.1099 64.2251 28.8399Z" fill="#A31852"/>
<path d="M105.205 81.03C106.536 81.6414 107.825 82.3396 109.065 83.12L113.345 85.61C115.955 87.13 118.795 88.52 121.075 90.53C122.515 91.81 124.645 89.6901 123.195 88.4101C120.715 86.2101 117.705 84.6801 114.855 83.0201C112.012 81.2038 109.056 79.5705 106.005 78.13C105.628 78.0239 105.225 78.069 104.882 78.2558C104.538 78.4426 104.281 78.7563 104.165 79.13C104.066 79.5077 104.114 79.9089 104.3 80.2523C104.486 80.5958 104.795 80.8559 105.165 80.98L105.205 81.03Z" fill="#A31852"/>
<path d="M35.9252 87.0301C30.0352 95.3601 25.3251 104.42 19.6151 112.86C18.5251 114.46 21.1252 115.96 22.2052 114.37C27.9152 105.93 32.6252 96.8701 38.5152 88.5501C39.6252 86.9701 37.0252 85.4701 35.9252 87.0301Z" fill="#A31852"/>
<path d="M30.8551 131.7C33.9251 131.91 36.9851 132.32 40.0551 132.37C43.4751 132.42 46.8151 132.37 50.2251 132.69C52.9551 132.98 55.6651 133.37 58.4051 133.59C60.59 133.672 62.7642 133.936 64.9051 134.38C66.7851 134.85 67.5751 131.96 65.7051 131.48C63.4586 131.012 61.1777 130.728 58.8851 130.63C56.1451 130.41 53.4351 130.04 50.7051 129.74C47.3177 129.432 43.916 129.308 40.5151 129.37C37.2851 129.37 34.0751 128.92 30.8551 128.7C28.9251 128.57 28.9351 131.57 30.8551 131.7Z" fill="#A31852"/>
<path d="M88.6351 84.76C86.7212 96.0373 84.0484 107.173 80.6351 118.09C80.0751 119.94 82.9651 120.73 83.5351 118.89C86.9474 107.972 89.6201 96.8371 91.5351 85.56C91.8451 83.67 88.9551 82.85 88.6451 84.76H88.6351Z" fill="#A31852"/>
<path d="M94.7251 130.03C97.4173 128.602 100.034 127.037 102.565 125.34C105.615 123.39 108.735 121.58 111.865 119.77C118.162 116.32 124.249 112.5 130.095 108.33C131.625 107.19 130.095 104.59 128.575 105.74C122.749 109.912 116.678 113.732 110.395 117.18C107.335 118.95 104.265 120.73 101.285 122.63C98.6451 124.32 96.0451 126.02 93.2851 127.44C91.5651 128.32 93.0851 130.91 94.8051 130.03H94.7251Z" fill="#A31852"/>
<path d="M117.835 28.28C118.674 29.1399 119.738 29.7463 120.905 30.03C121.794 30.2197 122.716 30.185 123.588 29.9289C124.46 29.6728 125.255 29.2035 125.9 28.5633C126.545 27.9231 127.021 27.1322 127.283 26.2622C127.546 25.3921 127.588 24.4703 127.405 23.58C127.193 22.5214 126.669 21.5504 125.901 20.7914C125.133 20.0324 124.156 19.52 123.095 19.32C121.952 19.0706 120.756 19.2485 119.735 19.82C119.15 20.1775 118.609 20.6038 118.125 21.09C117.174 22.0269 116.598 23.2785 116.505 24.61C116.524 25.8185 116.907 26.9931 117.605 27.98C117.7 28.1577 117.83 28.3144 117.987 28.4407C118.144 28.567 118.325 28.6604 118.519 28.7153C118.713 28.7702 118.916 28.7854 119.116 28.76C119.316 28.7347 119.509 28.6693 119.683 28.5678C119.857 28.4663 120.009 28.3307 120.13 28.1692C120.25 28.0076 120.337 27.8235 120.385 27.6277C120.433 27.4319 120.44 27.2285 120.408 27.0296C120.375 26.8306 120.303 26.6403 120.195 26.47C120.089 26.3193 119.992 26.1624 119.905 26L119.805 25.79C119.635 25.45 119.865 25.99 119.805 25.79C119.745 25.59 119.685 25.46 119.635 25.29C119.585 25.12 119.465 24.85 119.515 24.74V24.93C119.515 24.93 119.515 24.84 119.515 24.79C119.515 24.49 119.515 24.79 119.515 24.79C119.57 24.6232 119.614 24.4528 119.645 24.28C119.645 24.2 119.645 24.12 119.725 24.03C119.835 23.82 119.975 23.61 120.085 23.4C119.865 23.61 120.195 23.19 120.085 23.4L120.245 23.24L120.625 22.89L120.835 22.71C120.935 22.62 120.435 23 120.745 22.79C121.055 22.58 121.175 22.49 121.395 22.36C121.615 22.23 121.685 22.24 121.395 22.36C121.471 22.3355 121.547 22.3154 121.625 22.3C121.625 22.3 122.015 22.3 121.765 22.3H121.965C122.131 22.3146 122.299 22.3146 122.465 22.3C122.195 22.25 122.365 22.38 122.465 22.3L122.735 22.37C122.855 22.37 123.225 22.51 122.905 22.37C123.098 22.4466 123.283 22.5438 123.455 22.66C123.536 22.7076 123.613 22.761 123.685 22.82C123.475 22.59 123.595 22.74 123.685 22.82L124.085 23.22C124.085 23.22 124.225 23.38 124.085 23.22C124.133 23.2836 124.176 23.3504 124.215 23.42C124.268 23.4999 124.315 23.5834 124.355 23.67C124.535 24.01 124.355 23.51 124.415 23.79C124.475 24.07 124.505 24.08 124.545 24.23C124.585 24.38 124.635 24.62 124.545 24.38C124.455 24.14 124.545 24.5 124.545 24.52C124.555 24.6932 124.555 24.8668 124.545 25.04C124.545 25.18 124.545 25.35 124.545 25.04C124.536 25.1558 124.513 25.2701 124.475 25.38C124.448 25.5323 124.401 25.6802 124.335 25.82C124.335 25.74 124.515 25.55 124.335 25.82C124.335 25.9 124.245 25.99 124.185 26.07L124.055 26.27C124.055 26.27 124.235 26 124.055 26.27C123.914 26.4292 123.76 26.5763 123.595 26.71C123.595 26.71 123.845 26.55 123.595 26.71C123.499 26.7758 123.399 26.8359 123.295 26.89C123.295 26.89 122.945 27.08 123.165 26.97C123.385 26.86 122.955 27.05 122.905 27.06L122.565 27.16C122.495 27.16 122.105 27.24 122.425 27.16C122.199 27.1849 121.971 27.1849 121.745 27.16C122.045 27.16 121.745 27.16 121.675 27.16L121.285 27.03L120.995 26.91C121.235 27.01 120.995 26.91 120.885 26.85C120.775 26.79 120.535 26.64 120.355 26.54C120.175 26.44 120.485 26.67 120.355 26.54C120.225 26.41 120.135 26.34 120.035 26.23C119.751 25.9539 119.371 25.7994 118.975 25.7994C118.579 25.7994 118.199 25.9539 117.915 26.23C117.644 26.5161 117.492 26.8956 117.492 27.29C117.492 27.6845 117.644 28.0639 117.915 28.35L117.835 28.28Z" fill="#A31852"/>
<path d="M117.705 37.79C117.7 37.7068 117.7 37.6233 117.705 37.54C117.705 37.7 117.705 37.71 117.705 37.54C117.705 37.38 117.775 37.24 117.815 37.09C117.855 36.94 117.995 36.53 118.105 36.25C118.215 35.97 118.235 35.9 118.305 35.73C118.215 35.95 118.375 35.59 118.395 35.55C118.415 35.51 118.525 35.31 118.595 35.19L118.745 34.97C118.645 35.09 118.655 35.09 118.745 34.97C119.145 34.5931 119.651 34.3486 120.195 34.2701C119.945 34.2701 120.465 34.2701 120.465 34.2701H120.935L121.935 34.22C122.602 34.1924 123.271 34.2158 123.935 34.29C124.325 34.29 123.805 34.24 124.115 34.29C124.294 34.3228 124.471 34.3662 124.645 34.42C124.535 34.42 124.915 34.56 124.895 34.55C124.635 34.41 124.895 34.55 124.955 34.62C125.015 34.69 124.835 34.44 125.035 34.73C125.147 34.8736 125.251 35.0239 125.345 35.18C125.513 35.4817 125.656 35.796 125.775 36.12C126.06 36.7303 126.262 37.3761 126.375 38.04C126.493 38.4145 126.752 38.7284 127.097 38.915C127.443 39.1017 127.847 39.1465 128.225 39.04C128.593 38.9159 128.901 38.6574 129.086 38.3162C129.271 37.975 129.321 37.5763 129.225 37.2C129.035 36.285 128.729 35.3978 128.315 34.56C128.005 33.7533 127.543 33.0134 126.955 32.38C125.635 31.11 123.465 31.0701 121.745 31.1601C119.835 31.2501 117.885 31.3601 116.525 32.9101C115.946 33.6349 115.502 34.458 115.215 35.34C114.875 36.1139 114.685 36.9453 114.655 37.79C114.655 39.71 117.655 39.72 117.655 37.79H117.705Z" fill="#A31852"/>
<path d="M53.915 14.7001C54.7501 15.5596 55.8107 16.1662 56.975 16.4501C58.4005 16.7405 59.883 16.4527 61.0964 15.65C62.3097 14.8474 63.1545 13.5956 63.4449 12.1701C63.7354 10.7445 63.4476 9.262 62.645 8.04864C61.8423 6.83528 60.5905 5.99047 59.165 5.70005C58.0248 5.45035 56.8325 5.62829 55.8149 6.20005C55.2297 6.55399 54.6892 6.97702 54.205 7.46005C53.2552 8.40161 52.6795 9.65598 52.585 10.99C52.6064 12.1966 52.9858 13.3695 53.675 14.3601C53.8827 14.6981 54.2128 14.9429 54.5966 15.0435C54.9803 15.1441 55.3882 15.0927 55.735 14.9001C56.0745 14.6961 56.3204 14.367 56.4195 13.9835C56.5186 13.6001 56.4631 13.193 56.265 12.85L55.985 12.38C55.9476 12.312 55.9142 12.2419 55.8849 12.1701C55.7049 11.8301 55.9449 12.3701 55.8849 12.1701C55.8249 11.9701 55.765 11.8401 55.715 11.6701C55.665 11.5001 55.535 11.2301 55.585 11.1201V11.3101C55.5803 11.2635 55.5803 11.2166 55.585 11.1701C55.585 10.8701 55.585 11.1701 55.585 11.1701C55.585 11.1701 55.705 10.7201 55.725 10.6701C55.745 10.6201 55.7749 10.5101 55.8049 10.4201C55.8349 10.3301 55.9249 10.1901 55.8049 10.4201C55.9149 10.2101 56.045 10.0001 56.165 9.79005C55.945 10.0001 56.285 9.58005 56.165 9.79005L56.325 9.63005L56.705 9.28006L56.905 9.10005C57.015 9.01005 56.5149 9.39005 56.8149 9.18005C57.0264 9.02403 57.2468 8.88046 57.475 8.75006C57.555 8.70006 57.765 8.63006 57.475 8.75006C57.55 8.7242 57.6269 8.70414 57.705 8.69006C57.705 8.69006 58.085 8.69006 57.845 8.69006H58.045C58.2113 8.70466 58.3786 8.70466 58.545 8.69006C58.275 8.69006 58.445 8.76006 58.545 8.69006L58.825 8.76005C58.945 8.76005 59.3049 8.90005 58.9949 8.76005C59.1882 8.83666 59.3726 8.9339 59.545 9.05006C59.6255 9.0976 59.7024 9.15107 59.775 9.21005C59.565 8.98005 59.675 9.13005 59.775 9.21005C59.875 9.29005 60.045 9.47006 60.175 9.61006C60.175 9.61006 60.305 9.75006 60.175 9.61006C60.2228 9.67367 60.2662 9.74049 60.3049 9.81005L60.4449 10.0601C60.6149 10.4001 60.4449 9.89005 60.4449 10.18C60.4974 10.3239 60.5409 10.4708 60.575 10.6201C60.575 10.6201 60.665 11.0101 60.575 10.7701C60.485 10.5301 60.575 10.8901 60.575 10.9101C60.585 11.0833 60.585 11.2569 60.575 11.43C60.575 11.57 60.575 11.74 60.575 11.43C60.5675 11.5471 60.5404 11.662 60.4949 11.7701C60.4728 11.9234 60.4255 12.0721 60.355 12.21C60.355 12.13 60.535 11.94 60.355 12.21L60.205 12.46L60.075 12.6601C60.075 12.6101 60.245 12.3901 60.075 12.6601C59.9316 12.8168 59.7779 12.9638 59.6149 13.1C59.6149 13.1 59.8649 12.94 59.6149 13.1L59.3149 13.2801L59.175 13.3601C59.365 13.2701 58.975 13.4401 58.925 13.4501L58.585 13.5501C58.515 13.5501 58.1149 13.6301 58.4449 13.5501C58.2156 13.5751 57.9843 13.5751 57.7549 13.5501C58.0649 13.5501 57.7549 13.5501 57.6849 13.5501L57.3049 13.4101L57.0049 13.3001C57.2549 13.4001 57.005 13.3 56.895 13.24C56.785 13.18 56.5549 13.03 56.3749 12.93C56.1949 12.83 56.4949 13.0601 56.3749 12.93C56.2549 12.8 56.1649 12.7301 56.0649 12.6201C55.9276 12.4727 55.7621 12.3545 55.5781 12.2725C55.3941 12.1905 55.1954 12.1464 54.994 12.1429C54.7926 12.1393 54.5925 12.1764 54.4058 12.2518C54.219 12.3273 54.0493 12.4395 53.9069 12.582C53.7644 12.7244 53.6522 12.8941 53.5767 13.0809C53.5013 13.2676 53.4642 13.4677 53.4678 13.6691C53.4713 13.8705 53.5154 14.0691 53.5974 14.2531C53.6794 14.4371 53.7976 14.6027 53.9449 14.74L53.915 14.7001Z" fill="#A31852"/>
<path d="M53.7852 24.2101C53.7801 24.1268 53.7801 24.0433 53.7852 23.9601C53.7852 24.1201 53.7852 24.1301 53.7852 23.9601C53.7852 23.8001 53.8551 23.6601 53.8951 23.5101C53.9351 23.3601 54.0751 22.9501 54.1851 22.6701C54.2951 22.3901 54.3151 22.3201 54.3851 22.1501C54.2951 22.3701 54.4552 22.0101 54.4752 21.9701C54.5341 21.8459 54.6009 21.7257 54.6752 21.6101C54.7158 21.5308 54.7662 21.4569 54.8251 21.3901C54.7251 21.5101 54.7351 21.5101 54.8251 21.3901C55.2238 21.0114 55.7307 20.7667 56.2751 20.6901C56.0251 20.6901 56.5452 20.6901 56.5452 20.6901H57.0151H58.0151C58.6826 20.662 59.3513 20.6854 60.0151 20.7601C60.4051 20.7601 59.8951 20.7101 60.2051 20.7601C60.381 20.7928 60.5546 20.8362 60.7252 20.8901C60.6252 20.8901 61.0052 21.0301 60.9752 21.0201C60.7252 20.8801 60.9752 21.0201 61.0452 21.0901C61.1152 21.1601 60.9151 20.9101 61.1251 21.2001C61.3351 21.4901 61.3451 21.4901 61.4351 21.6501C61.5946 21.9558 61.7381 22.2695 61.8651 22.5901C62.1457 23.202 62.3474 23.8472 62.4651 24.5101C62.5803 24.8828 62.8362 25.196 63.1785 25.3832C63.5207 25.5704 63.9225 25.6169 64.2985 25.5129C64.6745 25.4088 64.9951 25.1623 65.1924 24.8257C65.3897 24.4892 65.4481 24.089 65.3552 23.7101C65.1655 22.7962 64.8632 21.9094 64.4551 21.0701C64.1451 20.261 63.6797 19.5204 63.0851 18.8901C61.7751 17.6201 59.5951 17.5801 57.8851 17.6701C55.9751 17.7601 54.0252 17.8701 52.6652 19.4201C52.0832 20.1445 51.6361 20.9676 51.3452 21.8501C51.0084 22.6245 50.8217 23.4559 50.7952 24.3001C50.7952 26.2201 53.7952 26.2301 53.7952 24.3001L53.7852 24.2101Z" fill="#A31852"/>
<path d="M89.645 70.5599C90.48 71.4195 91.5406 72.0261 92.705 72.3099C93.5945 72.5016 94.5178 72.4684 95.3913 72.2132C96.2648 71.958 97.0608 71.4889 97.7072 70.8484C98.3536 70.208 98.83 69.4163 99.0933 68.5453C99.3566 67.6742 99.3984 66.7512 99.215 65.86C99.0006 64.8012 98.4764 63.83 97.709 63.0698C96.9417 62.3095 95.9657 61.7944 94.905 61.5899C93.7612 61.3506 92.5695 61.528 91.545 62.0899C90.9617 62.4506 90.4215 62.8767 89.9349 63.36C88.9836 64.3005 88.4077 65.5554 88.3149 66.89C88.3338 68.0984 88.7173 69.273 89.415 70.2599C89.5148 70.43 89.6471 70.5788 89.8044 70.6977C89.9617 70.8166 90.1408 70.9034 90.3317 70.953C90.5225 71.0027 90.7212 71.0143 90.9165 70.9872C91.1118 70.9601 91.2999 70.8948 91.47 70.7949C91.64 70.6951 91.7887 70.5628 91.9077 70.4055C92.0266 70.2482 92.1134 70.0691 92.1631 69.8782C92.2128 69.6874 92.2243 69.4887 92.1972 69.2934C92.1701 69.0981 92.1047 68.91 92.0049 68.7399C91.8989 68.5927 91.8021 68.4391 91.715 68.28L91.6149 68.0699C91.4449 67.7299 91.6749 68.2699 91.6149 68.0699C91.5549 67.8699 91.4949 67.7399 91.4449 67.5699C91.3949 67.3999 91.2749 67.12 91.3149 67.02V67.2099C91.3149 67.2099 91.3149 67.1099 91.3149 67.0599C91.3149 66.7699 91.3149 67.0599 91.3149 67.0599C91.3712 66.8969 91.4147 66.7297 91.4449 66.5599C91.4671 66.4752 91.4938 66.3918 91.525 66.3099C91.525 66.2499 91.645 66.0799 91.525 66.3099C91.635 66.0999 91.7749 65.8899 91.8849 65.6799C91.6649 65.8899 91.9949 65.4699 91.8849 65.6799L92.045 65.5099L92.425 65.1699L92.6249 64.9899C92.7349 64.8999 92.235 65.2799 92.545 65.0599C92.855 64.8399 92.9749 64.7699 93.1949 64.6299C93.4149 64.4899 93.4849 64.5099 93.1949 64.6299L93.425 64.5599C93.425 64.5599 93.8149 64.5599 93.5649 64.5599H93.765C93.9311 64.5793 94.0988 64.5793 94.265 64.5599C93.995 64.5099 94.165 64.6299 94.265 64.5599L94.545 64.6299C94.665 64.6299 95.035 64.7699 94.715 64.6299C94.91 64.7026 95.0949 64.8 95.265 64.9199C95.3477 64.964 95.4248 65.0177 95.4949 65.08C95.2849 64.85 95.4049 65 95.4949 65.08L95.895 65.4899C95.895 65.4899 96.035 65.6399 95.895 65.4899C95.9474 65.5502 95.9911 65.6176 96.025 65.69C96.0775 65.7698 96.1243 65.8534 96.165 65.94C96.345 66.28 96.165 65.7699 96.165 66.0599C96.2175 66.2038 96.2609 66.3507 96.295 66.5C96.295 66.5 96.385 66.89 96.295 66.64C96.205 66.39 96.295 66.7699 96.295 66.7899C96.305 66.9631 96.305 67.1368 96.295 67.3099C96.295 67.4399 96.345 67.6199 96.295 67.3099C96.2861 67.4225 96.2625 67.5335 96.225 67.64C96.1963 67.7962 96.1457 67.9477 96.075 68.0899C96.075 68.0099 96.265 67.8199 96.075 68.0899L95.925 68.3399L95.795 68.5399C95.795 68.5399 95.975 68.2699 95.795 68.5399C95.6543 68.7024 95.5004 68.8529 95.335 68.9899C95.335 68.9899 95.585 68.8199 95.335 68.9899C95.2385 69.0557 95.1384 69.1158 95.035 69.17C95.035 69.17 94.685 69.36 94.905 69.25C95.125 69.14 94.695 69.3199 94.645 69.3399L94.3049 69.44C94.2349 69.44 93.835 69.52 94.165 69.44C93.939 69.4649 93.711 69.4649 93.485 69.44C93.785 69.44 93.485 69.44 93.415 69.44C93.345 69.44 93.155 69.35 93.025 69.3C92.9259 69.266 92.8291 69.2259 92.735 69.1799L92.6149 69.1299L92.095 68.8199C91.775 68.6299 92.215 68.9499 92.095 68.8199C91.975 68.6899 91.875 68.6199 91.775 68.5099C91.4912 68.2338 91.1109 68.0794 90.715 68.0794C90.319 68.0794 89.9387 68.2338 89.655 68.5099C89.3835 68.7961 89.2321 69.1755 89.2321 69.5699C89.2321 69.9644 89.3835 70.3438 89.655 70.6299L89.645 70.5599Z" fill="#A31852"/>
<path d="M89.5151 80.0599C89.5102 79.98 89.5102 79.8998 89.5151 79.8199C89.5151 79.9799 89.5151 79.9899 89.5151 79.8199C89.5151 79.6599 89.5851 79.5199 89.6251 79.3699C89.7068 79.0849 89.8036 78.8045 89.9152 78.5299C89.9852 78.3499 90.0451 78.1799 90.1151 78.0099C90.0251 78.2299 90.1851 77.8699 90.2051 77.8299C90.2251 77.7899 90.3352 77.5899 90.4052 77.4699C90.448 77.3888 90.4982 77.3118 90.5551 77.2399C90.4551 77.3699 90.4651 77.3699 90.5551 77.2399C90.9522 76.859 91.4599 76.6139 92.0051 76.5399C91.7551 76.5399 92.2751 76.5399 92.2751 76.5399H92.7451L93.7451 76.4899C94.4126 76.4622 95.0812 76.4856 95.7451 76.5599C96.1351 76.5599 95.6152 76.5099 95.9252 76.5599C96.2352 76.6099 96.2851 76.6399 96.4551 76.6999C96.3451 76.6999 96.7251 76.8399 96.7051 76.8299C96.4451 76.6899 96.7051 76.8299 96.7651 76.8999C96.8251 76.9699 96.6452 76.7099 96.8452 77.0099C96.9575 77.1535 97.061 77.3037 97.1552 77.4599C97.3146 77.7656 97.4581 78.0793 97.5851 78.3999C97.8688 79.0072 98.0706 79.6495 98.1851 80.3099C98.2948 80.6921 98.55 81.0161 98.8959 81.2124C99.2417 81.4087 99.6507 81.4617 100.035 81.3599C100.412 81.2458 100.731 80.9914 100.927 80.6491C101.122 80.3068 101.179 79.9027 101.085 79.5199C100.898 78.604 100.592 77.7164 100.175 76.8799C99.8675 76.0696 99.4017 75.3286 98.8051 74.6999C97.4951 73.4299 95.3252 73.3899 93.6052 73.4799C91.6952 73.5699 89.7451 73.6799 88.3851 75.2299C87.8026 75.9524 87.3585 76.7762 87.0751 77.6599C86.7364 78.4307 86.5464 79.2585 86.5151 80.0999C86.5151 82.0299 89.5151 82.0399 89.5151 80.0999V80.0599Z" fill="#A31852"/>
<path d="M131.885 93.03C132.72 93.8896 133.781 94.4962 134.945 94.78C135.649 94.9238 136.374 94.9276 137.079 94.7911C137.785 94.6546 138.456 94.3804 139.056 93.9844C139.655 93.5884 140.171 93.0782 140.573 92.4829C140.975 91.8876 141.256 91.2189 141.4 90.515C141.544 89.8112 141.548 89.0858 141.411 88.3805C141.274 87.6752 141 87.0036 140.604 86.4042C140.208 85.8048 139.698 85.2893 139.103 84.8871C138.508 84.4849 137.839 84.2038 137.135 84.06C135.994 83.8205 134.806 83.9979 133.785 84.56C133.2 84.9181 132.659 85.3444 132.175 85.83C131.224 86.7705 130.648 88.0255 130.555 89.36C130.576 90.5666 130.956 91.7395 131.645 92.73C131.745 92.9001 131.877 93.0488 132.034 93.1678C132.192 93.2867 132.371 93.3735 132.562 93.4232C132.752 93.4728 132.951 93.4844 133.147 93.4573C133.342 93.4302 133.53 93.3648 133.7 93.265C133.87 93.1652 134.019 93.0329 134.138 92.8756C134.257 92.7184 134.343 92.5392 134.393 92.3484C134.443 92.1575 134.454 91.9588 134.427 91.7635C134.4 91.5681 134.335 91.3801 134.235 91.2101C134.132 91.0627 134.039 90.909 133.955 90.75L133.845 90.54C133.675 90.2 133.915 90.74 133.845 90.54C133.775 90.34 133.725 90.21 133.675 90.04C133.625 89.87 133.495 89.59 133.545 89.49V89.6801C133.54 89.6302 133.54 89.5799 133.545 89.53C133.545 89.24 133.545 89.53 133.545 89.53C133.611 89.3699 133.654 89.2018 133.675 89.03L133.765 88.78C133.765 88.72 133.885 88.55 133.765 88.78C133.875 88.57 134.005 88.36 134.125 88.15C133.905 88.36 134.245 87.94 134.125 88.15L134.285 87.98L134.665 87.64L134.865 87.46C134.965 87.37 134.475 87.75 134.775 87.53L135.435 87.1C135.515 87.1 135.725 86.98 135.435 87.1L135.665 87.03C135.665 87.03 136.045 87.03 135.805 87.03H135.995C136.164 87.0496 136.336 87.0496 136.505 87.03C136.225 86.98 136.405 87.1 136.505 87.03L136.785 87.1C136.905 87.1 137.265 87.24 136.955 87.1C137.15 87.1726 137.335 87.2701 137.505 87.39C137.588 87.4341 137.665 87.4878 137.735 87.55C137.515 87.32 137.635 87.47 137.735 87.55C137.835 87.63 138.005 87.82 138.125 87.96C138.125 87.96 138.245 88.1 138.125 87.96C138.177 88.0203 138.221 88.0877 138.255 88.16L138.395 88.41C138.565 88.75 138.395 88.24 138.395 88.53C138.395 88.82 138.495 88.82 138.525 88.97C138.555 89.12 138.615 89.36 138.525 89.11C138.435 88.86 138.525 89.24 138.525 89.26C138.535 89.4332 138.535 89.6068 138.525 89.78C138.525 89.91 138.575 90.09 138.525 89.78C138.526 89.8938 138.502 90.0065 138.455 90.11C138.434 90.2669 138.387 90.4191 138.315 90.56C138.315 90.48 138.495 90.29 138.315 90.56L138.175 90.81L138.045 91.01C138.045 90.96 138.215 90.74 138.045 91.01C137.904 91.1725 137.75 91.323 137.585 91.4601C137.585 91.4601 137.835 91.2901 137.585 91.4601L137.285 91.64L137.145 91.72C137.335 91.63 136.945 91.79 136.885 91.81L136.555 91.91C136.485 91.91 136.085 91.99 136.405 91.91C136.179 91.9351 135.951 91.9351 135.725 91.91C136.035 91.91 135.725 91.91 135.655 91.91L135.275 91.77L134.975 91.6501L134.865 91.6L134.345 91.29C134.015 91.1 134.465 91.42 134.295 91.29L133.985 90.98C133.848 90.8327 133.682 90.7145 133.498 90.6325C133.314 90.5505 133.115 90.5064 132.914 90.5029C132.713 90.4993 132.513 90.5363 132.326 90.6118C132.139 90.6872 131.969 90.7995 131.827 90.942C131.684 91.0844 131.572 91.2541 131.497 91.4409C131.421 91.6276 131.384 91.8277 131.388 92.0291C131.391 92.2305 131.435 92.4291 131.517 92.6131C131.599 92.7971 131.718 92.9627 131.865 93.1L131.885 93.03Z" fill="#A31852"/>
<path d="M131.755 102.53C131.745 102.45 131.745 102.37 131.755 102.29C131.755 102.45 131.755 102.46 131.755 102.29C131.755 102.13 131.825 101.99 131.865 101.84C131.947 101.555 132.044 101.275 132.155 101C132.215 100.82 132.285 100.65 132.355 100.48C132.255 100.7 132.425 100.34 132.445 100.3C132.465 100.26 132.565 100.06 132.635 99.94L132.785 99.71C132.695 99.84 132.695 99.84 132.785 99.71C133.177 99.3275 133.682 99.082 134.225 99.01C133.985 99.01 134.505 99.01 134.505 99.01H134.975L135.975 98.96C136.643 98.9323 137.311 98.9557 137.975 99.03C138.365 99.03 137.845 99.03 138.165 99.03C138.485 99.03 138.515 99.11 138.685 99.17C138.585 99.17 138.965 99.31 138.935 99.3C138.685 99.16 138.935 99.3 139.005 99.37C139.075 99.44 138.875 99.18 139.085 99.48C139.185 99.63 139.305 99.77 139.395 99.93C139.555 100.236 139.698 100.549 139.825 100.87C140.088 101.455 140.279 102.069 140.395 102.7C140.439 102.899 140.522 103.087 140.64 103.252C140.759 103.418 140.91 103.557 141.084 103.663C141.258 103.768 141.451 103.837 141.653 103.865C141.855 103.893 142.06 103.88 142.256 103.826C142.452 103.773 142.636 103.68 142.795 103.553C142.954 103.426 143.086 103.268 143.182 103.089C143.278 102.91 143.337 102.713 143.355 102.51C143.372 102.307 143.349 102.103 143.285 101.91C143.097 100.996 142.795 100.109 142.385 99.27C142.074 98.4616 141.608 97.7213 141.015 97.09C139.695 95.82 137.525 95.78 135.815 95.87C133.905 95.96 131.955 96.07 130.585 97.62C130.01 98.3473 129.567 99.1697 129.275 100.05C128.935 100.82 128.748 101.649 128.725 102.49C128.725 104.42 131.725 104.43 131.725 102.49L131.755 102.53Z" fill="#A31852"/>
<path d="M75.175 130.64C76.0138 131.5 77.0776 132.106 78.2449 132.39C79.1338 132.58 80.0559 132.545 80.928 132.289C81.8 132.033 82.5946 131.563 83.2397 130.923C83.8849 130.283 84.3604 129.492 84.6232 128.622C84.886 127.752 84.9278 126.83 84.7449 125.94C84.5263 124.879 83.9951 123.909 83.2198 123.153C82.4445 122.398 81.4606 121.891 80.395 121.7C79.2515 121.45 78.0563 121.628 77.035 122.2C76.4472 122.554 75.9063 122.981 75.425 123.47C74.4743 124.407 73.8982 125.658 73.8049 126.99C73.8238 128.198 74.2072 129.373 74.905 130.36C75.0001 130.538 75.1301 130.694 75.2871 130.821C75.4442 130.947 75.6251 131.04 75.819 131.095C76.013 131.15 76.216 131.165 76.416 131.14C76.6159 131.115 76.8087 131.049 76.9828 130.948C77.1569 130.846 77.3088 130.711 77.4294 130.549C77.5499 130.388 77.6367 130.203 77.6845 130.008C77.7323 129.812 77.7401 129.608 77.7076 129.409C77.675 129.211 77.6027 129.02 77.4949 128.85C77.3889 128.699 77.2921 128.542 77.205 128.38L77.105 128.17C76.935 127.83 77.165 128.37 77.105 128.17C77.045 127.97 76.9849 127.84 76.9349 127.67C76.8849 127.5 76.7649 127.23 76.8049 127.12V127.31C76.8049 127.26 76.8049 127.22 76.8049 127.17C76.8049 126.87 76.8049 127.17 76.8049 127.17C76.86 127.003 76.9034 126.833 76.9349 126.66C76.9349 126.58 76.985 126.5 77.015 126.41C77.045 126.32 77.135 126.18 77.015 126.41C77.125 126.2 77.2649 125.99 77.3749 125.78C77.1549 125.99 77.4849 125.57 77.3749 125.78L77.535 125.62L77.915 125.27L78.1249 125.09C78.2249 125 77.725 125.38 78.035 125.17C78.345 124.96 78.4649 124.87 78.6849 124.74C78.9049 124.61 78.9749 124.62 78.6849 124.74C78.7603 124.715 78.8372 124.695 78.915 124.68C78.915 124.68 79.3049 124.68 79.0549 124.68H79.2549C79.4213 124.694 79.5886 124.694 79.7549 124.68C79.4849 124.63 79.6549 124.75 79.7549 124.68L80.035 124.75C80.155 124.75 80.525 124.89 80.205 124.75C80.3982 124.826 80.5826 124.924 80.7549 125.04C80.8355 125.087 80.9124 125.141 80.985 125.2C80.775 124.97 80.895 125.12 80.985 125.2L81.3849 125.6C81.3849 125.6 81.5249 125.76 81.3849 125.6C81.4328 125.663 81.4762 125.73 81.515 125.8C81.5675 125.88 81.6143 125.963 81.655 126.05C81.835 126.39 81.655 125.89 81.715 126.17C81.775 126.45 81.805 126.46 81.845 126.61C81.885 126.76 81.925 127 81.845 126.76C81.765 126.52 81.845 126.88 81.845 126.9C81.855 127.073 81.855 127.247 81.845 127.42C81.845 127.56 81.845 127.73 81.845 127.42C81.8361 127.536 81.8126 127.65 81.775 127.76C81.7435 127.911 81.6966 128.058 81.6349 128.2C81.6349 128.12 81.8149 127.93 81.6349 128.2C81.6349 128.28 81.545 128.37 81.485 128.45L81.355 128.65C81.355 128.6 81.535 128.38 81.355 128.65C81.2116 128.807 81.0579 128.954 80.895 129.09C80.895 129.09 81.145 128.93 80.895 129.09C80.7985 129.156 80.6984 129.216 80.595 129.27C80.595 129.27 80.245 129.46 80.465 129.35C80.685 129.24 80.255 129.43 80.205 129.44L79.8649 129.54C79.7949 129.54 79.405 129.62 79.725 129.54C79.499 129.565 79.271 129.565 79.045 129.54C79.345 129.54 79.045 129.54 78.975 129.54L78.585 129.41L78.295 129.29C78.535 129.39 78.295 129.29 78.175 129.23C78.055 129.17 77.835 129.02 77.655 128.92C77.475 128.82 77.775 129.05 77.655 128.92C77.535 128.79 77.435 128.72 77.335 128.61C77.0512 128.334 76.6709 128.179 76.275 128.179C75.879 128.179 75.4987 128.334 75.215 128.61C74.9435 128.896 74.7921 129.275 74.7921 129.67C74.7921 130.064 74.9435 130.444 75.215 130.73L75.175 130.64Z" fill="#A31852"/>
<path d="M75.0452 140.15C75.0402 140.067 75.0402 139.983 75.0452 139.9C75.0452 140.06 75.0452 140.07 75.0452 139.9C75.0452 139.74 75.1152 139.6 75.1552 139.45C75.1952 139.3 75.3351 138.89 75.4451 138.61C75.5551 138.33 75.5751 138.26 75.6451 138.09C75.5551 138.31 75.7152 137.95 75.7352 137.91C75.7552 137.87 75.8651 137.67 75.9351 137.55L76.0851 137.33C75.9851 137.45 75.9951 137.45 76.0851 137.33C76.4849 136.953 76.9913 136.708 77.5352 136.63C77.2852 136.63 77.8051 136.63 77.8051 136.63H78.2751L79.2751 136.58C79.9426 136.552 80.6112 136.576 81.2751 136.65C81.6651 136.65 81.1451 136.6 81.4551 136.65C81.6342 136.683 81.8113 136.726 81.9852 136.78C81.8752 136.78 82.2552 136.92 82.2352 136.91C81.9752 136.77 82.2352 136.91 82.2952 136.98C82.3552 137.05 82.1751 136.8 82.3751 137.09C82.4875 137.234 82.591 137.384 82.6851 137.54C82.8486 137.844 82.9922 138.158 83.1151 138.48C83.4002 139.09 83.602 139.736 83.7151 140.4C83.833 140.774 84.0921 141.088 84.4374 141.275C84.7828 141.462 85.1873 141.506 85.5651 141.4C85.9423 141.286 86.2615 141.031 86.4568 140.689C86.6521 140.347 86.7088 139.943 86.6151 139.56C86.4252 138.645 86.1194 137.758 85.7051 136.92C85.3951 136.111 84.9297 135.37 84.3351 134.74C83.0251 133.47 80.8551 133.43 79.1351 133.52C77.2251 133.61 75.2752 133.72 73.9152 135.27C73.3327 135.992 72.8886 136.816 72.6052 137.7C72.2652 138.474 72.0751 139.305 72.0452 140.15C72.0452 142.07 75.0452 142.08 75.0452 140.15Z" fill="#A31852"/>
<path d="M39.8651 73.9101C40.7018 74.7707 41.7669 75.3744 42.9351 75.6501C43.6502 75.8258 44.3934 75.8552 45.1202 75.7367C45.8469 75.6182 46.5423 75.3542 47.1646 74.9605C47.7868 74.5668 48.3232 74.0515 48.7415 73.4455C49.1598 72.8395 49.4515 72.1553 49.5991 71.4338C49.7466 70.7124 49.7469 69.9686 49.6 69.2471C49.4532 68.5255 49.1622 67.841 48.7444 67.2346C48.3266 66.6283 47.7907 66.1125 47.1688 65.7182C46.5469 65.3239 45.8518 65.0593 45.1251 64.9401C43.9816 64.6907 42.7864 64.8686 41.7651 65.4401C41.1796 65.7976 40.6391 66.2239 40.1552 66.7101C39.2083 67.6497 38.6329 68.8998 38.5352 70.2301C38.554 71.4386 38.9374 72.6132 39.6351 73.6001C39.7303 73.7778 39.8603 73.9345 40.0173 74.0608C40.1744 74.1871 40.3552 74.2805 40.5492 74.3354C40.7431 74.3903 40.9462 74.4055 41.1461 74.3801C41.3461 74.3548 41.5389 74.2894 41.713 74.1879C41.8871 74.0864 42.039 73.9508 42.1595 73.7893C42.2801 73.6278 42.3669 73.4436 42.4147 73.2478C42.4625 73.052 42.4704 72.8486 42.4378 72.6497C42.4052 72.4507 42.3329 72.2604 42.2252 72.0901C42.1191 71.9394 42.0222 71.7825 41.9351 71.6201L41.8351 71.4101C41.6651 71.0701 41.8951 71.6101 41.8351 71.4101C41.7751 71.2101 41.7052 71.0701 41.6552 70.9001C41.6052 70.7301 41.4852 70.4601 41.5352 70.3501V70.5401C41.5352 70.5401 41.5352 70.4501 41.5352 70.4001C41.5352 70.1101 41.5352 70.4001 41.5352 70.4001C41.5902 70.2333 41.6337 70.0629 41.6652 69.8901C41.6963 69.8117 41.723 69.7315 41.7451 69.6501C41.7451 69.5801 41.8751 69.4101 41.7451 69.6501C41.8651 69.4301 41.9952 69.2201 42.1052 69.0101C41.8852 69.2201 42.2152 68.8001 42.1052 69.0101L42.2651 68.8501L42.6451 68.5001L42.8552 68.3201C42.9552 68.2301 42.4551 68.6101 42.7651 68.4001C43.0751 68.1901 43.1952 68.1001 43.4252 67.9701C43.4952 67.9201 43.7052 67.8501 43.4252 67.9701L43.6552 67.9101C43.6552 67.9101 44.0451 67.9101 43.8051 67.9101H43.9951C44.1645 67.9299 44.3357 67.9299 44.5051 67.9101C44.2251 67.9101 44.4051 67.9901 44.5051 67.9101L44.7751 67.9801C44.8951 67.9801 45.2651 68.1201 44.9451 67.9801C45.1384 68.0567 45.3227 68.154 45.4951 68.2701C45.5757 68.3177 45.6526 68.3711 45.7252 68.4301C45.5152 68.2001 45.6352 68.3501 45.7252 68.4301L46.1251 68.8301C46.1251 68.8301 46.2651 68.9901 46.1251 68.8301C46.1251 68.8301 46.2351 68.9901 46.2551 69.0201L46.3951 69.2701C46.5751 69.6101 46.3951 69.1101 46.4551 69.3901C46.5151 69.6701 46.5451 69.6801 46.5851 69.8401C46.5851 69.8401 46.6751 70.2201 46.5851 69.9801C46.4951 69.7401 46.5851 70.1001 46.5851 70.1201C46.5951 70.2966 46.5951 70.4736 46.5851 70.6501C46.5851 70.7801 46.6451 70.9501 46.5851 70.6501C46.5763 70.766 46.5528 70.8802 46.5151 70.9901C46.4897 71.1427 46.4426 71.2909 46.3751 71.4301C46.3751 71.3501 46.5551 71.1601 46.3751 71.4301C46.3311 71.5169 46.281 71.6004 46.2252 71.6801L46.0952 71.8801C46.1452 71.8801 46.2752 71.6101 46.0952 71.8801C45.9544 72.0425 45.8005 72.193 45.6351 72.3301C45.6351 72.3301 45.8851 72.1601 45.6351 72.3301L45.3351 72.5201L45.2051 72.5901C45.3951 72.5001 44.9951 72.6701 44.9451 72.6801L44.6052 72.7801C44.5452 72.7801 44.1451 72.8601 44.4651 72.7801C44.2392 72.8051 44.0111 72.8051 43.7852 72.7801C44.0852 72.7801 43.7851 72.7801 43.7151 72.7801L43.3251 72.6501L43.0352 72.5301C43.2752 72.6301 43.0352 72.5301 42.9252 72.4701C42.8152 72.4101 42.5752 72.2601 42.4052 72.1601C42.0752 71.9701 42.5252 72.2901 42.3552 72.1601C42.2412 72.0646 42.1343 71.961 42.0352 71.8501C41.7514 71.574 41.3711 71.4195 40.9752 71.4195C40.5792 71.4195 40.1989 71.574 39.9152 71.8501C39.643 72.1379 39.4913 72.519 39.4913 72.9151C39.4913 73.3112 39.643 73.6923 39.9152 73.9801L39.8651 73.9101Z" fill="#A31852"/>
<path d="M39.7351 83.4099C39.7301 83.33 39.7301 83.2498 39.7351 83.1699C39.7351 83.3199 39.7351 83.3299 39.7351 83.1699C39.7351 83.0199 39.8051 82.8599 39.8451 82.7099C39.8851 82.5599 40.0251 82.1499 40.1351 81.8699C40.2451 81.5899 40.2651 81.5199 40.3351 81.3499C40.2451 81.5699 40.4051 81.2099 40.4251 81.1699C40.4451 81.1299 40.5551 80.9299 40.6251 80.8099L40.7751 80.5899C40.6751 80.7099 40.6851 80.7099 40.7751 80.5899C41.1774 80.2166 41.6826 79.9728 42.2251 79.8899C41.9751 79.8899 42.4951 79.8899 42.4951 79.8899H42.9651L43.9651 79.8399C44.6326 79.8173 45.3008 79.8407 45.9651 79.9099C46.3551 79.9099 45.8351 79.9099 46.1451 79.9099C46.3254 79.9412 46.5028 79.9881 46.6751 80.0499C46.5651 80.0499 46.9451 80.1799 46.9251 80.1699C46.6651 80.0299 46.9251 80.1699 46.9851 80.2399C47.0451 80.3099 46.8651 80.0599 47.0651 80.3499C47.1774 80.4935 47.2809 80.6438 47.3751 80.7999C47.5399 81.1044 47.6868 81.4183 47.8151 81.7399C48.0912 82.3536 48.2927 82.9982 48.4151 83.6599C48.5203 84.0429 48.7731 84.3684 49.118 84.5653C49.463 84.7621 49.8718 84.8141 50.2551 84.7099C50.6252 84.5857 50.9343 84.3256 51.12 83.9822C51.3056 83.6387 51.3539 83.2376 51.2551 82.8599C51.0654 81.9493 50.7632 81.0658 50.3551 80.2299C50.0399 79.4204 49.5752 78.6774 48.9851 78.0399C47.6651 76.7699 45.4951 76.7399 43.7751 76.8199C41.8651 76.9099 39.9151 77.0299 38.5551 78.5699C37.974 79.297 37.5301 80.1238 37.2451 81.0099C36.9051 81.7803 36.7151 82.6084 36.6851 83.4499C36.6851 85.3799 39.6851 85.3799 39.6851 83.4499L39.7351 83.4099Z" fill="#A31852"/>
<path d="M11.7751 126.08C12.6102 126.94 13.6708 127.546 14.8351 127.83C15.7246 128.022 16.648 127.988 17.5214 127.733C18.3949 127.478 19.1909 127.009 19.8373 126.369C20.4838 125.728 20.9602 124.936 21.2234 124.065C21.4867 123.194 21.5285 122.271 21.3451 121.38C21.1307 120.321 20.6066 119.35 19.8392 118.59C19.0718 117.83 18.0958 117.315 17.0351 117.11C15.8903 116.868 14.6966 117.049 13.6751 117.62C13.0899 117.974 12.5493 118.397 12.0651 118.88C11.1153 119.822 10.5396 121.076 10.4451 122.41C10.4665 123.617 10.8459 124.789 11.5351 125.78C11.7353 126.125 12.0643 126.376 12.4497 126.478C12.8351 126.58 13.2453 126.525 13.5901 126.325C13.9349 126.125 14.186 125.796 14.2882 125.41C14.3904 125.025 14.3353 124.615 14.1351 124.27C14.0251 124.11 13.9351 123.96 13.8451 123.8L13.7451 123.59C13.5751 123.25 13.8051 123.79 13.7451 123.59C13.6851 123.39 13.6251 123.26 13.5751 123.09C13.5251 122.92 13.4051 122.65 13.4451 122.54V122.73C13.4451 122.68 13.4451 122.63 13.4451 122.59C13.4451 122.29 13.4451 122.59 13.4451 122.59C13.4451 122.59 13.5651 122.14 13.5851 122.09C13.6051 122.04 13.6351 121.93 13.6651 121.84C13.6951 121.75 13.7851 121.61 13.6651 121.84C13.7751 121.63 13.9151 121.42 14.0251 121.21C13.8051 121.42 14.1351 121 14.0251 121.21L14.1851 121.05L14.5651 120.7L14.7651 120.52C14.8751 120.43 14.3751 120.81 14.6851 120.6C14.9951 120.39 15.1151 120.3 15.3351 120.16C15.5551 120.02 15.6251 120.04 15.3351 120.16L15.5651 120.09C15.5651 120.09 15.9551 120.09 15.7051 120.09C15.4551 120.09 15.8551 120.09 15.9051 120.09C16.0712 120.109 16.239 120.109 16.4051 120.09C16.1351 120.04 16.3051 120.16 16.4051 120.09L16.6851 120.16C16.8051 120.16 17.1651 120.3 16.8551 120.16C17.0501 120.233 17.235 120.33 17.4051 120.45C17.4878 120.494 17.565 120.548 17.6351 120.61C17.4251 120.38 17.5451 120.53 17.6351 120.61L18.0351 121.01C18.0351 121.01 18.1751 121.16 18.0351 121.01C18.083 121.074 18.1264 121.14 18.1651 121.21C18.2177 121.29 18.2644 121.373 18.3051 121.46C18.4751 121.8 18.3051 121.29 18.3051 121.58C18.3575 121.724 18.401 121.871 18.4351 122.02C18.4351 122.02 18.5251 122.41 18.4351 122.16C18.3451 121.91 18.4351 122.29 18.4351 122.31C18.4451 122.483 18.4451 122.657 18.4351 122.83C18.4351 122.96 18.4851 123.14 18.4351 122.83C18.4262 122.946 18.4027 123.06 18.3651 123.17C18.3347 123.323 18.2843 123.471 18.2151 123.61C18.2151 123.53 18.4051 123.34 18.2151 123.61L18.0651 123.86L17.9351 124.06C17.9351 124.01 18.1151 123.79 17.9351 124.06C17.7917 124.217 17.638 124.364 17.4751 124.5C17.4751 124.5 17.7251 124.33 17.4751 124.5C17.3787 124.566 17.2785 124.626 17.1751 124.68C17.1751 124.68 16.8251 124.87 17.0451 124.76C17.2651 124.65 16.8351 124.84 16.7851 124.85L16.4451 124.95C16.3751 124.95 15.9751 125.03 16.3051 124.95C16.0791 124.975 15.851 124.975 15.6251 124.95C15.9251 124.95 15.6251 124.95 15.5551 124.95C15.4851 124.95 15.2951 124.86 15.1651 124.81L14.8651 124.7C15.1151 124.8 14.8651 124.7 14.7551 124.64C14.6451 124.58 14.4151 124.43 14.2351 124.33C14.0551 124.23 14.3551 124.46 14.2351 124.33C14.1151 124.2 14.0151 124.13 13.9151 124.02C13.6313 123.744 13.251 123.589 12.8551 123.589C12.4592 123.589 12.0789 123.744 11.7951 124.02C11.5236 124.306 11.3722 124.686 11.3722 125.08C11.3722 125.474 11.5236 125.854 11.7951 126.14L11.7751 126.08Z" fill="#A31852"/>
<path d="M11.645 135.58C11.64 135.5 11.64 135.42 11.645 135.34C11.645 135.5 11.645 135.51 11.645 135.34C11.645 135.18 11.715 135.04 11.755 134.89C11.795 134.74 11.935 134.33 12.045 134.05C12.155 133.77 12.175 133.7 12.245 133.53C12.155 133.75 12.315 133.39 12.335 133.35C12.355 133.31 12.465 133.11 12.535 132.99C12.5757 132.911 12.626 132.837 12.685 132.77C12.585 132.89 12.595 132.89 12.685 132.77C13.0848 132.393 13.5912 132.149 14.135 132.07C13.885 132.07 14.405 132.07 14.405 132.07H14.875L15.875 132.02C16.5425 131.992 17.2111 132.016 17.875 132.09C18.255 132.09 17.745 132.04 18.055 132.09C18.365 132.14 18.415 132.17 18.585 132.23C18.475 132.23 18.855 132.37 18.835 132.36C18.575 132.22 18.835 132.36 18.895 132.43C18.955 132.5 18.775 132.24 18.975 132.54C19.075 132.69 19.195 132.83 19.285 132.99C19.4445 133.296 19.588 133.61 19.715 133.93C20.0001 134.54 20.2019 135.186 20.315 135.85C20.435 136.223 20.6945 136.535 21.0392 136.722C21.3839 136.908 21.7872 136.954 22.165 136.85C22.5423 136.736 22.8614 136.482 23.0567 136.139C23.252 135.797 23.3087 135.393 23.215 135.01C23.0266 134.095 22.7207 133.207 22.305 132.37C21.9973 131.56 21.5316 130.819 20.935 130.19C19.625 128.92 17.455 128.88 15.735 128.97C13.825 129.06 11.875 129.17 10.515 130.72C9.93252 131.443 9.48842 132.266 9.20502 133.15C8.86152 133.919 8.67131 134.748 8.64502 135.59C8.64502 137.52 11.645 137.53 11.645 135.59V135.58Z" fill="#A31852"/>
</g>
<defs>
<clipPath id="clip0_8853_1082">
<rect width="151.19" height="147.88" fill="white" transform="translate(0.405029)"/>
</clipPath>
</defs>
</svg>
