<svg width="29" height="34" viewBox="0 0 29 34" fill="none" xmlns="http://www.w3.org/2000/svg"><path d="M3.70833 24.7502H25.2917V14.0063C25.2917 8.02 20.4601 3.16683 14.5 3.16683C8.53992 3.16683 3.70833 8.02 3.70833 14.0063V24.7502ZM14.5 0.0834961C22.1621 0.0834961 28.375 6.31645 28.375 14.0063V27.8335H0.625V14.0063C0.625 6.31645 6.83792 0.0834961 14.5 0.0834961ZM10.6458 29.3752H18.3542C18.3542 30.3974 17.9481 31.3777 17.2253 32.1005C16.5025 32.8233 15.5222 33.2293 14.5 33.2293C13.4778 33.2293 12.4975 32.8233 11.7747 32.1005C11.0519 31.3777 10.6458 30.3974 10.6458 29.3752Z"/></svg>
