<svg width="24" height="27" viewBox="0 0 24 27" fill="none" xmlns="http://www.w3.org/2000/svg"><path d="M11.8015 24.7781C11.9476 24.9394 12.1201 25.0747 12.3116 25.1781C12.4881 25.2757 12.672 25.3593 12.8615 25.4281C13.3226 25.5899 13.8287 25.5648 14.2715 25.3581C14.7381 25.17 15.1165 24.8129 15.3315 24.3581C15.5114 24.0113 15.59 23.6207 15.5582 23.2313C15.5264 22.8418 15.3855 22.4692 15.1517 22.1561C14.918 21.843 14.6007 21.6021 14.2364 21.461C13.872 21.3198 13.4752 21.2842 13.0916 21.3581C12.9871 21.3763 12.886 21.41 12.7915 21.4581C12.7082 21.4988 12.628 21.5456 12.5515 21.5981C12.337 21.739 12.1361 21.8997 11.9515 22.0781C11.7364 22.3055 11.5697 22.5743 11.4615 22.8681C11.3947 23.0485 11.351 23.2367 11.3315 23.4281C11.3729 23.901 11.5347 24.3555 11.8015 24.7481"/><path d="M6.50144 18.3881L6.65144 14.3281C6.62785 12.9903 6.71145 11.6527 6.90144 10.3281C7.20312 9.22002 7.78913 8.20999 8.60142 7.39814C9.29775 6.54034 10.1492 5.82117 11.1114 5.27815C11.9232 4.90269 12.807 4.7082 13.7014 4.7082C14.5959 4.7082 15.4796 4.90269 16.2914 5.27815C17.209 5.73171 18.0116 6.38769 18.6387 7.19666C19.2658 8.00563 19.7009 8.94645 19.9114 9.94813C20.6914 12.8381 20.3414 15.9481 20.3814 18.8581L21.6314 17.6081C18.9514 17.7181 16.2714 17.4381 13.5814 17.4581C12.1514 17.4581 10.7414 17.6381 9.32142 17.6481C7.90142 17.6581 6.58144 17.5981 5.22144 17.4781C3.61144 17.3481 3.62144 19.8481 5.22144 19.9781C6.58144 20.0981 7.95142 20.1581 9.32142 20.1481C10.6914 20.1381 12.1514 19.9681 13.5814 19.9581C16.2714 19.9581 18.9514 20.2181 21.6314 20.1081C21.9613 20.103 22.2763 19.9696 22.5096 19.7363C22.7429 19.503 22.8763 19.188 22.8814 18.8581C22.8114 13.4781 23.5614 6.35812 17.9414 3.31812C16.8977 2.747 15.7491 2.39321 14.565 2.27805C13.3808 2.1629 12.1856 2.2888 11.0514 2.64814C8.49522 3.6492 6.38847 5.54278 5.12144 7.97813C4.45847 9.48124 4.15052 11.1168 4.22144 12.7581L4.00144 18.3881C3.93144 19.9981 6.43144 19.9981 6.50144 18.3881Z"/></svg>
