<svg width="26" height="26" viewBox="0 0 26 26" fill="none" xmlns="http://www.w3.org/2000/svg">
<g clip-path="url(#clip0_8632_24061)">
<path d="M12.6555 19.6212C12.7238 19.6981 12.805 19.7624 12.8955 19.8112L13.1555 19.9212C13.2598 19.9657 13.3721 19.9887 13.4855 19.9887C13.5989 19.9887 13.7112 19.9657 13.8155 19.9212C14.0345 19.8329 14.2152 19.6699 14.3255 19.4612C14.3986 19.3005 14.4278 19.1234 14.4103 18.9477C14.3927 18.7721 14.329 18.6042 14.2255 18.4612C14.1119 18.3097 13.9576 18.1935 13.7806 18.1263C13.6036 18.059 13.4111 18.0434 13.2255 18.0812C13.1729 18.0887 13.1221 18.1056 13.0755 18.1312C13.0367 18.1509 12.9998 18.1744 12.9655 18.2012C12.8632 18.2662 12.7692 18.3434 12.6855 18.4312C12.5826 18.5361 12.5041 18.6624 12.4555 18.8012C12.4156 18.882 12.395 18.971 12.3955 19.0612C12.4109 19.2871 12.4869 19.5048 12.6155 19.6912" fill="#FFC834"/>
<path d="M4.28551 20.5412C6.1457 22.4552 8.51626 23.795 11.1155 24.4012C13.7745 24.9413 16.539 24.5083 18.9055 23.1812C20.9943 22.0329 22.6739 20.2629 23.7112 18.1167C24.7484 15.9706 25.0919 13.5548 24.694 11.2046C24.2961 8.85444 23.1765 6.68643 21.4905 5.00139C19.8046 3.31635 17.6359 2.19786 15.2855 1.8012C13.0594 1.33718 10.7407 1.69227 8.75551 2.8012C7.41489 3.62594 6.17632 4.60604 5.0655 5.72118C3.12298 7.64937 1.91657 10.1966 1.6555 12.9212C1.5155 15.4412 2.77551 18.3312 4.16551 20.3712C4.70551 21.1612 6.00551 20.3712 5.46551 19.6112C4.31806 17.9494 3.55305 16.054 3.22551 14.0612C2.91551 11.9812 3.9355 9.6712 5.0955 7.9912C5.91941 6.84351 6.93413 5.84569 8.0955 5.04119C9.50766 3.86937 11.2625 3.18847 13.0955 3.10118C15.1805 3.04647 17.2304 3.64508 18.9583 4.81316C20.6862 5.98124 22.0057 7.66038 22.732 9.61553C23.4583 11.5707 23.555 13.704 23.0088 15.7168C22.4625 17.7297 21.3006 19.5214 19.6855 20.8412C17.6288 22.513 15.0078 23.3294 12.3655 23.1212C9.6685 22.7472 7.17887 21.4671 5.30551 19.4912C4.65551 18.7712 3.59551 19.8312 4.24551 20.5512L4.28551 20.5412Z" fill="#FFC834"/>
<path d="M5.57551 6.64124C10.3855 11.5312 15.1655 16.4512 20.2155 21.0812C20.9255 21.7412 21.9855 20.6812 21.2755 20.0212C16.2755 15.3912 11.4455 10.4712 6.6455 5.58125C6.50494 5.43936 6.31376 5.3591 6.11404 5.35816C5.91431 5.35722 5.72239 5.43568 5.5805 5.57624C5.43861 5.71681 5.35837 5.90795 5.35743 6.10767C5.35649 6.3074 5.43494 6.49935 5.57551 6.64124V6.64124Z" fill="#FFC834"/>
<path d="M21.5155 10.6012C19.8455 8.26121 16.6055 7.15125 13.8555 6.89125C10.9555 6.62125 7.78549 7.4112 5.85549 9.7212C5.28549 10.4012 6.26549 11.4012 6.85549 10.7212C7.70659 9.80563 8.76404 9.1066 9.93985 8.6822C11.1157 8.2578 12.3758 8.12028 13.6155 8.2812C15.8955 8.4512 18.9255 9.3712 20.3155 11.2812C20.8355 12.0112 22.0455 11.2812 21.5255 10.5712L21.5155 10.6012Z" fill="#FFC834"/>
<path d="M18.5255 12.7612C17.1327 11.5402 15.3742 10.8157 13.5255 10.7012C11.6853 10.4724 9.82953 10.9831 8.36551 12.1212C7.66551 12.7012 8.66551 13.6912 9.36551 13.1212C10.5682 12.2488 12.0679 11.8892 13.5355 12.1212C15.0118 12.226 16.4147 12.8047 17.5355 13.7712C18.1855 14.3912 19.1755 13.4012 18.5355 12.7712L18.5255 12.7612Z" fill="#FFC834"/>
<path d="M16.8055 15.9912C15.8996 15.194 14.7588 14.7131 13.5555 14.6212C12.3955 14.4635 11.2184 14.7452 10.2555 15.4112C10.1715 15.4586 10.098 15.5226 10.0396 15.5993C9.98109 15.676 9.93888 15.7639 9.91548 15.8575C9.89209 15.9511 9.88801 16.0484 9.90349 16.1436C9.91897 16.2388 9.95369 16.3299 10.0055 16.4112C10.051 16.4971 10.1138 16.5727 10.19 16.633C10.2662 16.6933 10.3542 16.7371 10.4482 16.7615C10.5423 16.786 10.6404 16.7907 10.7364 16.7751C10.8323 16.7595 10.924 16.7241 11.0055 16.6712C11.729 16.1531 12.6247 15.9345 13.5055 16.0612C14.3771 16.1288 15.2025 16.4801 15.8555 17.0612C16.5055 17.6812 17.4955 16.6912 16.8555 16.0612L16.8055 15.9912Z" fill="#FFC834"/>
</g>
<defs>
<clipPath id="clip0_8632_24061">
<rect width="23.19" height="23.03" fill="white" transform="translate(1.64551 1.63123)"/>
</clipPath>
</defs>
</svg>
