<svg width="26" height="26" viewBox="0 0 26 26" fill="none" xmlns="http://www.w3.org/2000/svg">
<g clip-path="url(#clip0_8466_4302)">
<path d="M12.7775 19.65C12.8457 19.7269 12.927 19.7912 13.0175 19.84L13.2775 19.95C13.3818 19.9945 13.494 20.0176 13.6075 20.0176C13.7209 20.0176 13.8332 19.9945 13.9375 19.95C14.1564 19.8617 14.3371 19.6988 14.4475 19.49C14.5205 19.3293 14.5498 19.1522 14.5322 18.9765C14.5147 18.8009 14.4509 18.6331 14.3475 18.49C14.2339 18.3385 14.0796 18.2223 13.9026 18.1551C13.7255 18.0878 13.533 18.0722 13.3475 18.11C13.2949 18.1175 13.244 18.1344 13.1975 18.16C13.1586 18.1797 13.1218 18.2032 13.0875 18.23C12.9851 18.295 12.8911 18.3722 12.8075 18.46C12.7045 18.5649 12.626 18.6913 12.5775 18.83C12.5375 18.9108 12.517 18.9998 12.5175 19.09C12.5328 19.316 12.6088 19.5336 12.7375 19.72" fill="#FFC834"/>
<path d="M4.40739 20.57C6.26759 22.484 8.63815 23.8238 11.2374 24.43C13.8964 24.9701 16.6608 24.5371 19.0274 23.21C21.1162 22.0617 22.7958 20.2917 23.8331 18.1456C24.8703 15.9994 25.2138 13.5836 24.8159 11.2334C24.418 8.88325 23.2983 6.71524 21.6124 5.0302C19.9265 3.34516 17.7578 2.22667 15.4074 1.83C13.1813 1.36598 10.8626 1.72108 8.87739 2.83C7.53678 3.65475 6.2982 4.63484 5.18739 5.74999C3.24487 7.67818 2.03846 10.2254 1.77739 12.95C1.63739 15.47 2.8974 18.36 4.2874 20.4C4.8274 21.19 6.1274 20.4 5.5874 19.64C4.43995 17.9782 3.67494 16.0828 3.3474 14.09C3.0374 12.01 4.05739 9.70001 5.21739 8.02001C6.04129 6.87232 7.05602 5.87449 8.21739 5.07C9.62955 3.89817 11.3844 3.21728 13.2174 3.12999C15.3024 3.07527 17.3523 3.67389 19.0802 4.84197C20.8081 6.01005 22.1276 7.68918 22.8538 9.64434C23.5801 11.5995 23.6769 13.7328 23.1307 15.7457C22.5844 17.7585 21.4224 19.5502 19.8074 20.87C17.7507 22.5418 15.1296 23.3582 12.4874 23.15C9.79039 22.776 7.30075 21.4959 5.4274 19.52C4.7774 18.8 3.7174 19.86 4.3674 20.58L4.40739 20.57Z" fill="#FFC834"/>
<path d="M5.69746 6.67005C10.5075 11.5601 15.2875 16.4801 20.3375 21.1101C21.0475 21.7701 22.1075 20.7101 21.3975 20.0501C16.3975 15.4201 11.5674 10.5001 6.76745 5.61005C6.62688 5.46816 6.43571 5.38791 6.23599 5.38697C6.03626 5.38603 5.84434 5.46449 5.70245 5.60505C5.56056 5.74561 5.48032 5.93676 5.47938 6.13648C5.47844 6.33621 5.55689 6.52816 5.69746 6.67005Z" fill="#FFC834"/>
<path d="M21.6374 10.63C19.9674 8.29001 16.7274 7.18005 13.9774 6.92005C11.0774 6.65005 7.90743 7.44001 5.97743 9.75001C5.40743 10.43 6.38743 11.43 6.97743 10.75C7.82854 9.83444 8.88599 9.13541 10.0618 8.71101C11.2376 8.2866 12.4978 8.14909 13.7374 8.31001C16.0174 8.48001 19.0474 9.40001 20.4374 11.31C20.9574 12.04 22.1674 11.31 21.6474 10.6L21.6374 10.63Z" fill="#FFC834"/>
<path d="M18.6474 12.79C17.2546 11.569 15.4961 10.8446 13.6474 10.73C11.8072 10.5012 9.95142 11.0119 8.4874 12.15C7.7874 12.73 8.7874 13.72 9.4874 13.15C10.6901 12.2776 12.1898 11.918 13.6574 12.15C15.1337 12.2548 16.5366 12.8336 17.6574 13.8C18.3074 14.42 19.2974 13.43 18.6574 12.8L18.6474 12.79Z" fill="#FFC834"/>
<path d="M16.9275 16.02C16.0215 15.2228 14.8808 14.7419 13.6775 14.65C12.5174 14.4923 11.3403 14.774 10.3775 15.44C10.2935 15.4874 10.22 15.5514 10.1615 15.6281C10.103 15.7048 10.0608 15.7927 10.0374 15.8863C10.014 15.9799 10.01 16.0772 10.0254 16.1724C10.0409 16.2676 10.0756 16.3587 10.1275 16.44C10.1729 16.5259 10.2357 16.6015 10.3119 16.6618C10.3882 16.7221 10.4761 16.7659 10.5702 16.7904C10.6643 16.8148 10.7624 16.8195 10.8583 16.8039C10.9543 16.7884 11.0459 16.753 11.1275 16.7C11.851 16.1819 12.7467 15.9633 13.6275 16.09C14.499 16.1576 15.3245 16.5089 15.9775 17.09C16.6275 17.71 17.6175 16.72 16.9775 16.09L16.9275 16.02Z" fill="#FFC834"/>
</g>
<defs>
<clipPath id="clip0_8466_4302">
<rect width="23.19" height="23.03" fill="white" transform="translate(1.76746 1.66003)"/>
</clipPath>
</defs>
</svg>
