<svg width="25" height="25" viewBox="0 0 25 25" fill="none" xmlns="http://www.w3.org/2000/svg">
<g clip-path="url(#clip0_8449_481)">
<g clip-path="url(#clip1_8449_481)">
<path d="M3.08378 20.6248C4.94752 22.5414 7.32105 23.8843 9.92378 24.4948C11.4269 24.8149 12.9788 24.8306 14.4881 24.5408C15.9973 24.251 17.4331 23.6616 18.7107 22.8076C19.9883 21.9535 21.0817 20.8519 21.9264 19.5681C22.7711 18.2843 23.3499 16.8442 23.6286 15.3329C23.9074 13.8216 23.8804 12.2698 23.5492 10.7691C23.2181 9.26842 22.5895 7.84935 21.7007 6.5957C20.8118 5.34205 19.6807 4.27927 18.3741 3.47015C17.0676 2.66103 15.6122 2.12194 14.0938 1.88482C11.8676 1.42534 9.55044 1.78019 7.56378 2.88482C6.22187 3.71207 4.98027 4.69198 3.86378 5.80486C1.92423 7.73405 0.721322 10.2813 0.463789 13.0048C0.323789 15.5248 1.58378 18.4148 2.97378 20.4548C3.51378 21.2448 4.81378 20.4548 4.26378 19.6948C3.12528 18.0329 2.36415 16.1421 2.03378 14.1548C1.72378 12.0648 2.74378 9.76482 3.90378 8.07482C4.72324 6.90926 5.73821 5.89428 6.90378 5.07482C8.31742 3.90552 10.0714 3.22496 11.9038 3.13482C13.9896 3.07792 16.041 3.67494 17.7706 4.84222C19.5002 6.00949 20.8213 7.68857 21.5489 9.64422C22.2764 11.5999 22.374 13.7341 21.828 15.748C21.2819 17.7619 20.1196 19.5545 18.5038 20.8748C16.4473 22.53 13.8352 23.3351 11.2038 23.1248C8.50321 22.753 6.00973 21.4727 4.13379 19.4948C3.49379 18.7748 2.43379 19.8349 3.07379 20.5549L3.08378 20.6248Z" fill="#FFFCFE"/>
<path d="M5.16378 14.9348C5.9732 16.0254 6.86944 17.0487 7.84377 17.9948C8.78377 18.8948 10.0138 20.6749 11.4838 19.8649C12.044 19.4352 12.5046 18.8894 12.8338 18.2648C13.2538 17.6548 13.6538 17.0148 14.0438 16.3748C14.8638 15.0448 15.6238 13.6848 16.3838 12.3148C17.1438 10.9448 17.8238 9.67481 18.6138 8.38481C19.2038 7.38481 17.6838 6.54481 17.1038 7.50481C15.4138 10.2748 13.9738 13.1948 12.2538 15.9548C11.8238 16.6348 11.3838 17.3148 10.9038 17.9548C10.9038 17.9548 10.6938 18.2948 10.6338 18.3148C10.7938 18.3148 10.5438 18.1449 10.4538 18.0549L9.62377 17.2548C8.55915 16.2619 7.57601 15.1851 6.68379 14.0348C6.56157 13.8393 6.36893 13.6981 6.14564 13.6404C5.92234 13.5827 5.68542 13.6129 5.48377 13.7248C5.28527 13.8418 5.14056 14.0319 5.08073 14.2544C5.0209 14.4769 5.05071 14.7141 5.16378 14.9148V14.9348Z" fill="#FFFCFE"/>
</g>
</g>
<defs>
<clipPath id="clip0_8449_481">
<rect width="24" height="24" fill="white" transform="translate(0.453735 0.744873)"/>
</clipPath>
<clipPath id="clip1_8449_481">
<rect width="23.19" height="23.03" fill="white" transform="translate(0.453735 1.71484)"/>
</clipPath>
</defs>
</svg>
