<svg width="25" height="25" viewBox="0 0 25 25" fill="none" xmlns="http://www.w3.org/2000/svg">
<g clip-path="url(#clip0_7556_14488)">
<g clip-path="url(#clip1_7556_14488)">
<path d="M3.37047 20.0262C5.2342 21.9428 7.60773 23.2857 10.2105 23.8962C11.7135 24.2163 13.2655 24.232 14.7747 23.9422C16.2839 23.6524 17.7198 23.063 18.9974 22.2089C20.2749 21.3549 21.3684 20.2533 22.2131 18.9695C23.0578 17.6857 23.6366 16.2456 23.9153 14.7343C24.1941 13.223 24.1671 11.6712 23.8359 10.1705C23.5048 8.66981 22.8762 7.25075 21.9873 5.9971C21.0985 4.74344 19.9674 3.68067 18.6608 2.87155C17.3543 2.06243 15.8988 1.52334 14.3805 1.28622C12.1543 0.826741 9.83712 1.18159 7.85046 2.28622C6.50855 3.11347 5.26695 4.09337 4.15047 5.20626C2.21091 7.13544 1.008 9.68275 0.750472 12.4062C0.610472 14.9262 1.87047 17.8162 3.26047 19.8562C3.80047 20.6462 5.10046 19.8562 4.55046 19.0962C3.41196 17.4343 2.65084 15.5434 2.32046 13.5562C2.01046 11.4662 3.03046 9.16622 4.19046 7.47622C5.00992 6.31066 6.02489 5.29568 7.19046 4.47622C8.6041 3.30692 10.3581 2.62636 12.1905 2.53622C14.2763 2.47932 16.3277 3.07634 18.0573 4.24362C19.7868 5.41089 21.108 7.08996 21.8355 9.04562C22.5631 11.0013 22.6607 13.1355 22.1147 15.1494C21.5686 17.1633 20.4063 18.9559 18.7905 20.2762C16.734 21.9314 14.1219 22.7365 11.4905 22.5262C8.78989 22.1544 6.29641 20.8741 4.42047 18.8962C3.78047 18.1762 2.72047 19.2363 3.36047 19.9563L3.37047 20.0262Z" fill="#FFFCFE"/>
<path d="M5.45046 14.3362C6.25988 15.4268 7.15613 16.4501 8.13046 17.3962C9.07046 18.2962 10.3005 20.0763 11.7705 19.2663C12.3307 18.8366 12.7912 18.2908 13.1205 17.6662C13.5405 17.0562 13.9405 16.4162 14.3305 15.7762C15.1505 14.4462 15.9105 13.0862 16.6705 11.7162C17.4305 10.3462 18.1105 9.07621 18.9005 7.78621C19.4905 6.78621 17.9705 5.94621 17.3905 6.90621C15.7005 9.67621 14.2605 12.5962 12.5405 15.3562C12.1105 16.0362 11.6705 16.7162 11.1905 17.3562C11.1905 17.3562 10.9805 17.6962 10.9205 17.7162C11.0805 17.7162 10.8305 17.5463 10.7405 17.4563L9.91046 16.6562C8.84584 15.6633 7.86269 14.5865 6.97047 13.4362C6.84826 13.2407 6.65562 13.0995 6.43232 13.0418C6.20903 12.9841 5.97211 13.0143 5.77046 13.1262C5.57195 13.2432 5.42724 13.4333 5.36741 13.6558C5.30758 13.8783 5.3374 14.1155 5.45046 14.3162V14.3362Z" fill="#FFFCFE"/>
</g>
</g>
<defs>
<clipPath id="clip0_7556_14488">
<rect width="24" height="24" fill="white" transform="translate(0.740479 0.14624)"/>
</clipPath>
<clipPath id="clip1_7556_14488">
<rect width="24" height="24" fill="white" transform="translate(0.281006 0.813019)"/>
</clipPath>
</defs>
</svg>
