<svg width="157" height="188" viewBox="0 0 157 188" fill="none" xmlns="http://www.w3.org/2000/svg">
<g clip-path="url(#clip0_9824_14693)">
<path d="M40.8604 30.5419C37.8646 30.3679 34.4626 31.0856 32.0398 32.9415C30.5528 34.0797 29.2399 35.5803 28.1228 37.0882C26.5995 39.1398 25.3229 41.2929 24.6628 43.7794C23.9519 46.4545 23.5602 49.6587 24.583 52.2903C25.7653 55.3495 27.7891 58.2421 30.2482 60.4097C31.3797 61.4101 33.0553 59.75 31.9165 58.7423C29.9507 57.0097 28.3477 54.8203 27.2161 52.4643C26.1425 50.2314 26.2151 47.8246 26.7011 45.4323C27.2233 42.8732 28.3694 40.8361 29.8419 38.7193C30.2191 38.1828 30.1756 38.2481 30.6108 37.7406C31.2202 37.0374 31.8005 36.3125 32.4896 35.6745C34.7817 33.5649 37.7775 32.7168 40.8604 32.8908C42.3764 32.9777 42.3692 30.6217 40.8604 30.5347V30.5419Z" fill="url(#paint0_linear_9824_14693)"/>
<path d="M30.4802 60.5981C32.7869 62.2075 35.6376 62.9325 38.3795 63.3239C39.6417 63.5052 40.9183 63.7734 42.195 63.8169C43.4716 63.8604 44.5742 63.4834 45.7058 62.9832C46.2861 62.7295 46.4239 61.8741 46.1265 61.3738C45.7783 60.7721 45.0965 60.6924 44.5162 60.9534C43.6457 61.3376 42.8043 61.5188 41.854 61.4463C40.737 61.3593 39.6199 61.1491 38.5173 60.9824C36.1236 60.6271 33.6791 59.9674 31.6698 58.5683C30.4222 57.6984 29.247 59.7427 30.4802 60.6054V60.5981Z" fill="url(#paint1_linear_9824_14693)"/>
<path d="M29.4502 94.3951C28.9062 92.561 29.0803 90.4224 29.2471 88.5448C29.4285 86.4714 29.6896 84.3546 30.1901 82.332C31.2274 78.1273 34.3465 74.8433 38.4086 73.3427C39.7288 72.857 41.0925 72.5162 42.4272 72.074C44.0012 71.5593 45.5535 70.9721 47.1929 70.7184C48.6872 70.4864 48.0561 68.2173 46.5691 68.4493C45.082 68.6813 43.5805 69.2105 42.1153 69.7035C40.8023 70.1457 39.4604 70.4864 38.1547 70.9431C35.6812 71.8058 33.4906 73.1324 31.6409 74.9956C28.1446 78.5188 27.5135 83.1439 26.9622 87.8633C26.6938 90.1687 26.5125 92.7785 27.1798 95.033C27.6078 96.4829 29.8855 95.8667 29.4502 94.4096V94.3951Z" fill="url(#paint2_linear_9824_14693)"/>
<path d="M84.4626 64.9986C80.7342 62.9977 76.6068 64.2229 72.8929 65.6003C72.2981 65.825 71.8919 66.3977 72.0732 67.0502C72.2328 67.6229 72.9219 68.0941 73.524 67.8694C76.5488 66.7457 80.1902 65.3755 83.273 67.0284C84.6077 67.7461 85.8046 65.7163 84.4626 64.9913V64.9986Z" fill="url(#paint3_linear_9824_14693)"/>
<path d="M64.3334 44.9466C65.9293 43.4895 68.4246 42.2063 70.6587 42.518C71.5147 42.6413 72.3416 42.9965 73.1395 43.301C73.2555 43.3445 73.3716 43.388 73.4877 43.4315C73.7125 43.5257 73.2628 43.3227 73.5239 43.4532C73.8141 43.591 74.1042 43.7432 74.3871 43.8954C76.3311 44.9176 78.1953 46.5487 78.957 48.6946C79.6243 50.5649 79.0585 53.1095 78.3694 54.8928C77.8254 56.3065 80.1031 56.9227 80.6399 55.5163C81.4885 53.3052 82.0108 50.2459 81.1911 47.9551C80.2336 45.2801 78.0285 43.156 75.5695 41.8583C74.0317 41.0536 72.2545 40.2635 70.5136 40.1547C67.6412 39.9735 64.7324 41.3871 62.6578 43.2792C61.5335 44.3014 63.2019 45.9688 64.3262 44.9466H64.3334Z" fill="url(#paint4_linear_9824_14693)"/>
<path d="M78.5 54.6029C77.5933 56.3137 75.9031 57.6766 74.2565 58.6481C72.6099 59.6195 70.6369 59.6992 68.78 59.4673C68.1489 59.3875 67.6049 60.0617 67.6049 60.6417C67.6049 61.3449 68.1489 61.7436 68.78 61.8161C71.0504 62.0915 73.4514 61.8523 75.4462 60.6779C77.4409 59.5035 79.443 57.8361 80.531 55.7845C81.2419 54.4434 79.2108 53.2545 78.4927 54.5956L78.5 54.6029Z" fill="url(#paint5_linear_9824_14693)"/>
<path d="M28.7829 124.727C27.3394 122.835 26.0917 120.761 24.7788 118.775C22.3488 115.1 19.9406 111.417 17.5613 107.705C15.5666 104.595 13.55 101.485 11.7076 98.2736C11.4609 97.8458 11.2288 97.4036 10.9967 96.9687C10.9532 96.8962 10.8371 96.5844 10.9749 96.9324C10.9314 96.8164 10.8879 96.7004 10.8516 96.5844C10.7211 96.193 10.605 95.787 10.5034 95.381C10.0029 93.4382 9.47341 91.0821 9.98117 89.0885C10.2713 87.9503 11.3811 87.3559 12.2443 86.5875C13.463 85.5073 14.6671 84.3981 15.922 83.3614C18.6494 81.0996 21.6597 79.2873 25.1778 78.6058C26.6648 78.3158 26.0337 76.0467 24.5539 76.3367C21.2898 76.9747 18.352 78.5261 15.7261 80.5342C14.5075 81.4693 13.3469 82.4698 12.2008 83.4919C11.0547 84.5141 9.90138 85.4058 8.84233 86.4352C7.18123 88.0446 7.36257 90.7921 7.63821 92.8945C7.87033 94.6561 8.18224 96.5554 8.9729 98.1721C10.4091 101.108 12.3314 103.87 14.0868 106.625C16.5748 110.532 19.0991 114.418 21.6452 118.289C23.3208 120.834 24.9094 123.502 26.7591 125.923C27.1508 126.43 27.7673 126.691 28.3694 126.343C28.8699 126.061 29.1746 125.234 28.7901 124.734L28.7829 124.727Z" fill="url(#paint6_linear_9824_14693)"/>
<path d="M5.01228 74.1981C7.31172 75.735 10.4816 76.431 13.2308 76.4382C15.9799 76.4455 18.8814 75.1406 21.0721 73.3572C25.2285 69.9935 26.6575 64.1359 24.6627 59.2063C22.6679 54.2766 17.6628 51.1376 12.295 51.3841C9.53862 51.5146 7.00706 52.4135 5.01954 54.3419C3.89521 55.4293 2.97398 56.7197 2.10353 58.0101C0.493203 60.4024 -0.333724 63.7952 0.123262 66.666C0.580248 69.5367 2.72736 72.219 4.77291 74.0096C5.91175 75.0028 7.58736 73.3427 6.44127 72.3423C4.81643 70.9286 3.33667 69.0148 2.6258 66.9632C1.96571 65.0493 2.53876 62.4323 3.32216 60.6272C3.70661 59.75 4.28691 58.967 4.83094 58.1841C5.20814 57.6476 5.18637 57.6766 5.6216 57.1837C6.15838 56.582 6.68064 55.9948 7.28271 55.4583C8.12414 54.7044 9.17593 54.3129 10.264 54.0374C14.5364 52.9645 19.3167 54.6536 21.6596 58.4451C24.0026 62.2365 23.7052 66.8834 20.9125 70.2182C19.2441 72.2118 16.611 73.7922 13.9924 74.0531C11.3738 74.3141 8.31274 73.5747 6.2019 72.1683C4.93975 71.3201 3.75739 73.3645 5.01228 74.2054V74.1981Z" fill="url(#paint7_linear_9824_14693)"/>
<path d="M148.724 127.438C143.762 127.373 138.808 127.409 133.853 127.67C129.726 127.88 125.41 127.931 121.435 129.2C117.823 130.352 114.907 132.687 113.166 136.072C111.534 139.247 110.917 142.887 110.982 146.432C111.127 154.094 114.486 163.758 122.878 165.541C127.876 166.6 133.201 166.302 138.278 166.23C140.868 166.194 143.45 166.157 146.04 166.114C147.084 166.099 148.346 166.244 149.297 165.722C150.247 165.2 150.646 164.207 150.718 163.163C150.813 161.771 150.61 160.314 150.522 158.922C150.435 157.531 150.341 156.175 150.247 154.805C150.044 151.919 149.841 149.027 149.688 146.134C149.376 140.299 149.282 134.434 149.906 128.613C150.065 127.105 147.708 127.119 147.548 128.613C146.526 138.124 147.425 147.7 148.056 157.212C148.129 158.35 148.201 159.488 148.267 160.626C148.296 161.192 148.332 161.757 148.354 162.315C148.368 162.641 148.506 163.345 148.245 163.598C148.013 163.83 147.403 163.736 147.099 163.736C146.511 163.743 145.924 163.751 145.336 163.765C144.045 163.787 142.746 163.801 141.455 163.823C136.646 163.896 131.815 164.084 127.013 163.714C124.83 163.548 122.523 163.316 120.572 162.25C118.853 161.308 117.554 159.792 116.546 158.14C114.769 155.225 113.768 151.818 113.449 148.433C112.861 142.176 114.457 134.622 120.84 131.918C124.677 130.294 129.059 130.294 133.15 130.07C138.336 129.787 143.53 129.736 148.724 129.801C150.24 129.823 150.24 127.467 148.724 127.445V127.438Z" fill="url(#paint8_linear_9824_14693)"/>
<path d="M139.25 109.945C138.525 103.341 132.86 97.9691 126.114 98.0706C124.22 98.0996 122.356 98.4911 120.506 98.81C118.969 99.0783 117.424 99.1725 115.871 99.3175C115.523 99.3537 115.168 99.3972 114.82 99.3972C114.413 99.3972 114.435 99.4117 113.956 99.2523C112.745 98.8463 111.577 98.0126 110.496 97.3311C109.067 96.4322 107.718 95.3665 106.71 93.9964C105.948 92.9525 105.397 91.7781 104.889 90.6037C104.432 89.5525 103.866 88.5013 103.598 87.3776C103.293 86.1162 103.518 84.8041 103.823 83.5644C104.577 80.5052 105.963 77.5691 108.284 75.3871C110.054 73.7269 112.223 72.8497 114.537 72.2698C116.488 71.7841 118.475 71.9073 120.448 72.451C122.124 72.9077 123.829 73.5674 125.33 74.4446C126.65 75.2203 127.695 76.5542 128.558 77.7939C129.349 78.9248 129.871 80.005 130.219 81.3388C130.582 82.7525 130.829 84.1951 131.286 85.5798C131.743 86.9644 132.497 88.0518 133.491 89.19C134.484 90.3282 135.565 91.5533 136.82 92.5175C139.482 94.5546 142.594 95.2361 145.887 94.7213C148.658 94.2864 151.052 92.8872 153.134 91.0531C155.216 89.219 156.144 86.9209 156.674 84.3764C157.058 82.5278 157.109 80.7734 156.739 78.9175C156.63 78.3593 156.485 77.8156 156.347 77.2647C156.347 77.2864 156.267 76.8442 156.304 77.0617C156.34 77.3009 156.282 76.7862 156.282 76.8152C156.238 76.4237 156.144 76.0468 156.021 75.6698C155.578 74.2996 154.998 72.9657 154.505 71.6101C154.055 70.3704 153.584 69.1308 153.04 67.9274C151.552 64.6579 149.601 61.7653 147.353 58.9743C145.104 56.1833 142.783 54.0302 139.845 52.1598C136.907 50.2895 133.962 48.9121 130.937 47.4404C129.414 46.701 127.898 45.947 126.411 45.1423C125.076 44.4174 123.887 46.4545 125.221 47.1794C131.024 50.3257 137.575 52.5875 142.507 57.1112C143.806 58.3001 144.894 59.663 145.989 61.0331C147.222 62.57 148.397 64.1504 149.347 65.883C150.689 68.3333 151.712 70.8271 152.67 73.4514C153.555 75.8728 154.49 78.3448 154.65 80.9474C154.809 83.5499 153.99 86.7324 152.205 88.6753C150.522 90.5094 148.223 91.8941 145.786 92.3725C142.71 92.9815 139.787 92.1405 137.48 90.0309C136.363 89.0088 135.253 87.8126 134.339 86.602C133.549 85.558 133.288 84.1154 132.997 82.8685C132.686 81.5491 132.432 80.2007 131.917 78.9393C131.373 77.5981 130.488 76.402 129.588 75.2856C128.587 74.0387 127.448 72.8932 126.005 72.161C124.424 71.3636 122.77 70.6604 121.065 70.1892C118.889 69.5875 116.633 69.4208 114.413 69.8847C112.194 70.3487 110.105 71.0954 108.306 72.3495C105.789 74.1039 103.917 76.6122 102.713 79.425C101.574 82.0855 100.58 85.3043 101.357 88.1968C101.676 89.3785 102.271 90.4949 102.757 91.6113C103.243 92.7277 103.765 93.8876 104.468 94.9171C106.311 97.6139 109.147 99.5205 112.034 100.978C112.861 101.398 113.702 101.724 114.645 101.761C115.48 101.79 116.336 101.63 117.17 101.579C120.84 101.362 124.648 99.8757 128.326 100.608C131.329 101.21 133.926 103.189 135.478 105.806C136.225 107.067 136.733 108.481 136.893 109.945C137.052 111.41 139.417 111.453 139.25 109.945Z" fill="url(#paint9_linear_9824_14693)"/>
<path d="M126.723 45.3308C119.745 43.7867 112.484 44.6349 105.803 47.0344C99.1224 49.434 92.3982 53.1965 87.6615 58.5031C85.1517 61.3159 83.2585 64.6361 81.7062 68.0579C80.1539 71.4796 78.8845 75.2276 78.2026 79.0118C77.8762 80.8169 77.6514 82.651 77.5643 84.4851C77.5135 85.4928 77.4773 86.457 77.2887 87.4501C77.1654 88.1098 77.1654 88.7333 77.2161 89.393C77.2959 90.4659 77.2306 91.5098 77.2959 92.5683C77.3757 93.7862 77.6006 95.0041 77.8255 96.2002C78.2969 98.6868 78.8845 101.355 80.2555 103.522C80.8285 104.436 81.5684 105.226 82.3155 105.994C83.3963 107.118 84.4481 108.271 85.4274 109.488C86.4066 110.706 88.0387 108.996 87.0957 107.821C85.732 106.125 84.0419 104.639 82.7217 102.949C81.4016 101.26 80.8648 99.129 80.4223 97.1282C80.1829 96.048 79.9798 94.9606 79.813 93.8732C79.7404 93.4164 79.6824 92.9525 79.6607 92.4958C79.6534 92.3145 79.6461 92.1405 79.6607 91.9593C79.6534 92.2348 79.7114 91.4591 79.7187 91.3358C79.755 90.1324 79.4213 88.9435 79.6607 87.7546C80.0306 85.9423 79.9218 84.0501 80.1176 82.216C80.8648 75.2058 83.5777 68.0869 87.6398 62.3235C91.7019 56.5602 97.8675 52.892 104.033 50.2605C110.946 47.3099 118.708 45.9688 126.121 47.6072C127.601 47.9334 128.232 45.6643 126.745 45.3381L126.723 45.3308Z" fill="url(#paint10_linear_9824_14693)"/>
<path d="M119.767 77.5039C116.372 76.3512 112.68 77.9678 110.786 80.8966C108.951 83.7312 108.719 87.7474 110.496 90.6689C112.411 93.8224 116.604 94.7866 120.057 94.1341C121.993 93.7644 123.328 92.5247 124.46 90.9879C125.591 89.451 126.534 87.8488 126.643 85.9277C126.882 81.7158 123.372 78.5333 119.542 77.6054C118.069 77.2429 117.438 79.5192 118.918 79.8744C121.42 80.4834 123.771 82.1363 124.235 84.8258C124.482 86.2757 123.937 87.5444 123.154 88.7405C122.45 89.8207 121.616 91.0966 120.369 91.5968C119.121 92.097 117.648 92.01 116.372 91.7925C115.095 91.5751 113.775 91.0748 112.905 90.0164C111.352 88.1316 111.309 85.2463 112.259 83.086C113.427 80.4399 116.292 78.7943 119.135 79.7585C120.572 80.2442 121.196 77.9751 119.759 77.4894L119.767 77.5039Z" fill="url(#paint11_linear_9824_14693)"/>
<path d="M138.104 165.527C138.068 167.006 138.293 168.405 138.38 169.876C138.51 172.196 138.394 174.523 138.329 176.843C138.271 179.032 138.467 181.157 138.59 183.339C138.619 183.839 138.633 184.339 138.612 184.839C138.612 184.905 138.532 185.789 138.532 185.789C138.532 185.789 139.323 185.274 139.178 185.361C138.989 185.477 139.402 185.361 139.098 185.376C138.887 185.39 138.677 185.405 138.467 185.412C136.095 185.506 133.708 185.405 131.336 185.419C130.633 185.419 129.936 185.419 129.247 185.564C128.848 185.644 128.87 185.695 129.146 185.608C129.175 185.6 129.465 185.6 129.153 185.6C128.805 185.6 128.456 185.622 128.116 185.622C124.024 185.637 119.948 185.332 115.857 185.26C108.03 185.122 100.181 185.26 92.3546 185.281C84.8905 185.303 77.4264 185.354 69.9623 185.434C65.5085 185.477 61.062 185.535 56.6082 185.593C52.4227 185.651 48.2446 185.513 44.0592 185.521C41.9846 185.521 39.8738 185.767 37.8137 185.6C36.0946 185.455 34.3537 184.97 32.8304 184.158C31.3071 183.346 29.9724 182.273 29.2325 180.736C28.3186 178.837 28.275 176.43 28.1009 174.364C27.8906 171.798 28.13 169.296 28.275 166.737C28.4346 163.99 28.4274 161.228 28.4564 158.473C28.4854 155.979 28.5289 153.478 28.4926 150.984C28.4709 149.346 28.5797 147.708 28.6232 146.069C28.674 144.293 28.4999 142.546 28.4999 140.777C28.4999 138.501 28.6885 136.232 28.7103 133.955C28.7393 131.404 28.7755 128.859 28.8118 126.307C28.8771 121.479 28.9279 116.651 28.8046 111.823C28.7465 109.51 28.645 107.205 28.4926 104.9C28.3911 103.392 26.0336 103.384 26.1352 104.9C26.817 114.984 26.4834 125.118 26.3455 135.21C26.3165 137.377 26.0844 139.545 26.1569 141.712C26.215 143.517 26.2948 145.286 26.2295 147.091C26.1352 149.752 26.1569 152.405 26.1279 155.066C26.0989 157.726 26.0699 160.264 26.0336 162.859C25.9901 165.809 25.6202 168.753 25.6129 171.696C25.6129 173.378 25.7798 175.06 25.9756 176.734C26.2295 178.924 26.5051 181.157 27.8398 182.991C30.0159 185.977 33.7299 187.493 37.3059 187.899C39.4313 188.145 41.6147 187.884 43.7473 187.87C45.8799 187.855 47.8529 187.913 49.913 187.957C54.5191 188.044 59.1325 187.906 63.7386 187.855C71.754 187.761 79.7621 187.688 87.7775 187.652C95.7929 187.616 103.496 187.616 111.352 187.616C116.27 187.616 121.174 187.862 126.099 187.957C127.035 187.978 127.978 188.007 128.913 187.964C129.189 187.949 129.494 187.949 129.762 187.877C130.052 187.797 130.35 187.761 129.885 187.826C130.19 187.783 129.595 187.826 129.951 187.819C132.199 187.746 134.441 187.812 136.689 187.804C137.647 187.804 138.684 187.87 139.627 187.674C141.281 187.326 141.005 184.934 140.947 183.643C140.853 181.367 140.606 179.141 140.672 176.85C140.737 174.56 140.86 172.102 140.715 169.731C140.607 168.05 140.411 167.143 140.454 165.534C140.49 164.019 138.133 164.019 138.097 165.534L138.104 165.527Z" fill="url(#paint12_linear_9824_14693)"/>
<path d="M49.456 89.9149C43.9141 89.8062 38.3722 89.4582 32.8884 90.4949C30.6905 90.9081 28.7901 92.0028 27.4916 93.8586C26.4616 95.3375 26.0554 97.2006 25.9103 98.9623C25.6419 102.159 26.331 106.835 29.4574 108.561C30.3278 109.039 31.1983 109.054 32.1558 109.177C33.7444 109.387 35.2822 109.742 36.8852 109.764C40.2437 109.815 43.6022 109.844 46.9607 109.887C53.6994 109.967 60.4381 110.148 67.1769 110.032C70.3758 109.981 73.5674 109.67 76.7736 109.626C79.6533 109.583 82.5258 109.771 85.3983 110.003C88.4303 110.25 91.4842 110.619 94.5307 110.474C97.94 110.308 101.313 109.771 104.722 109.59C111.483 109.22 118.265 109.561 125.011 110.032C127.136 110.184 129.262 110.366 131.394 110.431C133.142 110.489 134.927 110.496 136.668 110.728C136.726 110.735 137.023 110.779 137.212 110.837C137.328 110.873 137.067 110.663 137.233 110.88C137.4 111.098 137.553 111.279 137.654 111.547C138.111 112.714 137.886 114.121 137.879 115.339C137.865 118.036 138.068 120.732 138.184 123.422C138.249 124.908 138.271 126.394 138.256 127.888C138.242 129.381 140.599 129.403 140.614 127.888C140.643 125.147 140.483 122.421 140.345 119.688C140.28 118.347 140.229 116.999 140.229 115.65C140.229 114.302 140.345 112.968 140.106 111.642C139.91 110.547 139.337 109.372 138.351 108.785C137.836 108.481 137.168 108.437 136.588 108.372C134.891 108.176 133.179 108.14 131.474 108.089C126.077 107.915 120.702 107.328 115.305 107.161C112.012 107.06 108.719 107.053 105.433 107.205C102.147 107.357 98.7669 107.843 95.4229 108.075C89.5837 108.488 83.7009 107.314 77.8544 107.277C74.7715 107.263 71.6887 107.575 68.6058 107.654C65.3417 107.741 62.0847 107.72 58.8205 107.683C52.2269 107.611 45.6405 107.524 39.0468 107.451C37.422 107.43 35.8334 107.437 34.2304 107.161C33.4832 107.031 32.7433 106.9 31.9962 106.813C31.5465 106.763 31.2201 106.784 30.8211 106.625C29.6678 106.168 29.0077 104.66 28.674 103.486C27.7818 100.39 27.9123 96.0262 30.6833 93.8876C32.3444 92.6045 34.8977 92.4885 36.8997 92.3C39.7069 92.039 42.5359 92.097 45.3503 92.1695C46.7213 92.2058 48.0923 92.2493 49.4632 92.2783C50.9793 92.3073 50.9793 89.9512 49.4632 89.9222L49.456 89.9149Z" fill="url(#paint13_linear_9824_14693)"/>
<path d="M106.035 92.3145C107.551 92.3145 107.551 89.9584 106.035 89.9584C104.519 89.9584 104.519 92.3145 106.035 92.3145Z" fill="url(#paint14_linear_9824_14693)"/>
<path d="M111.708 89.8134C109.031 89.7627 106.354 89.7844 103.685 89.7554C103.047 89.7482 102.51 90.2992 102.51 90.9299C102.51 91.5606 103.047 92.097 103.685 92.1043C106.362 92.1333 109.038 92.1188 111.708 92.1623C112.346 92.1768 112.883 91.6113 112.883 90.9879C112.883 90.3644 112.346 89.8207 111.708 89.8134Z" fill="url(#paint15_linear_9824_14693)"/>
<path d="M124.467 99.5204C124.467 97.1571 124.228 94.8011 123.785 92.4885C123.669 91.8795 122.907 91.4808 122.334 91.6693C121.689 91.8795 121.384 92.4667 121.515 93.1192C121.921 95.2215 122.117 97.2804 122.117 99.5277C122.117 100.144 122.661 100.731 123.292 100.702C123.923 100.673 124.467 100.187 124.467 99.5277V99.5204Z" fill="url(#paint16_linear_9824_14693)"/>
<path d="M96.6489 51.6161C96.5329 51.5363 96.3951 51.4493 96.2863 51.3551C96.3515 51.4131 96.4168 51.4638 96.3153 51.3769C96.2572 51.3261 96.1992 51.2826 96.1412 51.2319C95.9236 51.0506 95.7205 50.8621 95.5174 50.6592C95.307 50.4489 95.1039 50.2314 94.908 50.0067C94.821 49.9052 94.734 49.8037 94.6469 49.695C94.6034 49.637 94.5454 49.579 94.5091 49.521C94.5889 49.6442 94.5816 49.6152 94.5091 49.5137C93.8127 48.5931 93.2324 47.5854 92.7102 46.556C92.4273 46.005 91.6076 45.802 91.0998 46.1355C90.534 46.498 90.3817 47.1577 90.6791 47.7449C91.8397 50.0357 93.3412 52.1598 95.4666 53.6459C95.9743 54.0012 96.8013 53.7547 97.0769 53.2255C97.3961 52.6238 97.193 51.9931 96.6562 51.6161H96.6489Z" fill="url(#paint17_linear_9824_14693)"/>
<path d="M92.507 47.7884C94.023 46.5487 96.1339 47.2084 97.6572 48.0494C98.4406 48.4771 99.2167 48.9193 99.9784 49.376C100.348 49.5935 100.711 49.8182 101.074 50.0502C101.226 50.1517 101.378 50.2532 101.531 50.3547C101.814 50.5504 101.415 50.2314 101.676 50.4779C102.786 51.5073 104.454 49.8472 103.344 48.8106C102.677 48.1944 101.835 47.7304 101.059 47.2737C100.232 46.788 99.3981 46.3167 98.5494 45.8528C96.0976 44.5116 93.1018 44.2724 90.8386 46.121C90.3454 46.527 90.4179 47.3679 90.8386 47.7884C91.3246 48.2741 92.0137 48.1944 92.507 47.7884Z" fill="url(#paint18_linear_9824_14693)"/>
<path d="M103.344 42.3295C98.6147 41.5248 96.5691 36.6097 95.0241 32.6515C94.792 32.0571 94.2334 31.6511 93.5734 31.8323C93.0076 31.9846 92.5143 32.6878 92.7537 33.2822C93.7765 35.892 94.821 38.5091 96.5837 40.7202C98.1069 42.634 100.269 44.1926 102.72 44.6059C103.344 44.7146 103.99 44.4391 104.171 43.7867C104.323 43.2212 103.975 42.4455 103.351 42.3368L103.344 42.3295Z" fill="url(#paint19_linear_9824_14693)"/>
<path d="M93.4354 33.9419C95.7421 34.5799 98.1576 35.5586 100.051 37.0592C100.878 37.7116 101.451 38.5381 101.777 39.5385C101.951 40.075 102.067 40.6259 102.147 41.1769C102.183 41.4379 102.212 41.6988 102.241 41.9598C102.256 42.0976 102.263 42.2426 102.278 42.3803C102.329 42.7283 102.241 42.3006 102.59 42.1121L103.184 41.9526H103.105C103.301 42.0033 103.504 42.0541 103.699 42.1121L103.62 42.0541C103.105 41.6771 102.307 41.9671 102.009 42.4745C101.661 43.069 101.915 43.7142 102.43 44.0839C103.344 44.7436 104.396 43.8954 104.599 42.9747C104.766 42.2353 104.526 41.2856 104.41 40.5462C104.164 38.9803 103.634 37.4942 102.611 36.269C101.589 35.0438 100.174 34.2392 98.8105 33.5287C97.2944 32.7385 95.6986 32.1151 94.052 31.6584C92.5868 31.2524 91.9629 33.5287 93.4282 33.9274L93.4354 33.9419Z" fill="url(#paint20_linear_9824_14693)"/>
<path d="M103.591 30.3679C103.707 30.2737 103.845 30.2375 103.982 30.252C104.156 30.2592 104.164 30.252 103.99 30.2157C104.135 30.3027 103.758 30.1142 103.765 30.1142C103.518 29.991 103.272 29.8677 103.032 29.73C102.532 29.4473 102.046 29.1355 101.581 28.7948C100.711 28.1641 99.9276 27.4029 99.2239 26.5982C97.7877 24.9454 96.7722 22.9735 96.2281 20.8639C95.851 19.3995 93.5733 20.0157 93.9577 21.4874C94.6541 24.1842 96.0541 26.678 97.9618 28.7078C98.9048 29.7082 99.9783 30.5927 101.139 31.3321C102.176 31.9918 104.207 33.3547 105.252 32.0281C105.644 31.5279 105.738 30.8464 105.252 30.3607C104.846 29.9547 103.982 29.8605 103.583 30.3607L103.591 30.3679Z" fill="url(#paint21_linear_9824_14693)"/>
<path d="M95.1473 21.6614C97.5918 21.7121 99.9275 22.7923 101.545 24.6264C103.163 26.4605 103.823 28.9761 103.562 31.3829C103.489 32.0136 104.156 32.5573 104.737 32.5573C105.433 32.5573 105.847 32.0136 105.912 31.3829C106.246 28.3526 105.216 25.2426 103.206 22.959C101.197 20.6754 98.1794 19.3633 95.1401 19.298C93.624 19.269 93.624 21.6251 95.1401 21.6541L95.1473 21.6614Z" fill="url(#paint22_linear_9824_14693)"/>
<path d="M90.6863 17.6307C91.4915 19.1458 92.5796 20.5304 93.8635 21.6686C94.3277 22.0746 95.0821 22.1543 95.5318 21.6686C95.9453 21.2191 96.0251 20.4362 95.5318 20.0012C94.9007 19.443 94.3205 18.8268 93.8054 18.1599L93.9868 18.3991C93.508 17.7829 93.0873 17.1304 92.7246 16.4418C92.4345 15.898 91.6293 15.6806 91.1143 16.0213C90.563 16.3765 90.3817 17.0507 90.6936 17.6307H90.6863Z" fill="url(#paint23_linear_9824_14693)"/>
<path d="M90.0915 29.8315C89.8812 29.556 90.106 29.846 90.1423 29.904C90.2076 29.9837 90.2656 30.0707 90.3309 30.1505C90.4542 30.3172 90.5775 30.4839 90.7008 30.6507C90.9402 30.9769 91.1723 31.3031 91.4044 31.6366C91.8687 32.3108 92.3257 32.9995 92.7536 33.6955C93.0801 34.2174 93.8199 34.4711 94.364 34.1159C94.908 33.7607 95.1329 33.0648 94.7847 32.5065C93.8489 31.0059 92.8334 29.5633 91.7454 28.1641C91.5713 27.9466 91.1796 27.8161 90.9112 27.8161C90.621 27.8161 90.2801 27.9466 90.077 28.1641C89.8739 28.3816 89.7143 28.6861 89.7288 28.9978C89.7433 29.3313 89.8739 29.5705 90.077 29.8315H90.0915Z" fill="url(#paint24_linear_9824_14693)"/>
<path d="M87.8792 46.6285C88.0895 46.643 88.3072 46.6647 88.5175 46.6937L88.2056 46.6502C89.1413 46.7807 90.048 47.0272 90.9185 47.3897L90.6356 47.2737C90.6719 47.2882 90.7154 47.3099 90.7517 47.3244C91.0563 47.4549 91.3247 47.5347 91.6584 47.4404C91.934 47.3679 92.2314 47.1504 92.362 46.8967C92.5071 46.6212 92.5796 46.295 92.4781 45.9905C92.391 45.7223 92.2097 45.4033 91.934 45.2873C91.2884 45.0119 90.6356 44.7654 89.9538 44.5914C89.2719 44.4174 88.5683 44.3159 87.8719 44.2652C87.5818 44.2434 87.2336 44.4101 87.0377 44.6131C86.8419 44.8161 86.6823 45.1496 86.6896 45.4468C86.7186 46.1283 87.2118 46.5705 87.8647 46.6212L87.8792 46.6285Z" fill="url(#paint25_linear_9824_14693)"/>
<path d="M86.0439 55.1828C86.3341 55.2771 86.617 55.3713 86.8999 55.4728C87.0087 55.5163 87.1102 55.5598 87.219 55.596C86.8128 55.4438 87.19 55.5815 87.2843 55.6323C87.6035 55.7845 87.8936 55.9658 88.1765 56.1687C88.3216 56.2775 87.9227 55.9658 88.0605 56.0818C88.0895 56.1035 88.1258 56.1325 88.1548 56.1542C88.2273 56.2122 88.2926 56.2702 88.3579 56.3282C88.503 56.4515 88.6553 56.582 88.8004 56.7125C89.2936 57.1329 89.8014 57.5316 90.3164 57.9231C90.5413 58.0971 90.962 58.1116 91.2231 58.0391C91.4842 57.9666 91.7962 57.7491 91.9267 57.4954C92.0718 57.2199 92.1443 56.8937 92.0428 56.5892C91.9412 56.2847 91.7599 56.0817 91.4987 55.886C91.4262 55.828 91.3464 55.77 91.2739 55.7193C91.2013 55.6685 91.2304 55.6903 91.3609 55.7845C91.3247 55.7555 91.2884 55.7265 91.2449 55.6975C91.1433 55.6178 91.0345 55.5308 90.933 55.4438C90.7444 55.2916 90.563 55.1321 90.3744 54.9726C90.0262 54.6754 89.6853 54.3781 89.3154 54.1099C88.532 53.5227 87.5745 53.2037 86.6532 52.9065C86.0657 52.718 85.3403 53.124 85.2025 53.7257C85.0574 54.3709 85.3983 54.9726 86.0222 55.1756L86.0439 55.1828Z" fill="url(#paint26_linear_9824_14693)"/>
<path d="M105.419 21.1031C104.976 30.3752 103.758 39.5747 102.278 48.7308C102.038 50.2169 104.309 50.8549 104.548 49.3543C106.064 39.9952 107.326 30.5782 107.776 21.1031C107.849 19.588 105.491 19.588 105.419 21.1031Z" fill="url(#paint27_linear_9824_14693)"/>
<path d="M106.035 44.8814C112.194 43.388 117.598 39.3283 120.76 33.8404C121.522 32.521 119.484 31.3394 118.722 32.6515C115.849 37.6319 110.989 41.2566 105.404 42.6123C103.932 42.9675 104.555 45.2438 106.028 44.8814H106.035Z" fill="url(#paint28_linear_9824_14693)"/>
<path d="M106.666 43.0255C106.623 41.5539 107.007 40.1475 107.827 38.9151C108.647 37.6826 110.01 36.762 111.309 36.0153C113.492 34.7684 116.51 33.7897 119.034 34.3261C120.514 34.6451 121.145 32.3688 119.658 32.0571C116.437 31.3684 112.738 32.434 109.952 34.0724C108.313 35.0438 106.761 36.1965 105.723 37.8131C104.686 39.4298 104.244 41.1986 104.302 43.0182C104.345 44.5334 106.703 44.5406 106.659 43.0182L106.666 43.0255Z" fill="url(#paint29_linear_9824_14693)"/>
<path d="M106.108 31.8396C107.907 32.1151 109.503 31.4699 110.975 30.4694C112.295 29.5633 113.528 28.5121 114.602 27.3232C116.8 24.8874 118.78 21.7339 118.918 18.3774C118.983 16.8622 116.626 16.8622 116.56 18.3774C116.452 21.0089 114.761 23.5897 113.064 25.5108C112.23 26.4605 111.294 27.3449 110.271 28.0916C109.314 28.7948 108.008 29.7662 106.732 29.5705C106.1 29.4763 105.462 29.73 105.281 30.3897C105.128 30.9479 105.469 31.7453 106.1 31.8396H106.108Z" fill="url(#paint30_linear_9824_14693)"/>
<path d="M108.24 30.0417C108.356 28.9108 108.487 27.7799 108.835 26.6925C109.183 25.6051 109.851 24.7134 110.692 23.9304C111.534 23.1475 112.571 22.4153 113.521 21.6904C114.624 20.8567 115.719 20.0157 116.822 19.182C117.329 18.7978 117.59 18.1671 117.242 17.5727C116.952 17.0725 116.14 16.7607 115.632 17.1522C114.413 18.0801 113.187 19.0081 111.969 19.936C110.873 20.7697 109.72 21.5744 108.734 22.5458C107.747 23.5172 107.029 24.6626 106.586 25.9748C106.144 27.2869 106.021 28.6861 105.876 30.049C105.81 30.6797 106.463 31.2234 107.051 31.2234C107.74 31.2234 108.168 30.6797 108.226 30.049L108.24 30.0417Z" fill="url(#paint31_linear_9824_14693)"/>
<path d="M107.566 19.5228C105.955 17.8989 104.171 16.13 103.634 13.832C103.351 12.6358 103.555 11.4179 103.823 10.2362C104.12 8.90233 104.468 7.59018 104.599 6.22728C104.664 5.59658 104.011 5.05287 103.424 5.05287C102.735 5.05287 102.307 5.59658 102.249 6.22728C101.966 9.09082 100.639 11.7586 101.422 14.6729C102.126 17.2754 104.062 19.3198 105.905 21.1901C106.971 22.2703 108.639 20.6029 107.573 19.5228H107.566Z" fill="url(#paint32_linear_9824_14693)"/>
<path d="M103.163 6.626C104.933 7.9744 106.405 9.72877 107.435 11.7006C108.059 12.8895 107.733 13.9479 107.413 15.1804C107.073 16.5143 106.739 17.8482 106.398 19.1821C106.021 20.6537 108.298 21.2771 108.668 19.8055C109.038 18.3339 109.445 16.7825 109.822 15.2746C110.221 13.6725 110.322 12.2588 109.582 10.7437C108.393 8.30063 106.492 6.23453 104.345 4.60341C103.837 4.21918 103.025 4.52366 102.735 5.02387C102.379 5.63283 102.648 6.24903 103.156 6.63325L103.163 6.626Z" fill="url(#paint33_linear_9824_14693)"/>
<path d="M118.824 18.0294C118.896 17.7394 118.99 17.4567 119.099 17.174L118.983 17.4567C119.172 17.0072 119.418 16.5868 119.716 16.2025L119.534 16.4418C119.832 16.0575 120.18 15.7096 120.565 15.4123L120.325 15.5936C120.623 15.3688 120.942 15.1659 121.275 14.9991C121.827 14.7236 122.023 13.8972 121.696 13.3897C121.326 12.8243 120.673 12.6793 120.086 12.9693C118.338 13.8247 117.003 15.5211 116.546 17.4059C116.401 18.0004 116.735 18.7108 117.366 18.8558C117.997 19.0008 118.664 18.6746 118.816 18.0366L118.824 18.0294Z" fill="url(#paint34_linear_9824_14693)"/>
<path d="M100.537 1.76887C101.175 3.23326 101.806 4.7049 102.445 6.16928C102.553 6.42302 102.894 6.6405 103.148 6.71299C103.431 6.79274 103.808 6.75649 104.055 6.597C104.302 6.43751 104.526 6.19103 104.599 5.89381C104.672 5.56758 104.614 5.2921 104.483 4.98762C103.845 3.52323 103.214 2.0516 102.575 0.587207C102.466 0.333477 102.126 0.115993 101.872 0.0434984C101.589 -0.0362455 101.212 1.74064e-06 100.965 0.15949C100.718 0.318978 100.493 0.565459 100.421 0.862686C100.348 1.18891 100.406 1.46439 100.537 1.76887Z" fill="url(#paint35_linear_9824_14693)"/>
<path d="M119.636 34.4349C120.405 34.0579 121.116 33.5287 121.696 32.9053C122.008 32.5645 122.298 32.1948 122.552 31.8106C122.82 31.4046 123.016 30.9697 123.198 30.5202C123.306 30.2592 123.212 29.846 123.082 29.614C122.936 29.3675 122.661 29.1356 122.378 29.0703C122.073 29.0051 121.74 29.0196 121.471 29.1863L121.232 29.3675C121.087 29.5125 120.985 29.6865 120.927 29.8895L120.905 29.933L121.021 29.6503C120.811 30.136 120.543 30.5927 120.224 31.0132L120.405 30.7739C120.078 31.1944 119.709 31.5641 119.288 31.8903L119.527 31.7091C119.186 31.9701 118.824 32.2021 118.439 32.3906C118.185 32.5138 117.968 32.8328 117.895 33.0938C117.815 33.3765 117.852 33.7535 118.011 33.9999C118.171 34.2464 118.417 34.4711 118.715 34.5436C119.034 34.6161 119.324 34.5726 119.621 34.4277L119.636 34.4349Z" fill="url(#paint36_linear_9824_14693)"/>
<path d="M79.813 108.155C76.5778 93.7862 73.3499 79.4177 70.1147 65.0566C68.5552 58.1261 67.1117 51.1521 64.8485 44.4101C62.832 38.3931 60.2641 32.5428 57.1813 26.997C53.6995 20.7334 49.5286 14.8469 44.7049 9.54028C43.6821 8.41662 42.021 10.084 43.0365 11.2077C51.5016 20.5305 57.8922 31.7091 62.0703 43.5692C64.3698 50.0865 65.8495 56.8357 67.3656 63.5632C68.9686 70.6822 70.5717 77.8011 72.1675 84.9128C73.9592 92.8655 75.7509 100.825 77.5353 108.778C77.869 110.257 80.1394 109.633 79.8057 108.155H79.813Z" fill="url(#paint37_linear_9824_14693)"/>
<path d="M42.8551 9.77952C39.3806 15.1006 39.0687 21.6396 39.5692 27.7944C40.1495 34.9496 41.2956 42.0831 42.2095 49.2093C42.6665 52.7833 43.08 56.3645 43.7473 59.9095C44.3566 63.1572 45.1401 66.3615 45.9597 69.5585C47.5846 75.9235 49.2021 82.2813 50.7544 88.668C52.3938 95.4245 53.9533 102.196 55.5202 108.966C55.8611 110.445 58.1315 109.815 57.7906 108.343C55.0124 96.309 52.1689 84.2894 49.1006 72.3205C47.425 65.7743 45.8582 59.2788 44.995 52.573C44.0737 45.3671 43.0727 38.1611 42.2386 30.9407C41.4624 24.2422 41.0417 16.8767 44.8934 10.9757C45.7276 9.69978 43.682 8.51812 42.8551 9.78677V9.77952Z" fill="url(#paint38_linear_9824_14693)"/>
<path d="M47.4395 46.2588C47.1857 45.1133 46.9971 43.9172 47.338 42.7645C47.6789 41.6119 48.4551 40.8507 49.1224 39.959C49.7898 39.0673 50.254 38.0886 50.8778 37.1824C51.6322 36.0805 52.3213 34.8191 53.2135 33.8259C53.5327 33.4707 53.8373 33.1155 54.142 32.7385C54.5047 32.2818 54.6425 32.2601 55.0632 31.9121C55.5347 31.5206 54.0332 31.9846 54.142 31.5931C54.1202 31.6656 54.2 31.8468 54.2 31.8976C54.2435 32.3326 54.142 32.7893 54.0404 33.2097C53.5689 35.2541 52.7928 37.2912 51.5379 38.9803C49.7317 41.4161 47.8385 43.6997 45.6261 45.7803C44.6033 46.7445 46.1484 48.2813 47.1639 47.3172C49.5069 45.0988 51.4944 42.6558 53.4166 40.075C54.8674 38.1176 55.8974 35.4861 56.2746 33.072C56.4269 32.0788 56.485 30.8754 55.687 30.1142C54.7586 29.237 53.3949 30.2447 52.7565 31.0132C51.8208 32.1441 50.9213 33.2532 50.1162 34.4784C49.6882 35.1236 49.2312 35.7471 48.8032 36.3923C48.4551 36.9215 48.1867 37.4942 47.8385 38.0234C47.0188 39.292 45.9235 40.3432 45.3867 41.7786C44.7702 43.417 44.9878 45.1641 45.3505 46.8315C45.6479 48.1944 47.7515 47.6217 47.4468 46.2515L47.4395 46.2588Z" fill="url(#paint39_linear_9824_14693)"/>
<path d="M51.5524 66.7167C51.2187 65.3176 50.9649 63.8459 51.4509 62.454C51.9006 61.1564 52.9379 60.1995 53.7648 59.141C54.5917 58.0826 55.2663 56.8357 56.0933 55.7338C57.145 54.3346 58.1025 52.8703 59.3284 51.6089C59.7056 51.2246 60.032 50.7824 60.3875 50.3837C60.6123 50.13 60.3947 50.3039 60.7284 50.0865C60.8227 50.0285 61.3159 49.8037 61.345 49.7167C61.374 49.608 60.4455 49.7167 60.5325 49.4993C60.547 49.4558 60.5906 49.6153 60.5978 49.6008C60.5833 49.6443 60.6341 49.8545 60.6413 49.927C60.6921 50.4707 60.5325 51.0506 60.402 51.5726C59.7709 54.0229 58.7626 56.379 57.1596 58.3436C54.8529 61.1709 52.4954 63.8314 49.739 66.2382C48.6799 67.1589 50.225 68.6958 51.2768 67.7751C54.1057 65.3031 56.5357 62.5628 58.8859 59.6485C60.7429 57.3432 62.1139 54.3564 62.6579 51.4276C62.8755 50.275 62.9916 48.8613 62.0776 47.9624C61.1636 47.0634 59.6984 48.0059 58.9367 48.7526C57.7253 49.9487 56.6155 51.3189 55.6363 52.7108C55.0922 53.4865 54.5119 54.2259 53.9534 54.9871C53.4456 55.6758 53.0539 56.437 52.5679 57.1329C51.5306 58.6191 50.1597 59.808 49.4851 61.5261C48.7452 63.3892 49.0063 65.3901 49.4633 67.2894C49.7898 68.6523 51.8861 68.0724 51.5597 66.7095L51.5524 66.7167Z" fill="url(#paint40_linear_9824_14693)"/>
<path d="M56.7388 86.399C56.4051 84.9998 56.1513 83.5282 56.6373 82.1363C57.087 80.8386 58.1243 79.8817 58.9512 78.8233C59.7781 77.7649 60.4527 76.518 61.2797 75.416C62.3315 74.0169 63.2889 72.5525 64.5148 71.2911C64.892 70.9069 65.2184 70.4647 65.5739 70.066C65.7987 69.8122 65.5811 69.9862 65.9148 69.7687C66.0091 69.7107 66.5024 69.486 66.5314 69.399C66.5604 69.2903 65.6319 69.399 65.7189 69.1815C65.7335 69.138 65.777 69.2975 65.7842 69.283C65.7697 69.3265 65.8205 69.5367 65.8278 69.6092C65.8785 70.1529 65.7189 70.7329 65.5884 71.2549C64.9573 73.7052 63.949 76.0612 62.346 78.0258C60.0393 80.8531 57.6818 83.5137 54.9254 85.9205C53.8663 86.8412 55.4114 88.3781 56.4632 87.4574C59.2921 84.9853 61.7221 82.245 64.0723 79.3307C65.9293 77.0254 67.3003 74.0386 67.8443 71.1099C68.0619 69.9572 68.178 68.5436 67.264 67.6446C66.35 66.7457 64.8848 67.6881 64.1231 68.4348C62.9117 69.631 61.8019 71.0011 60.8227 72.393C60.2786 73.1687 59.6983 73.9082 59.1398 74.6694C58.632 75.358 58.2403 76.1192 57.7543 76.8152C56.7171 78.3013 55.3461 79.4902 54.6715 81.2084C53.9316 83.0715 54.1927 85.0723 54.6497 86.9717C54.9762 88.3346 57.0725 87.7546 56.7461 86.3917L56.7388 86.399Z" fill="url(#paint41_linear_9824_14693)"/>
<path d="M60.9895 104.871C60.9895 102.543 61.4682 100.514 62.8392 98.6288C63.6371 97.5341 64.4785 96.483 65.2547 95.3665C66.1977 94.0109 67.1261 92.59 68.1707 91.3141C68.5624 90.8356 69.0266 90.4369 69.4256 89.9657C69.9043 89.393 70.0857 89.1103 70.5789 88.7985C70.9634 88.5593 71.2825 88.5883 70.637 88.4216C69.8535 88.2186 70.3613 88.2476 70.325 88.5158C70.2743 88.9363 70.3758 89.4002 70.3033 89.8425C69.8898 92.445 68.5334 94.6923 67.0391 96.8019C65.0298 99.6365 62.549 101.833 59.9377 104.102C58.8786 105.023 60.4237 106.552 61.4755 105.639C64.1521 103.312 66.6474 101.043 68.7365 98.1431C70.5499 95.6348 72.1385 92.8655 72.5012 89.7337C72.6245 88.668 72.5374 87.1094 71.4494 86.5222C70.3613 85.935 68.867 87.2689 68.1997 88.0446C67.7209 88.6028 67.1914 89.103 66.7199 89.6612C65.9946 90.5094 65.3852 91.4663 64.7252 92.3725C63.7822 93.6702 62.919 95.0258 61.9252 96.2872C61.1346 97.2876 60.3439 98.2953 59.8144 99.4697C59.0455 101.173 58.8206 103.022 58.8134 104.878C58.8134 106.277 60.9895 106.277 60.9895 104.878V104.871Z" fill="url(#paint42_linear_9824_14693)"/>
<path d="M34.7744 163.613C34.9485 166.056 34.876 168.47 34.6801 170.913C34.506 173.073 34.7526 175.147 35.8697 177.039C36.8417 178.684 38.365 180.113 40.2002 180.714C42.0354 181.316 44.0447 181.033 45.9307 181.091C47.4467 181.142 47.4467 178.786 45.9307 178.735C44.3348 178.684 42.5939 178.945 41.0416 178.503C39.4893 178.061 38.3578 176.771 37.6614 175.415C36.7982 173.726 36.9505 171.935 37.1029 170.116C37.2842 167.955 37.2842 165.788 37.1319 163.62C37.0231 162.119 34.6656 162.105 34.7744 163.62V163.613Z" fill="url(#paint43_linear_9824_14693)"/>
</g>
<defs>
<linearGradient id="paint0_linear_9824_14693" x1="41.9947" y1="60.7189" x2="19.944" y2="57.4274" gradientUnits="userSpaceOnUse">
<stop stop-color="#660F33"/>
<stop offset="1" stop-color="#CC1E66"/>
</linearGradient>
<linearGradient id="paint1_linear_9824_14693" x1="46.2786" y1="63.8203" x2="33.1825" y2="54.0392" gradientUnits="userSpaceOnUse">
<stop stop-color="#660F33"/>
<stop offset="1" stop-color="#CC1E66"/>
</linearGradient>
<linearGradient id="paint2_linear_9824_14693" x1="48.0471" y1="95.8596" x2="22.359" y2="90.8659" gradientUnits="userSpaceOnUse">
<stop stop-color="#660F33"/>
<stop offset="1" stop-color="#CC1E66"/>
</linearGradient>
<linearGradient id="paint3_linear_9824_14693" x1="85.0502" y1="67.9266" x2="75.2977" y2="59.9505" gradientUnits="userSpaceOnUse">
<stop stop-color="#660F33"/>
<stop offset="1" stop-color="#CC1E66"/>
</linearGradient>
<linearGradient id="paint4_linear_9824_14693" x1="81.6022" y1="56.3117" x2="59.4321" y2="49.6913" gradientUnits="userSpaceOnUse">
<stop stop-color="#660F33"/>
<stop offset="1" stop-color="#CC1E66"/>
</linearGradient>
<linearGradient id="paint5_linear_9824_14693" x1="80.6797" y1="61.9197" x2="66.7186" y2="56.1524" gradientUnits="userSpaceOnUse">
<stop stop-color="#660F33"/>
<stop offset="1" stop-color="#CC1E66"/>
</linearGradient>
<linearGradient id="paint6_linear_9824_14693" x1="28.9637" y1="126.502" x2="2.38698" y2="123.656" gradientUnits="userSpaceOnUse">
<stop stop-color="#660F33"/>
<stop offset="1" stop-color="#CC1E66"/>
</linearGradient>
<linearGradient id="paint7_linear_9824_14693" x1="25.5524" y1="76.4382" x2="-4.44212" y2="68.7941" gradientUnits="userSpaceOnUse">
<stop stop-color="#660F33"/>
<stop offset="1" stop-color="#CC1E66"/>
</linearGradient>
<linearGradient id="paint8_linear_9824_14693" x1="150.743" y1="166.324" x2="104.082" y2="154.403" gradientUnits="userSpaceOnUse">
<stop stop-color="#660F33"/>
<stop offset="1" stop-color="#CC1E66"/>
</linearGradient>
<linearGradient id="paint9_linear_9824_14693" x1="156.991" y1="111.06" x2="90.0972" y2="96.9084" gradientUnits="userSpaceOnUse">
<stop stop-color="#660F33"/>
<stop offset="1" stop-color="#CC1E66"/>
</linearGradient>
<linearGradient id="paint10_linear_9824_14693" x1="127.594" y1="109.907" x2="66.8408" y2="98.1923" gradientUnits="userSpaceOnUse">
<stop stop-color="#660F33"/>
<stop offset="1" stop-color="#CC1E66"/>
</linearGradient>
<linearGradient id="paint11_linear_9824_14693" x1="126.655" y1="94.3271" x2="106.238" y2="89.1704" gradientUnits="userSpaceOnUse">
<stop stop-color="#660F33"/>
<stop offset="1" stop-color="#CC1E66"/>
</linearGradient>
<linearGradient id="paint12_linear_9824_14693" x1="141" y1="188.004" x2="11.9049" y2="143.796" gradientUnits="userSpaceOnUse">
<stop stop-color="#660F33"/>
<stop offset="1" stop-color="#CC1E66"/>
</linearGradient>
<linearGradient id="paint13_linear_9824_14693" x1="140.617" y1="129.016" x2="47.1298" y2="60.6722" gradientUnits="userSpaceOnUse">
<stop stop-color="#660F33"/>
<stop offset="1" stop-color="#CC1E66"/>
</linearGradient>
<linearGradient id="paint14_linear_9824_14693" x1="107.172" y1="92.3145" x2="104.486" y2="91.6663" gradientUnits="userSpaceOnUse">
<stop stop-color="#660F33"/>
<stop offset="1" stop-color="#CC1E66"/>
</linearGradient>
<linearGradient id="paint15_linear_9824_14693" x1="112.883" y1="92.1625" x2="106.881" y2="85.6974" gradientUnits="userSpaceOnUse">
<stop stop-color="#660F33"/>
<stop offset="1" stop-color="#CC1E66"/>
</linearGradient>
<linearGradient id="paint16_linear_9824_14693" x1="124.467" y1="100.703" x2="120.764" y2="100.399" gradientUnits="userSpaceOnUse">
<stop stop-color="#660F33"/>
<stop offset="1" stop-color="#CC1E66"/>
</linearGradient>
<linearGradient id="paint17_linear_9824_14693" x1="97.2291" y1="53.8126" x2="89.2211" y2="52.1017" gradientUnits="userSpaceOnUse">
<stop stop-color="#660F33"/>
<stop offset="1" stop-color="#CC1E66"/>
</linearGradient>
<linearGradient id="paint18_linear_9824_14693" x1="103.71" y1="50.8021" x2="91.0232" y2="43.8303" gradientUnits="userSpaceOnUse">
<stop stop-color="#660F33"/>
<stop offset="1" stop-color="#CC1E66"/>
</linearGradient>
<linearGradient id="paint19_linear_9824_14693" x1="104.207" y1="44.629" x2="90.5019" y2="41.5564" gradientUnits="userSpaceOnUse">
<stop stop-color="#660F33"/>
<stop offset="1" stop-color="#CC1E66"/>
</linearGradient>
<linearGradient id="paint20_linear_9824_14693" x1="104.656" y1="44.3184" x2="90.3809" y2="40.9307" gradientUnits="userSpaceOnUse">
<stop stop-color="#660F33"/>
<stop offset="1" stop-color="#CC1E66"/>
</linearGradient>
<linearGradient id="paint21_linear_9824_14693" x1="105.582" y1="32.5876" x2="91.7435" y2="29.374" gradientUnits="userSpaceOnUse">
<stop stop-color="#660F33"/>
<stop offset="1" stop-color="#CC1E66"/>
</linearGradient>
<linearGradient id="paint22_linear_9824_14693" x1="105.974" y1="32.5573" x2="91.7357" y2="29.3437" gradientUnits="userSpaceOnUse">
<stop stop-color="#660F33"/>
<stop offset="1" stop-color="#CC1E66"/>
</linearGradient>
<linearGradient id="paint23_linear_9824_14693" x1="95.8725" y1="22.0037" x2="89.5081" y2="20.6235" gradientUnits="userSpaceOnUse">
<stop stop-color="#660F33"/>
<stop offset="1" stop-color="#CC1E66"/>
</linearGradient>
<linearGradient id="paint24_linear_9824_14693" x1="94.9513" y1="34.281" x2="88.678" y2="33.0139" gradientUnits="userSpaceOnUse">
<stop stop-color="#660F33"/>
<stop offset="1" stop-color="#CC1E66"/>
</linearGradient>
<linearGradient id="paint25_linear_9824_14693" x1="92.5254" y1="47.4816" x2="86.474" y2="44.7382" gradientUnits="userSpaceOnUse">
<stop stop-color="#660F33"/>
<stop offset="1" stop-color="#CC1E66"/>
</linearGradient>
<linearGradient id="paint26_linear_9824_14693" x1="92.0901" y1="58.0802" x2="84.2954" y2="55.4967" gradientUnits="userSpaceOnUse">
<stop stop-color="#660F33"/>
<stop offset="1" stop-color="#CC1E66"/>
</linearGradient>
<linearGradient id="paint27_linear_9824_14693" x1="107.778" y1="50.2111" x2="100.895" y2="49.8972" gradientUnits="userSpaceOnUse">
<stop stop-color="#660F33"/>
<stop offset="1" stop-color="#CC1E66"/>
</linearGradient>
<linearGradient id="paint28_linear_9824_14693" x1="120.928" y1="44.9203" x2="102.358" y2="39.0036" gradientUnits="userSpaceOnUse">
<stop stop-color="#660F33"/>
<stop offset="1" stop-color="#CC1E66"/>
</linearGradient>
<linearGradient id="paint29_linear_9824_14693" x1="120.507" y1="44.1573" x2="102.224" y2="38.1401" gradientUnits="userSpaceOnUse">
<stop stop-color="#660F33"/>
<stop offset="1" stop-color="#CC1E66"/>
</linearGradient>
<linearGradient id="paint30_linear_9824_14693" x1="118.919" y1="31.9034" x2="102.707" y2="28.1236" gradientUnits="userSpaceOnUse">
<stop stop-color="#660F33"/>
<stop offset="1" stop-color="#CC1E66"/>
</linearGradient>
<linearGradient id="paint31_linear_9824_14693" x1="117.401" y1="31.2234" x2="103.555" y2="28.4222" gradientUnits="userSpaceOnUse">
<stop stop-color="#660F33"/>
<stop offset="1" stop-color="#CC1E66"/>
</linearGradient>
<linearGradient id="paint32_linear_9824_14693" x1="107.916" y1="21.54" x2="99.5803" y2="20.6884" gradientUnits="userSpaceOnUse">
<stop stop-color="#660F33"/>
<stop offset="1" stop-color="#CC1E66"/>
</linearGradient>
<linearGradient id="paint33_linear_9824_14693" x1="110.131" y1="20.6456" x2="100.81" y2="19.5595" gradientUnits="userSpaceOnUse">
<stop stop-color="#660F33"/>
<stop offset="1" stop-color="#CC1E66"/>
</linearGradient>
<linearGradient id="paint34_linear_9824_14693" x1="121.855" y1="18.8899" x2="115.485" y2="17.4876" gradientUnits="userSpaceOnUse">
<stop stop-color="#660F33"/>
<stop offset="1" stop-color="#CC1E66"/>
</linearGradient>
<linearGradient id="paint35_linear_9824_14693" x1="104.631" y1="6.75382" x2="99.4566" y2="5.94118" gradientUnits="userSpaceOnUse">
<stop stop-color="#660F33"/>
<stop offset="1" stop-color="#CC1E66"/>
</linearGradient>
<linearGradient id="paint36_linear_9824_14693" x1="123.245" y1="34.5781" x2="116.883" y2="33.0313" gradientUnits="userSpaceOnUse">
<stop stop-color="#660F33"/>
<stop offset="1" stop-color="#CC1E66"/>
</linearGradient>
<linearGradient id="paint37_linear_9824_14693" x1="79.8391" y1="109.623" x2="33.8323" y2="105.373" gradientUnits="userSpaceOnUse">
<stop stop-color="#660F33"/>
<stop offset="1" stop-color="#CC1E66"/>
</linearGradient>
<linearGradient id="paint38_linear_9824_14693" x1="57.8253" y1="109.81" x2="34.8187" y2="108.755" gradientUnits="userSpaceOnUse">
<stop stop-color="#660F33"/>
<stop offset="1" stop-color="#CC1E66"/>
</linearGradient>
<linearGradient id="paint39_linear_9824_14693" x1="56.3673" y1="47.6232" x2="42.5075" y2="45.4162" gradientUnits="userSpaceOnUse">
<stop stop-color="#660F33"/>
<stop offset="1" stop-color="#CC1E66"/>
</linearGradient>
<linearGradient id="paint40_linear_9824_14693" x1="62.8111" y1="68.0666" x2="46.0489" y2="65.2437" gradientUnits="userSpaceOnUse">
<stop stop-color="#660F33"/>
<stop offset="1" stop-color="#CC1E66"/>
</linearGradient>
<linearGradient id="paint41_linear_9824_14693" x1="67.9975" y1="87.7488" x2="51.2353" y2="84.926" gradientUnits="userSpaceOnUse">
<stop stop-color="#660F33"/>
<stop offset="1" stop-color="#CC1E66"/>
</linearGradient>
<linearGradient id="paint42_linear_9824_14693" x1="72.5437" y1="105.927" x2="55.894" y2="103.004" gradientUnits="userSpaceOnUse">
<stop stop-color="#660F33"/>
<stop offset="1" stop-color="#CC1E66"/>
</linearGradient>
<linearGradient id="paint43_linear_9824_14693" x1="47.0677" y1="181.108" x2="31.9419" y2="178.582" gradientUnits="userSpaceOnUse">
<stop stop-color="#660F33"/>
<stop offset="1" stop-color="#CC1E66"/>
</linearGradient>
<clipPath id="clip0_9824_14693">
<rect width="157" height="188" fill="white"/>
</clipPath>
</defs>
</svg>
