<svg width="175" height="180" viewBox="0 0 175 180" fill="none" xmlns="http://www.w3.org/2000/svg">
<g clip-path="url(#clip0_9824_14651)">
<path d="M86.5595 23.8101C71.7755 28.8863 56.222 30.9139 40.7753 32.8058C37.9753 33.1485 35.0185 33.5055 32.2541 32.7487C29.4896 31.9919 27.6443 29.8429 28.1502 26.9015C28.7273 23.5245 31.6769 21.4398 34.5839 20.0976C37.9397 18.5412 41.5235 17.3846 45.0574 16.2994C52.1394 14.1219 59.3355 12.3513 66.4176 10.1809C73.4997 8.01048 80.7385 5.68301 87.9987 3.79106C91.4115 2.89863 94.7388 2.15612 98.2869 2.32747C101.835 2.49882 105.184 3.38411 108.411 4.66207C111.639 5.94004 114.895 7.78916 117.866 9.79534C120.474 11.5588 122.903 13.5364 125.532 15.2642C127.613 16.6349 130.213 18.1771 131.268 20.5616C132.507 23.3746 130.904 26.98 129.907 29.6216C127.52 35.9543 126.38 42.6725 123.972 48.9838C123.438 50.3903 122.811 51.7539 122.105 53.089L123.103 52.5179C119.811 52.4893 116.576 51.297 113.498 50.2404C110.164 49.0909 106.815 47.7773 103.331 47.1775C100.289 46.6492 97.0757 46.8705 93.9978 46.8277C92.3021 46.8063 90.5993 46.7991 88.8964 46.9062C87.1936 47.0133 85.4694 47.4203 83.7452 47.7915C79.7695 48.6411 75.7582 48.9481 71.6971 48.8268C68.555 48.7339 64.3585 48.8624 61.9147 46.4707C61.074 45.6426 60.4042 44.0933 61.2165 43.0367C62.0857 41.9015 63.6745 41.2447 64.9428 40.6949C66.8237 39.881 68.7545 39.6311 70.778 39.4098C73.0081 39.1599 75.2168 38.7744 77.3827 38.1818C79.8052 37.5179 82.1706 36.6254 84.4363 35.5402C86.3457 34.6264 88.3977 33.584 89.8084 31.9491C91.0838 30.4712 91.7535 28.5793 91.1835 26.6516C90.6634 24.881 89.2954 23.5602 87.4216 23.446C85.9325 23.3532 85.9396 25.6735 87.4216 25.7663C88.7967 25.852 89.2883 27.7297 88.9891 28.8363C88.5402 30.4926 86.8659 31.585 85.4765 32.3846C81.5721 34.6192 77.2046 36.0828 72.7801 36.8111C70.6355 37.168 68.4268 37.2037 66.3179 37.7463C64.7219 38.1604 63.0974 38.8958 61.6867 39.7382C60.4327 40.4807 59.0933 41.5088 58.6872 42.9867C58.281 44.4646 58.7727 46.2137 59.6846 47.4203C61.701 50.069 65.3346 50.783 68.4624 50.99C72.5521 51.2542 76.6346 51.2613 80.7029 50.683C82.7833 50.3903 84.7925 49.8548 86.8516 49.4622C88.3336 49.1766 89.8797 49.1552 91.383 49.1409C93.1856 49.1195 94.981 49.1623 96.7836 49.198C98.1943 49.2266 99.6122 49.1409 101.023 49.2194C104.828 49.4265 108.561 50.9829 112.123 52.218C115.686 53.4531 119.334 54.8168 123.11 54.8453C123.502 54.8453 123.922 54.624 124.107 54.2742C127.392 48.0485 128.696 41.0804 130.698 34.3908C131.731 30.9353 133.469 27.644 133.897 24.0314C134.267 20.8901 133.106 18.3556 130.79 16.278C128.475 14.2004 125.917 12.9296 123.566 11.1376C120.595 8.86721 117.581 6.69682 114.289 4.90481C107.763 1.3565 100.382 -0.806752 92.9291 0.307003C89.1315 0.871021 85.3625 2.07759 81.6719 3.14137C77.9812 4.20515 74.0412 5.41885 70.2365 6.58973C62.7269 8.91005 55.1532 10.9662 47.6009 13.1366C43.7892 14.2361 40.0059 15.4498 36.3081 16.8991C32.9665 18.2128 29.5822 19.7263 27.4305 22.7463C25.5068 25.4522 25.0651 29.3432 27.1242 32.0919C28.884 34.4479 31.8052 35.2689 34.6124 35.4617C38.0038 35.6973 41.4308 35.0547 44.7866 34.6407C48.8977 34.1266 53.0087 33.5912 57.1055 32.97C65.299 31.742 73.4569 30.1928 81.4154 27.8796C83.3533 27.3156 85.2699 26.7087 87.1793 26.0519C88.5829 25.5735 87.9773 23.3318 86.5666 23.8172L86.5595 23.8101Z" fill="url(#paint0_linear_9824_14651)"/>
<path d="M139.946 21.4469C138.649 28.6792 136.127 35.6402 133.84 42.6012C132.65 46.2209 131.46 49.8406 130.27 53.4674C129.814 54.8525 128.724 56.9086 130.591 57.7083C132.23 58.4079 134.075 58.8077 135.785 59.3361C142.881 61.5493 149.956 63.9838 157.195 65.683C158.962 66.0971 160.743 66.4612 162.532 66.7397C163.244 66.8539 164.014 67.0538 164.705 66.7468C165.481 66.4041 165.788 65.6616 166.073 64.9191C167.319 61.7135 167.825 58.2866 168.488 54.931C168.858 53.0391 169.272 51.1542 169.892 49.3265C170.511 47.4988 171.48 45.6711 172.193 43.8006C172.905 41.93 173.29 39.9096 173.689 37.932C174.117 35.7901 174.544 33.6411 174.972 31.4993C175.093 30.8782 174.801 30.257 174.166 30.0714C163.814 27.0728 153.462 24.0743 143.116 21.0686C141.684 20.6545 141.072 22.8891 142.504 23.3032C152.856 26.3018 163.208 29.3004 173.554 32.3061L172.749 30.8782C172.072 34.2837 171.53 37.7606 170.633 41.1233C169.735 44.486 168.032 47.1918 167.156 50.3974C166.279 53.6031 165.88 56.7087 165.168 59.8501C165.004 60.5783 164.819 61.3065 164.612 62.0276C164.505 62.3846 164.398 62.7416 164.284 63.0985C164.163 63.4769 164.056 64.1266 163.8 64.4336C163.543 64.7406 163.999 64.4622 163.636 64.5764C163.529 64.6121 163.273 64.5193 163.159 64.505C162.71 64.4336 162.261 64.3551 161.819 64.2766C160.985 64.1266 160.152 63.9624 159.318 63.7839C152.564 62.3275 145.988 60.0857 139.404 58.0295C137.744 57.5083 136.084 56.9943 134.424 56.4731C133.648 56.2304 132.871 55.9876 132.101 55.7449C132.009 55.7163 131.467 55.5164 131.439 55.5379L131.653 55.8092C131.831 56.1947 131.938 56.1733 131.973 55.7449C132.201 55.3808 132.28 54.8168 132.415 54.4098C133.512 51.0686 134.609 47.7273 135.714 44.3789C138.129 37.0324 140.829 29.6859 142.204 22.0538C142.468 20.5902 140.238 19.9691 139.974 21.4398L139.946 21.4469Z" fill="url(#paint1_linear_9824_14651)"/>
<path d="M30.708 122.877C32.9666 119.922 35.9875 117.544 39.1295 115.602C42.4355 113.56 46.0763 111.825 49.7099 110.469C53.7283 108.962 57.8963 108.456 62.1285 107.949C66.1184 107.47 70.0085 106.535 73.8916 105.535C77.7746 104.536 81.8714 103.444 85.961 102.922C87.4074 102.737 88.8537 102.694 90.3072 102.801C91.5184 102.894 93.0431 103.03 94.0548 103.779C95.1806 104.615 95.5724 106.214 95.3231 107.542C95.0594 108.991 94.0263 109.869 92.8436 110.633C90.3713 112.232 87.557 113.203 84.7926 114.16C82.9971 114.781 81.1874 115.367 79.3421 115.809C77.4967 116.252 75.7084 116.323 73.8773 116.602C70.0655 117.18 66.4675 118.558 62.5987 118.858C62.0002 118.901 61.4018 119.35 61.4445 120.014C61.644 123.62 65.1922 123.741 67.921 124.534C71.8254 125.669 75.9079 126.747 79.9976 126.097C81.4653 125.862 82.8546 125.333 84.3295 125.105C85.8043 124.876 87.2008 124.733 88.6186 124.448C90.0364 124.162 91.383 123.513 92.7581 123.02C94.1332 122.527 95.6223 122.07 97.0829 121.678C99.0208 121.164 100.93 120.685 102.79 119.929C104.649 119.172 106.473 118.315 108.326 117.516C112.237 115.831 116.234 114.338 120.281 113.018C124.257 111.718 128.304 110.54 132.394 109.641C135.158 109.027 139.062 108.441 141.2 110.819C143.729 113.624 141.813 117.758 139.711 120.143C137.224 122.97 134.21 125.319 130.99 127.239C128.795 128.546 126.715 130.052 124.599 131.48C122.248 133.072 119.868 134.529 117.346 135.85C104.101 142.768 89.4665 145.688 74.6326 146.359C70.7994 146.53 66.9591 146.58 63.126 146.552C61.1524 146.537 59.1717 146.502 57.1981 146.452C55.2245 146.402 53.365 146.502 51.7262 145.209C48.5628 142.725 45.6559 139.791 42.8131 136.956C39.9703 134.122 37.1417 131.095 34.477 128.011C33.1233 126.447 31.8052 124.862 30.5085 123.256C29.5752 122.092 27.9436 123.741 28.8698 124.898C34.192 131.502 39.9917 137.713 46.2473 143.446C47.715 144.795 49.1756 146.238 50.8 147.401C52.4245 148.565 54.2983 148.701 56.2505 148.751C60.276 148.858 64.3016 148.908 68.3342 148.858C83.5243 148.658 98.686 146.702 112.729 140.619C116.092 139.162 119.448 137.535 122.561 135.6C124.798 134.215 126.95 132.673 129.145 131.209C131.66 129.524 134.303 128.06 136.668 126.154C139.632 123.763 142.839 120.95 144.149 117.258C145.318 113.967 144.548 110.033 141.492 108.07C138.656 106.249 134.887 106.721 131.774 107.406C123.452 109.241 115.294 112.04 107.464 115.381C105.497 116.223 103.566 117.159 101.572 117.93C99.7048 118.651 97.7669 119.079 95.836 119.607C94.3826 120.007 92.9505 120.471 91.5398 121C90.1291 121.528 88.7825 122.085 87.272 122.342C85.7615 122.599 84.3295 122.734 82.8689 123.006C81.2515 123.306 79.7696 123.898 78.1024 123.97C74.0198 124.141 70.2223 122.62 66.3036 121.749C65.2349 121.514 63.8171 121.349 63.7458 120.014L62.5916 121.171C66.3464 120.885 69.8304 119.679 73.4997 118.993C75.2667 118.665 77.0693 118.629 78.8362 118.279C80.6032 117.93 82.4699 117.366 84.244 116.773C87.2578 115.766 90.3571 114.724 93.1286 113.139C94.4895 112.361 95.9287 111.411 96.7836 110.062C97.6956 108.613 97.9022 106.706 97.4748 105.071C97.0758 103.551 96.0783 102.137 94.6391 101.445C93.1999 100.752 91.5184 100.531 89.9224 100.438C86.1107 100.217 82.2561 101.073 78.5655 101.944C74.2692 102.951 70.0299 104.222 65.698 105.043C61.2878 105.885 56.7706 106.007 52.4102 107.142C49.9949 107.777 47.6651 108.72 45.3923 109.748C43.1195 110.776 41.0176 111.768 38.9443 112.975C35.047 115.231 31.4276 118.087 28.6846 121.685C28.2998 122.185 28.6133 122.977 29.0978 123.27C29.6892 123.627 30.3019 123.348 30.6795 122.856L30.708 122.877Z" fill="url(#paint2_linear_9824_14651)"/>
<path d="M22.3292 125.69C18.0828 128.689 14.1571 132.101 10.4094 135.707C8.52845 137.513 6.69025 139.369 4.87342 141.24C4.03981 142.097 3.20621 142.953 2.37973 143.817C1.55325 144.681 0.570021 145.645 0.171031 146.859C-0.641199 149.308 1.596 151.05 3.07084 152.656C4.98741 154.734 6.90399 156.818 8.81345 158.896C12.5754 162.98 16.3159 167.078 20.092 171.147C22.714 173.974 25.4428 176.859 28.5278 179.186C29.4398 179.879 30.4017 180.236 31.5203 179.822C32.5747 179.436 33.5793 178.736 34.5127 178.13C36.4435 176.866 38.2604 175.409 39.9632 173.853C43.3332 170.762 46.2758 167.235 49.2468 163.765C50.0092 162.872 50.7787 161.98 51.5624 161.102C52.3461 160.224 53.2011 159.303 53.479 158.118C54.0775 155.605 51.2917 153.912 49.7171 152.485C40.9322 144.481 32.6246 135.964 24.8229 126.99C23.8397 125.862 22.2081 127.511 23.1842 128.632C29.5966 136.007 36.358 143.082 43.4401 149.814C45.2142 151.499 47.0025 153.156 48.8122 154.798C49.2255 155.169 49.6387 155.54 50.0519 155.912C50.3939 156.219 50.8784 156.547 51.0922 156.961C51.6052 157.946 50.3156 159.01 49.7242 159.688C46.8814 162.915 44.1811 166.264 41.21 169.369C38.239 172.475 35.0756 175.274 31.3493 177.337C30.9859 177.537 30.708 177.773 30.2948 177.615C29.9884 177.501 29.6963 177.194 29.4398 176.987C28.6917 176.38 27.9721 175.738 27.2667 175.081C25.8774 173.789 24.5379 172.454 23.2198 171.083C16.4156 164.029 9.89642 156.675 3.27033 149.457C2.94259 149.1 2.42248 148.672 2.3156 148.172C2.20161 147.623 2.58635 147.08 2.89984 146.673C3.6907 145.652 4.70242 144.753 5.60015 143.824C7.41698 141.954 9.24094 140.09 11.1076 138.263C14.9907 134.465 19.0518 130.838 23.4977 127.696C24.7089 126.84 23.5476 124.826 22.3292 125.69Z" fill="url(#paint3_linear_9824_14651)"/>
<path d="M110.314 116.873C113.627 114.967 116.69 112.661 119.604 110.19C122.226 107.963 124.492 105.464 125.497 102.101C127.306 96.0542 124.927 89.3146 119.505 86.0161C116.997 84.4883 113.969 83.7101 111.033 83.9171C107.806 84.1456 105.07 85.5592 102.569 87.544C101.329 88.5292 100.161 89.6073 98.9211 90.5997C97.9521 91.3779 96.9048 92.0347 95.9002 92.7629C95.6366 92.9557 95.3658 93.1556 95.0879 93.327C94.6961 93.5626 94.8101 93.5197 94.4111 93.6339C93.5205 93.891 92.5373 93.8481 91.5754 93.8481C88.5616 93.8338 85.6404 93.6054 82.9829 92.0561C82.0281 91.4992 81.1447 90.8424 80.2612 90.1856C79.4347 89.5787 78.5512 89.0361 77.8316 88.2936C75.9934 86.4088 75.345 83.2603 75.0529 80.7329C74.6896 77.5487 75.1171 74.2289 76.7558 71.4374C78.7721 67.9962 81.964 65.583 85.8114 64.6263C87.3575 64.2479 88.9321 64.0338 90.5209 63.9409C92.1098 63.8481 93.4564 64.2622 94.8528 64.7977C96.0854 65.2689 97.4106 65.8258 98.4366 66.6754C99.5695 67.6178 100.531 68.7601 101.557 69.8167C102.526 70.8162 103.574 71.8729 104.828 72.494C106.253 73.208 107.927 73.6506 109.459 74.0647C112.701 74.9428 116.085 74.8572 119.077 73.2365C124.35 70.3807 127.178 64.3122 126.451 58.4079C126.238 56.6587 125.767 54.9809 125.14 53.3388C124.606 51.9609 122.369 52.5606 122.91 53.9528C124.029 56.8586 124.663 59.95 123.951 63.0342C123.309 65.8043 121.977 68.2246 119.747 70.0166C117.189 72.0799 114.097 72.7439 110.905 72.0228C109.309 71.6658 107.535 71.1875 106.053 70.5021C104.863 69.9524 103.916 68.9029 103.018 67.9676C102.006 66.911 101.044 65.7972 99.9114 64.8762C98.857 64.0195 97.6386 63.4412 96.3918 62.9129C94.9811 62.3131 93.5205 61.8134 91.9958 61.6349C90.4711 61.4564 88.7753 61.7277 87.2293 61.9705C84.8496 62.3488 82.4556 63.0485 80.4037 64.3479C79.1141 65.1618 78.0525 66.2042 77.0194 67.3179C74.9674 69.5311 73.5211 72.1442 72.9654 75.1285C72.3526 78.3912 72.6732 81.7253 73.5923 84.8953C74.2977 87.3227 75.3878 89.4074 77.4184 90.9495C79.1497 92.2632 80.9452 93.6839 82.9259 94.6121C85.7758 95.9543 88.8537 96.1613 91.9673 96.147C93.72 96.1399 95.3302 96.0042 96.7908 94.969C98.9282 93.4483 100.987 91.8919 102.982 90.1927C105.298 88.2222 107.806 86.4731 110.926 86.2232C116.94 85.7377 122.504 89.7429 123.609 95.7329C124.164 98.7529 123.53 102.001 121.82 104.55C120.851 105.999 119.533 107.192 118.215 108.32C116.804 109.534 115.344 110.697 113.84 111.797C112.337 112.896 110.777 113.91 109.159 114.845C107.87 115.588 109.031 117.594 110.328 116.851L110.314 116.873Z" fill="url(#paint4_linear_9824_14651)"/>
<path d="M70.9918 120.007C73.742 120.921 76.7914 121.221 79.6413 121.671C82.8831 122.185 86.0893 122.734 89.381 122.556C92.1668 122.406 94.9454 121.992 97.6956 121.506C99.1633 121.249 98.5364 119.015 97.0829 119.272C94.062 119.8 91.0054 120.25 87.9346 120.286C86.0893 120.307 84.472 120.071 82.7192 119.814C80.6032 119.5 78.4871 119.165 76.3853 118.793C74.7964 118.515 73.1435 118.287 71.6116 117.78C70.1938 117.308 69.5882 119.55 70.9989 120.014L70.9918 120.007Z" fill="url(#paint5_linear_9824_14651)"/>
<path d="M60.2689 46.4422C57.2765 49.5621 54.6831 53.0533 52.51 56.7944C50.3369 60.5354 48.4132 64.6049 47.4086 68.8601C46.404 73.1152 46.404 77.8272 46.8885 82.2894C47.373 86.7515 48.3206 90.9924 49.9166 95.1047C50.3797 96.297 50.8855 97.475 51.4484 98.6245C51.9685 99.6882 52.6097 100.702 53.08 101.787C53.479 102.701 53.7141 103.551 54.2841 104.386C54.7329 105.043 55.367 105.707 55.6663 106.449C55.9014 107.035 56.4358 107.435 57.0913 107.256C57.6399 107.113 58.1386 106.406 57.8964 105.828C57.362 104.507 56.2434 103.544 55.6877 102.251C55.2816 101.309 54.9752 100.366 54.4907 99.4598C54.0062 98.5531 53.4861 97.5607 53.0372 96.5826C51.2489 92.6773 50.0947 88.4721 49.4534 84.2242C48.8122 79.9762 48.5557 75.5711 49.2539 71.3731C49.9522 67.1751 51.6336 63.1985 53.6642 59.4645C55.9085 55.3308 58.6516 51.4826 61.9076 48.0842C62.9407 47.0062 61.302 45.3641 60.2689 46.4422Z" fill="url(#paint6_linear_9824_14651)"/>
<path d="M87.5926 70.1095C83.9946 70.852 81.5151 74.1147 81.1874 77.6844C80.8596 81.2542 82.762 85.3379 85.9824 87.2299C89.4664 89.2718 93.8767 87.9081 96.7979 85.4593C98.3796 84.1385 99.0066 82.3251 99.2417 80.3332C99.4768 78.3413 99.5267 76.2565 98.6575 74.3931C96.691 70.188 91.5611 69.1028 87.4501 70.3379C86.0251 70.7663 86.6307 73.0081 88.0628 72.5726C90.8629 71.7301 94.2258 72.0585 96.0783 74.5788C96.9689 75.7925 97.1256 77.2061 97.0544 78.6697C96.9831 80.1333 96.8976 81.8396 95.9358 83.039C95.0309 84.1671 93.5489 84.931 92.2166 85.4236C90.8843 85.9162 89.3382 86.1518 87.9275 85.6021C85.3198 84.5954 83.6312 81.6897 83.4744 78.9767C83.2963 75.9138 85.0989 72.9795 88.2053 72.337C89.6659 72.0371 89.0461 69.8025 87.5926 70.1023V70.1095Z" fill="url(#paint7_linear_9824_14651)"/>
</g>
<defs>
<linearGradient id="paint0_linear_9824_14651" x1="133.965" y1="54.8453" x2="25.1912" y2="1.18787" gradientUnits="userSpaceOnUse">
<stop stop-color="#660F33"/>
<stop offset="1" stop-color="#CC1E66"/>
</linearGradient>
<linearGradient id="paint1_linear_9824_14651" x1="174.998" y1="66.9099" x2="121.4" y2="53.7562" gradientUnits="userSpaceOnUse">
<stop stop-color="#660F33"/>
<stop offset="1" stop-color="#CC1E66"/>
</linearGradient>
<linearGradient id="paint2_linear_9824_14651" x1="144.669" y1="148.877" x2="37.8186" y2="84.8678" gradientUnits="userSpaceOnUse">
<stop stop-color="#660F33"/>
<stop offset="1" stop-color="#CC1E66"/>
</linearGradient>
<linearGradient id="paint3_linear_9824_14651" x1="53.5619" y1="179.998" x2="-9.58298" y2="164.488" gradientUnits="userSpaceOnUse">
<stop stop-color="#660F33"/>
<stop offset="1" stop-color="#CC1E66"/>
</linearGradient>
<linearGradient id="paint4_linear_9824_14651" x1="126.564" y1="117.014" x2="61.9957" y2="103.512" gradientUnits="userSpaceOnUse">
<stop stop-color="#660F33"/>
<stop offset="1" stop-color="#CC1E66"/>
</linearGradient>
<linearGradient id="paint5_linear_9824_14651" x1="98.5326" y1="122.59" x2="87.1482" y2="106.049" gradientUnits="userSpaceOnUse">
<stop stop-color="#660F33"/>
<stop offset="1" stop-color="#CC1E66"/>
</linearGradient>
<linearGradient id="paint6_linear_9824_14651" x1="62.2365" y1="107.299" x2="42.7366" y2="106.051" gradientUnits="userSpaceOnUse">
<stop stop-color="#660F33"/>
<stop offset="1" stop-color="#CC1E66"/>
</linearGradient>
<linearGradient id="paint7_linear_9824_14651" x1="99.3894" y1="88.2228" x2="77.9151" y2="82.8908" gradientUnits="userSpaceOnUse">
<stop stop-color="#660F33"/>
<stop offset="1" stop-color="#CC1E66"/>
</linearGradient>
<clipPath id="clip0_9824_14651">
<rect width="175" height="180" fill="white"/>
</clipPath>
</defs>
</svg>
