<svg width="177" height="172" viewBox="0 0 177 172" fill="none" xmlns="http://www.w3.org/2000/svg">
<g clip-path="url(#clip0_9824_14772)">
<path d="M35.3232 32.0173C38.51 34.556 42.887 35.8713 46.9108 36.2536C50.9346 36.636 55.3576 34.969 58.6289 32.5296C64.7874 27.9339 67.2831 19.8359 64.9256 12.5638C62.5528 5.2687 55.8875 0.344147 48.2162 0.0153336C46.3349 -0.0687814 44.4074 0.152976 42.5952 0.657667C40.5833 1.22353 39.0168 2.17174 37.4349 3.50229C35.7225 4.93224 34.3326 6.7063 32.9811 8.46507C31.6297 10.2238 30.6467 12.2961 30.0324 14.4831C29.4795 16.4484 29.0726 18.6965 29.2569 20.7382C29.4411 22.7799 30.3933 24.8599 31.3916 26.6645C32.459 28.5992 33.7721 30.442 35.3309 32.0173C36.4597 33.1567 38.2259 31.3979 37.0971 30.2585C34.7857 27.9339 32.8429 24.8446 31.9675 21.6711C31.5452 20.1265 31.7602 18.5054 32.029 16.953C32.3284 15.2172 32.866 13.4967 33.6799 11.9291C34.6168 10.1168 36.0067 8.42684 37.4503 6.98159C38.4102 6.01809 39.347 5.06224 40.4528 4.26697C41.7889 3.30347 43.6088 2.87525 45.2137 2.63819C51.6948 1.69763 58.3294 4.88636 61.4163 10.6521C64.5033 16.4178 63.7738 23.7434 59.2816 28.6145C56.6477 31.4667 52.6623 33.5925 48.746 33.799C46.6651 33.9137 44.5457 33.3937 42.5568 32.8432C40.568 32.2926 38.6482 31.4973 37.0894 30.2585C35.8454 29.2721 34.0716 31.0156 35.3232 32.0173Z" fill="url(#paint0_linear_9824_14772)"/>
<path d="M31.6681 71.689C31.2457 69.8461 31.5606 67.4144 31.7142 65.4415C31.8908 63.2469 32.2363 61.2358 32.7047 59.0641C33.2039 56.7012 33.8412 54.3536 35.2158 52.3349C36.7285 50.1096 39.109 48.2897 41.597 47.2803C44.085 46.2709 46.5883 45.9039 49.084 45.3227C51.38 44.7874 53.722 44.1375 56.0718 43.931C58.7671 43.6939 61.593 43.3269 64.2806 43.8239C65.4632 44.0457 66.6381 44.3669 67.6363 45.0551C68.4503 45.6133 69.126 46.378 69.8402 47.0509C71.0765 48.2132 71.9519 49.5438 72.8964 50.9431C74.0022 52.5796 75.2692 54.1854 76.1676 55.9442C77.0661 57.7029 77.9799 59.5611 79.0089 61.3428C79.8075 62.7269 81.9653 61.4805 81.1666 60.0887C80.2529 58.5135 79.3467 56.9459 78.6019 55.2865C77.857 53.6272 76.7052 52.1284 75.6762 50.6143C74.724 49.215 73.8486 47.7315 72.7428 46.4468C71.161 44.6116 69.1875 42.7457 66.8684 41.9199C64.1424 40.9564 61.2474 41.0481 58.4139 41.2623C55.5804 41.4764 52.8927 41.8969 50.136 42.524C47.3792 43.151 44.7914 43.6098 42.2113 44.4204C39.2319 45.3533 36.4751 47.0738 34.3864 49.3908C32.5972 51.3714 31.4838 53.7495 30.8004 56.2959C30.0709 58.9876 29.564 61.7634 29.303 64.5392C29.0726 67.0473 28.704 69.8614 29.2646 72.3466C29.6178 73.9066 32.029 73.2489 31.6681 71.689Z" fill="url(#paint1_linear_9824_14772)"/>
<path d="M75.2231 45.3533C79.5848 43.8469 84.0078 42.2563 88.5999 41.614C90.6041 41.3387 92.7695 41.2087 94.7277 41.8205C95.5954 42.0881 95.8104 42.2487 96.4554 42.784C96.5706 42.8834 96.6935 43.0057 96.824 43.0822C97.0851 43.2428 96.8778 43.1434 96.7933 42.9675C96.8163 43.0057 96.8394 43.0593 96.8547 43.0975C97.0083 43.801 97.4998 44.558 97.7839 45.2233C98.3445 46.5309 98.9357 47.9609 99.4963 49.3602C101.14 53.4513 102.668 57.5882 104.027 61.7787C105.639 66.7721 107.121 71.9107 107.705 77.1335C107.882 78.7088 110.377 78.7241 110.201 77.1335C109.141 67.5826 105.716 58.2535 102.176 49.3679C101.193 46.898 100.257 44.3439 99.0663 41.9581C98.667 41.1552 97.6841 40.4593 96.9008 40.0464C94.9811 39.0294 92.7158 38.8382 90.5733 38.9453C85.0599 39.2359 79.7383 41.1705 74.5704 42.9599C73.0653 43.4798 73.7104 45.8809 75.2308 45.3533H75.2231Z" fill="url(#paint2_linear_9824_14772)"/>
<path d="M88.6997 29.2873C87.5478 31.0996 85.5129 32.5296 83.5932 33.4396C81.6734 34.3495 79.124 34.2884 77.043 33.6843C73.0269 32.5143 70.3239 28.8056 70.3546 24.6534C70.3853 20.5011 73.2112 16.9836 77.1121 15.7372C79.0088 15.1331 80.8748 15.0872 82.7024 15.913C83.7467 16.3795 84.7066 16.9071 85.6742 17.5112C87.471 18.6353 89.3063 20.807 89.767 22.9328C90.1971 24.9287 89.552 27.475 88.7073 29.2873C88.0393 30.7326 90.1894 31.9943 90.8651 30.5414C91.8864 28.3468 92.5238 25.7469 92.3241 23.3152C92.1245 20.8835 90.5196 18.49 88.8225 16.8154C87.6016 15.6148 86.0504 14.7201 84.4993 14.009C83.5164 13.5578 82.5104 13.0761 81.4354 12.8849C80.2067 12.6631 78.9013 12.7779 77.6804 13.0226C72.7428 14.009 68.6883 18.0542 67.9972 23.0475C67.3061 28.0409 70.0168 33.3784 74.8468 35.4966C77.5345 36.6818 80.8902 37.0336 83.7007 36.0624C86.4574 35.1142 89.3063 32.9961 90.8728 30.5338C91.7328 29.1803 89.5751 27.9339 88.715 29.2797L88.6997 29.2873Z" fill="url(#paint3_linear_9824_14772)"/>
<path d="M20.3724 90.4849C18.0994 86.455 15.9032 82.3869 13.7915 78.2729C13.0082 76.7436 12.2327 75.2142 11.4878 73.6619C11.0501 72.7596 10.6047 71.9108 10.359 71.1079C9.68324 68.875 9.41448 66.2827 9.65253 63.9657C9.78307 62.6581 10.1209 61.9087 11.0808 61.1976C12.5398 60.1194 13.9451 58.98 15.3887 57.8865C18.898 55.2331 22.7221 52.832 27.1836 52.2737C27.8593 52.1896 28.4276 51.7614 28.4276 51.035C28.4276 50.4309 27.8517 49.7121 27.1836 49.7962C22.8296 50.3391 19.0055 52.2202 15.4732 54.759C13.8376 55.9366 12.2711 57.2059 10.6738 58.4218C9.35305 59.4235 8.13977 60.1576 7.57921 61.794C6.62702 64.5469 7.11847 67.8962 7.69439 70.6796C8.18585 73.0578 9.47591 75.2525 10.551 77.4089C12.9852 82.2569 15.5576 87.0362 18.2146 91.7619C18.9978 93.1537 21.1556 91.9072 20.3724 90.5079V90.4849Z" fill="url(#paint4_linear_9824_14772)"/>
<path d="M4.6688 45.7281C7.13375 47.6245 10.3359 48.5727 13.3998 48.9015C16.4637 49.2303 19.8731 48.0298 22.4149 46.2175C27.2449 42.7687 29.3643 36.5595 27.4753 30.9162C25.5863 25.2728 20.5182 21.7782 14.7129 21.5335C13.2616 21.4723 11.7795 21.6406 10.3819 22.0229C8.88455 22.4358 7.70199 23.1241 6.50407 24.0799C5.11418 25.1963 3.98538 26.5881 2.89496 27.9798C0.975224 30.4421 -0.238051 34.0514 0.0383912 37.1866C0.314834 40.3218 2.48798 43.5564 4.6688 45.7204C5.80529 46.8521 7.57145 45.0934 6.43496 43.9616C4.73791 42.2793 3.28659 40.0465 2.6646 37.7295C2.08099 35.5654 2.97943 32.6673 4.01609 30.7632C4.73024 29.4556 5.75154 28.2627 6.81123 27.2151C7.43323 26.6034 8.03987 25.9993 8.74633 25.4716C9.76763 24.6993 11.0654 24.3322 12.3247 24.1334C17.0473 23.3764 22.0002 25.5863 24.3039 29.7997C26.6076 34.0131 25.9856 39.213 22.7144 42.6846C20.7485 44.7722 17.7768 46.3245 14.8818 46.4545C13.3537 46.5233 11.7795 46.1563 10.3205 45.751C8.9767 45.3763 7.55609 44.8257 6.45032 43.9693C5.91279 43.5564 5.21401 43.457 4.68416 43.9693C4.24646 44.3899 4.15431 45.3151 4.68416 45.7281H4.6688Z" fill="url(#paint5_linear_9824_14772)"/>
<path d="M97.2079 143.722C99.6191 150.253 101.869 156.875 103.873 163.535C104.296 164.934 104.726 166.341 105.01 167.771C105.325 169.339 107.728 168.674 107.413 167.114C106.814 164.109 105.77 161.172 104.825 158.266C103.628 154.565 102.376 150.88 101.086 147.209C100.602 145.825 100.118 144.441 99.6038 143.065C99.0509 141.573 96.6397 142.216 97.2002 143.722H97.2079Z" fill="url(#paint6_linear_9824_14772)"/>
<path d="M88.9838 94.5224C89.4752 98.7358 90.4197 102.842 91.3182 106.987C91.656 108.547 94.0672 107.889 93.7217 106.329C92.8693 102.406 91.9402 98.514 91.4718 94.53C91.395 93.8648 90.9573 93.2913 90.2278 93.2913C89.6134 93.2913 88.8993 93.8648 88.9838 94.53V94.5224Z" fill="url(#paint7_linear_9824_14772)"/>
<path d="M130.335 103.714C130.834 98.0476 127.709 92.5878 124.338 88.2826C120.706 83.6334 116.16 79.6876 110.984 76.843C109.448 76.0018 107.92 75.1224 106.277 74.503C104.526 73.8454 102.675 73.639 100.817 73.7384C99.2198 73.8301 99.2121 76.3153 100.817 76.2236C103.919 76.0477 106.361 77.1336 109.026 78.6017C111.353 79.8864 113.572 81.2475 115.63 82.9375C119.915 86.455 123.777 90.7908 126.173 95.8224C127.348 98.2847 128.085 100.984 127.839 103.729C127.701 105.32 130.197 105.312 130.335 103.729V103.714Z" fill="url(#paint8_linear_9824_14772)"/>
<path d="M128.623 103.982C133.407 96.1741 141.3 90.592 150.078 88.0761C154.47 86.8144 159.062 86.325 163.623 86.6997C165.904 86.8832 168.169 87.3115 170.365 87.9538C171.417 88.2597 172.554 88.5655 173.46 89.2079C174.573 89.9955 174.604 91.2343 174.404 92.4731C173.514 97.8564 171.732 103.209 169.69 108.256C167.647 113.303 165.059 118.281 162.133 122.953C156.198 132.458 148.711 140.908 140.271 148.287C131.679 155.804 122.126 162.182 112.12 167.672C110.853 168.368 109.586 169.041 108.304 169.706C106.883 170.448 108.143 172.596 109.563 171.855C120.222 166.296 130.404 159.796 139.634 152.095C148.864 144.395 156.797 135.746 163.239 125.836C169.559 116.117 174.328 105.274 176.654 93.903C176.931 92.5419 177.192 91.0813 176.777 89.7126C176.401 88.4585 175.487 87.495 174.366 86.8527C172.262 85.6445 169.62 85.1015 167.248 84.681C162.456 83.8398 157.557 83.9392 152.781 84.8721C143.236 86.738 134.374 92.0219 128.477 99.7528C127.747 100.709 127.071 101.703 126.449 102.727C125.612 104.096 127.77 105.35 128.607 103.982H128.623Z" fill="url(#paint9_linear_9824_14772)"/>
<path d="M38.9784 65.7168C46.9875 63.3692 54.8969 59.5535 63.3744 59.3011C65.4554 59.24 67.498 59.4847 69.556 59.7141C71.614 59.9435 73.741 60.2187 75.7836 60.754C78.7554 61.534 81.635 62.5663 84.4225 63.8586C85.8815 64.5316 87.3328 65.2045 88.7995 65.8545C89.8745 66.3286 90.7269 66.9403 91.6944 67.552C92.8079 68.2556 93.952 68.8979 94.9426 69.7773C96.3479 71.0314 97.4076 72.6754 98.2753 74.3348C101.063 79.6264 99.2045 86.5697 94.8274 90.439C92.0477 92.9013 88.4002 93.3066 84.8218 93.0924C83.1938 92.993 81.5352 93.0236 80.0301 92.3431C78.525 91.6625 77.1505 90.7143 75.7529 89.8502C74.4705 89.0549 73.1421 88.252 71.6754 87.8314C70.0858 87.3726 68.3965 87.1279 66.7532 86.9979C63.1057 86.7073 59.7807 87.9308 56.5709 89.5673C54.3517 90.699 52.2476 92.1825 50.6658 94.1171C49.5216 95.5165 48.5924 97.13 47.8169 98.7664C44.4612 105.817 46.5422 114.458 51.3492 120.361C53.0846 122.494 55.3269 123.336 57.7995 124.322C60.4718 125.385 63.1057 126.272 66.0237 126.249C67.9818 126.234 69.9092 125.859 71.8059 125.408C73.0499 125.11 74.3093 124.827 75.4995 124.345C77.1812 123.672 78.095 122.479 79.2468 121.156C80.3987 119.833 81.42 118.602 82.4029 117.233C83.3858 115.865 84.361 114.366 85.4822 113.043C87.7321 110.367 90.6117 108.547 94.1133 108.05C97.4306 107.583 100.917 108.31 103.727 110.13C106.538 111.95 108.365 114.786 109.202 117.922C110.039 121.057 109.732 124.62 108.181 127.633C106.4 131.097 103.812 134.294 101.278 137.23C98.7437 140.166 95.9639 142.889 92.7925 145.098C89.4215 147.454 85.6204 149.105 81.8654 150.757C77.9107 152.493 73.8792 153.801 69.5253 153.831C65.1713 153.862 61.2781 153.082 57.1391 152.906C54.3593 152.791 51.5642 152.829 48.8689 152.034C46.1736 151.239 43.7931 149.778 41.5124 148.211C40.4758 147.5 39.4161 146.781 38.4792 145.94C37.9648 145.481 38.0569 145.488 37.6269 145.007C37.1508 144.471 36.5749 144.028 36.0297 143.569C35.5305 143.149 34.9546 142.728 34.563 142.208C33.9871 141.451 33.511 140.656 32.8582 139.937C31.5375 138.469 30.209 137.039 29.0188 135.463C24.2578 129.14 20.8714 121.607 19.2127 113.877C17.5541 106.146 19.0592 97.7417 21.67 90.179C23.9737 83.5033 27.4446 77.1182 32.267 71.9031C34.586 69.3949 37.1892 67.1927 40.0841 65.3727C41.4356 64.5163 40.184 62.3675 38.8248 63.224C26.262 71.1461 19.0515 85.5374 16.6326 99.8064C15.8647 104.349 15.7495 108.914 16.5942 113.448C17.3621 117.585 18.7443 121.623 20.403 125.484C22.0616 129.346 23.943 132.68 26.2851 135.93C27.4523 137.551 28.7116 139.111 30.0631 140.579C30.7081 141.283 31.4069 141.956 31.9521 142.743C32.4359 143.439 32.8506 144.074 33.4802 144.647C34.4631 145.542 35.423 146.368 36.3291 147.331C37.1815 148.241 38.2796 148.968 39.2932 149.687C41.643 151.361 44.0695 152.898 46.7802 153.938C49.4909 154.978 52.4242 155.223 55.3422 155.322C59.343 155.46 63.2823 156.049 67.2753 156.255C71.852 156.492 76.1599 155.72 80.414 154.038C84.4071 152.455 88.4923 150.711 92.1628 148.478C99.0048 144.303 104.488 137.956 108.88 131.342C110.961 128.214 112.312 124.758 112.167 120.965C112.036 117.562 110.869 114.205 108.788 111.498C104.441 105.847 96.3786 103.943 89.8361 106.681C86.396 108.118 83.9924 110.757 81.873 113.716C80.1299 116.14 78.3407 118.457 76.3979 120.72C75.8297 121.378 75.6531 121.585 74.8852 121.936C73.9484 122.372 72.5815 122.67 71.4681 122.938C67.9895 123.779 64.6799 124.1 61.2397 122.961C59.965 122.54 58.7287 121.997 57.4693 121.516C56.3943 121.11 55.3422 120.69 54.4438 119.948C53.2152 118.931 52.3474 117.555 51.5642 116.186C50.5352 114.389 49.7212 112.5 49.2144 110.489C48.2238 106.597 48.5771 102.575 50.5122 99.0264C51.3031 97.5735 52.0864 96.1894 53.2152 95.0042C55.2117 92.9242 57.8686 91.5325 60.5409 90.5155C62.284 89.8502 63.8736 89.3684 65.7472 89.422C67.452 89.4679 69.1644 89.7278 70.8153 90.1637C73.9023 90.9819 76.3365 93.4518 79.2545 94.6906C80.9055 95.3941 82.6025 95.4324 84.3764 95.5471C86.2424 95.6694 88.1007 95.6924 89.9513 95.3712C93.7294 94.7136 96.7625 92.5954 98.9971 89.5367C100.955 86.8603 101.769 83.7633 102.061 80.5058C102.353 77.2482 101.385 74.5183 99.765 71.8802C98.7591 70.2361 97.6149 68.6991 96.0945 67.4909C95.0501 66.6574 93.906 66.0303 92.8002 65.2962C92.493 65.0974 92.9384 65.4033 92.5852 65.1204C92.3164 64.9063 92.0477 64.7074 91.7559 64.5316C91.0801 64.1263 90.3429 63.8128 89.6134 63.4992C88.1007 62.8416 86.6186 62.1228 85.1212 61.4422C82.1341 60.0735 79.0011 58.9341 75.7913 58.1847C73.7487 57.7106 71.6523 57.4582 69.5637 57.2212C67.475 56.9841 65.2327 56.7318 63.0366 56.8159C58.7287 56.9918 54.5129 58.0547 50.42 59.3394C46.3732 60.6087 42.3955 62.1152 38.318 63.3081C36.7822 63.7592 37.4349 66.1603 38.9784 65.7015V65.7168Z" fill="url(#paint10_linear_9824_14772)"/>
<path d="M60.9786 97.6347C57.1622 99.4928 55.3807 103.852 56.0948 107.904C56.809 111.957 60.2261 115.987 64.4265 116.958C68.6269 117.929 73.05 115.284 75.4996 111.858C76.8818 109.923 77.0584 107.736 76.7282 105.45C76.398 103.163 75.8912 100.946 74.3938 99.164C70.9997 95.1418 65.0869 95.4018 60.8865 97.9252C59.512 98.7511 60.7636 100.9 62.1458 100.074C65.0255 98.3458 68.8573 97.7494 71.6601 99.9746C73.05 101.083 73.6566 102.643 74.0098 104.333C74.3631 106.023 74.747 107.996 73.9484 109.633C73.2419 111.085 71.8904 112.286 70.585 113.196C69.2028 114.167 67.6286 114.84 65.9009 114.695C62.6603 114.419 59.8729 111.651 58.8746 108.684C57.7304 105.281 58.8976 101.412 62.2457 99.7834C63.6893 99.0799 62.4223 96.9388 60.9863 97.6347H60.9786Z" fill="url(#paint11_linear_9824_14772)"/>
</g>
<defs>
<linearGradient id="paint0_linear_9824_14772" x1="65.8023" y1="36.3082" x2="22.794" y2="25.4732" gradientUnits="userSpaceOnUse">
<stop stop-color="#660F33"/>
<stop offset="1" stop-color="#CC1E66"/>
</linearGradient>
<linearGradient id="paint1_linear_9824_14772" x1="81.3411" y1="73.2383" x2="25.206" y2="50.3535" gradientUnits="userSpaceOnUse">
<stop stop-color="#660F33"/>
<stop offset="1" stop-color="#CC1E66"/>
</linearGradient>
<linearGradient id="paint2_linear_9824_14772" x1="110.21" y1="78.3207" x2="66.9125" y2="68.2949" gradientUnits="userSpaceOnUse">
<stop stop-color="#660F33"/>
<stop offset="1" stop-color="#CC1E66"/>
</linearGradient>
<linearGradient id="paint3_linear_9824_14772" x1="92.3607" y1="36.6242" x2="63.66" y2="29.2648" gradientUnits="userSpaceOnUse">
<stop stop-color="#660F33"/>
<stop offset="1" stop-color="#CC1E66"/>
</linearGradient>
<linearGradient id="paint4_linear_9824_14772" x1="28.4276" y1="92.3697" x2="2.11093" y2="89.0654" gradientUnits="userSpaceOnUse">
<stop stop-color="#660F33"/>
<stop offset="1" stop-color="#CC1E66"/>
</linearGradient>
<linearGradient id="paint5_linear_9824_14772" x1="28.161" y1="48.9557" x2="-4.86608" y2="40.4801" gradientUnits="userSpaceOnUse">
<stop stop-color="#660F33"/>
<stop offset="1" stop-color="#CC1E66"/>
</linearGradient>
<linearGradient id="paint6_linear_9824_14772" x1="107.442" y1="168.666" x2="94.6568" y2="167.419" gradientUnits="userSpaceOnUse">
<stop stop-color="#660F33"/>
<stop offset="1" stop-color="#CC1E66"/>
</linearGradient>
<linearGradient id="paint7_linear_9824_14772" x1="93.7555" y1="107.878" x2="87.8221" y2="107.392" gradientUnits="userSpaceOnUse">
<stop stop-color="#660F33"/>
<stop offset="1" stop-color="#CC1E66"/>
</linearGradient>
<linearGradient id="paint8_linear_9824_14772" x1="130.388" y1="104.919" x2="94.1272" y2="95.9799" gradientUnits="userSpaceOnUse">
<stop stop-color="#660F33"/>
<stop offset="1" stop-color="#CC1E66"/>
</linearGradient>
<linearGradient id="paint9_linear_9824_14772" x1="176.994" y1="172.008" x2="93.5932" y2="155.567" gradientUnits="userSpaceOnUse">
<stop stop-color="#660F33"/>
<stop offset="1" stop-color="#CC1E66"/>
</linearGradient>
<linearGradient id="paint10_linear_9824_14772" x1="112.177" y1="156.297" x2="-1.40329" y2="128.852" gradientUnits="userSpaceOnUse">
<stop stop-color="#660F33"/>
<stop offset="1" stop-color="#CC1E66"/>
</linearGradient>
<linearGradient id="paint11_linear_9824_14772" x1="76.8711" y1="117.161" x2="52.2254" y2="111.045" gradientUnits="userSpaceOnUse">
<stop stop-color="#660F33"/>
<stop offset="1" stop-color="#CC1E66"/>
</linearGradient>
<clipPath id="clip0_9824_14772">
<rect width="177" height="172" fill="white"/>
</clipPath>
</defs>
</svg>
