<svg width="198" height="194" viewBox="0 0 198 194" fill="none" xmlns="http://www.w3.org/2000/svg">
<g clip-path="url(#clip0_9824_14772)">
<path d="M39.5141 36.4264C43.079 39.2751 47.9753 40.7509 52.4765 41.18C56.9776 41.609 61.9255 39.7384 65.5848 37.0013C72.474 31.8444 75.2658 22.7577 72.6287 14.5977C69.9743 6.41198 62.5182 0.886174 53.9368 0.517215C51.8322 0.42283 49.6761 0.671663 47.6489 1.23797C45.3983 1.87293 43.6459 2.9369 41.8764 4.4299C39.9608 6.03444 38.406 8.02511 36.8942 9.99861C35.3823 11.9721 34.2828 14.2974 33.5956 16.7514C32.9771 18.9566 32.5218 21.4792 32.728 23.7702C32.9342 26.0612 33.9993 28.3951 35.116 30.4201C36.31 32.5909 37.7789 34.6588 39.5227 36.4264C40.7854 37.7049 42.7611 35.7314 41.4984 34.4529C38.9128 31.8444 36.7395 28.3779 35.7603 24.817C35.2878 23.0838 35.5283 21.2647 35.829 19.5229C36.164 17.5751 36.7653 15.6445 37.6759 13.8856C38.7238 11.852 40.2786 9.95571 41.8936 8.334C42.9673 7.25287 44.0153 6.18031 45.2523 5.28794C46.7469 4.20681 48.7828 3.7263 50.5781 3.46031C57.828 2.40491 65.2498 5.98296 68.703 12.4526C72.1562 18.9223 71.3401 27.1423 66.315 32.6081C63.3686 35.8086 58.9104 38.194 54.5295 38.4256C52.2016 38.5543 49.8307 37.9709 47.6059 37.3531C45.3811 36.7353 43.2336 35.8429 41.4898 34.4529C40.0982 33.346 38.1139 35.3023 39.5141 36.4264Z" fill="url(#paint0_linear_9824_14772)"/>
<path d="M35.4253 80.9417C34.9528 78.8738 35.305 76.1453 35.4768 73.9315C35.6744 71.4689 36.0609 69.2123 36.5849 66.7754C37.1433 64.124 37.8563 61.4899 39.3939 59.2246C41.0861 56.7277 43.749 54.6856 46.5322 53.5529C49.3153 52.4203 52.1157 52.0085 54.9074 51.3563C57.4759 50.7557 60.0958 50.0264 62.7244 49.7947C65.7395 49.5287 68.9006 49.1168 71.9071 49.6746C73.23 49.9234 74.5442 50.2838 75.6609 51.056C76.5715 51.6824 77.3274 52.5404 78.1263 53.2955C79.5093 54.5998 80.4885 56.0928 81.5451 57.663C82.7821 59.4992 84.1994 61.3011 85.2045 63.2746C86.2095 65.2481 87.2317 67.3331 88.3828 69.3324C89.2761 70.8854 91.6899 69.4868 90.7966 67.9252C89.7743 66.1576 88.7607 64.3986 87.9275 62.5367C87.0943 60.6747 85.8058 58.9929 84.6547 57.294C83.5895 55.7238 82.6103 54.0592 81.3733 52.6177C79.6038 50.5584 77.3961 48.4647 74.8019 47.538C71.7525 46.4569 68.514 46.5599 65.3443 46.8001C62.1746 47.0404 59.1681 47.5123 56.0843 48.2159C53.0005 48.9195 50.1056 49.4343 47.2194 50.3439C43.8865 51.3907 40.8026 53.3213 38.4661 55.9211C36.4647 58.1435 35.2191 60.812 34.4546 63.6693C33.6386 66.6896 33.0716 69.8043 32.7796 72.919C32.5219 75.7334 32.1095 78.891 32.7366 81.6796C33.1317 83.4301 35.829 82.6921 35.4253 80.9417Z" fill="url(#paint1_linear_9824_14772)"/>
<path d="M84.1478 51.3907C89.0269 49.7003 93.9748 47.9156 99.1116 47.1948C101.354 46.8859 103.776 46.7401 105.966 47.4265C106.937 47.7268 107.178 47.907 107.899 48.5076C108.028 48.6192 108.165 48.7565 108.312 48.8423C108.604 49.0225 108.372 48.9109 108.277 48.7136C108.303 48.7565 108.329 48.8165 108.346 48.8594C108.518 49.6488 109.067 50.4983 109.385 51.2448C110.012 52.7121 110.674 54.3166 111.301 55.8868C113.139 60.4774 114.849 65.1194 116.369 69.8215C118.173 75.4245 119.831 81.1906 120.484 87.051C120.681 88.8186 123.473 88.8357 123.275 87.051C122.09 76.334 118.259 65.8659 114.299 55.8954C113.199 53.1239 112.151 50.2581 110.82 47.581C110.373 46.68 109.274 45.8992 108.397 45.4358C106.25 44.2946 103.716 44.0801 101.319 44.2003C95.1516 44.5263 89.1987 46.6972 83.4176 48.705C81.734 49.2885 82.4556 51.9827 84.1564 51.3907H84.1478Z" fill="url(#paint2_linear_9824_14772)"/>
<path d="M99.2234 33.3631C97.9349 35.3967 95.6585 37.0013 93.511 38.0223C91.3635 39.0434 88.5116 38.9748 86.1837 38.2969C81.6911 36.9841 78.6674 32.8226 78.7018 28.1634C78.7362 23.5042 81.8973 19.5572 86.261 18.1586C88.3827 17.4807 90.4701 17.4293 92.5145 18.3559C93.6828 18.8793 94.7565 19.4714 95.8389 20.1493C97.8489 21.4106 99.902 23.8474 100.417 26.2328C100.898 28.4723 100.177 31.3296 99.2319 33.3631C98.4846 34.9848 100.89 36.4006 101.646 34.7703C102.788 32.3077 103.501 29.3904 103.278 26.6618C103.055 23.9332 101.259 21.2476 99.3608 19.3684C97.995 18.0213 96.2598 17.0174 94.5246 16.2194C93.4251 15.7132 92.2998 15.1726 91.0972 14.9581C89.7228 14.7092 88.2625 14.838 86.8967 15.1125C81.3733 16.2194 76.8378 20.7585 76.0647 26.3615C75.2916 31.9645 78.3238 37.9537 83.727 40.3305C86.7335 41.6604 90.4873 42.0551 93.6313 40.9654C96.7151 39.9014 99.902 37.5247 101.654 34.7618C102.616 33.243 100.203 31.8444 99.2405 33.3546L99.2234 33.3631Z" fill="url(#paint3_linear_9824_14772)"/>
<path d="M22.7893 102.032C20.2467 97.5105 17.7899 92.9457 15.4277 88.3294C14.5515 86.6134 13.6839 84.8973 12.8507 83.1554C12.361 82.1429 11.8628 81.1905 11.5879 80.2896C10.832 77.7841 10.5314 74.8753 10.7977 72.2754C10.9437 70.8082 11.3216 69.9673 12.3954 69.1693C14.0275 67.9595 15.5995 66.681 17.2144 65.454C21.14 62.4766 25.4179 59.7823 30.4087 59.1559C31.1646 59.0615 31.8003 58.581 31.8003 57.7659C31.8003 57.088 31.156 56.2815 30.4087 56.3759C25.5381 56.9851 21.2603 59.0959 17.3089 61.9446C15.4792 63.266 13.7269 64.6903 11.9401 66.0546C10.4626 67.1786 9.10542 68.0024 8.47835 69.8386C7.41319 72.9275 7.96295 76.6858 8.6072 79.8091C9.15696 82.4776 10.6001 84.9402 11.8027 87.3599C14.5257 92.7999 17.4034 98.1626 20.3755 103.465C21.2517 105.027 23.6655 103.628 22.7893 102.058V102.032Z" fill="url(#paint4_linear_9824_14772)"/>
<path d="M5.22269 51.8111C7.98009 53.9391 11.5621 55.003 14.9895 55.372C18.417 55.741 22.2309 54.3938 25.0742 52.3603C30.4774 48.4905 32.8482 41.5232 30.7351 35.1908C28.6219 28.8584 22.9525 24.9371 16.4584 24.6626C14.8349 24.5939 13.1771 24.7827 11.6137 25.2117C9.93862 25.6751 8.61575 26.4473 7.27571 27.5199C5.72092 28.7726 4.45818 30.3342 3.2384 31.8959C1.09089 34.6588 -0.26633 38.7088 0.042911 42.2268C0.352152 45.7447 2.78313 49.3743 5.22269 51.8025C6.49402 53.0724 8.46972 51.0989 7.1984 49.829C5.3 47.9413 3.67649 45.4358 2.9807 42.836C2.32786 40.4077 3.33289 37.1557 4.49254 35.0192C5.29141 33.5519 6.43389 32.2134 7.61931 31.0378C8.3151 30.3514 8.99371 29.6736 9.784 29.0815C10.9265 28.2149 12.3782 27.803 13.7869 27.5799C19.0698 26.7305 24.6104 29.2102 27.1874 33.938C29.7644 38.6659 29.0686 44.5006 25.4092 48.3961C23.2102 50.7386 19.8859 52.4804 16.6474 52.6263C14.938 52.7035 13.1771 52.2916 11.5449 51.8369C10.0417 51.4164 8.45254 50.7986 7.21558 49.8376C6.61428 49.3743 5.83259 49.2627 5.23987 49.8376C4.75024 50.3095 4.64716 51.3478 5.23987 51.8111H5.22269Z" fill="url(#paint5_linear_9824_14772)"/>
<path d="M108.741 161.77C111.438 169.097 113.955 176.528 116.197 184.001C116.67 185.572 117.151 187.151 117.469 188.755C117.821 190.514 120.509 189.768 120.157 188.017C119.487 184.645 118.319 181.35 117.262 178.09C115.922 173.937 114.522 169.801 113.079 165.682C112.538 164.129 111.997 162.576 111.421 161.032C110.803 159.358 108.105 160.079 108.733 161.77H108.741Z" fill="url(#paint6_linear_9824_14772)"/>
<path d="M99.5412 106.563C100.091 111.291 101.148 115.898 102.153 120.549C102.531 122.299 105.228 121.561 104.841 119.811C103.888 115.409 102.848 111.042 102.324 106.571C102.238 105.825 101.749 105.181 100.933 105.181C100.246 105.181 99.4467 105.825 99.5412 106.571V106.563Z" fill="url(#paint7_linear_9824_14772)"/>
<path d="M145.798 116.877C146.357 110.518 142.861 104.392 139.09 99.5613C135.027 94.3443 129.941 89.9168 124.152 86.7249C122.434 85.7811 120.724 84.7943 118.886 84.0993C116.927 83.3614 114.857 83.1297 112.778 83.2412C110.992 83.3442 110.983 86.1329 112.778 86.0299C116.249 85.8325 118.98 87.051 121.961 88.6984C124.564 90.1399 127.046 91.6672 129.349 93.5635C134.142 97.5105 138.463 102.376 141.143 108.022C142.457 110.784 143.282 113.813 143.007 116.894C142.852 118.678 145.644 118.67 145.798 116.894V116.877Z" fill="url(#paint8_linear_9824_14772)"/>
<path d="M143.883 117.177C149.235 108.416 158.065 102.153 167.883 99.3296C172.797 97.9138 177.934 97.3646 183.036 97.7851C185.587 97.991 188.122 98.4715 190.578 99.1923C191.755 99.5355 193.026 99.8787 194.04 100.599C195.286 101.483 195.32 102.873 195.097 104.263C194.1 110.304 192.107 116.31 189.822 121.973C187.537 127.636 184.643 133.222 181.37 138.465C174.73 149.13 166.354 158.612 156.914 166.892C147.302 175.327 136.616 182.483 125.423 188.643C124.006 189.424 122.588 190.179 121.154 190.926C119.565 191.758 120.973 194.169 122.562 193.337C134.485 187.099 145.876 179.806 156.201 171.165C166.526 162.525 175.4 152.82 182.607 141.7C189.676 130.794 195.011 118.627 197.614 105.868C197.923 104.341 198.215 102.702 197.751 101.166C197.33 99.7586 196.308 98.6775 195.054 97.9567C192.7 96.601 189.745 95.9918 187.091 95.5199C181.731 94.576 176.25 94.6875 170.907 95.7344C160.23 97.828 150.317 103.757 143.72 112.432C142.904 113.504 142.148 114.62 141.452 115.77C140.516 117.306 142.929 118.713 143.866 117.177H143.883Z" fill="url(#paint9_linear_9824_14772)"/>
<path d="M43.6029 74.2403C52.5623 71.6061 61.41 67.3245 70.8934 67.0413C73.2213 66.9727 75.5063 67.2473 77.8084 67.5047C80.1105 67.7621 82.49 68.071 84.7749 68.6716C88.0992 69.5468 91.3205 70.7052 94.4387 72.1553C96.0708 72.9104 97.6943 73.6654 99.335 74.3948C100.538 74.9268 101.491 75.6132 102.573 76.2996C103.819 77.089 105.099 77.8098 106.207 78.7965C107.779 80.2037 108.964 82.0485 109.935 83.9105C113.053 89.8482 110.974 97.6392 106.078 101.981C102.969 104.744 98.8883 105.199 94.8854 104.958C93.0643 104.847 91.2088 104.881 89.5252 104.117C87.8415 103.354 86.3039 102.29 84.7405 101.32C83.306 100.428 81.8199 99.5269 80.1792 99.055C78.4011 98.5402 76.5113 98.2656 74.673 98.1197C70.5928 97.7937 66.8733 99.1665 63.2827 101.003C60.8001 102.273 58.4465 103.937 56.6769 106.108C55.397 107.678 54.3576 109.489 53.49 111.325C49.7362 119.236 52.0641 128.932 57.4415 135.556C59.3828 137.95 61.8911 138.894 64.6571 140.001C67.6464 141.194 70.5928 142.189 73.857 142.163C76.0474 142.146 78.2035 141.726 80.3253 141.219C81.7169 140.885 83.1256 140.567 84.4571 140.027C86.3383 139.272 87.3605 137.933 88.649 136.449C89.9375 134.964 91.08 133.583 92.1795 132.047C93.279 130.511 94.37 128.829 95.6241 127.345C98.141 124.342 101.362 122.299 105.279 121.742C108.99 121.218 112.89 122.033 116.034 124.076C119.178 126.118 121.222 129.301 122.159 132.819C123.095 136.337 122.751 140.336 121.016 143.716C119.023 147.603 116.128 151.19 113.294 154.485C110.459 157.78 107.349 160.834 103.802 163.314C100.031 165.957 95.7787 167.81 91.5782 169.663C87.1543 171.611 82.6446 173.078 77.774 173.113C72.9035 173.147 68.5484 172.272 63.9183 172.075C60.8087 171.946 57.682 171.989 54.6669 171.096C51.6518 170.204 48.9889 168.565 46.4376 166.806C45.278 166.008 44.0926 165.202 43.0446 164.258C42.469 163.743 42.5721 163.752 42.0911 163.211C41.5585 162.61 40.9142 162.113 40.3044 161.598C39.746 161.126 39.1018 160.654 38.6637 160.071C38.0194 159.221 37.4868 158.329 36.7567 157.522C35.2792 155.875 33.7931 154.27 32.4617 152.503C27.1359 145.407 23.3477 136.955 21.4922 128.28C19.6368 119.605 21.3204 110.175 24.241 101.689C26.818 94.1984 30.7007 87.0338 36.0952 81.1819C38.6894 78.3675 41.6015 75.8963 44.8399 73.8542C46.3517 72.8932 44.9516 70.4821 43.4311 71.4431C29.3779 80.3324 21.3118 96.4808 18.606 112.492C17.747 117.589 17.6181 122.711 18.563 127.799C19.422 132.441 20.9682 136.972 22.8237 141.305C24.6791 145.638 26.7837 149.379 29.4036 153.026C30.7093 154.845 32.1181 156.595 33.6299 158.243C34.3515 159.032 35.1332 159.787 35.7431 160.671C36.2842 161.452 36.7481 162.164 37.4525 162.808C38.552 163.812 39.6257 164.738 40.6394 165.819C41.5929 166.841 42.8212 167.656 43.9551 168.462C46.5837 170.341 49.2981 172.066 52.3304 173.233C55.3627 174.4 58.6441 174.674 61.9083 174.786C66.3837 174.94 70.7903 175.601 75.2572 175.833C80.3768 176.099 85.1958 175.232 89.9547 173.344C94.4215 171.568 98.9914 169.612 103.097 167.106C110.751 162.422 116.884 155.3 121.798 147.878C124.126 144.368 125.638 140.49 125.474 136.234C125.328 132.416 124.023 128.649 121.695 125.611C116.833 119.271 107.813 117.134 100.495 120.206C96.6463 121.819 93.9576 124.779 91.5868 128.1C89.6369 130.82 87.6354 133.42 85.4621 135.959C84.8264 136.697 84.6289 136.929 83.7699 137.324C82.7219 137.813 81.1929 138.147 79.9473 138.448C76.056 139.392 72.3537 139.752 68.5054 138.474C67.0795 138.002 65.6965 137.392 64.2877 136.852C63.0851 136.397 61.9083 135.925 60.9032 135.093C59.5288 133.952 58.5582 132.407 57.682 130.871C56.5309 128.855 55.6204 126.736 55.0534 124.479C53.9453 120.111 54.3405 115.598 56.5051 111.617C57.3899 109.986 58.2661 108.433 59.5288 107.103C61.7622 104.77 64.7344 103.208 67.7237 102.067C69.6736 101.32 71.4518 100.78 73.5477 100.84C75.4547 100.891 77.3703 101.183 79.2172 101.672C82.6703 102.59 85.3934 105.362 88.6576 106.752C90.5044 107.541 92.4028 107.584 94.3871 107.713C96.4745 107.85 98.5533 107.876 100.623 107.515C104.85 106.777 108.243 104.401 110.743 100.968C112.933 97.9653 113.844 94.4902 114.17 90.8349C114.496 87.1796 113.414 84.1164 111.602 81.1562C110.476 79.3114 109.196 77.5867 107.496 76.231C106.327 75.2957 105.047 74.5921 103.81 73.7684C103.467 73.5453 103.965 73.8885 103.57 73.5711C103.269 73.3308 102.969 73.1077 102.642 72.9104C101.886 72.4556 101.062 72.1038 100.246 71.752C98.5533 71.0141 96.8954 70.2075 95.2204 69.4439C91.8788 67.908 88.3741 66.6295 84.7835 65.7886C82.4985 65.2566 80.1535 64.9734 77.817 64.7074C75.4805 64.4415 72.9722 64.1583 70.5155 64.2527C65.6965 64.45 60.9805 65.6427 56.4021 67.0842C51.8751 68.5086 47.4255 70.1989 42.8642 71.5375C41.1462 72.0437 41.8763 74.738 43.6029 74.2232V74.2403Z" fill="url(#paint10_linear_9824_14772)"/>
<path d="M68.2134 110.055C63.9442 112.14 61.9513 117.031 62.7501 121.579C63.549 126.126 67.3716 130.648 72.0703 131.738C76.7691 132.828 81.7169 129.859 84.4571 126.015C86.0033 123.844 86.2009 121.39 85.8315 118.824C85.4622 116.259 84.8952 113.77 83.2202 111.771C79.4234 107.258 72.8091 107.55 68.1103 110.381C66.5727 111.308 67.9729 113.719 69.5191 112.792C72.7403 110.853 77.0268 110.184 80.1621 112.681C81.7169 113.925 82.3955 115.675 82.7907 117.572C83.1858 119.468 83.6153 121.682 82.7219 123.518C81.9317 125.148 80.4198 126.495 78.9595 127.516C77.4133 128.606 75.6523 129.361 73.7196 129.198C70.0946 128.889 66.9764 125.783 65.8597 122.454C64.5798 118.636 65.8855 114.294 69.6307 112.466C71.2457 111.677 69.8283 109.274 68.222 110.055H68.2134Z" fill="url(#paint11_linear_9824_14772)"/>
</g>
<defs>
<linearGradient id="paint0_linear_9824_14772" x1="73.6094" y1="41.2412" x2="25.4807" y2="29.1535" gradientUnits="userSpaceOnUse">
<stop stop-color="#660F33"/>
<stop offset="1" stop-color="#CC1E66"/>
</linearGradient>
<linearGradient id="paint1_linear_9824_14772" x1="90.9917" y1="82.6802" x2="28.1415" y2="57.1366" gradientUnits="userSpaceOnUse">
<stop stop-color="#660F33"/>
<stop offset="1" stop-color="#CC1E66"/>
</linearGradient>
<linearGradient id="paint2_linear_9824_14772" x1="123.285" y1="88.3831" x2="74.8361" y2="77.1989" gradientUnits="userSpaceOnUse">
<stop stop-color="#660F33"/>
<stop offset="1" stop-color="#CC1E66"/>
</linearGradient>
<linearGradient id="paint3_linear_9824_14772" x1="103.319" y1="41.5958" x2="71.2008" y2="33.3855" gradientUnits="userSpaceOnUse">
<stop stop-color="#660F33"/>
<stop offset="1" stop-color="#CC1E66"/>
</linearGradient>
<linearGradient id="paint4_linear_9824_14772" x1="31.8003" y1="104.147" x2="2.35849" y2="100.462" gradientUnits="userSpaceOnUse">
<stop stop-color="#660F33"/>
<stop offset="1" stop-color="#CC1E66"/>
</linearGradient>
<linearGradient id="paint5_linear_9824_14772" x1="31.5021" y1="55.4328" x2="-5.45747" y2="45.9771" gradientUnits="userSpaceOnUse">
<stop stop-color="#660F33"/>
<stop offset="1" stop-color="#CC1E66"/>
</linearGradient>
<linearGradient id="paint6_linear_9824_14772" x1="120.189" y1="189.759" x2="105.886" y2="188.368" gradientUnits="userSpaceOnUse">
<stop stop-color="#660F33"/>
<stop offset="1" stop-color="#CC1E66"/>
</linearGradient>
<linearGradient id="paint7_linear_9824_14772" x1="104.879" y1="121.55" x2="98.2414" y2="121.008" gradientUnits="userSpaceOnUse">
<stop stop-color="#660F33"/>
<stop offset="1" stop-color="#CC1E66"/>
</linearGradient>
<linearGradient id="paint8_linear_9824_14772" x1="145.857" y1="118.229" x2="105.281" y2="108.256" gradientUnits="userSpaceOnUse">
<stop stop-color="#660F33"/>
<stop offset="1" stop-color="#CC1E66"/>
</linearGradient>
<linearGradient id="paint9_linear_9824_14772" x1="197.993" y1="193.509" x2="104.676" y2="175.17" gradientUnits="userSpaceOnUse">
<stop stop-color="#660F33"/>
<stop offset="1" stop-color="#CC1E66"/>
</linearGradient>
<linearGradient id="paint10_linear_9824_14772" x1="125.486" y1="175.88" x2="-1.61282" y2="145.262" gradientUnits="userSpaceOnUse">
<stop stop-color="#660F33"/>
<stop offset="1" stop-color="#CC1E66"/>
</linearGradient>
<linearGradient id="paint11_linear_9824_14772" x1="85.9914" y1="131.966" x2="58.4118" y2="125.142" gradientUnits="userSpaceOnUse">
<stop stop-color="#660F33"/>
<stop offset="1" stop-color="#CC1E66"/>
</linearGradient>
<clipPath id="clip0_9824_14772">
<rect width="198" height="193" fill="white" transform="translate(0 0.5)"/>
</clipPath>
</defs>
</svg>
