<svg width="176" height="212" viewBox="0 0 176 212" fill="none" xmlns="http://www.w3.org/2000/svg">
<g clip-path="url(#clip0_9824_14693)">
<path d="M45.8052 34.7784C42.4468 34.5832 38.6331 35.3887 35.9172 37.4716C34.2502 38.749 32.7784 40.4332 31.5261 42.1256C29.8185 44.4282 28.3873 46.8447 27.6473 49.6354C26.8505 52.6377 26.4113 56.234 27.5579 59.1875C28.8833 62.621 31.1521 65.8674 33.9087 68.3002C35.1772 69.423 37.0556 67.5598 35.7789 66.4289C33.5753 64.4843 31.7782 62.0271 30.5097 59.3828C29.3062 56.8768 29.3875 54.1755 29.9323 51.4905C30.5178 48.6184 31.8026 46.3321 33.4533 43.9563C33.8761 43.3542 33.8274 43.4274 34.3152 42.8578C34.9983 42.0686 35.6488 41.255 36.4213 40.539C38.9909 38.1713 42.3493 37.2194 45.8052 37.4146C47.5047 37.5123 47.4965 34.8679 45.8052 34.7703V34.7784Z" fill="url(#paint0_linear_9824_14693)"/>
<path d="M34.1689 68.5118C36.7548 70.318 39.9505 71.1317 43.0242 71.571C44.4391 71.7744 45.8703 72.0755 47.3014 72.1243C48.7326 72.1731 49.9686 71.75 51.2371 71.1886C51.8876 70.9038 52.0421 69.9438 51.7087 69.3824C51.3184 68.707 50.5541 68.6175 49.9035 68.9104C48.9277 69.3417 47.9845 69.5451 46.9192 69.4637C45.667 69.3661 44.4147 69.1301 43.1787 68.943C40.4953 68.5443 37.755 67.8039 35.5025 66.2336C34.1039 65.2572 32.7866 67.5517 34.1689 68.5199V68.5118Z" fill="url(#paint1_linear_9824_14693)"/>
<path d="M33.0143 106.443C32.4044 104.385 32.5996 101.985 32.7866 99.8774C32.9899 97.5504 33.2826 95.1746 33.8437 92.9045C35.0065 88.1855 38.5031 84.4997 43.0568 82.8155C44.5367 82.2703 46.0655 81.8879 47.5617 81.3916C49.3262 80.8139 51.0664 80.1549 52.9041 79.8701C54.5792 79.6098 53.8718 77.0631 52.2048 77.3234C50.5378 77.5838 48.8546 78.1778 47.212 78.731C45.7402 79.2273 44.2359 79.6098 42.7722 80.1223C39.9993 81.0906 37.5436 82.5795 35.47 84.6706C31.5506 88.6248 30.8432 93.8158 30.2252 99.1126C29.9243 101.7 29.721 104.629 30.4691 107.159C30.9489 108.787 33.5022 108.095 33.0143 106.46V106.443Z" fill="url(#paint2_linear_9824_14693)"/>
<path d="M94.6842 73.4505C90.5045 71.2049 85.8777 72.5799 81.7143 74.1258C81.0475 74.3781 80.5921 75.0208 80.7954 75.7531C80.9743 76.3959 81.7468 76.9247 82.4217 76.6725C85.8126 75.4114 89.8947 73.8736 93.3506 75.7287C94.8468 76.5342 96.1885 74.256 94.6842 73.4424V73.4505Z" fill="url(#paint3_linear_9824_14693)"/>
<path d="M72.119 50.9454C73.9079 49.31 76.7052 47.8698 79.2097 48.2197C80.1693 48.358 81.0963 48.7567 81.9907 49.0984C82.1208 49.1473 82.251 49.1961 82.3811 49.2449C82.6331 49.3507 82.129 49.1228 82.4217 49.2693C82.747 49.4239 83.0722 49.5947 83.3894 49.7656C85.5686 50.9128 87.6585 52.7435 88.5123 55.1519C89.2604 57.2511 88.6261 60.1069 87.8536 62.1085C87.2437 63.6951 89.7971 64.3866 90.3988 62.8082C91.3502 60.3266 91.9357 56.8931 91.0168 54.322C89.9434 51.3197 87.4714 48.9357 84.7148 47.4793C82.9909 46.5762 80.9987 45.6893 79.0471 45.5673C75.827 45.3638 72.5662 46.9504 70.2406 49.074C68.9802 50.2213 70.8505 52.0926 72.1109 50.9454H72.119Z" fill="url(#paint4_linear_9824_14693)"/>
<path d="M88 61.783C86.9836 63.7032 85.0889 65.2328 83.243 66.3231C81.3972 67.4134 79.1854 67.5029 77.1037 67.2425C76.3962 67.153 75.7864 67.9097 75.7864 68.5606C75.7864 69.3498 76.3962 69.7973 77.1037 69.8787C79.6489 70.1878 82.3404 69.9193 84.5766 68.6013C86.8128 67.2832 89.0571 65.4118 90.2769 63.1092C91.0738 61.604 88.7969 60.2696 87.9919 61.7749L88 61.783Z" fill="url(#paint5_linear_9824_14693)"/>
<path d="M32.2661 140.486C30.6479 138.362 29.2493 136.035 27.7775 133.806C25.0534 129.681 22.3537 125.548 19.6866 121.382C17.4504 117.891 15.1898 114.401 13.1244 110.796C12.8479 110.316 12.5877 109.82 12.3275 109.332C12.2787 109.25 12.1486 108.901 12.3031 109.291C12.2543 109.161 12.2055 109.031 12.1649 108.901C12.0185 108.461 11.8884 108.006 11.7745 107.55C11.2135 105.369 10.6199 102.725 11.1891 100.488C11.5143 99.2102 12.7585 98.543 13.7261 97.6806C15.0922 96.4683 16.4421 95.2234 17.8488 94.0599C20.9063 91.5214 24.2809 89.4873 28.2247 88.7225C29.8917 88.397 29.1843 85.8503 27.5254 86.1758C23.8662 86.8918 20.5729 88.633 17.6293 90.8867C16.2632 91.9363 14.9621 93.0591 13.6773 94.2064C12.3925 95.3536 11.0996 96.3544 9.91241 97.5097C8.05028 99.316 8.25357 102.4 8.56257 104.759C8.82278 106.736 9.17243 108.868 10.0588 110.682C11.6688 113.978 13.8237 117.078 15.7915 120.169C18.5807 124.555 21.4105 128.916 24.2647 133.261C26.143 136.117 27.9239 139.111 29.9974 141.828C30.4365 142.398 31.1277 142.691 31.8026 142.3C32.3637 141.983 32.7052 141.055 32.2743 140.494L32.2661 140.486Z" fill="url(#paint6_linear_9824_14693)"/>
<path d="M5.61895 83.7756C8.19666 85.5005 11.7502 86.2816 14.832 86.2897C17.9139 86.2978 21.1665 84.8333 23.6223 82.8318C28.2817 79.0565 29.8836 72.4823 27.6474 66.9496C25.4112 61.4169 19.8004 57.8938 13.7831 58.1705C10.6931 58.3169 7.85514 59.3258 5.62708 61.4901C4.36669 62.7106 3.33398 64.1588 2.35819 65.6071C0.552975 68.2921 -0.374026 72.0999 0.138264 75.3219C0.650554 78.5439 3.0575 81.5543 5.35061 83.564C6.62727 84.6787 8.50566 82.8155 7.22087 81.6927C5.3994 80.1061 3.74056 77.9581 2.94366 75.6555C2.20369 73.5075 2.84608 70.5703 3.72429 68.5443C4.15527 67.5598 4.80579 66.6811 5.41566 65.8024C5.8385 65.2003 5.81411 65.2328 6.302 64.6795C6.90374 64.0042 7.48922 63.3452 8.16414 62.7431C9.1074 61.8969 10.2865 61.4576 11.5062 61.1484C16.2957 59.9442 21.6544 61.84 24.2809 66.0953C26.9074 70.3506 26.574 75.566 23.4434 79.3087C21.5731 81.5462 18.6214 83.3199 15.6859 83.6128C12.7504 83.9058 9.31882 83.0758 6.95253 81.4974C5.53764 80.5454 4.21219 82.8399 5.61895 83.7837V83.7756Z" fill="url(#paint7_linear_9824_14693)"/>
<path d="M166.722 143.529C161.16 143.456 155.606 143.496 150.052 143.789C145.425 144.025 140.587 144.082 136.131 145.506C132.081 146.8 128.812 149.42 126.861 153.219C125.031 156.783 124.34 160.868 124.413 164.846C124.576 173.446 128.341 184.292 137.749 186.294C143.352 187.482 149.32 187.148 155.012 187.067C157.915 187.026 160.81 186.985 163.713 186.936C164.884 186.92 166.299 187.083 167.364 186.497C168.429 185.911 168.877 184.797 168.958 183.625C169.064 182.063 168.836 180.427 168.738 178.865C168.641 177.303 168.535 175.781 168.429 174.244C168.202 171.005 167.974 167.759 167.803 164.513C167.454 157.963 167.348 151.381 168.047 144.847C168.226 143.155 165.583 143.171 165.404 144.847C164.258 155.522 165.266 166.27 165.974 176.945C166.055 178.222 166.136 179.5 166.21 180.777C166.242 181.412 166.283 182.046 166.307 182.673C166.323 183.039 166.478 183.828 166.185 184.113C165.925 184.373 165.242 184.268 164.9 184.268C164.242 184.276 163.583 184.284 162.924 184.3C161.477 184.325 160.021 184.341 158.574 184.365C153.183 184.447 147.767 184.658 142.384 184.243C139.936 184.056 137.351 183.796 135.163 182.6C133.236 181.542 131.78 179.841 130.65 177.986C128.658 174.716 127.536 170.892 127.178 167.092C126.519 160.07 128.308 151.592 135.464 148.557C139.766 146.735 144.677 146.735 149.263 146.482C155.077 146.165 160.9 146.108 166.722 146.181C168.421 146.206 168.421 143.561 166.722 143.537V143.529Z" fill="url(#paint8_linear_9824_14693)"/>
<path d="M156.102 123.896C155.289 116.484 148.938 110.455 141.376 110.569C139.253 110.601 137.164 111.04 135.09 111.398C133.366 111.7 131.634 111.805 129.894 111.968C129.504 112.009 129.105 112.058 128.715 112.058C128.259 112.058 128.284 112.074 127.747 111.895C126.389 111.439 125.08 110.503 123.868 109.739C122.267 108.73 120.754 107.534 119.624 105.996C118.77 104.824 118.152 103.506 117.583 102.188C117.07 101.008 116.436 99.8286 116.135 98.5675C115.794 97.1517 116.046 95.6791 116.387 94.2877C117.233 90.8542 118.786 87.559 121.388 85.1099C123.372 83.2467 125.804 82.2622 128.398 81.6113C130.585 81.0662 132.813 81.2045 135.025 81.8147C136.903 82.3273 138.814 83.0677 140.498 84.0522C141.977 84.9228 143.148 86.4199 144.116 87.8112C145.002 89.0805 145.588 90.2928 145.978 91.7899C146.385 93.3765 146.661 94.9956 147.174 96.5496C147.686 98.1037 148.532 99.3241 149.646 100.602C150.76 101.879 151.971 103.254 153.378 104.336C156.362 106.622 159.851 107.387 163.542 106.81C166.649 106.321 169.332 104.751 171.666 102.693C174 100.634 175.04 98.0549 175.634 95.199C176.065 93.1242 176.122 91.1552 175.707 89.0723C175.585 88.4458 175.423 87.8356 175.268 87.2172C175.268 87.2417 175.179 86.7453 175.219 86.9894C175.26 87.2579 175.195 86.6802 175.195 86.7128C175.146 86.2734 175.04 85.8503 174.902 85.4272C174.406 83.8895 173.756 82.3924 173.203 80.8709C172.699 79.4796 172.17 78.0883 171.56 76.7376C169.893 73.0681 167.706 69.8217 165.185 66.6892C162.664 63.5567 160.062 61.1402 156.769 59.0411C153.476 56.9419 150.174 55.396 146.783 53.7443C145.076 52.9144 143.376 52.0682 141.709 51.1651C140.213 50.3514 138.879 52.6378 140.376 53.4514C146.881 56.9826 154.224 59.5211 159.753 64.5982C161.209 65.9325 162.428 67.4622 163.656 69C165.039 70.7249 166.356 72.4986 167.421 74.4432C168.926 77.1933 170.072 79.9922 171.145 82.9375C172.138 85.6551 173.186 88.4296 173.365 91.3505C173.544 94.2715 172.625 97.8433 170.625 100.024C168.739 102.082 166.161 103.636 163.429 104.173C159.981 104.857 156.704 103.913 154.118 101.545C152.866 100.398 151.622 99.0556 150.597 97.6969C149.711 96.5252 149.418 94.9061 149.093 93.5066C148.743 92.0258 148.458 90.5125 147.881 89.0967C147.271 87.5915 146.279 86.249 145.271 84.996C144.149 83.5966 142.872 82.311 141.254 81.4893C139.481 80.5943 137.627 79.805 135.716 79.2762C133.277 78.6008 130.748 78.4137 128.259 78.9344C125.771 79.4552 123.429 80.2932 121.413 81.7008C118.591 83.6698 116.493 86.485 115.143 89.6419C113.867 92.6279 112.753 96.2405 113.623 99.4869C113.98 100.813 114.647 102.066 115.192 103.319C115.737 104.572 116.322 105.874 117.111 107.029C119.177 110.056 122.356 112.196 125.592 113.831C126.519 114.303 127.463 114.669 128.52 114.71C129.455 114.743 130.414 114.564 131.349 114.507C135.464 114.262 139.733 112.595 143.856 113.416C147.222 114.092 150.133 116.313 151.874 119.25C152.711 120.666 153.28 122.252 153.459 123.896C153.638 125.539 156.289 125.588 156.102 123.896Z" fill="url(#paint9_linear_9824_14693)"/>
<path d="M142.059 51.3766C134.236 49.6436 126.096 50.5955 118.607 53.2887C111.118 55.9818 103.58 60.2046 98.2702 66.1604C95.4567 69.3173 93.3343 73.0437 91.5942 76.8841C89.854 80.7244 88.431 84.9309 87.6666 89.1781C87.3007 91.2041 87.0486 93.2626 86.951 95.3211C86.8941 96.452 86.8534 97.5341 86.642 98.6488C86.5038 99.3892 86.5038 100.089 86.5607 100.829C86.6501 102.034 86.577 103.205 86.6501 104.393C86.7396 105.76 86.9917 107.127 87.2438 108.469C87.7723 111.26 88.431 114.254 89.9678 116.687C90.6102 117.712 91.4397 118.599 92.2772 119.462C93.4888 120.723 94.6679 122.016 95.7657 123.383C96.8634 124.75 98.693 122.83 97.6359 121.512C96.1072 119.608 94.2125 117.94 92.7326 116.044C91.2526 114.149 90.6509 111.756 90.1549 109.511C89.8865 108.299 89.6588 107.078 89.4718 105.858C89.3905 105.345 89.3254 104.824 89.301 104.312C89.2929 104.108 89.2848 103.913 89.301 103.71C89.2929 104.019 89.358 103.148 89.3661 103.01C89.4068 101.659 89.0327 100.325 89.301 98.9905C89.7158 96.9565 89.5938 94.8329 89.8133 92.7744C90.6509 84.9065 93.6921 76.9166 98.2458 70.4482C102.799 63.9798 109.711 59.8628 116.623 56.9093C124.373 53.5978 133.073 52.0926 141.384 53.9314C143.043 54.2976 143.75 51.7509 142.083 51.3848L142.059 51.3766Z" fill="url(#paint10_linear_9824_14693)"/>
<path d="M134.261 87.4857C130.455 86.1921 126.316 88.0065 124.194 91.2935C122.136 94.4749 121.876 98.9824 123.868 102.261C126.015 105.801 130.715 106.883 134.586 106.151C136.757 105.736 138.253 104.344 139.522 102.619C140.79 100.894 141.847 99.0963 141.969 96.9402C142.238 92.213 138.302 88.6411 134.008 87.5996C132.358 87.1928 131.65 89.7476 133.309 90.1463C136.115 90.8298 138.749 92.6849 139.27 95.7035C139.546 97.3307 138.936 98.7546 138.058 100.097C137.269 101.309 136.334 102.741 134.935 103.303C133.537 103.864 131.886 103.767 130.455 103.522C129.024 103.278 127.544 102.717 126.568 101.529C124.828 99.4136 124.779 96.1754 125.844 93.7507C127.154 90.781 130.366 88.934 133.553 90.0161C135.163 90.5613 135.862 88.0146 134.252 87.4695L134.261 87.4857Z" fill="url(#paint11_linear_9824_14693)"/>
<path d="M154.817 186.277C154.777 187.937 155.029 189.507 155.126 191.159C155.273 193.763 155.143 196.375 155.069 198.978C155.004 201.435 155.224 203.819 155.362 206.268C155.395 206.83 155.411 207.391 155.386 207.953C155.386 208.026 155.297 209.018 155.297 209.018C155.297 209.018 156.183 208.441 156.021 208.538C155.809 208.669 156.273 208.538 155.931 208.555C155.695 208.571 155.46 208.587 155.224 208.595C152.565 208.701 149.89 208.587 147.23 208.603C146.442 208.603 145.661 208.603 144.889 208.766C144.441 208.856 144.466 208.913 144.775 208.815C144.807 208.807 145.133 208.807 144.783 208.807C144.393 208.807 144.002 208.831 143.62 208.831C139.034 208.848 134.464 208.506 129.878 208.424C121.104 208.27 112.305 208.424 103.531 208.449C95.1639 208.473 86.7965 208.53 78.4291 208.62C73.4364 208.669 68.4517 208.734 63.4589 208.799C58.767 208.864 54.0832 208.709 49.3913 208.717C47.0656 208.717 44.6993 208.994 42.39 208.807C40.4628 208.644 38.5112 208.099 36.8036 207.188C35.0959 206.276 33.5997 205.072 32.7703 203.347C31.7457 201.216 31.6969 198.514 31.5018 196.196C31.266 193.315 31.5343 190.508 31.6969 187.636C31.8758 184.552 31.8677 181.452 31.9002 178.361C31.9328 175.562 31.9815 172.755 31.9409 169.956C31.9165 168.117 32.0385 166.278 32.0873 164.439C32.1442 162.446 31.949 160.485 31.949 158.5C31.949 155.945 32.1604 153.398 32.1848 150.844C32.2174 147.98 32.258 145.124 32.2987 142.26C32.3719 136.841 32.4288 131.422 32.2905 126.003C32.2255 123.408 32.1116 120.82 31.9409 118.233C31.827 116.541 29.1843 116.533 29.2981 118.233C30.0625 129.551 29.6884 140.925 29.5339 152.251C29.5014 154.684 29.2412 157.117 29.3225 159.549C29.3876 161.575 29.477 163.561 29.4038 165.587C29.2981 168.573 29.3225 171.551 29.29 174.537C29.2575 177.523 29.2249 180.37 29.1843 183.283C29.1355 186.595 28.7208 189.898 28.7126 193.201C28.7126 195.089 28.8997 196.977 29.1192 198.856C29.4038 201.313 29.7128 203.819 31.209 205.878C33.6485 209.23 37.8119 210.93 41.8208 211.386C44.2033 211.663 46.6509 211.37 49.0416 211.354C51.4323 211.337 53.6441 211.402 55.9534 211.451C61.117 211.549 66.2887 211.394 71.4523 211.337C80.4377 211.232 89.4149 211.15 98.4003 211.109C107.386 211.069 116.021 211.069 124.828 211.069C130.341 211.069 135.838 211.345 141.359 211.451C142.408 211.476 143.466 211.508 144.515 211.459C144.824 211.443 145.165 211.443 145.466 211.362C145.791 211.272 146.125 211.232 145.604 211.305C145.946 211.256 145.279 211.305 145.677 211.297C148.198 211.215 150.711 211.288 153.232 211.28C154.305 211.28 155.468 211.354 156.525 211.134C158.379 210.743 158.07 208.058 158.005 206.61C157.899 204.055 157.623 201.557 157.696 198.986C157.769 196.415 157.907 193.657 157.745 190.996C157.623 189.109 157.403 188.092 157.452 186.285C157.493 184.585 154.85 184.585 154.809 186.285L154.817 186.277Z" fill="url(#paint12_linear_9824_14693)"/>
<path d="M55.4411 101.415C49.2286 101.293 43.0161 100.903 36.8686 102.066C34.4047 102.53 32.2742 103.758 30.8187 105.841C29.664 107.501 29.2086 109.592 29.046 111.569C28.7451 115.157 29.5176 120.405 33.0223 122.342C33.9981 122.879 34.9739 122.895 36.0473 123.033C37.8281 123.269 39.552 123.668 41.3491 123.692C45.114 123.749 48.8789 123.782 52.6438 123.831C60.1981 123.92 67.7523 124.124 75.3066 123.994C78.8926 123.937 82.4705 123.587 86.0647 123.538C89.2929 123.489 92.513 123.701 95.7331 123.961C99.1321 124.238 102.556 124.653 105.971 124.49C109.793 124.303 113.574 123.701 117.396 123.497C124.974 123.082 132.577 123.465 140.14 123.994C142.522 124.164 144.905 124.368 147.295 124.441C149.255 124.506 151.256 124.514 153.207 124.775C153.272 124.783 153.606 124.832 153.817 124.897C153.947 124.937 153.654 124.701 153.841 124.945C154.028 125.19 154.199 125.393 154.313 125.694C154.825 127.004 154.573 128.582 154.565 129.949C154.549 132.976 154.777 136.003 154.907 139.021C154.98 140.689 155.004 142.357 154.988 144.033C154.972 145.709 157.614 145.734 157.631 144.033C157.663 140.958 157.484 137.899 157.33 134.831C157.257 133.326 157.2 131.813 157.2 130.299C157.2 128.786 157.33 127.289 157.062 125.8C156.842 124.571 156.2 123.253 155.094 122.594C154.516 122.252 153.768 122.204 153.118 122.13C151.215 121.911 149.296 121.87 147.385 121.813C141.335 121.618 135.31 120.959 129.26 120.772C125.568 120.658 121.876 120.649 118.193 120.82C114.509 120.991 110.72 121.536 106.971 121.797C100.425 122.26 93.8303 120.942 87.2763 120.902C83.8203 120.885 80.3644 121.235 76.9085 121.325C73.2493 121.422 69.5982 121.398 65.939 121.357C58.5474 121.276 51.1639 121.178 43.7723 121.097C41.9508 121.073 40.17 121.081 38.3729 120.772C37.5354 120.625 36.7059 120.479 35.8684 120.381C35.3642 120.324 34.9983 120.348 34.5511 120.169C33.2582 119.657 32.5182 117.965 32.1441 116.646C31.1439 113.172 31.2903 108.274 34.3966 105.874C36.2587 104.434 39.121 104.304 41.3653 104.092C44.5123 103.799 47.6836 103.864 50.8386 103.946C52.3755 103.986 53.9124 104.035 55.4492 104.068C57.1487 104.1 57.1487 101.456 55.4492 101.423L55.4411 101.415Z" fill="url(#paint13_linear_9824_14693)"/>
<path d="M118.868 104.108C120.567 104.108 120.567 101.464 118.868 101.464C117.168 101.464 117.168 104.108 118.868 104.108Z" fill="url(#paint14_linear_9824_14693)"/>
<path d="M125.226 101.301C122.226 101.244 119.225 101.269 116.233 101.236C115.517 101.228 114.916 101.846 114.916 102.554C114.916 103.262 115.517 103.864 116.233 103.872C119.233 103.905 122.234 103.889 125.226 103.937C125.942 103.954 126.544 103.319 126.544 102.619C126.544 101.92 125.942 101.309 125.226 101.301Z" fill="url(#paint15_linear_9824_14693)"/>
<path d="M139.53 112.196C139.53 109.543 139.262 106.899 138.765 104.304C138.635 103.62 137.782 103.173 137.139 103.384C136.415 103.62 136.074 104.279 136.22 105.011C136.676 107.371 136.895 109.682 136.895 112.204C136.895 112.896 137.505 113.555 138.213 113.522C138.92 113.49 139.53 112.944 139.53 112.204V112.196Z" fill="url(#paint16_linear_9824_14693)"/>
<path d="M108.345 58.4308C108.215 58.3413 108.061 58.2437 107.939 58.1379C108.012 58.203 108.085 58.26 107.971 58.1623C107.906 58.1054 107.841 58.0566 107.776 57.9996C107.532 57.7962 107.304 57.5846 107.077 57.3568C106.841 57.1209 106.613 56.8768 106.394 56.6246C106.296 56.5106 106.198 56.3967 106.101 56.2747C106.052 56.2096 105.987 56.1445 105.946 56.0794C106.036 56.2177 106.028 56.1852 105.946 56.0713C105.166 55.038 104.515 53.907 103.93 52.7517C103.613 52.1333 102.694 51.9055 102.124 52.2797C101.49 52.6866 101.319 53.427 101.653 54.086C102.954 56.6571 104.637 59.0411 107.02 60.709C107.589 61.1077 108.516 60.831 108.825 60.2371C109.183 59.5618 108.955 58.8539 108.353 58.4308H108.345Z" fill="url(#paint17_linear_9824_14693)"/>
<path d="M103.702 54.1348C105.401 52.7435 107.768 53.4839 109.475 54.4277C110.354 54.9078 111.224 55.4041 112.078 55.9167C112.492 56.1608 112.899 56.413 113.305 56.6734C113.476 56.7873 113.647 56.9012 113.818 57.0151C114.135 57.2348 113.688 56.8768 113.98 57.1534C115.224 58.3088 117.095 56.4456 115.851 55.2821C115.102 54.5905 114.159 54.0697 113.289 53.5571C112.362 53.012 111.427 52.4831 110.476 51.9624C107.727 50.4572 104.369 50.1887 101.832 52.2635C101.279 52.7191 101.36 53.6629 101.832 54.1348C102.377 54.68 103.149 54.5905 103.702 54.1348Z" fill="url(#paint18_linear_9824_14693)"/>
<path d="M115.851 48.0082C110.549 47.105 108.256 41.5886 106.524 37.1461C106.263 36.4789 105.637 36.0233 104.897 36.2267C104.263 36.3976 103.71 37.1868 103.978 37.854C105.125 40.7831 106.296 43.7203 108.272 46.2019C109.98 48.3499 112.403 50.0992 115.151 50.563C115.851 50.685 116.574 50.3758 116.778 49.6436C116.948 49.0089 116.558 48.1383 115.859 48.0163L115.851 48.0082Z" fill="url(#paint19_linear_9824_14693)"/>
<path d="M104.743 38.5944C107.329 39.3104 110.037 40.4088 112.159 42.093C113.086 42.8253 113.728 43.7528 114.094 44.8757C114.289 45.4778 114.419 46.0961 114.509 46.7145C114.55 47.0074 114.582 47.3003 114.615 47.5932C114.631 47.7478 114.639 47.9105 114.655 48.0651C114.712 48.4557 114.615 47.9756 115.005 47.7641L115.672 47.5851H115.582C115.802 47.642 116.03 47.699 116.249 47.7641L116.16 47.699C115.582 47.2759 114.688 47.6013 114.354 48.1709C113.964 48.8381 114.249 49.5622 114.826 49.9772C115.851 50.7176 117.03 49.7656 117.257 48.7323C117.444 47.9024 117.176 46.8365 117.046 46.0066C116.769 44.2492 116.176 42.5812 115.029 41.2062C113.883 39.8311 112.297 38.928 110.768 38.1306C109.069 37.2438 107.28 36.544 105.434 36.0314C103.791 35.5758 103.092 38.1306 104.735 38.5781L104.743 38.5944Z" fill="url(#paint20_linear_9824_14693)"/>
<path d="M116.127 34.5832C116.257 34.4774 116.412 34.4367 116.566 34.453C116.761 34.4611 116.769 34.453 116.574 34.4123C116.737 34.5099 116.314 34.2984 116.322 34.2984C116.046 34.1601 115.769 34.0218 115.501 33.8672C114.94 33.5499 114.395 33.2 113.875 32.8176C112.899 32.1097 112.021 31.2554 111.232 30.3523C109.622 28.4972 108.483 26.2841 107.874 23.9164C107.451 22.2729 104.897 22.9645 105.328 24.6161C106.109 27.6429 107.678 30.4418 109.817 32.72C110.874 33.8428 112.078 34.8354 113.379 35.6653C114.541 36.4057 116.818 37.9354 117.989 36.4464C118.428 35.885 118.534 35.1202 117.989 34.575C117.534 34.1194 116.566 34.0136 116.119 34.575L116.127 34.5832Z" fill="url(#paint21_linear_9824_14693)"/>
<path d="M106.662 24.8114C109.402 24.8684 112.021 26.0807 113.834 28.1392C115.647 30.1977 116.387 33.021 116.095 35.7223C116.013 36.4301 116.761 37.0403 117.412 37.0403C118.192 37.0403 118.656 36.4301 118.729 35.7223C119.103 32.3213 117.949 28.8308 115.696 26.2678C113.444 23.7049 110.061 22.2322 106.654 22.159C104.954 22.1264 104.954 24.7707 106.654 24.8033L106.662 24.8114Z" fill="url(#paint22_linear_9824_14693)"/>
<path d="M101.661 20.2876C102.564 21.9881 103.783 23.5421 105.223 24.8196C105.743 25.2752 106.589 25.3647 107.093 24.8196C107.556 24.3151 107.646 23.4364 107.093 22.9482C106.385 22.3217 105.735 21.6301 105.158 20.8816L105.361 21.1501C104.824 20.4585 104.353 19.7262 103.946 18.9532C103.621 18.343 102.718 18.0989 102.141 18.4813C101.523 18.88 101.319 19.6367 101.669 20.2876H101.661Z" fill="url(#paint23_linear_9824_14693)"/>
<path d="M100.994 33.9811C100.758 33.6719 101.01 33.9974 101.051 34.0624C101.124 34.1519 101.189 34.2496 101.262 34.3391C101.401 34.5262 101.539 34.7134 101.677 34.9005C101.946 35.2666 102.206 35.6328 102.466 36.007C102.986 36.7637 103.499 37.5367 103.978 38.3178C104.344 38.9036 105.174 39.1884 105.784 38.7897C106.394 38.391 106.646 37.6099 106.255 36.9834C105.206 35.2992 104.068 33.68 102.848 32.1097C102.653 31.8656 102.214 31.7192 101.913 31.7192C101.588 31.7192 101.206 31.8656 100.978 32.1097C100.75 32.3538 100.571 32.6955 100.588 33.0454C100.604 33.4197 100.75 33.6882 100.978 33.9811H100.994Z" fill="url(#paint24_linear_9824_14693)"/>
<path d="M98.514 52.833C98.7498 52.8493 98.9938 52.8737 99.2296 52.9062L98.8799 52.8574C99.9289 53.0039 100.945 53.2805 101.921 53.6873L101.604 53.5571C101.645 53.5734 101.693 53.5978 101.734 53.6141C102.076 53.7605 102.377 53.85 102.751 53.7443C103.06 53.6629 103.393 53.4188 103.539 53.134C103.702 52.8249 103.783 52.4587 103.669 52.117C103.572 51.816 103.369 51.458 103.06 51.3278C102.336 51.0186 101.604 50.742 100.84 50.5467C100.075 50.3514 99.2865 50.2375 98.5059 50.1806C98.1806 50.1561 97.7903 50.3433 97.5708 50.5711C97.3512 50.7989 97.1723 51.1732 97.1804 51.5068C97.213 52.2716 97.7659 52.7679 98.4978 52.8249L98.514 52.833Z" fill="url(#paint25_linear_9824_14693)"/>
<path d="M96.4568 62.4339C96.7821 62.5397 97.0992 62.6454 97.4163 62.7594C97.5383 62.8082 97.6521 62.857 97.7741 62.8977C97.3187 62.7268 97.7416 62.8814 97.8473 62.9384C98.2051 63.1092 98.5303 63.3126 98.8475 63.5405C99.0101 63.6625 98.5629 63.3126 98.7174 63.4428C98.7499 63.4672 98.7906 63.4998 98.8231 63.5242C98.9044 63.5893 98.9776 63.6544 99.0508 63.7194C99.2134 63.8578 99.3842 64.0042 99.5468 64.1507C100.1 64.6226 100.669 65.0701 101.246 65.5094C101.498 65.7047 101.97 65.721 102.263 65.6396C102.555 65.5583 102.905 65.3142 103.052 65.0294C103.214 64.7202 103.295 64.3541 103.182 64.0124C103.068 63.6706 102.864 63.4428 102.572 63.2231C102.49 63.158 102.401 63.0929 102.32 63.036C102.238 62.979 102.271 63.0034 102.417 63.1092C102.377 63.0767 102.336 63.0441 102.287 63.0116C102.173 62.9221 102.051 62.8245 101.937 62.7268C101.726 62.556 101.523 62.377 101.311 62.198C100.921 61.8644 100.539 61.5308 100.124 61.2297C99.2459 60.5707 98.1726 60.2127 97.1398 59.8791C96.4812 59.6675 95.668 60.1232 95.5135 60.7985C95.3509 61.5226 95.7331 62.198 96.4324 62.4258L96.4568 62.4339Z" fill="url(#paint26_linear_9824_14693)"/>
<path d="M118.176 24.1849C117.68 34.5913 116.314 44.9163 114.655 55.1926C114.387 56.8605 116.932 57.5765 117.2 55.8923C118.9 45.3883 120.315 34.8191 120.819 24.1849C120.9 22.4844 118.258 22.4844 118.176 24.1849Z" fill="url(#paint27_linear_9824_14693)"/>
<path d="M118.867 50.8722C125.771 49.1961 131.829 44.6397 135.375 38.4805C136.228 36.9997 133.943 35.6734 133.09 37.1461C129.869 42.7358 124.421 46.804 118.16 48.3255C116.509 48.7242 117.209 51.279 118.859 50.8722H118.867Z" fill="url(#paint28_linear_9824_14693)"/>
<path d="M119.575 48.7892C119.526 47.1376 119.957 45.5591 120.876 44.1759C121.795 42.7928 123.324 41.7594 124.779 40.9214C127.227 39.5219 130.609 38.4235 133.439 39.0256C135.098 39.3836 135.806 36.8288 134.139 36.4789C130.528 35.706 126.381 36.902 123.258 38.7408C121.421 39.8311 119.681 41.1248 118.518 42.9392C117.355 44.7536 116.859 46.7389 116.924 48.7811C116.973 50.4816 119.616 50.4897 119.567 48.7811L119.575 48.7892Z" fill="url(#paint29_linear_9824_14693)"/>
<path d="M118.949 36.2349C120.965 36.544 122.754 35.8199 124.405 34.6971C125.885 33.68 127.267 32.5003 128.471 31.1659C130.935 28.4321 133.155 24.8928 133.309 21.1257C133.382 19.4252 130.74 19.4252 130.666 21.1257C130.544 24.0791 128.65 26.9757 126.747 29.1318C125.812 30.1977 124.763 31.1903 123.616 32.0284C122.543 32.8176 121.079 33.9079 119.648 33.6882C118.941 33.5824 118.225 33.8672 118.022 34.6076C117.851 35.2341 118.233 36.1291 118.941 36.2349H118.949Z" fill="url(#paint30_linear_9824_14693)"/>
<path d="M121.339 34.217C121.47 32.9478 121.616 31.6785 122.006 30.458C122.397 29.2376 123.145 28.2368 124.088 27.3581C125.031 26.4794 126.194 25.6576 127.259 24.844C128.495 23.9083 129.723 22.9645 130.959 22.0288C131.528 21.5975 131.821 20.8897 131.431 20.2225C131.105 19.6611 130.195 19.3112 129.626 19.7506C128.259 20.7921 126.885 21.8335 125.519 22.875C124.291 23.8106 122.998 24.7138 121.892 25.804C120.786 26.8943 119.981 28.1799 119.485 29.6525C118.989 31.1252 118.851 32.6955 118.689 34.2252C118.615 34.933 119.347 35.5433 120.006 35.5433C120.778 35.5433 121.258 34.933 121.323 34.2252L121.339 34.217Z" fill="url(#paint31_linear_9824_14693)"/>
<path d="M120.583 22.4112C118.778 20.5887 116.778 18.6034 116.176 16.0242C115.859 14.6817 116.086 13.3148 116.387 11.9885C116.721 10.4914 117.111 9.01876 117.257 7.48913C117.331 6.78126 116.599 6.17104 115.94 6.17104C115.168 6.17104 114.688 6.78126 114.623 7.48913C114.306 10.703 112.818 13.6972 113.696 16.968C114.484 19.8889 116.656 22.1834 118.721 24.2826C119.916 25.4949 121.787 23.6235 120.591 22.4112H120.583Z" fill="url(#paint32_linear_9824_14693)"/>
<path d="M115.647 7.93662C117.631 9.44998 119.282 11.419 120.437 13.6321C121.136 14.9664 120.77 16.1543 120.412 17.5375C120.03 19.0346 119.656 20.5317 119.274 22.0288C118.851 23.6805 121.404 24.3802 121.819 22.7285C122.234 21.0768 122.689 19.3356 123.112 17.6433C123.559 15.8452 123.673 14.2586 122.844 12.5581C121.51 9.81612 119.38 7.49726 116.973 5.66658C116.404 5.23535 115.493 5.57708 115.168 6.13849C114.769 6.82194 115.07 7.51353 115.639 7.94476L115.647 7.93662Z" fill="url(#paint33_linear_9824_14693)"/>
<path d="M133.203 20.7351C133.285 20.4096 133.39 20.0923 133.512 19.775L133.382 20.0923C133.594 19.5879 133.87 19.116 134.204 18.6847L134 18.9532C134.334 18.522 134.724 18.1315 135.155 17.7979L134.887 18.0013C135.22 17.7491 135.578 17.5212 135.952 17.3341C136.57 17.0249 136.789 16.0974 136.424 15.5278C136.009 14.8932 135.277 14.7305 134.618 15.0559C132.659 16.016 131.162 17.9199 130.65 20.0354C130.487 20.7026 130.862 21.4999 131.569 21.6626C132.276 21.8254 133.025 21.4592 133.195 20.7432L133.203 20.7351Z" fill="url(#paint34_linear_9824_14693)"/>
<path d="M112.704 2.48527C113.419 4.12881 114.127 5.78049 114.842 7.42403C114.964 7.7088 115.346 7.95289 115.631 8.03426C115.948 8.12376 116.371 8.08308 116.648 7.90408C116.924 7.72508 117.176 7.44844 117.257 7.11485C117.339 6.74871 117.274 6.43953 117.127 6.09781C116.412 4.45426 115.704 2.80258 114.989 1.15904C114.867 0.874268 114.485 0.630177 114.2 0.548814C113.883 0.459314 113.46 0.499996 113.183 0.678995C112.907 0.857995 112.655 1.13463 112.574 1.46822C112.492 1.83436 112.557 2.14354 112.704 2.48527Z" fill="url(#paint35_linear_9824_14693)"/>
<path d="M134.114 39.1477C134.976 38.7246 135.773 38.1306 136.424 37.4309C136.773 37.0485 137.098 36.6335 137.383 36.2023C137.684 35.7467 137.904 35.2585 138.107 34.754C138.229 34.4611 138.123 33.9974 137.977 33.737C137.814 33.4604 137.505 33.2 137.188 33.1268C136.846 33.0535 136.472 33.0698 136.171 33.257L135.903 33.4604C135.741 33.6231 135.627 33.8184 135.562 34.0462L135.537 34.095L135.667 33.7777C135.432 34.3228 135.131 34.8354 134.773 35.3073L134.976 35.0388C134.61 35.5107 134.196 35.9257 133.724 36.2918L133.992 36.0884C133.61 36.3813 133.203 36.6417 132.772 36.8532C132.488 36.9915 132.244 37.3495 132.163 37.6424C132.073 37.9598 132.114 38.3829 132.293 38.6595C132.472 38.9361 132.748 39.1884 133.081 39.2697C133.439 39.3511 133.765 39.3023 134.098 39.1395L134.114 39.1477Z" fill="url(#paint36_linear_9824_14693)"/>
<path d="M89.4718 121.886C85.8451 105.76 82.2265 89.6337 78.5999 73.5156C76.8516 65.7373 75.2334 57.9101 72.6963 50.3433C70.4357 43.5901 67.5572 37.0241 64.1012 30.7998C60.1981 23.77 55.5224 17.1633 50.1149 11.2074C48.9684 9.94631 47.1062 11.8177 48.2447 13.0788C57.7342 23.5422 64.8981 36.0884 69.5819 49.3995C72.1596 56.7141 73.8185 64.289 75.518 71.8395C77.3151 79.8294 79.1121 87.8193 80.9011 95.8011C82.9096 104.727 84.9181 113.66 86.9185 122.586C87.2925 124.246 89.8377 123.546 89.4636 121.886H89.4718Z" fill="url(#paint37_linear_9824_14693)"/>
<path d="M48.0414 11.4759C44.1464 17.448 43.7967 24.787 44.3578 31.6948C45.0083 39.7254 46.2931 47.7315 47.3177 55.7296C47.83 59.7408 48.2935 63.7601 49.0416 67.7388C49.7246 71.3839 50.6028 74.9802 51.5217 78.5683C53.3432 85.712 55.1565 92.8476 56.8967 100.016C58.7344 107.599 60.4827 115.198 62.2391 122.798C62.6213 124.457 65.1665 123.749 64.7843 122.098C61.6699 108.591 58.4823 95.1014 55.0427 81.6683C53.1643 74.3211 51.4079 67.0309 50.4402 59.5048C49.4075 51.4173 48.2853 43.3298 47.3502 35.226C46.4801 27.708 46.0085 19.4414 50.3264 12.8184C51.2615 11.3864 48.9684 10.0602 48.0414 11.4841V11.4759Z" fill="url(#paint38_linear_9824_14693)"/>
<path d="M53.1805 52.4181C52.8959 51.1325 52.6845 49.79 53.0667 48.4963C53.4489 47.2027 54.319 46.3483 55.0671 45.3476C55.8152 44.3468 56.3356 43.2484 57.0349 42.2314C57.8806 40.9946 58.6531 39.5789 59.6533 38.4642C60.0111 38.0655 60.3526 37.6669 60.6941 37.2438C61.1007 36.7312 61.2552 36.7068 61.7268 36.3162C62.2554 35.8769 60.5721 36.3976 60.6941 35.9582C60.6697 36.0396 60.7592 36.243 60.7592 36.3C60.808 36.7881 60.6941 37.3007 60.5803 37.7726C60.0517 40.0671 59.1816 42.3534 57.7749 44.2492C55.7501 46.983 53.6278 49.5459 51.1476 51.8811C50.0011 52.9632 51.7331 54.6881 52.8715 53.606C55.498 51.1162 57.7261 48.3743 59.881 45.4778C61.5073 43.2809 62.662 40.3274 63.0848 37.618C63.2556 36.5034 63.3206 35.1527 62.4261 34.2984C61.3853 33.3139 59.8566 34.4449 59.141 35.3073C58.092 36.5766 57.0837 37.8215 56.1811 39.1965C55.7013 39.9206 55.189 40.6204 54.7093 41.3445C54.319 41.9384 54.0181 42.5812 53.6278 43.1752C52.7089 44.599 51.481 45.7788 50.8793 47.3898C50.1881 49.2286 50.4321 51.1895 50.8386 53.0608C51.172 54.5905 53.5302 53.9477 53.1887 52.4099L53.1805 52.4181Z" fill="url(#paint39_linear_9824_14693)"/>
<path d="M57.7911 75.3789C57.4171 73.8085 57.1325 72.1569 57.6773 70.5947C58.1814 69.1383 59.3443 68.0643 60.2713 66.8764C61.1983 65.6885 61.9545 64.289 62.8815 63.0523C64.0606 61.482 65.134 59.8384 66.5082 58.4227C66.931 57.9915 67.297 57.4952 67.6954 57.0477C67.9475 56.7629 67.7035 56.9582 68.0776 56.7141C68.1833 56.649 68.7362 56.3967 68.7688 56.2991C68.8013 56.1771 67.7605 56.2991 67.858 56.055C67.8743 56.0062 67.9231 56.1852 67.9312 56.1689C67.915 56.2177 67.9719 56.4537 67.98 56.5351C68.0369 57.1453 67.858 57.7962 67.7117 58.382C67.0042 61.1321 65.8739 63.7764 64.0768 65.9814C61.491 69.1546 58.8482 72.1406 55.7582 74.8419C54.571 75.8752 56.3031 77.6001 57.4821 76.5668C60.6535 73.7923 63.3775 70.7167 66.0122 67.4459C68.0938 64.8586 69.6307 61.5064 70.2406 58.2193C70.4845 56.9256 70.6146 55.339 69.5901 54.3301C68.5655 53.3212 66.9229 54.3789 66.0691 55.217C64.7111 56.5595 63.467 58.0972 62.3692 59.6594C61.7593 60.53 61.1088 61.3599 60.4827 62.2142C59.9135 62.9872 59.4744 63.8415 58.9296 64.6226C57.7667 66.2906 56.2299 67.6249 55.4736 69.5532C54.6442 71.6443 54.9369 73.8899 55.4492 76.0216C55.8152 77.5513 58.1652 76.9004 57.7993 75.3707L57.7911 75.3789Z" fill="url(#paint40_linear_9824_14693)"/>
<path d="M63.6052 97.4691C63.2312 95.8987 62.9466 94.2471 63.4914 92.6849C63.9955 91.2285 65.1584 90.1545 66.0854 88.9666C67.0124 87.7787 67.7686 86.3792 68.6956 85.1425C69.8747 83.5722 70.948 81.9286 72.3223 80.5129C72.7451 80.0817 73.111 79.5854 73.5095 79.1379C73.7616 78.8531 73.5176 79.0484 73.8917 78.8043C73.9974 78.7392 74.5503 78.4869 74.5829 78.3893C74.6154 78.2673 73.5745 78.3893 73.6721 78.1452C73.6884 78.0964 73.7372 78.2754 73.7453 78.2591C73.729 78.3079 73.786 78.5439 73.7941 78.6253C73.851 79.2355 73.6721 79.8864 73.5258 80.4722C72.8183 83.2223 71.688 85.8666 69.8909 88.0716C67.3051 91.2447 64.6623 94.2308 61.5723 96.9321C60.3851 97.9654 62.1171 99.6903 63.2962 98.657C66.4675 95.8825 69.1916 92.8069 71.8263 89.5361C73.9079 86.9488 75.4448 83.5966 76.0547 80.3095C76.2986 79.0158 76.4287 77.4292 75.4042 76.4203C74.3796 75.4114 72.737 76.4691 71.8832 77.3072C70.5252 78.6497 69.2811 80.1874 68.1833 81.7496C67.5734 82.6202 66.9229 83.4501 66.2968 84.3044C65.7276 85.0774 65.2885 85.9317 64.7436 86.7128C63.5808 88.3807 62.044 89.7151 61.2877 91.6434C60.4583 93.7345 60.751 95.9801 61.2633 98.1118C61.6292 99.6415 63.9793 98.9906 63.6134 97.4609L63.6052 97.4691Z" fill="url(#paint41_linear_9824_14693)"/>
<path d="M68.3704 118.2C68.3704 115.589 68.9071 113.311 70.4439 111.195C71.3384 109.966 72.2817 108.787 73.1518 107.534C74.2089 106.012 75.2497 104.417 76.4207 102.985C76.8598 102.448 77.3802 102.001 77.8274 101.472C78.3641 100.829 78.5674 100.512 79.1203 100.162C79.5513 99.8937 79.9091 99.9262 79.1854 99.7391C78.3072 99.5113 78.8764 99.5438 78.8357 99.8449C78.7788 100.317 78.8926 100.837 78.8113 101.334C78.3478 104.255 76.8272 106.777 75.1521 109.145C72.8997 112.326 70.1187 114.791 67.1913 117.338C66.0041 118.371 67.7361 120.088 68.9152 119.063C71.9158 116.451 74.713 113.904 77.0549 110.65C79.0878 107.835 80.8686 104.727 81.2752 101.212C81.4134 100.016 81.3159 98.2664 80.0961 97.6074C78.8764 96.9483 77.2013 98.4454 76.4532 99.316C75.9165 99.9425 75.3229 100.504 74.7943 101.13C73.9812 102.082 73.2981 103.156 72.5581 104.173C71.501 105.63 70.5334 107.151 69.4194 108.567C68.533 109.69 67.6467 110.821 67.0531 112.139C66.1911 114.051 65.939 116.126 65.9309 118.209C65.9309 119.779 68.3704 119.779 68.3704 118.209V118.2Z" fill="url(#paint42_linear_9824_14693)"/>
<path d="M38.9829 184.129C39.178 186.871 39.0967 189.581 38.8771 192.323C38.682 194.747 38.9585 197.074 40.2107 199.198C41.3004 201.045 43.008 202.648 45.0653 203.323C47.1226 203.998 49.375 203.681 51.4892 203.746C53.1887 203.803 53.1887 201.159 51.4892 201.102C49.7003 201.045 47.7487 201.338 46.0085 200.841C44.2684 200.345 42.9999 198.897 42.2192 197.375C41.2516 195.48 41.4223 193.47 41.5931 191.428C41.7964 189.003 41.7964 186.57 41.6256 184.137C41.5036 182.453 38.8609 182.437 38.9829 184.137V184.129Z" fill="url(#paint43_linear_9824_14693)"/>
</g>
<defs>
<linearGradient id="paint0_linear_9824_14693" x1="47.0768" y1="68.6473" x2="22.3563" y2="64.9616" gradientUnits="userSpaceOnUse">
<stop stop-color="#660F33"/>
<stop offset="1" stop-color="#CC1E66"/>
</linearGradient>
<linearGradient id="paint1_linear_9824_14693" x1="51.8793" y1="72.1281" x2="37.1859" y2="61.167" gradientUnits="userSpaceOnUse">
<stop stop-color="#660F33"/>
<stop offset="1" stop-color="#CC1E66"/>
</linearGradient>
<linearGradient id="paint2_linear_9824_14693" x1="53.8617" y1="108.087" x2="25.0624" y2="102.495" gradientUnits="userSpaceOnUse">
<stop stop-color="#660F33"/>
<stop offset="1" stop-color="#CC1E66"/>
</linearGradient>
<linearGradient id="paint3_linear_9824_14693" x1="95.3429" y1="76.7367" x2="84.3998" y2="67.7975" gradientUnits="userSpaceOnUse">
<stop stop-color="#660F33"/>
<stop offset="1" stop-color="#CC1E66"/>
</linearGradient>
<linearGradient id="paint4_linear_9824_14693" x1="91.4776" y1="63.7008" x2="66.6197" y2="56.2866" gradientUnits="userSpaceOnUse">
<stop stop-color="#660F33"/>
<stop offset="1" stop-color="#CC1E66"/>
</linearGradient>
<linearGradient id="paint5_linear_9824_14693" x1="90.4435" y1="69.995" x2="74.7874" y2="63.5352" gradientUnits="userSpaceOnUse">
<stop stop-color="#660F33"/>
<stop offset="1" stop-color="#CC1E66"/>
</linearGradient>
<linearGradient id="paint6_linear_9824_14693" x1="32.4689" y1="142.479" x2="2.67504" y2="139.291" gradientUnits="userSpaceOnUse">
<stop stop-color="#660F33"/>
<stop offset="1" stop-color="#CC1E66"/>
</linearGradient>
<linearGradient id="paint7_linear_9824_14693" x1="28.6448" y1="86.2897" x2="-4.98444" y2="77.7294" gradientUnits="userSpaceOnUse">
<stop stop-color="#660F33"/>
<stop offset="1" stop-color="#CC1E66"/>
</linearGradient>
<linearGradient id="paint8_linear_9824_14693" x1="168.985" y1="187.172" x2="116.67" y2="173.823" gradientUnits="userSpaceOnUse">
<stop stop-color="#660F33"/>
<stop offset="1" stop-color="#CC1E66"/>
</linearGradient>
<linearGradient id="paint9_linear_9824_14693" x1="175.99" y1="125.147" x2="100.993" y2="109.3" gradientUnits="userSpaceOnUse">
<stop stop-color="#660F33"/>
<stop offset="1" stop-color="#CC1E66"/>
</linearGradient>
<linearGradient id="paint10_linear_9824_14693" x1="143.035" y1="123.853" x2="74.924" y2="110.735" gradientUnits="userSpaceOnUse">
<stop stop-color="#660F33"/>
<stop offset="1" stop-color="#CC1E66"/>
</linearGradient>
<linearGradient id="paint11_linear_9824_14693" x1="141.982" y1="106.367" x2="119.092" y2="100.592" gradientUnits="userSpaceOnUse">
<stop stop-color="#660F33"/>
<stop offset="1" stop-color="#CC1E66"/>
</linearGradient>
<linearGradient id="paint12_linear_9824_14693" x1="158.064" y1="211.504" x2="13.3099" y2="161.992" gradientUnits="userSpaceOnUse">
<stop stop-color="#660F33"/>
<stop offset="1" stop-color="#CC1E66"/>
</linearGradient>
<linearGradient id="paint13_linear_9824_14693" x1="157.635" y1="145.3" x2="52.7475" y2="68.7125" gradientUnits="userSpaceOnUse">
<stop stop-color="#660F33"/>
<stop offset="1" stop-color="#CC1E66"/>
</linearGradient>
<linearGradient id="paint14_linear_9824_14693" x1="120.142" y1="104.108" x2="117.131" y2="103.382" gradientUnits="userSpaceOnUse">
<stop stop-color="#660F33"/>
<stop offset="1" stop-color="#CC1E66"/>
</linearGradient>
<linearGradient id="paint15_linear_9824_14693" x1="126.544" y1="103.938" x2="119.808" y2="96.6896" gradientUnits="userSpaceOnUse">
<stop stop-color="#660F33"/>
<stop offset="1" stop-color="#CC1E66"/>
</linearGradient>
<linearGradient id="paint16_linear_9824_14693" x1="139.53" y1="113.523" x2="135.379" y2="113.183" gradientUnits="userSpaceOnUse">
<stop stop-color="#660F33"/>
<stop offset="1" stop-color="#CC1E66"/>
</linearGradient>
<linearGradient id="paint17_linear_9824_14693" x1="108.995" y1="60.896" x2="100.017" y2="58.9802" gradientUnits="userSpaceOnUse">
<stop stop-color="#660F33"/>
<stop offset="1" stop-color="#CC1E66"/>
</linearGradient>
<linearGradient id="paint18_linear_9824_14693" x1="116.26" y1="57.5173" x2="102.031" y2="49.7067" gradientUnits="userSpaceOnUse">
<stop stop-color="#660F33"/>
<stop offset="1" stop-color="#CC1E66"/>
</linearGradient>
<linearGradient id="paint19_linear_9824_14693" x1="116.817" y1="50.5889" x2="101.452" y2="47.1482" gradientUnits="userSpaceOnUse">
<stop stop-color="#660F33"/>
<stop offset="1" stop-color="#CC1E66"/>
</linearGradient>
<linearGradient id="paint20_linear_9824_14693" x1="117.322" y1="50.2403" x2="101.317" y2="46.4466" gradientUnits="userSpaceOnUse">
<stop stop-color="#660F33"/>
<stop offset="1" stop-color="#CC1E66"/>
</linearGradient>
<linearGradient id="paint21_linear_9824_14693" x1="118.359" y1="37.0744" x2="102.844" y2="33.4757" gradientUnits="userSpaceOnUse">
<stop stop-color="#660F33"/>
<stop offset="1" stop-color="#CC1E66"/>
</linearGradient>
<linearGradient id="paint22_linear_9824_14693" x1="118.799" y1="37.0403" x2="102.836" y2="33.4417" gradientUnits="userSpaceOnUse">
<stop stop-color="#660F33"/>
<stop offset="1" stop-color="#CC1E66"/>
</linearGradient>
<linearGradient id="paint23_linear_9824_14693" x1="107.475" y1="25.1956" x2="100.339" y2="23.65" gradientUnits="userSpaceOnUse">
<stop stop-color="#660F33"/>
<stop offset="1" stop-color="#CC1E66"/>
</linearGradient>
<linearGradient id="paint24_linear_9824_14693" x1="106.442" y1="38.975" x2="99.4089" y2="37.556" gradientUnits="userSpaceOnUse">
<stop stop-color="#660F33"/>
<stop offset="1" stop-color="#CC1E66"/>
</linearGradient>
<linearGradient id="paint25_linear_9824_14693" x1="103.723" y1="53.7905" x2="96.9361" y2="50.7175" gradientUnits="userSpaceOnUse">
<stop stop-color="#660F33"/>
<stop offset="1" stop-color="#CC1E66"/>
</linearGradient>
<linearGradient id="paint26_linear_9824_14693" x1="103.235" y1="65.6857" x2="94.4946" y2="62.7923" gradientUnits="userSpaceOnUse">
<stop stop-color="#660F33"/>
<stop offset="1" stop-color="#CC1E66"/>
</linearGradient>
<linearGradient id="paint27_linear_9824_14693" x1="120.821" y1="56.8539" x2="113.105" y2="56.5024" gradientUnits="userSpaceOnUse">
<stop stop-color="#660F33"/>
<stop offset="1" stop-color="#CC1E66"/>
</linearGradient>
<linearGradient id="paint28_linear_9824_14693" x1="135.562" y1="50.9159" x2="114.74" y2="44.2895" gradientUnits="userSpaceOnUse">
<stop stop-color="#660F33"/>
<stop offset="1" stop-color="#CC1E66"/>
</linearGradient>
<linearGradient id="paint29_linear_9824_14693" x1="135.09" y1="50.0595" x2="114.591" y2="43.3205" gradientUnits="userSpaceOnUse">
<stop stop-color="#660F33"/>
<stop offset="1" stop-color="#CC1E66"/>
</linearGradient>
<linearGradient id="paint30_linear_9824_14693" x1="133.311" y1="36.3065" x2="115.135" y2="32.0737" gradientUnits="userSpaceOnUse">
<stop stop-color="#660F33"/>
<stop offset="1" stop-color="#CC1E66"/>
</linearGradient>
<linearGradient id="paint31_linear_9824_14693" x1="131.609" y1="35.5433" x2="116.086" y2="32.4065" gradientUnits="userSpaceOnUse">
<stop stop-color="#660F33"/>
<stop offset="1" stop-color="#CC1E66"/>
</linearGradient>
<linearGradient id="paint32_linear_9824_14693" x1="120.975" y1="24.6752" x2="111.631" y2="23.7217" gradientUnits="userSpaceOnUse">
<stop stop-color="#660F33"/>
<stop offset="1" stop-color="#CC1E66"/>
</linearGradient>
<linearGradient id="paint33_linear_9824_14693" x1="123.458" y1="23.6714" x2="113.009" y2="22.4553" gradientUnits="userSpaceOnUse">
<stop stop-color="#660F33"/>
<stop offset="1" stop-color="#CC1E66"/>
</linearGradient>
<linearGradient id="paint34_linear_9824_14693" x1="136.601" y1="21.7009" x2="129.461" y2="20.1306" gradientUnits="userSpaceOnUse">
<stop stop-color="#660F33"/>
<stop offset="1" stop-color="#CC1E66"/>
</linearGradient>
<linearGradient id="paint35_linear_9824_14693" x1="117.293" y1="8.08008" x2="111.492" y2="7.17012" gradientUnits="userSpaceOnUse">
<stop stop-color="#660F33"/>
<stop offset="1" stop-color="#CC1E66"/>
</linearGradient>
<linearGradient id="paint36_linear_9824_14693" x1="138.16" y1="39.3084" x2="131.027" y2="37.5762" gradientUnits="userSpaceOnUse">
<stop stop-color="#660F33"/>
<stop offset="1" stop-color="#CC1E66"/>
</linearGradient>
<linearGradient id="paint37_linear_9824_14693" x1="89.5011" y1="123.535" x2="37.9256" y2="118.776" gradientUnits="userSpaceOnUse">
<stop stop-color="#660F33"/>
<stop offset="1" stop-color="#CC1E66"/>
</linearGradient>
<linearGradient id="paint38_linear_9824_14693" x1="64.8233" y1="123.744" x2="39.0323" y2="122.563" gradientUnits="userSpaceOnUse">
<stop stop-color="#660F33"/>
<stop offset="1" stop-color="#CC1E66"/>
</linearGradient>
<linearGradient id="paint39_linear_9824_14693" x1="63.1888" y1="53.9494" x2="47.6507" y2="51.4781" gradientUnits="userSpaceOnUse">
<stop stop-color="#660F33"/>
<stop offset="1" stop-color="#CC1E66"/>
</linearGradient>
<linearGradient id="paint40_linear_9824_14693" x1="70.4123" y1="76.8939" x2="51.6203" y2="73.7329" gradientUnits="userSpaceOnUse">
<stop stop-color="#660F33"/>
<stop offset="1" stop-color="#CC1E66"/>
</linearGradient>
<linearGradient id="paint41_linear_9824_14693" x1="76.2264" y1="98.9841" x2="57.4344" y2="95.8231" gradientUnits="userSpaceOnUse">
<stop stop-color="#660F33"/>
<stop offset="1" stop-color="#CC1E66"/>
</linearGradient>
<linearGradient id="paint42_linear_9824_14693" x1="81.3229" y1="119.386" x2="62.657" y2="116.113" gradientUnits="userSpaceOnUse">
<stop stop-color="#660F33"/>
<stop offset="1" stop-color="#CC1E66"/>
</linearGradient>
<linearGradient id="paint43_linear_9824_14693" x1="52.7639" y1="203.765" x2="35.8064" y2="200.937" gradientUnits="userSpaceOnUse">
<stop stop-color="#660F33"/>
<stop offset="1" stop-color="#CC1E66"/>
</linearGradient>
<clipPath id="clip0_9824_14693">
<rect width="176" height="211" fill="white" transform="translate(0 0.5)"/>
</clipPath>
</defs>
</svg>
