<svg width="196" height="202" viewBox="0 0 196 202" fill="none" xmlns="http://www.w3.org/2000/svg">
<g clip-path="url(#clip0_9824_14651)">
<path d="M96.9467 27.0879C80.3886 32.7563 62.9687 35.0205 45.6684 37.1332C42.5324 37.5158 39.2207 37.9145 36.1246 37.0694C33.0284 36.2243 30.9616 33.8246 31.5282 30.54C32.1746 26.7691 35.4782 24.4411 38.734 22.9423C42.4925 21.2043 46.5063 19.9128 50.4643 18.701C58.3962 16.2694 66.4558 14.2923 74.3878 11.8686C82.3197 9.44504 90.4272 6.84604 98.5586 4.73335C102.381 3.7368 106.107 2.90767 110.081 3.09901C114.055 3.29035 117.806 4.27892 121.421 5.70598C125.036 7.13304 128.682 9.19789 132.01 11.4381C134.931 13.4073 137.652 15.6157 140.596 17.545C142.926 19.0757 145.839 20.7977 147.02 23.4605C148.408 26.6016 146.613 30.6277 145.496 33.5775C142.823 40.649 141.546 48.151 138.849 55.1986C138.25 56.7692 137.548 58.2919 136.758 59.7827L137.875 59.1449C134.188 59.113 130.566 57.7817 127.118 56.6017C123.384 55.3182 119.633 53.8513 115.731 53.1816C112.324 52.5916 108.725 52.8388 105.278 52.7909C103.378 52.767 101.471 52.759 99.564 52.8786C97.6569 52.9982 95.7258 53.4527 93.7946 53.8672C89.3419 54.8159 84.8493 55.1587 80.3008 55.0232C76.7817 54.9196 72.0816 55.0631 69.3445 52.3923C68.4029 51.4675 67.6528 49.7375 68.5625 48.5576C69.536 47.29 71.3155 46.5565 72.7359 45.9427C74.8426 45.0338 77.0051 44.7548 79.2714 44.5076C81.7691 44.2286 84.2428 43.7981 86.6687 43.1364C89.3818 42.3949 92.0311 41.3984 94.5687 40.1866C96.7073 39.1661 99.0055 38.0022 100.585 36.1765C102.014 34.5262 102.764 32.4135 102.126 30.261C101.543 28.2838 100.011 26.8089 97.9122 26.6814C96.2444 26.5777 96.2524 29.1687 97.9122 29.2724C99.4523 29.368 100.003 31.4648 99.6678 32.7005C99.1651 34.5501 97.2898 35.7699 95.7337 36.6628C91.3608 39.1581 86.4692 40.7925 81.5137 41.6057C79.1118 42.0043 76.6381 42.0442 74.276 42.6501C72.4886 43.1125 70.6692 43.9336 69.0892 44.8744C67.6847 45.7035 66.1845 46.8515 65.7297 48.5018C65.2748 50.1521 65.8254 52.1053 66.8468 53.4526C69.1051 56.4104 73.1748 57.2076 76.678 57.4388C81.2584 57.7338 85.8308 57.7418 90.3873 57.096C92.7174 56.7692 94.9677 56.1712 97.2738 55.7328C98.9336 55.4139 100.665 55.3899 102.349 55.374C104.368 55.3501 106.379 55.3979 108.398 55.4378C109.978 55.4697 111.566 55.374 113.146 55.4617C117.407 55.6929 121.588 57.4309 125.578 58.8101C129.568 60.1893 133.654 61.7121 137.883 61.7439C138.322 61.7439 138.793 61.4968 139 61.1061C142.679 54.1542 144.139 46.3732 146.382 38.903C147.539 35.0444 149.486 31.3691 149.964 27.3351C150.379 23.8272 149.079 20.997 146.485 18.6771C143.892 16.3571 141.027 14.938 138.394 12.9369C135.066 10.4017 131.691 7.97812 128.004 5.97704C120.695 2.01476 112.427 -0.400871 104.081 0.842822C99.8274 1.47264 95.6061 2.81998 91.4725 4.00786C87.339 5.19575 82.9261 6.55106 78.6649 7.85853C70.2542 10.4496 61.7717 12.7456 53.3131 15.1692C49.0439 16.397 44.8066 17.7523 40.6651 19.3707C36.9226 20.8376 33.1322 22.5277 30.7223 25.9001C28.5677 28.9216 28.073 33.2666 30.3791 36.3359C32.3501 38.9668 35.6219 39.8836 38.7659 40.0989C42.5643 40.362 46.4026 39.6445 50.1611 39.1821C54.7654 38.6081 59.3698 38.0101 63.9581 37.3165C73.1349 35.9453 82.2718 34.2153 91.1852 31.6322C93.3558 31.0024 95.5023 30.3247 97.6409 29.5913C99.2129 29.0571 98.5346 26.5538 96.9546 27.0959L96.9467 27.0879Z" fill="url(#paint0_linear_9824_14651)"/>
<path d="M156.739 24.4491C155.287 32.5251 152.462 40.2982 149.901 48.0713C148.568 52.1133 147.235 56.1553 145.903 60.2053C145.392 61.7519 144.171 64.048 146.262 64.9409C148.097 65.7222 150.164 66.1686 152.079 66.7586C160.027 69.23 167.951 71.9486 176.058 73.846C178.037 74.3084 180.032 74.715 182.035 75.0259C182.833 75.1535 183.695 75.3767 184.469 75.0339C185.339 74.6512 185.682 73.8221 186.001 72.993C187.398 69.4134 187.964 65.5866 188.706 61.8396C189.121 59.7269 189.584 57.6222 190.278 55.5813C190.973 53.5403 192.058 51.4994 192.856 49.4106C193.654 47.3219 194.085 45.0657 194.532 42.8573C195.01 40.4656 195.489 38.0659 195.968 35.6742C196.104 34.9806 195.777 34.287 195.066 34.0797C183.472 30.7313 171.877 27.3829 160.29 24.0265C158.686 23.5641 158 26.0595 159.604 26.5219C171.199 29.8703 182.793 33.2187 194.38 36.5751L193.478 34.9806C192.72 38.7834 192.114 42.666 191.108 46.421C190.103 50.176 188.196 53.1975 187.214 56.7771C186.233 60.3567 185.786 63.8247 184.988 67.3326C184.804 68.1458 184.597 68.9589 184.365 69.7642C184.246 70.1628 184.126 70.5614 183.998 70.96C183.863 71.3825 183.743 72.108 183.456 72.4509C183.168 72.7937 183.679 72.4827 183.272 72.6103C183.152 72.6502 182.865 72.5465 182.738 72.5306C182.235 72.4509 181.732 72.3632 181.237 72.2755C180.304 72.108 179.37 71.9247 178.436 71.7254C170.872 70.099 163.506 67.5957 156.133 65.2996C154.274 64.7176 152.414 64.1436 150.555 63.5616C149.685 63.2906 148.815 63.0195 147.954 62.7485C147.85 62.7166 147.243 62.4933 147.211 62.5173L147.451 62.8202C147.65 63.2507 147.77 63.2268 147.81 62.7485C148.065 62.3419 148.153 61.712 148.305 61.2576C149.534 57.5265 150.762 53.7955 151.999 50.0564C154.704 41.8528 157.729 33.6492 159.269 25.1267C159.564 23.4924 157.066 22.7988 156.771 24.4411L156.739 24.4491Z" fill="url(#paint1_linear_9824_14651)"/>
<path d="M34.393 137.713C36.9226 134.412 40.306 131.758 43.8251 129.589C47.5278 127.309 51.6054 125.372 55.6751 123.857C60.1757 122.175 64.8439 121.609 69.5839 121.043C74.0526 120.508 78.4096 119.464 82.7586 118.348C87.1076 117.232 91.696 116.012 96.2764 115.43C97.8963 115.223 99.5162 115.175 101.144 115.295C102.501 115.398 104.208 115.55 105.341 116.387C106.602 117.32 107.041 119.105 106.762 120.588C106.467 122.207 105.31 123.187 103.985 124.04C101.216 125.826 98.0639 126.91 94.9677 127.979C92.9568 128.672 90.9299 129.326 88.8632 129.82C86.7964 130.315 84.7935 130.394 82.7426 130.705C78.4734 131.351 74.4436 132.89 70.1106 133.224C69.4403 133.272 68.77 133.775 68.8179 134.516C69.0413 138.542 73.0153 138.678 76.0715 139.562C80.4445 140.83 85.0169 142.034 89.5973 141.308C91.2411 141.045 92.7972 140.455 94.449 140.2C96.1008 139.945 97.6649 139.786 99.2529 139.467C100.841 139.148 102.349 138.422 103.889 137.872C105.429 137.322 107.097 136.812 108.733 136.374C110.903 135.8 113.042 135.265 115.125 134.42C117.207 133.575 119.25 132.619 121.325 131.726C125.706 129.844 130.183 128.178 134.715 126.703C139.168 125.252 143.7 123.937 148.281 122.932C151.377 122.246 155.75 121.593 158.144 124.248C160.977 127.381 158.83 131.997 156.476 134.659C153.691 137.817 150.316 140.439 146.709 142.584C144.251 144.043 141.921 145.725 139.551 147.32C136.918 149.097 134.252 150.724 131.427 152.199C116.593 159.924 100.202 163.185 83.5885 163.934C79.2954 164.125 74.9942 164.181 70.7011 164.149C68.4907 164.133 66.2723 164.094 64.0619 164.038C61.8515 163.982 59.7688 164.094 57.9334 162.651C54.3904 159.876 51.1346 156.6 47.9507 153.434C44.7667 150.269 41.5988 146.889 38.6143 143.445C37.0981 141.699 35.6219 139.929 34.1696 138.135C33.1242 136.836 31.2968 138.678 32.3342 139.969C38.2951 147.344 44.7907 154.28 51.797 160.681C53.4408 162.188 55.0767 163.799 56.8961 165.098C58.7154 166.398 60.8141 166.549 63.0006 166.605C67.5092 166.724 72.0178 166.78 76.5344 166.724C93.5473 166.501 110.528 164.317 126.257 157.524C130.023 155.898 133.781 154.08 137.269 151.92C139.774 150.373 142.184 148.651 144.642 147.017C147.459 145.135 150.419 143.501 153.069 141.372C156.388 138.701 159.979 135.56 161.447 131.439C162.756 127.763 161.894 123.371 158.471 121.178C155.295 119.145 151.074 119.671 147.587 120.437C138.266 122.486 129.129 125.611 120.359 129.342C118.157 130.283 115.994 131.327 113.76 132.188C111.669 132.993 109.499 133.472 107.336 134.062C105.709 134.508 104.105 135.026 102.525 135.616C100.945 136.206 99.4364 136.828 97.7447 137.115C96.053 137.402 94.449 137.553 92.8132 137.856C91.0017 138.191 89.3419 138.853 87.4747 138.933C82.9022 139.124 78.649 137.426 74.2601 136.453C73.0631 136.19 71.4752 136.007 71.3954 134.516L70.1026 135.807C74.308 135.489 78.2101 134.141 82.3197 133.376C84.2987 133.009 86.3176 132.969 88.2966 132.579C90.2756 132.188 92.3663 131.558 94.3533 130.896C97.7287 129.772 101.2 128.608 104.304 126.839C105.828 125.97 107.44 124.909 108.398 123.402C109.419 121.784 109.651 119.655 109.172 117.83C108.725 116.132 107.608 114.553 105.996 113.78C104.384 113.006 102.501 112.759 100.713 112.656C96.444 112.409 92.1269 113.365 87.9934 114.338C83.1815 115.462 78.4335 116.881 73.5818 117.798C68.6423 118.739 63.5831 118.874 58.6995 120.142C55.9943 120.851 53.3849 121.904 50.8394 123.052C48.2938 124.2 45.9398 125.308 43.6177 126.655C39.2527 129.174 35.199 132.363 32.1267 136.382C31.6958 136.94 32.0469 137.825 32.5896 138.151C33.2519 138.55 33.9381 138.239 34.3611 137.689L34.393 137.713Z" fill="url(#paint2_linear_9824_14651)"/>
<path d="M25.0087 140.854C20.2527 144.202 15.8559 148.013 11.6585 152.039C9.55181 154.056 7.49302 156.129 5.45817 158.218C4.52454 159.175 3.5909 160.131 2.66524 161.096C1.73958 162.061 0.63837 163.137 0.191501 164.492C-0.718197 167.227 1.78746 169.172 3.43928 170.966C5.58585 173.286 7.73242 175.614 9.87101 177.934C14.0843 182.494 18.2737 187.07 22.503 191.614C25.4396 194.771 28.4959 197.992 31.9511 200.591C32.9725 201.364 34.0498 201.763 35.3027 201.301C36.4837 200.87 37.6088 200.089 38.6542 199.411C40.8167 198 42.8515 196.374 44.7587 194.636C48.5332 191.184 51.8288 187.245 55.1564 183.371C56.0102 182.374 56.8721 181.378 57.7498 180.397C58.6276 179.416 59.5852 178.388 59.8964 177.065C60.5667 174.258 57.4466 172.369 55.6831 170.774C45.844 161.837 36.5395 152.326 27.8016 142.305C26.7004 141.045 24.873 142.887 25.9663 144.139C33.1481 152.374 40.7209 160.275 48.6529 167.793C50.6398 169.674 52.6428 171.524 54.6696 173.357C55.1325 173.772 55.5953 174.187 56.0581 174.601C56.4412 174.944 56.9838 175.311 57.2232 175.773C57.7977 176.873 56.3534 178.061 55.6911 178.819C52.5071 182.422 49.4828 186.161 46.1552 189.629C42.8276 193.097 39.2846 196.222 35.1111 198.526C34.7042 198.75 34.393 199.013 33.9301 198.837C33.587 198.71 33.2598 198.367 32.9725 198.136C32.1347 197.458 31.3287 196.741 30.5387 196.007C28.9826 194.564 27.4824 193.073 26.0062 191.543C18.3855 183.666 11.0839 175.454 3.66272 167.394C3.29565 166.995 2.71312 166.517 2.59342 165.959C2.46575 165.345 2.89666 164.739 3.24777 164.285C4.13353 163.145 5.26666 162.14 6.27211 161.104C8.30696 159.015 10.3498 156.934 12.4405 154.893C16.7895 150.652 21.338 146.602 26.3174 143.094C27.674 142.138 26.3732 139.889 25.0087 140.854Z" fill="url(#paint3_linear_9824_14651)"/>
<path d="M123.551 131.008C127.262 128.879 130.693 126.304 133.957 123.546C136.894 121.059 139.431 118.268 140.556 114.513C142.583 107.761 139.918 100.235 133.845 96.5514C131.036 94.8453 127.645 93.9763 124.357 94.2075C120.743 94.4627 117.678 96.0412 114.877 98.2575C113.489 99.3577 112.18 100.562 110.792 101.67C109.706 102.539 108.533 103.272 107.408 104.085C107.113 104.301 106.81 104.524 106.499 104.715C106.06 104.978 106.187 104.93 105.74 105.058C104.743 105.345 103.642 105.297 102.565 105.297C99.1891 105.281 95.9173 105.026 92.9409 103.296C91.8716 102.674 90.8821 101.941 89.8926 101.207C88.9669 100.53 87.9774 99.9237 87.1715 99.0946C85.1127 96.9899 84.3865 93.4741 84.0593 90.6518C83.6524 87.0962 84.1312 83.389 85.9665 80.2718C88.2248 76.4291 91.7998 73.7344 96.1089 72.6661C97.8405 72.2436 99.604 72.0044 101.384 71.9008C103.163 71.7971 104.671 72.2595 106.235 72.8575C107.616 73.3836 109.1 74.0055 110.249 74.9542C111.518 76.0066 112.595 77.2821 113.744 78.4621C114.829 79.5782 116.003 80.7581 117.407 81.4517C119.003 82.2489 120.878 82.7432 122.594 83.2056C126.225 84.1862 130.015 84.0906 133.367 82.2808C139.272 79.0919 142.44 72.3153 141.626 65.7222C141.386 63.7689 140.86 61.8954 140.157 60.0618C139.559 58.5231 137.053 59.1928 137.66 60.7474C138.913 63.9922 139.623 67.4442 138.825 70.8883C138.107 73.9816 136.614 76.6842 134.117 78.6853C131.252 80.9893 127.789 81.7307 124.214 80.9255C122.426 80.5269 120.439 79.9928 118.779 79.2274C117.447 78.6135 116.386 77.4416 115.38 76.3972C114.247 75.2173 113.17 73.9736 111.901 72.9452C110.72 71.9885 109.355 71.3427 107.959 70.7527C106.379 70.0831 104.743 69.525 103.035 69.3257C101.328 69.1264 99.4285 69.4293 97.6968 69.7004C95.0316 70.1229 92.3504 70.9042 90.0522 72.3552C88.6078 73.264 87.4188 74.428 86.2618 75.6717C83.9636 78.1432 82.3437 81.0611 81.7213 84.3935C81.035 88.0369 81.3941 91.76 82.4235 95.2998C83.2135 98.0104 84.4344 100.338 86.7086 102.06C88.6477 103.527 90.6586 105.114 92.877 106.15C96.069 107.649 99.5162 107.88 103.003 107.864C104.966 107.856 106.77 107.705 108.406 106.549C110.8 104.851 113.106 103.113 115.34 101.215C117.934 99.0149 120.743 97.0616 124.238 96.7826C130.973 96.2405 137.205 100.713 138.442 107.402C139.064 110.774 138.354 114.402 136.439 117.248C135.354 118.866 133.877 120.198 132.401 121.457C130.821 122.812 129.185 124.112 127.501 125.34C125.818 126.567 124.07 127.7 122.259 128.744C120.814 129.573 122.115 131.813 123.567 130.984L123.551 131.008Z" fill="url(#paint4_linear_9824_14651)"/>
<path d="M79.5108 134.508C82.591 135.528 86.0063 135.863 89.1983 136.366C92.8291 136.94 96.42 137.553 100.107 137.354C103.227 137.187 106.339 136.724 109.419 136.182C111.063 135.895 110.361 133.4 108.733 133.687C105.349 134.277 101.926 134.779 98.4867 134.819C96.42 134.843 94.6086 134.58 92.6455 134.293C90.2755 133.942 87.9055 133.567 85.5515 133.153C83.772 132.842 81.9207 132.587 80.205 132.021C78.617 131.494 77.9387 133.998 79.5187 134.516L79.5108 134.508Z" fill="url(#paint5_linear_9824_14651)"/>
<path d="M67.5012 52.3604C64.1497 55.8444 61.245 59.7429 58.8112 63.9204C56.3774 68.0979 54.2228 72.6422 53.0977 77.3938C51.9725 82.1453 51.9725 87.4071 52.5151 92.3898C53.0578 97.3726 54.1191 102.108 55.9066 106.7C56.4252 108.032 56.9918 109.347 57.6222 110.631C58.2047 111.819 58.9229 112.951 59.4496 114.162C59.8965 115.183 60.1598 116.132 60.7982 117.064C61.3009 117.798 62.0111 118.539 62.3463 119.368C62.6096 120.022 63.2081 120.469 63.9422 120.269C64.5567 120.11 65.1153 119.321 64.8439 118.675C64.2455 117.2 62.9926 116.124 62.3702 114.681C61.9154 113.628 61.5722 112.576 61.0296 111.563C60.487 110.551 59.9044 109.443 59.4017 108.351C57.3988 103.99 56.1061 99.2939 55.3879 94.5504C54.6697 89.8068 54.3824 84.8878 55.1644 80.2C55.9465 75.5123 57.8297 71.0716 60.1039 66.9021C62.6176 62.2861 65.6898 57.9889 69.3366 54.1941C70.4936 52.9903 68.6583 51.1566 67.5012 52.3604Z" fill="url(#paint6_linear_9824_14651)"/>
<path d="M98.1038 78.789C94.074 79.6181 91.297 83.2615 90.9299 87.2477C90.5628 91.2339 92.6935 95.7941 96.3003 97.9068C100.202 100.187 105.142 98.6641 108.414 95.9296C110.185 94.4547 110.887 92.4297 111.151 90.2054C111.414 87.9811 111.47 85.6532 110.496 83.5724C108.294 78.8767 102.549 77.6648 97.9442 79.0441C96.3482 79.5224 97.0265 82.0258 98.6304 81.5394C101.766 80.5987 105.533 80.9654 107.608 83.7797C108.605 85.135 108.781 86.7135 108.701 88.3479C108.621 89.9822 108.525 91.8876 107.448 93.227C106.435 94.4866 104.775 95.3396 103.283 95.8897C101.79 96.4398 100.059 96.7029 98.4788 96.0891C95.5582 94.9649 93.667 91.7202 93.4914 88.6907C93.2919 85.2705 95.3108 81.9939 98.79 81.2763C100.426 80.9415 99.7316 78.4461 98.1038 78.781V78.789Z" fill="url(#paint7_linear_9824_14651)"/>
</g>
<defs>
<linearGradient id="paint0_linear_9824_14651" x1="150.041" y1="61.7439" x2="28.3566" y2="1.53866" gradientUnits="userSpaceOnUse">
<stop stop-color="#660F33"/>
<stop offset="1" stop-color="#CC1E66"/>
</linearGradient>
<linearGradient id="paint1_linear_9824_14651" x1="195.998" y1="75.216" x2="135.989" y2="60.445" gradientUnits="userSpaceOnUse">
<stop stop-color="#660F33"/>
<stop offset="1" stop-color="#CC1E66"/>
</linearGradient>
<linearGradient id="paint2_linear_9824_14651" x1="162.029" y1="166.746" x2="42.5455" y2="94.955" gradientUnits="userSpaceOnUse">
<stop stop-color="#660F33"/>
<stop offset="1" stop-color="#CC1E66"/>
</linearGradient>
<linearGradient id="paint3_linear_9824_14651" x1="59.9892" y1="201.498" x2="-10.7089" y2="184.081" gradientUnits="userSpaceOnUse">
<stop stop-color="#660F33"/>
<stop offset="1" stop-color="#CC1E66"/>
</linearGradient>
<linearGradient id="paint4_linear_9824_14651" x1="141.752" y1="131.165" x2="69.4534" y2="116.002" gradientUnits="userSpaceOnUse">
<stop stop-color="#660F33"/>
<stop offset="1" stop-color="#CC1E66"/>
</linearGradient>
<linearGradient id="paint5_linear_9824_14651" x1="110.356" y1="137.393" x2="97.6574" y2="118.886" gradientUnits="userSpaceOnUse">
<stop stop-color="#660F33"/>
<stop offset="1" stop-color="#CC1E66"/>
</linearGradient>
<linearGradient id="paint6_linear_9824_14651" x1="69.7049" y1="120.317" x2="47.8656" y2="118.916" gradientUnits="userSpaceOnUse">
<stop stop-color="#660F33"/>
<stop offset="1" stop-color="#CC1E66"/>
</linearGradient>
<linearGradient id="paint7_linear_9824_14651" x1="111.316" y1="99.0155" x2="87.2734" y2="93.028" gradientUnits="userSpaceOnUse">
<stop stop-color="#660F33"/>
<stop offset="1" stop-color="#CC1E66"/>
</linearGradient>
<clipPath id="clip0_9824_14651">
<rect width="196" height="201" fill="white" transform="translate(0 0.5)"/>
</clipPath>
</defs>
</svg>
