<svg width="21" height="25" viewBox="0 0 21 25" fill="none" xmlns="http://www.w3.org/2000/svg">
<path d="M5.67877 6.14663C4.3678 8.49992 3.30541 10.9833 2.50877 13.5566C2.01112 14.8587 1.61004 16.1956 1.30878 17.5566C0.974177 18.8285 0.825963 20.1422 0.868775 21.4566C0.989101 22.1239 1.28217 22.7479 1.71878 23.2666C2.0285 23.5722 2.40387 23.8032 2.8163 23.9418C3.22873 24.0804 3.66734 24.1231 4.09877 24.0666C6.48877 24.0666 8.84877 22.8766 11.0988 22.0666C13.7888 21.0666 16.3188 19.7066 18.9988 18.6766C19.8888 18.3366 19.5088 16.8866 18.5988 17.2266C16.0088 18.2266 13.5988 19.5466 10.9688 20.5166C9.73878 20.9766 8.49878 21.3867 7.27878 21.8567C6.57829 22.153 5.84717 22.3709 5.09877 22.5066C4.47035 22.6515 3.8172 22.6515 3.18878 22.5066C2.37878 22.1766 2.34877 21.0166 2.42877 20.3166C2.59053 18.6791 2.92574 17.0633 3.42877 15.4966C4.30216 12.5052 5.49223 9.6155 6.97878 6.87661C7.06557 6.70644 7.08416 6.5096 7.03075 6.32619C6.97733 6.14279 6.85595 5.98664 6.69136 5.88967C6.52677 5.7927 6.33139 5.76223 6.14508 5.8044C5.95877 5.84658 5.79557 5.95821 5.68878 6.1166L5.67877 6.14663Z" fill="#CC1E66"/>
<path d="M5.7488 6.29665C5.55042 7.19947 5.61638 8.1403 5.9388 9.00661C6.2688 9.84661 6.65879 10.6566 7.00879 11.4766C7.62905 13.1058 8.54815 14.6049 9.7188 15.8966C10.9426 17.0284 12.4105 17.8633 14.0088 18.3366C14.8435 18.6563 15.7255 18.8353 16.6188 18.8666C17.0507 18.8814 17.4831 18.8513 17.9088 18.7766C18.1889 18.682 18.4766 18.6117 18.7688 18.5666C19.7688 18.5066 19.7688 17.0066 18.7688 17.0666C18.2088 17.0666 17.7088 17.3366 17.1588 17.3566C16.369 17.396 15.5788 17.2875 14.8288 17.0366C13.3881 16.6502 12.0522 15.9463 10.9188 14.9766C9.91386 13.9294 9.12246 12.6964 8.58879 11.3466C8.25879 10.6166 7.94879 9.87662 7.58879 9.14662C7.18466 8.39781 7.03381 7.53828 7.1588 6.69661C7.3188 5.69661 5.8788 5.34665 5.7188 6.29665H5.7488Z" fill="#CC1E66"/>
<path d="M6.46875 7.10662C7.94027 7.15971 9.3873 7.49939 10.7287 8.10662C11.9932 8.73004 13.1618 9.53154 14.1987 10.4866C15.1699 11.5467 15.9971 12.7302 16.6588 14.0066C17.3882 15.2575 17.9401 16.6037 18.2988 18.0066C18.5288 18.9366 19.9787 18.5466 19.7487 17.6066C19.3397 16.0547 18.7171 14.5671 17.8987 13.1866C17.1522 11.7712 16.2096 10.4684 15.0987 9.31658C13.9542 8.28252 12.6679 7.41712 11.2787 6.74657C9.7552 6.09608 8.12438 5.73329 6.46875 5.67656C5.46875 5.56656 5.46875 7.07656 6.46875 7.17656V7.10662Z" fill="#CC1E66"/>
<path d="M2.53875 13.7066C2.19875 16.1566 3.72876 18.0266 5.35876 19.6466C6.0452 20.4076 6.84453 21.0585 7.72876 21.5766C8.19154 21.7893 8.67378 21.9567 9.16876 22.0766C9.67856 22.2856 10.2391 22.3379 10.7788 22.2267C10.9517 22.1598 11.0938 22.0313 11.1776 21.8659C11.2614 21.7005 11.2809 21.5099 11.2324 21.331C11.184 21.152 11.0709 20.9973 10.9151 20.8968C10.7593 20.7962 10.5718 20.757 10.3888 20.7866C10.0588 20.8666 9.69876 20.6566 9.38876 20.5766C9.00134 20.4928 8.62767 20.3548 8.27876 20.1667C7.5926 19.7232 6.96731 19.1921 6.41876 18.5866C5.25876 17.4366 3.73876 15.9167 3.97876 14.1067C4.02581 13.9159 3.99817 13.7144 3.9015 13.5434C3.80483 13.3723 3.64643 13.2447 3.45875 13.1866C3.26782 13.1343 3.06395 13.1596 2.89161 13.257C2.71927 13.3545 2.59243 13.5161 2.53875 13.7066Z" fill="#CC1E66"/>
<path d="M11.4288 11.9166C13.2888 11.0566 14.1488 8.91661 14.4288 6.91662C14.7314 4.76669 14.3167 2.57693 13.2488 0.686574C12.7788 -0.153426 11.4788 0.606583 11.9588 1.44658C12.8275 2.99644 13.1779 4.78348 12.9588 6.54662C12.7788 8.07662 12.1688 9.87662 10.6788 10.5466C9.79883 10.9566 10.5588 12.2466 11.4288 11.8466V11.9166Z" fill="#CC1E66"/>
<path d="M14.3489 15.1066C14.3933 14.4497 14.6298 13.8203 15.0289 13.2966C15.4234 12.6826 15.8827 12.1126 16.3989 11.5966C17.3354 10.5741 18.6184 9.93613 19.9989 9.80658C20.1978 9.80658 20.3886 9.72757 20.5292 9.58691C20.6699 9.44626 20.7489 9.25549 20.7489 9.05658C20.7489 8.85767 20.6699 8.6669 20.5292 8.52625C20.3886 8.38559 20.1978 8.30658 19.9989 8.30658C18.2219 8.44316 16.56 9.23849 15.3389 10.5366C14.7245 11.1421 14.1779 11.8127 13.7089 12.5366C13.184 13.2792 12.8853 14.1579 12.8489 15.0666C12.8489 15.2655 12.9279 15.4563 13.0686 15.5969C13.2092 15.7376 13.4 15.8166 13.5989 15.8166C13.7978 15.8166 13.9886 15.7376 14.1292 15.5969C14.2699 15.4563 14.3489 15.2655 14.3489 15.0666V15.1066Z" fill="#CC1E66"/>
<path d="M17.1688 7.47662C17.3067 6.79288 17.5075 6.12336 17.7688 5.47662C17.7688 5.38662 17.7688 5.38662 17.7688 5.47662L17.8288 5.35663C17.8493 5.29089 17.8761 5.22726 17.9088 5.16663L18.1488 4.67657C18.3393 4.30023 18.4484 3.88796 18.4688 3.46661C18.4688 3.2677 18.3898 3.07693 18.2491 2.93628C18.1085 2.79563 17.9177 2.71661 17.7188 2.71661C17.5199 2.71661 17.3291 2.79563 17.1885 2.93628C17.0478 3.07693 16.9688 3.2677 16.9688 3.46661C16.9737 3.50981 16.9737 3.55343 16.9688 3.59662C16.9688 3.66662 16.9688 3.74659 16.8988 3.81659V3.90662C16.8988 3.83662 16.8988 3.83662 16.8988 3.90662L16.7888 4.14661C16.6288 4.47661 16.4788 4.80661 16.3388 5.14661C16.0932 5.76793 15.9057 6.41066 15.7788 7.06659C15.7288 7.25875 15.7551 7.46276 15.852 7.63605C15.9488 7.80934 16.1089 7.9385 16.2988 7.99658C16.491 8.04579 16.6948 8.01791 16.8667 7.91888C17.0386 7.81985 17.165 7.65755 17.2188 7.46661L17.1688 7.47662Z" fill="#CC1E66"/>
</svg>
