<svg width="26" height="26" viewBox="0 0 26 26" fill="none" xmlns="http://www.w3.org/2000/svg">
<path d="M8.35889 6.58681C7.04792 8.94011 5.98553 11.4235 5.18889 13.9968C4.69123 15.2989 4.29015 16.6358 3.98889 17.9968C3.65429 19.2686 3.50608 20.5824 3.54889 21.8968C3.66922 22.564 3.96229 23.1881 4.3989 23.7068C4.70861 24.0124 5.08398 24.2433 5.49641 24.382C5.90885 24.5206 6.34746 24.5633 6.77889 24.5068C9.16889 24.5068 11.5289 23.3168 13.7789 22.5068C16.4689 21.5068 18.9989 20.1468 21.6789 19.1168C22.5689 18.7768 22.1889 17.3268 21.2789 17.6668C18.6889 18.6668 16.2789 19.9868 13.6489 20.9568C12.4189 21.4168 11.1789 21.8268 9.95889 22.2968C9.2584 22.5932 8.52728 22.8111 7.77889 22.9468C7.15047 23.0917 6.49732 23.0917 5.8689 22.9468C5.0589 22.6168 5.02889 21.4568 5.10889 20.7568C5.27064 19.1193 5.60585 17.5035 6.10889 15.9368C6.98227 12.9454 8.17234 10.0557 9.65889 7.31679C9.74568 7.14662 9.76427 6.94979 9.71086 6.76638C9.65745 6.58297 9.53606 6.42682 9.37148 6.32986C9.20689 6.23289 9.01151 6.20242 8.8252 6.24459C8.63888 6.28676 8.47568 6.39839 8.3689 6.55678L8.35889 6.58681Z" fill="#CC1E66"/>
<path d="M8.42891 6.73683C8.23053 7.63966 8.2965 8.58048 8.61891 9.44679C8.94891 10.2868 9.3389 11.0968 9.6889 11.9168C10.3092 13.546 11.2283 15.045 12.3989 16.3368C13.6227 17.4686 15.0906 18.3035 16.6889 18.7768C17.5237 19.0965 18.4056 19.2755 19.2989 19.3068C19.7309 19.3216 20.1632 19.2915 20.5889 19.2168C20.869 19.1222 21.1567 19.0519 21.4489 19.0068C22.4489 18.9468 22.4489 17.4468 21.4489 17.5068C20.8889 17.5068 20.3889 17.7768 19.8389 17.7968C19.0491 17.8362 18.2589 17.7276 17.5089 17.4768C16.0683 17.0904 14.7323 16.3865 13.5989 15.4168C12.594 14.3695 11.8026 13.1366 11.2689 11.7868C10.9389 11.0568 10.6289 10.3168 10.2689 9.58681C9.86478 8.838 9.71393 7.97847 9.83891 7.1368C9.99891 6.1368 8.55891 5.78683 8.39891 6.73683H8.42891Z" fill="#CC1E66"/>
<path d="M9.14893 7.54674C10.6204 7.59984 12.0675 7.93952 13.4089 8.54674C14.6734 9.17017 15.8419 9.97166 16.8789 10.9267C17.8501 11.9868 18.6773 13.1703 19.3389 14.4467C20.0684 15.6976 20.6203 17.0438 20.9789 18.4467C21.2089 19.3767 22.6589 18.9867 22.4289 18.0467C22.0199 16.4949 21.3973 15.0073 20.5789 13.6267C19.8324 12.2113 18.8897 10.9085 17.7789 9.7567C16.6343 8.72265 15.348 7.85725 13.9589 7.1867C12.4354 6.53621 10.8046 6.17342 9.14893 6.11669C8.14893 6.00669 8.14893 7.51669 9.14893 7.61669V7.54674Z" fill="#CC1E66"/>
<path d="M5.21893 14.1468C4.87893 16.5968 6.40894 18.4668 8.03894 20.0868C8.72537 20.8477 9.5247 21.4987 10.4089 22.0168C10.8717 22.2294 11.354 22.3968 11.8489 22.5168C12.3587 22.7258 12.9193 22.778 13.4589 22.6668C13.6319 22.6 13.774 22.4715 13.8578 22.3061C13.9416 22.1406 13.9611 21.9501 13.9126 21.7711C13.8642 21.5921 13.7511 21.4374 13.5953 21.3369C13.4395 21.2364 13.252 21.1972 13.0689 21.2268C12.7389 21.3068 12.3789 21.0968 12.0689 21.0168C11.6815 20.9329 11.3078 20.7949 10.9589 20.6068C10.2728 20.1634 9.64748 19.6322 9.09893 19.0268C7.93893 17.8768 6.41893 16.3568 6.65893 14.5468C6.70598 14.356 6.67835 14.1545 6.58168 13.9835C6.48501 13.8125 6.32661 13.6848 6.13893 13.6267C5.94799 13.5744 5.74413 13.5998 5.57179 13.6972C5.39945 13.7946 5.27261 13.9562 5.21893 14.1468Z" fill="#CC1E66"/>
<path d="M14.1089 12.3568C15.9689 11.4968 16.8289 9.35677 17.1089 7.35677C17.4115 5.20684 16.9967 3.01709 15.9289 1.12673C15.4589 0.286729 14.1589 1.04674 14.6389 1.88674C15.5076 3.43659 15.858 5.22363 15.6389 6.98677C15.4589 8.51678 14.8489 10.3168 13.3589 10.9868C12.4789 11.3968 13.2389 12.6868 14.1089 12.2868V12.3568Z" fill="#CC1E66"/>
<path d="M17.0289 15.5468C17.0734 14.8898 17.3098 14.2604 17.7089 13.7368C18.1035 13.1227 18.5628 12.5528 19.0789 12.0367C20.0154 11.0143 21.2985 10.3763 22.6789 10.2467C22.8779 10.2467 23.0686 10.1677 23.2093 10.027C23.3499 9.88639 23.4289 9.69562 23.4289 9.4967C23.4289 9.29779 23.3499 9.10702 23.2093 8.96637C23.0686 8.82572 22.8779 8.7467 22.6789 8.7467C20.902 8.88328 19.2401 9.67861 18.0189 10.9767C17.4045 11.5822 16.858 12.2528 16.3889 12.9767C15.864 13.7194 15.5653 14.598 15.5289 15.5067C15.5289 15.7056 15.608 15.8964 15.7486 16.037C15.8893 16.1777 16.08 16.2567 16.2789 16.2567C16.4778 16.2567 16.6686 16.1777 16.8093 16.037C16.9499 15.8964 17.0289 15.7056 17.0289 15.5067V15.5468Z" fill="#CC1E66"/>
<path d="M19.8489 7.91678C19.9868 7.23304 20.1877 6.56352 20.4489 5.91678C20.4489 5.82678 20.4489 5.82678 20.4489 5.91678L20.5089 5.79678C20.5295 5.73104 20.5562 5.66742 20.5889 5.60678L20.8289 5.11673C21.0194 4.74038 21.1285 4.32811 21.1489 3.90677C21.1489 3.70786 21.0699 3.51709 20.9292 3.37643C20.7886 3.23578 20.5978 3.15677 20.3989 3.15677C20.2 3.15677 20.0092 3.23578 19.8686 3.37643C19.7279 3.51709 19.6489 3.70786 19.6489 3.90677C19.6539 3.94996 19.6539 3.99358 19.6489 4.03677C19.6489 4.10677 19.6489 4.18674 19.5789 4.25674V4.34677C19.5789 4.27677 19.5789 4.27677 19.5789 4.34677L19.4689 4.58676C19.3089 4.91676 19.1589 5.24676 19.0189 5.58676C18.7733 6.20808 18.5858 6.85081 18.4589 7.50674C18.409 7.6989 18.4352 7.90291 18.5321 8.0762C18.629 8.24949 18.7891 8.37866 18.9789 8.43674C19.1711 8.48595 19.3749 8.45807 19.5468 8.35904C19.7187 8.26001 19.8451 8.09771 19.8989 7.90677L19.8489 7.91678Z" fill="#CC1E66"/>
</svg>
