<svg width="128" height="155" xmlns="http://www.w3.org/2000/svg"><g fill="none" fill-rule="evenodd"><path d="M73.656 30.647c1.865-2.297 3.127-5.112 2.916-8.266-.607-9.088-12.665-7.089-15.011-2.502-2.345 4.587-2.067 16.221.965 17.041 1.209.327 3.784-.474 6.405-2.131L67.286 47H77l-3.344-16.353z" fill="#B28B67"/><path d="M66.928 14.538c1.31-.217 4.838-.367 5.488-.367.416 0 .866.096 1.112-.29.202-.316.128-.851.188-1.218.07-.427.17-.848.27-1.268a12.976 12.976 0 011.322-3.398c1.134-2.003 2.795-3.57 4.893-4.483 2.316-1.008 4.937-1.239 7.428-1.034 2.666.218 5.08 1.109 7.596 1.947 2.4.799 4.911 1.113 7.42.723 2.528-.393 4.438-1.78 6.57-3.095 2.182-1.347 4.677-2.229 7.257-2.026 2.409.19 4.629 1.196 6.62 2.54 1.864 1.258 3.401 2.772 4.27 4.902.933 2.291.932 4.806-.603 6.831-2.226 2.936-6.359 3.695-9.796 3.62a18.517 18.517 0 01-5.82-1.08c-2.503-.891-4.667-2.402-7.01-3.627a18.115 18.115 0 00-3.425-1.388c-1.156-.33-2.294-.482-3.341.225-1.107.747-2.099 1.481-3.365 1.95-1.215.448-2.502.7-3.796.69-2.518-.02-5-.815-7.447-1.347-1.994-.433-4.128-.865-6.162-.449-.848.174-2.088.534-2.394 1.426 5.158.946 7.184 7.402 5.73 12.141-.785 2.558-5.503 5.548-7.337 4.204-1.162-.852-.457-1.97 0-2.71.874-1.413 1.173-3.23-.444-4.214-1.396-.849-2.863 1.168-2.891 1.165-.384-.03-3.698-1.927-5.981-4.695-2.253.135-2.595-1.369-2.057-2.598.538-1.23 3.895-2.776 5.705-3.077z" fill="#191847"/><path d="M81 155c-17.673 0-32-13.88-32-31 0-17.12 14.327-31 32-31 17.673 0 32 13.88 32 31 0 17.12-14.327 31-32 31z" fill="#C5CFD6" fill-rule="nonzero"/><path d="M21.032 151c5.295-11.952 9.124-22.36 10.66-27.851 2.633-9.402 4.635-17.675 5.14-20.765 1.207-7.368-9.282-7.797-10.668-4.135-2.099 5.542-5.762 23.75-10.164 51.254L21.032 151zm61.418-37.51c-4.858-1.958-21.87-8.087-30.076-9.821a436.122 436.122 0 00-6.792-1.38c-6.386-1.243-9.695 10.507-3.544 11.41 15.318 2.249 37.034 4.57 38.893 4.831 2.604.365 4.573-3.81 1.52-5.04z" fill="#B28B67"/><path d="M41.824 98.774L68 84.999V82h-3.113c-25.324 6.671-38.265 10.946-38.822 12.825l-.017.061-.037.052c-5.019 7.136-8.024 41.97-9.011 44.579L26.617 141c3.679-14.102 15.449-23.926 15.136-40.816a5.72 5.72 0 00.07-1.41z" fill="#1F28CF"/><path d="M65.269 106.46c2.398-.487 4.607-.92 6.498-1.256C83.976 103.038 87.537 96.426 85.43 82H62.936c-3.675 1.068-22.772 9.17-32.68 13.48-6.559 2.851-4.491 13.133-.778 15.809.02.164.087.275.207.325 19.977 8.377 35.78 3.982 41.06 5.386l2.442-7.793-7.918-2.748z" fill="#2B44FF"/><path d="M80.353 112.004c1.332.128 2.278.33 2.837.606.68.336 1.616.94 2.81 1.814L75.604 136c-2.097-.341-2.928-1.152-2.491-2.432.436-1.28.788-2.348 1.056-3.205l.426-12.204a.423.423 0 01.434-.41h.012l1.851.116c1.054-.864 1.749-1.646 2.085-2.345.274-.568.426-1.465.456-2.689a.847.847 0 01.92-.827zM23.306 148.643c.463 1.3.694 2.274.694 2.92 0 .785-.124 1.93-.373 3.437H.288c-.606-2.11-.256-3.249 1.05-3.417 1.307-.169 2.393-.32 3.257-.456l10.848-5.09a.406.406 0 01.546.221l.005.012.697 1.78c1.21.594 2.193.89 2.949.89.614 0 1.463-.26 2.546-.783.415-.2.906-.008 1.097.429l.023.057z" fill="#E4E4E4"/><path d="M41.87 70.012L26.87 63.25c-2.627-2.688-5.164-4.731-7.611-6.13-.732-.238-1.982-.31-.648 1.69 1.333 2 2.649 4.165 2.116 4.866-.533.7-2.077-.073-2.687 1.067-.406.76 2.196 1.669 7.806 2.727l11.234 8.843 4.789-6.3zm60.637 1.863l-8.482 1.728c8.53 16.322 13.105 24.973 13.724 25.952 1.392 2.204.093 6.242-.387 8.369 3.011.72 1.824-3.934 5.635-2.962 3.478.887 6.427 3.163 9.67.093.399-.377.69-1.557-.669-2.162-3.387-1.507-8.39-4.33-9.202-5.425-1.107-1.495-4.537-10.026-10.289-25.593z" fill="#B28B67"/><path d="M71.963 39.626L68.339 39c-7.892 7.716-11.112 26.254-16.372 28.708-4.973 2.32-12.022.075-20.401-2.956L29 70.53c7.613 8.301 23.832 15.315 30.406 11.31 10.511-6.4 12.938-29.265 12.557-42.215z" fill="#DB2721"/><path d="M87 86H55.14c-1.456 0-1.181-2.126-.97-3.198 2.428-12.38 11.91-25.724 11.91-43.345L75.27 38C82.87 50.361 85.498 65.58 87 86z" fill="#DDE3E9"/><path d="M90.201 73.436C96.624 85.272 102.022 93.793 106.396 99L113 97.679C108.746 70.726 96.428 50.833 76.045 38H72.447C64.29 66.412 62.04 85.343 65.7 94.793h28.36c-.45-6.915-1.888-14.227-3.859-21.357z" fill="#FF4133"/></g></svg>