<svg width="20" height="20" viewBox="0 0 20 20" fill="none" xmlns="http://www.w3.org/2000/svg">
<path d="M7.73121 19C7.73121 19.5523 8.17893 20 8.73121 20H11.2688C11.8211 20 12.2688 19.5523 12.2688 19V12.2688H19C19.5523 12.2688 20 11.8211 20 11.2688V8.73121C20 8.17893 19.5523 7.73121 19 7.73121H12.2688V1C12.2688 0.447715 11.8211 0 11.2688 0H8.73121C8.17893 0 7.73121 0.447715 7.73121 1V7.73121H1C0.447715 7.73121 0 8.17893 0 8.73121V11.2688C0 11.8211 0.447715 12.2688 1 12.2688H7.73121V19Z" fill="#48B2B7"/>
</svg>
