<svg width="36" height="36" viewBox="0 0 36 36" fill="none" xmlns="http://www.w3.org/2000/svg"><path d="M11.25 36H0V24.75H11.25V36ZM9 27H2.25V33.75H9V27Z"/><path d="M6.75 31.5H4.5V29.25H6.75V31.5Z"/><path d="M24.75 36V24.75H36V36H24.75ZM33.75 27H27V33.75H33.75V27Z"/><path d="M31.5 31.5H29.25V29.25H31.5V31.5Z"/><path d="M0 0H11.25V11.25H0V0ZM2.25 9H9V2.25H2.25V9Z"/><path d="M6.75 6.75H4.5V4.5H6.75V6.75Z"/><path d="M22.5 36H18V33.75H22.5V36Z"/><path d="M18 27H20.25V29.25H22.5V31.5H15.75V33.75H13.5V31.5V30.375V29.25H18V27Z"/><path d="M15.75 27H13.5V24.75H15.75V27Z"/><path d="M22.5 24.75H20.25V22.5H13.5V20.25H22.5V24.75Z"/><path d="M2.25 15.75H4.5V18H2.25V22.5H0V13.5H2.25V15.75Z"/><path d="M6.75 22.5H4.5V20.25H6.75V22.5Z"/><path d="M13.5 13.5H18V15.75H15.75V18H11.25V22.5H9V18H6.75V13.5H9V15.75H10.125H11.25H13.5V13.5Z"/><path d="M22.5 18H20.25V13.5H22.5V18Z"/><path d="M20.25 11.25H13.5V9H18V2.25H13.5V0H20.25V2.25H24.75V4.5H20.25V11.25Z"/><path d="M15.75 6.75H13.5V4.5H15.75V6.75Z"/><path d="M24.75 11.25H22.5V6.75H24.75V11.25Z"/><path d="M33.75 6.75H27V0H29.25V4.5H33.75V6.75Z"/><path d="M36 2.25H31.5V0H36V2.25Z"/><path d="M36 11.25H33.75V9H36V11.25Z"/><path d="M27 9H29.25V15.75H24.75V13.5H27V9Z"/><path d="M31.5 20.25H29.25V22.5H27V20.25H24.75V18H33.75V20.25H36V22.5H31.5V20.25Z"/><path d="M36 15.75H31.5V13.5H36V15.75Z"/></svg>
