<svg width="26" height="26" viewBox="0 0 26 26" fill="none" xmlns="http://www.w3.org/2000/svg">
<g clip-path="url(#clip0_8466_4290)">
<path d="M1.84366 5.49507C1.22553 7.57925 1.12257 9.78237 1.54364 11.9151C1.58055 12.0409 1.6494 12.155 1.74344 12.2463C1.83748 12.3376 1.95354 12.4031 2.08035 12.4363C2.20717 12.4695 2.34042 12.4694 2.46716 12.4359C2.5939 12.4024 2.70982 12.3366 2.80365 12.2451C4.17006 10.5801 5.93454 9.28681 7.93366 8.48506C8.02886 8.45945 8.1181 8.41539 8.19626 8.3553C8.27442 8.29521 8.33998 8.22027 8.38919 8.13484C8.43841 8.04941 8.47032 7.95513 8.48309 7.85737C8.49587 7.75961 8.48926 7.66028 8.46365 7.56508C8.43805 7.46987 8.39393 7.38066 8.33383 7.3025C8.27374 7.22434 8.19886 7.15879 8.11343 7.10957C8.028 7.06036 7.9337 7.02841 7.83594 7.01564C7.73818 7.00286 7.63885 7.0095 7.54364 7.03511C5.28889 7.908 3.29063 9.33529 1.73364 11.1851L2.99365 11.5151C2.63883 9.64556 2.73829 7.71817 3.28366 5.89509C3.3183 5.71049 3.2824 5.5196 3.18308 5.36018C3.08375 5.20076 2.92823 5.0844 2.74725 5.03413C2.56628 4.98386 2.37304 5.00335 2.20572 5.0887C2.0384 5.17405 1.9092 5.31905 1.84366 5.49507Z" fill="#FFC834"/>
<path d="M18.8237 19.1851C20.31 18.0196 22.0449 17.212 23.8936 16.8251L23.0436 15.7151C21.969 17.7731 21.4162 20.0635 21.4337 22.3851C21.4337 22.584 21.5127 22.7748 21.6533 22.9154C21.794 23.0561 21.9847 23.1351 22.1837 23.1351C22.3826 23.1351 22.5733 23.0561 22.714 22.9154C22.8546 22.7748 22.9337 22.584 22.9337 22.3851C22.9104 20.3291 23.3947 18.2992 24.3437 16.4751C24.4138 16.3456 24.4448 16.1985 24.433 16.0518C24.4211 15.905 24.3669 15.7649 24.2768 15.6483C24.1868 15.5318 24.0648 15.444 23.9258 15.3955C23.7868 15.347 23.6366 15.3399 23.4937 15.3751C21.3958 15.8338 19.4339 16.7754 17.7636 18.1251C17.6232 18.2657 17.5443 18.4564 17.5443 18.6551C17.5443 18.8539 17.6232 19.0445 17.7636 19.1851C17.9067 19.3208 18.0964 19.3965 18.2936 19.3965C18.4909 19.3965 18.6806 19.3208 18.8237 19.1851Z" fill="#FFC834"/>
<path d="M1.30373 16.6151C1.82373 21.6151 6.49373 25.0051 11.3637 25.0951C13.7684 25.1775 16.1482 24.5851 18.2337 23.3851C20.4561 21.8872 22.2293 19.8132 23.3637 17.3851C23.8037 16.5251 22.5037 15.7651 22.0637 16.6251C21.0861 18.7289 19.5891 20.5495 17.7137 21.9151C15.9776 22.9911 13.9762 23.5623 11.9337 23.5651C7.76374 23.6451 3.26373 21.0651 2.80373 16.5651C2.70373 15.5651 1.20373 15.5651 1.30373 16.5651V16.6151Z" fill="#FFC834"/>
<path d="M24.5936 9.98507C23.9336 7.16723 22.2518 4.69444 19.8736 3.04513C17.3336 1.23513 14.6036 1.04512 11.6136 1.53512C10.02 1.66675 8.48188 2.18202 7.1306 3.03702C5.77932 3.89202 4.65502 5.06133 3.85365 6.4451C3.23525 7.57134 2.73267 8.75739 2.35365 9.98507C2.00365 10.8851 3.45363 11.2751 3.79363 10.3851C4.1353 9.31567 4.57032 8.27837 5.09364 7.28512C5.47688 6.64968 5.92602 6.05638 6.43364 5.5151C7.80888 4.20925 9.55627 3.36353 11.4336 3.09512C14.1036 2.56512 16.5637 2.59513 18.8837 4.16513C21.055 5.61504 22.5898 7.84028 23.1736 10.3851C23.3636 11.3251 24.8136 10.9351 24.6136 9.98507H24.5936Z" fill="#FFC834"/>
</g>
<defs>
<clipPath id="clip0_8466_4290">
<rect width="23.32" height="23.79" fill="white" transform="translate(1.2937 1.30505)"/>
</clipPath>
</defs>
</svg>
