<svg width="26" height="26" viewBox="0 0 26 26" fill="none" xmlns="http://www.w3.org/2000/svg">
<g clip-path="url(#clip0_8632_24056)">
<path d="M2.13052 4.94124C1.5124 7.02541 1.40943 9.22854 1.83051 11.3613C1.86742 11.4871 1.93626 11.6011 2.0303 11.6925C2.12435 11.7838 2.2404 11.8492 2.36722 11.8825C2.49404 11.9157 2.62729 11.9155 2.75403 11.882C2.88077 11.8485 2.99668 11.7828 3.09052 11.6912C4.45693 10.0262 6.2214 8.73298 8.22052 7.93123C8.31573 7.90562 8.40496 7.86156 8.48312 7.80147C8.56129 7.74137 8.62684 7.66644 8.67606 7.58101C8.72527 7.49558 8.75718 7.4013 8.76996 7.30354C8.78274 7.20578 8.77613 7.10645 8.75052 7.01124C8.72491 6.91603 8.68079 6.82683 8.6207 6.74867C8.56061 6.67051 8.48573 6.60495 8.4003 6.55574C8.31487 6.50652 8.22056 6.47458 8.1228 6.4618C8.02504 6.44903 7.92571 6.45567 7.83051 6.48127C5.57575 7.35417 3.57749 8.78146 2.02051 10.6312L3.28052 10.9613C2.92569 9.09173 3.02516 7.16433 3.57053 5.34126C3.60516 5.15665 3.56927 4.96577 3.46994 4.80635C3.37062 4.64693 3.2151 4.53057 3.03412 4.4803C2.85314 4.43003 2.6599 4.44951 2.49259 4.53486C2.32527 4.62021 2.19606 4.76521 2.13052 4.94124Z" fill="#FFC834"/>
<path d="M19.1105 18.6312C20.5969 17.4657 22.3317 16.6582 24.1805 16.2713L23.3305 15.1613C22.2559 17.2193 21.7031 19.5096 21.7205 21.8313C21.7205 22.0302 21.7995 22.2209 21.9402 22.3616C22.0808 22.5022 22.2716 22.5813 22.4705 22.5813C22.6694 22.5813 22.8602 22.5022 23.0009 22.3616C23.1415 22.2209 23.2205 22.0302 23.2205 21.8313C23.1973 19.7753 23.6816 17.7453 24.6305 15.9213C24.7007 15.7918 24.7317 15.6447 24.7198 15.4979C24.708 15.3512 24.6537 15.211 24.5637 15.0945C24.4737 14.978 24.3517 14.8901 24.2127 14.8416C24.0736 14.7931 23.9235 14.786 23.7805 14.8212C21.6827 15.2799 19.7207 16.2216 18.0505 17.5712C17.9101 17.7119 17.8312 17.9025 17.8312 18.1013C17.8312 18.3 17.9101 18.4906 18.0505 18.6312C18.1936 18.767 18.3833 18.8427 18.5805 18.8427C18.7777 18.8427 18.9675 18.767 19.1105 18.6312Z" fill="#FFC834"/>
<path d="M1.59048 16.0612C2.11048 21.0612 6.78047 24.4513 11.6505 24.5413C14.0552 24.6236 16.435 24.0313 18.5205 22.8312C20.7428 21.3333 22.5161 19.2594 23.6505 16.8312C24.0905 15.9712 22.7905 15.2112 22.3505 16.0712C21.3729 18.1751 19.8759 19.9956 18.0005 21.3613C16.2644 22.4372 14.263 23.0085 12.2205 23.0112C8.05048 23.0912 3.55048 20.5112 3.09048 16.0112C2.99048 15.0112 1.49048 15.0112 1.59048 16.0112V16.0612Z" fill="#FFC834"/>
<path d="M24.8805 9.43124C24.2205 6.6134 22.5387 4.14061 20.1605 2.4913C17.6205 0.681301 14.8905 0.491291 11.9005 0.981291C10.3069 1.11292 8.76875 1.62818 7.41747 2.48318C6.06618 3.33818 4.94188 4.5075 4.14052 5.89126C3.52211 7.01751 3.01954 8.20356 2.64052 9.43124C2.29052 10.3312 3.74049 10.7213 4.08049 9.83127C4.42216 8.76184 4.85719 7.72454 5.38051 6.73129C5.76374 6.09585 6.21289 5.50255 6.72051 4.96127C8.09575 3.65541 9.84314 2.8097 11.7205 2.54129C14.3905 2.01129 16.8505 2.0413 19.1705 3.6113C21.3419 5.06121 22.8766 7.28645 23.4605 9.83127C23.6505 10.7713 25.1005 10.3812 24.9005 9.43124H24.8805Z" fill="#FFC834"/>
</g>
<defs>
<clipPath id="clip0_8632_24056">
<rect width="23.32" height="23.79" fill="white" transform="translate(1.58051 0.751221)"/>
</clipPath>
</defs>
</svg>
