<svg width="25" height="25" viewBox="0 0 25 25" fill="none" xmlns="http://www.w3.org/2000/svg"><path d="M5.09796 7.971C5.05391 6.75642 5.09796 5.55063 5.0451 4.33605C5.0451 4.20403 5.0451 4.0808 5.0451 3.94878V3.73756C5.0451 3.58794 5.0451 3.89599 5.0451 3.90479C5.0401 3.88158 5.0401 3.85757 5.0451 3.83436C5.018 3.93426 4.96996 4.02728 4.90416 4.10723C4.8597 4.17083 4.80278 4.22472 4.73682 4.26565C4.82491 4.22164 4.56943 4.32726 4.57824 4.32726H4.65752H4.728C4.86894 4.32726 4.63109 4.32726 4.60467 4.32726C4.87774 4.32726 5.16843 4.32726 5.48554 4.32726H6.42808C7.2561 4.32726 8.09293 4.32726 8.92976 4.32726C9.22107 4.32496 9.49982 4.2083 9.70581 4.00248C9.91181 3.79665 10.0285 3.51817 10.0308 3.22709C10.0241 2.93742 9.90598 2.66146 9.70092 2.45657C9.49587 2.25169 9.21967 2.13364 8.92976 2.12693C8.12816 2.12693 7.31777 2.07412 6.51617 2.12693C5.87362 2.09172 5.22962 2.09172 4.58706 2.12693C4.11572 2.14299 3.66572 2.32721 3.3186 2.6462C3.02622 2.98198 2.87201 3.41597 2.88698 3.86079C2.88698 4.45928 2.88697 5.06657 2.93102 5.66506C2.93102 6.44838 2.93102 7.24049 2.93102 8.02381C2.93774 8.31348 3.05591 8.58945 3.26097 8.79433C3.46602 8.99921 3.74219 9.11726 4.03211 9.12398C4.32342 9.12168 4.60217 9.00504 4.80817 8.79922C5.01416 8.59339 5.13089 8.31488 5.1332 8.02381L5.09796 7.971Z"/><path d="M21.6055 17.0276C21.6055 18.1806 21.6055 19.3335 21.6055 20.4865C21.6055 20.7418 21.6055 20.9882 21.6055 21.2435C21.6055 21.3139 21.6055 21.6219 21.6055 21.3667C21.6193 21.2578 21.6552 21.153 21.7112 21.0586C21.7112 21.0586 21.9138 20.8298 21.8081 20.9266C21.905 20.8386 22.0195 20.733 22.0988 20.7418C22.067 20.7339 22.0337 20.7339 22.0019 20.7418C21.905 20.7418 22.1957 20.689 22.1781 20.7418C22.1605 20.7946 22.0195 20.7418 21.9843 20.7418H21.5615C21.262 20.7418 20.9713 20.7418 20.6806 20.7418C19.7469 20.7418 18.8131 20.7418 17.8794 20.7418C17.5874 20.7418 17.3073 20.8577 17.1008 21.064C16.8943 21.2703 16.7783 21.5502 16.7783 21.8419C16.785 22.1316 16.9032 22.4075 17.1083 22.6124C17.3133 22.8173 17.5895 22.9354 17.8794 22.9421C18.7603 22.9949 19.6412 22.9861 20.522 22.9421C21.213 23.0166 21.91 23.0166 22.6009 22.9421C22.8621 22.8884 23.104 22.7652 23.3009 22.5855C23.4979 22.4058 23.6425 22.1763 23.7196 21.9211C23.7808 21.632 23.8045 21.3362 23.7901 21.041C23.7901 20.4601 23.7901 19.8704 23.7901 19.2807C23.7901 18.559 23.7901 17.8285 23.7901 17.098C23.7833 16.8083 23.6652 16.5324 23.4601 16.3275C23.2551 16.1226 22.9789 16.0045 22.689 15.9978C22.3977 16.0001 22.1189 16.1168 21.9129 16.3226C21.7069 16.5284 21.5902 16.8069 21.5879 17.098L21.6055 17.0276Z"/><path d="M23.8078 7.97101C23.8078 7.35492 23.8078 6.74763 23.8078 6.13154C23.8078 5.51544 23.8078 4.93455 23.8078 4.37127C23.8078 4.05442 23.8078 3.72877 23.8078 3.41193C23.7954 3.11064 23.6882 2.82092 23.5016 2.58393C23.3151 2.34693 23.0585 2.17472 22.7683 2.09172C22.4311 2.01084 22.0828 1.98702 21.7377 2.0213H20.5485C19.6677 2.0213 18.7868 2.0213 17.8443 2.0213C17.5543 2.02801 17.2782 2.14609 17.0731 2.35097C16.8681 2.55586 16.7499 2.83179 16.7432 3.12147C16.7455 3.41254 16.8622 3.69105 17.0682 3.89687C17.2742 4.1027 17.5529 4.21933 17.8443 4.22163C18.778 4.16883 19.7117 4.22163 20.6454 4.22163C21.0859 4.22163 21.5263 4.22163 21.9844 4.22163H22.231C22.4248 4.22163 21.9403 4.14242 22.187 4.22163C22.0559 4.18396 21.9368 4.11313 21.8411 4.016C21.7454 3.91886 21.6764 3.79873 21.6408 3.66717C21.6408 3.45594 21.6408 3.40313 21.6408 3.52635V3.66717C21.6408 4.04563 21.6408 4.41528 21.6937 4.79374C21.7465 5.1722 21.6937 5.53304 21.6937 5.90269C21.6937 6.6068 21.7465 7.3109 21.6937 8.01501C21.6937 8.30679 21.8097 8.58665 22.0162 8.79297C22.2227 8.99929 22.5028 9.11518 22.7948 9.11518C23.0847 9.10846 23.3609 8.99041 23.5659 8.78553C23.771 8.58065 23.8892 8.30468 23.8959 8.01501L23.8078 7.97101Z"/><path d="M2.95752 17.098C2.95752 17.7317 2.95752 18.3654 2.95752 19.0079C2.95752 19.6504 2.95754 20.2137 3.00158 20.821C3.0142 21.1866 3.06737 21.5497 3.16013 21.9036C3.24133 22.1491 3.38448 22.3697 3.57581 22.5439C3.76713 22.7181 4.00015 22.8401 4.2524 22.8981C4.89031 22.973 5.53479 22.973 6.1727 22.8981C7.12404 22.8981 8.0754 22.8981 9.02674 22.8981C9.31877 22.8981 9.59884 22.7822 9.80533 22.5759C10.0118 22.3695 10.1278 22.0897 10.1278 21.7979C10.1278 21.5061 10.0118 21.2263 9.80533 21.02C9.59884 20.8137 9.31877 20.6978 9.02674 20.6978C8.05778 20.7506 7.08881 20.7418 6.11985 20.6978C5.75869 20.6978 5.40634 20.6978 5.04518 20.6978H4.69284H4.86021C4.63118 20.6361 5.07162 20.8298 4.92187 20.6978C5.03608 20.766 5.13026 20.8632 5.19494 20.9794C5.26541 21.173 5.29185 21.2171 5.25661 21.1026C5.25231 21.0587 5.25231 21.0145 5.25661 20.9706C5.25661 20.8474 5.25661 20.865 5.25661 21.0322C5.23831 20.957 5.23831 20.8786 5.25661 20.8034C5.25661 20.6362 5.25659 20.4601 5.21255 20.2841C5.21255 19.9144 5.21255 19.5448 5.21255 19.1839C5.21255 18.4446 5.21255 17.7141 5.21255 16.9748C5.21025 16.6837 5.09352 16.4052 4.88752 16.1994C4.68152 15.9936 4.40278 15.8769 4.11146 15.8746C3.82155 15.8813 3.54538 15.9994 3.34032 16.2043C3.13526 16.4092 3.01709 16.6851 3.01037 16.9748L2.95752 17.098Z"/><path d="M3.9002 13.7447C7.28275 13.5687 10.6653 13.6919 14.0478 13.5599C16.9459 13.4455 19.8088 13.5599 22.7068 13.5599C22.9989 13.5599 23.2789 13.444 23.4854 13.2376C23.6919 13.0313 23.8079 12.7515 23.8079 12.4597C23.8079 12.1679 23.6919 11.8881 23.4854 11.6818C23.2789 11.4754 22.9989 11.3595 22.7068 11.3595C19.8088 11.3595 16.9459 11.2011 14.0478 11.3595C10.6653 11.4916 7.28275 11.3595 3.9002 11.5444C2.4908 11.6148 2.48199 13.8151 3.9002 13.7447Z"/></svg>
