<svg width="23" height="22" viewBox="0 0 23 22" fill="none" xmlns="http://www.w3.org/2000/svg"><path d="M17.8615 15.8302L22.5 20.4676L20.9676 22L16.3302 17.3615C14.6047 18.7448 12.4585 19.4971 10.247 19.4939C4.86664 19.4939 0.5 15.1273 0.5 9.74697C0.5 4.36664 4.86664 0 10.247 0C15.6273 0 19.9939 4.36664 19.9939 9.74697C19.9971 11.9585 19.2448 14.1047 17.8615 15.8302ZM15.689 15.0266C17.0635 13.6131 17.8311 11.7185 17.828 9.74697C17.828 5.55794 14.4349 2.16599 10.247 2.16599C6.05794 2.16599 2.66599 5.55794 2.66599 9.74697C2.66599 13.9349 6.05794 17.328 10.247 17.328C12.2185 17.3311 14.1131 16.5635 15.5266 15.189L15.689 15.0266Z"/></svg>
