<svg width="36" height="36" viewBox="0 0 36 36" fill="none" xmlns="http://www.w3.org/2000/svg"><path fill-rule="evenodd" clip-rule="evenodd" d="M14.8207 32.3584C14.0359 33.1952 13.2508 34.0321 12.4647 34.8682L12.5556 34.868C10.9107 36.6429 8.2098 33.926 9.90026 32.2266C10.879 31.1857 11.8502 30.1374 12.821 29.0895C14.9488 26.7928 17.0745 24.4984 19.2719 22.2894C19.6242 21.9429 20.0975 21.747 20.5916 21.7428C21.0857 21.7387 21.5621 21.9267 21.9202 22.2673C22.7202 23.0309 23.5214 23.8064 24.3273 24.5866C25.6979 25.9132 27.0823 27.2533 28.4988 28.5716C29.5117 20.8071 30.1125 13.0709 30.717 5.28761C30.7412 4.97581 30.7654 4.66393 30.7897 4.35197C27.219 4.60398 23.6545 4.92029 20.0833 5.23719C19.5761 5.2822 19.0688 5.32722 18.5614 5.37206C18.2922 5.3897 18.0206 5.40718 17.7473 5.42478C15.3314 5.58034 12.771 5.7452 10.4064 6.10491C9.00258 6.31847 7.63328 6.56637 6.26398 6.81427C6.24833 6.8171 6.23268 6.81994 6.21703 6.82277C7.29658 7.8854 8.34382 8.97887 9.39172 10.073C10.1926 10.9093 10.9939 11.7459 11.8103 12.5696C12.0083 12.6616 12.189 12.7875 12.3443 12.942C12.5316 13.1283 12.6777 13.352 12.7729 13.5985C12.8681 13.845 12.9104 14.1088 12.897 14.3727C12.8836 14.6366 12.8149 14.8947 12.6952 15.1303C12.5755 15.3659 12.4076 15.5736 12.2023 15.74C9.20452 19.037 6.13088 22.2685 2.98139 25.4347C2.62039 25.7274 2.16387 25.8763 1.69968 25.8528C1.23549 25.8292 0.796412 25.6349 0.466891 25.3071C0.137371 24.9793 -0.0592956 24.5413 -0.0852944 24.0772C-0.11129 23.6132 0.0352144 23.1559 0.326061 22.7933C3.06907 20.0534 5.74727 17.2565 8.36071 14.4029C7.8199 13.8481 7.28337 13.2898 6.74701 12.7317C4.84338 10.7509 2.94195 8.77243 0.859449 6.96244C0.629584 6.72971 0.46426 6.44109 0.379828 6.12507C0.295395 5.80904 0.294752 5.47648 0.377916 5.16012C0.461082 4.84376 0.625154 4.55446 0.854084 4.32081C1.08302 4.08715 1.3689 3.91723 1.6835 3.82763C2.4797 3.71433 3.27489 3.60002 4.07007 3.48571C8.57792 2.83768 13.0858 2.18966 17.78 1.72702C20.271 1.55732 22.7219 1.34047 25.163 1.12448C27.7041 0.899649 30.2347 0.675747 32.7891 0.506919C33.0361 0.504327 33.2811 0.550936 33.5099 0.64395C33.7387 0.736964 33.9467 0.874617 34.1218 1.0488C34.2969 1.22298 34.4356 1.4302 34.5298 1.6585C34.624 1.8868 34.6719 2.1316 34.6707 2.37858C34.4293 4.9541 34.2048 7.5425 33.9797 10.1385C33.3263 17.6734 32.6673 25.2721 31.5729 32.805C31.3498 34.3038 29.3377 34.5361 28.4425 33.6456C25.7342 31.3622 23.1346 28.8379 20.5514 26.2774C18.6356 28.2914 16.7288 30.3242 14.8207 32.3584Z"/></svg>