<svg width="26" height="28" viewBox="0 0 26 28" fill="none" xmlns="http://www.w3.org/2000/svg">
<path d="M15.4934 20.6974L9.89469 17.6441C9.16375 18.4255 8.21467 18.969 7.17078 19.204C6.1269 19.4389 5.03649 19.3544 4.04125 18.9615C3.04601 18.5686 2.19197 17.8854 1.59011 17.0007C0.988254 16.116 0.666412 15.0708 0.666412 14.0008C0.666412 12.9308 0.988254 11.8855 1.59011 11.0008C2.19197 10.1162 3.04601 9.43298 4.04125 9.04006C5.03649 8.64713 6.1269 8.56265 7.17078 8.79759C8.21467 9.03253 9.16375 9.57602 9.89469 10.3574L15.4947 7.30411C15.1768 6.04554 15.3288 4.71423 15.9222 3.55971C16.5156 2.4052 17.5098 1.50675 18.7182 1.03278C19.9267 0.558804 21.2666 0.541848 22.4867 0.985088C23.7068 1.42833 24.7233 2.30133 25.3458 3.44046C25.9682 4.57958 26.1539 5.90663 25.8679 7.17284C25.5819 8.43905 24.844 9.55749 23.7923 10.3185C22.7407 11.0796 21.4476 11.4309 20.1555 11.3068C18.8633 11.1826 17.6608 10.5915 16.7734 9.64411L11.1734 12.6974C11.3883 13.5526 11.3883 14.4476 11.1734 15.3028L16.772 18.3561C17.6595 17.4088 18.862 16.8176 20.1542 16.6934C21.4463 16.5693 22.7394 16.9207 23.791 17.6817C24.8426 18.4427 25.5806 19.5612 25.8666 20.8274C26.1525 22.0936 25.9669 23.4206 25.3444 24.5598C24.722 25.6989 23.7054 26.5719 22.4853 27.0151C21.2652 27.4584 19.9254 27.4414 18.7169 26.9674C17.5084 26.4935 16.5143 25.595 15.9209 24.4405C15.3274 23.286 15.1754 21.9547 15.4934 20.6961V20.6974ZM6.00002 16.6668C6.70726 16.6668 7.38554 16.3858 7.88564 15.8857C8.38574 15.3856 8.66669 14.7074 8.66669 14.0001C8.66669 13.2929 8.38574 12.6146 7.88564 12.1145C7.38554 11.6144 6.70726 11.3334 6.00002 11.3334C5.29278 11.3334 4.6145 11.6144 4.1144 12.1145C3.61431 12.6146 3.33335 13.2929 3.33335 14.0001C3.33335 14.7074 3.61431 15.3856 4.1144 15.8857C4.6145 16.3858 5.29278 16.6668 6.00002 16.6668ZM20.6667 8.66677C21.3739 8.66677 22.0522 8.38582 22.5523 7.88573C23.0524 7.38563 23.3334 6.70735 23.3334 6.00011C23.3334 5.29286 23.0524 4.61459 22.5523 4.11449C22.0522 3.61439 21.3739 3.33344 20.6667 3.33344C19.9594 3.33344 19.2812 3.61439 18.7811 4.11449C18.281 4.61459 18 5.29286 18 6.00011C18 6.70735 18.281 7.38563 18.7811 7.88573C19.2812 8.38582 19.9594 8.66677 20.6667 8.66677ZM20.6667 24.6668C21.3739 24.6668 22.0522 24.3858 22.5523 23.8857C23.0524 23.3856 23.3334 22.7074 23.3334 22.0001C23.3334 21.2929 23.0524 20.6146 22.5523 20.1145C22.0522 19.6144 21.3739 19.3334 20.6667 19.3334C19.9594 19.3334 19.2812 19.6144 18.7811 20.1145C18.281 20.6146 18 21.2929 18 22.0001C18 22.7074 18.281 23.3856 18.7811 23.8857C19.2812 24.3858 19.9594 24.6668 20.6667 24.6668Z" fill="black"/>
</svg>
