<svg width="25" height="25" viewBox="0 0 25 25" fill="none" xmlns="http://www.w3.org/2000/svg"><path d="M1.90424 15.9043C2.22622 16.2453 2.601 16.5323 3.01422 16.7543C3.44166 16.9985 3.89877 17.1867 4.37424 17.3143C5.09245 17.4663 5.83719 17.4375 6.5415 17.2303C7.24582 17.0232 7.88763 16.6443 8.40921 16.1277C8.93079 15.6111 9.3158 14.9729 9.52963 14.2706C9.74346 13.5683 9.77942 12.8239 9.63425 12.1042C9.46235 11.2496 9.03935 10.4658 8.4194 9.85296C7.79946 9.24014 7.01076 8.82627 6.15424 8.66427C5.22907 8.46301 4.26229 8.60518 3.43423 9.06426C2.96388 9.34648 2.52767 9.68203 2.13425 10.0643C1.37133 10.8264 0.909609 11.8386 0.834229 12.9143C0.851876 13.888 1.15815 14.8347 1.71423 15.6342C1.79697 15.7761 1.90683 15.9002 2.03754 15.9996C2.16825 16.099 2.31726 16.1716 2.47604 16.2134C2.63483 16.2552 2.80029 16.2653 2.96298 16.2431C3.12567 16.221 3.2824 16.167 3.42422 16.0842C3.56605 16.0015 3.69021 15.8917 3.78958 15.7609C3.88895 15.6302 3.9616 15.4812 4.00339 15.3224C4.04517 15.1637 4.05527 14.9982 4.03311 14.8355C4.01095 14.6728 3.95697 14.5161 3.87424 14.3743C3.78829 14.2534 3.7114 14.1264 3.64423 13.9943C3.61358 13.943 3.58685 13.8895 3.56424 13.8342C3.42424 13.5542 3.56424 14.0043 3.56424 13.8342C3.56424 13.6642 3.25422 13.0343 3.32422 12.9943C3.39422 12.9543 3.32422 13.3143 3.32422 12.9943C3.32422 12.6743 3.32422 12.9943 3.32422 12.9943C3.37727 12.866 3.41423 12.7316 3.43423 12.5943C3.43423 12.5343 3.48424 12.4642 3.50424 12.3942C3.52424 12.3242 3.60424 12.2142 3.50424 12.3942C3.59424 12.2242 3.70422 12.0542 3.79422 11.8842C3.88422 11.7142 3.60422 12.0642 3.79422 11.8842L3.91425 11.7543L4.21423 11.4743L4.38425 11.3342C4.47425 11.2543 4.05423 11.5743 4.30423 11.4043C4.47136 11.2817 4.64494 11.1682 4.82422 11.0643C4.93422 11.0143 4.91422 11.0143 4.76422 11.0643C4.82585 11.0417 4.88947 11.0249 4.95422 11.0142C5.00422 11.0142 5.25424 11.0142 5.06424 11.0142C4.87424 11.0142 5.16422 11.0142 5.20422 11.0142C5.34072 11.024 5.47773 11.024 5.61423 11.0142C5.38423 11.0142 5.44423 11.0142 5.61423 11.0142L5.83423 11.0742L6.00424 11.1243C6.21424 11.1943 6.00422 11.1243 5.95422 11.1243C6.11094 11.1843 6.25893 11.265 6.39423 11.3642C6.46 11.3948 6.5207 11.4353 6.57422 11.4842C6.42422 11.3042 6.47422 11.4042 6.57422 11.4842C6.67422 11.5642 6.78423 11.6943 6.89423 11.8043C7.00423 11.9143 6.89423 11.8043 6.89423 11.8043L6.99423 11.9542C7.03479 12.0221 7.07153 12.0923 7.10425 12.1643C7.25425 12.4443 7.10425 12.0043 7.10425 12.2443C7.10425 12.4843 7.18422 12.4743 7.20422 12.5943C7.22422 12.7143 7.28422 12.9042 7.20422 12.7042C7.12422 12.5042 7.20422 12.7843 7.20422 12.8143C7.21424 12.9507 7.21424 13.0878 7.20422 13.2243V13.2743C7.20422 13.4143 7.20422 13.3943 7.20422 13.2143C7.19966 13.307 7.17937 13.3983 7.14423 13.4842C7.1243 13.6087 7.0873 13.7299 7.03424 13.8443C7.19424 13.6343 7.03424 13.7443 7.03424 13.8443L6.91425 14.0442C6.89056 14.103 6.8567 14.1572 6.81424 14.2042L6.89423 14.1042L6.80423 14.2042C6.7041 14.346 6.57867 14.4681 6.43423 14.5643C6.43423 14.5643 6.66423 14.4143 6.43423 14.5643C6.20423 14.7143 6.27424 14.6743 6.19424 14.7143C6.11424 14.7543 5.91424 14.8643 6.09424 14.7743C6.27424 14.6843 5.93423 14.8343 5.89423 14.8443L5.62424 14.9242C5.56424 14.9242 5.24423 14.9842 5.52423 14.9242C5.34454 14.9392 5.16391 14.9392 4.98422 14.9242C5.24422 14.9242 4.98423 14.9242 4.93423 14.9242L4.63425 14.8242L4.39423 14.7243C4.59423 14.8143 4.39422 14.7243 4.32422 14.7243C4.17869 14.6506 4.03838 14.5671 3.90424 14.4743C3.64424 14.3243 4.01424 14.5943 3.90424 14.4743L3.65424 14.2243C3.4172 13.994 3.09972 13.8651 2.76923 13.8651C2.43873 13.8651 2.12128 13.994 1.88425 14.2243C1.66073 14.4648 1.53647 14.7809 1.53647 15.1092C1.53647 15.4376 1.66073 15.7538 1.88425 15.9943L1.90424 15.9043Z"/><path d="M16.6142 7.72426C16.9335 8.06833 17.3088 8.35571 17.7242 8.57423C18.1517 8.81845 18.6087 9.00666 19.0842 9.13423C19.8024 9.28628 20.5472 9.25745 21.2515 9.05034C21.9558 8.84323 22.5976 8.46434 23.1192 7.94771C23.6408 7.43108 24.0258 6.79293 24.2396 6.09062C24.4534 5.38832 24.4894 4.64388 24.3442 3.92424C24.1711 3.07021 23.7477 2.28703 23.1279 1.67442C22.5082 1.06182 21.7202 0.647497 20.8642 0.484238C19.9391 0.282054 18.972 0.42427 18.1442 0.884232C17.676 1.16963 17.2401 1.50492 16.8442 1.88423C16.0813 2.64633 15.6196 3.65853 15.5442 4.73424C15.557 5.70883 15.8637 6.65686 16.4242 7.45424C16.4993 7.60962 16.6057 7.74778 16.7368 7.86C16.8679 7.97222 17.0208 8.05609 17.1859 8.10631C17.351 8.15653 17.5247 8.17202 17.6961 8.15181C17.8675 8.1316 18.0328 8.07613 18.1817 7.98888C18.3306 7.90162 18.4598 7.78446 18.5612 7.64482C18.6626 7.50518 18.734 7.34606 18.7708 7.17748C18.8077 7.00889 18.8093 6.83449 18.7754 6.66527C18.7416 6.49605 18.6731 6.3357 18.5742 6.19426C18.4942 6.07426 18.4242 5.94426 18.3542 5.81426L18.2642 5.65425C18.1342 5.37425 18.3242 5.82425 18.2642 5.65425C18.2042 5.48425 17.9542 4.85426 18.0242 4.81426C18.0942 4.77426 18.0242 5.13424 18.0242 4.86424C18.0242 4.59424 18.0242 4.86424 18.0242 4.86424C18.076 4.73209 18.1129 4.59457 18.1342 4.45424C18.1531 4.38936 18.1765 4.32587 18.2042 4.26424C18.2042 4.19424 18.3042 4.07424 18.2042 4.26424C18.2942 4.09424 18.4042 3.92426 18.4942 3.75426C18.5842 3.58426 18.3042 3.93426 18.4942 3.75426C18.54 3.71347 18.5834 3.67006 18.6242 3.62425L18.9242 3.34425L19.0942 3.20424C19.1742 3.12424 18.7542 3.44425 19.0042 3.27425C19.2542 3.10425 19.3542 3.03425 19.5342 2.93425C19.6409 2.87425 19.6209 2.87425 19.4742 2.93425C19.4742 2.93425 19.6342 2.93423 19.6642 2.88423C19.6942 2.83423 19.9642 2.88423 19.7642 2.88423H19.9142C20.0507 2.89418 20.1877 2.89418 20.3242 2.88423C20.0942 2.88423 20.1542 2.88423 20.3242 2.88423L20.5442 2.94426L20.7242 2.99425C20.9342 3.06425 20.7242 2.99425 20.6742 2.99425C20.8314 3.04884 20.9797 3.12635 21.1142 3.22426C21.18 3.25483 21.2407 3.29529 21.2942 3.34425C21.1442 3.16425 21.1942 3.26425 21.2942 3.34425C21.3942 3.42425 21.5042 3.55426 21.6042 3.66426C21.7042 3.77426 21.6042 3.66426 21.6042 3.66426L21.7042 3.82423C21.7042 3.88423 21.7742 3.95425 21.8142 4.02425C21.9642 4.30425 21.8142 3.86423 21.8142 4.10423C21.8142 4.34423 21.8842 4.33424 21.9142 4.45424C21.9442 4.57424 21.9942 4.77426 21.9142 4.56426C21.8342 4.35426 21.9142 4.64424 21.9142 4.67424C21.9242 4.81406 21.9242 4.95443 21.9142 5.09425C21.9142 5.23425 21.9142 5.21426 21.9142 5.03426C21.9142 5.10426 21.9142 5.24426 21.8642 5.31426C21.8439 5.43677 21.8033 5.55505 21.7442 5.66426C21.9042 5.45426 21.7442 5.56426 21.7442 5.66426L21.6242 5.87425C21.598 5.92866 21.5643 5.97913 21.5242 6.02425L21.6042 5.92424L21.5142 6.03426C21.4111 6.17065 21.2861 6.28891 21.1442 6.38423L20.9042 6.52425L20.8042 6.58424C20.9642 6.50424 20.6442 6.64425 20.6042 6.65425L20.3342 6.73424C20.2742 6.73424 19.9442 6.79424 20.2342 6.73424C20.0512 6.74931 19.8672 6.74931 19.6842 6.73424C19.9542 6.73424 19.6842 6.73424 19.6842 6.73424C19.5781 6.71003 19.4744 6.67657 19.3742 6.63423L19.1442 6.53426C19.3442 6.62426 19.1442 6.53426 19.0642 6.53426C18.9842 6.53426 18.7942 6.37424 18.6542 6.29424C18.5142 6.21424 18.7642 6.40424 18.6542 6.29424L18.4042 6.05425C18.2912 5.92717 18.1535 5.82446 17.9995 5.75243C17.8455 5.6804 17.6784 5.64056 17.5084 5.63533C17.3385 5.6301 17.1692 5.65958 17.0111 5.722C16.8529 5.78442 16.7092 5.87845 16.5886 5.99834C16.468 6.11823 16.3732 6.26146 16.3099 6.41927C16.2466 6.57707 16.2161 6.74614 16.2204 6.91612C16.2246 7.0861 16.2635 7.25343 16.3347 7.40785C16.4058 7.56228 16.5078 7.70057 16.6342 7.81426L16.6142 7.72426Z"/><path d="M16.6142 22.5442C16.9362 22.8853 17.311 23.1723 17.7242 23.3942C18.154 23.6312 18.6105 23.8158 19.0842 23.9442C20.1361 24.1657 21.2325 24.0025 22.1742 23.4842C22.9622 23.0415 23.5956 22.3678 23.9889 21.5539C24.3822 20.7401 24.5165 19.8252 24.3737 18.9327C24.231 18.0401 23.818 17.2128 23.1905 16.5622C22.5629 15.9116 21.751 15.4691 20.8642 15.2942C19.9378 15.096 18.971 15.2417 18.1442 15.7042C17.6717 15.9832 17.2351 16.3191 16.8442 16.7042C16.079 17.4647 15.6169 18.4778 15.5442 19.5542C15.5552 20.526 15.8622 21.4714 16.4242 22.2642C16.4993 22.4196 16.6057 22.5578 16.7368 22.67C16.8679 22.7822 17.0208 22.8661 17.1859 22.9163C17.351 22.9665 17.5247 22.982 17.6961 22.9618C17.8675 22.9416 18.0328 22.8861 18.1817 22.7989C18.3306 22.7116 18.4598 22.5945 18.5612 22.4548C18.6626 22.3152 18.734 22.156 18.7708 21.9875C18.8077 21.8189 18.8093 21.6445 18.7754 21.4753C18.7416 21.306 18.6731 21.1457 18.5742 21.0042C18.4942 20.8842 18.4242 20.7642 18.3542 20.6342L18.2642 20.4642C18.1342 20.1942 18.3242 20.6442 18.2642 20.4642C18.2042 20.2842 17.9542 19.6642 18.0242 19.6242C18.0942 19.5842 18.0242 19.9442 18.0242 19.6742C18.0242 19.4042 18.0242 19.6742 18.0242 19.6742C18.0773 19.546 18.1142 19.4116 18.1342 19.2742C18.1531 19.2061 18.1764 19.1393 18.2042 19.0742C18.2042 19.0142 18.3042 18.8842 18.2042 19.0742C18.2942 18.9042 18.4042 18.7342 18.4942 18.5642C18.5842 18.3942 18.3042 18.7542 18.4942 18.5642C18.5424 18.5261 18.586 18.4824 18.6242 18.4342L18.9242 18.1642L19.0942 18.0242C19.1742 17.9442 18.7542 18.2642 19.0042 18.0842L19.5342 17.7442C19.6442 17.6842 19.6242 17.6942 19.4742 17.7442C19.535 17.7169 19.5987 17.6967 19.6642 17.6842C19.6642 17.6842 19.9642 17.6842 19.7642 17.6842H19.9142C20.0507 17.6942 20.1877 17.6942 20.3242 17.6842C20.0942 17.6842 20.1542 17.6842 20.3242 17.6842L20.5442 17.7342L20.7242 17.7942C20.9342 17.8542 20.7242 17.7942 20.6742 17.7942C20.8296 17.8529 20.9773 17.9301 21.1142 18.0242C21.1781 18.0618 21.2384 18.1053 21.2942 18.1542C21.1442 17.9642 21.1942 18.0642 21.2942 18.1542L21.6042 18.4742C21.7442 18.6242 21.6042 18.4742 21.6042 18.4742L21.7042 18.6342C21.7042 18.6942 21.7742 18.7642 21.8142 18.8342C21.9642 19.1242 21.8142 18.6742 21.8142 18.9142C21.8142 19.1542 21.8842 19.1542 21.9142 19.2742C21.9442 19.3942 21.9942 19.5842 21.9142 19.3742C21.8342 19.1642 21.9142 19.4542 21.9142 19.4842C21.9242 19.624 21.9242 19.7644 21.9142 19.9042V19.9542C21.9142 20.0942 21.9142 20.0742 21.9142 19.8942C21.9142 19.9542 21.9142 20.1042 21.8642 20.1642C21.8439 20.2868 21.8033 20.405 21.7442 20.5142C21.9042 20.3142 21.7442 20.4242 21.7442 20.5142L21.6242 20.7142C21.5982 20.7718 21.5646 20.8257 21.5242 20.8742L21.6042 20.7642L21.5142 20.8742C21.4114 21.0137 21.2864 21.1353 21.1442 21.2342C21.1442 21.2342 21.3742 21.0742 21.1442 21.2342L20.9042 21.3842C20.9042 21.3842 20.6242 21.5342 20.8042 21.4442C20.9842 21.3542 20.6442 21.4942 20.6042 21.5142L20.3342 21.5842C20.2742 21.5842 19.9442 21.6542 20.2342 21.5842C20.0512 21.5992 19.8672 21.5992 19.6842 21.5842C19.9542 21.5842 19.6842 21.5842 19.6842 21.5842L19.3742 21.4742L19.1442 21.3842C19.3442 21.4642 19.1442 21.3842 19.0642 21.3842L18.6542 21.1342C18.3842 20.9742 18.7642 21.2442 18.6542 21.1342L18.4042 20.8842C18.1684 20.6515 17.8505 20.5211 17.5192 20.5211C17.1879 20.5211 16.87 20.6515 16.6342 20.8842C16.4062 21.1225 16.279 21.4395 16.279 21.7692C16.279 22.099 16.4062 22.416 16.6342 22.6542L16.6142 22.5442Z"/><path d="M8.81418 12.2742C10.347 11.612 11.8366 10.8538 13.2742 10.0043C14.0542 9.57425 14.8442 9.13424 15.6342 8.71424C15.9642 8.53424 16.3042 8.36425 16.6342 8.19425L17.1242 7.96424L17.3542 7.86424C17.2042 7.93424 17.1642 7.94424 17.3542 7.86424C17.6667 7.76467 17.9301 7.55061 18.0915 7.26499C18.2528 6.97938 18.3002 6.64333 18.2242 6.32423C18.1332 6.00602 17.9206 5.73641 17.6325 5.57362C17.3443 5.41083 17.0037 5.36793 16.6842 5.45423C15.1447 6.12827 13.6514 6.9033 12.2142 7.77424C11.4242 8.20424 10.6442 8.64425 9.85419 9.06425C9.52419 9.24425 9.18419 9.41424 8.85419 9.58424L8.36417 9.81425L8.13419 9.91426C8.27419 9.84425 8.32419 9.83426 8.13419 9.91426C7.82163 10.0138 7.55827 10.2279 7.39691 10.5135C7.23556 10.7991 7.18813 11.1351 7.26416 11.4542C7.35515 11.7724 7.56771 12.0421 7.85587 12.2049C8.14403 12.3677 8.48466 12.4105 8.80417 12.3242L8.81418 12.2742Z"/><path d="M17.0642 17.8643C14.3976 16.5309 11.7909 15.0843 9.24423 13.5243C9.10279 13.4254 8.94241 13.3569 8.77319 13.323C8.60397 13.2892 8.4296 13.2908 8.26102 13.3276C8.09243 13.3645 7.93328 13.4359 7.79364 13.5373C7.654 13.6387 7.53687 13.7679 7.44961 13.9168C7.36236 14.0656 7.30689 14.231 7.28668 14.4023C7.26647 14.5737 7.28196 14.7474 7.33218 14.9125C7.3824 15.0776 7.46627 15.2305 7.57849 15.3616C7.69071 15.4927 7.82884 15.5992 7.98422 15.6743C10.5342 17.2043 13.1542 18.6743 15.8042 20.0143C16.0912 20.1745 16.4289 20.2182 16.7473 20.1363C17.0656 20.0544 17.3402 19.8531 17.5142 19.5743C17.6787 19.2872 17.7237 18.947 17.6396 18.6271C17.5554 18.3071 17.3487 18.0331 17.0642 17.8643Z"/></svg>
