<svg width="21" height="20" viewBox="0 0 21 20" fill="none" xmlns="http://www.w3.org/2000/svg"><path d="M10.5 20C4.977 20 0.5 15.523 0.5 10C0.5 4.477 4.977 0 10.5 0C16.023 0 20.5 4.477 20.5 10C20.5 15.523 16.023 20 10.5 20ZM7.39 11.17L7.403 11.163L8.273 14.033C8.385 14.344 8.539 14.4 8.726 14.374C8.914 14.349 9.013 14.248 9.136 14.13L10.324 12.982L12.874 14.87C13.34 15.127 13.675 14.994 13.791 14.438L15.448 6.616C15.631 5.888 15.311 5.596 14.746 5.828L5.013 9.588C4.349 9.854 4.353 10.226 4.893 10.391L7.39 11.171V11.17Z"/></svg>
