<svg width="178" height="172" viewBox="0 0 178 172" fill="none" xmlns="http://www.w3.org/2000/svg">
<path d="M105 53C102.727 53 100.791 53.9217 99.549 55.3254C98.3067 56.7291 97.7273 58.529 97.7273 60.3043C97.7273 60.8163 97.7887 61.3284 97.8871 61.8344L77.8303 71.9064C77.791 71.8596 77.7644 71.8061 77.7237 71.7602C76.4814 70.3565 74.5455 69.4348 72.2727 69.4348C70 69.4348 68.064 70.3565 66.8217 71.7602C65.5794 73.1639 65 74.9638 65 76.7391C65 78.5145 65.5794 80.3144 66.8217 81.7181C68.064 83.1218 70 84.0435 72.2727 84.0435C74.4901 84.0435 76.3759 83.1572 77.6207 81.8108L97.397 92.8458C97.5814 92.9541 97.7834 93.029 97.9936 93.0669C97.8342 93.7029 97.7273 94.35 97.7273 95C97.7273 96.7754 98.3067 98.5753 99.549 99.9789C100.435 100.98 101.753 101.589 103.214 101.941C103.191 102.06 103.18 102.182 103.182 102.304V122.762C101.734 123.117 100.428 123.723 99.549 124.717C99.5084 124.763 99.4817 124.816 99.4425 124.863L79.3857 114.791C79.484 114.285 79.5455 113.773 79.5455 113.261C79.5455 111.486 78.966 109.686 77.7237 108.282C76.4814 106.878 74.5455 105.957 72.2727 105.957C70 105.957 68.064 106.878 66.8217 108.282C65.5794 109.686 65 111.486 65 113.261C65 115.036 65.5794 116.836 66.8217 118.24C68.064 119.643 70 120.565 72.2727 120.565C74.5455 120.565 76.4814 119.643 77.7237 118.24C77.765 118.193 77.7904 118.138 77.8303 118.09L97.8871 128.166C97.7887 128.672 97.7273 129.184 97.7273 129.696C97.7273 131.471 98.3067 133.271 99.549 134.675C100.791 136.078 102.727 137 105 137C107.273 137 109.209 136.078 110.451 134.675C111.693 133.271 112.273 131.471 112.273 129.696C112.273 129.184 112.211 128.672 112.113 128.166L132.17 118.094C132.209 118.14 132.236 118.194 132.276 118.24C133.519 119.643 135.455 120.565 137.727 120.565C140 120.565 141.936 119.643 143.178 118.24C144.421 116.836 145 115.036 145 113.261C145 111.486 144.421 109.686 143.178 108.282C141.936 106.878 140 105.957 137.727 105.957C135.455 105.957 133.519 106.878 132.276 108.282C131.034 109.686 130.455 111.486 130.455 113.261C130.455 113.773 130.516 114.285 130.614 114.791L110.558 124.863C110.518 124.816 110.492 124.763 110.451 124.717C109.572 123.723 108.266 123.117 106.818 122.762V102.304C106.82 102.182 106.809 102.06 106.786 101.941C108.247 101.589 109.565 100.98 110.451 99.9789C111.693 98.5753 112.273 96.7754 112.273 95C112.273 94.3646 112.169 93.7321 112.017 93.1097C112.178 93.0669 112.332 93.0021 112.475 92.9171L132.379 81.8144C133.624 83.1598 135.511 84.0435 137.727 84.0435C140 84.0435 141.936 83.1218 143.178 81.7181C144.421 80.3144 145 78.5145 145 76.7391C145 74.9638 144.421 73.1639 143.178 71.7602C141.936 70.3565 140 69.4348 137.727 69.4348C135.455 69.4348 133.519 70.3565 132.276 71.7602C131.034 73.1639 130.455 74.9638 130.455 76.7391C130.455 77.3562 130.553 77.9706 130.696 78.5759L110.71 89.725C110.591 89.7884 110.479 89.865 110.376 89.9533C109.132 88.5913 107.233 87.6956 105 87.6956C102.755 87.6956 100.846 88.6003 99.6023 89.9747C99.4724 89.8461 99.3239 89.7379 99.1619 89.6537L79.304 78.5759C79.4475 77.9706 79.5455 77.3562 79.5455 76.7391C79.5455 76.2271 79.484 75.715 79.3857 75.2091L99.4425 65.1371C99.4817 65.1838 99.5084 65.2373 99.549 65.2833C100.791 66.687 102.727 67.6087 105 67.6087C107.273 67.6087 109.209 66.687 110.451 65.2833C111.693 63.8796 112.273 62.0797 112.273 60.3043C112.273 58.529 111.693 56.7291 110.451 55.3254C109.209 53.9217 107.273 53 105 53ZM105 56.6522C106.364 56.6522 107.155 57.1 107.731 57.7507C108.307 58.4013 108.636 59.3406 108.636 60.3043C108.636 61.2681 108.307 62.2073 107.731 62.858C107.155 63.5087 106.364 63.9565 105 63.9565C103.636 63.9565 102.845 63.5087 102.269 62.858C101.693 62.2073 101.364 61.2681 101.364 60.3043C101.364 59.3406 101.693 58.4013 102.269 57.7507C102.845 57.1 103.636 56.6522 105 56.6522ZM72.2727 73.087C73.6364 73.087 74.4277 73.5348 75.0036 74.1855C75.5794 74.8361 75.9091 75.7754 75.9091 76.7391C75.9091 77.7029 75.5794 78.6421 75.0036 79.2928C74.4277 79.9435 73.6364 80.3913 72.2727 80.3913C70.9091 80.3913 70.1178 79.9435 69.5419 79.2928C68.966 78.6421 68.6364 77.7029 68.6364 76.7391C68.6364 75.7754 68.966 74.8361 69.5419 74.1855C70.1178 73.5348 70.9091 73.087 72.2727 73.087ZM137.727 73.087C139.091 73.087 139.882 73.5348 140.458 74.1855C141.034 74.8361 141.364 75.7754 141.364 76.7391C141.364 77.7029 141.034 78.6421 140.458 79.2928C139.882 79.9435 139.091 80.3913 137.727 80.3913C136.364 80.3913 135.572 79.9435 134.996 79.2928C134.421 78.6421 134.091 77.7029 134.091 76.7391C134.091 75.7754 134.421 74.8361 134.996 74.1855C135.572 73.5348 136.364 73.087 137.727 73.087ZM105 91.3478C106.364 91.3478 107.155 91.7957 107.731 92.4463C108.307 93.097 108.636 94.0362 108.636 95C108.636 95.9638 108.307 96.903 107.731 97.5537C107.155 98.2043 106.364 98.6522 105 98.6522C103.636 98.6522 102.845 98.2043 102.269 97.5537C101.693 96.903 101.364 95.9638 101.364 95C101.364 94.0362 101.693 93.097 102.269 92.4463C102.845 91.7957 103.636 91.3478 105 91.3478ZM72.2727 109.609C73.6364 109.609 74.4277 110.057 75.0036 110.707C75.5794 111.358 75.9091 112.297 75.9091 113.261C75.9091 114.225 75.5794 115.164 75.0036 115.815C74.4277 116.465 73.6364 116.913 72.2727 116.913C70.9091 116.913 70.1178 116.465 69.5419 115.815C68.966 115.164 68.6364 114.225 68.6364 113.261C68.6364 112.297 68.966 111.358 69.5419 110.707C70.1178 110.057 70.9091 109.609 72.2727 109.609ZM137.727 109.609C139.091 109.609 139.882 110.057 140.458 110.707C141.034 111.358 141.364 112.297 141.364 113.261C141.364 114.225 141.034 115.164 140.458 115.815C139.882 116.465 139.091 116.913 137.727 116.913C136.364 116.913 135.572 116.465 134.996 115.815C134.421 115.164 134.091 114.225 134.091 113.261C134.091 112.297 134.421 111.358 134.996 110.707C135.572 110.057 136.364 109.609 137.727 109.609ZM104.947 126.065C104.983 126.067 105.02 126.068 105.057 126.068C106.368 126.087 107.167 126.505 107.731 127.142C108.307 127.793 108.636 128.732 108.636 129.696C108.636 130.659 108.307 131.599 107.731 132.249C107.155 132.9 106.364 133.348 105 133.348C103.636 133.348 102.845 132.9 102.269 132.249C101.693 131.599 101.364 130.659 101.364 129.696C101.364 128.732 101.693 127.793 102.269 127.142C102.834 126.504 103.631 126.082 104.947 126.065Z" fill="url(#paint0_linear)"/>
<path d="M105 88C102.727 88 100.791 88.9217 99.549 90.3254C98.3067 91.7291 97.7273 93.529 97.7273 95.3044C97.7273 95.8163 97.7887 96.3284 97.8871 96.8344L77.8303 106.906C77.791 106.86 77.7644 106.806 77.7237 106.76C76.4814 105.357 74.5455 104.435 72.2727 104.435C70 104.435 68.064 105.357 66.8217 106.76C65.5794 108.164 65 109.964 65 111.739C65 113.514 65.5794 115.314 66.8217 116.718C68.064 118.122 70 119.043 72.2727 119.043C74.4901 119.043 76.3759 118.157 77.6207 116.811L97.397 127.846C97.5814 127.954 97.7834 128.029 97.9936 128.067C97.8342 128.703 97.7273 129.35 97.7273 130C97.7273 131.775 98.3067 133.575 99.549 134.979C100.435 135.98 101.753 136.589 103.214 136.941C103.191 137.06 103.18 137.182 103.182 137.304V157.762C101.734 158.117 100.428 158.723 99.549 159.717C99.5084 159.763 99.4817 159.816 99.4425 159.863L79.3857 149.791C79.484 149.285 79.5455 148.773 79.5455 148.261C79.5455 146.486 78.966 144.686 77.7237 143.282C76.4814 141.878 74.5455 140.957 72.2727 140.957C70 140.957 68.064 141.878 66.8217 143.282C65.5794 144.686 65 146.486 65 148.261C65 150.036 65.5794 151.836 66.8217 153.24C68.064 154.643 70 155.565 72.2727 155.565C74.5455 155.565 76.4814 154.643 77.7237 153.24C77.765 153.193 77.7904 153.138 77.8303 153.09L97.8871 163.166C97.7887 163.672 97.7273 164.184 97.7273 164.696C97.7273 166.471 98.3067 168.271 99.549 169.675C100.791 171.078 102.727 172 105 172C107.273 172 109.209 171.078 110.451 169.675C111.693 168.271 112.273 166.471 112.273 164.696C112.273 164.184 112.211 163.672 112.113 163.166L132.17 153.094C132.209 153.14 132.236 153.194 132.276 153.24C133.519 154.643 135.455 155.565 137.727 155.565C140 155.565 141.936 154.643 143.178 153.24C144.421 151.836 145 150.036 145 148.261C145 146.486 144.421 144.686 143.178 143.282C141.936 141.878 140 140.957 137.727 140.957C135.455 140.957 133.519 141.878 132.276 143.282C131.034 144.686 130.455 146.486 130.455 148.261C130.455 148.773 130.516 149.285 130.614 149.791L110.558 159.863C110.518 159.816 110.492 159.763 110.451 159.717C109.572 158.723 108.266 158.117 106.818 157.762V137.304C106.82 137.182 106.809 137.06 106.786 136.941C108.247 136.589 109.565 135.98 110.451 134.979C111.693 133.575 112.273 131.775 112.273 130C112.273 129.365 112.169 128.732 112.017 128.11C112.178 128.067 112.332 128.002 112.475 127.917L132.379 116.814C133.624 118.16 135.511 119.043 137.727 119.043C140 119.043 141.936 118.122 143.178 116.718C144.421 115.314 145 113.514 145 111.739C145 109.964 144.421 108.164 143.178 106.76C141.936 105.357 140 104.435 137.727 104.435C135.455 104.435 133.519 105.357 132.276 106.76C131.034 108.164 130.455 109.964 130.455 111.739C130.455 112.356 130.553 112.971 130.696 113.576L110.71 124.725C110.591 124.788 110.479 124.865 110.376 124.953C109.132 123.591 107.233 122.696 105 122.696C102.755 122.696 100.846 123.6 99.6023 124.975C99.4724 124.846 99.3239 124.738 99.1619 124.654L79.304 113.576C79.4475 112.971 79.5455 112.356 79.5455 111.739C79.5455 111.227 79.484 110.715 79.3857 110.209L99.4425 100.137C99.4817 100.184 99.5084 100.237 99.549 100.283C100.791 101.687 102.727 102.609 105 102.609C107.273 102.609 109.209 101.687 110.451 100.283C111.693 98.8796 112.273 97.0797 112.273 95.3044C112.273 93.529 111.693 91.7291 110.451 90.3254C109.209 88.9217 107.273 88 105 88ZM105 91.6522C106.364 91.6522 107.155 92.1 107.731 92.7507C108.307 93.4013 108.636 94.3406 108.636 95.3044C108.636 96.2681 108.307 97.2073 107.731 97.858C107.155 98.5087 106.364 98.9565 105 98.9565C103.636 98.9565 102.845 98.5087 102.269 97.858C101.693 97.2073 101.364 96.2681 101.364 95.3044C101.364 94.3406 101.693 93.4013 102.269 92.7507C102.845 92.1 103.636 91.6522 105 91.6522ZM72.2727 108.087C73.6364 108.087 74.4277 108.535 75.0036 109.185C75.5794 109.836 75.9091 110.775 75.9091 111.739C75.9091 112.703 75.5794 113.642 75.0036 114.293C74.4277 114.943 73.6364 115.391 72.2727 115.391C70.9091 115.391 70.1178 114.943 69.5419 114.293C68.966 113.642 68.6364 112.703 68.6364 111.739C68.6364 110.775 68.966 109.836 69.5419 109.185C70.1178 108.535 70.9091 108.087 72.2727 108.087ZM137.727 108.087C139.091 108.087 139.882 108.535 140.458 109.185C141.034 109.836 141.364 110.775 141.364 111.739C141.364 112.703 141.034 113.642 140.458 114.293C139.882 114.943 139.091 115.391 137.727 115.391C136.364 115.391 135.572 114.943 134.996 114.293C134.421 113.642 134.091 112.703 134.091 111.739C134.091 110.775 134.421 109.836 134.996 109.185C135.572 108.535 136.364 108.087 137.727 108.087ZM105 126.348C106.364 126.348 107.155 126.796 107.731 127.446C108.307 128.097 108.636 129.036 108.636 130C108.636 130.964 108.307 131.903 107.731 132.554C107.155 133.204 106.364 133.652 105 133.652C103.636 133.652 102.845 133.204 102.269 132.554C101.693 131.903 101.364 130.964 101.364 130C101.364 129.036 101.693 128.097 102.269 127.446C102.845 126.796 103.636 126.348 105 126.348ZM72.2727 144.609C73.6364 144.609 74.4277 145.057 75.0036 145.707C75.5794 146.358 75.9091 147.297 75.9091 148.261C75.9091 149.225 75.5794 150.164 75.0036 150.815C74.4277 151.465 73.6364 151.913 72.2727 151.913C70.9091 151.913 70.1178 151.465 69.5419 150.815C68.966 150.164 68.6364 149.225 68.6364 148.261C68.6364 147.297 68.966 146.358 69.5419 145.707C70.1178 145.057 70.9091 144.609 72.2727 144.609ZM137.727 144.609C139.091 144.609 139.882 145.057 140.458 145.707C141.034 146.358 141.364 147.297 141.364 148.261C141.364 149.225 141.034 150.164 140.458 150.815C139.882 151.465 139.091 151.913 137.727 151.913C136.364 151.913 135.572 151.465 134.996 150.815C134.421 150.164 134.091 149.225 134.091 148.261C134.091 147.297 134.421 146.358 134.996 145.707C135.572 145.057 136.364 144.609 137.727 144.609ZM104.947 161.065C104.983 161.067 105.02 161.068 105.057 161.068C106.368 161.087 107.167 161.505 107.731 162.142C108.307 162.793 108.636 163.732 108.636 164.696C108.636 165.659 108.307 166.599 107.731 167.249C107.155 167.9 106.364 168.348 105 168.348C103.636 168.348 102.845 167.9 102.269 167.249C101.693 166.599 101.364 165.659 101.364 164.696C101.364 163.732 101.693 162.793 102.269 162.142C102.834 161.504 103.631 161.082 104.947 161.065Z" fill="url(#paint1_linear)"/>
<path d="M40 53C37.7273 53 35.7913 53.9217 34.549 55.3254C33.3067 56.7291 32.7273 58.529 32.7273 60.3043C32.7273 60.8163 32.7887 61.3284 32.8871 61.8344L12.8303 71.9064C12.791 71.8596 12.7644 71.8061 12.7237 71.7602C11.4814 70.3565 9.54545 69.4348 7.27273 69.4348C5 69.4348 3.06405 70.3565 1.82173 71.7602C0.579419 73.1639 0 74.9638 0 76.7391C0 78.5145 0.579419 80.3144 1.82173 81.7181C3.06405 83.1218 5 84.0435 7.27273 84.0435C9.49014 84.0435 11.3759 83.1572 12.6207 81.8108L32.397 92.8458C32.5814 92.9541 32.7834 93.029 32.9936 93.0669C32.8342 93.7029 32.7273 94.35 32.7273 95C32.7273 96.7754 33.3067 98.5753 34.549 99.9789C35.4347 100.98 36.7527 101.589 38.2138 101.941C38.1911 102.06 38.1803 102.182 38.1818 102.304V122.762C36.7345 123.117 35.4283 123.723 34.549 124.717C34.5083 124.763 34.4817 124.816 34.4425 124.863L14.3857 114.791C14.484 114.285 14.5455 113.773 14.5455 113.261C14.5455 111.486 13.966 109.686 12.7237 108.282C11.4814 106.878 9.54545 105.957 7.27273 105.957C5 105.957 3.06405 106.878 1.82173 108.282C0.579419 109.686 0 111.486 0 113.261C0 115.036 0.579419 116.836 1.82173 118.24C3.06405 119.643 5 120.565 7.27273 120.565C9.54545 120.565 11.4814 119.643 12.7237 118.24C12.765 118.193 12.7904 118.138 12.8303 118.09L32.8871 128.166C32.7887 128.672 32.7273 129.184 32.7273 129.696C32.7273 131.471 33.3067 133.271 34.549 134.675C35.7913 136.078 37.7273 137 40 137C42.2727 137 44.2087 136.078 45.451 134.675C46.6933 133.271 47.2727 131.471 47.2727 129.696C47.2727 129.184 47.2113 128.672 47.1129 128.166L67.1697 118.094C67.209 118.14 67.2356 118.194 67.2763 118.24C68.5186 119.643 70.4545 120.565 72.7273 120.565C75 120.565 76.936 119.643 78.1783 118.24C79.4206 116.836 80 115.036 80 113.261C80 111.486 79.4206 109.686 78.1783 108.282C76.936 106.878 75 105.957 72.7273 105.957C70.4545 105.957 68.5186 106.878 67.2763 108.282C66.034 109.686 65.4545 111.486 65.4545 113.261C65.4545 113.773 65.516 114.285 65.6143 114.791L45.5575 124.863C45.5183 124.816 45.4917 124.763 45.451 124.717C44.5717 123.723 43.2655 123.117 41.8182 122.762V102.304C41.8197 102.182 41.809 102.06 41.7862 101.941C43.2473 101.589 44.5653 100.98 45.451 99.9789C46.6933 98.5753 47.2727 96.7754 47.2727 95C47.2727 94.3646 47.1693 93.7321 47.017 93.1097C47.1778 93.0669 47.3319 93.0021 47.4751 92.9171L67.3793 81.8144C68.6241 83.1598 70.5108 84.0435 72.7273 84.0435C75 84.0435 76.936 83.1218 78.1783 81.7181C79.4206 80.3144 80 78.5145 80 76.7391C80 74.9638 79.4206 73.1639 78.1783 71.7602C76.936 70.3565 75 69.4348 72.7273 69.4348C70.4545 69.4348 68.5186 70.3565 67.2763 71.7602C66.034 73.1639 65.4545 74.9638 65.4545 76.7391C65.4545 77.3562 65.5525 77.9706 65.696 78.5759L45.7102 89.725C45.5909 89.7884 45.4789 89.865 45.3764 89.9533C44.1321 88.5913 42.2325 87.6956 40 87.6956C37.7555 87.6956 35.8461 88.6003 34.6023 89.9747C34.4724 89.8461 34.3239 89.7379 34.1619 89.6537L14.304 78.5759C14.4475 77.9706 14.5455 77.3562 14.5455 76.7391C14.5455 76.2271 14.484 75.715 14.3857 75.2091L34.4425 65.1371C34.4817 65.1838 34.5083 65.2373 34.549 65.2833C35.7913 66.687 37.7273 67.6087 40 67.6087C42.2727 67.6087 44.2087 66.687 45.451 65.2833C46.6933 63.8796 47.2727 62.0797 47.2727 60.3043C47.2727 58.529 46.6933 56.7291 45.451 55.3254C44.2087 53.9217 42.2727 53 40 53ZM40 56.6522C41.3636 56.6522 42.155 57.1 42.7308 57.7507C43.3067 58.4013 43.6364 59.3406 43.6364 60.3043C43.6364 61.2681 43.3067 62.2073 42.7308 62.858C42.155 63.5087 41.3636 63.9565 40 63.9565C38.6364 63.9565 37.845 63.5087 37.2692 62.858C36.6933 62.2073 36.3636 61.2681 36.3636 60.3043C36.3636 59.3406 36.6933 58.4013 37.2692 57.7507C37.845 57.1 38.6364 56.6522 40 56.6522ZM7.27273 73.087C8.63636 73.087 9.42768 73.5348 10.0036 74.1855C10.5794 74.8361 10.9091 75.7754 10.9091 76.7391C10.9091 77.7029 10.5794 78.6421 10.0036 79.2928C9.42768 79.9435 8.63636 80.3913 7.27273 80.3913C5.90909 80.3913 5.11777 79.9435 4.5419 79.2928C3.96604 78.6421 3.63636 77.7029 3.63636 76.7391C3.63636 75.7754 3.96604 74.8361 4.5419 74.1855C5.11777 73.5348 5.90909 73.087 7.27273 73.087ZM72.7273 73.087C74.0909 73.087 74.8822 73.5348 75.4581 74.1855C76.034 74.8361 76.3636 75.7754 76.3636 76.7391C76.3636 77.7029 76.034 78.6421 75.4581 79.2928C74.8822 79.9435 74.0909 80.3913 72.7273 80.3913C71.3636 80.3913 70.5723 79.9435 69.9965 79.2928C69.4206 78.6421 69.0909 77.7029 69.0909 76.7391C69.0909 75.7754 69.4206 74.8361 69.9965 74.1855C70.5723 73.5348 71.3636 73.087 72.7273 73.087ZM40 91.3478C41.3636 91.3478 42.155 91.7957 42.7308 92.4463C43.3067 93.097 43.6364 94.0362 43.6364 95C43.6364 95.9638 43.3067 96.903 42.7308 97.5537C42.155 98.2043 41.3636 98.6522 40 98.6522C38.6364 98.6522 37.845 98.2043 37.2692 97.5537C36.6933 96.903 36.3636 95.9638 36.3636 95C36.3636 94.0362 36.6933 93.097 37.2692 92.4463C37.845 91.7957 38.6364 91.3478 40 91.3478ZM7.27273 109.609C8.63636 109.609 9.42768 110.057 10.0036 110.707C10.5794 111.358 10.9091 112.297 10.9091 113.261C10.9091 114.225 10.5794 115.164 10.0036 115.815C9.42768 116.465 8.63636 116.913 7.27273 116.913C5.90909 116.913 5.11777 116.465 4.5419 115.815C3.96604 115.164 3.63636 114.225 3.63636 113.261C3.63636 112.297 3.96604 111.358 4.5419 110.707C5.11777 110.057 5.90909 109.609 7.27273 109.609ZM72.7273 109.609C74.0909 109.609 74.8822 110.057 75.4581 110.707C76.034 111.358 76.3636 112.297 76.3636 113.261C76.3636 114.225 76.034 115.164 75.4581 115.815C74.8822 116.465 74.0909 116.913 72.7273 116.913C71.3636 116.913 70.5723 116.465 69.9965 115.815C69.4206 115.164 69.0909 114.225 69.0909 113.261C69.0909 112.297 69.4206 111.358 69.9965 110.707C70.5723 110.057 71.3636 109.609 72.7273 109.609ZM39.9467 126.065C39.9834 126.067 40.0201 126.068 40.0568 126.068C41.3683 126.087 42.1671 126.505 42.7308 127.142C43.3067 127.793 43.6364 128.732 43.6364 129.696C43.6364 130.659 43.3067 131.599 42.7308 132.249C42.155 132.9 41.3636 133.348 40 133.348C38.6364 133.348 37.845 132.9 37.2692 132.249C36.6933 131.599 36.3636 130.659 36.3636 129.696C36.3636 128.732 36.6933 127.793 37.2692 127.142C37.8338 126.504 38.6314 126.082 39.9467 126.065Z" fill="url(#paint2_linear)"/>
<path d="M138 0C135.727 0 133.791 0.921728 132.549 2.32541C131.307 3.72909 130.727 5.52899 130.727 7.30435C130.727 7.81634 130.789 8.32843 130.887 8.83441L110.83 18.9064C110.791 18.8596 110.764 18.8061 110.724 18.7602C109.481 17.3565 107.545 16.4348 105.273 16.4348C103 16.4348 101.064 17.3565 99.8217 18.7602C98.5794 20.1639 98 21.9638 98 23.7391C98 25.5145 98.5794 27.3144 99.8217 28.7181C101.064 30.1218 103 31.0435 105.273 31.0435C107.49 31.0435 109.376 30.1572 110.621 28.8108L130.397 39.8458C130.581 39.9541 130.783 40.029 130.994 40.0669C130.834 40.7029 130.727 41.35 130.727 42C130.727 43.7754 131.307 45.5753 132.549 46.9789C133.435 47.9797 134.753 48.5893 136.214 48.9406C136.191 49.0604 136.18 49.1823 136.182 49.3043V69.7622C134.734 70.1168 133.428 70.7232 132.549 71.7167C132.508 71.7627 132.482 71.8162 132.442 71.8629L112.386 61.7909C112.484 61.285 112.545 60.7729 112.545 60.2609C112.545 58.4855 111.966 56.6856 110.724 55.2819C109.481 53.8783 107.545 52.9565 105.273 52.9565C103 52.9565 101.064 53.8783 99.8217 55.2819C98.5794 56.6856 98 58.4855 98 60.2609C98 62.0362 98.5794 63.8361 99.8217 65.2398C101.064 66.6435 103 67.5652 105.273 67.5652C107.545 67.5652 109.481 66.6435 110.724 65.2398C110.765 65.1931 110.79 65.1375 110.83 65.09L130.887 75.1656C130.789 75.6716 130.727 76.1837 130.727 76.6957C130.727 78.471 131.307 80.2709 132.549 81.6746C133.791 83.0783 135.727 84 138 84C140.273 84 142.209 83.0783 143.451 81.6746C144.693 80.2709 145.273 78.471 145.273 76.6957C145.273 76.1837 145.211 75.6716 145.113 75.1656L165.17 65.0936C165.209 65.1404 165.236 65.1939 165.276 65.2398C166.519 66.6435 168.455 67.5652 170.727 67.5652C173 67.5652 174.936 66.6435 176.178 65.2398C177.421 63.8361 178 62.0362 178 60.2609C178 58.4855 177.421 56.6856 176.178 55.2819C174.936 53.8783 173 52.9565 170.727 52.9565C168.455 52.9565 166.519 53.8783 165.276 55.2819C164.034 56.6856 163.455 58.4855 163.455 60.2609C163.455 60.7729 163.516 61.285 163.614 61.7909L143.558 71.8629C143.518 71.8162 143.492 71.7627 143.451 71.7167C142.572 70.7232 141.266 70.1168 139.818 69.7622V49.3043C139.82 49.1823 139.809 49.0604 139.786 48.9406C141.247 48.5893 142.565 47.9797 143.451 46.9789C144.693 45.5753 145.273 43.7754 145.273 42C145.273 41.3646 145.169 40.7321 145.017 40.1097C145.178 40.0669 145.332 40.0021 145.475 39.9171L165.379 28.8144C166.624 30.1598 168.511 31.0435 170.727 31.0435C173 31.0435 174.936 30.1218 176.178 28.7181C177.421 27.3144 178 25.5145 178 23.7391C178 21.9638 177.421 20.1639 176.178 18.7602C174.936 17.3565 173 16.4348 170.727 16.4348C168.455 16.4348 166.519 17.3565 165.276 18.7602C164.034 20.1639 163.455 21.9638 163.455 23.7391C163.455 24.3562 163.553 24.9706 163.696 25.5759L143.71 36.725C143.591 36.7884 143.479 36.865 143.376 36.9533C142.132 35.5914 140.233 34.6957 138 34.6957C135.755 34.6957 133.846 35.6003 132.602 36.9747C132.472 36.8461 132.324 36.7379 132.162 36.6537L112.304 25.5759C112.447 24.9706 112.545 24.3562 112.545 23.7391C112.545 23.2271 112.484 22.715 112.386 22.2091L132.442 12.1371C132.482 12.1838 132.508 12.2373 132.549 12.2833C133.791 13.687 135.727 14.6087 138 14.6087C140.273 14.6087 142.209 13.687 143.451 12.2833C144.693 10.8796 145.273 9.07971 145.273 7.30435C145.273 5.52899 144.693 3.72909 143.451 2.32541C142.209 0.921728 140.273 0 138 0ZM138 3.65217C139.364 3.65217 140.155 4.10001 140.731 4.75068C141.307 5.40135 141.636 6.34058 141.636 7.30435C141.636 8.26812 141.307 9.20735 140.731 9.85802C140.155 10.5087 139.364 10.9565 138 10.9565C136.636 10.9565 135.845 10.5087 135.269 9.85802C134.693 9.20735 134.364 8.26812 134.364 7.30435C134.364 6.34058 134.693 5.40135 135.269 4.75068C135.845 4.10001 136.636 3.65217 138 3.65217ZM105.273 20.087C106.636 20.087 107.428 20.5348 108.004 21.1855C108.579 21.8361 108.909 22.7754 108.909 23.7391C108.909 24.7029 108.579 25.6421 108.004 26.2928C107.428 26.9435 106.636 27.3913 105.273 27.3913C103.909 27.3913 103.118 26.9435 102.542 26.2928C101.966 25.6421 101.636 24.7029 101.636 23.7391C101.636 22.7754 101.966 21.8361 102.542 21.1855C103.118 20.5348 103.909 20.087 105.273 20.087ZM170.727 20.087C172.091 20.087 172.882 20.5348 173.458 21.1855C174.034 21.8361 174.364 22.7754 174.364 23.7391C174.364 24.7029 174.034 25.6421 173.458 26.2928C172.882 26.9435 172.091 27.3913 170.727 27.3913C169.364 27.3913 168.572 26.9435 167.996 26.2928C167.421 25.6421 167.091 24.7029 167.091 23.7391C167.091 22.7754 167.421 21.8361 167.996 21.1855C168.572 20.5348 169.364 20.087 170.727 20.087ZM138 38.3478C139.364 38.3478 140.155 38.7957 140.731 39.4463C141.307 40.097 141.636 41.0362 141.636 42C141.636 42.9638 141.307 43.903 140.731 44.5537C140.155 45.2043 139.364 45.6522 138 45.6522C136.636 45.6522 135.845 45.2043 135.269 44.5537C134.693 43.903 134.364 42.9638 134.364 42C134.364 41.0362 134.693 40.097 135.269 39.4463C135.845 38.7957 136.636 38.3478 138 38.3478ZM105.273 56.6087C106.636 56.6087 107.428 57.0565 108.004 57.7072C108.579 58.3579 108.909 59.2971 108.909 60.2609C108.909 61.2246 108.579 62.1639 108.004 62.8145C107.428 63.4652 106.636 63.913 105.273 63.913C103.909 63.913 103.118 63.4652 102.542 62.8145C101.966 62.1639 101.636 61.2246 101.636 60.2609C101.636 59.2971 101.966 58.3579 102.542 57.7072C103.118 57.0565 103.909 56.6087 105.273 56.6087ZM170.727 56.6087C172.091 56.6087 172.882 57.0565 173.458 57.7072C174.034 58.3579 174.364 59.2971 174.364 60.2609C174.364 61.2246 174.034 62.1639 173.458 62.8145C172.882 63.4652 172.091 63.913 170.727 63.913C169.364 63.913 168.572 63.4652 167.996 62.8145C167.421 62.1639 167.091 61.2246 167.091 60.2609C167.091 59.2971 167.421 58.3579 167.996 57.7072C168.572 57.0565 169.364 56.6087 170.727 56.6087ZM137.947 73.0649C137.983 73.0672 138.02 73.0684 138.057 73.0684C139.368 73.0868 140.167 73.505 140.731 74.142C141.307 74.7926 141.636 75.7319 141.636 76.6957C141.636 77.6594 141.307 78.5986 140.731 79.2493C140.155 79.9 139.364 80.3478 138 80.3478C136.636 80.3478 135.845 79.9 135.269 79.2493C134.693 78.5986 134.364 77.6594 134.364 76.6957C134.364 75.7319 134.693 74.7927 135.269 74.142C135.834 73.504 136.631 73.0819 137.947 73.0649Z" fill="url(#paint3_linear)"/>
<defs>
<linearGradient id="paint0_linear" x1="89" y1="0" x2="89" y2="172" gradientUnits="userSpaceOnUse">
<stop stop-color="#FF8E00"/>
<stop offset="0.515625" stop-color="#D12D5F"/>
</linearGradient>
<linearGradient id="paint1_linear" x1="89" y1="0" x2="89" y2="172" gradientUnits="userSpaceOnUse">
<stop stop-color="#FF8E00"/>
<stop offset="0.515625" stop-color="#D12D5F"/>
</linearGradient>
<linearGradient id="paint2_linear" x1="89" y1="0" x2="89" y2="172" gradientUnits="userSpaceOnUse">
<stop stop-color="#FF8E00"/>
<stop offset="0.515625" stop-color="#D12D5F"/>
</linearGradient>
<linearGradient id="paint3_linear" x1="89" y1="0" x2="89" y2="172" gradientUnits="userSpaceOnUse">
<stop stop-color="#FF8E00"/>
<stop offset="0.515625" stop-color="#D12D5F"/>
</linearGradient>
</defs>
</svg>
