<svg width="204" height="204" viewBox="0 0 204 204" fill="none" xmlns="http://www.w3.org/2000/svg">
<path d="M150.45 20.4C135.011 20.4 122.4 33.0105 122.4 48.45C122.4 48.4898 122.4 48.5396 122.4 48.5795C105.337 49.8943 91.8 64.1982 91.8 81.6C91.8 99.8584 106.692 114.75 124.95 114.75C143.208 114.75 158.1 99.8584 158.1 81.6C158.1 79.5281 157.881 77.516 157.512 75.5537C169.565 72.406 178.5 61.449 178.5 48.45C178.5 33.0105 165.889 20.4 150.45 20.4ZM150.45 25.5C163.13 25.5 173.4 35.7697 173.4 48.45C173.4 59.1381 166.069 68.083 156.188 70.643C155.371 68.3021 154.285 66.0908 152.99 64.0289C152.99 63.9293 153 63.8396 153 63.75C153 62.5646 152.183 61.5387 151.038 61.2697C147.302 56.4885 142.302 52.7531 136.535 50.5916C137.262 50.1234 137.7 49.3166 137.7 48.45C137.7 47.0455 136.555 45.9 135.15 45.9C133.746 45.9 132.6 47.0455 132.6 48.45C132.6 48.7887 132.67 49.1273 132.799 49.4461C131.086 49.0178 129.313 48.7189 127.5 48.5795C127.5 48.5396 127.5 48.4898 127.5 48.45C127.5 35.7697 137.77 25.5 150.45 25.5ZM150.45 30.6C149.046 30.6 147.9 31.7455 147.9 33.15C147.9 34.5545 149.046 35.7 150.45 35.7C151.855 35.7 153 34.5545 153 33.15C153 31.7455 151.855 30.6 150.45 30.6ZM139.662 35.0824C138.975 35.0725 138.318 35.3414 137.83 35.8295C136.833 36.8256 136.833 38.4393 137.83 39.4353C138.826 40.4314 140.439 40.4314 141.435 39.4353C142.431 38.4393 142.431 36.8256 141.435 35.8295C140.967 35.3613 140.33 35.0924 139.662 35.0824ZM161.307 35.0924C160.62 35.0725 159.953 35.3414 159.465 35.8295C158.987 36.3076 158.718 36.9551 158.718 37.6324C158.718 38.3098 158.987 38.9572 159.465 39.4453C160.461 40.4314 162.074 40.4314 163.071 39.4353C164.067 38.4393 164.067 36.8256 163.071 35.8295C162.602 35.3613 161.965 35.0924 161.307 35.0924ZM165.75 45.9C164.346 45.9 163.2 47.0455 163.2 48.45C163.2 49.8545 164.346 51 165.75 51C167.155 51 168.3 49.8545 168.3 48.45C168.3 47.0455 167.155 45.9 165.75 45.9ZM124.95 53.55C140.439 53.55 153 66.1107 153 81.6C153 97.0892 140.439 109.65 124.95 109.65C109.461 109.65 96.9 97.0892 96.9 81.6C96.9 66.1107 109.461 53.55 124.95 53.55ZM161.298 56.7275C160.61 56.7076 159.943 56.9766 159.455 57.4646C158.469 58.4707 158.469 60.0844 159.465 61.0805C160.461 62.0666 162.074 62.0666 163.071 61.0805C164.067 60.0844 164.067 58.4607 163.071 57.4646C162.602 56.9965 161.965 56.7275 161.298 56.7275ZM124.95 58.65C123.546 58.65 122.4 59.7955 122.4 61.2C122.4 62.6045 123.546 63.75 124.95 63.75C126.355 63.75 127.5 62.6045 127.5 61.2C127.5 59.7955 126.355 58.65 124.95 58.65ZM114.68 61.3893C114.262 61.3893 113.844 61.5088 113.475 61.718C112.25 62.4252 111.831 63.9891 112.539 65.2043C113.246 66.4195 114.8 66.8478 116.025 66.1406C116.603 65.8019 117.031 65.2441 117.21 64.5867C117.39 63.9393 117.3 63.242 116.951 62.6543C116.493 61.8475 115.617 61.3594 114.68 61.3893ZM135.031 61.3893C134.164 61.4291 133.377 61.9072 132.939 62.6642C132.6 63.242 132.51 63.9393 132.68 64.5967C132.859 65.2541 133.287 65.8119 133.875 66.1406C135.09 66.8478 136.654 66.4295 137.351 65.2143C138.059 63.9891 137.64 62.4352 136.425 61.7279C135.997 61.4789 135.519 61.3693 135.031 61.3893ZM142.551 68.85C142.123 68.86 141.704 68.9795 141.336 69.1887C140.748 69.5273 140.32 70.0851 140.15 70.7426C139.971 71.39 140.061 72.0873 140.409 72.675C141.107 73.8902 142.671 74.3086 143.886 73.6014C145.101 72.9041 145.529 71.3402 144.822 70.125C144.354 69.3182 143.487 68.8301 142.551 68.85ZM107.16 68.85C106.293 68.8998 105.506 69.3779 105.068 70.125C104.729 70.7127 104.64 71.41 104.819 72.0574C104.988 72.7148 105.417 73.2726 106.004 73.6113C106.592 73.95 107.289 74.0396 107.937 73.8703C108.594 73.691 109.152 73.2627 109.491 72.675C110.198 71.4598 109.77 69.8959 108.554 69.1986C108.136 68.9496 107.648 68.8301 107.16 68.85ZM104.55 79.05C103.146 79.05 102 80.1955 102 81.6C102 83.0045 103.146 84.15 104.55 84.15C105.955 84.15 107.1 83.0045 107.1 81.6C107.1 80.1955 105.955 79.05 104.55 79.05ZM145.35 79.05C143.946 79.05 142.8 80.1955 142.8 81.6C142.8 83.0045 143.946 84.15 145.35 84.15C146.755 84.15 147.9 83.0045 147.9 81.6C147.9 80.1955 146.755 79.05 145.35 79.05ZM107.22 89.25C106.791 89.26 106.373 89.3795 106.004 89.5887C105.417 89.9273 104.988 90.4851 104.819 91.1426C104.64 91.79 104.729 92.4873 105.068 93.075C105.775 94.2902 107.339 94.7086 108.554 94.0014C109.77 93.3041 110.198 91.7402 109.491 90.525C109.023 89.7182 108.156 89.2301 107.22 89.25ZM142.491 89.26C141.625 89.2998 140.838 89.7779 140.409 90.525C139.702 91.7502 140.121 93.3041 141.336 94.0113C142.561 94.7185 144.115 94.3002 144.822 93.075C145.529 91.8598 145.111 90.3059 143.886 89.5986C143.467 89.3496 142.979 89.24 142.491 89.26ZM135.08 96.7107C134.662 96.7207 134.244 96.8402 133.875 97.0594C133.287 97.3881 132.859 97.9459 132.68 98.6033C132.51 99.2607 132.6 99.958 132.939 100.536C133.646 101.761 135.2 102.179 136.425 101.472C137.64 100.765 138.059 99.2109 137.351 97.9857C136.893 97.1789 136.017 96.6908 135.08 96.7107ZM114.631 96.7207C113.754 96.7605 112.967 97.2387 112.539 97.9957C111.831 99.2109 112.25 100.775 113.475 101.482C114.053 101.821 114.75 101.91 115.407 101.731C116.065 101.562 116.623 101.133 116.951 100.546C117.3 99.958 117.39 99.2607 117.21 98.6133C117.031 97.9559 116.603 97.398 116.025 97.0594C115.597 96.8103 115.109 96.7008 114.631 96.7207ZM58.65 99.45C56.1498 99.45 53.7592 99.9281 51.5579 100.755C51.4782 100.765 51.5778 100.715 51.2889 100.805L51.3586 100.785C45.8403 102.458 19.7227 109.74 19.7227 109.74C18.8063 109.959 18.0891 110.656 17.85 111.553C17.601 112.459 17.87 113.425 18.5473 114.073C19.2147 114.71 20.1909 114.939 21.0774 114.66C21.0774 114.66 46.6172 107.548 52.6635 105.715C52.8428 105.686 53.0221 105.646 53.1915 105.576C54.9047 104.919 56.7276 104.55 58.65 104.55C61.4491 104.55 64.0489 105.307 66.31 106.622C66.3997 106.682 66.4993 106.721 66.5889 106.761C66.6088 106.771 66.6288 106.781 66.6487 106.791C82.7157 114.381 115.358 130.717 115.437 130.767H115.457C115.298 130.687 115.318 130.697 115.627 130.897C115.686 130.937 115.746 130.976 115.796 131.006C118.216 132.311 119.85 134.781 119.85 137.7C119.85 139.234 119.402 140.629 118.625 141.834C116.384 145.32 112.041 146.057 107.987 144.105C107.937 144.085 107.887 144.065 107.847 144.035L106.104 143.328C105.257 142.949 104.261 143.069 103.524 143.637C102.787 144.195 102.408 145.121 102.548 146.037C102.677 146.954 103.305 147.731 104.181 148.059L105.915 148.767L105.775 148.697C110.905 151.167 117.171 150.609 121.175 146.705L123.954 148.607C124.661 149.095 125.578 149.185 126.374 148.856L168.21 131.564L167.145 129.442C167.752 130.648 169.187 131.176 170.422 130.648C171.338 130.259 172.334 130.05 173.4 130.05C177.653 130.05 181.05 133.447 181.05 137.7C181.05 140.609 179.426 143.069 177.036 144.384C175.88 145.011 175.392 146.436 175.94 147.651L174.984 145.499L124.711 172.185C124.791 172.145 124.721 172.175 124.601 172.215C124.482 172.254 124.362 172.294 124.253 172.354C122.878 173.012 121.414 173.4 119.85 173.4C118.346 173.4 116.931 173.051 115.617 172.444C115.557 172.424 115.497 172.394 115.437 172.374C115.248 172.304 115.218 172.284 115.348 172.354L51.9961 145.549C51.4184 145.31 50.7809 145.28 50.1932 145.479L19.5932 155.679C18.2584 156.128 17.5313 157.572 17.9795 158.907C18.4278 160.242 19.8721 160.969 21.2069 160.52L50.8905 150.619L113.296 177.016C113.684 177.195 113.764 177.195 113.674 177.155C115.537 177.992 117.629 178.5 119.85 178.5C122.251 178.5 124.492 177.902 126.464 176.946C126.614 176.896 126.753 176.866 126.942 176.767C126.972 176.757 127.002 176.737 127.022 176.727L179.466 148.896C179.895 148.667 180.243 148.328 180.482 147.91C183.769 145.619 186.15 142.023 186.15 137.7C186.15 130.687 180.413 124.95 173.4 124.95C172.006 124.95 170.711 125.329 169.456 125.747H169.446C169.107 125.747 168.768 125.807 168.459 125.946L125.697 143.617L123.595 142.192C124.183 140.738 124.95 139.354 124.95 137.7C124.95 132.859 122.191 128.655 118.216 126.514L118.396 126.623C118.485 126.673 118.316 126.514 117.858 126.265C117.838 126.255 117.818 126.245 117.788 126.235C117.788 126.235 84.9868 109.799 68.7704 102.149C68.7504 102.139 68.7305 102.129 68.7206 102.12C68.4317 102 68.4118 102 68.5413 102.05C65.6127 100.416 62.2459 99.45 58.65 99.45ZM124.95 99.45C123.546 99.45 122.4 100.595 122.4 102C122.4 103.404 123.546 104.55 124.95 104.55C126.355 104.55 127.5 103.404 127.5 102C127.5 100.595 126.355 99.45 124.95 99.45ZM73.95 132.6C72.5456 132.6 71.4 133.745 71.4 135.15C71.4 136.554 72.5456 137.7 73.95 137.7C75.3545 137.7 76.5 136.554 76.5 135.15C76.5 133.745 75.3545 132.6 73.95 132.6ZM81.6 135.15C80.1956 135.15 79.05 136.296 79.05 137.7C79.05 139.104 80.1956 140.25 81.6 140.25C83.0045 140.25 84.15 139.104 84.15 137.7C84.15 136.296 83.0045 135.15 81.6 135.15ZM89.25 137.7C87.8456 137.7 86.7001 138.845 86.7001 140.25C86.7001 141.654 87.8456 142.8 89.25 142.8C90.6545 142.8 91.8 141.654 91.8 140.25C91.8 138.845 90.6545 137.7 89.25 137.7ZM96.9 140.25C95.4956 140.25 94.35 141.396 94.35 142.8C94.35 144.204 95.4956 145.35 96.9 145.35C98.3045 145.35 99.45 144.204 99.45 142.8C99.45 141.396 98.3045 140.25 96.9 140.25Z" fill="url(#paint0_linear)"/>
<defs>
<linearGradient id="paint0_linear" x1="101.954" y1="20.4" x2="101.954" y2="178.5" gradientUnits="userSpaceOnUse">
<stop stop-color="#FF8E00"/>
<stop offset="0.515625" stop-color="#D12D5F"/>
</linearGradient>
</defs>
</svg>
