<svg width="166" height="156" viewBox="0 0 166 156" fill="none" xmlns="http://www.w3.org/2000/svg">
<path d="M83 0C74.4183 0 67.4375 6.99766 67.4375 15.6C67.4375 24.2023 74.4183 31.2 83 31.2C91.5817 31.2 98.5625 24.2023 98.5625 15.6C98.5625 6.99766 91.5817 0 83 0ZM83 5.2C88.7245 5.2 93.375 9.86172 93.375 15.6C93.375 21.3383 88.7245 26 83 26C77.2755 26 72.625 21.3383 72.625 15.6C72.625 9.86172 77.2755 5.2 83 5.2ZM44.0938 10.4C36.9407 10.4 31.125 16.2297 31.125 23.4C31.125 30.5703 36.9407 36.4 44.0938 36.4C51.2468 36.4 57.0625 30.5703 57.0625 23.4C57.0625 16.2297 51.2468 10.4 44.0938 10.4ZM121.906 10.4C114.753 10.4 108.938 16.2297 108.938 23.4C108.938 30.5703 114.753 36.4 121.906 36.4C129.059 36.4 134.875 30.5703 134.875 23.4C134.875 16.2297 129.059 10.4 121.906 10.4ZM44.0938 15.6C48.3795 15.6 51.875 19.1039 51.875 23.4C51.875 27.6961 48.3795 31.2 44.0938 31.2C39.808 31.2 36.3125 27.6961 36.3125 23.4C36.3125 19.1039 39.808 15.6 44.0938 15.6ZM121.906 15.6C126.192 15.6 129.688 19.1039 129.688 23.4C129.688 27.6961 126.192 31.2 121.906 31.2C117.62 31.2 114.125 27.6961 114.125 23.4C114.125 19.1039 117.62 15.6 121.906 15.6ZM82.8582 33.8C79.231 33.8102 75.6038 34.318 72.0779 35.3336C67.3868 36.6844 63.1517 39.1828 59.7576 42.6156C58.0757 41.6812 56.2621 40.95 54.3674 40.4016C54.2661 40.3711 54.104 40.3508 53.952 40.3305C47.4677 38.5328 40.6489 38.5531 34.1646 40.4016C28.896 41.9047 24.3063 44.982 20.8817 49.268C17.8928 53.0156 16.0691 57.6164 15.6537 62.4H7.78125C3.49548 62.4 0 65.9039 0 70.2V148.2C0 152.496 3.49548 156 7.78125 156H158.219C162.505 156 166 152.496 166 148.2V70.2C166 65.9039 162.505 62.4 158.219 62.4H150.711C150.296 57.6164 148.472 53.0156 145.483 49.268C142.058 44.982 137.448 41.9047 132.18 40.4016C132.079 40.3711 131.917 40.3508 131.765 40.3305C125.28 38.5328 118.461 38.5531 111.977 40.4016C110.032 40.95 108.188 41.732 106.475 42.6969C103.051 39.2031 98.8158 36.6844 94.0741 35.3336C93.9728 35.3031 93.8107 35.2828 93.6283 35.2625C90.1024 34.2672 86.4854 33.7797 82.8582 33.8ZM83 39C86.1915 39 89.3831 39.4367 92.4935 40.3305C92.5948 40.3508 92.757 40.3711 92.9089 40.4016C96.4146 41.4375 99.5453 43.2656 102.169 45.7031C103 46.4648 103.75 47.318 104.479 48.2016C104.834 48.6687 105.199 49.1664 105.533 49.6539C107.843 53.1172 109.12 57.2508 109.12 61.4656V62.4H57.0625V61.4656C57.0625 57.2 58.329 53.0461 60.7201 49.5625C61.0342 49.0852 61.3685 48.6484 61.7029 48.2016C62.4324 47.2875 63.2429 46.4344 64.094 45.632C66.7688 43.1641 69.9806 41.3359 73.5065 40.3305C76.6169 39.4367 79.8085 39 83 39ZM44.1849 44.2C47.0826 44.2 49.9702 44.6062 52.7767 45.3984C52.8882 45.4492 53.0402 45.4695 53.2023 45.4695C54.2864 45.8148 55.3502 46.2312 56.3634 46.7188C53.4556 51.0656 51.875 56.2148 51.875 61.4656V62.4H20.9324C21.3174 58.8047 22.6649 55.3516 24.9243 52.518C27.67 49.0852 31.358 46.6172 35.6134 45.3984C38.4098 44.6062 41.2974 44.2 44.1849 44.2ZM121.997 44.2C124.895 44.2 127.783 44.6062 130.589 45.3984C130.701 45.4492 130.853 45.4695 131.015 45.4695C135.138 46.7188 138.735 49.1359 141.44 52.518C143.7 55.3516 145.047 58.8047 145.443 62.4H114.307V61.4656C114.307 56.2352 112.747 51.1164 109.839 46.8C110.984 46.2312 112.18 45.7641 113.426 45.3984C116.222 44.6062 119.11 44.2 121.997 44.2ZM7.78125 67.6H158.219C159.647 67.6 160.812 68.768 160.812 70.2V148.2C160.812 149.632 159.647 150.8 158.219 150.8H7.78125C6.35266 150.8 5.1875 149.632 5.1875 148.2V70.2C5.1875 68.768 6.35266 67.6 7.78125 67.6ZM44.0938 75.4C42.6652 75.4 41.5 76.568 41.5 78V83.2C41.5 84.632 42.6652 85.8 44.0938 85.8C45.5223 85.8 46.6875 84.632 46.6875 83.2V78C46.6875 76.568 45.5223 75.4 44.0938 75.4ZM57.0625 75.4C55.6339 75.4 54.4688 76.568 54.4688 78V83.2C54.4688 84.632 55.6339 85.8 57.0625 85.8C58.4911 85.8 59.6562 84.632 59.6562 83.2V78C59.6562 76.568 58.4911 75.4 57.0625 75.4ZM70.0312 75.4C68.6027 75.4 67.4375 76.568 67.4375 78V83.2C67.4375 84.1953 68.015 85.0281 68.8256 85.4648C62.0474 90.6039 57.5792 99.3281 57.5792 109.2C57.5792 119.072 62.0474 127.796 68.8256 132.935C68.015 133.372 67.4375 134.205 67.4375 135.2V140.4C67.4375 141.832 68.6027 143 70.0312 143C71.4598 143 72.625 141.832 72.625 140.4V135.281C75.0465 136.51 77.6605 137.343 80.4062 137.648V140.4C80.4062 141.832 81.5714 143 83 143C84.4286 143 85.5938 141.832 85.5938 140.4V137.648C88.3395 137.343 90.9535 136.51 93.375 135.281V140.4C93.375 141.832 94.5402 143 95.9688 143C97.3973 143 98.5625 141.832 98.5625 140.4V135.2C98.5625 134.205 97.985 133.372 97.1744 132.935C103.953 127.796 108.421 119.072 108.421 109.2C108.421 99.3281 103.953 90.6039 97.1744 85.4648C97.985 85.0281 98.5625 84.1953 98.5625 83.2V78C98.5625 76.568 97.3973 75.4 95.9688 75.4C94.5402 75.4 93.375 76.568 93.375 78V83.1187C90.9535 81.8898 88.3395 81.057 85.5938 80.7523V78C85.5938 76.568 84.4286 75.4 83 75.4C81.5714 75.4 80.4062 76.568 80.4062 78V80.7523C77.6605 81.057 75.0465 81.8898 72.625 83.1187V78C72.625 76.568 71.4598 75.4 70.0312 75.4ZM108.938 75.4C107.509 75.4 106.344 76.568 106.344 78V83.2C106.344 84.632 107.509 85.8 108.938 85.8C110.366 85.8 111.531 84.632 111.531 83.2V78C111.531 76.568 110.366 75.4 108.938 75.4ZM121.906 75.4C120.478 75.4 119.312 76.568 119.312 78V83.2C119.312 84.632 120.478 85.8 121.906 85.8C123.335 85.8 124.5 84.632 124.5 83.2V78C124.5 76.568 123.335 75.4 121.906 75.4ZM18.1562 78C16.7277 78 15.5625 79.168 15.5625 80.6C15.5625 82.032 16.7277 83.2 18.1562 83.2H31.125C32.5536 83.2 33.7188 82.032 33.7188 80.6C33.7188 79.168 32.5536 78 31.125 78H18.1562ZM134.875 78C133.446 78 132.281 79.168 132.281 80.6C132.281 82.032 133.446 83.2 134.875 83.2H147.844C149.272 83.2 150.438 82.032 150.438 80.6C150.438 79.168 149.272 78 147.844 78H134.875ZM83 85.8C94.1552 85.8 103.233 96.3016 103.233 109.2C103.233 122.098 94.1552 132.6 83 132.6C71.8448 132.6 62.7667 122.098 62.7667 109.2C62.7667 96.3016 71.8448 85.8 83 85.8ZM23.3438 98.8C17.6193 98.8 12.9688 103.462 12.9688 109.2C12.9688 114.938 17.6193 119.6 23.3438 119.6C29.0682 119.6 33.7188 114.938 33.7188 109.2C33.7188 103.462 29.0682 98.8 23.3438 98.8ZM142.656 98.8C136.932 98.8 132.281 103.462 132.281 109.2C132.281 114.938 136.932 119.6 142.656 119.6C148.381 119.6 153.031 114.938 153.031 109.2C153.031 103.462 148.381 98.8 142.656 98.8ZM142.656 103.188C145.959 103.188 148.654 105.889 148.654 109.2C148.654 112.511 145.959 115.212 142.656 115.212C139.353 115.212 136.658 112.511 136.658 109.2C136.658 105.889 139.353 103.188 142.656 103.188ZM23.3438 103.238C26.6265 103.238 29.2911 105.909 29.2911 109.2C29.2911 112.491 26.6265 115.162 23.3438 115.162C20.061 115.162 17.3964 112.491 17.3964 109.2C17.3964 105.909 20.061 103.238 23.3438 103.238ZM44.0938 132.6C42.6652 132.6 41.5 133.768 41.5 135.2V140.4C41.5 141.832 42.6652 143 44.0938 143C45.5223 143 46.6875 141.832 46.6875 140.4V135.2C46.6875 133.768 45.5223 132.6 44.0938 132.6ZM57.0625 132.6C55.6339 132.6 54.4688 133.768 54.4688 135.2V140.4C54.4688 141.832 55.6339 143 57.0625 143C58.4911 143 59.6562 141.832 59.6562 140.4V135.2C59.6562 133.768 58.4911 132.6 57.0625 132.6ZM108.938 132.6C107.509 132.6 106.344 133.768 106.344 135.2V140.4C106.344 141.832 107.509 143 108.938 143C110.366 143 111.531 141.832 111.531 140.4V135.2C111.531 133.768 110.366 132.6 108.938 132.6ZM121.906 132.6C120.478 132.6 119.312 133.768 119.312 135.2V140.4C119.312 141.832 120.478 143 121.906 143C123.335 143 124.5 141.832 124.5 140.4V135.2C124.5 133.768 123.335 132.6 121.906 132.6ZM18.1562 135.2C16.7277 135.2 15.5625 136.368 15.5625 137.8C15.5625 139.232 16.7277 140.4 18.1562 140.4H31.125C32.5536 140.4 33.7188 139.232 33.7188 137.8C33.7188 136.368 32.5536 135.2 31.125 135.2H18.1562ZM134.875 135.2C133.446 135.2 132.281 136.368 132.281 137.8C132.281 139.232 133.446 140.4 134.875 140.4H147.844C149.272 140.4 150.438 139.232 150.438 137.8C150.438 136.368 149.272 135.2 147.844 135.2H134.875Z" fill="url(#paint0_linear)"/>
<defs>
<linearGradient id="paint0_linear" x1="83" y1="0" x2="83" y2="156" gradientUnits="userSpaceOnUse">
<stop stop-color="#FF8E00"/>
<stop offset="0.515625" stop-color="#D12D5F"/>
</linearGradient>
</defs>
</svg>
