<svg width="20" height="24" viewBox="0 0 20 24" fill="none" xmlns="http://www.w3.org/2000/svg">
<path d="M4.455 12.8988C4.43649 13.4967 4.46322 14.095 4.53499 14.6888C4.67499 15.3388 4.705 15.1188 4.105 15.1388C3.105 15.1388 2.175 15.2588 1.205 15.2488C1.05881 15.2534 0.91705 15.3001 0.796737 15.3833C0.676425 15.4665 0.582672 15.5826 0.526718 15.7177C0.470764 15.8528 0.45499 16.0013 0.481293 16.1451C0.507595 16.289 0.574857 16.4222 0.675003 16.5288C2.075 18.1188 3.48499 19.6888 4.88499 21.2688L6.705 23.2688C7.115 23.7288 7.515 24.1188 8.175 23.8788C8.835 23.6388 9.30499 22.8788 9.72499 22.3588C10.145 21.8388 10.785 21.1088 11.315 20.4788C12.475 19.0788 13.625 17.6588 14.805 16.2688C14.9051 16.1622 14.9724 16.029 14.9987 15.8851C15.025 15.7412 15.0092 15.5928 14.9533 15.4577C14.8973 15.3226 14.8036 15.2064 14.6833 15.1233C14.5629 15.0401 14.4212 14.9934 14.275 14.9888C13.525 14.9388 12.765 14.8988 12.015 14.9088C11.885 14.9088 11.165 15.0388 11.075 14.9088C10.985 14.7788 11.025 14.1288 11.025 13.9788C11.025 12.7188 11.085 11.4688 11.105 10.2188C11.105 9.44883 11.375 8.21884 10.465 7.81884C9.99338 7.7087 9.50665 7.67827 9.02499 7.72883H6.565L7.095 9.00884C8.58964 7.525 9.92984 5.89329 11.095 4.13883C11.574 3.32771 12.1017 2.54629 12.675 1.79883C13.045 1.38883 13.095 1.50883 13.465 1.97883C13.835 2.44883 14.145 2.87883 14.465 3.33883C15.725 5.08883 16.915 6.86883 18.265 8.54883L18.795 7.26883C17.645 7.26883 16.495 7.40883 15.345 7.46883C14.975 7.46883 14.545 7.79883 14.595 8.21883C14.685 9.09883 14.595 9.97883 14.705 10.8588C14.815 11.7388 16.315 11.8588 16.205 10.8588C16.095 9.85883 16.205 9.09883 16.095 8.21883L15.345 8.96883C16.495 8.90883 17.645 8.81883 18.795 8.76883C18.9412 8.76423 19.0829 8.71754 19.2032 8.63437C19.3236 8.55121 19.4173 8.4351 19.4733 8.29996C19.5292 8.16483 19.545 8.01641 19.5187 7.87253C19.4924 7.72866 19.4251 7.59543 19.325 7.48884C17.675 5.48884 16.325 3.21883 14.695 1.13883C14.145 0.43883 13.835 0.0288333 12.905 0.0488333C11.975 0.0688333 11.705 0.548826 11.255 1.22883C9.74031 3.63776 7.98824 5.88899 6.02499 7.94883C5.92485 8.05542 5.85759 8.18866 5.83128 8.33254C5.80498 8.47642 5.82076 8.62482 5.87671 8.75995C5.93266 8.89509 6.02643 9.01121 6.14674 9.09438C6.26706 9.17755 6.4088 9.22423 6.55499 9.22883H8.815C9.14794 9.25171 9.48206 9.25171 9.815 9.22883C9.605 8.69883 9.51499 8.62883 9.55499 8.99883V9.62883C9.55499 10.9488 9.49499 12.2688 9.47499 13.6288C9.47499 14.5088 9.175 16.0388 10.265 16.4088C10.7614 16.4937 11.2686 16.4937 11.765 16.4088C12.585 16.4088 13.405 16.4088 14.225 16.4888L13.695 15.2088C12.635 16.4588 11.595 17.7388 10.555 18.9988C10.015 19.6388 9.48499 20.2788 8.94499 20.9088C8.63499 21.2788 7.94499 22.3688 7.50499 22.4888L8.08499 22.5688C7.56499 22.3188 7.08499 21.4788 6.69499 21.0588L5.00499 19.1888L1.735 15.5088L1.205 16.7888C1.975 16.7888 2.745 16.7888 3.515 16.7088C4.16548 16.7704 4.82171 16.7197 5.455 16.5588C6.575 16.0588 5.995 13.8888 5.955 12.9388C5.915 11.9888 4.415 11.9388 4.455 12.9388V12.8988Z" fill="#BDACBB"/>
</svg>
