<svg width="194" height="220" viewBox="0 0 194 220" fill="none" xmlns="http://www.w3.org/2000/svg">
<path d="M59.6784 162.295L63.5211 180.656C84.2561 178.079 100.722 177.762 119.024 174.408C120.992 174.047 124.367 173.704 125.665 171.821C126.864 170.075 125.06 163.236 124.74 160.734C119.618 120.292 115.094 94.9982 108.753 59.7132C90.502 62.1582 82.6671 65.4387 60.3179 68.3543C54.1429 69.1627 43.394 69.5647 44.783 78.5386C46.3401 88.6005 53.7518 131.12 56.1164 144.426L59.6745 162.307L59.6784 162.295Z" fill="white"/>
<path d="M57.0327 162.718L59.6155 175.042L60.881 181.078C61.1836 182.537 62.4493 183.484 63.9501 183.302C76.6878 181.727 89.5021 180.92 102.256 179.516C108.264 178.855 114.208 177.939 120.16 176.93C122.887 176.471 125.96 175.869 127.734 173.529C129.135 171.682 128.801 168.98 128.517 166.842C128.245 164.812 127.776 162.819 127.459 160.801C126.952 157.63 126.635 154.423 126.213 151.239C125.366 144.824 124.485 138.414 123.558 132.006C121.915 120.647 120.124 109.305 118.215 97.9822C116.293 86.575 114.258 75.1859 112.212 63.7985C111.942 62.2935 111.673 60.7885 111.404 59.2892C111.135 57.7898 109.799 56.8713 108.335 57.0651C97.7893 58.4858 87.4656 60.9686 77.0298 62.9668C70.9462 64.1303 64.8131 65.1284 58.6602 65.8582C54.3372 66.3705 49.7548 66.8492 46.0451 69.3198C43.9847 70.6948 42.6544 72.7733 42.157 75.1866C41.795 76.9658 42.1141 78.7806 42.3969 80.5492C42.9121 83.7709 43.4555 86.9881 43.9988 90.2053C45.5731 99.5078 47.1802 108.799 48.793 118.09C50.2324 126.368 51.6717 134.647 53.1336 142.922C53.2476 143.562 53.3615 144.202 53.4746 144.837C53.7187 146.219 55.1068 147.354 56.5436 147.061C57.9804 146.768 59.0254 145.468 58.766 143.991C57.4187 136.396 56.0931 128.793 54.7683 121.195C53.1337 111.804 51.5095 102.406 49.9086 93.0091C49.2975 89.4042 48.6872 85.8049 48.093 82.1972C47.8975 80.975 47.6899 79.7489 47.5001 78.5258C47.4406 78.154 47.3803 77.7767 47.349 77.4004C47.3382 77.3328 47.3537 77.1051 47.3231 77.058C47.4919 77.3198 47.3109 77.6318 47.3287 77.2015C47.3409 76.9165 47.3474 76.6324 47.383 76.3495C47.4136 76.1077 47.4798 75.8719 47.5104 75.6301C47.4075 76.4668 47.4908 75.7604 47.5833 75.5087C47.652 75.3244 47.8222 75.0893 47.8553 74.8991C47.7698 75.3749 47.5674 75.3726 47.7491 75.101C47.8333 74.9778 47.9101 74.8442 48.0008 74.7257C48.1143 74.5689 48.2474 74.4263 48.3608 74.2695C48.5603 74.0008 47.845 74.7622 48.2032 74.4391C48.2843 74.3684 48.3579 74.2873 48.439 74.2166C48.5851 74.0835 48.7378 73.9551 48.8922 73.838C48.9949 73.758 49.1097 73.6819 49.2124 73.6019C49.4243 73.4467 49.7217 73.3934 49.0742 73.676C49.9651 73.2909 50.7753 72.7974 51.7118 72.4802C51.8264 72.4387 51.9475 72.402 52.063 72.3662C52.4857 72.2293 51.8264 72.4387 51.8039 72.4423C52.045 72.398 52.2902 72.3068 52.5287 72.2455C53.0666 72.1075 53.6138 71.9911 54.1627 71.886C55.1537 71.6929 56.1528 71.5504 57.1593 71.4184C62.9168 70.6709 68.666 69.9074 74.3859 68.8887C84.5563 67.0717 94.585 64.5494 104.8 62.9736C106.259 62.7461 107.715 62.542 109.179 62.3426L106.11 60.1185C108.157 71.5115 110.205 82.9101 112.157 94.3241C114.11 105.738 115.823 116.341 117.467 127.383C118.371 133.465 119.234 139.548 120.063 145.637C120.505 148.905 120.941 152.174 121.366 155.445C121.708 158.088 121.983 160.747 122.483 163.365C122.675 164.385 122.873 165.411 123.043 166.435C123.127 166.959 123.211 167.488 123.272 168.016C123.334 168.543 123.303 169.143 123.414 169.657C123.409 169.629 123.411 168.952 123.405 169.387C123.403 169.479 123.407 169.577 123.405 169.675C123.4 169.896 123.389 170.117 123.361 170.335C123.344 170.482 123.284 170.648 123.284 170.798C123.277 170.245 123.459 170.192 123.347 170.47C123.17 170.914 123.685 170.018 123.517 170.195C123.453 170.263 123.387 170.354 123.336 170.437C123.167 170.713 123.83 170.058 123.384 170.372C123.291 170.439 123.193 170.518 123.107 170.59C122.699 170.926 123.242 170.499 123.239 170.516C123.211 170.631 122.5 170.877 122.397 170.917C122.278 170.965 122.157 171.007 122.037 171.049C121.944 171.082 121.851 171.114 121.763 171.14C121.565 171.2 121.637 171.183 121.983 171.07C121.781 171.033 121.328 171.238 121.128 171.282C120.849 171.343 120.563 171.401 120.283 171.451C119.744 171.549 119.21 171.635 118.671 171.732C117.172 172.001 115.679 172.263 114.176 172.503C111.204 172.978 108.221 173.392 105.238 173.759C92.8771 175.274 80.4352 176.027 68.0586 177.406C66.4023 177.59 64.7478 177.785 63.095 177.992L66.1641 180.216L63.5813 167.892L62.3158 161.856C62.0275 160.487 60.7107 159.328 59.2467 159.632C57.8831 159.913 56.7199 161.231 57.0243 162.702L57.0327 162.718Z" fill="#47B2B7"/>
<path d="M72.8099 86.1813C68.5525 88.5835 65.9667 93.0636 64.8513 97.713C64.1616 100.584 64.5035 103.372 65.4602 106.142C65.923 107.483 66.5323 108.766 67.2902 109.968C67.6622 110.561 68.07 111.125 68.5089 111.667C68.8761 112.123 69.1567 112.65 69.5645 113.07C70.8344 114.368 72.1129 115.649 73.8139 116.393C74.6522 116.762 75.5445 116.89 76.4474 116.977C77.6838 117.091 78.8914 117.314 80.1229 117.47C83.01 117.834 85.7613 116.88 88.3327 115.631C90.7706 114.45 92.7178 112.475 94.3669 110.368C95.8724 108.447 96.4729 106.028 95.225 103.785C94.1327 101.828 91.8778 100.796 89.6759 101.143C87.141 101.536 86.005 103.711 84.3708 105.405C83.8857 105.91 83.6068 106.151 82.8982 106.305C81.6922 106.561 80.483 106.726 79.2937 106.292C78.57 106.026 77.6461 105.7 77.0571 105.194C76.1922 104.443 75.6959 103.072 75.493 101.984C75.1532 100.184 75.7744 98.1843 77.1806 96.9774C78.8205 95.5714 81.4608 94.9701 83.3858 96.141C84.281 96.6853 85.0948 97.514 86.1524 97.7377C87.371 97.9933 88.7238 98.0774 89.9231 97.7065C92.0183 97.0538 93.2706 94.8491 93.3733 92.7473C93.4271 91.6759 93.0463 90.7028 92.4982 89.8027C91.9502 88.9025 91.2681 88.4282 90.4782 87.8209C89.6883 87.2136 88.8079 86.8345 87.957 86.3872C87.0304 85.9 86.0528 85.4902 85.0537 85.1994C82.3118 84.4075 79.6456 84.3776 76.8866 85.0672C75.4766 85.4198 74.0923 85.8607 72.6796 86.1963C72.0234 86.3533 72.1844 87.3961 72.8462 87.2383C75.4876 86.608 78.1509 85.5004 80.9097 85.5676C83.2102 85.6213 85.5536 86.3037 87.5832 87.3712C89.342 88.2972 91.1321 89.1662 91.9914 91.0737C92.8507 92.9811 91.9372 95.536 90.094 96.5008C89.0078 97.0731 87.5023 96.973 86.3429 96.6906C85.3641 96.4543 84.5956 95.5836 83.7233 95.1108C81.8573 94.0922 79.6885 94.3929 77.8588 95.2978C76.6336 95.9038 75.7899 96.8012 75.1169 97.9717C73.9348 100.038 74.2393 102.52 75.3273 104.558C76.1431 106.085 77.5394 106.838 79.1518 107.354C80.1498 107.674 81.1732 107.684 82.2024 107.513C82.9173 107.399 83.7858 107.306 84.3969 106.868C85.9562 105.752 86.6947 103.728 88.3413 102.725C90.3512 101.502 93.2041 102.23 94.3227 104.316C94.858 105.316 95.0291 106.531 94.7258 107.631C94.3775 108.882 93.4185 109.925 92.5895 110.878C91.7113 111.885 90.7483 112.83 89.6673 113.615C88.5862 114.4 87.3408 114.952 86.0743 115.443C84.6884 115.983 83.2734 116.521 81.7682 116.531C80.4476 116.54 79.1666 116.219 77.8649 116.057C76.9696 115.946 76.0502 115.937 75.1696 115.737C74.289 115.537 73.4635 115.069 72.7247 114.528C71.194 113.404 70.0877 112.01 68.9466 110.506C67.2562 108.275 66.1502 105.546 65.6806 102.791C65.2111 100.035 65.8263 97.5282 66.7906 95.0749C67.6424 92.9285 68.8554 90.8745 70.4995 89.2426C71.3268 88.4229 72.2461 87.7098 73.2574 87.1379C73.8453 86.8071 73.4138 85.8421 72.8212 86.1795L72.8099 86.1813Z" fill="#47B2B7"/>
<path d="M79.4408 97.8983C78.1326 98.4541 77.4168 99.8625 77.5634 101.249C77.71 102.635 78.7235 104.026 80.0804 104.497C81.5589 105.005 83.1199 104.19 84.0553 103.035C84.5569 102.418 84.6695 101.678 84.6089 100.902C84.5484 100.126 84.4063 99.3455 83.9465 98.7085C82.8958 97.2649 80.868 97.2195 79.4093 97.99C78.8131 98.3049 79.2445 99.2698 79.8455 98.9485C80.7982 98.4437 82.0287 98.3047 82.8812 99.0868C83.2735 99.4458 83.4203 99.9306 83.4966 100.444C83.5729 100.958 83.6786 101.582 83.4232 102.079C83.1679 102.576 82.6894 102.942 82.2481 103.214C81.8068 103.487 81.2864 103.663 80.7536 103.58C79.7537 103.428 78.9518 102.494 78.6927 101.559C78.4006 100.491 78.8273 99.2961 79.8817 98.8502C80.5095 98.5881 80.0724 97.624 79.4456 97.8918L79.4408 97.8983Z" fill="#47B2B7"/>
<path d="M54.0646 115.387C54.7345 115.28 54.5678 114.238 53.898 114.345C53.2281 114.452 53.3947 115.494 54.0646 115.387Z" fill="#47B2B7"/>
<path d="M104.432 125.909C104.432 125.909 75.7555 130.05 65.6709 133.234C63.2197 134.007 65.1778 139.032 65.2515 139.239C66.6536 143.422 110.808 133.9 110.808 133.9L110.195 130.065C110.195 130.065 110.186 125.387 104.433 125.914L104.432 125.909Z" fill="white" stroke="url(#paint0_linear_6378_9435)" stroke-width="1.88" stroke-miterlimit="10"/>
<path d="M87.9344 136.894L86.9229 130.569C86.8508 130.118 86.1463 130.225 86.2192 130.682L87.2308 137.007C87.3028 137.457 88.0074 137.35 87.9344 136.894Z" fill="url(#paint1_linear_6378_9435)"/>
<path d="M74.1593 134.401C73.6844 134.067 72.9337 134.065 72.437 134.353C72.199 134.489 72.0337 134.683 71.9851 134.957C71.9385 135.207 71.9711 135.519 72.0342 135.769C72.1886 136.374 72.809 136.535 73.3298 136.723C73.5205 136.796 73.9454 136.89 74.0049 137.117C74.0533 137.312 74.0497 137.578 73.9324 137.747C73.745 138.02 73.3485 138.175 73.0326 138.186C72.6942 138.199 72.2866 138.033 72.2441 137.659C72.2139 137.398 71.8142 137.462 71.8387 137.724C71.9167 138.428 72.734 138.701 73.3395 138.552C73.8783 138.42 74.4318 138.054 74.4264 137.443C74.4232 137.206 74.439 136.944 74.2658 136.764C74.0434 136.528 73.6739 136.419 73.3802 136.316C73.1044 136.216 72.7338 136.137 72.5347 135.903C72.3859 135.73 72.3895 135.464 72.3778 135.246C72.3649 134.913 72.5189 134.721 72.8373 134.618C73.1557 134.515 73.6317 134.531 73.919 134.74C74.1336 134.89 74.3748 134.557 74.1602 134.407L74.1593 134.401Z" fill="url(#paint2_linear_6378_9435)"/>
<path d="M75.7384 133.842C75.4216 133.847 75.1167 133.89 74.8134 133.979C74.681 134.017 74.4662 134.046 74.3754 134.164C74.2016 134.377 74.2602 134.743 74.3045 134.984C74.3613 135.339 74.4227 135.687 74.4851 136.041L74.6657 137.098C74.7216 137.448 74.7529 137.824 74.8528 138.16C74.9528 138.497 75.2307 138.429 75.4889 138.347L76.5454 138.022C76.7933 137.948 76.6242 137.577 76.3763 137.651L75.7706 137.834L75.4297 137.941C75.38 137.955 75.3311 137.974 75.2813 137.988C75.2532 137.992 75.2316 138.001 75.2043 138.012C75.1537 138.02 75.1546 138.025 75.2079 138.034C75.2496 138.114 75.2273 137.939 75.2255 137.927L75.1507 137.46L75.0332 136.797L74.8211 135.543C74.7859 135.323 74.7452 135.104 74.71 134.885C74.6803 134.699 74.6589 134.529 74.7398 134.348L74.636 134.458C74.9724 134.323 75.3468 134.246 75.7096 134.24C75.9683 134.233 76.014 133.833 75.7544 133.834L75.7384 133.842Z" fill="url(#paint3_linear_6378_9435)"/>
<path d="M74.7844 136.432L75.8089 136.269C75.9158 136.251 76.0027 136.145 75.9791 136.033C75.9555 135.922 75.8566 135.845 75.744 135.863L74.7195 136.027C74.6126 136.044 74.5256 136.15 74.5493 136.262C74.5729 136.374 74.6718 136.45 74.7844 136.432Z" fill="url(#paint4_linear_6378_9435)"/>
<path d="M76.7548 134.639C76.7877 135.061 76.9106 135.469 77.0271 135.872C77.1399 136.252 77.261 136.649 77.25 137.049C77.2455 137.31 77.651 137.355 77.6555 137.094C77.678 136.224 77.2229 135.436 77.1554 134.58C77.1365 134.318 76.7312 134.382 76.7501 134.645L76.7548 134.639Z" fill="url(#paint5_linear_6378_9435)"/>
<path d="M76.8336 134.77C77.3511 135.19 77.8034 135.672 78.2812 136.133C78.5141 136.362 78.7582 136.588 79.0061 136.803C79.1795 136.948 79.4447 137.091 79.5983 136.824C79.6618 136.715 79.6428 136.597 79.6248 136.484C79.5942 136.293 79.5523 136.103 79.5217 135.912L79.3217 134.806L78.9099 132.555C78.8628 132.297 78.4575 132.362 78.5046 132.62L79.2006 136.431C79.2006 136.431 79.2209 136.63 79.233 136.634C79.3672 136.606 79.3844 136.569 79.2965 136.525L79.2434 136.482C79.1362 136.389 79.029 136.297 78.9275 136.203C78.7113 136.007 78.5055 135.803 78.2997 135.599C77.9021 135.206 77.5035 134.808 77.0718 134.455C76.8667 134.291 76.6303 134.618 76.8307 134.788L76.8336 134.77Z" fill="url(#paint6_linear_6378_9435)"/>
<path d="M80.4239 133.936C80.4962 134.641 80.6473 135.333 80.8819 136.006C80.9159 136.11 81.0609 136.151 81.1521 136.107C81.2593 136.055 81.2872 135.941 81.2532 135.837C81.0362 135.202 80.9017 134.541 80.8292 133.871C80.8047 133.61 80.3994 133.674 80.4239 133.936Z" fill="url(#paint7_linear_6378_9435)"/>
<path d="M80.6009 134.104C81.0366 133.977 81.4836 133.848 81.9373 133.833C82.2813 133.818 82.6887 133.874 82.958 134.114C83.49 134.59 83.0134 135.399 82.5707 135.736C82.2514 135.978 81.854 136.128 81.4505 136.06C81.1893 136.015 81.1501 136.42 81.4057 136.465C82.2717 136.61 83.198 135.976 83.4966 135.172C83.6378 134.791 83.6386 134.364 83.4103 134.019C83.1728 133.653 82.7193 133.488 82.3016 133.44C81.7022 133.374 81.1107 133.538 80.5426 133.704C80.4374 133.732 80.3534 133.82 80.3724 133.939C80.3877 134.034 80.4967 134.138 80.6074 134.109L80.6009 134.104Z" fill="url(#paint8_linear_6378_9435)"/>
<path d="M94.2177 130.806C93.5271 130.928 92.8547 131.128 92.2119 131.404C91.9957 131.496 92.1473 131.83 92.3634 131.738C92.9799 131.478 93.6185 131.283 94.2753 131.167C94.5061 131.13 94.4476 130.764 94.2177 130.806Z" fill="url(#paint9_linear_6378_9435)"/>
<path d="M92.9696 131.485C93.0637 132.579 93.2817 133.653 93.6161 134.697C93.6868 134.923 94.0196 134.766 93.9498 134.546C93.632 133.534 93.4242 132.487 93.3355 131.427C93.3154 131.193 92.9552 131.251 92.9752 131.484L92.9696 131.485Z" fill="url(#paint10_linear_6378_9435)"/>
<path d="M94.5637 131.201C94.7826 132.137 94.979 133.076 95.1641 134.017C95.203 134.224 95.5361 134.177 95.4906 133.964C95.3111 133.023 95.1091 132.085 94.8902 131.149C94.84 130.943 94.5126 130.99 94.5637 131.201Z" fill="url(#paint11_linear_6378_9435)"/>
<path d="M94.7099 131.357C94.9648 131.362 95.1875 131.275 95.436 131.241C95.7071 131.203 95.84 131.384 95.9398 131.611C95.9951 131.741 96.0393 131.872 96.0722 132.006C96.0812 132.062 96.1246 132.153 96.1158 132.207C96.1062 132.254 96.1212 132.24 96.0564 132.268C95.7689 132.383 95.4786 132.482 95.1893 132.586C95.0042 132.656 95.0841 132.903 95.2451 132.935C96.0726 133.092 96.8463 133.453 97.5112 133.965C97.6959 134.109 97.9143 133.814 97.724 133.671C97.0059 133.116 96.1715 132.735 95.285 132.571L95.3408 132.92L95.9082 132.713C96.0614 132.66 96.2566 132.617 96.3773 132.506C96.6186 132.282 96.4099 131.807 96.3122 131.557C96.1951 131.258 96.0199 130.957 95.6849 130.883C95.3498 130.81 95.0683 130.999 94.7497 130.993C94.5174 130.983 94.4719 131.349 94.7099 131.357Z" fill="url(#paint12_linear_6378_9435)"/>
<path d="M96.9307 130.551C97.08 131.088 97.2669 131.607 97.5092 132.111C97.6294 132.357 97.7609 132.602 97.9028 132.839C98.0271 133.039 98.1467 133.245 98.3227 133.408C98.6283 133.694 99.093 133.712 99.2925 133.299C99.492 132.886 99.3578 132.335 99.2837 131.908C99.168 131.256 98.9791 130.617 98.7309 130.003C98.6442 129.786 98.3105 129.938 98.3972 130.155C98.626 130.719 98.7947 131.305 98.907 131.899C98.9568 132.174 99.014 132.459 99.0235 132.735C99.03 132.884 99.028 133.197 98.8402 133.25C98.6524 133.303 98.4574 133.022 98.3729 132.891C98.2133 132.651 98.0687 132.397 97.9411 132.14C97.6718 131.611 97.456 131.056 97.2948 130.482C97.2354 130.254 96.8695 130.313 96.9345 130.539L96.9307 130.551Z" fill="url(#paint13_linear_6378_9435)"/>
<path d="M100.578 129.535C100.145 129.604 99.5706 129.586 99.3353 130.028C99.1797 130.319 99.2024 130.714 99.4427 130.953C99.7705 131.27 100.329 131.186 100.744 131.258C101.19 131.337 101.7 131.677 101.615 132.188C101.506 132.806 100.852 132.945 100.324 132.995C100.09 133.015 100.149 133.381 100.381 133.356C100.865 133.313 101.384 133.201 101.715 132.813C101.987 132.492 102.09 131.985 101.885 131.602C101.656 131.182 101.138 130.941 100.684 130.881C100.442 130.85 100.194 130.85 99.9498 130.802C99.7831 130.771 99.6449 130.701 99.6104 130.521C99.4877 129.934 100.265 129.955 100.637 129.901C100.868 129.864 100.81 129.503 100.579 129.54L100.578 129.535Z" fill="url(#paint14_linear_6378_9435)"/>
<path d="M103.412 129.203L101.661 129.483C101.374 129.529 101.445 129.974 101.732 129.928L103.483 129.648C103.77 129.602 103.699 129.157 103.412 129.203Z" fill="url(#paint15_linear_6378_9435)"/>
<path d="M103.251 129.569L103.799 132.601C103.84 132.854 104.234 132.791 104.188 132.539L103.64 129.507C103.599 129.254 103.205 129.317 103.251 129.569Z" fill="url(#paint16_linear_6378_9435)"/>
<path d="M45.5353 80.4632C44.9797 77.9642 44.3618 74.9668 45.215 72.4678C45.5579 71.4714 46.273 70.6003 46.9141 69.7353C47.7215 68.6473 48.5634 67.5942 49.4632 66.5781C50.3629 65.562 51.2402 64.6938 52.2622 63.9008C53.2221 63.1523 54.1502 62.819 55.4179 62.443C59.0942 61.3525 62.8099 60.4002 66.5594 59.5868C74.0528 57.961 81.6709 56.8987 89.3219 56.4029C93.1108 56.1609 96.91 56.0559 100.71 56.1009C102.625 56.124 104.545 56.1808 106.46 56.2789C108.072 56.3619 109.779 56.3489 111.36 56.7373C112.766 57.0843 113.763 57.9067 114.376 59.2124C115.059 60.6629 115.341 62.2814 115.699 63.8358C116.585 67.6798 117.426 71.531 118.228 75.3886C119.832 83.1093 121.263 90.8692 122.525 98.6505C125.048 114.173 126.895 129.803 128.063 145.484C128.357 149.417 128.606 153.351 128.813 157.286C128.915 159.257 129.01 161.223 129.095 163.197C129.151 164.522 129.195 165.844 129.013 167.161C128.932 167.74 128.887 167.996 128.735 168.459C128.663 168.69 128.578 168.917 128.48 169.135C128.337 169.47 128.314 169.508 128.193 169.689C127.677 170.465 127.11 171.041 126.36 171.513C123.597 173.261 120.011 173.828 116.83 174.262C114.948 174.517 113.053 174.687 111.16 174.874C109.268 175.061 109.791 177.866 111.611 177.69C115.539 177.311 119.49 176.962 123.286 175.829C125.949 175.039 128.764 173.942 130.383 171.54C131.815 169.411 132.029 166.817 131.965 164.321C131.861 160.277 131.612 156.232 131.365 152.194C130.359 135.794 128.61 119.443 126.127 103.198C124.886 95.0784 123.459 86.9829 121.853 78.9274C121.052 74.9254 120.21 70.9241 119.319 66.9422C118.885 64.9898 118.457 63.0308 117.973 61.0865C117.565 59.4418 117.052 57.7852 116.003 56.4222C113.715 53.4494 109.604 53.558 106.22 53.406C102.259 53.2249 98.2959 53.206 94.3363 53.3193C86.3084 53.5518 78.2942 54.4118 70.396 55.8886C66.5393 56.6094 62.707 57.4822 58.914 58.4931C56.9434 59.022 54.9549 59.5479 53.0201 60.1924C51.8526 60.5813 50.8139 61.3424 49.8846 62.1379C47.7113 63.9989 45.8596 66.2821 44.1922 68.5994C43.4413 69.6437 42.725 70.6883 42.3898 71.9492C41.9863 73.4694 41.9453 75.0182 42.0458 76.5849C42.1451 78.0362 42.3926 79.4754 42.7058 80.8925C43.101 82.6778 45.9174 82.239 45.5204 80.4424L45.5353 80.4632Z" fill="#47B2B7"/>
<path d="M51.9317 69.4874C52.1528 68.9206 52.4039 68.3606 52.6811 67.8195C52.7067 67.7634 52.7389 67.7121 52.7646 67.656C52.7788 67.6364 52.9202 67.3654 52.8092 67.5737C52.6982 67.7821 52.8319 67.5355 52.8538 67.4915C52.8898 67.428 52.9306 67.3579 52.9666 67.2944C53.121 67.0329 53.2811 66.7704 53.4487 66.5184C53.7733 66.0217 54.1232 65.5382 54.4993 65.0738C54.692 64.835 54.8857 64.6019 55.0924 64.3782C55.1311 64.3315 55.1763 64.2896 55.2151 64.243C55.4265 64.0128 55.0566 64.407 55.1858 64.2766C55.3047 64.1536 55.4188 64.0371 55.5377 63.9141C55.8066 63.6459 56.009 63.3593 56.0509 62.9714C56.0869 62.619 55.9754 62.1748 55.7363 61.9068C55.2589 61.3767 54.2923 61.1442 53.7301 61.7078C51.8038 63.6333 50.2736 65.9055 49.2777 68.4504C49.0079 69.1463 49.3657 70.048 50.0923 70.2957C50.819 70.5434 51.6458 70.2263 51.9365 69.4809L51.9317 69.4874Z" fill="#47B2B7"/>
<path d="M63.3069 65.4213C63.4909 64.9471 63.7048 64.4796 63.9504 64.0302L63.7768 64.3526C64.1524 63.6687 64.5971 63.0199 65.1071 62.4185C65.33 62.1518 65.4127 61.6938 65.3586 61.3558C65.3046 61.0179 65.085 60.6197 64.7883 60.4246C64.4915 60.2294 64.1006 60.0956 63.7261 60.1728C63.3517 60.25 63.0533 60.4421 62.7955 60.7433C61.8879 61.8184 61.159 63.0729 60.6472 64.3852C60.5119 64.7303 60.5279 65.1552 60.6803 65.4947C60.8227 65.807 61.1327 66.1213 61.4619 66.2304C61.8163 66.3528 62.2239 66.3743 62.5709 66.1975C62.9179 66.0207 63.1716 65.7664 63.306 65.4156L63.3069 65.4213Z" fill="#47B2B7"/>
<path d="M71.2196 63.8902C72.3224 62.9166 73.3519 61.8451 74.2834 60.7026C74.5054 60.4303 74.5889 59.9779 74.5349 59.6399C74.4808 59.302 74.2613 58.9039 73.9645 58.7087C73.6678 58.5136 73.2769 58.3797 72.9024 58.4569C72.528 58.5341 72.2231 58.7215 71.9718 59.0274C71.6043 59.4732 71.2238 59.9095 70.8293 60.3307L71.0813 60.0652C70.5481 60.6299 69.9879 61.17 69.4063 61.6847C69.1329 61.9248 68.933 62.263 68.8931 62.6275C68.8533 62.992 68.9686 63.4241 69.2077 63.692C69.4468 63.9599 69.7819 64.1778 70.15 64.2056C70.5182 64.2334 70.9199 64.146 71.2139 63.8911L71.2196 63.8902Z" fill="#47B2B7"/>
<path d="M80.285 62.348C80.7446 62.0088 81.1058 61.5235 81.3976 61.0379C81.7405 60.4747 82.033 59.8849 82.3451 59.3094L82.1715 59.6317C82.4218 59.1758 82.6826 58.7124 83.0356 58.3209L82.7837 58.5865C82.8771 58.4849 82.978 58.3937 83.0919 58.3119C83.6909 57.8695 83.7836 56.8612 83.2905 56.3046C82.7564 55.7084 81.9246 55.6335 81.2843 56.1056C80.8247 56.4448 80.4635 56.93 80.1717 57.4157C79.8288 57.9789 79.5363 58.5686 79.2242 59.1442L79.3978 58.8218C79.1475 59.2778 78.8867 59.7411 78.5337 60.1326L78.7856 59.8671C78.6922 59.9686 78.5913 60.0599 78.4774 60.1416C77.8784 60.584 77.7857 61.5924 78.2788 62.1489C78.8129 62.7451 79.6447 62.8201 80.285 62.348Z" fill="#47B2B7"/>
<path d="M87.8986 62.5572C88.5917 62.0535 89.1296 61.3379 89.6252 60.6463C90.1208 59.9548 90.5477 59.3031 91.1045 58.7057L90.8526 58.9713C91.0404 58.7737 91.2356 58.5865 91.4531 58.4305C92.0586 57.9928 92.1439 56.9741 91.6517 56.4232C91.111 55.8222 90.2923 55.7568 89.6454 56.2241C88.9524 56.7278 88.4144 57.4434 87.9189 58.135C87.4233 58.8265 86.9964 59.4782 86.4395 60.0756L86.6915 59.81C86.5037 60.0076 86.3085 60.1948 86.091 60.3508C85.4855 60.7885 85.4002 61.8072 85.8924 62.3581C86.433 62.9591 87.2517 63.0245 87.8986 62.5572Z" fill="#47B2B7"/>
<path d="M97.2809 59.9997C98.6484 59.1282 99.8942 58.0741 101.262 57.2027C101.545 57.0245 101.738 56.5719 101.775 56.2599C101.811 55.9076 101.699 55.4633 101.46 55.1954C101.221 54.9275 100.886 54.7095 100.518 54.6818C100.109 54.6547 99.8003 54.7792 99.454 54.9963C98.0865 55.8677 96.8407 56.9219 95.4733 57.7933C95.19 57.9715 94.9968 58.4241 94.9601 58.7361C94.9241 59.0884 95.0355 59.5327 95.2747 59.8006C95.5138 60.0685 95.8489 60.2864 96.217 60.3142C96.6255 60.3413 96.9346 60.2168 97.2809 59.9997Z" fill="#47B2B7"/>
<path d="M114.833 66.6141C114.691 67.0989 114.525 67.5761 114.328 68.0408C114.232 68.2756 114.125 68.5065 114.017 68.7317C113.964 68.8383 113.912 68.9448 113.854 69.0523C113.823 69.1093 113.793 69.1719 113.761 69.2289C113.682 69.3803 113.941 68.9056 113.801 69.1532C113.295 70.0313 112.71 70.8526 112.035 71.6077C111.804 71.864 111.731 72.3436 111.783 72.6703C111.838 73.0139 112.057 73.4064 112.353 73.6015C112.65 73.7967 113.041 73.9306 113.416 73.8534C113.807 73.7734 114.076 73.5802 114.346 73.2829C115.792 71.6768 116.882 69.7176 117.492 67.6502C117.6 67.2749 117.627 66.9066 117.459 66.5407C117.317 66.2284 117.007 65.9141 116.678 65.805C116 65.5726 115.058 65.8561 114.834 66.6198L114.833 66.6141Z" fill="#47B2B7"/>
<path d="M117.355 77.1514C116.3 78.7872 115.362 80.5027 114.549 82.2789C114.237 82.9586 114.662 83.8841 115.364 84.1242C116.133 84.3825 116.88 84.0377 117.208 83.3094C117.575 82.4998 117.974 81.7082 118.398 80.9299L118.224 81.2522C118.676 80.4291 119.158 79.6183 119.666 78.8265C120.069 78.2019 120.013 77.275 119.348 76.8327C118.734 76.4225 117.79 76.481 117.355 77.1514Z" fill="#47B2B7"/>
<path d="M117.895 85.4407L115.658 90.0442C115.507 90.3629 115.549 90.8414 115.692 91.1537C115.834 91.466 116.144 91.7803 116.473 91.8894C116.827 92.0118 117.235 92.0333 117.582 91.8565C117.929 91.6797 118.148 91.4252 118.317 91.0746L120.554 86.4712C120.705 86.1524 120.663 85.6739 120.521 85.3617C120.379 85.0494 120.069 84.735 119.739 84.6259C119.385 84.5036 118.978 84.4821 118.631 84.6589C118.284 84.8357 118.064 85.0902 117.895 85.4407Z" fill="#47B2B7"/>
<path d="M119.805 98.6117C121.445 97.5639 122.716 96.0205 123.557 94.2744C123.708 93.9556 123.666 93.4771 123.524 93.1648C123.382 92.8526 123.072 92.5382 122.742 92.4291C122.388 92.3067 121.98 92.2853 121.633 92.4621C121.286 92.6389 121.067 92.8934 120.898 93.2439C120.833 93.3757 120.767 93.5075 120.701 93.6336L120.874 93.3113C120.495 94.0074 120.027 94.6541 119.48 95.2384L119.732 94.9728C119.213 95.5179 118.631 95.9979 117.998 96.4054C117.714 96.5835 117.521 97.0361 117.485 97.3481C117.449 97.7005 117.56 98.1448 117.799 98.4127C118.038 98.6806 118.373 98.8985 118.741 98.9263L119.121 98.9176C119.374 98.877 119.6 98.7716 119.8 98.6126L119.805 98.6117Z" fill="#47B2B7"/>
<path d="M122.481 101.586C121.255 102.262 120.188 103.172 119.372 104.313C119.16 104.613 119.062 105.01 119.121 105.376C119.179 105.742 119.394 106.112 119.691 106.307C119.988 106.502 120.379 106.636 120.753 106.559C121.127 106.482 121.457 106.302 121.684 105.988C121.882 105.714 122.094 105.449 122.326 105.204L122.074 105.469C122.528 104.987 123.038 104.564 123.599 104.209L123.283 104.404C123.404 104.327 123.531 104.254 123.658 104.182C123.987 104.002 124.255 103.763 124.393 103.4C124.519 103.068 124.527 102.611 124.36 102.291C124.193 101.971 123.932 101.672 123.578 101.555C123.225 101.438 122.803 101.402 122.469 101.588L122.481 101.586Z" fill="#47B2B7"/>
<path d="M122.037 113.539C123.07 112.744 124.005 111.804 124.818 110.784C125.039 110.506 125.124 110.065 125.069 109.721C125.014 109.378 124.795 108.985 124.499 108.79C124.202 108.595 123.811 108.461 123.437 108.538C123.062 108.616 122.752 108.804 122.506 109.109C122.252 109.433 121.978 109.742 121.698 110.047L121.95 109.781C121.416 110.346 120.841 110.865 120.229 111.333C119.951 111.545 119.754 111.935 119.716 112.276C119.678 112.617 119.791 113.072 120.031 113.34C120.558 113.932 121.404 114.022 122.037 113.539Z" fill="#47B2B7"/>
<path d="M123.865 115.586C123.551 116.255 123.217 116.915 122.865 117.566L123.039 117.243C122.579 118.085 122.082 118.91 121.557 119.71C121.149 120.336 121.211 121.262 121.876 121.704C122.496 122.113 123.427 122.051 123.869 121.385C124.867 119.863 125.754 118.265 126.524 116.617C126.674 116.292 126.634 115.825 126.491 115.507C126.348 115.189 126.038 114.881 125.709 114.772C124.934 114.509 124.2 114.863 123.865 115.586Z" fill="#47B2B7"/>
<path d="M124.661 129.767L126.847 126.905C127.067 126.621 127.155 126.197 127.099 125.842C127.042 125.487 126.825 125.106 126.528 124.911C126.232 124.716 125.841 124.582 125.466 124.659C125.092 124.736 124.775 124.92 124.536 125.23L122.349 128.092C122.129 128.376 122.041 128.8 122.098 129.155C122.154 129.51 122.371 129.891 122.668 130.086C122.965 130.281 123.356 130.415 123.73 130.338C124.105 130.261 124.422 130.077 124.661 129.767Z" fill="#47B2B7"/>
<path d="M126.053 132.554C125.513 132.86 124.992 133.209 124.529 133.636C124.066 134.062 123.65 134.527 123.304 135.039C123.093 135.344 122.993 135.73 123.053 136.101C123.108 136.445 123.326 136.837 123.623 137.033C123.92 137.228 124.311 137.362 124.685 137.284C125.06 137.207 125.4 137.026 125.616 136.714C125.813 136.428 126.029 136.157 126.265 135.9L126.013 136.165C126.399 135.763 126.827 135.405 127.299 135.11L126.984 135.305C127.068 135.251 127.152 135.203 127.237 135.155C127.416 135.08 127.56 134.97 127.675 134.825C127.811 134.699 127.914 134.55 127.972 134.373C128.098 134.041 128.106 133.583 127.939 133.263C127.772 132.944 127.511 132.645 127.158 132.528C126.804 132.411 126.382 132.369 126.049 132.561L126.053 132.554Z" fill="#47B2B7"/>
<path d="M126.844 146.846L128.771 144.279C128.991 143.99 129.079 143.571 129.023 143.216C128.966 142.861 128.749 142.48 128.452 142.285C128.156 142.09 127.765 141.956 127.39 142.033C127.016 142.11 126.693 142.295 126.46 142.604L124.532 145.171C124.313 145.46 124.224 145.878 124.28 146.233C124.337 146.588 124.554 146.969 124.851 147.164C125.148 147.36 125.539 147.494 125.913 147.416C126.287 147.339 126.61 147.155 126.844 146.846Z" fill="#47B2B7"/>
<path d="M128.607 151.63C126.847 152.789 125.476 154.47 124.574 156.37C124.423 156.689 124.465 157.168 124.607 157.48C124.749 157.792 125.059 158.106 125.388 158.215C126.164 158.479 126.892 158.125 127.233 157.401C127.319 157.219 127.411 157.037 127.509 156.854L127.335 157.176C127.752 156.422 128.258 155.723 128.849 155.092L128.597 155.357C129.146 154.778 129.751 154.271 130.414 153.83C130.697 153.647 130.892 153.205 130.927 152.888C130.963 152.535 130.852 152.091 130.613 151.823C130.374 151.555 130.039 151.337 129.67 151.309C129.268 151.281 128.946 151.402 128.606 151.624L128.607 151.63Z" fill="#47B2B7"/>
<path d="M125.006 69.4698L146.435 72.2119C147.915 72.4028 149.485 71.2101 149.583 69.6926C149.681 68.1751 148.644 66.7466 147.064 66.5429L125.635 63.8007C124.155 63.6099 122.585 64.8025 122.487 66.32C122.389 67.8376 123.426 69.2661 125.006 69.4698Z" fill="#47B2B7"/>
<path d="M125.323 50.842C125.935 50.1203 126.568 49.4184 127.199 48.7108C127.42 48.4676 126.922 48.9978 127.293 48.6093C127.466 48.4313 127.634 48.2543 127.808 48.0763C128.149 47.7213 128.504 47.3758 128.853 47.0311C130.176 45.7393 131.561 44.507 132.997 43.3416C134.433 42.1762 135.925 41.0768 137.464 40.0452C137.839 39.7945 138.221 39.5486 138.598 39.3035C138.702 39.2348 138.808 39.1717 138.912 39.1031C138.671 39.2571 138.633 39.2747 138.808 39.1717C138.987 39.0679 139.16 38.9594 139.334 38.8508C140.182 38.3454 141.039 37.856 141.912 37.3929C143.225 36.6862 144.055 35.0516 143.323 33.6148C142.658 32.3116 140.955 31.446 139.546 32.2028C132.336 36.0707 125.981 41.2403 120.705 47.4907C119.739 48.633 120.123 50.6686 121.342 51.4728C122.71 52.3747 124.294 52.0579 125.322 50.8364L125.323 50.842Z" fill="#47B2B7"/>
<path d="M109.259 47.2129C105.782 41.0682 102.907 34.6021 100.723 27.8809C100.328 26.6733 98.5847 26.1319 97.5118 26.6789C96.2358 27.3278 95.8902 28.5961 96.311 29.892C98.4934 36.6076 101.37 43.0793 104.847 49.224C105.467 50.3262 106.82 51.0572 108.058 50.426C109.142 49.8715 109.927 48.3942 109.259 47.2129Z" fill="#47B2B7"/>
<path d="M118.503 45.8097L117.803 41.4333C117.687 40.7124 117.251 40.0024 116.662 39.5709C116.073 39.1394 115.236 38.9209 114.538 39.0673C113.84 39.2136 113.101 39.5744 112.677 40.2083C112.253 40.8422 112.051 41.5676 112.174 42.3336L112.873 46.7099C112.989 47.4309 113.426 48.1408 114.014 48.5724C114.603 49.0039 115.44 49.2223 116.138 49.076C116.837 48.9297 117.576 48.5689 118 47.935C118.424 47.3011 118.625 46.5757 118.503 45.8097Z" fill="#47B2B7"/>
<path d="M125.813 60.4392L129.095 59.9143C129.486 59.8691 129.833 59.727 130.142 59.4984C130.473 59.3299 130.746 59.0842 130.956 58.7733C131.191 58.4758 131.334 58.141 131.391 57.7738C131.511 57.408 131.538 57.034 131.459 56.648C131.309 55.9269 130.952 55.2099 130.318 54.7856C129.685 54.3613 128.96 54.1595 128.194 54.282L124.912 54.8068C124.521 54.852 124.174 54.9941 123.864 55.2227C123.533 55.3912 123.261 55.6369 123.051 55.9478C122.816 56.2454 122.673 56.5801 122.616 56.9473C122.496 57.3132 122.469 57.6872 122.548 58.0731C122.698 58.7943 123.055 59.5112 123.689 59.9355C124.322 60.3599 125.047 60.5616 125.813 60.4392Z" fill="#47B2B7"/>
<defs>
<linearGradient id="paint0_linear_6378_9435" x1="64.0848" y1="137.179" x2="110.711" y2="129.722" gradientUnits="userSpaceOnUse">
<stop stop-color="#E11E71"/>
<stop offset="0.36" stop-color="#CC0C67"/>
<stop offset="1" stop-color="#5A1F4F"/>
</linearGradient>
<linearGradient id="paint1_linear_6378_9435" x1="87.006" y1="133.796" x2="87.1467" y2="133.774" gradientUnits="userSpaceOnUse">
<stop stop-color="#E11E71"/>
<stop offset="0.36" stop-color="#CC0C67"/>
<stop offset="1" stop-color="#5A1F4F"/>
</linearGradient>
<linearGradient id="paint2_linear_6378_9435" x1="71.8218" y1="136.571" x2="74.3268" y2="136.171" gradientUnits="userSpaceOnUse">
<stop stop-color="#E11E71"/>
<stop offset="0.36" stop-color="#CC0C67"/>
<stop offset="1" stop-color="#5A1F4F"/>
</linearGradient>
<linearGradient id="paint3_linear_6378_9435" x1="74.661" y1="136.238" x2="76.164" y2="135.998" gradientUnits="userSpaceOnUse">
<stop stop-color="#E11E71"/>
<stop offset="0.36" stop-color="#CC0C67"/>
<stop offset="1" stop-color="#5A1F4F"/>
</linearGradient>
<linearGradient id="paint4_linear_6378_9435" x1="74.7519" y1="136.23" x2="75.7821" y2="136.065" gradientUnits="userSpaceOnUse">
<stop stop-color="#E11E71"/>
<stop offset="0.36" stop-color="#CC0C67"/>
<stop offset="1" stop-color="#5A1F4F"/>
</linearGradient>
<linearGradient id="paint5_linear_6378_9435" x1="77.0993" y1="135.854" x2="77.3358" y2="135.816" gradientUnits="userSpaceOnUse">
<stop stop-color="#E11E71"/>
<stop offset="0.36" stop-color="#CC0C67"/>
<stop offset="1" stop-color="#5A1F4F"/>
</linearGradient>
<linearGradient id="paint6_linear_6378_9435" x1="76.9867" y1="135.006" x2="79.1709" y2="134.657" gradientUnits="userSpaceOnUse">
<stop stop-color="#E11E71"/>
<stop offset="0.36" stop-color="#CC0C67"/>
<stop offset="1" stop-color="#5A1F4F"/>
</linearGradient>
<linearGradient id="paint7_linear_6378_9435" x1="80.7342" y1="134.938" x2="80.9425" y2="134.905" gradientUnits="userSpaceOnUse">
<stop stop-color="#E11E71"/>
<stop offset="0.36" stop-color="#CC0C67"/>
<stop offset="1" stop-color="#5A1F4F"/>
</linearGradient>
<linearGradient id="paint8_linear_6378_9435" x1="80.7565" y1="135.113" x2="83.4473" y2="134.683" gradientUnits="userSpaceOnUse">
<stop stop-color="#E11E71"/>
<stop offset="0.36" stop-color="#CC0C67"/>
<stop offset="1" stop-color="#5A1F4F"/>
</linearGradient>
<linearGradient id="paint9_linear_6378_9435" x1="92.2576" y1="131.437" x2="94.2672" y2="131.116" gradientUnits="userSpaceOnUse">
<stop stop-color="#E11E71"/>
<stop offset="0.36" stop-color="#CC0C67"/>
<stop offset="1" stop-color="#5A1F4F"/>
</linearGradient>
<linearGradient id="paint10_linear_6378_9435" x1="93.3314" y1="133.062" x2="93.5622" y2="133.025" gradientUnits="userSpaceOnUse">
<stop stop-color="#E11E71"/>
<stop offset="0.36" stop-color="#CC0C67"/>
<stop offset="1" stop-color="#5A1F4F"/>
</linearGradient>
<linearGradient id="paint11_linear_6378_9435" x1="94.9258" y1="132.599" x2="95.1341" y2="132.566" gradientUnits="userSpaceOnUse">
<stop stop-color="#E11E71"/>
<stop offset="0.36" stop-color="#CC0C67"/>
<stop offset="1" stop-color="#5A1F4F"/>
</linearGradient>
<linearGradient id="paint12_linear_6378_9435" x1="94.9628" y1="132.686" x2="97.4002" y2="132.296" gradientUnits="userSpaceOnUse">
<stop stop-color="#E11E71"/>
<stop offset="0.36" stop-color="#CC0C67"/>
<stop offset="1" stop-color="#5A1F4F"/>
</linearGradient>
<linearGradient id="paint13_linear_6378_9435" x1="97.3095" y1="131.981" x2="99.0995" y2="131.695" gradientUnits="userSpaceOnUse">
<stop stop-color="#E11E71"/>
<stop offset="0.36" stop-color="#CC0C67"/>
<stop offset="1" stop-color="#5A1F4F"/>
</linearGradient>
<linearGradient id="paint14_linear_6378_9435" x1="99.5566" y1="131.593" x2="101.73" y2="131.245" gradientUnits="userSpaceOnUse">
<stop stop-color="#E11E71"/>
<stop offset="0.36" stop-color="#CC0C67"/>
<stop offset="1" stop-color="#5A1F4F"/>
</linearGradient>
<linearGradient id="paint15_linear_6378_9435" x1="101.697" y1="129.708" x2="103.448" y2="129.428" gradientUnits="userSpaceOnUse">
<stop stop-color="#E11E71"/>
<stop offset="0.36" stop-color="#CC0C67"/>
<stop offset="1" stop-color="#5A1F4F"/>
</linearGradient>
<linearGradient id="paint16_linear_6378_9435" x1="103.646" y1="131.066" x2="103.787" y2="131.043" gradientUnits="userSpaceOnUse">
<stop stop-color="#E11E71"/>
<stop offset="0.36" stop-color="#CC0C67"/>
<stop offset="1" stop-color="#5A1F4F"/>
</linearGradient>
</defs>
</svg>
