<svg width="105" height="119" viewBox="0 0 105 119" fill="none" xmlns="http://www.w3.org/2000/svg">
<path d="M60.4602 112.436C61.9261 109.8 71.1651 96.0823 75.0145 89.3241C78.7499 82.7638 104.101 43.3087 93.5919 4.27183C82.7652 3.19373 75.0516 8.71499 66.8522 15.8741C58.6529 23.0331 54.3561 32.6415 51.0152 43.0076C50.797 35.1276 44.8071 27.8904 38.1254 23.7212C31.4435 19.549 21.9667 17.6872 14.2528 19.2794C4.38278 21.319 5.82229 31.9028 5.81012 32.8355C5.52881 50.8334 38.1788 88.1918 41.9458 92.8612C48.0419 100.419 53.4207 105.752 60.4633 112.436L60.4602 112.436Z" fill="#47B2B7"/>
<path d="M63.4702 113.973C64.8033 111.59 66.3818 109.331 67.8612 107.039C70.1442 103.513 72.4307 99.9918 74.6584 96.4305C77.1732 92.4102 79.589 88.3046 81.8928 84.1583C85.2678 78.0896 88.2863 71.8185 90.8395 65.3608C94.2545 56.7164 96.9393 47.75 98.344 38.5465C99.9492 28.0323 99.9007 17.381 97.6963 6.96046C97.4292 5.69546 97.125 4.43886 96.7896 3.18719C96.5178 2.16723 95.3794 1.06846 94.2982 0.964331C91.9403 0.735937 89.5917 0.67019 87.2439 0.999806C85.0921 1.30246 82.961 1.80163 80.9265 2.56512C76.9406 4.06222 73.2979 6.34922 69.9394 8.94311C66.5808 11.537 62.979 14.534 60.1039 17.9035C57.3346 21.1507 55.0086 24.8024 53.0963 28.6154C50.8972 33.0004 49.2169 37.6317 47.7108 42.2938L54.3862 42.8105C54.115 34.6072 48.7292 27.1909 42.2962 22.4959C38.8934 20.0148 35.223 18.2238 31.1993 16.9928C27.1756 15.7619 23.2787 15.2643 19.2644 15.3414C15.5945 15.4113 11.6667 15.9573 8.52311 17.9834C5.91455 19.6649 4.23354 22.2125 3.2431 25.1032C2.5747 27.0528 2.36958 29.1546 2.37165 31.2069C2.37519 32.3584 2.39982 33.5495 2.50004 34.6923C2.89334 39.2953 4.54753 43.7474 6.4794 47.9041C8.86931 53.0482 11.7221 57.9554 14.8014 62.7146C17.8463 67.4193 21.1025 71.9832 24.4728 76.4589C27.3407 80.2668 30.2956 84.007 33.3072 87.6969C35.1146 89.9089 36.958 92.0906 38.7743 94.2926C40.9544 96.9351 43.1403 99.5678 45.4401 102.109C48.1047 105.053 50.8882 107.884 53.7309 110.655C55.2122 112.101 56.7113 113.53 58.2134 114.956C59.4966 116.176 61.8508 116.065 62.9812 114.682C64.1702 113.227 64.0762 111.211 62.7067 109.909C57.5771 105.039 52.5242 100.086 47.8785 94.7449L48.4457 95.3964C46.3977 93.035 44.4393 90.5964 42.436 88.1948C40.4326 85.7932 38.5046 83.4469 36.5765 81.0442C33.9694 77.7924 31.4133 74.5 28.9261 71.1534C26.1502 67.4186 23.4615 63.6192 20.9146 59.7237C18.3676 55.8283 16.0331 51.974 13.9401 47.9049C13.7001 47.4386 13.4631 46.9689 13.2321 46.4958L13.6191 47.2832C11.8116 43.5994 10.1821 39.739 9.39461 35.6953L9.5681 36.586C9.3037 35.2047 9.23204 33.85 9.17661 32.4504C9.13509 31.4015 9.09428 30.3651 9.17202 29.3188L9.1018 30.2235C9.20186 28.9656 9.43422 27.7189 9.84826 26.5246L9.55412 27.3512C9.86726 26.4733 10.2768 25.6369 10.7997 24.8631L10.3109 25.5754C10.7654 24.9216 11.2896 24.3328 11.8897 23.8119L11.239 24.3797C11.8486 23.8613 12.5165 23.4275 13.2323 23.0662L12.4459 23.4535C13.4644 22.9587 14.5399 22.6364 15.6465 22.419L14.7568 22.5926C17.4266 22.0844 20.1514 21.9873 22.859 22.1924L21.9553 22.122C25.1455 22.3778 28.2939 23.0503 31.3113 24.1163L30.4855 23.8217C33.0334 24.7359 35.4533 25.9335 37.6913 27.4555L36.9798 26.9661C39.2188 28.5068 41.2661 30.3096 43.0578 32.3562L42.4905 31.7047C43.9649 33.4117 45.2475 35.2742 46.245 37.3006L45.858 36.5132C46.5984 38.0491 47.1641 39.6547 47.5018 41.3299L47.3283 40.4392C47.5031 41.3518 47.6092 42.2714 47.6375 43.1987C47.6935 44.8807 49.1312 46.2227 50.7527 46.3459C51.4769 46.4016 52.2746 46.2647 52.8792 45.8219C53.6282 45.2736 54.0282 44.5979 54.3129 43.7154C54.7171 42.4588 55.1375 41.2107 55.58 39.9677L55.2859 40.7942C57.2027 35.4244 59.5374 30.1812 62.7547 25.4583L62.2659 26.1706C64.3713 23.0996 66.8324 20.3251 69.6417 17.882L68.9909 18.4498C72.7765 15.1598 76.7271 11.9576 81.2445 9.72695L80.458 10.1143C82.6168 9.06118 84.8779 8.25955 87.2366 7.79436L86.3469 7.96792C88.564 7.5454 90.8143 7.42851 93.0646 7.58464L92.1609 7.51424C92.4001 7.53186 92.6396 7.5526 92.8792 7.57648L90.3877 5.35362C90.8271 6.99784 91.2108 8.65469 91.5357 10.3243L91.3622 9.43366C92.7214 16.4948 93.03 23.7137 92.486 30.878L92.5563 29.9733C91.9544 37.7121 90.391 45.3556 88.1376 52.7752C87.5449 54.733 86.9011 56.6749 86.2156 58.6004L86.5098 57.7738C84.8392 62.4642 82.9156 67.0624 80.7794 71.5599C79.1296 75.0315 77.3571 78.441 75.4746 81.7911C74.3627 83.7693 73.1922 85.7101 72.0609 87.6769C69.6904 91.8082 67.0994 95.8109 64.5208 99.8129C62.2703 103.303 59.9324 106.749 57.7891 110.305C57.6718 110.5 57.5545 110.695 57.4436 110.893C56.5796 112.439 57.3053 114.701 58.9183 115.44C60.6375 116.226 62.5396 115.615 63.4603 113.964L63.4702 113.973Z" fill="#47B2B7"/>
<path d="M42.1532 45.5696C46.0287 45.9681 49.9305 46.0606 53.8181 45.7962C55.704 45.6657 57.5885 45.4569 59.4556 45.1643C61.0121 44.921 62.5483 44.6507 64.1255 44.6039C64.4854 44.5926 64.849 44.5936 65.2103 44.6074C65.1978 44.6081 65.572 44.6274 65.3864 44.6161C65.2008 44.6048 65.5567 44.6345 65.5503 44.6317C65.7144 44.6505 65.8898 44.7032 66.053 44.7064C66.2162 44.7095 65.9599 44.6678 65.9277 44.654C66.1211 44.7464 65.7208 44.4901 65.8359 44.5839C66.0234 44.7363 65.6745 44.339 65.8271 44.5938C65.643 44.2812 65.7587 44.4942 65.803 44.6109C65.8847 44.8322 65.7928 44.3793 65.7893 44.5364C65.7874 44.6118 65.8077 44.6923 65.812 44.7673C65.8192 44.8924 65.8233 45.0177 65.8211 45.1434C65.8214 45.203 65.8184 45.2596 65.8155 45.3194C65.8166 45.3382 65.7896 45.6316 65.8093 45.4296C65.8291 45.2276 65.7964 45.5308 65.7973 45.5464C65.7915 45.6095 65.7826 45.6728 65.7768 45.7359C65.7577 45.8939 65.7356 46.0552 65.7102 46.2136C65.6263 46.7707 65.5139 47.3232 65.4395 47.883C65.3345 48.6736 65.2158 49.443 65.022 50.2167C64.8057 51.089 64.583 51.9585 64.405 52.8412C64.03 54.7143 63.6518 56.5875 63.3149 58.4678C62.9779 60.3482 62.7096 62.1147 62.2961 63.9178C61.9255 65.5396 61.4944 67.146 61.1075 68.7593C60.7207 70.3726 60.3804 71.977 60.1768 73.6143C60.0799 74.3824 60.0304 75.1572 59.94 75.9282C59.8978 76.2852 59.8461 76.6396 59.7722 76.9891C59.7402 77.1416 59.7049 77.2911 59.6634 77.441C59.6374 77.5335 59.6113 77.626 59.582 77.7155C59.5554 77.7987 59.558 77.7891 59.596 77.6865C59.577 77.7378 59.5551 77.7924 59.533 77.8439C59.4697 77.9982 59.397 78.1498 59.3144 78.2958C59.2774 78.3607 59.2402 78.4225 59.2001 78.4875C59.3179 78.3019 59.1852 78.5009 59.1502 78.5469C59.042 78.6818 58.9242 78.8141 58.7928 78.9283C58.8376 78.8881 58.9435 78.8224 58.7623 78.9426C58.6687 79.0045 58.5753 79.0695 58.4815 79.1283C58.2909 79.2491 58.418 79.1696 58.4667 79.1448C58.3845 79.1872 58.2956 79.2205 58.2097 79.2537C58.0501 79.3131 57.8898 79.36 57.7293 79.4037C57.501 79.4671 57.6646 79.4232 57.7173 79.4139C57.6243 79.4318 57.5278 79.4436 57.4346 79.4584C57.2231 79.4862 57.0108 79.5016 56.798 79.5075C56.4446 79.5216 56.0895 79.5075 55.7373 79.487C55.9607 79.5023 55.5513 79.4694 55.4756 79.4612C55.2863 79.4407 55.0941 79.4235 54.9045 79.3968C54.7434 79.3747 54.5905 79.3333 54.4319 79.3016C54.4795 79.3114 54.6584 79.4235 54.499 79.3228C54.4696 79.3025 54.3985 79.2658 54.3603 79.2555C54.1461 79.1831 54.471 79.3809 54.3932 79.2818C54.3559 79.2338 54.2845 79.1908 54.2383 79.1495C54.1224 79.0432 54.0185 78.9268 53.9114 78.8074C54.0521 78.9657 53.7761 78.6363 53.7385 78.582C53.6396 78.4434 53.556 78.2975 53.4755 78.1515C53.3571 77.945 53.4297 78.0632 53.4513 78.1121C53.4084 78.0205 53.3685 77.9255 53.3285 77.8305C53.2446 77.625 53.1701 77.4191 53.1045 77.2063C53.0619 77.0644 53.0255 76.9222 52.9921 76.7766C53.0341 76.9625 52.982 76.7113 52.9778 76.6927C52.9548 76.5653 52.932 76.4411 52.909 76.3138C52.8221 75.8386 52.7382 75.3602 52.6544 74.8849C52.3316 73.0331 52.0181 71.1808 51.6643 69.3339C51.3104 67.4871 50.9163 65.4856 50.3417 63.6169C49.7671 61.7483 49.1067 60.0759 48.4478 58.322L44.3791 47.4814L43.3686 44.7905C43.1462 44.1945 42.4518 43.7857 41.8263 44.0288C41.2008 44.2719 40.8251 44.9337 41.0656 45.5726L45.3235 56.9232C46.0236 58.794 46.7483 60.6572 47.4144 62.5363C48.0805 64.4154 48.5654 66.2516 48.9671 68.1679C49.3689 70.0842 49.6749 71.8616 50.0035 73.7601C50.3322 75.6586 50.4807 77.5863 51.3309 79.2885C51.664 79.9566 52.1558 80.603 52.7348 81.0781C53.3138 81.5532 53.9893 81.7434 54.7243 81.8235C56.4183 82.0085 58.1807 82.0735 59.7177 81.2193C61.2426 80.3722 61.955 78.6962 62.2206 77.046C62.4861 75.3957 62.5451 73.8044 62.8413 72.1963C63.4761 68.7361 64.5555 65.3758 65.1807 61.9129C65.5325 59.9627 65.8495 58.0082 66.2298 56.0627C66.4214 55.0882 66.6161 54.1136 66.8108 53.139C67.0055 52.1644 67.251 51.3092 67.4677 50.3898C67.6386 49.6551 67.7183 48.9162 67.8323 48.1721C67.9258 47.5642 68.0449 46.9643 68.1227 46.3541C68.283 45.1085 68.4352 43.449 67.2414 42.6421C66.5956 42.2054 65.6871 42.2138 64.9364 42.1879C64.1857 42.162 63.3698 42.2027 62.5904 42.2758C60.8254 42.4369 59.0818 42.8071 57.3233 43.0275C53.3675 43.5218 49.3658 43.6547 45.3842 43.4287C44.4533 43.3756 43.5997 43.3054 42.6474 43.2064C42.0167 43.1423 41.3195 43.446 41.2026 44.14C41.1019 44.7326 41.4604 45.5153 42.1354 45.5864L42.1532 45.5696Z" fill="#F6F6F6"/>
<path d="M56.3222 86.6554C55.1589 86.6501 53.9861 87.0785 53.1085 87.8444C52.231 88.6104 51.9153 89.7175 51.838 90.8799C51.7134 92.8014 52.5141 94.8956 54.1331 96.0106C56.0227 97.3078 58.6314 97.6442 60.6746 96.4879C62.7177 95.3317 62.9788 92.6775 62.8677 90.5279C62.7891 88.9979 62.1981 87.6605 60.7894 86.9319C59.3808 86.2033 57.8142 86.3812 56.3193 86.6587C55.6957 86.773 55.1014 87.2308 55.1768 87.942C55.2358 88.5317 55.789 89.2123 56.4589 89.0859C57.4638 88.8994 58.4496 88.7077 59.3957 88.9703C59.7174 89.0585 59.2362 88.8665 59.5274 89.0255C59.6116 89.0708 59.6983 89.1066 59.7825 89.1551C59.8312 89.1837 60.0212 89.3266 59.8571 89.1979C59.9458 89.2681 60.0284 89.3418 60.1112 89.4187C59.9221 89.2381 60.3243 89.7453 60.2259 89.5596C60.3456 89.788 60.3881 90.0366 60.3968 90.1334C60.4385 90.5861 60.4613 91.0367 60.4622 91.4885C60.4636 91.6767 60.4588 91.8653 60.4507 92.0509C60.45 92.0384 60.4241 92.407 60.442 92.2271C60.4532 92.0947 60.4121 92.4705 60.4082 92.5115C60.3843 92.6949 60.3508 92.8757 60.3079 93.057C60.2826 93.1621 60.2511 93.2674 60.2226 93.3726C60.1349 93.7009 60.2811 93.2437 60.2038 93.4271C60.1266 93.6104 60.042 93.7753 59.9452 93.944C60.0566 93.7556 59.9774 93.9045 59.9452 93.944C59.8541 94.0497 59.7663 94.1583 59.6621 94.2553C59.8318 94.0981 59.6559 94.2557 59.6044 94.2869C59.5321 94.3381 59.4532 94.3834 59.3778 94.4349C59.1063 94.6199 59.5808 94.3667 59.2745 94.491C59.207 94.5168 59.1397 94.5458 59.0722 94.5717C58.9678 94.6091 58.8632 94.6433 58.7582 94.6713C58.7242 94.6796 58.3707 94.747 58.6409 94.7032C58.4172 94.738 58.1928 94.7603 57.9642 94.7641C57.8702 94.7663 57.773 94.7657 57.6788 94.7617C57.619 94.7588 57.3699 94.7324 57.6034 94.7597C57.4108 94.7363 57.2212 94.7095 57.034 94.6701C56.8119 94.6232 56.5859 94.5641 56.3715 94.4885C56.4228 94.5075 56.5642 94.5684 56.3519 94.474C56.2167 94.4127 56.0786 94.3547 55.946 94.2839C55.7811 94.1961 55.6189 94.1019 55.4654 93.9946C55.6514 94.122 55.3108 93.8686 55.2548 93.8216C55.2185 93.7891 55.1076 93.7139 55.0922 93.6646C55.146 93.8372 55.2247 93.8421 55.1419 93.712C55.0524 93.5727 54.96 93.4368 54.8767 93.2973C54.7934 93.1577 54.7032 93.006 54.6133 92.8605C54.5752 92.7968 54.5321 92.702 54.4818 92.6453C54.3842 92.5285 54.5657 92.9041 54.4877 92.6387C54.4409 92.4782 54.3848 92.3214 54.3413 92.1638C54.2474 91.8397 54.3618 92.4106 54.3232 92.0676C54.3096 91.9397 54.2897 91.8122 54.2792 91.6841C54.2591 91.4436 54.2642 91.2048 54.2597 90.9635C54.257 90.9165 54.274 90.721 54.2535 90.9638C54.2643 90.8251 54.2814 90.6861 54.3047 90.5466C54.3376 90.3564 54.3801 90.1688 54.4386 89.9866C54.3484 90.2711 54.4209 90.0598 54.4542 89.9857C54.4767 89.9405 54.4994 89.8984 54.5252 89.8561C54.441 89.9739 54.4381 89.9772 54.5228 89.8688C54.5936 89.7925 54.6582 89.7166 54.7323 89.6433C54.5873 89.7929 54.7594 89.623 54.8256 89.5752C54.9159 89.5104 55.0099 89.4548 55.1037 89.396C55.3882 89.2196 54.9099 89.4605 55.2225 89.3359C55.4371 89.2513 55.6522 89.1762 55.875 89.1257C55.6152 89.1877 55.9777 89.1135 56.009 89.1117C56.1617 89.0967 56.3118 89.0912 56.4655 89.0918C57.1019 89.0928 57.672 88.4324 57.6079 87.8084C57.5369 87.119 57.0062 86.6662 56.3259 86.6646L56.3222 86.6554Z" fill="#F6F6F6"/>
</svg>
