<svg width="147" height="115" viewBox="0 0 147 115" fill="none" xmlns="http://www.w3.org/2000/svg">
<g clip-path="url(#clip0_6214_10557)">
<path d="M105.158 91.5505C116.67 89.4508 127.502 83.5425 134.644 74.1682C138.49 69.1212 140.739 63.0711 142.912 57.1767C143.436 55.755 143.811 54.3298 143.946 52.8182C144.071 51.4068 143.883 50.0128 143.727 48.6118C143.408 45.7857 143.387 42.9561 142.502 40.2234C141.485 37.079 140.926 33.8377 139.656 30.766C138.459 27.8707 136.98 25.1172 135.207 22.5297C131.701 17.4102 127.318 12.8613 122.414 9.05626C117.451 5.20275 111.738 1.87849 105.494 0.657407C102.006 -0.0275076 98.4489 -0.0275076 94.9054 0.0140024C91.2959 0.0555124 87.6864 0.0970224 84.0769 0.141992C76.8406 0.228471 69.5973 0.204257 62.3644 0.467153C55.6348 0.712754 48.8635 1.37691 42.3769 3.26562C31.2291 6.50686 20.9663 12.9098 13.2024 21.5127C5.14356 30.4408 -1.05158 42.4926 0.149275 54.8141C1.27377 66.3504 9.03418 76.1606 19.2102 81.4117C25.322 84.5664 32.1453 86.0815 38.7604 87.7904C45.5178 89.5372 52.3099 91.2011 59.1922 92.3772C66.0572 93.5533 73.0402 94.3558 80.0127 93.9788C83.1919 93.8058 86.3988 93.5568 89.394 94.4873C90.154 94.7225 90.3067 94.7882 90.9557 95.1099C91.5596 95.4074 92.1427 95.743 92.7119 96.0993C93.8572 96.8188 94.947 97.6248 96.0437 98.4169C98.3066 100.05 100.649 101.509 103.343 102.333C104.366 102.644 105.48 101.959 105.765 100.963C106.869 97.092 107.074 93.114 106.532 89.136C106.39 88.0844 105.036 87.5102 104.11 87.7661C102.971 88.0775 102.589 89.1256 102.735 90.1806C103.176 93.4184 102.864 96.7703 101.968 99.9216L104.391 98.5518C99.4762 97.0471 95.6932 92.391 90.5601 90.7445C87.492 89.7621 84.1949 89.8382 81.0158 90.0042C77.8366 90.1703 74.4458 90.1979 71.1348 89.9558C64.4468 89.4646 57.8352 88.2781 51.2965 86.8149C44.7577 85.3516 38.1184 83.6567 31.6004 81.844C28.5116 80.9827 25.4192 80.028 22.5073 78.6685C20.1438 77.5651 17.7074 76.0949 15.7534 74.5867C11.6649 71.432 8.34698 67.4505 6.17782 62.6561C6.12229 62.5315 6.06676 62.4035 6.01123 62.279C6.11535 62.5211 5.97999 62.2064 5.96958 62.1787C5.84117 61.8604 5.71275 61.5387 5.59475 61.217C5.35527 60.5702 5.14356 59.9129 4.95267 59.2522C4.77567 58.6296 4.61949 58 4.48761 57.367C4.41819 57.028 4.35225 56.6855 4.29325 56.3465C4.22383 55.9522 4.17525 55.6166 4.15095 55.3883C3.83859 52.6003 3.91148 49.5596 4.34531 46.9964C5.32751 41.1608 7.64591 35.8579 10.8667 30.9182C12.432 28.5175 13.9452 26.5735 15.8436 24.453C17.7421 22.3325 19.6752 20.4681 21.7819 18.6797C25.8322 15.2482 30.6148 12.2283 35.6195 9.93835C36.914 9.34683 37.8893 8.94211 39.2845 8.42324C40.5825 7.94241 41.8944 7.5031 43.2202 7.11221C46.1391 6.25088 49.1204 5.63169 52.1329 5.20275C58.8382 4.25148 65.6615 4.28607 72.4189 4.20651L93.5206 3.95745C96.8455 3.9194 100.243 3.75682 103.54 4.28261C106.48 4.7496 109.305 5.73546 111.873 6.99114C117.236 9.60973 121.841 13.2764 125.996 17.5139C130.084 21.6857 133.582 26.4109 135.88 31.8522C137.029 34.5745 137.657 37.8192 138.552 40.7734C138.743 41.4029 138.976 42.0152 139.125 42.6551C139.201 42.9838 139.264 43.3159 139.316 43.6514C139.382 44.063 139.368 43.9904 139.417 44.4124C139.562 45.7476 139.628 47.0933 139.771 48.432C139.913 49.7707 140.111 51.0921 140.038 52.4411C140.027 52.6003 140.017 52.7628 140 52.922C139.993 53.0084 139.923 53.4201 139.982 53.0707C139.934 53.3682 139.875 53.6622 139.802 53.9562C139.632 54.6619 139.403 55.3503 139.153 56.0317C138.122 58.8579 137.07 61.6633 135.845 64.3303C134.62 66.9973 133.142 69.7162 131.313 72.103C129.702 74.2062 127.606 76.2783 125.52 78.0528C123.587 79.6959 121.449 81.1799 119.092 82.5117C116.677 83.878 114.48 84.8604 111.967 85.7321C109.454 86.6039 106.775 87.2888 104.106 87.7731C103.058 87.9633 102.468 89.2294 102.732 90.1876C103.034 91.2841 104.103 91.7511 105.154 91.5574L105.158 91.5505Z" fill="#48B2B7"/>
<path d="M140.125 46.5396C140.263 47.1208 140.451 47.6846 140.67 48.2415C140.77 48.5044 140.878 48.7639 140.989 49.0233C141.1 49.2827 141.214 49.5595 141.329 49.8258C141.471 50.1648 141.131 49.3554 141.273 49.6978C141.308 49.7843 141.346 49.8708 141.384 49.9573C141.95 51.3167 142.429 52.7004 142.717 54.1463C142.762 54.3643 142.801 54.5857 142.839 54.807C142.863 54.9454 142.88 55.0838 142.901 55.2221C142.891 55.1668 142.849 54.7655 142.887 55.1322C142.95 55.7064 143.005 56.2772 143.033 56.8514C143.096 58.1105 143.064 59.3731 142.978 60.6323C142.766 63.6487 142.342 66.7827 141.01 69.4497C139.597 72.2758 137.685 74.6938 135.623 77.0356C133.562 79.3775 131.295 81.5326 128.859 83.4801C126.606 85.2823 123.924 87.0292 121.275 88.4716C119.922 89.2084 118.534 89.8864 117.121 90.5022C115.872 91.0487 114.261 91.5676 112.863 92.1453C110.881 92.9582 109.604 94.4387 109.239 96.5661C108.896 98.5482 109.069 100.527 109.451 102.492C110.142 106.048 111.575 109.337 111.2 112.907L112.644 111.015C111.998 111.115 110.648 111.091 110.044 110.984C109.055 110.807 107.948 110.486 107.112 110.129C105.133 109.292 103.263 108.044 101.59 106.753C98.2788 104.19 95.1483 101.139 91.2507 99.3992C88.9809 98.3856 86.6382 97.8667 84.1463 97.7906C81.6543 97.7145 79.27 97.974 76.8336 98.0605C71.822 98.2403 66.7999 98.0847 61.8021 97.6799C51.883 96.8774 42.0471 95.1098 32.3327 92.9893C30.1358 92.5085 27.9285 91.9862 25.8252 91.1767C25.7419 91.1456 25.6586 91.111 25.5753 91.0764C25.6517 91.1075 25.8981 91.2217 25.5476 91.0626C25.381 90.9899 25.2144 90.9138 25.0513 90.8377C24.666 90.6578 24.2843 90.4676 23.9094 90.267C23.1459 89.8588 22.4066 89.4091 21.6882 88.9248C21.3481 88.6965 21.0149 88.4613 20.6887 88.2191C20.6123 88.1638 20.2722 87.9043 20.3589 87.9701C20.5082 88.0877 20.2618 87.894 20.2583 87.8871C20.1333 87.7867 20.0084 87.6864 19.8869 87.5861C19.2136 87.0326 18.5611 86.4515 17.9329 85.8496C16.6176 84.587 15.3994 83.2206 14.2749 81.7851C14.136 81.6087 14.2471 81.747 14.2749 81.7851C14.2124 81.7055 14.1534 81.6225 14.0909 81.5429C13.9486 81.3527 13.8063 81.1624 13.6675 80.9722C13.3864 80.5882 13.1122 80.2008 12.8449 79.8099C12.3278 79.0489 11.8315 78.274 11.356 77.4853C10.3912 75.8803 9.52005 74.2164 8.74262 72.5145C8.60032 72.1997 8.33655 71.6048 8.27408 71.4491C8.19426 71.2588 7.94784 70.6431 7.80901 70.2833C7.48624 69.4497 7.18776 68.6056 6.91358 67.7547C6.37563 66.0805 5.92791 64.3785 5.60167 62.6524C5.52879 62.2615 5.45937 61.8672 5.3969 61.4729C5.36914 61.293 5.34137 61.1131 5.31708 60.9332C5.37608 61.3449 5.28237 60.6461 5.27543 60.5631C5.15395 59.5115 4.45635 58.6017 3.30756 58.6017C2.33924 58.6017 1.21475 59.5046 1.33969 60.5631C2.20736 68.066 5.10536 75.3718 9.33263 81.626C13.5599 87.8801 19.2206 93.311 26.5194 95.5629C28.9107 96.2997 31.3679 96.8013 33.8147 97.3133C36.2615 97.8252 38.8784 98.3441 41.4189 98.8111C46.5833 99.7624 51.7754 100.565 56.9953 101.146C62.2151 101.727 67.2684 102.052 72.4224 102.063C74.9907 102.066 77.5555 101.973 80.1168 101.827C82.4561 101.693 84.8682 101.533 87.1623 102.097C91.1362 103.076 94.3674 105.934 97.5396 108.514C101.225 111.517 105.248 114.36 110.103 114.931C111.315 115.073 112.488 114.99 113.692 114.806C114.601 114.664 115.056 113.706 115.136 112.914C115.486 109.559 114.4 106.297 113.609 103.08C113.22 101.492 112.949 100.205 112.977 98.6001C112.991 97.8149 113.022 97.462 113.234 96.7529C113.369 96.2963 113.65 96.0611 114.119 95.85C115.601 95.1859 117.184 94.7224 118.683 94.0824C120.182 93.4425 121.564 92.7783 122.955 92.0346C125.794 90.516 128.467 88.738 131.007 86.7663C133.548 84.7946 135.828 82.681 137.949 80.3391C140.159 77.8935 142.304 75.2611 143.915 72.3796C144.72 70.9406 145.4 69.4047 145.855 67.817C146.344 66.1081 146.542 64.3025 146.743 62.5417C147.028 60.0373 147.128 57.4983 146.813 54.9938C146.566 53.0463 146.108 51.1888 145.369 49.3658C145.185 48.9161 144.994 48.4664 144.807 48.0202C144.619 47.5739 144.997 48.4802 144.758 47.9025C144.689 47.7365 144.623 47.5739 144.557 47.4079C144.307 46.7852 144.088 46.1557 143.932 45.5019C143.686 44.471 142.509 43.8588 141.509 44.132C140.451 44.4226 139.889 45.5123 140.135 46.5465L140.125 46.5396Z" fill="#48B2B7"/>
<path d="M127.412 77.7551C127.412 80.3668 127.412 82.9785 127.412 85.5902C127.412 86.6175 128.317 87.5999 129.379 87.5515C130.441 87.5031 131.347 86.6902 131.347 85.5902C131.347 82.9785 131.347 80.3668 131.347 77.7551C131.347 76.7278 130.441 75.7454 129.379 75.7938C128.317 75.8422 127.412 76.6551 127.412 77.7551Z" fill="#48B2B7"/>
<path d="M121.494 83.3555V87.8248C121.494 88.3264 121.713 88.8556 122.07 89.2119C122.428 89.5682 122.973 89.8069 123.462 89.7861C124.527 89.7377 125.43 88.9248 125.43 87.8248V83.3555C125.43 82.854 125.211 82.3247 124.854 81.9684C124.496 81.6121 123.951 81.3734 123.462 81.3942C122.396 81.4426 121.494 82.2555 121.494 83.3555Z" fill="#48B2B7"/>
<path d="M115.483 87.548C115.868 88.1257 116.201 88.738 116.476 89.3745L116.278 88.904C116.587 89.6339 116.816 90.388 116.968 91.1663C117.059 91.6264 117.479 92.1072 117.874 92.339C118.298 92.5846 118.919 92.6884 119.391 92.5362C119.863 92.384 120.328 92.0899 120.567 91.6333C120.824 91.1456 120.869 90.6647 120.765 90.1217C120.453 88.5131 119.797 86.9288 118.884 85.5659C118.6 85.1405 118.214 84.8015 117.708 84.6631C117.236 84.5351 116.607 84.5905 116.191 84.8603C115.774 85.1301 115.4 85.5313 115.285 86.0329C115.171 86.5345 115.191 87.1053 115.483 87.5446V87.548Z" fill="#48B2B7"/>
<path d="M110.024 89.5924C110.409 90.1701 110.742 90.7824 111.016 91.4189L110.818 90.9484C111.127 91.6783 111.356 92.4324 111.509 93.2107C111.599 93.6708 112.019 94.1516 112.415 94.3834C112.838 94.629 113.46 94.7327 113.932 94.5805C114.404 94.4283 114.869 94.1343 115.108 93.6777C115.365 93.1899 115.41 92.7091 115.306 92.166C114.994 90.5575 114.338 88.9732 113.425 87.6103C113.14 87.1848 112.755 86.8458 112.248 86.7075C111.776 86.5795 111.148 86.6348 110.732 86.9046C110.315 87.1745 109.94 87.5757 109.826 88.0773C109.711 88.5789 109.732 89.1496 110.024 89.589V89.5924Z" fill="#48B2B7"/>
<path d="M104.474 90.3465L109.402 101.43C109.822 102.371 111.273 102.665 112.096 102.135C113.074 101.506 113.251 100.458 112.804 99.451L107.875 88.3679C107.455 87.427 106.005 87.133 105.182 87.6622C104.203 88.2918 104.026 89.3399 104.474 90.3465Z" fill="#48B2B7"/>
<path d="M102.565 98.4375C103.62 103.218 105.626 107.753 107.389 112.302C107.757 113.257 108.729 114.021 109.812 113.672C110.745 113.371 111.585 112.285 111.186 111.257C109.427 106.708 107.417 102.173 106.362 97.3928C106.14 96.3897 104.915 95.7082 103.939 96.023C102.881 96.3655 102.326 97.3617 102.565 98.4375Z" fill="#48B2B7"/>
<path d="M98.074 99.4753C98.2163 100.157 98.3413 100.845 98.4489 101.533C98.4836 101.748 98.5148 101.966 98.546 102.18C98.6085 102.609 98.5044 101.838 98.5634 102.312C98.605 102.668 98.6502 103.028 98.6849 103.384C98.8376 104.868 98.9139 106.356 98.9278 107.846C98.9382 108.874 99.8267 109.856 100.896 109.808C101.965 109.759 102.874 108.946 102.864 107.846C102.836 104.688 102.513 101.527 101.871 98.434C101.663 97.4274 100.417 96.7529 99.4484 97.0642C98.3794 97.4101 97.8484 98.3995 98.074 99.4787V99.4753Z" fill="#48B2B7"/>
<path d="M83.9103 93.0689C83.9658 94.2865 84.1289 95.5111 84.4031 96.701C84.6773 97.891 85.0972 99.029 85.5762 100.153C85.7567 100.572 86.3363 100.942 86.7528 101.056C87.2248 101.184 87.853 101.129 88.2694 100.859C88.6859 100.589 89.0607 100.188 89.1753 99.6863L89.2447 99.1639C89.2447 98.8111 89.1544 98.479 88.9774 98.1746L88.9323 98.0708L89.1302 98.5413C88.5367 97.123 88.1306 95.639 87.9189 94.117L87.9883 94.6393C87.9189 94.1205 87.8738 93.5981 87.8495 93.0758C87.8009 92.0519 86.9783 91.066 85.8816 91.1145C84.8578 91.1594 83.8617 91.9792 83.9137 93.0758L83.9103 93.0689Z" fill="#48B2B7"/>
<path d="M77.7915 93.311C78.0136 94.1862 78.1871 95.0718 78.3086 95.9642L78.2392 95.4419C78.3294 96.1268 78.3884 96.8152 78.4197 97.507C78.4405 98.0224 78.6244 98.524 78.9958 98.8941C79.3359 99.2331 79.8982 99.4891 80.3875 99.4683C80.8769 99.4476 81.4253 99.2781 81.7793 98.8941C82.1333 98.5102 82.3797 98.0293 82.3554 97.507C82.2791 95.7428 82.0257 93.9752 81.5884 92.2664C81.335 91.2701 80.1654 90.5748 79.1659 90.8965C78.1663 91.2182 77.5173 92.2456 77.7915 93.311Z" fill="#48B2B7"/>
<path d="M72.7937 94.3142L72.8006 97.9152C72.8006 98.4202 73.0193 98.946 73.3768 99.3023C73.7342 99.6586 74.2791 99.8973 74.7685 99.8765C75.2579 99.8558 75.8062 99.6863 76.1602 99.3023C76.5143 98.9183 76.7364 98.4444 76.7364 97.9152L76.7294 94.3142C76.7294 93.8091 76.5108 93.2833 76.1533 92.9271C75.7958 92.5708 75.2509 92.3321 74.7616 92.3528C74.2722 92.3736 73.7238 92.5431 73.3698 92.9271C73.0158 93.311 72.7937 93.7849 72.7937 94.3142Z" fill="#48B2B7"/>
<path d="M68.2749 92.2871C67.147 94.3211 66.5396 96.6284 66.5569 98.9529C66.5639 99.9803 67.4558 100.963 68.5248 100.914C69.5938 100.866 70.5031 100.053 70.4927 98.9529C70.4892 98.4167 70.5204 97.884 70.5899 97.3513L70.5204 97.8737C70.6627 96.8428 70.9369 95.8397 71.3395 94.8815L71.1417 95.3519C71.3013 94.9818 71.4783 94.622 71.6727 94.2692C72.1725 93.3698 71.9226 92.0865 70.9647 91.5849C70.0068 91.0833 68.8025 91.3289 68.2715 92.2906L68.2749 92.2871Z" fill="#48B2B7"/>
<path d="M60.4138 92.6192C60.4243 92.6815 60.4312 92.7437 60.4416 92.8025L60.3722 92.2802C60.6013 94.0201 60.6811 95.8327 60.5666 97.5865C60.5006 98.6139 61.521 99.5929 62.5344 99.5479C63.6589 99.496 64.4329 98.6866 64.5023 97.5865C64.6342 95.5941 64.5023 93.5497 64.2108 91.5745C64.1448 91.1214 63.6832 90.6198 63.3049 90.4019C62.8815 90.1563 62.2602 90.0525 61.7882 90.2047C61.3162 90.3569 60.8511 90.6509 60.6117 91.1075L60.4138 91.578C60.3201 91.9274 60.3201 92.2733 60.4138 92.6227V92.6192Z" fill="#48B2B7"/>
<path d="M54.7914 91.5987L55.0517 97.2994C55.0968 98.3234 55.9228 99.3092 57.0196 99.2608C58.0469 99.2158 59.0395 98.396 58.9874 97.2994L58.7271 91.5987C58.682 90.5748 57.856 89.589 56.7593 89.6374C55.7319 89.6824 54.7393 90.5022 54.7914 91.5987Z" fill="#48B2B7"/>
<path d="M48.3464 89.3572C48.3117 90.9415 48.6657 92.5638 48.9364 94.117C49.1897 95.5629 49.4743 97.0019 49.7624 98.441C49.9637 99.451 51.2235 100.122 52.1849 99.8108C53.2608 99.4649 53.7745 98.479 53.5593 97.3963C53.2782 95.9953 53.0005 94.5909 52.7541 93.183C52.6847 92.7818 52.6153 92.377 52.5493 91.9723C52.5146 91.7613 52.4834 91.5468 52.4522 91.3358C52.4383 91.2321 52.4244 91.1317 52.407 91.028C52.355 90.6751 52.4695 91.5226 52.4244 91.1525C52.3515 90.5575 52.2717 89.9556 52.2856 89.3572C52.3064 88.3298 51.3658 87.3474 50.3177 87.3958C49.2696 87.4443 48.3707 88.2572 48.3498 89.3572H48.3464Z" fill="#48B2B7"/>
<path d="M42.8731 89.0597C42.8245 89.6028 42.7621 90.1424 42.6926 90.682L42.7621 90.1597C42.5573 91.661 42.2658 93.1519 41.884 94.6186C41.6272 95.6114 42.2102 96.7944 43.2584 97.0331C44.3065 97.2718 45.4032 96.7252 45.6809 95.6632C46.2431 93.4978 46.611 91.2874 46.8123 89.0597C46.854 88.5858 46.5624 87.9977 46.2362 87.6726C45.91 87.3474 45.3338 87.0776 44.8445 87.0984C44.3551 87.1191 43.8067 87.2886 43.4527 87.6726C43.0987 88.0565 42.9252 88.5166 42.8766 89.0597H42.8731Z" fill="#48B2B7"/>
<path d="M37.0285 87.9666C37.0146 88.2814 36.9938 88.5996 36.9695 88.9144C36.9591 89.0493 36.9452 89.1842 36.9313 89.3191C36.9175 89.461 36.9383 89.7342 36.8689 89.8588L36.9036 89.6063C36.8897 89.6962 36.8793 89.7861 36.8654 89.8761C36.8446 90.011 36.8238 90.1424 36.7995 90.2773C36.7474 90.5887 36.6884 90.9 36.6225 91.2079C36.3691 92.4013 36.0151 93.5705 35.5778 94.712C35.4043 95.1617 35.5431 95.8258 35.7756 96.2236C36.0082 96.6215 36.4836 97.0192 36.9522 97.1265C38.0767 97.3825 38.979 96.784 39.3747 95.7567C40.3326 93.273 40.8463 90.6302 40.9677 87.9701C41.0163 86.9427 40.0272 85.9603 38.9999 86.0087C37.8927 86.0572 37.0806 86.8701 37.032 87.9701L37.0285 87.9666Z" fill="#48B2B7"/>
<path d="M31 85.8911C30.9792 86.1921 30.9479 86.493 30.9132 86.7939C30.9028 86.8701 30.8959 86.9496 30.8855 87.0257C30.9306 86.7006 30.9375 86.6452 30.9063 86.8597C30.882 87.0188 30.8577 87.1779 30.8334 87.337C30.7293 87.9701 30.6044 88.5996 30.4586 89.2257C30.1775 90.4261 29.8304 91.6126 29.3653 92.7541C29.1849 93.1934 29.3341 93.8749 29.5632 94.2658C29.7922 94.6566 30.2712 95.0614 30.7397 95.1686C31.243 95.2827 31.8087 95.2585 32.2564 94.9714C32.7041 94.6843 32.9575 94.3003 33.1622 93.7988C34.1757 91.3047 34.7379 88.5685 34.9357 85.8911C35.0121 84.8637 33.9744 83.8848 32.9679 83.9298C31.8364 83.9816 31.0798 84.7946 31 85.8911Z" fill="#48B2B7"/>
<path d="M25.2179 82.048C24.2773 85.4622 23.9129 89.0563 24.1871 92.5881C24.2669 93.6085 25.0339 94.6013 26.1549 94.5494C27.1545 94.5044 28.2096 93.6846 28.1228 92.5881C27.9944 90.9346 28.0013 89.2707 28.154 87.6172C28.1714 87.427 28.1922 87.2367 28.213 87.0499C28.2234 86.9565 28.2929 86.2474 28.2443 86.7628C28.2824 86.3581 28.3692 85.9534 28.4421 85.5556C28.5948 84.7254 28.7892 83.9056 29.0113 83.0927C29.2855 82.1033 28.6746 80.9134 27.6369 80.6782C26.5992 80.4429 25.5059 80.9895 25.2144 82.048H25.2179Z" fill="#48B2B7"/>
<path d="M19.4669 80.7542C18.8249 83.7222 18.457 86.8389 18.4257 89.8795C18.4153 90.9069 19.3385 91.8893 20.3936 91.8409C21.4487 91.7924 22.3511 90.9795 22.3615 89.8795C22.3754 88.4613 22.4968 87.0465 22.653 85.6386C22.6947 85.2788 22.7363 84.9191 22.7849 84.5593C22.8335 84.1996 22.7398 84.8672 22.778 84.6147C22.7918 84.5282 22.8023 84.4382 22.8161 84.3518C22.8404 84.1788 22.8682 84.0059 22.8925 83.8364C22.9966 83.1549 23.1181 82.4769 23.2639 81.8024C23.479 80.8027 22.9654 79.6335 21.8895 79.3879C20.8969 79.163 19.6995 79.6854 19.4669 80.7577V80.7542Z" fill="#48B2B7"/>
<path d="M91.4451 94.2588C91.4485 94.3488 91.4451 94.4422 91.4451 94.5321C91.4277 94.7535 91.4347 94.712 91.4728 94.418C91.4277 94.5321 91.4208 94.7016 91.393 94.8227C91.3236 95.134 91.2368 95.4419 91.1744 95.7567C91.0216 96.49 90.9245 97.2441 90.9036 97.9913C90.8689 99.3507 91.0841 100.752 91.5353 102.038C91.8754 103.004 92.8993 103.751 93.9578 103.408C94.9157 103.1 95.6966 102.032 95.3322 100.994C95.2281 100.7 95.1378 100.406 95.0615 100.105C95.0337 100.001 94.8185 99.2262 94.8775 99.1916L94.9123 99.451C94.9018 99.3646 94.8914 99.2746 94.8845 99.1881C94.8706 99.0567 94.8602 98.9218 94.8533 98.7903C94.8359 98.479 94.8324 98.1711 94.8463 97.8598C94.8533 97.7284 94.8602 97.5935 94.8706 97.462C94.8776 97.3721 94.8845 97.2856 94.8949 97.1957C94.9157 97.0192 94.9157 97.0192 94.8949 97.1957C94.8706 97.3686 94.8706 97.3686 94.8984 97.1957C94.9123 97.1092 94.9296 97.0227 94.947 96.9328C94.9713 96.8013 95.0025 96.6699 95.0337 96.5384C95.2073 95.7912 95.4016 95.0371 95.3912 94.2623C95.3739 93.2349 94.4992 92.2525 93.4233 92.3009C92.3474 92.3494 91.4347 93.1623 91.4555 94.2623L91.4451 94.2588Z" fill="#48B2B7"/>
<path d="M68.8892 24.1035C69.1703 23.5777 69.4896 23.083 69.8367 22.5987C70.0519 22.3012 69.684 22.789 69.6805 22.7959C69.7187 22.7336 69.7812 22.6714 69.8263 22.6126C69.9131 22.5088 69.9998 22.405 70.0901 22.3012C70.2948 22.0695 70.5065 21.8446 70.7287 21.6267C70.923 21.4364 71.1208 21.2531 71.3256 21.0767C71.4263 20.9868 71.5304 20.9003 71.6345 20.8138C72.0996 20.4333 71.2666 21.0836 71.6623 20.7896C72.1343 20.4402 72.6236 20.1185 73.1304 19.8245C73.6614 19.5166 74.2132 19.2364 74.772 18.9839C74.8622 18.9424 75.3412 18.7383 74.9316 18.9113C74.5221 19.0842 74.9941 18.887 75.0982 18.8455C75.4002 18.7279 75.7056 18.6138 76.011 18.5065C77.1806 18.1018 78.378 17.7905 79.5893 17.5483C80.2001 17.4273 80.8144 17.327 81.4322 17.2336C81.814 17.1782 81.1892 17.2647 81.1754 17.2682C81.2587 17.2543 81.3385 17.2474 81.4218 17.237C81.5641 17.2197 81.7098 17.2024 81.8521 17.1851C82.1784 17.1471 82.5081 17.1159 82.8378 17.0848C84.2295 16.9603 85.6595 16.8427 87.0512 16.9741C87.1414 16.9845 87.4989 17.0122 87.1345 16.981C86.7909 16.9499 87.0616 16.9741 87.1345 16.988C87.3427 17.0329 87.551 17.0744 87.7557 17.1332C87.9223 17.1817 88.0785 17.2439 88.2416 17.2958C88.4811 17.3719 87.9952 17.1886 88.0056 17.1921C88.0993 17.2543 88.2243 17.2924 88.3249 17.3443C88.6408 17.5068 88.9427 17.6902 89.2342 17.8943C89.3106 17.9496 89.387 18.0119 89.4633 18.0603C89.4737 18.0672 89.0746 17.7421 89.2655 17.9116C89.4251 18.0534 89.5917 18.1848 89.7514 18.3301C90.2095 18.7521 90.6225 19.2087 91.0182 19.6896C91.2681 19.9905 90.6815 19.2364 90.9661 19.6273C91.0459 19.7345 91.1258 19.8452 91.2021 19.9594C91.3756 20.2119 91.5422 20.4748 91.695 20.7377C91.8407 20.9868 91.9761 21.2393 92.1045 21.4953C92.1635 21.6163 92.2225 21.7374 92.278 21.8585C92.3093 21.9276 92.3405 21.9968 92.3717 22.0695C92.5036 22.36 92.2884 21.8585 92.2676 21.8239C92.5522 22.277 92.6841 22.9446 92.8229 23.4566C92.9826 24.0343 93.0902 24.6189 93.1908 25.2104C93.2325 25.4629 93.1457 24.823 93.1457 24.8714C93.1457 24.9475 93.1665 25.0271 93.1734 25.1032C93.1873 25.2381 93.2012 25.373 93.2151 25.5079C93.2429 25.8192 93.2602 26.1305 93.2706 26.4419C93.288 27.0299 93.2776 27.618 93.2325 28.2026C93.2116 28.4828 93.222 28.8149 93.1457 29.0847C93.1457 29.0812 93.2394 28.4343 93.1839 28.8114C93.1734 28.8702 93.1665 28.929 93.1561 28.9878C93.1283 29.1642 93.0971 29.3372 93.0659 29.5136C92.8472 30.6828 92.5001 31.8174 92.0594 32.9209C91.9136 33.291 92.2884 32.3985 92.0871 32.8482C92.0316 32.9762 91.9726 33.1008 91.9136 33.2253C91.7782 33.5124 91.6325 33.7926 91.4832 34.0693C91.1986 34.5882 90.8898 35.0932 90.5496 35.581C90.4594 35.709 90.3692 35.837 90.272 35.9649C90.2373 36.0099 90.1401 36.1102 90.1297 36.1552C90.1227 36.1794 90.4663 35.7297 90.3171 35.9131C90.1158 36.1552 89.918 36.4008 89.7063 36.636C89.2759 37.1134 88.8108 37.5631 88.3319 37.992C86.2738 39.8358 83.9103 41.3232 81.9424 43.2707C79.7212 45.4707 78.201 48.2242 77.5624 51.2821C76.9238 54.34 76.9724 57.3322 77.2119 60.3625C77.2674 61.075 77.3368 61.7842 77.4062 62.4968C77.4687 63.1367 77.6283 63.6936 78.0969 64.1606C78.5064 64.5688 79.1797 64.8767 79.7663 64.849C80.9428 64.7971 82.2582 63.8078 82.1298 62.4933C81.8417 59.5323 81.5849 56.5332 81.9354 53.5652C82.0049 52.9806 81.8695 53.9803 81.9354 53.5652C81.9632 53.3819 81.9944 53.1951 82.0257 53.0117C82.0916 52.6451 82.168 52.2818 82.2582 51.9221C82.3415 51.5865 82.4352 51.2545 82.5428 50.9224C82.5983 50.746 82.6608 50.573 82.7233 50.4001C82.7892 50.2167 83.0808 49.6079 82.7649 50.2582C83.0808 49.6044 83.3896 48.9645 83.7888 48.3591C83.8755 48.2242 83.9658 48.0928 84.0595 47.9648C84.1011 47.906 84.1879 47.8161 84.2191 47.7469C84.2053 47.778 83.8512 48.2 84.0977 47.9025C84.3267 47.6258 84.5593 47.3491 84.8057 47.0862C86.7562 44.9934 89.2065 43.461 91.3583 41.5965C93.399 39.8288 95.0927 37.653 96.1825 35.1797C98.4419 30.0705 98.6953 24.1415 96.1443 19.0773C94.763 16.3376 92.4446 13.9093 89.5535 12.7851C87.898 12.1417 86.0378 12.1763 84.2955 12.2731C82.8517 12.3527 81.4148 12.5118 79.9849 12.7228C77.2743 13.1241 74.647 13.8574 72.162 15.0162C69.6771 16.1751 67.4558 17.9392 65.7864 20.1704C65.4185 20.6616 65.0923 21.1805 64.8042 21.7201C64.2212 22.8063 64.4954 24.3318 65.6511 24.9406C66.7478 25.5183 68.261 25.2554 68.8823 24.0965L68.8892 24.1035Z" fill="url(#paint0_linear_6214_10557)"/>
<path d="M80.4292 77.2778C81.6647 77.2778 82.8482 76.1951 82.7927 74.9221C82.7372 73.6491 81.755 72.5664 80.4292 72.5664C79.1936 72.5664 78.0101 73.6491 78.0657 74.9221C78.1212 76.1951 79.1034 77.2778 80.4292 77.2778Z" fill="url(#paint1_linear_6214_10557)"/>
<path d="M53.4552 21.6544C52.296 27.317 53.1497 32.9762 53.9445 38.6251C53.9896 38.9468 54.0348 39.2685 54.0799 39.5902C54.0903 39.6697 54.1007 39.7527 54.1111 39.8323C54.1111 39.8358 54.0452 39.3376 54.0799 39.6075C54.1042 39.7943 54.1285 39.9845 54.1528 40.1713C54.2395 40.8424 54.3193 41.5135 54.3922 42.1845C54.538 43.5509 54.6421 44.9207 54.6699 46.294C54.7254 49.0095 54.4061 51.7111 54.2048 54.4162C53.9653 57.6159 53.9549 60.8779 54.8434 63.9877C55.1801 65.1707 56.5267 66.0251 57.7484 65.6308C58.97 65.2364 59.7613 64.005 59.3969 62.7355C59.2199 62.1163 59.0776 61.4902 58.97 60.8571C58.9527 60.7533 58.8624 60.4835 58.8972 60.3832L58.9388 60.6911C58.9249 60.5838 58.9145 60.4801 58.9041 60.3728C58.8659 60.0027 58.8347 59.6291 58.8139 59.2555C58.741 57.9134 58.7826 56.5643 58.8659 55.2256C59.0325 52.569 59.3761 49.9227 59.3935 47.2591C59.4143 44.4019 59.0637 41.5653 58.682 38.7392C58.5084 37.4524 58.321 36.1656 58.144 34.8788C58.0642 34.3115 58.2169 35.4288 58.144 34.8615C58.1232 34.7024 58.1024 34.5398 58.0815 34.3807C58.0399 34.059 58.0017 33.7407 57.9635 33.419C57.8802 32.7272 57.8074 32.0319 57.7449 31.3366C57.6165 29.8526 57.5436 28.3617 57.5818 26.8708C57.5991 26.1305 57.6442 25.3868 57.7241 24.65C57.7414 24.4909 57.7588 24.3318 57.7796 24.1761C57.8143 23.9132 57.8074 23.9651 57.7588 24.3283C57.7727 24.2245 57.79 24.1173 57.8074 24.0135C57.8664 23.6434 57.9358 23.2767 58.0087 22.9101C58.2551 21.7063 57.6616 20.3088 56.3601 20.0147C55.1801 19.7484 53.7189 20.3676 53.4552 21.6578V21.6544Z" fill="url(#paint2_linear_6214_10557)"/>
<path d="M57.856 77.6099C59.0916 77.6099 60.2751 76.5271 60.2195 75.2542C60.164 73.9812 59.1818 72.8985 57.856 72.8985C56.6204 72.8985 55.437 73.9812 55.4925 75.2542C55.548 76.5271 56.5302 77.6099 57.856 77.6099Z" fill="url(#paint3_linear_6214_10557)"/>
</g>
<defs>
<linearGradient id="paint0_linear_6214_10557" x1="97.9682" y1="64.8507" x2="57.1732" y2="58.3668" gradientUnits="userSpaceOnUse">
<stop stop-color="#660F33"/>
<stop offset="1" stop-color="#CC1E66"/>
</linearGradient>
<linearGradient id="paint1_linear_6214_10557" x1="82.7946" y1="77.2778" x2="77.2316" y2="75.8813" gradientUnits="userSpaceOnUse">
<stop stop-color="#660F33"/>
<stop offset="1" stop-color="#CC1E66"/>
</linearGradient>
<linearGradient id="paint2_linear_6214_10557" x1="59.4862" y1="65.7281" x2="51.2503" y2="65.4314" gradientUnits="userSpaceOnUse">
<stop stop-color="#660F33"/>
<stop offset="1" stop-color="#CC1E66"/>
</linearGradient>
<linearGradient id="paint3_linear_6214_10557" x1="60.2214" y1="77.6099" x2="54.6585" y2="76.2134" gradientUnits="userSpaceOnUse">
<stop stop-color="#660F33"/>
<stop offset="1" stop-color="#CC1E66"/>
</linearGradient>
<clipPath id="clip0_6214_10557">
<rect width="147" height="115" fill="white"/>
</clipPath>
</defs>
</svg>
