<svg width="25" height="25" viewBox="0 0 25 25" fill="none" xmlns="http://www.w3.org/2000/svg">
<g clip-path="url(#clip0_8632_24046)">
<g clip-path="url(#clip1_8632_24046)">
<path d="M12.5047 7.21988C12.6586 10.5716 12.4181 13.9233 12.5047 17.2751C12.5262 17.468 12.6191 17.6463 12.7656 17.7758C12.912 17.9052 13.1017 17.9768 13.2983 17.9768C13.4949 17.9768 13.6846 17.9052 13.831 17.7758C13.9775 17.6463 14.0703 17.468 14.0919 17.2751C14.0053 13.9233 14.2458 10.5716 14.0919 7.21988C14.0438 6.21341 12.4566 6.21341 12.5047 7.21988Z" fill="#FFC834"/>
<path d="M13.332 20.5509C13.5274 20.5296 13.708 20.4379 13.8392 20.2934C13.9704 20.1488 14.0429 19.9616 14.0429 19.7675C14.0429 19.5735 13.9704 19.3862 13.8392 19.2417C13.708 19.0972 13.5274 19.0054 13.332 18.9842C13.1366 19.0054 12.956 19.0972 12.8248 19.2417C12.6936 19.3862 12.6211 19.5735 12.6211 19.7675C12.6211 19.9616 12.6936 20.1488 12.8248 20.2934C12.956 20.4379 13.1366 20.5296 13.332 20.5509Z" fill="#FFC834"/>
<path d="M12.3797 1.97858C8.91669 6.60266 7.09864 12.1288 4.49178 17.1706C3.73185 18.6614 2.7699 20.0191 2.0773 21.5953C1.87529 22.0511 1.62519 22.6208 2.0773 23.0481C2.52941 23.4753 3.62603 23.3234 4.27053 23.3139C7.03129 23.3139 9.77283 23.3139 12.5432 23.238C15.3136 23.162 17.9686 23.4279 20.6812 23.4563C21.5951 23.4563 24.4232 24.0165 24.7983 22.9056C25.0292 22.2125 24.2789 21.0066 24.0095 20.361C23.6312 19.4638 23.2074 18.586 22.7398 17.7308C21.3257 15.2526 20.2003 12.6225 18.8343 10.1348C17.3048 7.28627 15.631 4.61817 13.8803 1.95006C13.3705 1.18097 12.12 1.8931 12.6298 2.6717C15.448 6.87973 17.9586 11.2808 20.1425 15.8413C20.8736 17.4365 21.7971 18.9367 22.5089 20.5319C22.7398 21.0446 22.961 21.5573 23.1438 22.0796C23.1964 22.2668 23.2607 22.4508 23.3362 22.6303L23.8364 22.0891H23.5093C22.8537 22.0224 22.193 22.0224 21.5374 22.0891C19.2287 22.0891 16.92 21.9466 14.6114 21.8612C12.0334 21.7567 9.45538 22.0416 6.86776 21.9561C5.90582 21.9561 5.01122 21.9561 4.08775 21.9561C3.72623 21.9224 3.3623 21.9224 3.00077 21.9561L3.27973 22.5448L3.35668 22.3454C3.45602 22.1873 3.53671 22.0184 3.59717 21.8422C4.27053 20.5034 5.08817 19.25 5.77115 17.9112C8.36839 12.8314 10.1961 7.29577 13.6494 2.71916C14.2074 1.97855 12.9472 1.26647 12.4085 1.99759L12.3797 1.97858Z" fill="#FFC834"/>
</g>
</g>
<defs>
<clipPath id="clip0_8632_24046">
<rect width="24" height="24" fill="white" transform="translate(0.740479 0.64624)"/>
</clipPath>
<clipPath id="clip1_8632_24046">
<rect width="23" height="22" fill="white" transform="translate(1.81757 1.64624)"/>
</clipPath>
</defs>
</svg>
