<svg width="25" height="25" viewBox="0 0 25 25" fill="none" xmlns="http://www.w3.org/2000/svg">
<g clip-path="url(#clip0_8466_4318)">
<g clip-path="url(#clip1_8466_4318)">
<path d="M12.218 7.22934C12.3719 10.5811 12.1314 13.9328 12.218 17.2846C12.2395 17.4774 12.3325 17.6557 12.4789 17.7852C12.6253 17.9147 12.815 17.9862 13.0116 17.9862C13.2082 17.9862 13.3979 17.9147 13.5443 17.7852C13.6908 17.6557 13.7837 17.4774 13.8052 17.2846C13.7186 13.9328 13.9591 10.5811 13.8052 7.22934C13.7571 6.22287 12.1699 6.22287 12.218 7.22934Z" fill="#FFC834"/>
<path d="M13.0453 20.5603C13.2407 20.539 13.4213 20.4474 13.5525 20.3028C13.6836 20.1583 13.7562 19.971 13.7562 19.7769C13.7562 19.5829 13.6836 19.3957 13.5525 19.2511C13.4213 19.1066 13.2407 19.0149 13.0453 18.9936C12.8499 19.0149 12.6693 19.1066 12.5381 19.2511C12.4069 19.3957 12.3344 19.5829 12.3344 19.7769C12.3344 19.971 12.4069 20.1583 12.5381 20.3028C12.6693 20.4474 12.8499 20.539 13.0453 20.5603Z" fill="#FFC834"/>
<path d="M12.0929 1.98804C8.62995 6.61212 6.8119 12.1382 4.20504 17.1801C3.44511 18.6708 2.48316 20.0286 1.79056 21.6048C1.58855 22.0605 1.33845 22.6302 1.79056 23.0575C2.24267 23.4848 3.33928 23.3329 3.98378 23.3234C6.74455 23.3234 9.48609 23.3234 12.2565 23.2474C15.0269 23.1715 17.6818 23.4373 20.3945 23.4658C21.3083 23.4658 24.1364 24.026 24.5116 22.9151C24.7425 22.2219 23.9921 21.0161 23.7228 20.3704C23.3444 19.4733 22.9207 18.5954 22.4531 17.7403C21.039 15.2621 19.9135 12.6319 18.5476 10.1442C17.0181 7.29573 15.3443 4.62763 13.5936 1.95952C13.0837 1.19043 11.8332 1.90256 12.343 2.68116C15.1612 6.88919 17.6719 11.2902 19.8558 15.8508C20.5869 17.4459 21.5103 18.9462 22.2222 20.5413C22.453 21.0541 22.6743 21.5668 22.8571 22.089C22.9097 22.2763 22.974 22.4602 23.0495 22.6397L23.5497 22.0985H23.2226C22.567 22.0318 21.9062 22.0318 21.2506 22.0985C18.942 22.0985 16.6333 21.9561 14.3246 21.8706C11.7466 21.7662 9.16864 22.051 6.58102 21.9656C5.61908 21.9656 4.72447 21.9656 3.80101 21.9656C3.43949 21.9318 3.07555 21.9318 2.71403 21.9656L2.99298 22.5543L3.06994 22.3549C3.16928 22.1968 3.24997 22.0279 3.31043 21.8516C3.98379 20.5128 4.80143 19.2595 5.48441 17.9207C8.08165 12.8408 9.90934 7.30523 13.3627 2.72862C13.9206 1.98801 12.6605 1.27593 12.1218 2.00705L12.0929 1.98804Z" fill="#FFC834"/>
</g>
</g>
<defs>
<clipPath id="clip0_8466_4318">
<rect width="24" height="24" fill="white" transform="translate(0.453735 0.655701)"/>
</clipPath>
<clipPath id="clip1_8466_4318">
<rect width="23" height="22" fill="white" transform="translate(1.53088 1.6557)"/>
</clipPath>
</defs>
</svg>
