<svg width="31" height="39" viewBox="0 0 31 39" fill="none" xmlns="http://www.w3.org/2000/svg">
<path d="M22.1069 25.0355L21.8986 31.3966C21.7713 33.5227 21.7713 35.6544 21.8986 37.7805C21.8986 38.0839 22.0205 38.3749 22.2376 38.5894C22.4547 38.804 22.749 38.9245 23.056 38.9245C23.363 38.9245 23.6573 38.804 23.8744 38.5894C24.0914 38.3749 24.2134 38.0839 24.2134 37.7805C24.0861 35.6544 24.0861 33.5227 24.2134 31.3966L24.4217 25.0355C24.4217 24.7321 24.2998 24.4411 24.0827 24.2266C23.8657 24.012 23.5713 23.8915 23.2643 23.8915C22.9574 23.8915 22.663 24.012 22.4459 24.2266C22.2289 24.4411 22.1069 24.7321 22.1069 25.0355Z" fill="#FFFCFE"/>
<path d="M16.9449 32.5177C20.9458 32.7581 24.9578 32.7581 28.9587 32.5177C30.4402 32.5177 30.4402 30.2296 28.9587 30.2296C26.8522 30.2296 24.7227 30.2296 22.6393 30.3669C21.7835 30.4126 20.9257 30.4126 20.0698 30.3669H18.5421H17.9403C17.9403 30.3669 17.269 30.3669 17.5699 30.3669C17.2725 30.2949 16.9585 30.3377 16.6919 30.4864C16.4252 30.6352 16.226 30.8788 16.1347 31.1677C16.0566 31.4589 16.0979 31.7689 16.2496 32.0302C16.4013 32.2915 16.6511 32.4832 16.9449 32.5635V32.5177Z" fill="#FFFCFE"/>
<path d="M3.68116 36.9086C3.43195 36.1499 3.39157 35.3372 3.5644 34.5572C3.61991 34.2076 3.69791 33.862 3.79786 33.5226C3.79786 33.2639 3.79786 33.6872 3.79786 33.5226L4.03132 33.0759C4.75619 31.6994 5.74857 30.4838 6.9494 29.5016C8.34869 28.4085 9.96576 27.6325 11.6901 27.2266C13.4145 26.8208 15.2056 26.7947 16.9409 27.1502C17.3149 27.239 17.7084 27.1817 18.042 26.9897C18.3757 26.7976 18.6245 26.4852 18.7384 26.1156C18.8387 25.7383 18.7871 25.3365 18.5947 24.9974C18.4024 24.6583 18.0848 24.4095 17.7113 24.305C15.4438 23.8702 13.1153 23.8702 10.8479 24.305C8.64673 24.8414 6.60032 25.8881 4.87169 27.3618C3.41966 28.5663 2.2347 30.0643 1.39336 31.759C0.901578 32.6852 0.598697 33.7012 0.502479 34.7472C0.406261 35.7931 0.518672 36.8478 0.833114 37.8493C0.935272 38.2234 1.18077 38.5414 1.51569 38.7332C1.8506 38.925 2.24746 38.975 2.61894 38.8721C2.99043 38.7692 3.30613 38.5219 3.49658 38.1845C3.68702 37.8472 3.73659 37.4474 3.63443 37.0733L3.68116 36.9086Z" fill="#FFFCFE"/>
<path d="M7.60307 18.4264C9.26521 20.1742 11.3999 21.3924 13.7427 21.93C16.4855 22.4601 19.325 21.871 21.6366 20.2923C23.9481 18.7136 25.5424 16.2746 26.0687 13.5119C26.595 10.7492 26.0101 7.88905 24.4428 5.56068C22.8755 3.23231 20.4541 1.62644 17.7113 1.09635C15.6114 0.657185 13.4248 0.990884 11.5483 2.0369C10.3524 2.77258 9.24744 3.64872 8.25672 4.64696C6.46533 6.45123 5.35845 8.83091 5.12854 11.3721C5.21033 13.8151 6.02415 16.1759 7.46301 18.1442C8.51351 19.6962 11.0347 18.1442 9.9842 16.6628C9.03707 15.3146 8.42105 13.7592 8.18668 12.1246C8.14504 10.4828 8.67339 8.8777 9.6807 7.58625C10.151 6.97525 10.6917 6.42275 11.2915 5.94029L11.7584 5.51705C11.9919 5.30542 11.5483 5.68165 11.7584 5.51705L11.9919 5.32889C13.0577 4.4251 14.3832 3.88941 15.7737 3.80048C17.3731 3.75382 18.9465 4.21455 20.2718 5.11756C21.5971 6.02057 22.6072 7.32022 23.1594 8.83286C23.7116 10.3455 23.7779 11.9947 23.3491 13.5474C22.9202 15.1 22.0178 16.4778 20.7694 17.4858C19.1888 18.7382 17.1931 19.3353 15.1901 19.1553C13.1275 18.8403 11.229 17.8387 9.79747 16.3101C8.53686 14.8993 6.48252 16.992 7.74313 18.3794L7.60307 18.4264Z" fill="#FFFCFE"/>
</svg>
