<svg width="27" height="29" viewBox="0 0 27 29" fill="none" xmlns="http://www.w3.org/2000/svg"><path d="M14.2905 18.6261V21.4078C13.0859 20.9819 11.7966 20.8512 10.5311 21.0268C9.26551 21.2024 8.06056 21.6791 7.0174 22.4169C5.97424 23.1547 5.12334 24.132 4.53615 25.2667C3.94896 26.4015 3.64262 27.6606 3.64286 28.9383L0.980957 28.937C0.980544 27.3117 1.35219 25.7079 2.06741 24.2485C2.78264 22.7891 3.82246 21.5128 5.1072 20.5174C6.39194 19.522 7.8875 18.8339 9.47929 18.5058C11.0711 18.1777 12.7168 18.2184 14.2905 18.6247V18.6261ZM11.6286 16.9597C7.21647 16.9597 3.64286 13.3861 3.64286 8.974C3.64286 4.56189 7.21647 0.988281 11.6286 0.988281C16.0407 0.988281 19.6143 4.56189 19.6143 8.974C19.6143 13.3861 16.0407 16.9597 11.6286 16.9597ZM11.6286 14.2978C14.57 14.2978 16.9524 11.9154 16.9524 8.974C16.9524 6.03259 14.57 3.65019 11.6286 3.65019C8.68717 3.65019 6.30477 6.03259 6.30477 8.974C6.30477 11.9154 8.68717 14.2978 11.6286 14.2978ZM19.6143 22.2835V18.2907H22.2762V22.2835H26.2691V24.9454H22.2762V28.9383H19.6143V24.9454H15.6214V22.2835H19.6143Z"/></svg>
