<svg width="24" height="25" viewBox="0 0 24 25" fill="none" xmlns="http://www.w3.org/2000/svg">
<path d="M7.06039 18.5724C6.9579 18.2626 6.9413 17.9309 7.01237 17.6124C7.0352 17.4697 7.06727 17.3286 7.10838 17.19C7.10838 17.0844 7.10838 17.2572 7.10838 17.19L7.20438 17.0076C7.50247 16.4457 7.91057 15.9494 8.40438 15.5484C8.97981 15.1021 9.6448 14.7853 10.3539 14.6196C11.063 14.454 11.7996 14.4433 12.5132 14.5884C12.667 14.6247 12.8288 14.6013 12.966 14.5229C13.1032 14.4445 13.2055 14.3169 13.2524 14.166C13.2936 14.012 13.2724 13.848 13.1933 13.7095C13.1142 13.5711 12.9836 13.4695 12.83 13.4268C11.8975 13.2493 10.94 13.2493 10.0076 13.4268C9.10237 13.6458 8.26083 14.0732 7.54997 14.6748C6.95285 15.1666 6.46556 15.7782 6.11958 16.47C5.91734 16.8482 5.79279 17.263 5.75322 17.69C5.71365 18.117 5.75988 18.5476 5.88919 18.9564C5.9312 19.1092 6.03216 19.239 6.16988 19.3173C6.30761 19.3956 6.47081 19.4161 6.62357 19.374C6.77634 19.332 6.90617 19.2311 6.98448 19.0933C7.0628 18.9556 7.08318 18.7924 7.04117 18.6396L7.06039 18.5724Z" fill="#BDACBB"/>
<path d="M8.67312 11.0269C9.35664 11.7405 10.2345 12.2378 11.1979 12.4573C12.3258 12.6737 13.4935 12.4332 14.4441 11.7887C15.3947 11.1442 16.0503 10.1485 16.2667 9.02054C16.4831 7.89263 16.2426 6.72494 15.5981 5.77436C14.9536 4.82377 13.9578 4.16816 12.8299 3.95174C11.9664 3.77245 11.0672 3.90869 10.2955 4.33574C9.80372 4.63609 9.34933 4.99378 8.94191 5.40132C8.20524 6.13794 7.75006 7.10947 7.65552 8.14694C7.68915 9.1443 8.02382 10.1081 8.61552 10.9117C9.04752 11.5453 10.0843 10.9117 9.6523 10.3069C9.26282 9.7565 9.00949 9.12152 8.91312 8.45414C8.89599 7.78385 9.11326 7.12857 9.5275 6.60132C9.7209 6.35187 9.94326 6.12631 10.1899 5.92934L10.3819 5.75655C10.2955 5.82375 10.4779 5.67015 10.3819 5.75655L10.4779 5.67973C10.9162 5.31074 11.4613 5.09204 12.0331 5.05574C12.6908 5.03669 13.3379 5.22479 13.8829 5.59345C14.4279 5.96211 14.8432 6.49271 15.0703 7.11027C15.2974 7.72782 15.3247 8.40111 15.1483 9.03501C14.972 9.66892 14.6009 10.2314 14.0875 10.6429C13.4375 11.1542 12.6168 11.398 11.7931 11.3245C10.9449 11.1959 10.1642 10.787 9.57552 10.1629C9.05712 9.58694 8.21231 10.4413 8.73071 11.0077L8.67312 11.0269Z" fill="#BDACBB"/>
<path d="M2.67897 19.7609C4.61961 21.7696 7.09323 23.1726 9.80414 23.8022C12.5504 24.3609 15.4045 23.9059 17.8454 22.5201C20.0069 21.3236 21.7449 19.4784 22.8179 17.2408C23.8908 15.0032 24.2454 12.4844 23.8323 10.0344C23.4193 7.58442 22.2591 5.32492 20.5131 3.56993C18.767 1.81494 16.5218 0.651639 14.0895 0.241668C11.8005 -0.239095 9.41631 0.124922 7.37142 1.26738C5.97425 2.13401 4.6858 3.16717 3.53399 4.3445C1.52595 6.35184 0.279739 9.00498 0.0121238 11.8424C-0.140559 14.4785 1.17251 17.4941 2.6179 19.6173C3.07595 20.2943 4.17528 19.6173 3.71723 18.9711C2.50934 17.2089 1.70613 15.1976 1.36592 13.0835C1.01984 10.8475 2.09879 8.37552 3.33043 6.57027C5.15244 3.90343 8.61323 1.3802 11.8501 1.32892C14.0616 1.27375 16.2351 1.91543 18.0674 3.16447C19.8997 4.41352 21.2995 6.20764 22.0715 8.29665C22.8436 10.3857 22.9495 12.6654 22.3744 14.818C21.7993 16.9705 20.5718 18.8885 18.8633 20.3045C16.6808 22.0749 13.9108 22.9405 11.1172 22.7252C8.25202 22.3295 5.6061 20.962 3.61544 18.848C3.06578 18.2326 2.17003 19.1352 2.70951 19.7506L2.67897 19.7609Z" fill="#BDACBB"/>
<path d="M12.9453 16.3933C13.4637 16.9405 13.9053 17.5645 14.4237 18.1021C14.6772 18.4444 15.0512 18.6778 15.4701 18.7548C15.9597 18.7548 16.1901 18.4093 16.4301 18.0445C17.1693 16.9117 18.0717 15.8844 18.7533 14.7036C18.8113 14.5681 18.8177 14.416 18.7714 14.276C18.7252 14.136 18.6293 14.0178 18.502 13.9435C18.3746 13.8692 18.2245 13.844 18.0799 13.8726C17.9352 13.9012 17.806 13.9817 17.7165 14.0988C17.1213 15.126 16.3533 16.0188 15.6909 16.9788L15.4317 17.3533L15.3165 17.5357C15.2301 17.6605 15.2493 17.6124 15.4605 17.5836C15.6717 17.5548 15.7005 17.5837 15.5757 17.5069L15.4029 17.3533C15.2941 17.2573 15.1885 17.1517 15.0861 17.0365C14.6445 16.5469 14.2509 15.9996 13.7901 15.51C13.3293 15.0204 12.4173 15.7981 12.9453 16.3645V16.3933Z" fill="#BDACBB"/>
</svg>
