<svg width="25" height="29" viewBox="0 0 25 29" fill="none" xmlns="http://www.w3.org/2000/svg"><path d="M18.7434 19.8397L18.9777 20.0753L19.2145 19.8397C19.4926 19.5617 19.8227 19.3411 20.186 19.1906C20.5493 19.0402 20.9387 18.9627 21.3319 18.9627C21.7251 18.9627 22.1145 19.0402 22.4778 19.1906C22.8411 19.3411 23.1712 19.5617 23.4493 19.8397C23.7273 20.1178 23.9479 20.4479 24.0984 20.8112C24.2488 21.1745 24.3263 21.5639 24.3263 21.9571C24.3263 22.3503 24.2488 22.7397 24.0984 23.103C23.9479 23.4663 23.7273 23.7964 23.4493 24.0745L18.9777 28.5447L14.5087 24.0745C13.9472 23.5129 13.6317 22.7513 13.6317 21.9571C13.6317 21.1629 13.9472 20.4013 14.5087 19.8397C15.0703 19.2782 15.8319 18.9627 16.6261 18.9627C17.4202 18.9627 18.1819 19.2782 18.7434 19.8397ZM10.97 17.6319V20.2936C8.85228 20.2936 6.82126 21.1348 5.32378 22.6323C3.82631 24.1298 2.98503 26.1608 2.98503 28.2786H0.323364C0.323396 25.5125 1.39992 22.8551 3.32502 20.8689C5.25011 18.8827 7.87263 17.7236 10.6373 17.6372L10.97 17.6319ZM10.97 0.331055C15.3817 0.331055 18.955 3.90434 18.955 8.31605C18.9558 10.3822 18.1553 12.3682 16.722 13.8563C15.2887 15.3445 13.3342 16.2189 11.2695 16.2957L10.97 16.3011C6.55832 16.3011 2.98503 12.7278 2.98503 8.31605C2.98429 6.2499 3.78473 4.26394 5.21804 2.77578C6.65135 1.28762 8.60586 0.413196 10.6706 0.336378L10.97 0.331055ZM10.97 2.99272C8.02889 2.99272 5.6467 5.37491 5.6467 8.31605C5.6467 11.2572 8.02889 13.6394 10.97 13.6394C13.9112 13.6394 16.2934 11.2572 16.2934 8.31605C16.2934 5.37491 13.9112 2.99272 10.97 2.99272Z"/></svg>
