<svg width="30" height="35" viewBox="0 0 30 35" fill="none" xmlns="http://www.w3.org/2000/svg">
<path d="M3.54918 33.076C3.3584 32.4289 3.3584 31.7399 3.54918 31.0928C3.54918 30.8025 3.69311 30.5123 3.74113 30.2221C3.78914 29.9318 3.62109 30.4397 3.74113 30.2221C3.86116 30.0044 3.74117 29.956 3.93323 29.8351C4.51476 28.6761 5.33287 27.654 6.33392 26.8359C7.5017 25.927 8.85088 25.2835 10.2888 24.9495C11.7268 24.6155 13.2195 24.599 14.6644 24.901C15.049 24.9924 15.4537 24.9334 15.7968 24.7358C16.1399 24.5383 16.3957 24.2171 16.5129 23.8368C16.616 23.4488 16.563 23.0354 16.3652 22.6867C16.1673 22.3379 15.8407 22.0819 15.4565 21.9745C13.4744 21.5875 11.4369 21.5875 9.4548 21.9745C7.52698 22.4476 5.73512 23.3668 4.2213 24.6592C2.96499 25.7023 1.9353 26.9949 1.19639 28.4564C0.760931 29.281 0.492125 30.1845 0.405588 31.1144C0.319051 32.0444 0.416594 32.9824 0.692341 33.8742C0.809456 34.2544 1.06533 34.5757 1.40842 34.7732C1.75151 34.9708 2.15617 35.0298 2.54078 34.9384C2.91707 34.8206 3.23412 34.5616 3.42624 34.2149C3.61837 33.8683 3.67086 33.4606 3.57306 33.076H3.54918Z" fill="white"/>
<path d="M6.40603 15.6618C7.86244 17.1927 9.73183 18.2605 11.7836 18.7335C13.9532 19.1973 16.2163 18.8446 18.1453 17.7419C19.8136 16.807 21.1547 15.3759 21.9851 13.6442C22.8155 11.9125 23.0947 9.96464 22.7847 8.06694C22.4747 6.16925 21.5906 4.41431 20.2531 3.04202C18.9157 1.66974 17.1902 0.74708 15.3125 0.400173C13.4494 -0.00419952 11.504 0.288081 9.83901 1.2225C8.80281 1.87727 7.83727 2.63925 6.95814 3.49604C5.38618 5.09786 4.41824 7.2021 4.22131 9.4459C4.25969 11.5738 4.93771 13.64 6.16587 15.3716C7.24619 16.9679 9.86299 15.3716 8.75867 13.8237C7.97175 12.6917 7.45421 11.3924 7.24622 10.0264C7.24425 8.68765 7.68337 7.38612 8.49463 6.32585C8.88716 5.82163 9.33854 5.36688 9.83901 4.97141L10.2471 4.60861C10.4632 4.39093 9.98301 4.77792 10.2471 4.60861L10.4392 4.4635C11.3126 3.70429 12.4087 3.25405 13.5601 3.1816C14.8819 3.13214 16.1853 3.50542 17.2838 4.24795C18.3822 4.99048 19.2192 6.06419 19.6749 7.31527C20.1306 8.56635 20.1816 9.93062 19.8206 11.2127C19.4596 12.4947 18.7052 13.6288 17.6653 14.4525C16.3646 15.4972 14.7117 15.9916 13.0559 15.8311C11.3544 15.5311 9.79581 14.6823 8.61463 13.4125C7.31826 11.9613 5.20563 14.0897 6.50201 15.5409L6.40603 15.6618Z" fill="white"/>
<path d="M24.0752 26.6182C24.2248 25.9223 24.1705 25.1975 23.9191 24.532C23.6677 23.8665 23.2298 23.2889 22.6587 22.8693C22.0826 22.3336 21.3299 22.032 20.546 22.0228C20.1544 22.038 19.7726 22.1496 19.4336 22.3477C19.0947 22.5459 18.8089 22.8246 18.6015 23.1596C18.2734 23.9243 18.0941 24.7454 18.0734 25.5782C17.9849 26.2922 17.9448 27.0114 17.9534 27.7308C17.9791 28.5416 18.0593 29.3496 18.1934 30.1495C18.3365 30.8598 18.4327 31.5789 18.4815 32.3021C18.4815 32.6228 18.6079 32.9304 18.833 33.1572C19.0581 33.384 19.3635 33.5114 19.6818 33.5114C19.9983 33.5052 20.3 33.3758 20.5238 33.1503C20.7476 32.9249 20.876 32.6209 20.8822 32.3021C20.8822 31.1411 20.5461 30.0527 20.426 28.9159C20.306 27.8633 20.306 26.8002 20.426 25.7475C20.4669 25.3217 20.5473 24.9006 20.6662 24.4898L20.522 24.635C20.522 24.635 20.6901 24.635 20.522 24.635C20.354 24.635 20.6662 24.635 20.8102 24.635C21.1201 24.8117 21.3833 25.0604 21.5783 25.3605C21.66 25.4766 21.7172 25.6083 21.7464 25.7475C21.7704 25.8591 21.7704 25.9746 21.7464 26.0861C21.6709 26.3969 21.7157 26.7249 21.8718 27.0035C22.0279 27.2821 22.2836 27.4903 22.5867 27.5857C22.8923 27.6673 23.2174 27.6242 23.4915 27.4657C23.7657 27.3072 23.9668 27.0461 24.0511 26.7392L24.0752 26.6182Z" fill="white"/>
<path d="M23.9071 27.489L24.1471 27.2471C24.3119 27.1173 24.4889 27.0039 24.6753 26.9085C24.6753 26.9085 24.9154 26.9085 24.6753 26.9085H24.9394H25.2275C25.4188 26.8852 25.6122 26.8852 25.8036 26.9085H26.0917C26.0917 26.9085 25.9236 26.9085 26.0917 26.9085L26.668 27.0778C26.86 27.0778 26.4759 26.9327 26.668 27.0778C26.828 27.1907 26.7799 27.1423 26.5238 26.9327L26.3559 26.328C26.3559 26.328 26.3559 26.1346 26.3559 26.328C26.3262 26.4288 26.2859 26.5261 26.2357 26.6183L25.9476 27.1262L25.6596 27.6341L25.9957 27.755C25.9957 27.755 25.8277 27.9969 25.9957 27.876C25.4794 28.5292 24.8916 29.1215 24.2432 29.6416L23.9552 29.8351L23.4029 30.1979L22.2266 30.8751C21.4518 31.2516 20.6491 31.5669 19.8259 31.8183C19.5194 31.9086 19.26 32.1159 19.1031 32.396C18.9461 32.6761 18.904 33.0069 18.9857 33.3179C19.0753 33.6214 19.2772 33.8786 19.5498 34.0361C19.8224 34.1937 20.1448 34.2397 20.4501 34.1644C23.0858 33.4464 25.4766 32.0162 27.3641 30.0286C27.8095 29.5326 28.2111 28.9985 28.5645 28.4323C28.9493 27.8827 29.2338 27.2684 29.4047 26.6183C29.7648 24.8527 27.5322 24.1996 26.2118 24.1996C25.5051 24.1762 24.8015 24.3042 24.1476 24.5752C23.4937 24.8462 22.9044 25.2541 22.4187 25.7717C22.3062 25.8842 22.2169 26.0179 22.156 26.1653C22.095 26.3127 22.0636 26.4707 22.0636 26.6304C22.0636 26.79 22.095 26.9481 22.156 27.0955C22.2169 27.2428 22.3062 27.3766 22.4187 27.489C22.6459 27.705 22.9465 27.8253 23.2589 27.8253C23.5713 27.8253 23.872 27.705 24.0992 27.489H23.9071Z" fill="white"/>
</svg>
