<svg width="33" height="39" viewBox="0 0 33 39" fill="none" xmlns="http://www.w3.org/2000/svg">
<path d="M17.9278 30.717C19.1884 32.0573 20.2623 33.5857 21.5229 34.9025C22.1392 35.7412 23.0487 36.3127 24.0675 36.5015C25.2581 36.5015 25.8183 35.655 26.402 34.7614C28.1995 31.9867 30.3939 29.4707 32.0514 26.5784C32.1923 26.2464 32.208 25.8739 32.0954 25.531C31.9829 25.1881 31.7498 24.8984 31.4401 24.7165C31.1304 24.5345 30.7654 24.4727 30.4137 24.5428C30.0619 24.6129 29.7477 24.81 29.5301 25.097C28.0828 27.613 26.2152 29.7999 24.6044 32.1513L23.9742 33.0684L23.694 33.5152C23.4839 33.8209 23.5306 33.7033 24.0442 33.6327C24.5578 33.5622 24.6278 33.6328 24.3243 33.4446L23.9041 33.0684C23.6396 32.8333 23.3827 32.5746 23.1337 32.2925C22.0599 31.0932 21.1027 29.7529 19.9822 28.5536C18.8616 27.3544 16.6439 29.2591 17.9278 30.6464V30.717Z" fill="#FFFCFE"/>
<path d="M3.61757 36.0548C3.36835 35.296 3.32797 34.4833 3.5008 33.7033C3.55631 33.3537 3.63431 33.0081 3.73426 32.6687C3.73426 32.41 3.73426 32.8333 3.73426 32.6687L3.96772 32.222C4.69259 30.8455 5.68497 29.63 6.8858 28.6478C8.28509 27.5546 9.90216 26.7786 11.6265 26.3727C13.3509 25.9669 15.142 25.9409 16.8773 26.2963C17.2513 26.3852 17.6448 26.3278 17.9784 26.1358C18.3121 25.9438 18.5609 25.6313 18.6748 25.2617C18.7751 24.8844 18.7235 24.4826 18.5311 24.1435C18.3388 23.8044 18.0212 23.5556 17.6477 23.4511C15.3802 23.0163 13.0517 23.0163 10.7843 23.4511C8.58313 23.9875 6.53672 25.0342 4.80809 26.5079C3.35606 27.7125 2.1711 29.2105 1.32976 30.9051C0.83798 31.8314 0.535098 32.8474 0.43888 33.8933C0.342662 34.9392 0.455074 35.9939 0.769515 36.9954C0.871673 37.3696 1.11717 37.6875 1.45209 37.8793C1.787 38.0711 2.18386 38.1212 2.55534 38.0182C2.92683 37.9153 3.24254 37.668 3.43298 37.3306C3.62342 36.9933 3.67299 36.5936 3.57083 36.2194L3.61757 36.0548Z" fill="#FFFCFE"/>
<path d="M7.53947 17.5724C9.20161 19.3202 11.3363 20.5384 13.6791 21.0761C16.4219 21.6062 19.2614 21.0171 21.573 19.4384C23.8845 17.8596 25.4788 15.4207 26.0051 12.658C26.5314 9.89524 25.9465 7.03511 24.3792 4.70674C22.8119 2.37837 20.3905 0.772495 17.6477 0.242402C15.5478 -0.196758 13.3612 0.136941 11.4847 1.18296C10.2888 1.91864 9.18384 2.79477 8.19312 3.79302C6.40173 5.59729 5.29485 7.97696 5.06494 10.5182C5.14673 12.9611 5.96055 15.322 7.39941 17.2903C8.44992 18.8422 10.9711 17.2903 9.9206 15.8089C8.97347 14.4606 8.35745 12.9053 8.12309 11.2706C8.08144 9.62881 8.60979 8.02375 9.61711 6.73231C10.0874 6.1213 10.6281 5.5688 11.2279 5.08635L11.6948 4.66311C11.9283 4.45148 11.4847 4.82771 11.6948 4.66311L11.9283 4.47495C12.9941 3.57115 14.3196 3.03546 15.7101 2.94653C17.3095 2.89988 18.8829 3.36061 20.2082 4.26362C21.5335 5.16663 22.5436 6.46628 23.0958 7.97892C23.648 9.49156 23.7143 11.1407 23.2855 12.6934C22.8566 14.2461 21.9542 15.6238 20.7058 16.6319C19.1252 17.8842 17.1295 18.4814 15.1265 18.3014C13.0639 17.9864 11.1654 16.9847 9.73387 15.4562C8.47326 14.0453 6.41892 16.1381 7.67953 17.5254L7.53947 17.5724Z" fill="#FFFCFE"/>
</svg>
