<svg width="25" height="27" viewBox="0 0 25 27" fill="none" xmlns="http://www.w3.org/2000/svg"><path d="M13.3383 16.4561L13.3383 19.0514C12.1311 18.654 10.8391 18.5321 9.57078 18.696C8.30248 18.8598 7.09492 19.3046 6.0495 19.9929C5.00409 20.6812 4.15134 21.5931 3.56288 22.6518C2.97442 23.7105 2.66742 24.8853 2.66766 26.0774L1.29571e-06 26.0761C-0.000412744 24.5598 0.372035 23.0634 1.08881 21.7018C1.80558 20.3402 2.84765 19.1494 4.13517 18.2207C5.42269 17.2919 6.92149 16.6499 8.51672 16.3439C10.1119 16.0378 11.7613 16.077 13.3383 16.4561ZM10.6707 14.9013C6.249 14.9013 2.66766 11.5672 2.66766 7.45067C2.66766 3.33418 6.249 -2.27896e-07 10.6707 -3.8915e-07C15.0923 -5.50404e-07 18.6736 3.33418 18.6736 7.45067C18.6736 11.5672 15.0923 14.9013 10.6707 14.9013ZM10.6707 12.4178C13.6184 12.4178 16.006 10.195 16.006 7.45067C16.006 4.70634 13.6184 2.48356 10.6707 2.48356C7.72288 2.48356 5.33533 4.70634 5.33533 7.45067C5.33533 10.195 7.72288 12.4178 10.6707 12.4178ZM18.3975 23.487L23.1126 19.0973L25 20.8532L18.3975 27L13.6811 22.6091L15.5685 20.8532L18.3975 23.487Z"/></svg>
