<svg width="21" height="18" viewBox="0 0 21 18" fill="none" xmlns="http://www.w3.org/2000/svg"><path d="M20.6621 2.65593C19.8986 2.99362 19.089 3.2154 18.2601 3.31393C19.1338 2.79136 19.7878 1.96894 20.1001 0.999927C19.2801 1.48793 18.3811 1.82993 17.4441 2.01493C16.8147 1.34151 15.9804 0.89489 15.071 0.744511C14.1616 0.594133 13.228 0.748418 12.4153 1.18338C11.6026 1.61834 10.9564 2.30961 10.5772 3.14972C10.1979 3.98983 10.1068 4.93171 10.3181 5.82893C8.65516 5.74558 7.02838 5.31345 5.54334 4.56059C4.05829 3.80773 2.74818 2.75097 1.69805 1.45893C1.32634 2.09738 1.13101 2.82315 1.13205 3.56193C1.13205 5.01193 1.87005 6.29293 2.99205 7.04293C2.32806 7.02202 1.67869 6.84271 1.09805 6.51993V6.57193C1.09825 7.53763 1.43242 8.47354 2.0439 9.22099C2.65538 9.96843 3.50653 10.4814 4.45305 10.6729C3.83667 10.84 3.19036 10.8646 2.56305 10.7449C2.82992 11.5762 3.35006 12.3031 4.05064 12.824C4.75123 13.3449 5.59718 13.6337 6.47005 13.6499C5.60253 14.3313 4.60923 14.8349 3.54693 15.1321C2.48464 15.4293 1.37418 15.5142 0.279053 15.3819C2.19075 16.6114 4.41615 17.264 6.68905 17.2619C14.3821 17.2619 18.5891 10.8889 18.5891 5.36193C18.5891 5.18193 18.5841 4.99993 18.5761 4.82193C19.3949 4.23009 20.1017 3.49695 20.6631 2.65693L20.6621 2.65593Z"/></svg>
