<svg width="110" height="141" viewBox="0 0 110 141" fill="none" xmlns="http://www.w3.org/2000/svg">
<g clip-path="url(#clip0_8342_94)">
<path d="M106.875 88.1201C102.505 88.0701 98.135 88.12 93.765 88.34C90.215 88.54 86.495 88.5901 83.105 89.7801C76.535 92.0801 73.915 98.7801 74.105 105.32C74.355 112.03 77.395 120.25 84.705 121.79C89.135 122.72 93.835 122.45 98.335 122.38L105.255 122.28C107.115 122.28 108.755 121.72 109.085 119.64C109.187 118.468 109.163 117.288 109.015 116.12C108.935 114.87 108.855 113.62 108.765 112.37C108.595 109.84 108.415 107.32 108.275 104.79C107.937 99.7932 107.997 94.7774 108.455 89.7901C108.675 87.7101 105.455 87.7301 105.205 89.7901C104.375 97.6301 105.055 105.51 105.585 113.35L105.765 116.16C105.71 117.062 105.757 117.968 105.905 118.86C106.025 119.23 106.085 119.16 105.745 119.06C105.254 119 104.757 119 104.265 119.06H100.805C96.805 119.11 92.885 119.26 88.935 119.06C87.158 119.04 85.3969 118.723 83.725 118.12C82.2068 117.391 80.9448 116.22 80.105 114.76C78.6203 112.331 77.7105 109.595 77.445 106.76C76.945 101.66 78.135 95.35 83.395 93.15C86.675 91.78 90.465 91.8201 93.955 91.6301C98.245 91.4001 102.535 91.3701 106.825 91.4201C108.925 91.4201 108.925 88.2001 106.825 88.1701L106.875 88.1201Z" fill="#A31852"/>
<path d="M46.145 70.76C44.9651 70.0284 44.037 68.9538 43.485 67.68C42.9372 66.7774 42.6628 65.7354 42.695 64.68C42.7653 63.5104 43.1353 62.3784 43.7695 61.3931C44.4037 60.4078 45.2807 59.6022 46.3163 59.0538C47.3518 58.5054 48.5109 58.2326 49.6823 58.2618C50.8538 58.2909 51.998 58.6209 53.005 59.22C54.1889 59.8271 55.128 60.8228 55.665 62.04C56.175 63.21 56.215 64.54 56.665 65.72C57.2425 66.9698 58.099 68.0705 59.1687 68.9374C60.2383 69.8042 61.4926 70.414 62.835 70.72C64.067 70.8831 65.32 70.7664 66.5007 70.3786C67.6814 69.9908 68.7596 69.3418 69.655 68.48C73.655 64.88 71.655 59.17 69.785 55.09C68.4574 52.0212 66.4219 49.3106 63.845 47.18C61.135 45.04 57.845 43.8 54.845 42.18C53.295 41.34 51.845 43.71 53.465 44.55C56.145 46 59.055 47.12 61.555 48.89C63.9785 50.7505 65.9027 53.1832 67.155 55.97C68.1549 57.9351 68.8303 60.0491 69.155 62.23C69.2836 63.374 69.0334 64.5286 68.4427 65.5166C67.852 66.5047 66.9535 67.2717 65.885 67.7C65.2474 67.972 64.5569 68.097 63.8645 68.0659C63.1721 68.0347 62.4955 67.8481 61.885 67.52C60.7388 66.8327 59.7965 65.8525 59.155 64.68C58.665 63.62 58.635 62.37 58.225 61.28C57.7087 59.9757 56.8975 58.8086 55.855 57.87C54.0923 56.3504 51.8423 55.5145 49.515 55.5145C47.1877 55.5145 44.9378 56.3504 43.175 57.87C41.075 59.77 39.415 63.35 39.945 66.21C40.2422 67.6219 40.8158 68.9611 41.6327 70.1505C42.4497 71.3398 43.4938 72.3558 44.705 73.14C46.195 74.14 47.575 71.73 46.095 70.77L46.145 70.76Z" fill="#A31852"/>
<path d="M54.855 42.19C50.6553 41.3494 46.3011 41.7632 42.335 43.38C38.405 44.92 34.465 47.25 31.885 50.66C29.2024 54.3289 27.5487 58.6478 27.095 63.17C26.6823 66.1669 26.7974 69.2129 27.435 72.17C27.865 73.89 30.515 73.17 30.085 71.44C29.5971 69.0147 29.4925 66.5278 29.775 64.07C30.0654 59.9963 31.447 56.0757 33.775 52.72C35.945 49.59 39.575 47.41 43.065 46.03C46.5543 44.5536 50.4016 44.1396 54.125 44.84C55.855 45.21 56.595 42.56 54.855 42.19Z" fill="#A31852"/>
<path d="M51.045 59.8201C49.9805 59.5049 48.8418 59.5485 47.8046 59.9442C46.7673 60.34 45.889 61.0658 45.305 62.01C44.7352 62.9195 44.4198 63.9653 44.3916 65.0382C44.3635 66.1111 44.6236 67.1719 45.145 68.11C46.375 70.11 48.995 70.77 51.205 70.34C52.3894 70.0559 53.4137 69.3155 54.055 68.28C54.7895 67.3851 55.2419 66.2923 55.355 65.14C55.495 62.52 53.355 60.4601 50.925 59.8801C50.5736 59.7833 50.1981 59.83 49.8812 60.01C49.5642 60.19 49.3318 60.4886 49.235 60.84C49.1382 61.1914 49.185 61.5669 49.365 61.8838C49.545 62.2008 49.8436 62.4332 50.195 62.53C50.3576 62.5674 50.5178 62.6142 50.675 62.67C50.675 62.67 51.045 62.8 50.865 62.73C50.685 62.66 50.955 62.73 50.985 62.79C51.1369 62.8601 51.2839 62.9403 51.425 63.03L51.635 63.17C51.715 63.2167 51.715 63.2167 51.635 63.17L51.775 63.29C51.905 63.4 52.015 63.52 52.135 63.64C52.255 63.76 52.025 63.49 52.135 63.64L52.315 63.92L52.435 64.15C52.435 64.15 52.525 64.39 52.435 64.15C52.495 64.34 52.535 64.52 52.585 64.72C52.635 64.92 52.585 64.43 52.585 64.8V65.04C52.585 65.09 52.585 65.31 52.585 65.04C52.5741 65.1244 52.5574 65.208 52.535 65.29L52.445 65.5701C52.445 65.5101 52.545 65.38 52.445 65.64C52.345 65.9 52.215 66.06 52.085 66.26L51.755 66.73C51.705 66.8 51.655 66.88 51.595 66.95C51.725 66.78 51.595 66.95 51.595 66.95C51.595 66.95 51.345 67.22 51.215 67.33C51.365 67.2 51.215 67.33 51.215 67.33C51.215 67.33 50.845 67.5201 51.065 67.4301C50.8961 67.4919 50.7221 67.5387 50.545 67.5701C50.765 67.5701 50.545 67.5701 50.545 67.5701H50.265C50.065 67.5701 49.865 67.5701 49.665 67.5701H49.395C49.245 67.5701 49.545 67.5701 49.295 67.5701C49.045 67.5701 48.905 67.4901 48.705 67.4301L48.455 67.35C48.245 67.27 48.615 67.43 48.455 67.35L48.225 67.22C48.225 67.22 47.945 67.02 48.135 67.22C48.0009 67.101 47.8741 66.9741 47.755 66.84C47.615 66.7 47.855 67.01 47.755 66.84C47.7187 66.7712 47.6786 66.7044 47.635 66.64L47.495 66.3801C47.495 66.3801 47.575 66.6301 47.495 66.3801C47.4333 66.2317 47.3864 66.0776 47.355 65.92C47.3493 65.8435 47.3493 65.7666 47.355 65.6901C47.285 65.4001 47.355 65.9 47.355 65.58C47.355 65.41 47.355 65.26 47.355 65.09C47.3504 65.0068 47.3504 64.9233 47.355 64.84C47.355 64.79 47.355 64.58 47.355 64.84C47.355 64.67 47.425 64.5 47.465 64.34C47.4871 64.2553 47.5138 64.1718 47.545 64.09C47.545 64.09 47.705 63.7 47.545 63.95C47.6346 63.7561 47.7382 63.5689 47.855 63.39C47.855 63.32 47.945 63.2501 47.995 63.1801C47.875 63.3401 47.995 63.1801 48.065 63.1201L48.235 62.9401C48.235 62.9401 48.545 62.69 48.435 62.77L48.545 62.7L48.815 62.55C49.035 62.42 48.885 62.55 48.815 62.55L49.165 62.4301L49.405 62.3701C49.755 62.2801 49.155 62.3701 49.525 62.3701C49.728 62.3551 49.9319 62.3551 50.135 62.3701C50.065 62.3701 49.885 62.3701 50.135 62.3701L50.485 62.47C50.8417 62.5611 51.22 62.507 51.5368 62.3195C51.8537 62.132 52.0832 61.8265 52.175 61.47C52.2634 61.1135 52.208 60.7364 52.021 60.4203C51.8339 60.1041 51.5301 59.8742 51.175 59.78L51.045 59.8201Z" fill="#A31852"/>
<path d="M6.14499 6.93004C1.54499 12.18 0.145014 19.53 1.04501 26.31C2.04501 33.78 7.52503 39.31 13.565 43.2C15.6316 44.521 17.951 45.3964 20.375 45.77C21.7993 45.9507 23.2449 45.8591 24.635 45.5C26.395 45.08 28.165 44.79 29.925 44.41C33.625 43.61 36.455 41.3501 39.175 38.8201C41.8179 36.1839 43.7986 32.9592 44.955 29.41C46.145 26.14 46.265 22.89 43.955 20.09C43.1891 19.2106 42.2373 18.5124 41.1685 18.0459C40.0997 17.5794 38.9405 17.3563 37.7749 17.3927C36.6093 17.4291 35.4663 17.724 34.4287 18.2562C33.391 18.7884 32.4846 19.5446 31.775 20.47C30.675 21.93 30.285 23.71 29.595 25.37C29.3687 26.1734 28.9694 26.9174 28.425 27.55C27.1774 28.5511 25.6665 29.1693 24.075 29.33C22.9013 29.4308 21.7193 29.3017 20.595 28.95C19.0762 28.1201 17.8896 26.7923 17.235 25.19C16.7743 24.1193 16.6128 22.9436 16.7678 21.7883C16.9228 20.633 17.3884 19.5415 18.115 18.6301C19.0894 17.357 20.4685 16.454 22.025 16.0701C23.4728 15.8797 24.9451 16.0444 26.315 16.55C27.8084 16.8973 29.3657 16.8572 30.8393 16.4337C32.3129 16.0102 33.6539 15.2172 34.735 14.1301C35.6486 13.0158 36.2541 11.6815 36.4909 10.2602C36.7278 8.83889 36.5878 7.38032 36.085 6.03001C35.025 3.19001 32.365 1.77004 29.645 0.930039C28.2526 0.587736 26.8346 0.360313 25.405 0.250046C23.7448 0.0417326 22.0652 0.0417326 20.405 0.250046C18.6411 0.408566 16.9042 0.788214 15.235 1.38005C13.5666 2.0665 11.9773 2.93149 10.495 3.96001C9.02503 4.96001 7.59501 5.96001 6.10501 6.96001C4.61501 7.96001 5.99503 10.29 7.49503 9.34001C10.325 7.53001 12.975 5.20003 16.145 3.98003C19.074 2.93073 22.2139 2.60816 25.295 3.04002C27.755 3.37002 30.535 3.64002 32.385 5.47002C33.2407 6.37065 33.7478 7.54651 33.8156 8.78697C33.8834 10.0274 33.5075 11.2515 32.755 12.24C31.7575 13.2342 30.4466 13.8525 29.045 13.99C27.535 14.31 26.305 13.66 24.835 13.36C23.4463 13.1283 22.0226 13.2256 20.6783 13.6442C19.334 14.0628 18.1067 14.7909 17.095 15.77C16.1769 16.5964 15.4309 17.5958 14.8997 18.711C14.3685 19.8262 14.0625 21.0353 13.9994 22.2689C13.9362 23.5025 14.1171 24.7365 14.5316 25.9001C14.9461 27.0638 15.5861 28.1342 16.415 29.05C17.304 30.2008 18.48 31.0974 19.825 31.65C20.9135 31.9483 22.0364 32.103 23.165 32.11C24.5449 32.1693 25.9223 31.9453 27.2122 31.4516C28.5021 30.958 29.6772 30.2053 30.665 29.24C31.1004 28.6732 31.4383 28.0378 31.665 27.36C32.395 25.79 32.745 23.99 33.665 22.52C34.0505 21.9231 34.5543 21.4115 35.1452 21.0168C35.7361 20.6222 36.4016 20.3528 37.1007 20.2254C37.7997 20.0979 38.5175 20.1151 39.2096 20.2759C39.9018 20.4366 40.5537 20.7375 41.125 21.16C43.925 23.38 43.125 26.61 41.995 29.48C40.7016 32.8541 38.5632 35.8394 35.785 38.15C34.6606 39.1909 33.411 40.0879 32.065 40.8201C30.332 41.5358 28.5078 42.0069 26.645 42.22C25.365 42.45 24.125 42.8801 22.835 43.0701C21.5103 43.2176 20.1695 43.0603 18.915 42.61C16.3276 41.6932 13.9161 40.3403 11.785 38.61C8.82892 36.3775 6.46355 33.456 4.89499 30.1C3.34499 26.66 3.25501 22.45 3.79501 18.77C4.24033 15.1223 5.73004 11.681 8.08499 8.86003C9.25499 7.53003 7.31499 5.58003 6.14499 6.86003V6.93004Z" fill="#A31852"/>
<path d="M19.665 18.84C18.873 19.6128 18.3562 20.6238 18.1936 21.7183C18.0311 22.8129 18.2317 23.9305 18.765 24.9C19.2696 25.8488 20.023 26.6424 20.9444 27.1956C21.8658 27.7487 22.9203 28.0407 23.995 28.0401C26.365 27.9601 28.205 26.0401 28.925 23.8701C29.0916 23.2646 29.1366 22.6321 29.0577 22.0091C28.9787 21.3861 28.7773 20.7849 28.465 20.2401C28.0449 19.1999 27.3242 18.3086 26.395 17.6801C24.165 16.3001 21.395 17.1701 19.665 18.9801C19.4404 19.2437 19.3231 19.5821 19.3364 19.9282C19.3498 20.2743 19.4928 20.6028 19.7371 20.8483C19.9814 21.0939 20.3091 21.2385 20.6551 21.2537C21.0011 21.2688 21.3402 21.1533 21.605 20.9301C21.7207 20.7994 21.8443 20.6758 21.975 20.5601L22.175 20.3801C21.995 20.5301 22.175 20.3801 22.265 20.3201L22.705 20.0501L22.935 19.9401C23.075 19.8801 22.795 19.9401 23.035 19.9401L23.535 19.8001C23.805 19.7401 23.605 19.8001 23.535 19.8001H24.095C24.095 19.8001 24.395 19.8001 24.225 19.8001C24.055 19.8001 24.315 19.8001 24.355 19.8001L24.655 19.8801C24.905 19.9501 24.735 19.8801 24.655 19.8801L24.875 19.9901L25.135 20.1601C25.295 20.2701 25.035 20.0201 25.135 20.1601C25.235 20.3001 25.265 20.28 25.325 20.34C25.385 20.4 25.515 20.58 25.425 20.46L25.515 20.59C25.575 20.69 25.635 20.7801 25.685 20.8801C25.735 20.9801 25.855 21.2001 25.935 21.3601L26.085 21.6701C26.085 21.6701 26.215 21.97 26.165 21.84C26.115 21.71 26.215 22 26.225 22.02C26.235 22.04 26.225 22.2001 26.305 22.3001C26.385 22.4001 26.305 22.6201 26.305 22.4701C26.305 22.3201 26.305 22.68 26.305 22.71C26.305 22.52 26.305 22.71 26.305 22.77C26.305 22.83 26.245 23.0001 26.215 23.1201C26.185 23.2401 26.285 22.9701 26.215 23.1901C26.145 23.4101 26.135 23.36 26.095 23.45C26.055 23.54 25.905 23.7801 25.805 23.9401L25.655 24.15C25.655 24.22 25.485 24.3801 25.655 24.2301C25.5362 24.3802 25.4093 24.5237 25.275 24.6601L25.095 24.84C25.095 24.84 24.855 25.0201 24.985 24.9301C25.115 24.8401 24.895 24.9801 24.865 25.0001L24.645 25.1201C24.465 25.2301 24.825 25.0701 24.645 25.1201C24.465 25.1701 24.435 25.18 24.335 25.21C23.975 25.34 24.465 25.21 24.245 25.21H23.665C23.665 25.21 23.365 25.21 23.525 25.21H23.375L23.115 25.14L22.865 25.0501C22.775 25.0501 22.775 25.0501 22.865 25.0501L22.675 24.96C22.5228 24.8831 22.3758 24.7962 22.235 24.7L22.025 24.5601C21.855 24.4501 22.165 24.7001 22.025 24.5601C21.885 24.4201 21.775 24.3401 21.665 24.2201L21.495 24.0401C21.453 23.9979 21.416 23.9509 21.385 23.9C21.4583 24 21.4583 24 21.385 23.9C21.295 23.74 21.185 23.5901 21.095 23.4301C21.0575 23.3587 21.0242 23.2852 20.995 23.21C21.105 23.48 20.995 23.11 20.995 23.08L20.935 22.84C20.935 22.78 20.865 22.4201 20.935 22.7301C20.925 22.5435 20.925 22.3566 20.935 22.1701C20.935 22.1701 20.935 21.8701 20.935 22.0501C20.935 22.2301 20.935 21.9001 20.935 21.8701C20.9503 21.789 20.9703 21.7088 20.995 21.6301C20.995 21.6301 21.155 21.2501 20.995 21.5001C21.0852 21.318 21.1853 21.1411 21.295 20.9701C21.295 20.9701 21.135 21.1501 21.295 20.9701C21.3766 20.8785 21.4634 20.7916 21.555 20.71C21.6893 20.5804 21.7961 20.4251 21.869 20.2533C21.942 20.0814 21.9796 19.8967 21.9796 19.71C21.9796 19.5234 21.942 19.3387 21.869 19.1669C21.7961 18.9951 21.6893 18.8397 21.555 18.71C21.289 18.4462 20.9296 18.2982 20.555 18.2982C20.1804 18.2982 19.821 18.4462 19.555 18.71L19.665 18.84Z" fill="#A31852"/>
<path d="M89.825 3.50004C82.975 0.880042 74.4249 2.45004 68.3849 6.50004C62.3449 10.55 59.3249 17.73 58.3849 24.5C57.9662 26.8708 58.1136 29.307 58.815 31.61C59.3305 32.863 60.0025 34.0458 60.815 35.13C61.815 36.59 62.565 38.19 63.595 39.62C65.715 42.62 69.075 44.55 72.355 46C75.9492 47.4632 79.8375 48.0593 83.705 47.74C85.3202 47.7084 86.891 47.2049 88.2236 46.2915C89.5563 45.3782 90.5926 44.095 91.205 42.6C91.7583 41.1357 91.8637 39.54 91.5075 38.0157C91.1514 36.4914 90.3499 35.1075 89.205 34.04C86.435 31.45 82.895 32.04 79.415 31.83C77.195 31.67 75.355 28.91 74.785 26.73C74.3294 25.5553 74.351 24.2491 74.845 23.09C75.4586 21.5651 76.527 20.2662 77.905 19.37C78.8222 18.8338 79.8589 18.5355 80.9208 18.5024C81.9827 18.4692 83.0361 18.7022 83.985 19.18C85.5314 19.8368 86.7714 21.0553 87.455 22.59C88.045 23.89 87.865 25.37 88.105 26.75C88.4463 28.2559 89.1817 29.644 90.236 30.7721C91.2903 31.9002 92.6256 32.7278 94.105 33.17C95.4724 33.4572 96.8903 33.3931 98.2263 32.9839C99.5623 32.5747 100.773 31.8337 101.745 30.83C102.656 29.7087 103.3 28.3952 103.629 26.9886C103.958 25.582 103.964 24.119 103.645 22.71C103.191 19.5669 102.207 16.5236 100.735 13.71C99.0557 10.7696 96.7264 8.25215 93.925 6.35002C92.565 5.35002 91.185 4.45999 89.865 3.44999C88.545 2.43999 87.075 4.77 88.475 5.83C91.005 7.75 93.845 9.36004 96.045 11.69C98.1167 14.0328 99.5646 16.8598 100.255 19.91C100.825 22.28 101.615 25.14 100.625 27.48C100.153 28.5711 99.323 29.4687 98.2723 30.0249C97.2216 30.5812 96.0127 30.7628 94.845 30.54C94.1583 30.3574 93.5177 30.0324 92.9647 29.5862C92.4117 29.14 91.9586 28.5825 91.6349 27.95C91.2327 27.4296 90.937 26.8349 90.765 26.2C90.6703 25.5168 90.6102 24.8293 90.585 24.14C90.4618 22.7283 89.9981 21.3675 89.2335 20.1744C88.4688 18.9813 87.4262 17.9916 86.195 17.29C84.1535 15.976 81.6782 15.5144 79.3003 16.0042C76.9224 16.494 74.8311 17.8962 73.475 19.91C72.664 21.0343 72.0768 22.304 71.745 23.65C71.5489 24.8917 71.6622 26.1626 72.075 27.35C72.7675 30.0474 74.4627 32.3792 76.815 33.87C78.815 35.19 81.605 34.59 83.815 34.7C84.5763 34.7118 85.3258 34.8897 86.0112 35.2212C86.6966 35.5527 87.3013 36.0299 87.7832 36.6194C88.2651 37.2088 88.6125 37.8964 88.801 38.634C88.9896 39.3717 89.0148 40.1416 88.875 40.89C88.5796 42.1517 87.8371 43.2636 86.785 44.02C85.315 45.08 83.495 45.02 81.785 45.02C78.1871 45.0686 74.6382 44.1831 71.485 42.45C70.1129 41.7574 68.8132 40.9301 67.605 39.98C66.2641 38.6885 65.1547 37.1766 64.325 35.51C63.005 33.24 61.325 31.38 61.035 28.65C60.8318 22.2397 63.0366 15.9857 67.215 11.12C69.835 8.22004 73.595 6.60003 77.325 5.67003C81.2115 4.61378 85.3295 4.78492 89.115 6.16002C90.775 6.80002 91.485 4.15999 89.845 3.50999L89.825 3.50004Z" fill="#A31852"/>
<path d="M83.665 20.47C82.6707 19.9503 81.5304 19.7802 80.4276 19.987C79.3248 20.1937 78.3236 20.7654 77.585 21.6101C76.8759 22.4026 76.3902 23.3693 76.1775 24.4113C75.9649 25.4533 76.0331 26.5331 76.3751 27.5401C76.7957 28.6324 77.6137 29.5254 78.665 30.0401C79.6682 30.5404 80.774 30.8006 81.895 30.8001C82.5212 30.7654 83.1344 30.607 83.699 30.3341C84.2637 30.0612 84.7688 29.6791 85.1851 29.21C86.0266 28.4572 86.6341 27.4783 86.9351 26.39C87.0636 25.7448 87.0635 25.0805 86.9348 24.4353C86.8061 23.7901 86.5513 23.1766 86.1851 22.6301C85.4301 21.5902 84.3872 20.7941 83.1851 20.34C83.0084 20.2936 82.8243 20.2826 82.6434 20.3078C82.4625 20.333 82.2883 20.3939 82.1311 20.487C81.9739 20.58 81.8367 20.7033 81.7275 20.8497C81.6183 20.9962 81.5393 21.1628 81.4951 21.34C81.4119 21.6963 81.4695 22.0709 81.6558 22.3858C81.8421 22.7006 82.1428 22.9314 82.4951 23.03C82.2551 22.93 82.4951 23.03 82.4951 23.03L82.765 23.1701C82.924 23.2538 83.0776 23.3473 83.225 23.45C83.275 23.45 83.415 23.62 83.225 23.45L83.405 23.6001C83.5527 23.7392 83.6928 23.8861 83.825 24.0401C83.645 23.8301 83.925 24.1801 83.955 24.2401C83.985 24.3001 84.205 24.7201 84.105 24.4901C84.1813 24.6702 84.2382 24.8579 84.275 25.0501C84.275 25.0501 84.275 25.3601 84.275 25.1901C84.275 25.0201 84.275 25.42 84.275 25.46C84.275 25.5 84.275 25.64 84.275 25.72C84.275 25.8 84.345 25.55 84.275 25.72C84.239 25.8208 84.2123 25.9245 84.1951 26.03C84.1951 26.08 84.0851 26.26 84.1951 26.03C84.1113 26.189 84.0178 26.3427 83.915 26.4901C83.775 26.7101 83.855 26.5801 83.915 26.4901L83.655 26.7901C83.3968 27.0749 83.123 27.3453 82.835 27.6001C82.675 27.7501 82.985 27.5101 82.835 27.6001C82.685 27.6901 82.6451 27.71 82.5551 27.78C82.4651 27.85 82.3151 27.89 82.5551 27.78C82.4551 27.78 82.335 27.8301 82.235 27.8801C82.135 27.9301 82.505 27.8801 82.135 27.8801H81.8751C81.7851 27.8801 81.3251 27.8801 81.5651 27.8801C81.1784 27.8209 80.7972 27.7306 80.425 27.6101L80.225 27.5401C80.375 27.6001 80.135 27.4901 80.105 27.4801C79.935 27.3952 79.7713 27.2983 79.615 27.1901C79.815 27.3301 79.455 27.0501 79.415 27.0001L79.2551 26.8201C79.4351 27.0501 79.2551 26.74 79.1951 26.71L79.085 26.5001C78.965 26.2701 79.085 26.5001 79.085 26.5001C79.085 26.3501 78.9851 26.2001 78.9451 26.0501C78.9051 25.9001 78.8751 25.6701 78.9451 25.8801C79.0151 26.0901 78.9451 25.8 78.9451 25.76C78.925 25.5605 78.925 25.3595 78.9451 25.16C78.9451 25.16 78.9451 24.8601 78.9451 25.0401C78.9451 25.2201 78.9451 24.8701 78.9451 24.8701C78.9744 24.7142 79.0145 24.5604 79.0651 24.41C79.0651 24.32 79.265 23.9401 79.145 24.1801C79.2245 23.9996 79.3182 23.8257 79.425 23.66L79.5551 23.46C79.7651 23.15 79.385 23.6301 79.635 23.3601C79.7675 23.2159 79.9078 23.079 80.0551 22.95C80.0551 22.9 80.2551 22.81 80.0551 22.95L80.355 22.76L80.575 22.64C80.905 22.48 80.345 22.7 80.705 22.64C80.9008 22.5746 81.1015 22.5245 81.3051 22.4901C81.2351 22.4901 81.0451 22.4901 81.3051 22.4901H81.605C81.685 22.4901 81.955 22.4901 81.665 22.4901C81.7661 22.5043 81.8663 22.5243 81.965 22.5501L82.265 22.64C82.035 22.57 82.2651 22.64 82.3751 22.7C82.6909 22.8775 83.0633 22.9256 83.4139 22.8342C83.7645 22.7429 84.066 22.5191 84.2551 22.21C84.4351 21.8948 84.4846 21.5216 84.393 21.1702C84.3014 20.8189 84.076 20.5173 83.765 20.33L83.665 20.47Z" fill="#A31852"/>
<path d="M97.225 121.17C97.225 122.33 97.355 123.41 97.435 124.56C97.575 126.56 97.435 128.5 97.435 130.46C97.4166 132.323 97.4933 134.185 97.665 136.04C97.665 136.44 97.665 136.84 97.665 137.25C97.665 137.19 97.665 138.09 97.665 138.09C97.665 138.09 98.665 137.39 98.605 137.47C98.545 137.55 98.955 137.47 98.605 137.47C98.4287 137.455 98.2513 137.455 98.075 137.47C96.075 137.54 94.075 137.47 92.075 137.47C91.4251 137.442 90.7741 137.489 90.135 137.61C89.715 137.7 89.625 137.8 90.035 137.61C90.035 137.61 90.465 137.61 90.185 137.61C89.9023 137.585 89.6178 137.585 89.335 137.61C85.855 137.61 82.335 137.37 78.915 137.3C72.335 137.16 65.745 137.3 59.175 137.3C45.625 137.3 32.095 137.57 18.555 137.51C15.285 137.51 11.925 138.05 8.87504 136.58C7.55658 136.027 6.46149 135.049 5.765 133.8C5.16128 132.147 4.85327 130.4 4.85502 128.64C4.75503 126.462 4.80518 124.281 5.00505 122.11C5.14505 119.78 5.13502 117.43 5.16502 115.11C5.16502 113.03 5.22502 110.95 5.16502 108.88C5.16502 107.49 5.235 106.1 5.275 104.71C5.275 103.17 5.17503 101.66 5.17503 100.13C5.17503 96.0601 5.38505 91.97 5.44505 87.89C5.50505 83.81 5.54505 79.6 5.44505 75.45C5.39505 73.45 5.31503 71.45 5.17503 69.45C5.03503 67.45 1.78503 67.36 1.92503 69.45C2.50503 78.11 2.26502 86.83 2.10502 95.45C1.99502 101.13 1.97503 106.82 1.92503 112.51C1.92503 114.79 1.895 117.07 1.835 119.35C1.835 121.81 1.44503 124.27 1.48503 126.72C1.54503 129.83 1.64499 133.72 3.57499 136.34C5.50499 138.96 8.85499 140.34 12.075 140.69C13.8869 140.79 15.703 140.79 17.515 140.69C19.245 140.69 20.975 140.69 22.705 140.76C26.705 140.83 30.705 140.76 34.705 140.67C41.505 140.59 48.305 140.533 55.105 140.5C61.905 140.467 68.7117 140.467 75.525 140.5C79.675 140.5 83.815 140.73 87.965 140.79C88.685 140.79 89.425 140.79 90.145 140.79C90.4034 140.772 90.6606 140.739 90.915 140.69C92.065 140.42 90.155 140.69 91.035 140.69C93.035 140.69 95.035 140.69 97.035 140.69C97.8215 140.74 98.6112 140.69 99.385 140.54C101.025 140.09 100.905 137.94 100.855 136.54C100.775 134.62 100.565 132.74 100.605 130.81C100.645 128.88 100.775 126.72 100.605 124.68C100.605 123.89 100.415 123.12 100.355 122.33C100.355 122.61 100.355 122.33 100.355 122.22C100.355 121.83 100.355 121.45 100.355 121.07C100.405 118.98 97.155 118.98 97.105 121.07L97.225 121.17Z" fill="#A31852"/>
<path d="M29.755 56.04C26.435 56.04 23.135 56.21 19.825 56.12C17.0756 55.9783 14.3201 56.0117 11.575 56.22C9.49497 56.42 7.085 56.59 5.295 57.78C2.025 59.97 1.29499 64.11 1.91499 67.78C2.11359 69.459 2.81014 71.0403 3.91499 72.3201C5.38499 73.8601 7.43499 73.84 9.41499 74.14C12.5578 74.4551 15.7185 74.5554 18.875 74.4401L28.355 74.55C31.485 74.55 34.625 74.63 37.755 74.55C40.645 74.55 43.535 74.2 46.425 74.21C52.025 74.21 57.645 74.85 63.245 74.62C66.245 74.51 69.245 74.13 72.315 74.06C75.495 73.99 78.675 74.06 81.855 74.25C84.855 74.41 87.855 74.71 90.945 74.86C92.655 74.94 94.375 74.93 96.085 75.09C96.339 75.0897 96.5917 75.1268 96.835 75.2C97.165 75.31 96.645 75.11 96.645 75.09C96.7861 75.3274 96.8938 75.5832 96.965 75.85C97.1101 77.2956 97.1302 78.751 97.025 80.2C97.105 83.2 97.355 86.1401 97.325 89.1301C97.3571 89.539 97.5423 89.9208 97.8435 90.1993C98.1447 90.4778 98.5397 90.6324 98.95 90.6324C99.3602 90.6324 99.7553 90.4778 100.057 90.1993C100.358 89.9208 100.543 89.539 100.575 89.1301C100.575 86.5401 100.425 83.96 100.315 81.37C100.215 79.07 100.735 76.31 99.825 74.14C99.065 72.35 97.715 71.99 95.965 71.83C94.425 71.7 92.875 71.67 91.335 71.62C85.885 71.44 80.465 70.81 75.005 70.79C72.065 70.79 69.145 70.9 66.215 71.17C63.3357 71.3667 60.4474 71.3934 57.565 71.25C54.955 71.18 52.375 71.19 49.765 71.05C47.0782 70.9467 44.3879 70.9834 41.705 71.16C35.605 71.48 29.475 71.29 23.365 71.22L14.145 71.11C12.7053 71.1537 11.2644 71.0868 9.83498 70.91C8.82638 70.8404 7.82391 70.7001 6.83498 70.49C5.66498 70.03 5.24501 68.27 5.05501 67.16C4.78015 65.6504 4.89022 64.0958 5.37502 62.64C6.07502 60.64 7.78497 60.01 9.70497 59.71C12.5547 59.3284 15.4327 59.2012 18.305 59.33C22.115 59.42 25.905 59.33 29.715 59.33C30.1239 59.2979 30.5058 59.1128 30.7843 58.8116C31.0627 58.5104 31.2174 58.1152 31.2174 57.705C31.2174 57.2948 31.0627 56.8996 30.7843 56.5984C30.5058 56.2972 30.1239 56.1121 29.715 56.08L29.755 56.04Z" fill="#A31852"/>
<path d="M86.225 72.1801C86.8305 69.1193 86.9988 65.9881 86.725 62.8801C86.485 60.4501 86.325 56.7601 83.385 56.0701C82.0912 55.8767 80.7814 55.8131 79.475 55.8801L75.025 55.8201L70.555 55.76C68.465 55.76 68.465 58.98 70.555 59.01L77.965 59.11C79.365 59.11 80.765 59.11 82.175 59.21H82.755C82.875 59.21 83.055 59.21 82.755 59.21C82.455 59.21 82.695 59.09 82.815 59.3C83.1369 60.1359 83.3291 61.0161 83.385 61.91C83.8006 65.0342 83.7095 68.2049 83.115 71.3C83.0117 71.7147 83.0713 72.1532 83.2815 72.5252C83.4917 72.8972 83.8366 73.1745 84.245 73.3C84.6613 73.4108 85.1044 73.3533 85.4787 73.14C85.8529 72.9266 86.1282 72.5746 86.245 72.16L86.225 72.1801Z" fill="#A31852"/>
<path d="M9.84499 117.04C9.9734 119.112 9.94665 121.192 9.76497 123.26C9.53942 125.172 9.92076 127.107 10.855 128.79C11.7558 130.377 13.1966 131.587 14.915 132.2C16.525 132.73 18.295 132.49 19.915 132.54C22.005 132.61 22.005 129.36 19.915 129.29C18.5794 129.378 17.2383 129.321 15.915 129.12C14.805 128.698 13.9042 127.858 13.405 126.78C12.8805 125.442 12.7452 123.982 13.015 122.57C13.16 120.73 13.16 118.881 13.015 117.04C12.9999 116.613 12.8231 116.209 12.5203 115.908C12.2176 115.607 11.8116 115.432 11.385 115.42C10.9561 115.423 10.5456 115.594 10.2424 115.897C9.93915 116.201 9.76759 116.611 9.76497 117.04H9.84499Z" fill="#A31852"/>
</g>
<defs>
<clipPath id="clip0_8342_94">
<rect width="108.43" height="140.84" fill="white" transform="translate(0.785004 0.0800171)"/>
</clipPath>
</defs>
</svg>
