<svg width="16" height="13" viewBox="0 0 16 13" fill="none" xmlns="http://www.w3.org/2000/svg">
<path fill-rule="evenodd" clip-rule="evenodd" d="M10.5678 1.64894C10.58 1.28551 10.5922 0.921972 10.604 0.558431L10.6268 0.578792C10.6577 -0.187618 9.29437 -0.181662 9.29391 0.577983C9.27932 1.0306 9.26099 1.4832 9.24266 1.9356C9.20249 2.92718 9.16237 3.91776 9.16177 4.90517C9.16361 5.06177 9.23375 5.21161 9.35732 5.32305C9.4809 5.4345 9.64823 5.49882 9.82405 5.50244C10.2176 5.5099 10.6143 5.51496 11.0135 5.52005C11.6923 5.52871 12.3779 5.53745 13.0662 5.55826C11.3718 7.52815 9.58056 9.39954 7.77845 11.2823C7.70626 11.3578 7.63406 11.4332 7.56184 11.5087C6.7247 10.6535 5.90527 9.78528 5.08431 8.91545C4.96769 8.79189 4.85105 8.6683 4.73432 8.54471C4.67087 8.48055 4.60679 8.4159 4.54227 8.35081C3.97212 7.77557 3.36783 7.1659 2.86187 6.55629C2.56148 6.19437 2.27843 5.83246 1.99538 5.47055C1.99214 5.46642 1.98891 5.46228 1.98568 5.45814C2.52476 5.46099 3.06344 5.4497 3.60246 5.43839C4.01444 5.42975 4.42662 5.4211 4.83933 5.41877C4.91236 5.44236 4.98954 5.45451 5.06748 5.45456C5.16151 5.45462 5.25453 5.43706 5.34044 5.40301C5.42635 5.36896 5.50324 5.3192 5.56613 5.25695C5.62903 5.19471 5.67652 5.12137 5.7055 5.0417C5.73447 4.96204 5.74429 4.87784 5.73433 4.79457C5.80627 3.38384 5.84269 1.97083 5.84354 0.555542C5.82602 0.40907 5.7483 0.273534 5.62533 0.175004C5.50236 0.0764732 5.34283 0.0219111 5.17741 0.0218108C5.012 0.0217105 4.85241 0.076079 4.72932 0.174461C4.60623 0.272842 4.52834 0.408283 4.51064 0.554734C4.5143 1.78342 4.48734 3.01038 4.42977 4.23563C4.15409 4.23923 3.87859 4.24458 3.60318 4.24994C2.62572 4.26893 1.64938 4.2879 0.669695 4.22855C0.553285 4.22939 0.439117 4.25722 0.338465 4.30929C0.237813 4.36137 0.154139 4.43589 0.0956661 4.52552C0.0371934 4.61516 0.00591829 4.71681 0.00497492 4.82047C0.00403154 4.92413 0.0334532 5.02623 0.0902868 5.11671C0.262622 5.32022 0.434444 5.52373 0.606265 5.72724C1.5803 6.88094 2.55434 8.03463 3.62193 9.18838C4.20749 9.7836 4.77109 10.3804 5.33246 10.9749C5.9168 11.5937 6.49872 12.21 7.10048 12.8192C7.16211 12.875 7.23561 12.9193 7.31666 12.9496C7.39772 12.9799 7.48475 12.9955 7.57264 12.9956C7.66054 12.9956 7.74754 12.9801 7.82863 12.9499C7.90972 12.9197 7.98328 12.8755 8.04497 12.8197C8.63087 12.1875 9.22426 11.5561 9.81939 10.9229C11.5468 9.08491 13.2888 7.23139 14.9045 5.29526C15.2246 4.90884 14.7755 4.40666 14.3262 4.40639C13.0698 4.31335 11.7803 4.29876 10.4859 4.29591C10.5085 3.41526 10.5382 2.53242 10.5678 1.64894Z" fill="#5A2F56"/>
</svg>
