<svg width="152" height="148" viewBox="0 0 152 148" fill="none" xmlns="http://www.w3.org/2000/svg">
<g clip-path="url(#clip0_8342_111)">
<path d="M48.325 3.39003C45.803 5.74899 43.9767 8.7548 43.045 12.08C42.1486 15.5979 42.5461 19.3207 44.165 22.57C45.5833 25.4925 47.884 27.8954 50.7419 29.4395C53.5999 30.9836 56.8707 31.5907 60.0925 31.1752C63.3142 30.7596 66.3239 29.3424 68.6965 27.1236C71.0691 24.9048 72.6847 21.9967 73.315 18.81C74.0673 15.5841 73.5366 12.192 71.835 9.35002C70.7847 7.68968 69.5793 6.13272 68.235 4.70002C65.6809 2.07647 62.2944 0.422104 58.655 0.0200307C55.285 -0.209969 51.405 1.35002 48.655 3.15002C47.035 4.20002 48.535 6.80002 50.165 5.74002C52.3396 4.30789 54.8124 3.39126 57.395 3.06002C59.875 2.79002 62.585 4.06002 64.565 5.48002C65.5726 6.24277 66.4798 7.1298 67.265 8.12002C67.6289 8.52192 67.9631 8.94971 68.265 9.40002C68.7912 10.1443 69.2786 10.9153 69.725 11.71C70.3873 12.9827 70.7045 14.4066 70.645 15.84C70.6391 18.4812 69.7987 21.053 68.2438 23.188C66.689 25.3231 64.4992 26.9122 61.9873 27.7285C59.4754 28.5447 56.7698 28.5463 54.2569 27.733C51.744 26.9198 49.5523 25.3332 47.995 23.2C46.0695 20.5222 45.2429 17.2085 45.685 13.94C46.3356 10.6934 48.007 7.73965 50.455 5.51002C51.925 4.25002 49.795 2.14003 48.335 3.39003H48.325Z" fill="#A31852"/>
<path d="M34.285 62.9C31.7598 65.2563 29.9328 68.2631 29.005 71.59C28.1055 75.1066 28.4994 78.8294 30.115 82.08C31.5313 85.0063 33.832 87.4132 36.6915 88.9601C39.551 90.507 42.8245 91.1157 46.0488 90.6999C49.2732 90.2841 52.2853 88.865 54.6588 86.6433C57.0324 84.4217 58.6472 81.5099 59.275 78.32C60.022 75.0938 59.4916 71.7038 57.795 68.86C56.7463 67.1959 55.5371 65.6385 54.185 64.21C51.6338 61.5823 48.2458 59.9272 44.605 59.53C41.235 59.3 37.355 60.86 34.605 62.66C32.995 63.66 34.495 66.31 36.115 65.25C38.2931 63.8177 40.7693 62.9011 43.355 62.57C45.825 62.3 48.535 63.57 50.525 64.99C51.5303 65.7553 52.4372 66.6421 53.225 67.63C53.5905 68.0305 53.9249 68.4584 54.225 68.91C54.7515 69.652 55.2356 70.4233 55.675 71.22C56.3359 72.4934 56.6563 73.9161 56.605 75.35C56.5998 77.9929 55.759 80.5666 54.2029 82.7029C52.6468 84.8392 50.455 86.4287 47.9409 87.2442C45.4269 88.0596 42.7194 88.0592 40.2056 87.2431C37.6919 86.4269 35.5005 84.8367 33.945 82.7C32.011 80.0261 31.1835 76.709 31.635 73.44C32.2749 70.1893 33.948 67.2324 36.405 65.01C37.875 63.75 35.745 61.64 34.285 62.89V62.9Z" fill="#A31852"/>
<path d="M112.255 17.54C109.734 19.8996 107.908 22.9052 106.975 26.23C106.08 29.7404 106.473 33.4555 108.085 36.7C109.503 39.6225 111.804 42.0254 114.662 43.5695C117.52 45.1136 120.791 45.7207 124.012 45.3052C127.234 44.8896 130.244 43.4723 132.617 41.2536C134.989 39.0348 136.605 36.1267 137.235 32.94C137.987 29.7185 137.46 26.3311 135.765 23.49C134.713 21.8282 133.504 20.2711 132.155 18.84C129.604 16.2123 126.216 14.5572 122.575 14.16C119.205 13.92 115.325 15.49 112.575 17.29C110.965 18.29 112.465 20.93 114.085 19.88C116.256 18.4412 118.731 17.5239 121.315 17.2C123.795 16.93 126.505 18.2 128.485 19.62C129.498 20.3798 130.409 21.2671 131.195 22.26C131.564 22.6576 131.899 23.0858 132.195 23.54C132.73 24.2747 133.218 25.0429 133.655 25.84C134.316 27.1166 134.633 28.5435 134.575 29.98C134.566 32.6186 133.725 35.1871 132.17 37.3193C130.616 39.4515 128.428 41.0386 125.919 41.8543C123.41 42.6701 120.707 42.6728 118.196 41.8622C115.685 41.0516 113.494 39.469 111.935 37.34C110.004 34.6645 109.174 31.3499 109.615 28.08C110.277 24.8496 111.951 21.9142 114.395 19.7C115.865 18.45 113.735 16.33 112.275 17.58L112.255 17.54Z" fill="#A31852"/>
<path d="M84.195 59.25C81.6758 61.6095 79.8529 64.6155 78.925 67.94C78.0201 71.4563 78.4142 75.181 80.035 78.43C81.451 81.3524 83.7491 83.7562 86.6049 85.3022C89.4608 86.8481 92.73 87.458 95.9511 87.0458C99.1722 86.6337 102.183 85.2202 104.557 83.005C106.932 80.7898 108.55 77.8848 109.185 74.7C109.937 71.474 109.407 68.082 107.705 65.24C106.655 63.5796 105.449 62.0227 104.105 60.59C101.551 57.9664 98.1644 56.3121 94.525 55.91C91.155 55.68 87.275 57.24 84.525 59.04C82.905 60.09 84.415 62.69 86.035 61.63C88.2103 60.1994 90.6828 59.2829 93.265 58.95C95.745 58.68 98.455 59.95 100.435 61.37C101.446 62.1325 102.356 63.0195 103.145 64.01C103.512 64.4095 103.846 64.8375 104.145 65.29C104.678 66.0295 105.166 66.801 105.605 67.6C106.267 68.8726 106.584 70.2966 106.525 71.73C106.523 74.3717 105.685 76.9449 104.131 79.0816C102.578 81.2182 100.388 82.8086 97.8757 83.6253C95.3634 84.442 92.6572 84.4432 90.1442 83.6285C87.6312 82.8139 85.4403 81.2253 83.885 79.09C81.9522 76.4153 81.1216 73.1 81.565 69.83C82.213 66.5801 83.8888 63.6246 86.345 61.4C87.815 60.14 85.685 58.03 84.215 59.28L84.195 59.25Z" fill="#A31852"/>
<path d="M126.295 81.7C123.773 84.0589 121.947 87.0647 121.015 90.39C120.119 93.9078 120.516 97.6306 122.135 100.88C123.553 103.802 125.854 106.205 128.712 107.749C131.57 109.294 134.841 109.901 138.062 109.485C141.284 109.07 144.294 107.652 146.667 105.434C149.039 103.215 150.655 100.307 151.285 97.12C152.037 93.894 151.507 90.502 149.805 87.66C148.754 85.9972 147.545 84.4399 146.195 83.01C143.645 80.3864 140.262 78.7318 136.625 78.33C133.255 78.1 129.375 79.66 126.625 81.46C125.015 82.51 126.515 85.11 128.145 84.05C130.32 82.6178 132.792 81.7012 135.375 81.37C137.855 81.1 140.565 82.37 142.545 83.79C143.55 84.5554 144.457 85.4421 145.245 86.43C145.611 86.8299 145.946 87.2579 146.245 87.71C146.771 88.4542 147.259 89.2253 147.705 90.02C148.363 91.2942 148.68 92.717 148.625 94.15C148.619 96.7912 147.779 99.3629 146.224 101.498C144.669 103.633 142.479 105.222 139.967 106.038C137.455 106.855 134.75 106.856 132.237 106.043C129.724 105.23 127.532 103.643 125.975 101.51C124.05 98.8321 123.223 95.5184 123.665 92.25C124.305 88.9993 125.978 86.0424 128.435 83.82C129.905 82.56 127.775 80.45 126.315 81.7H126.295Z" fill="#A31852"/>
<path d="M69.585 119.97C67.0718 122.334 65.25 125.339 64.315 128.66C63.4148 132.18 63.8088 135.906 65.425 139.16C66.8433 142.082 69.1439 144.485 72.0019 146.029C74.8599 147.574 78.1307 148.181 81.3525 147.765C84.5742 147.35 87.5839 145.932 89.9565 143.714C92.3291 141.495 93.9447 138.587 94.575 135.4C95.326 132.175 94.7992 128.785 93.105 125.94C92.0531 124.278 90.8442 122.721 89.495 121.29C86.9438 118.662 83.5558 117.007 79.915 116.61C76.545 116.37 72.665 117.94 69.915 119.74C68.305 120.74 69.805 123.39 71.425 122.33C73.598 120.895 76.0716 119.978 78.655 119.65C81.135 119.38 83.845 120.65 85.825 122.07C86.8381 122.83 87.749 123.717 88.535 124.71C88.904 125.108 89.2386 125.536 89.535 125.99C90.0682 126.73 90.5558 127.501 90.995 128.3C91.6572 129.573 91.9745 130.997 91.915 132.43C91.9126 135.072 91.0747 137.645 89.5212 139.782C87.9676 141.918 85.778 143.509 83.2657 144.325C80.7534 145.142 78.0472 145.143 75.5342 144.329C73.0213 143.514 70.8303 141.925 69.275 139.79C67.3432 137.115 66.5127 133.8 66.955 130.53C67.603 127.28 69.2789 124.325 71.735 122.1C73.205 120.84 71.075 118.73 69.605 119.97H69.585Z" fill="#A31852"/>
<path d="M6.18498 115.06C3.67053 117.425 1.84561 120.429 0.905012 123.75C0.00772241 127.268 0.405233 130.991 2.02501 134.24C3.44331 137.162 5.74394 139.565 8.60191 141.109C11.4599 142.654 14.7307 143.261 17.9524 142.845C21.1742 142.43 24.184 141.012 26.5566 138.794C28.9292 136.575 30.5447 133.667 31.175 130.48C31.9278 127.257 31.397 123.868 29.695 121.03C28.6497 119.366 27.444 117.809 26.095 116.38C23.5439 113.752 20.1558 112.097 16.515 111.7C13.145 111.46 9.265 113.03 6.515 114.83C4.895 115.88 6.40501 118.47 8.02501 117.42C10.1961 115.981 12.6706 115.064 15.255 114.74C17.735 114.47 20.445 115.74 22.425 117.16C23.4382 117.92 24.349 118.807 25.135 119.8C25.501 120.2 25.8353 120.628 26.135 121.08C26.6704 121.815 27.1581 122.583 27.595 123.38C28.2563 124.657 28.5734 126.084 28.515 127.52C28.5062 130.159 27.6647 132.727 26.1103 134.859C24.556 136.991 22.3682 138.579 19.8589 139.394C17.3495 140.21 14.6467 140.213 12.1357 139.402C9.62472 138.592 7.43368 137.009 5.87498 134.88C3.94411 132.204 3.11367 128.89 3.55498 125.62C4.20501 122.368 5.88033 119.41 8.335 117.18C9.80501 115.93 7.675 113.81 6.205 115.06H6.18498Z" fill="#A31852"/>
<path d="M50.325 28.26C49.875 30.83 49.325 33.37 48.745 35.91C48.165 38.45 47.745 41.28 47.145 43.91C45.945 49.41 44.455 54.85 43.355 60.38C42.975 62.26 45.865 63.07 46.245 61.17C47.345 55.65 48.835 50.17 50.045 44.71C50.605 42.11 51.045 39.48 51.595 36.88C52.145 34.28 52.755 31.66 53.225 29.02C53.555 27.13 50.665 26.32 50.325 28.22V28.26Z" fill="#A31852"/>
<path d="M71.695 21.13C74.745 21.8 77.695 22.69 80.695 23.55C83.695 24.41 86.805 25.1 89.915 25.68C93.025 26.26 95.825 27.06 98.805 27.6C101.756 28.038 104.673 28.6795 107.535 29.52C109.375 30.13 110.165 27.23 108.335 26.63C105.538 25.8054 102.688 25.1739 99.805 24.74C96.755 24.2 93.805 23.37 90.715 22.79C87.625 22.21 84.715 21.57 81.715 20.72C78.715 19.87 75.595 18.92 72.475 18.24C70.595 17.82 69.795 20.72 71.675 21.13H71.695Z" fill="#A31852"/>
<path d="M58.395 76.37C59.787 76.3171 61.1755 76.1936 62.555 76C64.1802 75.8417 65.8159 75.8183 67.445 75.93C71.555 76.16 75.595 75.28 79.715 75.35C81.645 75.35 81.645 72.35 79.715 72.35C75.595 72.28 71.555 73.16 67.445 72.93C65.8159 72.8183 64.1802 72.8417 62.555 73C61.1755 73.1936 59.787 73.3171 58.395 73.37C57.9972 73.37 57.6156 73.528 57.3343 73.8093C57.053 74.0906 56.895 74.4722 56.895 74.87C56.895 75.2678 57.053 75.6494 57.3343 75.9307C57.6156 76.212 57.9972 76.37 58.395 76.37Z" fill="#A31852"/>
<path d="M128.105 43.37C129.445 50.5 130.385 57.72 131.305 64.92C131.685 67.92 132.125 70.85 132.585 73.81C132.765 75.04 132.965 76.27 133.155 77.5L133.335 78.65C133.335 78.84 133.465 79.56 133.335 78.78L136.285 78.38C135.615 76.59 132.715 77.38 133.385 79.18C133.925 80.63 136.555 80.59 136.325 78.78C135.735 74.05 134.825 69.35 134.225 64.62C133.295 57.26 132.325 49.87 130.965 42.62C130.605 40.73 127.715 41.53 128.065 43.42L128.105 43.37Z" fill="#A31852"/>
<path d="M114.135 41.39C112.635 43.31 111.425 45.39 109.975 47.39C109.075 48.59 108.105 49.74 107.185 50.93C105.102 53.7492 103.169 56.6767 101.395 59.7C100.395 61.34 102.965 62.85 103.985 61.21C105.642 58.3464 107.444 55.5694 109.385 52.89C110.275 51.74 111.205 50.62 112.095 49.47C113.565 47.56 114.725 45.47 116.215 43.54C116.484 43.2527 116.634 42.8738 116.634 42.48C116.634 42.0863 116.484 41.7073 116.215 41.42C115.932 41.1415 115.552 40.9854 115.155 40.9854C114.758 40.9854 114.378 41.1415 114.095 41.42L114.135 41.39Z" fill="#A31852"/>
<path d="M64.225 28.84C69.855 40.25 75.695 51.58 80.755 63.26C81.515 65.03 84.105 63.5 83.345 61.75C78.285 50.07 72.445 38.75 66.815 27.32C65.965 25.59 63.375 27.11 64.225 28.84Z" fill="#A31852"/>
<path d="M105.205 81.03C106.536 81.6413 107.825 82.3395 109.065 83.12L113.345 85.61C115.955 87.13 118.795 88.52 121.075 90.53C122.515 91.81 124.645 89.69 123.195 88.41C120.715 86.21 117.705 84.68 114.855 83.02C112.012 81.2038 109.056 79.5704 106.005 78.13C105.628 78.0238 105.225 78.0689 104.882 78.2557C104.538 78.4426 104.281 78.7563 104.165 79.13C104.066 79.5077 104.114 79.9088 104.3 80.2522C104.486 80.5957 104.795 80.8558 105.165 80.98L105.205 81.03Z" fill="#A31852"/>
<path d="M35.9251 87.03C30.0351 95.36 25.325 104.42 19.615 112.86C18.525 114.46 21.125 115.96 22.205 114.37C27.915 105.93 32.625 96.87 38.515 88.55C39.625 86.97 37.0251 85.47 35.9251 87.03Z" fill="#A31852"/>
<path d="M30.855 131.7C33.925 131.91 36.985 132.32 40.055 132.37C43.475 132.42 46.815 132.37 50.225 132.69C52.955 132.98 55.665 133.37 58.405 133.59C60.5899 133.672 62.7641 133.936 64.905 134.38C66.785 134.85 67.575 131.96 65.705 131.48C63.4586 131.012 61.1777 130.728 58.885 130.63C56.145 130.41 53.435 130.04 50.705 129.74C47.3176 129.432 43.9159 129.308 40.515 129.37C37.285 129.37 34.075 128.92 30.855 128.7C28.925 128.57 28.935 131.57 30.855 131.7Z" fill="#A31852"/>
<path d="M88.635 84.76C86.7211 96.0373 84.0483 107.173 80.635 118.09C80.075 119.94 82.965 120.73 83.535 118.89C86.9473 107.972 89.6201 96.8371 91.535 85.56C91.845 83.67 88.955 82.85 88.645 84.76H88.635Z" fill="#A31852"/>
<path d="M94.725 130.03C97.4172 128.602 100.034 127.037 102.565 125.34C105.615 123.39 108.735 121.58 111.865 119.77C118.162 116.32 124.249 112.5 130.095 108.33C131.625 107.19 130.095 104.59 128.575 105.74C122.748 109.912 116.678 113.732 110.395 117.18C107.335 118.95 104.265 120.73 101.285 122.63C98.645 124.32 96.045 126.02 93.285 127.44C91.565 128.32 93.085 130.91 94.805 130.03H94.725Z" fill="#A31852"/>
<path d="M117.835 28.28C118.674 29.1399 119.738 29.7463 120.905 30.03C121.794 30.2197 122.716 30.185 123.588 29.9289C124.46 29.6728 125.255 29.2035 125.9 28.5633C126.545 27.9231 127.02 27.1322 127.283 26.2622C127.546 25.3921 127.588 24.4703 127.405 23.58C127.193 22.5214 126.669 21.5504 125.901 20.7914C125.133 20.0324 124.156 19.52 123.095 19.32C121.952 19.0706 120.756 19.2485 119.735 19.82C119.15 20.1775 118.609 20.6038 118.125 21.09C117.174 22.0269 116.598 23.2785 116.505 24.61C116.524 25.8185 116.907 26.9931 117.605 27.98C117.7 28.1577 117.83 28.3144 117.987 28.4407C118.144 28.567 118.325 28.6604 118.519 28.7153C118.713 28.7702 118.916 28.7854 119.116 28.76C119.316 28.7347 119.509 28.6693 119.683 28.5678C119.857 28.4663 120.009 28.3307 120.129 28.1692C120.25 28.0076 120.337 27.8235 120.385 27.6277C120.432 27.4319 120.44 27.2285 120.408 27.0296C120.375 26.8306 120.303 26.6403 120.195 26.47C120.089 26.3193 119.992 26.1624 119.905 26L119.805 25.79C119.635 25.45 119.865 25.99 119.805 25.79C119.745 25.59 119.685 25.46 119.635 25.29C119.585 25.12 119.465 24.85 119.515 24.74V24.93C119.515 24.93 119.515 24.84 119.515 24.79C119.515 24.49 119.515 24.79 119.515 24.79C119.57 24.6232 119.614 24.4528 119.645 24.28C119.645 24.2 119.645 24.12 119.725 24.03C119.835 23.82 119.975 23.61 120.085 23.4C120.195 23.19 119.865 23.61 120.085 23.4L120.245 23.24L120.625 22.89L120.835 22.71C120.935 22.62 120.435 23 120.745 22.79C121.055 22.58 121.175 22.49 121.395 22.36C121.615 22.23 121.685 22.24 121.395 22.36C121.47 22.3355 121.547 22.3154 121.625 22.3C121.625 22.3 122.015 22.3 121.765 22.3H121.965C122.131 22.3146 122.299 22.3146 122.465 22.3C122.365 22.38 122.195 22.25 122.465 22.3L122.735 22.37C122.855 22.37 123.225 22.51 122.905 22.37C123.098 22.4466 123.283 22.5438 123.455 22.66C123.536 22.7076 123.612 22.761 123.685 22.82C123.475 22.59 123.595 22.74 123.685 22.82L124.085 23.22C124.225 23.38 124.085 23.22 124.085 23.22C124.133 23.2836 124.176 23.3504 124.215 23.42C124.268 23.4999 124.314 23.5834 124.355 23.67C124.535 24.01 124.355 23.51 124.415 23.79C124.475 24.07 124.505 24.08 124.545 24.23C124.585 24.38 124.635 24.62 124.545 24.38C124.455 24.14 124.545 24.5 124.545 24.52C124.555 24.6932 124.555 24.8668 124.545 25.04C124.545 25.18 124.545 25.35 124.545 25.04C124.536 25.1558 124.513 25.2701 124.475 25.38C124.448 25.5323 124.401 25.6802 124.335 25.82C124.515 25.55 124.335 25.74 124.335 25.82C124.335 25.9 124.245 25.99 124.185 26.07L124.055 26.27C124.235 26 124.055 26.27 124.055 26.27C123.914 26.4292 123.76 26.5763 123.595 26.71C123.595 26.71 123.845 26.55 123.595 26.71C123.499 26.7758 123.398 26.8359 123.295 26.89C123.295 26.89 122.945 27.08 123.165 26.97C123.385 26.86 122.955 27.05 122.905 27.06L122.565 27.16C122.495 27.16 122.105 27.24 122.425 27.16C122.199 27.1849 121.971 27.1849 121.745 27.16C122.045 27.16 121.745 27.16 121.675 27.16L121.285 27.03L120.995 26.91C121.235 27.01 120.995 26.91 120.885 26.85C120.775 26.79 120.535 26.64 120.355 26.54C120.175 26.44 120.485 26.67 120.355 26.54C120.225 26.41 120.135 26.34 120.035 26.23C119.751 25.9539 119.371 25.7994 118.975 25.7994C118.579 25.7994 118.199 25.9539 117.915 26.23C117.644 26.5161 117.492 26.8956 117.492 27.29C117.492 27.6845 117.644 28.0639 117.915 28.35L117.835 28.28Z" fill="#A31852"/>
<path d="M117.705 37.79C117.7 37.7067 117.7 37.6232 117.705 37.54C117.705 37.71 117.705 37.7 117.705 37.54C117.705 37.38 117.775 37.24 117.815 37.09C117.855 36.94 117.995 36.53 118.105 36.25C118.215 35.97 118.235 35.9 118.305 35.73C118.215 35.95 118.375 35.59 118.395 35.55C118.415 35.51 118.525 35.31 118.595 35.19L118.745 34.97C118.645 35.09 118.655 35.09 118.745 34.97C119.145 34.593 119.651 34.3486 120.195 34.27C119.945 34.27 120.465 34.27 120.465 34.27H120.935L121.935 34.22C122.602 34.1923 123.271 34.2157 123.935 34.29C124.325 34.29 123.805 34.24 124.115 34.29C124.294 34.3227 124.471 34.3661 124.645 34.42C124.535 34.42 124.915 34.56 124.895 34.55C124.635 34.41 124.895 34.55 124.955 34.62C125.015 34.69 124.835 34.44 125.035 34.73C125.147 34.8736 125.251 35.0238 125.345 35.18C125.513 35.4816 125.656 35.7959 125.775 36.12C126.06 36.7302 126.262 37.376 126.375 38.04C126.493 38.4144 126.752 38.7283 127.097 38.915C127.443 39.1017 127.847 39.1465 128.225 39.04C128.593 38.9159 128.9 38.6573 129.086 38.3161C129.271 37.9749 129.321 37.5763 129.225 37.2C129.035 36.2849 128.729 35.3978 128.315 34.56C128.005 33.7533 127.543 33.0133 126.955 32.38C125.635 31.11 123.465 31.07 121.745 31.16C119.835 31.25 117.885 31.36 116.525 32.91C115.946 33.6348 115.502 34.4579 115.215 35.34C114.875 36.1139 114.685 36.9452 114.655 37.79C114.655 39.71 117.655 39.72 117.655 37.79H117.705Z" fill="#A31852"/>
<path d="M53.915 14.7C54.7501 15.5596 55.8107 16.1661 56.975 16.45C58.4006 16.7404 59.8831 16.4526 61.0964 15.65C62.3098 14.8473 63.1546 13.5955 63.445 12.17C63.7354 10.7445 63.4477 9.26194 62.645 8.04858C61.8423 6.83522 60.5906 5.99041 59.165 5.69999C58.0248 5.45029 56.8326 5.62823 55.815 6.19999C55.2297 6.55393 54.6892 6.97696 54.205 7.45999C53.2552 8.40155 52.6795 9.65592 52.585 10.99C52.6064 12.1965 52.9858 13.3695 53.675 14.36C53.8827 14.698 54.2128 14.9429 54.5966 15.0435C54.9804 15.1441 55.3882 15.0927 55.735 14.9C56.0746 14.6961 56.3204 14.3669 56.4195 13.9835C56.5187 13.6 56.4632 13.1929 56.265 12.85L55.985 12.38C55.9476 12.312 55.9142 12.2419 55.885 12.17C55.705 11.83 55.945 12.37 55.885 12.17C55.825 11.97 55.765 11.84 55.715 11.67C55.665 11.5 55.535 11.23 55.585 11.12V11.31C55.5804 11.2634 55.5804 11.2165 55.585 11.17C55.585 10.87 55.585 11.17 55.585 11.17C55.585 11.17 55.705 10.72 55.725 10.67C55.745 10.62 55.775 10.51 55.805 10.42C55.835 10.33 55.925 10.19 55.805 10.42C55.915 10.21 56.045 9.99999 56.165 9.78999C56.285 9.57999 55.945 9.99999 56.165 9.78999L56.325 9.62999L56.705 9.27999L56.905 9.09999C57.015 9.00999 56.515 9.38999 56.815 9.17999C57.0265 9.02397 57.2469 8.8804 57.475 8.75C57.555 8.7 57.765 8.63 57.475 8.75C57.55 8.72414 57.6269 8.70408 57.705 8.69C57.705 8.69 58.085 8.69 57.845 8.69H58.045C58.2114 8.7046 58.3787 8.7046 58.545 8.69C58.445 8.76 58.275 8.69 58.545 8.69L58.825 8.75999C58.945 8.75999 59.305 8.89999 58.995 8.75999C59.1882 8.8366 59.3727 8.93383 59.545 9.05C59.6256 9.09754 59.7024 9.15101 59.775 9.20999C59.565 8.97999 59.675 9.12999 59.775 9.20999C59.875 9.28999 60.045 9.47 60.175 9.61C60.305 9.75 60.175 9.61 60.175 9.61C60.2229 9.67361 60.2663 9.74043 60.305 9.80999L60.445 10.06C60.615 10.4 60.445 9.88999 60.445 10.18C60.4975 10.3238 60.5409 10.4708 60.575 10.62C60.575 10.62 60.665 11.01 60.575 10.77C60.485 10.53 60.575 10.89 60.575 10.91C60.585 11.0832 60.585 11.2568 60.575 11.43C60.575 11.57 60.575 11.74 60.575 11.43C60.5675 11.547 60.5404 11.6619 60.495 11.77C60.4728 11.9234 60.4255 12.072 60.355 12.21C60.535 11.94 60.355 12.13 60.355 12.21L60.205 12.46L60.075 12.66C60.245 12.39 60.075 12.61 60.075 12.66C59.9316 12.8167 59.7779 12.9637 59.615 13.1C59.615 13.1 59.865 12.94 59.615 13.1L59.315 13.28L59.175 13.36C59.365 13.27 58.975 13.44 58.925 13.45L58.585 13.55C58.515 13.55 58.115 13.63 58.445 13.55C58.2157 13.575 57.9843 13.575 57.755 13.55C58.065 13.55 57.755 13.55 57.685 13.55L57.305 13.41L57.005 13.3C57.255 13.4 57.005 13.3 56.895 13.24C56.785 13.18 56.555 13.03 56.375 12.93C56.195 12.83 56.495 13.06 56.375 12.93C56.255 12.8 56.165 12.73 56.065 12.62C55.9277 12.4726 55.7621 12.3544 55.5781 12.2724C55.3941 12.1904 55.1955 12.1464 54.9941 12.1428C54.7927 12.1392 54.5926 12.1763 54.4058 12.2518C54.219 12.3272 54.0493 12.4395 53.9069 12.5819C53.7645 12.7244 53.6522 12.894 53.5768 13.0808C53.5013 13.2676 53.4643 13.4676 53.4678 13.669C53.4714 13.8704 53.5155 14.0691 53.5975 14.2531C53.6794 14.4371 53.7976 14.6027 53.945 14.74L53.915 14.7Z" fill="#A31852"/>
<path d="M53.785 24.21C53.78 24.1267 53.78 24.0432 53.785 23.96C53.785 24.13 53.785 24.12 53.785 23.96C53.785 23.8 53.855 23.66 53.895 23.51C53.935 23.36 54.075 22.95 54.185 22.67C54.295 22.39 54.315 22.32 54.385 22.15C54.295 22.37 54.455 22.01 54.475 21.97C54.534 21.8459 54.6008 21.7256 54.675 21.61C54.7157 21.5307 54.766 21.4568 54.825 21.39C54.725 21.51 54.735 21.51 54.825 21.39C55.2236 21.0114 55.7306 20.7667 56.275 20.69C56.025 20.69 56.545 20.69 56.545 20.69H57.015H58.015C58.6825 20.6619 59.3511 20.6853 60.015 20.76C60.405 20.76 59.895 20.71 60.205 20.76C60.3808 20.7927 60.5545 20.8361 60.725 20.89C60.625 20.89 61.005 21.03 60.975 21.02C60.725 20.88 60.975 21.02 61.045 21.09C61.115 21.16 60.915 20.91 61.125 21.2C61.335 21.49 61.345 21.49 61.435 21.65C61.5944 21.9557 61.7379 22.2695 61.865 22.59C62.1456 23.202 62.3472 23.8471 62.465 24.51C62.5802 24.8827 62.8361 25.1959 63.1783 25.3832C63.5206 25.5704 63.9223 25.6169 64.2983 25.5128C64.6743 25.4087 64.995 25.1622 65.1922 24.8257C65.3895 24.4891 65.4479 24.0889 65.355 23.71C65.1654 22.7961 64.8631 21.9094 64.455 21.07C64.1449 20.2609 63.6795 19.5203 63.085 18.89C61.775 17.62 59.595 17.58 57.885 17.67C55.975 17.76 54.025 17.87 52.665 19.42C52.0831 20.1444 51.636 20.9675 51.345 21.85C51.0082 22.6245 50.8216 23.4559 50.795 24.3C50.795 26.22 53.795 26.23 53.795 24.3L53.785 24.21Z" fill="#A31852"/>
<path d="M89.645 70.56C90.4801 71.4196 91.5407 72.0261 92.705 72.31C93.5946 72.5017 94.5179 72.4685 95.3913 72.2133C96.2648 71.9581 97.0608 71.489 97.7073 70.8485C98.3537 70.208 98.8301 69.4164 99.0934 68.5453C99.3566 67.6743 99.3985 66.7513 99.215 65.86C99.0006 64.8013 98.4765 63.8301 97.7091 63.0698C96.9417 62.3096 95.9657 61.7945 94.905 61.59C93.7612 61.3507 92.5696 61.528 91.545 62.09C90.9617 62.4506 90.4215 62.8767 89.935 63.36C88.9837 64.3005 88.4077 65.5555 88.315 66.89C88.3339 68.0985 88.7173 69.2731 89.415 70.26C89.5148 70.4301 89.6471 70.5788 89.8044 70.6977C89.9617 70.8167 90.1409 70.9034 90.3317 70.9531C90.5225 71.0028 90.7212 71.0144 90.9165 70.9873C91.1119 70.9601 91.2999 70.8948 91.47 70.795C91.6401 70.6952 91.7888 70.5629 91.9077 70.4056C92.0266 70.2483 92.1134 70.0691 92.1631 69.8783C92.2128 69.6875 92.2244 69.4887 92.1972 69.2934C92.1701 69.0981 92.1048 68.9101 92.005 68.74C91.899 68.5928 91.8022 68.4391 91.715 68.28L91.615 68.07C91.445 67.73 91.675 68.27 91.615 68.07C91.555 67.87 91.495 67.74 91.445 67.57C91.395 67.4 91.275 67.12 91.315 67.02V67.21C91.315 67.21 91.315 67.11 91.315 67.06C91.315 66.77 91.315 67.06 91.315 67.06C91.3713 66.897 91.4147 66.7298 91.445 66.56C91.4671 66.4753 91.4938 66.3918 91.525 66.31C91.525 66.25 91.645 66.08 91.525 66.31C91.635 66.1 91.775 65.89 91.885 65.68C91.995 65.47 91.665 65.89 91.885 65.68L92.045 65.51L92.425 65.17L92.625 64.99C92.735 64.9 92.235 65.28 92.545 65.06C92.855 64.84 92.975 64.77 93.195 64.63C93.415 64.49 93.485 64.51 93.195 64.63L93.425 64.56C93.425 64.56 93.815 64.56 93.565 64.56H93.765C93.9311 64.5794 94.0989 64.5794 94.265 64.56C94.165 64.63 93.995 64.51 94.265 64.56L94.545 64.63C94.665 64.63 95.035 64.77 94.715 64.63C94.91 64.7026 95.0949 64.8001 95.265 64.92C95.3477 64.9641 95.4249 65.0178 95.495 65.08C95.285 64.85 95.405 65 95.495 65.08L95.895 65.49C96.035 65.64 95.895 65.49 95.895 65.49C95.9474 65.5503 95.9912 65.6176 96.025 65.69C96.0776 65.7699 96.1244 65.8534 96.165 65.94C96.345 66.28 96.165 65.77 96.165 66.06C96.2175 66.2038 96.2609 66.3508 96.295 66.5C96.295 66.5 96.385 66.89 96.295 66.64C96.205 66.39 96.295 66.77 96.295 66.79C96.305 66.9632 96.305 67.1368 96.295 67.31C96.295 67.44 96.345 67.62 96.295 67.31C96.2861 67.4226 96.2626 67.5335 96.225 67.64C96.1963 67.7963 96.1458 67.9478 96.075 68.09C96.265 67.82 96.075 68.01 96.075 68.09L95.925 68.34L95.795 68.54C95.975 68.27 95.795 68.54 95.795 68.54C95.6543 68.7024 95.5005 68.8529 95.335 68.99C95.335 68.99 95.585 68.82 95.335 68.99C95.2386 69.0558 95.1384 69.1159 95.035 69.17C95.035 69.17 94.685 69.36 94.905 69.25C95.125 69.14 94.695 69.32 94.645 69.34L94.305 69.44C94.235 69.44 93.835 69.52 94.165 69.44C93.939 69.465 93.711 69.465 93.485 69.44C93.785 69.44 93.485 69.44 93.415 69.44C93.345 69.44 93.155 69.35 93.025 69.3C92.9259 69.2661 92.8291 69.226 92.735 69.18L92.615 69.13L92.095 68.82C91.775 68.63 92.215 68.95 92.095 68.82C91.975 68.69 91.875 68.62 91.775 68.51C91.4912 68.2339 91.1109 68.0794 90.715 68.0794C90.3191 68.0794 89.9388 68.2339 89.655 68.51C89.3835 68.7961 89.2322 69.1756 89.2322 69.57C89.2322 69.9645 89.3835 70.3439 89.655 70.63L89.645 70.56Z" fill="#A31852"/>
<path d="M89.515 80.06C89.51 79.9801 89.51 79.8999 89.515 79.82C89.515 79.99 89.515 79.98 89.515 79.82C89.515 79.66 89.585 79.52 89.625 79.37C89.7066 79.085 89.8035 78.8046 89.915 78.53C89.985 78.35 90.045 78.18 90.115 78.01C90.025 78.23 90.185 77.87 90.205 77.83C90.225 77.79 90.335 77.59 90.405 77.47C90.4479 77.3889 90.498 77.3119 90.555 77.24C90.455 77.37 90.465 77.37 90.555 77.24C90.9521 76.8591 91.4598 76.614 92.005 76.54C91.755 76.54 92.275 76.54 92.275 76.54H92.745L93.745 76.49C94.4124 76.4623 95.0811 76.4857 95.745 76.56C96.135 76.56 95.615 76.51 95.925 76.56C96.235 76.61 96.285 76.64 96.455 76.7C96.345 76.7 96.725 76.84 96.705 76.83C96.445 76.69 96.705 76.83 96.765 76.9C96.825 76.97 96.645 76.71 96.845 77.01C96.9574 77.1536 97.0609 77.3038 97.155 77.46C97.3144 77.7657 97.458 78.0795 97.585 78.4C97.8687 79.0073 98.0704 79.6496 98.185 80.31C98.2947 80.6922 98.5499 81.0162 98.8957 81.2125C99.2416 81.4088 99.6506 81.4618 100.035 81.36C100.412 81.2459 100.731 80.9915 100.927 80.6492C101.122 80.3069 101.179 79.9028 101.085 79.52C100.898 78.6041 100.592 77.7165 100.175 76.88C99.8673 76.0697 99.4016 75.3287 98.805 74.7C97.495 73.43 95.325 73.39 93.605 73.48C91.695 73.57 89.745 73.68 88.385 75.23C87.8025 75.9525 87.3584 76.7763 87.075 77.66C86.7362 78.4308 86.5462 79.2586 86.515 80.1C86.515 82.03 89.515 82.04 89.515 80.1V80.06Z" fill="#A31852"/>
<path d="M131.885 93.03C132.72 93.8895 133.781 94.4961 134.945 94.78C135.649 94.9238 136.374 94.9275 137.08 94.791C137.785 94.6545 138.456 94.3804 139.056 93.9843C139.655 93.5883 140.171 93.0781 140.573 92.4828C140.975 91.8875 141.256 91.2189 141.4 90.515C141.544 89.8111 141.548 89.0858 141.411 88.3804C141.275 87.6751 141 87.0036 140.604 86.4042C140.208 85.8048 139.698 85.2892 139.103 84.887C138.508 84.4848 137.839 84.2038 137.135 84.06C135.994 83.8204 134.806 83.9979 133.785 84.56C133.2 84.9181 132.66 85.3444 132.175 85.83C131.224 86.7705 130.648 88.0255 130.555 89.36C130.576 90.5665 130.956 91.7394 131.645 92.73C131.745 92.9 131.877 93.0488 132.034 93.1677C132.192 93.2866 132.371 93.3734 132.562 93.4231C132.753 93.4728 132.951 93.4844 133.147 93.4572C133.342 93.4301 133.53 93.3648 133.7 93.265C133.87 93.1652 134.019 93.0329 134.138 92.8756C134.257 92.7183 134.343 92.5391 134.393 92.3483C134.443 92.1575 134.454 91.9587 134.427 91.7634C134.4 91.5681 134.335 91.3801 134.235 91.21C134.132 91.0626 134.039 90.9089 133.955 90.75L133.845 90.54C133.675 90.2 133.915 90.74 133.845 90.54C133.775 90.34 133.725 90.21 133.675 90.04C133.625 89.87 133.495 89.59 133.545 89.49V89.68C133.54 89.6301 133.54 89.5798 133.545 89.53C133.545 89.24 133.545 89.53 133.545 89.53C133.611 89.3699 133.654 89.2017 133.675 89.03L133.765 88.78C133.765 88.72 133.885 88.55 133.765 88.78C133.875 88.57 134.005 88.36 134.125 88.15C134.245 87.94 133.905 88.36 134.125 88.15L134.285 87.98L134.665 87.64L134.865 87.46C134.965 87.37 134.475 87.75 134.775 87.53L135.435 87.1C135.515 87.1 135.725 86.98 135.435 87.1L135.665 87.03C135.665 87.03 136.045 87.03 135.805 87.03H135.995C136.164 87.0496 136.336 87.0496 136.505 87.03C136.405 87.1 136.225 86.98 136.505 87.03L136.785 87.1C136.905 87.1 137.265 87.24 136.955 87.1C137.15 87.1726 137.335 87.2701 137.505 87.39C137.588 87.4341 137.665 87.4878 137.735 87.55C137.515 87.32 137.635 87.47 137.735 87.55C137.835 87.63 138.005 87.82 138.125 87.96C138.245 88.1 138.125 87.96 138.125 87.96C138.177 88.0203 138.221 88.0876 138.255 88.16L138.395 88.41C138.565 88.75 138.395 88.24 138.395 88.53C138.395 88.82 138.495 88.82 138.525 88.97C138.555 89.12 138.615 89.36 138.525 89.11C138.435 88.86 138.525 89.24 138.525 89.26C138.535 89.4332 138.535 89.6068 138.525 89.78C138.525 89.91 138.575 90.09 138.525 89.78C138.526 89.8938 138.502 90.0064 138.455 90.11C138.434 90.2669 138.387 90.419 138.315 90.56C138.495 90.29 138.315 90.48 138.315 90.56L138.175 90.81L138.045 91.01C138.215 90.74 138.045 90.96 138.045 91.01C137.904 91.1724 137.75 91.3229 137.585 91.46C137.585 91.46 137.835 91.29 137.585 91.46L137.285 91.64L137.145 91.72C137.335 91.63 136.945 91.79 136.885 91.81L136.555 91.91C136.485 91.91 136.085 91.99 136.405 91.91C136.179 91.9351 135.951 91.9351 135.725 91.91C136.035 91.91 135.725 91.91 135.655 91.91L135.275 91.77L134.975 91.65L134.865 91.6L134.345 91.29C134.015 91.1 134.465 91.42 134.295 91.29L133.985 90.98C133.848 90.8326 133.682 90.7144 133.498 90.6324C133.314 90.5504 133.115 90.5064 132.914 90.5028C132.713 90.4993 132.513 90.5363 132.326 90.6117C132.139 90.6872 131.969 90.7995 131.827 90.9419C131.685 91.0843 131.572 91.254 131.497 91.4408C131.421 91.6276 131.384 91.8276 131.388 92.029C131.391 92.2304 131.435 92.4291 131.517 92.6131C131.599 92.7971 131.718 92.9626 131.865 93.1L131.885 93.03Z" fill="#A31852"/>
<path d="M131.755 102.53C131.745 102.45 131.745 102.37 131.755 102.29C131.755 102.46 131.755 102.45 131.755 102.29C131.755 102.13 131.825 101.99 131.865 101.84C131.947 101.555 132.043 101.275 132.155 101C132.215 100.82 132.285 100.65 132.355 100.48C132.255 100.7 132.425 100.34 132.445 100.3C132.465 100.26 132.565 100.06 132.635 99.94L132.785 99.71C132.695 99.84 132.695 99.84 132.785 99.71C133.177 99.3275 133.682 99.082 134.225 99.01C133.985 99.01 134.505 99.01 134.505 99.01H134.975L135.975 98.96C136.642 98.9323 137.311 98.9557 137.975 99.03C138.365 99.03 137.845 99.03 138.165 99.03C138.485 99.03 138.515 99.11 138.685 99.17C138.585 99.17 138.965 99.31 138.935 99.3C138.685 99.16 138.935 99.3 139.005 99.37C139.075 99.44 138.875 99.18 139.085 99.48C139.185 99.63 139.305 99.77 139.395 99.93C139.554 100.236 139.698 100.549 139.825 100.87C140.088 101.455 140.279 102.069 140.395 102.7C140.438 102.899 140.522 103.087 140.64 103.252C140.759 103.418 140.91 103.557 141.084 103.663C141.258 103.768 141.451 103.837 141.653 103.865C141.854 103.893 142.06 103.88 142.256 103.826C142.452 103.773 142.635 103.68 142.795 103.553C142.954 103.426 143.086 103.268 143.182 103.089C143.278 102.91 143.337 102.713 143.355 102.51C143.372 102.307 143.349 102.103 143.285 101.91C143.097 100.996 142.795 100.109 142.385 99.27C142.074 98.4616 141.608 97.7213 141.015 97.09C139.695 95.82 137.525 95.78 135.815 95.87C133.905 95.96 131.955 96.07 130.585 97.62C130.01 98.3473 129.566 99.1697 129.275 100.05C128.935 100.82 128.748 101.649 128.725 102.49C128.725 104.42 131.725 104.43 131.725 102.49L131.755 102.53Z" fill="#A31852"/>
<path d="M75.175 130.64C76.0138 131.5 77.0777 132.106 78.245 132.39C79.1338 132.58 80.056 132.545 80.928 132.289C81.8001 132.033 82.5946 131.563 83.2398 130.923C83.8849 130.283 84.3604 129.492 84.6232 128.622C84.886 127.752 84.9278 126.83 84.745 125.94C84.5263 124.88 83.9951 123.909 83.2198 123.153C82.4445 122.398 81.4606 121.891 80.395 121.7C79.2515 121.451 78.0563 121.628 77.035 122.2C76.4473 122.554 75.9064 122.981 75.425 123.47C74.4744 124.407 73.8983 125.659 73.805 126.99C73.8238 128.198 74.2073 129.373 74.905 130.36C75.0002 130.538 75.1301 130.694 75.2871 130.821C75.4442 130.947 75.6251 131.04 75.8191 131.095C76.013 131.15 76.216 131.165 76.416 131.14C76.6159 131.115 76.8087 131.049 76.9828 130.948C77.1569 130.846 77.3089 130.711 77.4294 130.549C77.55 130.388 77.6367 130.203 77.6845 130.008C77.7324 129.812 77.7402 129.608 77.7076 129.41C77.6751 129.211 77.6027 129.02 77.495 128.85C77.3889 128.699 77.2921 128.542 77.205 128.38L77.105 128.17C76.935 127.83 77.165 128.37 77.105 128.17C77.045 127.97 76.985 127.84 76.935 127.67C76.885 127.5 76.765 127.23 76.805 127.12V127.31C76.805 127.26 76.805 127.22 76.805 127.17C76.805 126.87 76.805 127.17 76.805 127.17C76.86 127.003 76.9035 126.833 76.935 126.66C76.935 126.58 76.985 126.5 77.015 126.41C77.045 126.32 77.135 126.18 77.015 126.41C77.125 126.2 77.265 125.99 77.375 125.78C77.485 125.57 77.155 125.99 77.375 125.78L77.535 125.62L77.915 125.27L78.125 125.09C78.225 125 77.725 125.38 78.035 125.17C78.345 124.96 78.465 124.87 78.685 124.74C78.905 124.61 78.975 124.62 78.685 124.74C78.7604 124.715 78.8372 124.695 78.915 124.68C78.915 124.68 79.305 124.68 79.055 124.68H79.255C79.4213 124.695 79.5886 124.695 79.755 124.68C79.655 124.75 79.485 124.63 79.755 124.68L80.035 124.75C80.155 124.75 80.525 124.89 80.205 124.75C80.3982 124.827 80.5826 124.924 80.755 125.04C80.8355 125.088 80.9124 125.141 80.985 125.2C80.775 124.97 80.895 125.12 80.985 125.2L81.385 125.6C81.525 125.76 81.385 125.6 81.385 125.6C81.4328 125.664 81.4763 125.73 81.515 125.8C81.5676 125.88 81.6144 125.963 81.655 126.05C81.835 126.39 81.655 125.89 81.715 126.17C81.775 126.45 81.805 126.46 81.845 126.61C81.885 126.76 81.925 127 81.845 126.76C81.765 126.52 81.845 126.88 81.845 126.9C81.855 127.073 81.855 127.247 81.845 127.42C81.845 127.56 81.845 127.73 81.845 127.42C81.8362 127.536 81.8127 127.65 81.775 127.76C81.7435 127.911 81.6966 128.059 81.635 128.2C81.815 127.93 81.635 128.12 81.635 128.2C81.635 128.28 81.545 128.37 81.485 128.45L81.355 128.65C81.535 128.38 81.355 128.6 81.355 128.65C81.2116 128.807 81.0579 128.954 80.895 129.09C80.895 129.09 81.145 128.93 80.895 129.09C80.7986 129.156 80.6984 129.216 80.595 129.27C80.595 129.27 80.245 129.46 80.465 129.35C80.685 129.24 80.255 129.43 80.205 129.44L79.865 129.54C79.795 129.54 79.405 129.62 79.725 129.54C79.499 129.565 79.271 129.565 79.045 129.54C79.345 129.54 79.045 129.54 78.975 129.54L78.585 129.41L78.295 129.29C78.535 129.39 78.295 129.29 78.175 129.23C78.055 129.17 77.835 129.02 77.655 128.92C77.475 128.82 77.775 129.05 77.655 128.92C77.535 128.79 77.435 128.72 77.335 128.61C77.0512 128.334 76.6709 128.179 76.275 128.179C75.8791 128.179 75.4988 128.334 75.215 128.61C74.9435 128.896 74.7922 129.276 74.7922 129.67C74.7922 130.064 74.9435 130.444 75.215 130.73L75.175 130.64Z" fill="#A31852"/>
<path d="M75.045 140.15C75.04 140.067 75.04 139.983 75.045 139.9C75.045 140.07 75.045 140.06 75.045 139.9C75.045 139.74 75.115 139.6 75.155 139.45C75.195 139.3 75.335 138.89 75.445 138.61C75.555 138.33 75.575 138.26 75.645 138.09C75.555 138.31 75.715 137.95 75.735 137.91C75.755 137.87 75.865 137.67 75.935 137.55L76.085 137.33C75.985 137.45 75.995 137.45 76.085 137.33C76.4848 136.953 76.9912 136.709 77.535 136.63C77.285 136.63 77.805 136.63 77.805 136.63H78.275L79.275 136.58C79.9425 136.552 80.6111 136.576 81.275 136.65C81.665 136.65 81.145 136.6 81.455 136.65C81.6341 136.683 81.8111 136.726 81.985 136.78C81.875 136.78 82.255 136.92 82.235 136.91C81.975 136.77 82.235 136.91 82.295 136.98C82.355 137.05 82.175 136.8 82.375 137.09C82.4873 137.234 82.5909 137.384 82.685 137.54C82.8484 137.844 82.992 138.158 83.115 138.48C83.4 139.09 83.6019 139.736 83.715 140.4C83.8329 140.775 84.0919 141.088 84.4373 141.275C84.7827 141.462 85.1871 141.507 85.565 141.4C85.9422 141.286 86.2613 141.032 86.4566 140.689C86.652 140.347 86.7086 139.943 86.615 139.56C86.425 138.645 86.1192 137.758 85.705 136.92C85.3949 136.111 84.9295 135.37 84.335 134.74C83.025 133.47 80.855 133.43 79.135 133.52C77.225 133.61 75.275 133.72 73.915 135.27C73.3325 135.993 72.8884 136.816 72.605 137.7C72.265 138.474 72.075 139.305 72.045 140.15C72.045 142.07 75.045 142.08 75.045 140.15Z" fill="#A31852"/>
<path d="M39.865 73.91C40.7017 74.7706 41.7668 75.3743 42.935 75.65C43.6501 75.8256 44.3933 75.8551 45.12 75.7366C45.8468 75.6181 46.5421 75.3541 47.1644 74.9604C47.7867 74.5667 48.3231 74.0514 48.7414 73.4454C49.1597 72.8394 49.4514 72.1552 49.5989 71.4337C49.7464 70.7123 49.7468 69.9685 49.5999 69.2469C49.453 68.5254 49.162 67.8409 48.7442 67.2345C48.3265 66.6281 47.7906 66.1124 47.1687 65.7181C46.5468 65.3238 45.8516 65.0592 45.125 64.94C43.9815 64.6906 42.7863 64.8684 41.765 65.44C41.1795 65.7974 40.639 66.2238 40.155 66.71C39.2081 67.6495 38.6328 68.8997 38.535 70.23C38.5539 71.4385 38.9373 72.6131 39.635 73.6C39.7301 73.7777 39.8601 73.9344 40.0172 74.0607C40.1742 74.187 40.3551 74.2804 40.5491 74.3353C40.743 74.3901 40.946 74.4053 41.146 74.38C41.3459 74.3547 41.5387 74.2893 41.7129 74.1878C41.887 74.0863 42.0388 73.9507 42.1594 73.7892C42.28 73.6276 42.3667 73.4435 42.4145 73.2477C42.4623 73.0519 42.4702 72.8484 42.4377 72.6495C42.4051 72.4506 42.3328 72.2603 42.225 72.09C42.119 71.9393 42.0221 71.7824 41.935 71.62L41.835 71.41C41.665 71.07 41.895 71.61 41.835 71.41C41.775 71.21 41.705 71.07 41.655 70.9C41.605 70.73 41.485 70.46 41.535 70.35V70.54C41.535 70.54 41.535 70.45 41.535 70.4C41.535 70.11 41.535 70.4 41.535 70.4C41.5901 70.2332 41.6335 70.0628 41.665 69.89C41.6962 69.8116 41.7228 69.7314 41.745 69.65C41.745 69.58 41.875 69.41 41.745 69.65C41.865 69.43 41.995 69.22 42.105 69.01C42.215 68.8 41.885 69.22 42.105 69.01L42.265 68.85L42.645 68.5L42.855 68.32C42.955 68.23 42.455 68.61 42.765 68.4C43.075 68.19 43.195 68.1 43.425 67.97C43.495 67.92 43.705 67.85 43.425 67.97L43.655 67.91C43.655 67.91 44.045 67.91 43.805 67.91H43.995C44.1644 67.9298 44.3356 67.9298 44.505 67.91C44.405 67.99 44.225 67.91 44.505 67.91L44.775 67.98C44.895 67.98 45.265 68.12 44.945 67.98C45.1382 68.0566 45.3226 68.1538 45.495 68.27C45.5755 68.3175 45.6524 68.371 45.725 68.43C45.515 68.2 45.635 68.35 45.725 68.43L46.125 68.83C46.265 68.99 46.125 68.83 46.125 68.83C46.125 68.83 46.235 68.99 46.255 69.02L46.395 69.27C46.575 69.61 46.395 69.11 46.455 69.39C46.515 69.67 46.545 69.68 46.585 69.84C46.585 69.84 46.675 70.22 46.585 69.98C46.495 69.74 46.585 70.1 46.585 70.12C46.595 70.2965 46.595 70.4735 46.585 70.65C46.585 70.78 46.645 70.95 46.585 70.65C46.5762 70.7658 46.5527 70.8801 46.515 70.99C46.4896 71.1426 46.4424 71.2908 46.375 71.43C46.555 71.16 46.375 71.35 46.375 71.43C46.3309 71.5167 46.2808 71.6003 46.225 71.68L46.095 71.88C46.275 71.61 46.145 71.88 46.095 71.88C45.9543 72.0423 45.8004 72.1929 45.635 72.33C45.635 72.33 45.885 72.16 45.635 72.33L45.335 72.52L45.205 72.59C45.395 72.5 44.995 72.67 44.945 72.68L44.605 72.78C44.545 72.78 44.145 72.86 44.465 72.78C44.239 72.8049 44.011 72.8049 43.785 72.78C44.085 72.78 43.785 72.78 43.715 72.78L43.325 72.65L43.035 72.53C43.275 72.63 43.035 72.53 42.925 72.47C42.815 72.41 42.575 72.26 42.405 72.16C42.075 71.97 42.525 72.29 42.355 72.16C42.2411 72.0644 42.1341 71.9608 42.035 71.85C41.7512 71.5739 41.3709 71.4194 40.975 71.4194C40.5791 71.4194 40.1988 71.5739 39.915 71.85C39.6429 72.1378 39.4912 72.5189 39.4912 72.915C39.4912 73.3111 39.6429 73.6922 39.915 73.98L39.865 73.91Z" fill="#A31852"/>
<path d="M39.735 83.41C39.73 83.3301 39.73 83.2499 39.735 83.17C39.735 83.33 39.735 83.32 39.735 83.17C39.735 83.02 39.805 82.86 39.845 82.71C39.885 82.56 40.025 82.15 40.135 81.87C40.245 81.59 40.265 81.52 40.335 81.35C40.245 81.57 40.405 81.21 40.425 81.17C40.445 81.13 40.555 80.93 40.625 80.81L40.775 80.59C40.675 80.71 40.685 80.71 40.775 80.59C41.1773 80.2167 41.6825 79.9729 42.225 79.89C41.975 79.89 42.495 79.89 42.495 79.89H42.965L43.965 79.84C44.6325 79.8175 45.3007 79.8409 45.965 79.91C46.355 79.91 45.835 79.91 46.145 79.91C46.3254 79.9414 46.5027 79.9882 46.675 80.05C46.565 80.05 46.945 80.18 46.925 80.17C46.665 80.03 46.925 80.17 46.985 80.24C47.045 80.31 46.865 80.06 47.065 80.35C47.1773 80.4936 47.2809 80.6439 47.375 80.8C47.5398 81.1045 47.6868 81.4184 47.815 81.74C48.0912 82.3537 48.2927 82.9983 48.415 83.66C48.5202 84.043 48.773 84.3686 49.118 84.5654C49.4629 84.7622 49.8718 84.8142 50.255 84.71C50.6251 84.5858 50.9343 84.3257 51.1199 83.9823C51.3056 83.6389 51.3538 83.2377 51.255 82.86C51.0654 81.9494 50.7631 81.0659 50.355 80.23C50.0399 79.4205 49.5751 78.6776 48.985 78.04C47.665 76.77 45.495 76.74 43.775 76.82C41.865 76.91 39.915 77.03 38.555 78.57C37.9739 79.2971 37.53 80.1239 37.245 81.01C36.9051 81.7804 36.715 82.6085 36.685 83.45C36.685 85.38 39.685 85.38 39.685 83.45L39.735 83.41Z" fill="#A31852"/>
<path d="M11.775 126.08C12.6101 126.94 13.6707 127.546 14.835 127.83C15.7246 128.022 16.6479 127.988 17.5213 127.733C18.3948 127.478 19.1908 127.009 19.8373 126.368C20.4837 125.728 20.9601 124.936 21.2234 124.065C21.4866 123.194 21.5285 122.271 21.345 121.38C21.1307 120.321 20.6065 119.35 19.8391 118.59C19.0717 117.83 18.0957 117.314 17.035 117.11C15.8902 116.868 14.6966 117.049 13.675 117.62C13.0898 117.974 12.5492 118.397 12.065 118.88C11.1152 119.822 10.5395 121.076 10.445 122.41C10.4664 123.616 10.8458 124.789 11.535 125.78C11.7353 126.125 12.0642 126.376 12.4496 126.478C12.835 126.58 13.2452 126.525 13.59 126.325C13.9348 126.125 14.1859 125.796 14.2881 125.41C14.3903 125.025 14.3352 124.615 14.135 124.27C14.025 124.11 13.935 123.96 13.845 123.8L13.745 123.59C13.575 123.25 13.805 123.79 13.745 123.59C13.685 123.39 13.625 123.26 13.575 123.09C13.525 122.92 13.405 122.65 13.445 122.54V122.73C13.445 122.68 13.445 122.63 13.445 122.59C13.445 122.29 13.445 122.59 13.445 122.59C13.445 122.59 13.565 122.14 13.585 122.09C13.605 122.04 13.635 121.93 13.665 121.84C13.695 121.75 13.785 121.61 13.665 121.84C13.775 121.63 13.915 121.42 14.025 121.21C14.135 121 13.805 121.42 14.025 121.21L14.185 121.05L14.565 120.7L14.765 120.52C14.875 120.43 14.375 120.81 14.685 120.6C14.995 120.39 15.115 120.3 15.335 120.16C15.555 120.02 15.625 120.04 15.335 120.16L15.565 120.09C15.565 120.09 15.955 120.09 15.705 120.09C15.455 120.09 15.855 120.09 15.905 120.09C16.0711 120.109 16.2389 120.109 16.405 120.09C16.305 120.16 16.135 120.04 16.405 120.09L16.685 120.16C16.805 120.16 17.165 120.3 16.855 120.16C17.0501 120.233 17.2349 120.33 17.405 120.45C17.4877 120.494 17.5649 120.548 17.635 120.61C17.425 120.38 17.545 120.53 17.635 120.61L18.035 121.01C18.175 121.16 18.035 121.01 18.035 121.01C18.0829 121.074 18.1263 121.14 18.165 121.21C18.2176 121.29 18.2643 121.373 18.305 121.46C18.475 121.8 18.305 121.29 18.305 121.58C18.3575 121.724 18.4009 121.871 18.435 122.02C18.435 122.02 18.525 122.41 18.435 122.16C18.345 121.91 18.435 122.29 18.435 122.31C18.445 122.483 18.445 122.657 18.435 122.83C18.435 122.96 18.485 123.14 18.435 122.83C18.4262 122.946 18.4026 123.06 18.365 123.17C18.3346 123.323 18.2842 123.471 18.215 123.61C18.405 123.34 18.215 123.53 18.215 123.61L18.065 123.86L17.935 124.06C18.115 123.79 17.935 124.01 17.935 124.06C17.7916 124.217 17.638 124.364 17.475 124.5C17.475 124.5 17.725 124.33 17.475 124.5C17.3786 124.566 17.2784 124.626 17.175 124.68C17.175 124.68 16.825 124.87 17.045 124.76C17.265 124.65 16.835 124.84 16.785 124.85L16.445 124.95C16.375 124.95 15.975 125.03 16.305 124.95C16.079 124.975 15.851 124.975 15.625 124.95C15.925 124.95 15.625 124.95 15.555 124.95C15.485 124.95 15.295 124.86 15.165 124.81L14.865 124.7C15.115 124.8 14.865 124.7 14.755 124.64C14.645 124.58 14.415 124.43 14.235 124.33C14.055 124.23 14.355 124.46 14.235 124.33C14.115 124.2 14.015 124.13 13.915 124.02C13.6313 123.744 13.2509 123.589 12.855 123.589C12.4591 123.589 12.0788 123.744 11.795 124.02C11.5235 124.306 11.3721 124.686 11.3721 125.08C11.3721 125.474 11.5235 125.854 11.795 126.14L11.775 126.08Z" fill="#A31852"/>
<path d="M11.645 135.58C11.64 135.5 11.64 135.42 11.645 135.34C11.645 135.51 11.645 135.5 11.645 135.34C11.645 135.18 11.715 135.04 11.755 134.89C11.795 134.74 11.935 134.33 12.045 134.05C12.155 133.77 12.175 133.7 12.245 133.53C12.155 133.75 12.315 133.39 12.335 133.35C12.355 133.31 12.465 133.11 12.535 132.99C12.5757 132.911 12.626 132.837 12.685 132.77C12.585 132.89 12.595 132.89 12.685 132.77C13.0848 132.393 13.5911 132.149 14.135 132.07C13.885 132.07 14.405 132.07 14.405 132.07H14.875L15.875 132.02C16.5425 131.992 17.2111 132.016 17.875 132.09C18.255 132.09 17.745 132.04 18.055 132.09C18.365 132.14 18.415 132.17 18.585 132.23C18.475 132.23 18.855 132.37 18.835 132.36C18.575 132.22 18.835 132.36 18.895 132.43C18.955 132.5 18.775 132.24 18.975 132.54C19.075 132.69 19.195 132.83 19.285 132.99C19.4445 133.296 19.588 133.609 19.715 133.93C20.0001 134.54 20.2019 135.186 20.315 135.85C20.435 136.223 20.6945 136.535 21.0392 136.722C21.3839 136.908 21.7872 136.954 22.165 136.85C22.5422 136.736 22.8614 136.482 23.0567 136.139C23.252 135.797 23.3087 135.393 23.215 135.01C23.0265 134.095 22.7206 133.207 22.305 132.37C21.9973 131.56 21.5316 130.819 20.935 130.19C19.625 128.92 17.455 128.88 15.735 128.97C13.825 129.06 11.875 129.17 10.515 130.72C9.9325 131.442 9.4884 132.266 9.205 133.15C8.8615 133.919 8.67129 134.748 8.645 135.59C8.645 137.52 11.645 137.53 11.645 135.59V135.58Z" fill="#A31852"/>
</g>
<defs>
<clipPath id="clip0_8342_111">
<rect width="151.19" height="147.88" fill="white" transform="translate(0.404999)"/>
</clipPath>
</defs>
</svg>
