<svg width="55" height="55" viewBox="0 0 55 55" fill="none" xmlns="http://www.w3.org/2000/svg">
<path d="M22.5743 54.4122C16.357 52.9688 10.6838 49.7524 6.23308 45.1475L6.30311 45.124C6.21015 45.018 6.13577 44.9083 6.07824 44.7966C2.76913 39.9303 -0.232855 33.0287 0.116795 26.9945C0.730557 20.4896 3.58867 14.4073 8.19402 9.8055C10.8357 7.10646 13.7907 4.73794 16.995 2.7512C21.6849 0.132129 27.1529 -0.702379 32.4025 0.399767C37.981 1.33962 43.1303 4.00649 47.1347 8.02979C51.1392 12.0531 53.8 17.233 54.7473 22.8496C55.6946 28.4662 54.8814 34.2406 52.4207 39.3703C49.96 44.4999 45.974 48.7301 41.0166 51.4729C35.4184 54.6498 28.8728 55.693 22.5743 54.4122Z" fill="url(#paint0_linear_8356_96)"/>
<defs>
<linearGradient id="paint0_linear_8356_96" x1="55.1319" y1="54.9457" x2="-9.62127" y2="38.7506" gradientUnits="userSpaceOnUse">
<stop stop-color="#660F33"/>
<stop offset="1" stop-color="#CC1E66"/>
</linearGradient>
</defs>
</svg>
