<svg width="55" height="55" viewBox="0 0 55 55" fill="none" xmlns="http://www.w3.org/2000/svg">
<path d="M22.5742 54.4122C16.3569 52.9688 10.6837 49.7524 6.23296 45.1475L6.30299 45.124C6.21003 45.018 6.13565 44.9083 6.07811 44.7966C2.76901 39.9303 -0.232977 33.0287 0.116672 26.9945C0.730435 20.4896 3.58855 14.4073 8.1939 9.8055C10.8355 7.10646 13.7905 4.73794 16.9949 2.7512C21.6847 0.132129 27.1528 -0.702379 32.4024 0.399767C37.9809 1.33962 43.1301 4.00649 47.1346 8.02979C51.1391 12.0531 53.7999 17.233 54.7472 22.8496C55.6945 28.4662 54.8813 34.2406 52.4206 39.3703C49.9599 44.4999 45.9738 48.7301 41.0165 51.4729C35.4183 54.6498 28.8726 55.693 22.5742 54.4122Z" fill="url(#paint0_linear_8914_135)"/>
<defs>
<linearGradient id="paint0_linear_8914_135" x1="55.1317" y1="54.9457" x2="-9.6214" y2="38.7506" gradientUnits="userSpaceOnUse">
<stop stop-color="#660F33"/>
<stop offset="1" stop-color="#CC1E66"/>
</linearGradient>
</defs>
</svg>
