<svg width="24" height="25" viewBox="0 0 24 25" fill="none" xmlns="http://www.w3.org/2000/svg">
<g clip-path="url(#clip0_8819_857)">
<path d="M6.91712 18.6916C6.81265 18.3667 6.79201 18.0204 6.85714 17.6853C6.85714 17.5344 6.9271 17.3935 6.96708 17.2425C6.96708 17.313 7.00707 17.0916 6.96708 17.2425L7.05704 17.0514C7.36319 16.4194 7.79534 15.8576 8.32653 15.401C8.92784 14.9336 9.62199 14.6018 10.3619 14.4282C11.1018 14.2545 11.8701 14.2431 12.6148 14.3948C12.7749 14.4328 12.9434 14.4082 13.0862 14.326C13.2291 14.2439 13.3357 14.1102 13.3844 13.952C13.4274 13.7905 13.4053 13.6186 13.3229 13.4735C13.2405 13.3284 13.1046 13.2219 12.9446 13.1772C11.9737 12.9911 10.9767 12.9911 10.0058 13.1772C9.06331 13.4067 8.18707 13.8546 7.4469 14.4853C6.82506 15.0033 6.31484 15.6436 5.94752 16.3671C5.5318 17.1707 5.44568 18.1065 5.70763 18.9734C5.75639 19.1316 5.86296 19.2653 6.00581 19.3474C6.14867 19.4296 6.31716 19.4542 6.4773 19.4161C6.63582 19.3692 6.77016 19.2623 6.85214 19.1178C6.93413 18.9734 6.95741 18.8026 6.91712 18.6413V18.6916Z" fill="#BDACBB"/>
<path d="M8.58642 10.7821C9.30335 11.5285 10.2201 12.0493 11.2253 12.2814C11.8088 12.3981 12.4095 12.3974 12.9927 12.2793C13.5759 12.1612 14.1302 11.928 14.6235 11.5933C15.1167 11.2585 15.5393 10.8288 15.8669 10.3289C16.1944 9.82894 16.4205 9.26867 16.5319 8.68039C16.6434 8.09211 16.6381 7.48745 16.5163 6.90123C16.3946 6.31502 16.1588 5.75886 15.8225 5.26482C15.4863 4.77077 15.0562 4.34862 14.5571 4.02268C14.0581 3.69674 13.4998 3.47348 12.9146 3.36574C12.0188 3.17757 11.0855 3.32045 10.2857 3.76825C9.77364 4.08308 9.30052 4.45802 8.8763 4.88522C8.1057 5.65483 7.63111 6.67459 7.53687 7.76322C7.57188 8.80868 7.92035 9.819 8.53645 10.6613C8.98626 11.3255 10.0658 10.6613 9.61602 10.0274C9.21149 9.44882 8.94468 8.78428 8.83631 8.08524C8.82737 7.38399 9.05268 6.70001 9.47606 6.14308C9.68014 5.884 9.91138 5.64785 10.1658 5.43869L10.3657 5.25757C10.2757 5.32801 10.4757 5.167 10.3657 5.25757L10.4656 5.17705C10.922 4.79027 11.4896 4.56102 12.085 4.52297C12.7698 4.503 13.4435 4.70017 14.011 5.08661C14.5785 5.47305 15.011 6.02923 15.2474 6.67656C15.4839 7.32389 15.5123 8.02965 15.3286 8.69412C15.145 9.35859 14.7586 9.94818 14.2241 10.3796C13.5473 10.9155 12.6927 11.1711 11.8351 11.094C10.9519 10.9592 10.139 10.5306 9.52603 9.87643C8.98625 9.27266 8.10663 10.1683 8.63641 10.762L8.58642 10.7821Z" fill="#BDACBB"/>
<path d="M2.70764 19.7753C4.6386 21.7756 7.09957 23.1736 9.79688 23.8024C12.5416 24.3603 15.3937 23.9066 17.8347 22.5238C19.9989 21.329 21.7398 19.4834 22.8149 17.244C23.8899 15.0047 24.2457 12.483 23.8325 10.0302C23.4194 7.57745 22.258 5.31559 20.51 3.55966C18.762 1.80372 16.5145 0.64113 14.0804 0.23374C11.7894 -0.239891 9.40576 0.139216 7.37058 1.30092C5.97436 2.14959 4.68381 3.16357 3.52641 4.32125C1.52278 6.32724 0.279216 8.97747 0.0117258 11.8117C-0.138047 14.4494 1.16998 17.4698 2.61778 19.6041C3.0671 20.2686 4.14545 19.6041 3.69613 18.9699C2.49191 17.2009 1.68752 15.1869 1.33973 13.0702C1.00024 10.825 2.06862 8.34837 3.33669 6.5261C5.16392 3.85814 8.63864 1.33111 11.8837 1.28077C14.0958 1.23309 16.2676 1.88169 18.0971 3.13637C19.9267 4.39104 21.323 6.18943 22.0918 8.28138C22.8606 10.3733 22.9638 12.6549 22.3869 14.8087C21.81 16.9625 20.5818 18.8815 18.8731 20.2988C16.6881 22.0756 13.9141 22.9468 11.1149 22.7352C8.24318 22.3332 5.59213 20.9594 3.59631 18.839C3.05713 18.2349 2.17845 19.1309 2.70764 19.7249V19.7753Z" fill="#BDACBB"/>
<path d="M14.7238 13.5091L14.6439 16.3066C14.5889 17.2382 14.5889 18.1724 14.6439 19.104C14.6489 19.2706 14.7168 19.4289 14.8339 19.5467C14.9509 19.6645 15.1082 19.733 15.2736 19.738C15.4389 19.7354 15.5965 19.6674 15.7124 19.5488C15.8284 19.4302 15.8934 19.2705 15.8934 19.104C15.8384 18.1724 15.8384 17.2382 15.8934 16.3066L15.9733 13.5091C15.9541 13.356 15.88 13.2152 15.7649 13.1132C15.6499 13.0111 15.5019 12.9548 15.3486 12.9548C15.1953 12.9548 15.0472 13.0111 14.9322 13.1132C14.8172 13.2152 14.7431 13.356 14.7238 13.5091Z" fill="#BDACBB"/>
<path d="M12.6148 16.9203C14.3525 17.026 16.0949 17.026 17.8326 16.9203C18.6322 16.9203 18.6322 15.6927 17.8326 15.6625C17.0329 15.6323 16.0033 15.6625 15.1037 15.7229C14.7341 15.743 14.3637 15.743 13.9942 15.7229H13.3344H13.0746C13.0246 15.7229 12.7347 15.7229 12.9446 15.7229C12.7845 15.6848 12.616 15.7094 12.4731 15.7916C12.3302 15.8737 12.2237 16.0074 12.1749 16.1656C12.132 16.3271 12.1541 16.499 12.2365 16.6441C12.3188 16.7892 12.4548 16.8957 12.6148 16.9405V16.9203Z" fill="#BDACBB"/>
</g>
<defs>
<clipPath id="clip0_8819_857">
<rect width="24" height="24" fill="white" transform="translate(0 0.0349121)"/>
</clipPath>
</defs>
</svg>
